<?xml version="1.0" encoding="utf-8"?>
<svg width="534" height="338" viewBox="1.376 21.103 529.413 294.876" fill="none" xmlns="http://www.w3.org/2000/svg">
  <g clip-path="url(#clip0_125_510)">
    <path d="M2.62021 310.489C2.62021 307.82 5.08054 300.224 8.45506 292.474L14.2899 279.074L12.2909 273.207C11.1914 269.98 10.2918 265.219 10.2918 262.626C10.2918 259.983 9.24972 256.572 7.92056 254.862C4.48283 250.442 2.62931 243.83 2.39212 235.142C2.20527 228.298 2.7939 226.392 8.15582 216.478C11.4403 210.406 14.1276 204.033 14.1276 202.317C14.1276 198.657 18.4942 194.17 23.189 193.006C25.0082 192.555 29.5372 188.731 33.2533 184.509C36.9695 180.288 41.4388 176.29 43.1851 175.626C45.8881 174.599 46.2188 173.899 45.4091 170.922C44.1271 166.209 44.5657 160.315 46.3594 158.154C47.1673 157.18 49.7775 155.384 52.1599 154.162C54.7626 152.826 60.5663 146.623 66.7002 138.62C83.2131 117.077 99.6088 106.639 116.783 106.737C121.243 106.763 126.128 107.584 127.923 108.61C129.681 109.615 132.27 110.473 133.677 110.517C137.322 110.63 144.012 116.852 145.553 121.561C146.596 124.751 146.455 125.97 144.854 127.571C143.213 129.212 143.143 129.935 144.47 131.535C145.819 133.159 145.551 134.137 142.887 137.302C141.124 139.398 138.665 143.772 137.424 147.022L135.167 152.932L128.029 152.674C124.103 152.532 119.891 152.485 118.669 152.569C115.798 152.766 109.759 162.318 110.224 165.926C110.422 167.454 110.165 169.375 109.655 170.195C109.144 171.015 109.222 173.029 109.828 174.67C110.434 176.311 111.304 180.075 111.762 183.035L112.593 188.415L104.387 188.149C97.2582 187.918 95.7457 188.29 92.8727 190.983C89.5066 194.137 88.6216 196.917 90.7384 197.686C93.3507 198.634 90.3425 204.695 85.6143 208.009C81.7068 210.747 80.6149 212.343 80.6149 215.316C80.6149 217.597 81.5101 219.631 82.8525 220.399C88.6192 223.7 88.6217 223.707 85.8919 228.8C83.5281 233.211 83.4646 233.966 85.1788 237.281C86.2138 239.282 89.2064 242.026 91.829 243.378C94.4517 244.729 98.5239 247.841 100.879 250.293L105.16 254.751L101.518 255.462C99.5148 255.853 91.3836 256.85 83.4483 257.679C64.3631 259.673 62.4375 261.074 50.0384 281.984C44.8663 290.706 38.8419 299.769 36.6509 302.124C31.9071 307.222 21.9457 311.917 11.9533 313.764C2.21668 315.564 2.62021 315.706 2.62021 310.489Z" fill="white" stroke="transparent" stroke-width="4.02248"/>
    <path d="M2.62021 310.489C2.62021 307.82 5.08054 300.224 8.45506 292.474L14.2899 279.074L12.2909 273.207C11.1914 269.98 10.2918 265.219 10.2918 262.626C10.2918 259.983 9.24972 256.572 7.92056 254.862C4.48283 250.442 2.62931 243.83 2.39212 235.142C2.20527 228.298 2.7939 226.392 8.15582 216.478C11.4403 210.406 14.1276 204.033 14.1276 202.317C14.1276 198.657 18.4942 194.17 23.189 193.006C25.0082 192.555 29.5372 188.731 33.2533 184.509C36.9695 180.288 41.4388 176.29 43.1851 175.626C45.8881 174.599 46.2188 173.899 45.4091 170.922C44.1271 166.209 44.5657 160.315 46.3594 158.154C47.1673 157.18 49.7775 155.384 52.1599 154.162C54.7626 152.826 60.5663 146.623 66.7002 138.62C83.2131 117.077 99.6088 106.639 116.783 106.737C121.243 106.763 126.128 107.584 127.923 108.61C129.681 109.615 132.27 110.473 133.677 110.517C137.322 110.63 144.012 116.852 145.553 121.561C146.596 124.751 146.455 125.97 144.854 127.571C143.213 129.212 143.143 129.935 144.47 131.535C145.819 133.159 145.551 134.137 142.887 137.302C141.124 139.398 138.665 143.772 137.424 147.022L135.167 152.932L128.029 152.674C124.103 152.532 119.891 152.485 118.669 152.569C115.798 152.766 109.759 162.318 110.224 165.926C110.422 167.454 110.165 169.375 109.655 170.195C109.144 171.015 109.222 173.029 109.828 174.67C110.434 176.311 111.304 180.075 111.762 183.035L112.593 188.415L104.387 188.149C97.2582 187.918 95.7457 188.29 92.8727 190.983C89.5066 194.137 88.6216 196.917 90.7384 197.686C93.3507 198.634 90.3425 204.695 85.6143 208.009C81.7068 210.747 80.6149 212.343 80.6149 215.316C80.6149 217.597 81.5101 219.631 82.8525 220.399C88.6192 223.7 88.6217 223.707 85.8919 228.8C83.5281 233.211 83.4646 233.966 85.1788 237.281C86.2138 239.282 89.2064 242.026 91.829 243.378C94.4517 244.729 98.5239 247.841 100.879 250.293L105.16 254.751L101.518 255.462C99.5148 255.853 91.3836 256.85 83.4483 257.679C64.3631 259.673 62.4375 261.074 50.0384 281.984C44.8663 290.706 38.8419 299.769 36.6509 302.124C31.9071 307.222 21.9457 311.917 11.9533 313.764C2.21668 315.564 2.62021 315.706 2.62021 310.489Z" fill="white" stroke="transparent" stroke-width="4.02248"/>
    <path d="M102.38 249.703C99.9342 246.822 95.5133 243.289 92.5556 241.852C86.2875 238.806 84.769 235.003 87.62 229.49C90.3818 224.149 90.0752 222.618 85.7293 220.051C80.1287 216.743 80.5553 212.452 86.8359 208.922C92.2964 205.854 96.1185 197.877 93.0436 195.968C90.2494 194.233 96.3396 189.542 101.23 189.663C109.013 189.855 110.639 190.131 112.47 191.573C114.01 192.786 114.125 191.674 113.248 184.047C111.787 171.333 112.351 162.934 114.966 158.488C117.154 154.766 117.537 154.639 126.572 154.639H135.916L139.02 147.607C140.727 143.739 143.619 139.013 145.447 137.104C148.221 134.208 148.501 133.31 147.14 131.67C145.859 130.127 145.842 129.306 147.061 127.838C149.343 125.088 146.401 117.069 141.623 113.013C138.307 110.199 137.932 109.269 138.921 106.31L140.07 102.873L143.906 108.522C150.583 118.356 158.049 120.544 168.199 115.642C174.768 112.469 175.206 112.489 180.222 116.189C182.537 117.897 186.614 119.663 189.281 120.114C192.014 120.576 195.449 122.343 197.148 124.163C198.807 125.939 203.616 129.065 207.836 131.109C212.055 133.153 222.124 139.407 230.211 145.006C240.589 152.191 246.067 155.2 248.83 155.232C250.982 155.258 253.994 156.442 255.521 157.865C257.512 159.72 259.231 160.218 261.599 159.624C264.072 159.003 265.761 159.581 268.333 161.93C270.221 163.654 274.162 165.815 277.09 166.733L282.414 168.401L281.853 177.298C281.301 186.042 276.566 202.221 273.385 206.235C272.494 207.358 270.122 209.688 268.113 211.414C266.104 213.139 262.767 218.095 260.698 222.426C255.892 232.489 252.017 234.551 237.923 234.551C232.367 234.551 226.201 235.213 224.221 236.021C222.242 236.829 215.731 237.935 209.754 238.479C196.26 239.708 187.057 241.692 177.149 245.509C171.411 247.72 162.712 249.149 142.627 251.179C127.859 252.672 113.763 254.13 111.301 254.418C107.353 254.881 106.303 254.327 102.38 249.703Z" fill="white" stroke="transparent" stroke-width="4.02248"/>
    <path d="M324.258 141.533C322.983 134.677 321.467 128.149 320.887 127.026C319.202 123.762 310.192 121.199 290.015 118.244L271.185 115.486L267.187 120.039C264.747 122.818 262.025 124.592 260.201 124.592C256.387 124.592 255.083 122.554 257.89 120.983C259.788 119.921 259.848 119.282 258.381 115.741C256.935 112.249 257.011 111.151 258.951 107.549L261.191 103.39L255.252 91.5639C251.985 85.0596 248.821 80.0414 248.221 80.4124C247.62 80.7835 246.39 79.3017 245.486 77.1197C244.054 73.6627 244.117 72.9988 245.977 71.958C247.363 71.182 248.118 69.1064 248.131 66.0324C248.157 59.6865 250.181 56.3588 251.301 60.8207C252.674 66.2922 257.747 68.2779 266.324 66.7013C273.218 65.4342 274.108 65.573 280.801 68.9595C290.113 73.6708 297.823 73.9597 302.289 69.7648C304.121 68.0433 307.36 66.6038 309.744 66.4513C312.062 66.303 315.188 65.7848 316.69 65.2997C320.77 63.9823 326.653 69.6328 331.268 79.301C335.338 87.8289 339.555 91.3483 345.704 91.3483C350.646 91.3483 352.073 88.6124 350.389 82.3617C349.598 79.4214 349.296 76.1136 349.719 75.011C350.366 73.3253 350.798 73.4484 352.434 75.7843C355.602 80.307 369.578 79.5282 369.578 74.8289C369.578 71.4325 362.962 65.9196 356.716 64.1112C351.068 62.4758 348.588 59.0732 352.071 57.7367C353.849 57.0544 356.141 58.0576 362.057 62.108C363.732 63.255 366.687 64.561 368.623 65.0101C371.631 65.708 372.513 65.219 374.691 61.6461C376.093 59.3467 377.242 58.1846 377.245 59.0636C377.247 59.9427 378.386 60.6619 379.774 60.6619C382.831 60.6619 386.465 54.2273 386.15 49.372C385.778 43.6233 386.108 42.7615 388.684 42.7615C390.811 42.7615 391.161 43.6587 391.12 49.0113C391.072 55.1405 392.87 60.3766 395.661 62.2406C396.435 62.7572 398.9 63.1888 401.138 63.1995C404.422 63.2153 406.118 62.1081 409.923 57.4654C414.163 52.2904 415.183 51.7117 420.065 51.7117C423.647 51.7117 426.656 52.6271 428.915 54.404C431.136 56.1517 433.328 56.8306 435.16 56.3389C436.713 55.9224 441.395 56.2446 445.566 57.0548L453.148 58.528L456.527 54.4806C460.548 49.664 463.791 49.3949 470.635 53.3099C475.309 55.9839 475.913 56.0487 479.199 54.229C483.828 51.6657 484.829 44.9086 480.891 42.8014C479.444 42.0267 478.259 40.762 478.259 39.9909C478.259 37.6244 488.469 39.7408 491.702 42.7774C495.454 46.3022 499.295 45.2676 502.02 39.9983C503.719 36.7129 504.527 36.2637 507.44 36.9836C511.826 38.0673 517.469 43.3946 520.527 49.3382C521.845 51.9006 524.614 60.8189 526.68 69.1566L530.437 84.316L522.069 92.3073C517.467 96.7025 512.732 100.299 511.546 100.299C510.361 100.299 508.04 98.8601 506.389 97.1021C500.601 90.9419 493.387 93.6131 484.188 105.323C478.112 113.056 472.853 116.92 468.405 116.92C465.927 116.92 447.022 109.754 440.302 106.267C434.038 103.016 431.812 104.565 432.845 111.455C433.689 117.079 433.663 117.13 430.086 116.84C428.101 116.679 424.856 117.206 422.877 118.012C417.622 120.152 416.893 119.956 409.649 114.464C397.821 105.496 393.233 104.336 391.823 109.956C391.127 112.728 390.48 113.105 387.527 112.456C382.018 111.246 380.336 114.296 382.158 122.192C385.091 134.897 383.285 141.211 377.263 139.3C375.797 138.835 373.159 136.176 371.401 133.391C366.366 125.415 359.437 124.089 359.369 131.089C359.358 132.2 357.915 133.878 356.161 134.816C352.225 136.923 349.182 141.41 348.833 145.621C348.557 148.953 346.548 150.143 336.974 152.648C326.758 155.32 326.832 155.385 324.258 141.533Z" fill="transparent" stroke="transparent" stroke-width="4.02248"/>
    <path d="M102.38 249.703C99.9342 246.822 95.5133 243.289 92.5556 241.852C86.2875 238.806 84.769 235.003 87.62 229.49C90.3818 224.149 90.0752 222.618 85.7293 220.051C80.1287 216.743 80.5553 212.452 86.8359 208.922C92.2964 205.854 96.1185 197.877 93.0436 195.968C90.2494 194.233 96.3396 189.542 101.23 189.663C109.013 189.855 110.639 190.131 112.47 191.573C114.01 192.786 114.125 191.674 113.248 184.047C111.787 171.333 112.351 162.934 114.966 158.488C117.154 154.766 117.537 154.639 126.572 154.639H135.916L139.02 147.607C140.727 143.739 143.619 139.013 145.447 137.104C148.221 134.208 148.501 133.31 147.14 131.67C145.859 130.127 145.842 129.306 147.061 127.838C149.343 125.088 146.401 117.069 141.623 113.013C138.307 110.199 137.932 109.269 138.921 106.31L140.07 102.873L143.906 108.522C150.583 118.356 158.049 120.544 168.199 115.642C174.768 112.469 175.206 112.489 180.222 116.189C182.537 117.897 186.614 119.663 189.281 120.114C192.014 120.576 195.449 122.343 197.148 124.163C198.807 125.939 203.616 129.065 207.836 131.109C212.055 133.153 222.124 139.407 230.211 145.006C240.589 152.191 246.067 155.2 248.83 155.232C250.982 155.258 253.994 156.442 255.521 157.865C257.512 159.72 259.231 160.218 261.599 159.624C264.072 159.003 265.761 159.581 268.333 161.93C270.221 163.654 274.162 165.815 277.09 166.733L282.414 168.401L281.853 177.298C281.301 186.042 276.566 202.221 273.385 206.235C272.494 207.358 270.122 209.688 268.113 211.414C266.104 213.139 262.767 218.095 260.698 222.426C255.892 232.489 252.017 234.551 237.923 234.551C232.367 234.551 226.201 235.213 224.221 236.021C222.242 236.829 215.731 237.935 209.754 238.479C196.26 239.708 187.057 241.692 177.149 245.509C171.411 247.72 162.712 249.149 142.627 251.179C127.859 252.672 113.763 254.13 111.301 254.418C107.353 254.881 106.303 254.327 102.38 249.703Z" fill="white" stroke="transparent" stroke-width="4.02248"/>
    <path d="M102.38 249.703C99.9342 246.822 95.5133 243.289 92.5556 241.852C86.2875 238.806 84.769 235.003 87.62 229.49C90.3818 224.149 90.0752 222.618 85.7293 220.051C80.1287 216.743 80.5553 212.452 86.8359 208.922C92.2964 205.854 96.1185 197.877 93.0436 195.968C90.2494 194.233 96.3396 189.542 101.23 189.663C109.013 189.855 110.639 190.131 112.47 191.573C114.01 192.786 114.125 191.674 113.248 184.047C111.787 171.333 112.351 162.934 114.966 158.488C117.154 154.766 117.537 154.639 126.572 154.639H135.916L139.02 147.607C140.727 143.739 143.619 139.013 145.447 137.104C148.221 134.208 148.501 133.31 147.14 131.67C145.859 130.127 145.842 129.306 147.061 127.838C149.343 125.088 146.401 117.069 141.623 113.013C138.307 110.199 137.932 109.269 138.921 106.31L140.07 102.873L143.906 108.522C150.583 118.356 158.049 120.544 168.199 115.642C174.768 112.469 175.206 112.489 180.222 116.189C182.537 117.897 186.614 119.663 189.281 120.114C192.014 120.576 195.449 122.343 197.148 124.163C198.807 125.939 203.616 129.065 207.836 131.109C212.055 133.153 222.124 139.407 230.211 145.006C240.589 152.191 246.067 155.2 248.83 155.232C250.982 155.258 253.994 156.442 255.521 157.865C257.512 159.72 259.231 160.218 261.599 159.624C264.072 159.003 265.761 159.581 268.333 161.93C270.221 163.654 274.162 165.815 277.09 166.733L282.414 168.401L281.853 177.298C281.301 186.042 276.566 202.221 273.385 206.235C272.494 207.358 270.122 209.688 268.113 211.414C266.104 213.139 262.767 218.095 260.698 222.426C255.892 232.489 252.017 234.551 237.923 234.551C232.367 234.551 226.201 235.213 224.221 236.021C222.242 236.829 215.731 237.935 209.754 238.479C196.26 239.708 187.057 241.692 177.149 245.509C171.411 247.72 162.712 249.149 142.627 251.179C127.859 252.672 113.763 254.13 111.301 254.418C107.353 254.881 106.303 254.327 102.38 249.703Z" fill="transparent" stroke="transparent" stroke-width="4.02248"/>
    <path d="M324.258 141.533C322.983 134.677 321.467 128.149 320.887 127.026C319.202 123.762 310.192 121.199 290.015 118.244L271.185 115.486L267.187 120.039C264.747 122.818 262.025 124.592 260.201 124.592C256.387 124.592 255.083 122.554 257.89 120.983C259.788 119.921 259.848 119.282 258.381 115.741C256.935 112.249 257.011 111.151 258.951 107.549L261.191 103.39L255.252 91.5639C251.985 85.0596 248.821 80.0414 248.221 80.4124C247.62 80.7835 246.39 79.3017 245.486 77.1197C244.054 73.6627 244.117 72.9988 245.977 71.958C247.363 71.182 248.118 69.1064 248.131 66.0324C248.157 59.6865 250.181 56.3588 251.301 60.8207C252.674 66.2922 257.747 68.2779 266.324 66.7013C273.218 65.4342 274.108 65.573 280.801 68.9595C290.113 73.6708 297.823 73.9597 302.289 69.7648C304.121 68.0433 307.36 66.6038 309.744 66.4513C312.062 66.303 315.188 65.7848 316.69 65.2997C320.77 63.9823 326.653 69.6328 331.268 79.301C335.338 87.8289 339.555 91.3483 345.704 91.3483C350.646 91.3483 352.073 88.6124 350.389 82.3617C349.598 79.4214 349.296 76.1136 349.719 75.011C350.366 73.3253 350.798 73.4484 352.434 75.7843C355.602 80.307 369.578 79.5282 369.578 74.8289C369.578 71.4325 362.962 65.9196 356.716 64.1112C351.068 62.4758 348.588 59.0732 352.071 57.7367C353.849 57.0544 356.141 58.0576 362.057 62.108C363.732 63.255 366.687 64.561 368.623 65.0101C371.631 65.708 372.513 65.219 374.691 61.6461C376.093 59.3467 377.242 58.1846 377.245 59.0636C377.247 59.9427 378.386 60.6619 379.774 60.6619C382.831 60.6619 386.465 54.2273 386.15 49.372C385.778 43.6233 386.108 42.7615 388.684 42.7615C390.811 42.7615 391.161 43.6587 391.12 49.0113C391.072 55.1405 392.87 60.3766 395.661 62.2406C396.435 62.7572 398.9 63.1888 401.138 63.1995C404.422 63.2153 406.118 62.1081 409.923 57.4654C414.163 52.2904 415.183 51.7117 420.065 51.7117C423.647 51.7117 426.656 52.6271 428.915 54.404C431.136 56.1517 433.328 56.8306 435.16 56.3389C436.713 55.9224 441.395 56.2446 445.566 57.0548L453.148 58.528L456.527 54.4806C460.548 49.664 463.791 49.3949 470.635 53.3099C475.309 55.9839 475.913 56.0487 479.199 54.229C483.828 51.6657 484.829 44.9086 480.891 42.8014C479.444 42.0267 478.259 40.762 478.259 39.9909C478.259 37.6244 488.469 39.7408 491.702 42.7774C495.454 46.3022 499.295 45.2676 502.02 39.9983C503.719 36.7129 504.527 36.2637 507.44 36.9836C511.826 38.0673 517.469 43.3946 520.527 49.3382C521.845 51.9006 524.614 60.8189 526.68 69.1566L530.437 84.316L522.069 92.3073C517.467 96.7025 512.732 100.299 511.546 100.299C510.361 100.299 508.04 98.8601 506.389 97.1021C500.601 90.9419 493.387 93.6131 484.188 105.323C478.112 113.056 472.853 116.92 468.405 116.92C465.927 116.92 447.022 109.754 440.302 106.267C434.038 103.016 431.812 104.565 432.845 111.455C433.689 117.079 433.663 117.13 430.086 116.84C428.101 116.679 424.856 117.206 422.877 118.012C417.622 120.152 416.893 119.956 409.649 114.464C397.821 105.496 393.233 104.336 391.823 109.956C391.127 112.728 390.48 113.105 387.527 112.456C382.018 111.246 380.336 114.296 382.158 122.192C385.091 134.897 383.285 141.211 377.263 139.3C375.797 138.835 373.159 136.176 371.401 133.391C366.366 125.415 359.437 124.089 359.369 131.089C359.358 132.2 357.915 133.878 356.161 134.816C352.225 136.923 349.182 141.41 348.833 145.621C348.557 148.953 346.548 150.143 336.974 152.648C326.758 155.32 326.832 155.385 324.258 141.533Z" fill="white" stroke="transparent" stroke-width="4.02248"/>
    <path d="M2.62021 310.489C2.62021 307.82 5.08054 300.224 8.45506 292.474L14.2899 279.074L12.2909 273.207C11.1914 269.98 10.2918 265.219 10.2918 262.626C10.2918 259.983 9.24972 256.572 7.92056 254.862C4.48283 250.442 2.62931 243.83 2.39212 235.142C2.20527 228.298 2.7939 226.392 8.15582 216.478C11.4403 210.406 14.1276 204.033 14.1276 202.317C14.1276 198.657 18.4942 194.17 23.189 193.006C25.0082 192.555 29.5372 188.731 33.2533 184.509C36.9695 180.288 41.4388 176.29 43.1851 175.626C45.8881 174.599 46.2188 173.899 45.4091 170.922C44.1271 166.209 44.5657 160.315 46.3594 158.154C47.1673 157.18 49.7775 155.384 52.1599 154.162C54.7626 152.826 60.5663 146.623 66.7002 138.62C83.2131 117.077 99.6088 106.639 116.783 106.737C121.243 106.763 126.128 107.584 127.923 108.61C129.681 109.615 132.27 110.473 133.677 110.517C137.322 110.63 144.012 116.852 145.553 121.561C146.596 124.751 146.455 125.97 144.854 127.571C143.213 129.212 143.143 129.935 144.47 131.535C145.819 133.159 145.551 134.137 142.887 137.302C141.124 139.398 138.665 143.772 137.424 147.022L135.167 152.932L128.029 152.674C124.103 152.532 119.891 152.485 118.669 152.569C115.798 152.766 109.759 162.318 110.224 165.926C110.422 167.454 110.165 169.375 109.655 170.195C109.144 171.015 109.222 173.029 109.828 174.67C110.434 176.311 111.304 180.075 111.762 183.035L112.593 188.415L104.387 188.149C97.2582 187.918 95.7457 188.29 92.8727 190.983C89.5066 194.137 88.6216 196.917 90.7384 197.686C93.3507 198.634 90.3425 204.695 85.6143 208.009C81.7068 210.747 80.6149 212.343 80.6149 215.316C80.6149 217.597 81.5101 219.631 82.8525 220.399C88.6192 223.7 88.6217 223.707 85.8919 228.8C83.5281 233.211 83.4646 233.966 85.1788 237.281C86.2138 239.282 89.2064 242.026 91.829 243.378C94.4517 244.729 98.5239 247.841 100.879 250.293L105.16 254.751L101.518 255.462C99.5148 255.853 91.3836 256.85 83.4483 257.679C64.3631 259.673 62.4375 261.074 50.0384 281.984C44.8663 290.706 38.8419 299.769 36.6509 302.124C31.9071 307.222 21.9457 311.917 11.9533 313.764C2.21668 315.564 2.62021 315.706 2.62021 310.489Z" fill="white" stroke="transparent" stroke-width="4.02248"/>
    <path d="M102.38 249.703C99.9342 246.822 95.5133 243.289 92.5556 241.852C86.2875 238.806 84.769 235.003 87.62 229.49C90.3818 224.149 90.0752 222.618 85.7293 220.051C80.1287 216.743 80.5553 212.452 86.8359 208.922C92.2964 205.854 96.1185 197.877 93.0436 195.968C90.2494 194.233 96.3396 189.542 101.23 189.663C109.013 189.855 110.639 190.131 112.47 191.573C114.01 192.786 114.125 191.674 113.248 184.047C111.787 171.333 112.351 162.934 114.966 158.488C117.154 154.766 117.537 154.639 126.572 154.639H135.916L139.02 147.607C140.727 143.739 143.619 139.013 145.447 137.104C148.221 134.208 148.501 133.31 147.14 131.67C145.859 130.127 145.842 129.306 147.061 127.838C149.343 125.088 146.401 117.069 141.623 113.013C138.307 110.199 137.932 109.269 138.921 106.31L140.07 102.873L143.906 108.522C150.583 118.356 158.049 120.544 168.199 115.642C174.768 112.469 175.206 112.489 180.222 116.189C182.537 117.897 186.614 119.663 189.281 120.114C192.014 120.576 195.449 122.343 197.148 124.163C198.807 125.939 203.616 129.065 207.836 131.109C212.055 133.153 222.124 139.407 230.211 145.006C240.589 152.191 246.067 155.2 248.83 155.232C250.982 155.258 253.994 156.442 255.521 157.865C257.512 159.72 259.231 160.218 261.599 159.624C264.072 159.003 265.761 159.581 268.333 161.93C270.221 163.654 274.162 165.815 277.09 166.733L282.414 168.401L281.853 177.298C281.301 186.042 276.566 202.221 273.385 206.235C272.494 207.358 270.122 209.688 268.113 211.414C266.104 213.139 262.767 218.095 260.698 222.426C255.892 232.489 252.017 234.551 237.923 234.551C232.367 234.551 226.201 235.213 224.221 236.021C222.242 236.829 215.731 237.935 209.754 238.479C196.26 239.708 187.057 241.692 177.149 245.509C171.411 247.72 162.712 249.149 142.627 251.179C127.859 252.672 113.763 254.13 111.301 254.418C107.353 254.881 106.303 254.327 102.38 249.703Z" fill="white" stroke="transparent" stroke-width="4.02248"/>
    <path d="M2.62021 310.489C2.62021 307.82 5.08054 300.224 8.45506 292.474L14.2899 279.074L12.2909 273.207C11.1914 269.98 10.2918 265.219 10.2918 262.626C10.2918 259.983 9.24972 256.572 7.92056 254.862C4.48283 250.442 2.62931 243.83 2.39212 235.142C2.20527 228.298 2.7939 226.392 8.15582 216.478C11.4403 210.406 14.1276 204.033 14.1276 202.317C14.1276 198.657 18.4942 194.17 23.189 193.006C25.0082 192.555 29.5372 188.731 33.2533 184.509C36.9695 180.288 41.4388 176.29 43.1851 175.626C45.8881 174.599 46.2188 173.899 45.4091 170.922C44.1271 166.209 44.5657 160.315 46.3594 158.154C47.1673 157.18 49.7775 155.384 52.1599 154.162C54.7626 152.826 60.5663 146.623 66.7002 138.62C83.2131 117.077 99.6088 106.639 116.783 106.737C121.243 106.763 126.128 107.584 127.923 108.61C129.681 109.615 132.27 110.473 133.677 110.517C137.322 110.63 144.012 116.852 145.553 121.561C146.596 124.751 146.455 125.97 144.854 127.571C143.213 129.212 143.143 129.935 144.47 131.535C145.819 133.159 145.551 134.137 142.887 137.302C141.124 139.398 138.665 143.772 137.424 147.022L135.167 152.932L128.029 152.674C124.103 152.532 119.891 152.485 118.669 152.569C115.798 152.766 109.759 162.318 110.224 165.926C110.422 167.454 110.165 169.375 109.655 170.195C109.144 171.015 109.222 173.029 109.828 174.67C110.434 176.311 111.304 180.075 111.762 183.035L112.593 188.415L104.387 188.149C97.2582 187.918 95.7457 188.29 92.8727 190.983C89.5066 194.137 88.6216 196.917 90.7384 197.686C93.3507 198.634 90.3425 204.695 85.6143 208.009C81.7068 210.747 80.6149 212.343 80.6149 215.316C80.6149 217.597 81.5101 219.631 82.8525 220.399C88.6192 223.7 88.6217 223.707 85.8919 228.8C83.5281 233.211 83.4646 233.966 85.1788 237.281C86.2138 239.282 89.2064 242.026 91.829 243.378C94.4517 244.729 98.5239 247.841 100.879 250.293L105.16 254.751L101.518 255.462C99.5148 255.853 91.3836 256.85 83.4483 257.679C64.3631 259.673 62.4375 261.074 50.0384 281.984C44.8663 290.706 38.8419 299.769 36.6509 302.124C31.9071 307.222 21.9457 311.917 11.9533 313.764C2.21668 315.564 2.62021 315.706 2.62021 310.489Z" fill="white" stroke="transparent" stroke-width="4.02248"/>
    <path d="M102.371 249.924L97.5761 244.662L92.427 241.943L87.2778 239.223L86.261 236.381C85.2462 233.544 85.2453 233.536 85.7964 232.142C86.1 231.373 87.1219 229.495 88.067 227.967C89.484 225.676 89.768 224.978 89.6852 223.987C89.5886 222.83 89.4593 222.709 86.2286 220.774C81.9174 218.192 81.6498 217.828 81.8047 214.761C81.9193 212.492 81.9819 212.326 83.1846 211.094C83.9281 210.332 85.1499 209.54 86.1657 209.16C87.1124 208.805 88.7885 207.764 89.8903 206.844C91.8256 205.23 91.9115 205.094 92.4175 202.846C92.7055 201.567 93.3701 199.67 93.8942 198.632L94.8472 196.744L93.1258 196.244C92.179 195.968 91.2463 195.743 91.0531 195.743C90.2109 195.743 91.6478 193.751 93.7555 191.996C95.8749 190.231 96.1966 190.078 99.1896 189.405L102.371 188.69L105.156 189.504C107.319 190.136 108.323 190.273 109.656 190.116C111.355 189.916 111.376 189.925 111.794 190.933C112.158 191.811 112.332 191.924 113.047 191.747C113.504 191.635 113.968 191.445 114.077 191.325C114.186 191.206 113.875 187.944 113.385 184.076C112.644 178.229 112.318 176.595 111.455 174.385L110.417 171.727L111.35 170.793L112.284 169.86L111.997 166.128L111.711 162.397L112.748 161.55C113.452 160.976 114.176 159.783 114.999 157.845L116.213 154.988L118.082 154.288C120.782 153.276 126.23 153.286 131.572 154.312L135.52 155.07L135.941 154.07C136.173 153.52 137.526 150.357 138.949 147.04L141.535 141.011L145.116 137.184C149.173 132.85 149.074 133.624 145.882 131.174C145.081 130.558 144.423 129.983 144.422 129.895C144.421 129.807 145.215 129.165 146.188 128.468C147.161 127.77 148.106 127.02 148.288 126.801C148.646 126.37 148.473 125.744 146.269 119.492L145.024 115.961L140.758 112.656L136.491 109.352L137.178 108.34C137.842 107.361 138.747 104.857 139.148 102.885L139.344 101.926L140.13 102.885C141.793 104.912 143.315 106.874 144.015 107.895C144.416 108.48 145.208 109.59 145.773 110.361C146.339 111.133 146.985 112.095 147.209 112.498C147.651 113.294 149.429 114.785 150.958 115.641C151.485 115.936 152.42 116.544 153.035 116.992C154.152 117.806 154.164 117.807 158.789 117.582C163.742 117.341 164.602 117.122 167.899 115.254C172.81 112.473 175.271 112.208 178.248 114.14C179.237 114.781 180.621 115.76 181.325 116.315C183.86 118.314 185.35 118.945 188.836 119.496C194.341 120.367 194.647 120.523 198.31 124.31C201.785 127.904 202.5 128.344 207.612 130.034C209.061 130.513 210.334 131.046 210.44 131.219C210.547 131.391 210.944 131.67 211.323 131.838C211.701 132.005 212.443 132.426 212.97 132.772C213.497 133.118 214.217 133.55 214.568 133.731C216.127 134.533 217.819 135.856 221.92 139.478C222.623 140.099 224.997 141.669 227.194 142.966C232.902 146.337 236.131 148.418 237.467 149.588C238.107 150.148 239.06 150.7 239.585 150.816C240.11 150.931 240.872 151.38 241.279 151.813C241.686 152.246 242.633 152.96 243.382 153.399C244.132 153.839 244.963 154.508 245.228 154.886C245.7 155.561 245.776 155.567 249.228 155.193C253.374 154.743 254.495 154.906 254.24 155.92C254.099 156.483 254.329 156.754 255.479 157.383C256.272 157.816 257.14 158.616 257.459 159.208C257.771 159.788 258.116 160.262 258.226 160.262C258.802 160.262 260.68 159.463 261.237 158.981C261.7 158.58 262.391 158.438 263.744 158.466L265.612 158.504L267.504 160.582C268.545 161.724 269.635 163.045 269.927 163.516C270.52 164.471 271.18 164.726 273.076 164.733C273.838 164.735 275.475 165.21 277.072 165.892C278.56 166.527 280.542 167.342 281.476 167.703C283.046 168.309 283.16 168.422 282.962 169.185C282.845 169.64 282.634 173.032 282.495 176.724C282.355 180.416 282.098 183.868 281.924 184.396C281.75 184.923 281.35 186.505 281.035 187.912C280.439 190.572 275.981 202.896 275.311 203.734C275.1 203.998 274.733 204.717 274.495 205.333C273.873 206.941 272.356 208.633 268.763 211.726C265.201 214.793 263.721 216.597 262.863 218.918C262.538 219.797 262.02 220.948 261.711 221.475C261.403 222.002 261.044 222.794 260.915 223.233C260.681 224.027 258.87 227.852 258.078 229.224C257.425 230.357 256.576 231.19 255.841 231.42C255.234 231.61 252.711 232.737 249.09 234.436C247.957 234.968 246.684 235.057 237.903 235.223C227.289 235.422 227.215 235.432 220.801 237.447C214.95 239.285 214.671 239.318 209.725 238.753C205.735 238.298 205.049 238.296 202.768 238.737C201.377 239.005 200.025 239.403 199.764 239.62C198.294 240.843 194.807 241.692 186.918 242.746C184.56 243.061 180.706 244.244 179.726 244.953C179.55 245.081 178.472 245.515 177.329 245.918C176.186 246.321 174.388 247.057 173.333 247.554C171.668 248.338 170.574 248.543 165.022 249.109C161.506 249.468 156.04 250.044 152.876 250.39C149.711 250.736 142.375 251.532 136.574 252.159C130.772 252.786 122.183 253.726 117.488 254.249C112.793 254.771 108.549 255.196 108.058 255.192C107.314 255.187 106.367 254.31 102.371 249.924Z" fill="white" stroke="transparent" stroke-width="1.00562"/>
    <path d="M102.371 249.924L97.5761 244.662L92.427 241.943L87.2778 239.223L86.261 236.381C85.2462 233.544 85.2453 233.536 85.7964 232.142C86.1 231.373 87.1219 229.495 88.067 227.967C89.484 225.676 89.768 224.978 89.6852 223.987C89.5886 222.83 89.4593 222.709 86.2286 220.774C81.9174 218.192 81.6498 217.828 81.8047 214.761C81.9193 212.492 81.9819 212.326 83.1846 211.094C83.9281 210.332 85.1499 209.54 86.1657 209.16C87.1124 208.805 88.7885 207.764 89.8903 206.844C91.8256 205.23 91.9115 205.094 92.4175 202.846C92.7055 201.567 93.3701 199.67 93.8942 198.632L94.8472 196.744L93.1258 196.244C92.179 195.968 91.2463 195.743 91.0531 195.743C90.2109 195.743 91.6478 193.751 93.7555 191.996C95.8749 190.231 96.1966 190.078 99.1896 189.405L102.371 188.69L105.156 189.504C107.319 190.136 108.323 190.273 109.656 190.116C111.355 189.916 111.376 189.925 111.794 190.933C112.158 191.811 112.332 191.924 113.047 191.747C113.504 191.635 113.968 191.445 114.077 191.325C114.186 191.206 113.875 187.944 113.385 184.076C112.644 178.229 112.318 176.595 111.455 174.385L110.417 171.727L111.35 170.793L112.284 169.86L111.997 166.128L111.711 162.397L112.748 161.55C113.452 160.976 114.176 159.783 114.999 157.845L116.213 154.988L118.082 154.288C120.782 153.276 126.23 153.286 131.572 154.312L135.52 155.07L135.941 154.07C136.173 153.52 137.526 150.357 138.949 147.04L141.535 141.011L145.116 137.184C149.173 132.85 149.074 133.624 145.882 131.174C145.081 130.558 144.423 129.983 144.422 129.895C144.421 129.807 145.215 129.165 146.188 128.468C147.161 127.77 148.106 127.02 148.288 126.801C148.646 126.37 148.473 125.744 146.269 119.492L145.024 115.961L140.758 112.656L136.491 109.352L137.178 108.34C137.842 107.361 138.747 104.857 139.148 102.885L139.344 101.926L140.13 102.885C141.793 104.912 143.315 106.874 144.015 107.895C144.416 108.48 145.208 109.59 145.773 110.361C146.339 111.133 146.985 112.095 147.209 112.498C147.651 113.294 149.429 114.785 150.958 115.641C151.485 115.936 152.42 116.544 153.035 116.992C154.152 117.806 154.164 117.807 158.789 117.582C163.742 117.341 164.602 117.122 167.899 115.254C172.81 112.473 175.271 112.208 178.248 114.14C179.237 114.781 180.621 115.76 181.325 116.315C183.86 118.314 185.35 118.945 188.836 119.496C194.341 120.367 194.647 120.523 198.31 124.31C201.785 127.904 202.5 128.344 207.612 130.034C209.061 130.513 210.334 131.046 210.44 131.219C210.547 131.391 210.944 131.67 211.323 131.838C211.701 132.005 212.443 132.426 212.97 132.772C213.497 133.118 214.217 133.55 214.568 133.731C216.127 134.533 217.819 135.856 221.92 139.478C222.623 140.099 224.997 141.669 227.194 142.966C232.902 146.337 236.131 148.418 237.467 149.588C238.107 150.148 239.06 150.7 239.585 150.816C240.11 150.931 240.872 151.38 241.279 151.813C241.686 152.246 242.633 152.96 243.382 153.399C244.132 153.839 244.963 154.508 245.228 154.886C245.7 155.561 245.776 155.567 249.228 155.193C253.374 154.743 254.495 154.906 254.24 155.92C254.099 156.483 254.329 156.754 255.479 157.383C256.272 157.816 257.14 158.616 257.459 159.208C257.771 159.788 258.116 160.262 258.226 160.262C258.802 160.262 260.68 159.463 261.237 158.981C261.7 158.58 262.391 158.438 263.744 158.466L265.612 158.504L267.504 160.582C268.545 161.724 269.635 163.045 269.927 163.516C270.52 164.471 271.18 164.726 273.076 164.733C273.838 164.735 275.475 165.21 277.072 165.892C278.56 166.527 280.542 167.342 281.476 167.703C283.046 168.309 283.16 168.422 282.962 169.185C282.845 169.64 282.634 173.032 282.495 176.724C282.355 180.416 282.098 183.868 281.924 184.396C281.75 184.923 281.35 186.505 281.035 187.912C280.439 190.572 275.981 202.896 275.311 203.734C275.1 203.998 274.733 204.717 274.495 205.333C273.873 206.941 272.356 208.633 268.763 211.726C265.201 214.793 263.721 216.597 262.863 218.918C262.538 219.797 262.02 220.948 261.711 221.475C261.403 222.002 261.044 222.794 260.915 223.233C260.681 224.027 258.87 227.852 258.078 229.224C257.425 230.357 256.576 231.19 255.841 231.42C255.234 231.61 252.711 232.737 249.09 234.436C247.957 234.968 246.684 235.057 237.903 235.223C227.289 235.422 227.215 235.432 220.801 237.447C214.95 239.285 214.671 239.318 209.725 238.753C205.735 238.298 205.049 238.296 202.768 238.737C201.377 239.005 200.025 239.403 199.764 239.62C198.294 240.843 194.807 241.692 186.918 242.746C184.56 243.061 180.706 244.244 179.726 244.953C179.55 245.081 178.472 245.515 177.329 245.918C176.186 246.321 174.388 247.057 173.333 247.554C171.668 248.338 170.574 248.543 165.022 249.109C161.506 249.468 156.04 250.044 152.876 250.39C149.711 250.736 142.375 251.532 136.574 252.159C130.772 252.786 122.183 253.726 117.488 254.249C112.793 254.771 108.549 255.196 108.058 255.192C107.314 255.187 106.367 254.31 102.371 249.924Z" fill="white" stroke="transparent" stroke-width="1.00562"/>
    <path d="M349.625 149.32V146.74L350.27 144.803V143.834L350.917 141.899L351.561 141.252L352.208 139.962L352.852 138.994L353.175 138.347L354.143 137.703L354.79 137.38L356.725 136.089L357.372 135.765L359.307 134.474L359.953 134.153L360.277 132.862L360.921 130.925V129.957L361.568 128.988L361.889 128.343L362.212 127.375L363.18 127.697L363.826 128.021L364.794 128.343L365.441 128.666L366.408 128.988L367.054 129.634L367.699 130.603L368.345 131.248L368.989 132.216L369.636 132.862L369.958 133.507L370.28 134.474L370.927 135.121L371.249 136.089L371.894 136.735L372.54 137.703L373.185 138.347L373.831 139.317L374.799 139.639L375.767 140.285L377.705 140.93H380.608L381.899 140.608L383.191 139.317L384.158 138.671L384.482 137.703V136.412L385.127 134.474V133.507L384.804 132.539V127.697L384.158 125.762V124.793L383.836 123.825V122.857L382.545 118.984V116.402L382.867 115.434L383.513 114.788L384.158 113.82L384.482 113.175H385.773L386.74 113.497L387.386 113.82L388.355 114.142L388.999 114.466H390.613L391.904 113.175L392.227 112.529L392.551 111.56L392.872 110.269L393.518 108.334L394.809 108.011L395.777 107.688L397.715 108.334L398.359 108.978L400.295 109.624L400.941 109.947L402.877 110.593L404.168 111.884L405.137 112.529L406.427 113.82L407.397 114.466L408.688 115.757L409.655 116.402L410.3 117.046L410.946 117.37L411.914 118.016L412.561 118.337L413.528 118.984L414.173 119.307L415.142 119.952L415.787 120.275L416.757 120.919L417.723 120.598H418.692L419.66 120.275H420.629L421.596 119.952H422.565L423.534 119.628H424.501L425.146 118.661L426.437 117.37L427.083 117.693H428.051L428.698 118.016L429.342 118.661L430.31 118.337H431.603L432.247 118.661H433.215L434.185 118.984L435.151 118.016V117.37L434.829 116.402L434.506 115.757L434.185 114.788V111.56L433.861 110.593V109.947L433.538 108.978V107.688L433.861 106.72L435.151 106.073L436.12 105.752L437.088 106.073L438.379 106.397L439.024 107.043L439.993 107.688L440.962 108.011L441.606 108.656L442.575 109.302L443.544 109.624L444.188 109.947L447.093 110.915L447.74 111.238L450.643 112.206L451.289 112.529L454.195 113.497L454.839 113.82L456.775 114.466L457.421 114.788L459.357 115.434L460.325 116.079L460.972 116.402L463.877 117.37L464.521 117.693H468.394L469.362 118.016H471.299L472.267 117.37L473.236 117.046L473.88 116.725L474.849 116.079L475.818 115.757L476.462 115.111L478.4 114.466L479.367 113.82L479.69 113.175L480.335 112.529L480.981 111.56L482.272 110.269L482.596 109.624L483.24 108.656L484.531 107.365L485.178 106.397L485.499 105.752L486.79 104.461L487.436 103.491L488.727 102.2L489.049 101.233L490.986 99.2968L491.631 98.3285L492.277 98.0044L493.246 97.683L493.89 97.0376L494.859 96.7135L495.504 96.3921L496.472 95.7466L497.442 95.4225L498.086 95.1011L499.054 94.4556L502.927 95.7466L503.573 96.3921L504.541 97.0376L506.477 98.974L507.446 99.6195L508.092 100.588L508.737 101.233L511.641 102.2L512.609 101.879L513.255 101.233L515.191 100.588L516.482 99.2968L517.452 98.6513L519.387 96.7135L520.357 96.0693L522.292 94.1315L523.26 93.4874L524.551 92.1964L525.52 91.551L526.165 91.2282L527.456 89.9359L528.101 88.969L528.746 88.3235L529.392 87.354L530.037 86.7098L530.683 85.7416L531.007 85.0961L531.651 84.1279L532.298 83.4824" stroke="transparent" stroke-width="1.29097"/>
    <path d="M1.38749 316.825H2.35666L3.32459 316.502H4.29245L5.26158 316.179H6.22942L7.19725 315.855H8.16519L8.81122 315.534H9.77918L10.747 315.211H11.7162L12.684 314.888H13.6518L14.621 314.564H15.2658L16.2337 314.243H17.2029L18.1707 313.92H19.1385L20.1081 313.273L20.7523 312.952L22.69 312.306L23.3342 311.982L24.3024 311.661L25.272 311.015L25.9161 310.691L27.8526 310.047L28.498 309.724L29.4676 309.402L30.4345 308.756L31.08 308.433L32.0495 308.111L37.2121 302.947L38.1803 302.301L40.7622 299.718L41.085 299.074L41.7304 298.106L42.0532 297.46L42.7 296.492L43.0214 295.845L43.6669 294.878L43.9896 294.233L44.6351 293.265L44.9579 292.619L45.6047 291.65L45.9261 291.005L46.5716 290.037L46.8956 289.392L47.5398 288.423L47.8625 287.777L48.508 286.81L48.8308 286.164L49.4776 285.196L49.799 284.551L50.4445 283.581L50.7686 282.937L51.4127 281.969L51.7354 281.323L52.3823 280.355L53.0264 279.708L53.3491 278.741L53.9946 278.096L54.3174 277.127L54.9642 276.159L55.2856 275.512L55.9311 274.546L56.2552 273.9L56.8993 272.93L57.222 272.286L57.8675 271.318L58.1903 270.673L58.8371 269.704L59.1585 269.059L59.804 268.091L60.1267 267.444L60.7722 266.477L61.4177 266.153L62.3859 265.509L63.0327 264.862L63.9996 264.218L64.6451 263.895L65.6146 263.25L66.2588 262.604L67.227 262.28L67.8725 261.636L68.8407 260.99L69.4862 260.345H71.4226L72.3922 260.022H74.3273L75.2956 259.699H77.232L78.2002 259.375H79.8139L80.7822 259.054H82.7186L83.6868 258.731H85.6233L86.5915 258.408H88.5293L89.4962 258.084H91.4326L92.4008 257.763H94.0159L94.9828 257.44H96.9192L97.8888 257.118H100.793L101.76 256.793H103.697L104.666 256.472H106.279L107.248 256.149H109.183L110.153 255.827H112.088L113.056 255.502H114.993L115.961 255.181H117.898L118.866 254.858H120.48L121.448 254.536H123.386L124.353 254.211H127.257L128.225 253.89H130.163L131.13 253.567H133.068L134.035 253.245H135.65L136.617 252.922H138.553L139.523 252.599H141.458L142.427 252.276H144.362L145.331 251.954H148.235L149.205 251.631H150.817L151.787 251.307H153.722L154.69 250.985H156.627L157.595 250.663H159.531L160.5 250.34H163.404L164.05 250.016H165.986L166.954 249.694H168.891L169.859 249.372H170.827L172.764 248.725L173.411 248.403L174.377 247.758L177.283 246.79L177.928 246.467L179.865 245.822L180.832 245.176L182.77 244.531L183.414 244.208L184.382 243.885H185.352L186.319 243.562H187.287L188.255 243.238H190.192L191.483 242.917H192.451L193.421 242.594H195.356L196.324 241.947L196.969 241.626L199.874 240.656L200.52 240.012L201.489 239.689H202.456L203.424 239.365H204.071L205.038 239.044H206.006L206.976 239.365H208.911L209.879 239.689H211.815L212.784 240.012H214.72L216.657 239.365H217.626L223.434 237.43L224.08 237.108H225.048L227.953 236.139H240.217L241.185 235.817H247.963L248.609 235.494L249.576 235.17L250.544 234.526L251.513 234.203L252.158 233.879L253.126 233.557L254.096 232.912L255.063 232.588L255.708 232.266L256.678 231.944L257.645 231.297L258.29 230.653L258.613 229.684L259.26 229.039L259.581 228.394L259.904 227.425L260.551 226.457L260.872 225.489L261.195 224.843L261.84 222.907L262.164 222.261L262.809 221.293L263.131 220.325L263.455 219.68L264.1 217.742L264.746 217.098L266.037 215.16L266.682 214.516L267.65 213.869L268.941 212.579L269.909 211.934L271.2 210.643L272.168 209.997L272.815 209.352L273.459 208.382L274.75 207.091L275.073 206.124L275.397 205.479L275.718 204.511L276.364 203.865L276.688 202.896L277.009 202.251L277.655 200.314L277.977 199.67L278.623 197.732L278.946 197.088L279.592 195.151L279.914 194.506L280.883 191.601L281.205 190.954L281.528 189.987V189.019L282.174 187.083V186.114L282.819 184.177V183.21L283.465 181.273L283.141 179.982V173.205L283.465 172.237V170.3L283.787 169.33V168.686L284.11 167.718V166.749L284.432 165.782V163.845L287.337 164.813H289.273L290.243 165.136L290.887 164.813L292.825 164.168L293.469 163.845L295.405 163.2L296.051 162.553L297.987 161.909L298.633 161.262L300.569 160.618L301.215 160.295L303.151 159.65H305.089L306.056 159.327H311.867L312.834 159.004H314.449L316.384 158.359H317.031L318.966 157.713H319.935L321.87 157.068H322.839L323.808 156.745L324.452 156.422H325.42L326.389 156.099H327.357L329.295 155.454H330.262L331.23 155.131L331.877 154.808H332.844L334.781 154.163H335.748L337.685 153.518H338.654L339.298 153.193L340.267 152.872H341.236L342.203 152.549H343.171L344.141 151.902L345.108 151.581L345.753 151.258L346.723 150.611L348.658 149.967L349.787 149.24L349.626 146.74L350.271 144.803V143.834L350.918 141.899L351.562 141.252L352.209 139.962L352.853 138.994L353.176 138.347L354.144 137.703L354.791 137.38L356.726 136.089L357.373 135.765L359.308 134.474L359.953 134.153L360.278 132.862L360.922 130.926V129.957L361.569 128.988L361.89 128.344L362.213 127.375L363.181 127.697L363.826 128.021L364.795 128.344L365.441 128.666L366.408 128.988L367.055 129.635L367.699 130.603L368.346 131.248L368.99 132.217L369.637 132.862L369.958 133.508L370.281 134.474L370.928 135.121L371.249 136.089L371.895 136.735L372.54 137.703L373.186 138.347L373.831 139.317L374.8 139.64L375.768 140.285L377.706 140.931H380.609L381.9 140.608L383.192 139.317L384.159 138.671L384.483 137.703V136.412L385.127 134.474V133.508L384.805 132.539V127.697L384.159 125.762V124.794L383.836 123.825V122.857L382.545 118.984V116.402L382.868 115.434L383.514 114.789L384.159 113.82L384.483 113.175H385.774L386.741 113.498L387.387 113.82L388.356 114.142L389 114.466H390.614L391.905 113.175L392.228 112.529L392.552 111.56L392.873 110.269L393.519 108.334L394.81 108.011L395.778 107.688L397.716 108.334L398.36 108.978L400.296 109.625L400.942 109.947L402.878 110.593L404.169 111.884L405.137 112.529L406.428 113.82L407.398 114.466L408.689 115.757L409.656 116.402L410.301 117.046L410.947 117.37L411.915 118.016L412.562 118.337L413.529 118.984L414.174 119.307L415.142 119.952L415.788 120.275L416.757 120.919L417.724 120.598H418.692L419.661 120.275H420.63L421.597 119.952H422.565L423.535 119.628H424.502L425.147 118.661L426.438 117.37L427.084 117.693H428.052L428.699 118.016L429.343 118.661L430.311 118.337H431.603L432.248 118.661H433.216L434.185 118.984L435.152 118.016V117.37L434.83 116.402L434.507 115.757L434.185 114.789V111.56L433.861 110.593V109.947L433.539 108.978V107.688L433.861 106.72L435.152 106.073L436.12 105.752L437.089 106.073L438.38 106.397L439.025 107.043L439.993 107.688L440.963 108.011L441.607 108.656L442.575 109.302L443.545 109.625L444.189 109.947L447.094 110.916L447.741 111.238L450.644 112.207L451.289 112.529L454.195 113.498L454.839 113.82L456.776 114.466L457.421 114.789L459.358 115.434L460.326 116.079L460.973 116.402L463.878 117.37L464.522 117.693H468.395L469.363 118.016H471.299L472.267 117.37L473.237 117.046L473.881 116.725L474.849 116.079L475.819 115.757L476.463 115.111L478.401 114.466L479.368 113.82L479.691 113.175L480.336 112.529L480.982 111.56L482.272 110.269L482.597 109.625L483.241 108.656L484.532 107.365L485.179 106.397L485.5 105.752L486.791 104.461L487.436 103.491L488.727 102.2L489.05 101.233L490.987 99.2969L491.632 98.3287L492.277 98.0046L493.247 97.6832L493.891 97.0378L494.859 96.7137L495.505 96.3923L496.473 95.7468L497.443 95.4227L498.087 95.1013L499.055 94.4558L502.928 95.7468L503.573 96.3923L504.542 97.0378L506.478 98.9742L507.446 99.6197L508.093 100.588L508.737 101.233L511.642 102.2L512.61 101.879L513.256 101.233L515.192 100.588L516.483 99.2969L517.453 98.6515L519.388 96.7137L520.357 96.0695L522.292 94.1317L523.261 93.4876L524.552 92.1966L525.521 91.5512L526.165 91.2284L527.456 89.9361L528.102 88.9692L528.747 88.3237L529.393 87.3542L530.038 86.71L530.684 85.7418L531.008 85.0963L531.652 84.1281L532.314 83.4412L532.004 82.7544L531.359 82.1076L531.037 81.1407L530.391 80.4952L530.068 79.5256V78.5588L529.422 76.6223V75.6541L529.1 74.6859V73.7176L528.455 71.7812V70.813L527.809 68.8752V67.9083L527.163 65.9705V65.0036L526.518 63.0672V62.0976L526.195 61.1307L525.872 60.4852L525.227 58.5488V57.5806L522.969 50.803L522.645 50.1575L521.999 49.1893L521.678 48.2211L521.031 47.5756L520.708 46.6074L520.063 45.6391L519.74 44.9936L519.417 44.0254L518.773 43.0572L517.482 41.7649L516.513 41.1207L515.867 40.1525L514.576 38.8616L513.609 38.2161L512.963 37.5706L511.026 36.9251L510.381 36.601L506.508 35.3114L505.862 34.9887L504.894 34.6659L503.926 35.3114L503.28 35.6341L502.312 36.2796L501.989 37.2478L501.345 37.892L500.698 39.8298L500.054 40.798L499.73 41.4435L498.763 42.089L497.472 43.3799H495.857L494.889 43.7027L492.953 42.4117L491.662 41.1207L491.339 40.4739L490.695 39.8298L489.725 39.507L489.08 38.8616H488.434L486.499 38.2161H485.529L484.561 37.892H483.593L482.948 37.5706H481.979L481.011 37.2478L480.044 37.5706H478.752L476.815 38.2161V40.1525L477.14 41.1207V42.089L478.106 42.7345L479.075 43.7027H480.044L481.011 44.0254L482.302 45.3164V49.512L481.657 50.1575L481.335 51.1257L481.011 51.7712L480.366 52.4167L479.397 53.0622L477.461 53.7077H474.234L473.267 53.3849L471.976 52.7381L471.006 52.094L470.362 51.7712L469.392 51.1257L468.747 50.803L468.101 50.1575L466.81 49.8334L465.842 49.512H458.742L458.096 49.8334L457.451 50.4802L457.13 51.1257L456.483 52.094L456.16 53.0622L455.515 53.7077L455.192 54.6759L454.546 55.32L453.578 55.9669L451.643 56.611L450.673 56.2896H448.737L447.77 55.9669H445.832L444.865 55.6441H442.928L441.959 55.32L441.314 54.9986L439.377 54.3531L438.732 54.0291H437.764L437.118 53.7077H436.15L434.859 54.3531L434.215 55.6441L433.245 55.9669L432.6 55.6441L431.954 54.9986L431.309 54.0291L429.05 51.7712L427.113 51.1257H426.146L425.5 50.803L424.531 50.4802H423.564L421.627 49.8334H417.108L416.14 50.1575L415.496 50.4802L413.558 51.1257L411.622 53.0622L410.976 54.0291L409.685 55.32L409.04 56.2896L408.718 57.2578L408.072 57.902L407.427 58.8715L405.49 60.8066L404.523 61.4535H403.876L401.941 62.0976H400.971L400.326 62.4217H399.359L398.389 62.0976L397.421 61.4535L396.454 61.1307L395.485 60.4852L394.839 59.1943L394.194 58.226L393.872 57.5806L393.225 56.611L392.903 55.9669L392.581 54.9986V54.0291L392.257 53.3849V52.4167L391.934 51.4485V50.4802L391.612 49.8334L392.257 47.8983V46.9301L392.581 45.9605V45.3164L393.225 43.3799L392.257 42.7345L391.612 42.4117L390.966 41.7649L389.998 41.4435L388.707 41.1207H387.739L386.448 41.4435L384.513 43.3799L384.189 44.3482L383.866 44.9936L383.543 45.9605L384.513 48.8665V49.512L384.834 50.4802V51.7712L384.513 52.7381V53.7077L383.866 54.6759L383.543 55.6441L382.898 56.2896L382.575 57.2578L381.929 58.226L381.608 59.1943H378.702L378.057 58.5488L377.735 57.5806L377.088 56.611L376.766 55.9669L376.444 54.9986V53.0622L376.12 52.4167V51.4485L375.797 50.4802V49.8334L375.475 48.8665L375.153 48.2211L374.829 47.2515L374.184 46.6074L373.215 45.9605L372.57 45.3164H371.602L370.958 45.6391H369.988L369.02 48.5425L369.343 49.1893V50.1575L369.667 50.803L370.958 52.094L371.602 53.0622L373.54 54.9986L374.184 55.9669L374.506 56.9351L374.184 58.226V59.1943L373.54 61.1307V62.0976L372.57 62.7444L371.924 63.3886L370.958 64.0354H369.988L368.697 63.7126H367.729L366.761 63.3886L365.792 62.7444L364.824 62.4217L363.856 61.7762L363.21 61.4535L362.565 60.8066L361.598 60.1625L360.307 58.8715L359.338 58.5488L358.047 57.2578L357.078 56.611H356.111L355.465 56.2896L354.496 55.9669H353.53L352.56 55.6441L351.269 56.9351L350.624 57.2578L349.655 57.902L348.364 59.1943L348.687 60.1625V62.4217L349.655 63.0672L350.301 63.3886L351.269 63.7126L351.915 64.0354L352.56 64.6795L353.53 65.0036H354.496L358.369 66.2946H359.338L360.307 66.6173L361.274 67.2628L361.919 67.5855L363.21 68.8752L364.18 69.1992L364.824 69.8447L365.471 70.813L367.406 72.7481L367.729 73.7176L368.052 75.0086L368.376 75.9768L366.438 76.6223H365.792L363.856 77.2678H361.919L360.951 77.5905H355.787L354.821 77.2678L354.496 76.6223L353.851 75.9768L353.53 75.0086L352.239 73.0722L351.592 72.4267H350.624L349.978 72.7481H349.01L348.043 75.6541L347.719 76.2996L347.396 77.2678V78.2347L349.334 84.0454V85.0122L350.301 87.9183L349.334 88.5637L348.687 88.8851L347.719 89.532L347.073 89.8547H344.17L343.201 89.532H342.232L341.587 89.2092L339.65 88.5637L339.005 88.241L338.037 87.5942L336.102 85.6591L335.455 84.6908L335.132 84.0454L334.486 83.0771L333.841 82.4317L333.518 81.4634L333.197 80.8166L332.55 79.8497L331.906 77.9133L331.582 77.2678L330.936 75.3313L330.615 74.6859L329.968 73.7176L329.645 72.7481L329.324 72.1039L328.677 71.1357L328.354 70.4902L326.418 68.5538L325.45 67.9083L323.513 65.9705L322.868 65.6491L322.222 65.0036L321.255 64.6795L320.609 64.0354L319.964 63.7126L318.995 63.0672L318.027 63.3886L317.381 63.7126H316.413L313.508 64.6795H312.863L309.958 65.6491H308.991L308.344 65.3264L305.44 64.3581L302.536 67.2628L301.89 68.231L300.599 69.522L299.632 70.1661L298.662 70.4902L298.017 70.813L295.112 71.7812H293.176L292.207 71.4571H289.303L288.334 71.1357L287.366 70.4902L282.525 68.8752L281.88 68.231L280.913 67.5855L279.943 67.2628L279.298 66.6173L278.331 66.2946L277.361 65.6491L276.717 65.3264L275.748 65.0036L275.102 64.6795H274.135L273.166 64.3581H271.229L270.262 64.6795H269.293L268.649 65.0036H267.679L266.711 65.3264H265.743L264.776 65.6491H263.806L262.838 65.9705L262.194 66.2946H261.224L260.256 66.6173H259.289L258.319 66.2946L257.674 65.6491L256.707 65.3264L256.06 64.6795L255.092 64.0354L254.447 63.7126L253.478 63.0672L252.833 62.7444V61.7762L252.512 60.8066V58.8715L252.187 57.902V56.9351L251.865 55.9669V45.9605L252.187 44.9936L251.542 44.3482L250.896 43.3799L250.574 42.7345L249.93 41.7649L249.283 41.1207L248.315 40.798H246.378L245.41 40.4739H243.473V41.1207L243.152 41.7649V47.2515L243.473 48.2211V48.8665L244.119 50.803L244.764 51.4485L245.087 52.4167L245.41 53.0622L246.057 54.0291L246.701 54.6759L247.024 55.6441L247.669 56.2896L248.315 57.2578L248.639 57.902L248.315 58.8715L247.669 59.517L247.024 60.4852L246.701 61.1307L246.057 62.0976H243.473L242.505 62.4217L241.537 61.7762L240.891 61.4535L239.923 61.1307L239.279 60.8066L238.31 60.1625L235.083 56.9351L234.759 56.2896L234.114 55.32L233.792 54.3531L233.146 53.7077L232.823 52.7381V50.803L232.502 50.1575V49.1893L232.823 48.2211V47.2515L233.146 46.2846V45.3164L233.468 44.3482L233.792 43.7027V42.7345L234.114 41.7649V40.798L234.437 39.8298V38.8616V41.1207V40.1525L234.759 39.183V34.0204L234.437 33.0522L234.114 31.7612V30.793L232.823 29.5021L232.177 29.1793L231.211 29.5021L230.564 29.8235L229.596 30.1475L228.95 30.4703L228.306 31.1144L227.659 33.0522V34.3432L227.336 35.3114V36.2796L226.691 38.2161L226.045 38.8616H225.077L224.109 39.183L223.142 38.5388L222.495 38.2161L221.527 37.892L220.559 37.2478L219.913 36.9251L218.946 36.601L218.3 37.2478L217.331 37.892L216.04 39.8298L215.718 40.4739L215.074 42.4117L214.427 43.3799L214.104 44.0254L213.783 44.9936L212.813 45.6391L212.169 46.2846L211.199 46.9301L210.554 47.2515L209.587 47.5756H208.617L207.972 47.8983H206.035L204.744 47.5756H203.776L199.903 46.2846L199.258 45.6391L195.385 44.3482L194.741 44.0254L193.771 43.7027L193.45 42.7345L193.771 41.7649V39.8298L193.45 38.8616L193.126 38.2161L192.48 37.2478L191.835 36.601L191.189 35.6341L190.544 34.9887L189.898 34.0204L189.253 33.375L188.607 32.4054L187.963 32.084L187.316 31.4385L186.348 30.793L185.703 30.4703L185.057 29.8235L184.734 29.1793L184.09 28.2111L183.766 27.2429L183.443 26.5974L182.799 25.6278L182.475 24.9837L181.83 24.0155L180.862 23.37L180.216 22.7245L179.248 22.079L178.604 22.7245L177.634 23.0459L176.989 23.6927L176.022 24.3368L175.375 24.9837L174.407 25.3064L173.761 25.9519L173.44 26.9201L172.793 27.8883L172.47 28.5325L172.148 29.5021V30.4703L171.826 31.4385L171.502 32.7295L171.179 33.6963L170.211 34.0204L168.92 34.6659L167.953 34.0204L167.306 33.375L166.338 33.0522V32.084L165.693 30.1475V29.1793L165.047 27.2429V26.2746L164.724 25.6278L164.079 24.6609L163.111 23.6927H161.176L160.206 23.37H156.979L156.01 23.0459H154.074L151.169 22.079L150.525 21.7549H149.556L148.587 20.788L147.621 20.1426L146.974 19.4971L146.006 20.1426L145.36 20.788L144.392 21.4335L143.101 22.7245L142.133 23.37L141.487 24.0155L140.519 24.3368L135.355 29.5021L134.71 30.4703L134.064 31.1144L133.741 31.7612L133.097 33.6963L132.45 34.3432V35.3114L132.128 35.9569V38.2161L132.45 39.183V40.1525L132.773 41.1207V42.089L133.741 44.9936V45.9605L134.388 47.8983V48.8665L135.355 51.7712L135.679 52.4167L136.646 55.32L136.97 55.9669L137.937 58.8715L138.261 59.517L139.228 62.4217L139.552 63.0672L140.519 65.9705V73.0722L140.196 74.039V81.4634L139.874 82.4317V89.2092L139.552 90.1761V95.9868L139.228 96.9537V97.9232L138.905 98.8915V99.8597L138.583 100.828V101.796L138.261 102.764V103.731L137.614 105.669L137.292 106.313L136.97 107.283L136.323 108.251L135.355 109.218L134.388 109.542H131.805L130.837 108.896L130.193 108.574L129.223 107.928L127.286 106.96L126.32 106.637L125.673 106.313L123.736 105.669H123.091L122.124 105.346L121.477 105.022H118.251L117.282 104.701L116.313 105.022H115.346L114.377 105.346H112.44L111.474 105.669H109.858L108.892 105.992H107.922L103.081 107.605H102.435L98.5625 108.896L97.9184 109.542L95.9806 110.187L95.3364 110.509L94.3669 110.833L93.3986 111.478L92.7545 111.8L91.7849 112.124L91.1408 112.769L90.1712 113.415L89.5257 114.06L88.8802 114.382L87.912 115.029L86.6211 116.32L85.6528 116.965L85.0074 117.61L84.3619 117.933L83.3936 118.577L82.1027 119.868L81.1345 120.515L80.4903 120.838L79.8435 121.483L78.8753 122.129L77.5843 123.42L76.6174 124.065L75.9706 124.388L75.3251 125.355L74.6796 126.002L74.0341 126.97L73.7128 127.615L73.0659 128.261L72.4218 129.228L71.1308 130.519L70.8067 131.488L69.5158 132.779L68.8703 133.748L67.5793 135.039L67.2566 136.005L65.9656 137.296L65.3201 138.266L64.6746 138.911L64.3532 139.557L63.7064 140.525L63.0623 141.171L62.4155 142.139L61.1245 143.43L60.8018 144.398L59.5108 145.689L58.8666 146.656L58.2198 147.303L57.8971 147.948L57.2516 148.916L54.3469 151.821L53.7028 152.142H52.7332L52.0877 152.467L51.1195 153.112L49.1831 154.08L48.2162 154.724L46.9252 156.017L45.9556 156.662L44.0192 158.599L43.6965 159.244L43.051 161.826V164.731L42.7296 165.698L43.051 166.989L44.3433 170.861L44.6647 172.154V173.445L43.6965 174.413L42.7296 174.736H41.4386L40.469 175.057L39.8236 175.704L38.8567 176.027L36.9189 177.963L36.2747 178.93L34.3369 180.868L33.6915 181.835L32.4005 183.126L31.755 184.095L30.4641 185.386L29.8186 186.354L27.8821 188.291L27.5594 189.259L26.9139 189.903L25.9457 190.55L20.1377 192.485L17.2325 194.423L16.5863 195.067L15.6185 195.391L14.3275 197.328L13.6814 197.972L13.3597 198.619L13.0365 199.91V200.878L12.7135 201.523V203.46L12.3905 204.428V205.396L12.0687 206.04L11.7457 207.01L11.4227 207.655L10.7765 208.622L10.4548 209.592L10.1317 210.237L9.48559 211.204L9.16393 211.851L8.51778 212.819L8.19476 213.787L7.87295 214.433L7.2268 215.4L6.90378 216.047L6.58198 217.015L5.93597 217.982L5.61283 218.629L4.96803 219.597L4.64502 220.242L4.322 221.21L3.6772 222.177L3.35418 222.824L3.03105 223.792L2.3862 224.438L2.06319 225.406L1.74021 226.05L1.41703 227.02V227.665L0.772234 229.602V230.57L0.449219 231.537V232.828L0.772234 233.797V234.766L1.09537 235.41V236.379L1.41703 237.348V240.575L1.74021 241.543V244.448L2.06319 245.739L2.3862 246.383L3.03105 248.321L3.35418 248.965V249.934L3.6772 250.903L4.322 251.547L4.64502 252.516L5.29117 253.162L5.93597 254.13L6.58198 254.776L7.2268 255.742L7.87295 256.389L8.19476 257.357L8.84077 258.324L9.16393 259.294V267.04L9.48559 268.008L9.80873 269.299V270.267L10.4548 271.235L11.0996 273.17L11.7457 274.14L12.0687 275.108V276.077L12.3905 277.367V279.627L12.0687 280.595L11.7457 281.239V282.209L11.0996 283.177L10.7765 283.821L9.80873 286.726L9.16393 287.372L8.51778 289.308L8.19476 289.954L7.87295 290.923L7.2268 291.889L6.90378 292.536L5.93597 295.441L5.29117 296.085L4.64502 298.023L4.322 298.667L4.00017 299.637L3.35418 300.605L3.03105 301.25L1.41703 306.091V308.027L1.09537 308.996V310.931L0.772234 311.901L0.75746 317.106L1.38749 316.825Z" fill="#1E1E1E" stroke="transparent" stroke-width="1.29097"/>
    <path d="M1.38748 316.825H2.35664L3.3246 316.502H4.29242L5.26159 316.179H6.2294L7.19723 315.855H8.16518L8.81121 315.534H9.77916L10.747 315.211H11.7161L12.684 314.888H13.6518L14.621 314.564H15.2658L16.2337 314.243H17.2029L18.1707 313.92H19.1385L20.1081 313.273L20.7522 312.952L22.69 312.306L23.3342 311.982L24.3024 311.661L25.272 311.015L25.9161 310.691L27.8525 310.047L28.498 309.724L29.4676 309.402L30.4345 308.756L31.08 308.433L32.0495 308.111L37.212 302.947L38.1803 302.301L40.7622 299.718L41.0849 299.074L41.7304 298.106L42.0532 297.46L42.7 296.492L43.0214 295.845L43.6669 294.878L43.9896 294.233L44.6351 293.265L44.9578 292.619L45.6047 291.65L45.9261 291.005L46.5716 290.037L46.8956 289.392L47.5398 288.423L47.8625 287.777L48.508 286.81L48.8307 286.164L49.4776 285.196L49.799 284.551L50.4444 283.581L50.7685 282.937L51.4127 281.969L51.7354 281.323L52.3822 280.355L53.0264 279.708L53.3491 278.741L53.9946 278.096L54.3173 277.127L54.9642 276.159L55.2856 275.512L55.9311 274.546L56.2551 273.9L56.8993 272.931L57.222 272.286L57.8675 271.318L58.1902 270.673L58.8371 269.704L59.1585 269.059L59.804 268.091L60.1267 267.444L60.7722 266.477L61.4177 266.153L62.3859 265.509L63.0327 264.862L63.9996 264.218L64.6451 263.895L65.6146 263.25L66.2588 262.604L67.227 262.28L67.8725 261.636L68.8407 260.99L69.4862 260.345H71.4226L72.3922 260.022H74.3273L75.2955 259.699H77.232L78.2002 259.375H79.8139L80.7821 259.054H82.7186L83.6868 258.731H85.6233L86.5915 258.408H88.5293L89.4962 258.084H91.4326L92.4008 257.763H94.0159L94.9828 257.44H96.9192L97.8888 257.118H100.793L101.76 256.793H103.697L104.666 256.472H106.279L107.248 256.149H109.183L110.153 255.827H112.088L113.056 255.502H114.993L115.961 255.181H117.898L118.866 254.858H120.48L121.448 254.536H123.386L124.353 254.212H127.257L128.225 253.89H130.163L131.13 253.567H133.068L134.035 253.245H135.65L136.617 252.922H138.553L139.523 252.599H141.458L142.427 252.276H144.362L145.331 251.954H148.235L149.205 251.631H150.817L151.787 251.307H153.722L154.69 250.985H156.627L157.595 250.663H159.531L160.5 250.34H163.404L164.05 250.016H165.986L166.954 249.694H168.891L169.859 249.372H170.827L172.764 248.725L173.411 248.403L174.377 247.758L177.283 246.79L177.928 246.467L179.865 245.822L180.832 245.176L182.77 244.531L183.414 244.208L184.382 243.885H185.352L186.319 243.562H187.287L188.255 243.238H190.192L191.483 242.917H192.451L193.421 242.594H195.356L196.324 241.947L196.969 241.626L199.874 240.656L200.52 240.012L201.489 239.689H202.456L203.424 239.365H204.071L205.038 239.044H206.006L206.976 239.365H208.911L209.879 239.689H211.815L212.784 240.012H214.72L216.657 239.365H217.626L223.434 237.43L224.08 237.108H225.048L227.953 236.139H240.217L241.185 235.817H247.963L248.609 235.494L249.576 235.17L250.544 234.526L251.513 234.203L252.158 233.879L253.126 233.557L254.096 232.912L255.063 232.588L255.708 232.266L256.678 231.944L257.645 231.297L258.29 230.653L258.613 229.684L259.26 229.039L259.581 228.394L259.904 227.425L260.551 226.457L260.872 225.489L261.195 224.843L261.84 222.907L262.164 222.261L262.809 221.293L263.131 220.325L263.455 219.68L264.1 217.742L264.746 217.098L266.037 215.16L266.681 214.516L267.65 213.869L268.941 212.579L269.909 211.934L271.2 210.643L272.168 209.997L272.815 209.352L273.459 208.382L274.75 207.091L275.073 206.124L275.397 205.479L275.718 204.511L276.364 203.865L276.688 202.896L277.009 202.251L277.655 200.314L277.977 199.67L278.623 197.732L278.946 197.088L279.593 195.151L279.914 194.506L280.883 191.601L281.205 190.954L281.528 189.987V189.019L282.174 187.083V186.114L282.819 184.177V183.21L283.465 181.273L283.141 179.982V173.205L283.465 172.237V170.3L283.787 169.331V168.686L284.11 167.718V166.749L284.432 165.782V163.845L287.337 164.813H289.273L290.243 165.136L290.887 164.813L292.825 164.168L293.469 163.845L295.405 163.2L296.051 162.553L297.987 161.909L298.633 161.262L300.569 160.618L301.215 160.295L303.151 159.65H305.089L306.056 159.327H311.867L312.834 159.004H314.449L316.384 158.359H317.03L318.966 157.713H319.935L321.87 157.068H322.839L323.808 156.745L324.452 156.422H325.42L326.389 156.099H327.357L329.295 155.454H330.262L331.23 155.131L331.877 154.808H332.843L334.781 154.163H335.748L337.685 153.518H338.654L339.298 153.193L340.267 152.872H341.236L342.203 152.549H343.171L344.141 151.902L345.108 151.581L345.753 151.258L346.723 150.611L348.658 149.967L349.787 149.24L349.626 146.74L350.271 144.803V143.834L350.918 141.899L351.562 141.252L352.209 139.962L352.853 138.994L353.176 138.347L354.144 137.703L354.791 137.38L356.726 136.089L357.373 135.765L359.308 134.474L359.953 134.153L360.278 132.862L360.922 130.926V129.957L361.569 128.988L361.89 128.344L362.213 127.375L363.181 127.697L363.826 128.021L364.795 128.344L365.441 128.666L366.408 128.988L367.055 129.635L367.699 130.603L368.346 131.248L368.99 132.217L369.637 132.862L369.958 133.508L370.281 134.474L370.928 135.121L371.249 136.089L371.895 136.735L372.54 137.703L373.186 138.347L373.831 139.317L374.8 139.64L375.768 140.285L377.706 140.931H380.609L381.9 140.608L383.192 139.317L384.159 138.671L384.483 137.703V136.412L385.127 134.474V133.508L384.805 132.539V127.697L384.159 125.762V124.794L383.836 123.825V122.857L382.545 118.984V116.402L382.868 115.434L383.514 114.789L384.159 113.82L384.483 113.175H385.774L386.741 113.498L387.387 113.82L388.356 114.142L389 114.466H390.614L391.905 113.175L392.228 112.529L392.552 111.56L392.873 110.269L393.519 108.334L394.81 108.011L395.778 107.688L397.716 108.334L398.36 108.978L400.296 109.625L400.942 109.947L402.878 110.593L404.169 111.884L405.137 112.529L406.428 113.82L407.398 114.466L408.689 115.757L409.656 116.402L410.301 117.046L410.947 117.37L411.915 118.016L412.562 118.337L413.529 118.984L414.174 119.307L415.142 119.952L415.788 120.275L416.757 120.919L417.724 120.598H418.692L419.661 120.275H420.63L421.597 119.952H422.565L423.535 119.628H424.502L425.147 118.661L426.438 117.37L427.084 117.693H428.052L428.699 118.016L429.343 118.661L430.311 118.337H431.603L432.248 118.661H433.216L434.185 118.984L435.152 118.016V117.37L434.83 116.402L434.507 115.757L434.185 114.789V111.56L433.861 110.593V109.947L433.539 108.978V107.688L433.861 106.72L435.152 106.073L436.12 105.752L437.089 106.073L438.38 106.397L439.025 107.043L439.993 107.688L440.963 108.011L441.607 108.656L442.575 109.302L443.545 109.625L444.189 109.947L447.094 110.916L447.741 111.238L450.644 112.207L451.289 112.529L454.195 113.498L454.839 113.82L456.776 114.466L457.421 114.789L459.358 115.434L460.326 116.08L460.973 116.402L463.878 117.37L464.522 117.693H468.395L469.363 118.016H471.299L472.268 117.37L473.237 117.046L473.881 116.725L474.849 116.08L475.819 115.757L476.463 115.111L478.401 114.466L479.368 113.82L479.691 113.175L480.336 112.529L480.982 111.56L482.272 110.269L482.597 109.625L483.241 108.656L484.532 107.365L485.179 106.397L485.5 105.752L486.791 104.461L487.436 103.491L488.727 102.2L489.05 101.233L490.987 99.2969L491.632 98.3287L492.278 98.0046L493.247 97.6832L493.891 97.0378L494.859 96.7137L495.505 96.3923L496.473 95.7468L497.443 95.4227L498.087 95.1013L499.055 94.4558L502.928 95.7468L503.573 96.3923L504.542 97.0378L506.478 98.9742L507.446 99.6197L508.093 100.588L508.737 101.233L511.642 102.2L512.61 101.879L513.256 101.233L515.192 100.588L516.483 99.2969L517.453 98.6515L519.388 96.7137L520.357 96.0695L522.292 94.1317L523.261 93.4876L524.552 92.1966L525.521 91.5512L526.165 91.2284L527.456 89.9361L528.102 88.9692L528.747 88.3237L529.393 87.3542L530.038 86.71L530.684 85.7418L531.008 85.0963L531.652 84.1281L532.314 83.4412L532.004 82.7544L531.359 82.1076L531.037 81.1407L530.391 80.4952L530.068 79.5256V78.5588L529.422 76.6223V75.6541L529.1 74.6859V73.7176L528.455 71.7812V70.813L527.809 68.8752V67.9083L527.163 65.9705V65.0036L526.518 63.0672V62.0976L526.195 61.1307L525.872 60.4852L525.227 58.5488V57.5806L522.969 50.803L522.645 50.1575L521.999 49.1893L521.678 48.2211L521.031 47.5756L520.708 46.6074L520.063 45.6391L519.74 44.9936L519.417 44.0254L518.773 43.0572L517.482 41.7649L516.513 41.1208L515.867 40.1525L514.576 38.8616L513.609 38.2161L512.963 37.5706L511.026 36.9251L510.381 36.601L506.508 35.3114L505.862 34.9887L504.894 34.6659L503.926 35.3114L503.28 35.6341L502.312 36.2796L501.989 37.2479L501.345 37.892L500.698 39.8298L500.054 40.798L499.73 41.4435L498.763 42.089L497.472 43.3799H495.857L494.889 43.7027L492.953 42.4117L491.662 41.1208L491.339 40.4739L490.695 39.8298L489.725 39.507L489.08 38.8616H488.434L486.499 38.2161H485.53L484.561 37.892H483.593L482.948 37.5706H481.979L481.011 37.2479L480.044 37.5706H478.752L476.815 38.2161V40.1525L477.14 41.1208V42.089L478.106 42.7345L479.075 43.7027H480.044L481.011 44.0254L482.302 45.3164V49.512L481.657 50.1575L481.335 51.1257L481.011 51.7712L480.366 52.4167L479.397 53.0622L477.461 53.7077H474.234L473.267 53.3849L471.976 52.7381L471.006 52.094L470.362 51.7712L469.392 51.1257L468.747 50.803L468.101 50.1575L466.81 49.8334L465.842 49.512H458.742L458.096 49.8334L457.451 50.4803L457.13 51.1257L456.483 52.094L456.16 53.0622L455.515 53.7077L455.192 54.6759L454.546 55.32L453.578 55.9669L451.643 56.611L450.673 56.2896H448.737L447.77 55.9669H445.832L444.865 55.6441H442.928L441.959 55.32L441.314 54.9986L439.377 54.3532L438.732 54.0291H437.764L437.118 53.7077H436.15L434.859 54.3532L434.215 55.6441L433.245 55.9669L432.6 55.6441L431.954 54.9986L431.309 54.0291L429.05 51.7712L427.113 51.1257H426.146L425.5 50.803L424.531 50.4803H423.564L421.627 49.8334H417.108L416.14 50.1575L415.496 50.4803L413.558 51.1257L411.622 53.0622L410.976 54.0291L409.685 55.32L409.04 56.2896L408.718 57.2578L408.072 57.902L407.427 58.8715L405.49 60.8066L404.523 61.4535H403.876L401.941 62.0976H400.971L400.326 62.4217H399.359L398.389 62.0976L397.421 61.4535L396.454 61.1307L395.485 60.4852L394.839 59.1943L394.194 58.226L393.872 57.5806L393.225 56.611L392.903 55.9669L392.581 54.9986V54.0291L392.257 53.3849V52.4167L391.934 51.4485V50.4803L391.612 49.8334L392.257 47.8983V46.9301L392.581 45.9605V45.3164L393.225 43.3799L392.257 42.7345L391.612 42.4117L390.966 41.7649L389.998 41.4435L388.707 41.1208H387.739L386.448 41.4435L384.513 43.3799L384.189 44.3482L383.866 44.9936L383.543 45.9605L384.513 48.8665V49.512L384.834 50.4803V51.7712L384.513 52.7381V53.7077L383.866 54.6759L383.543 55.6441L382.898 56.2896L382.575 57.2578L381.929 58.226L381.608 59.1943H378.702L378.057 58.5488L377.735 57.5806L377.088 56.611L376.766 55.9669L376.444 54.9986V53.0622L376.12 52.4167V51.4485L375.797 50.4803V49.8334L375.475 48.8665L375.153 48.2211L374.829 47.2515L374.184 46.6074L373.215 45.9605L372.57 45.3164H371.602L370.958 45.6391H369.988L369.02 48.5425L369.343 49.1893V50.1575L369.667 50.803L370.958 52.094L371.602 53.0622L373.54 54.9986L374.184 55.9669L374.506 56.9351L374.184 58.226V59.1943L373.54 61.1307V62.0976L372.57 62.7444L371.924 63.3886L370.958 64.0354H369.988L368.697 63.7127H367.729L366.761 63.3886L365.792 62.7444L364.824 62.4217L363.856 61.7762L363.21 61.4535L362.565 60.8066L361.598 60.1625L360.307 58.8715L359.338 58.5488L358.047 57.2578L357.078 56.611H356.112L355.465 56.2896L354.496 55.9669H353.53L352.56 55.6441L351.269 56.9351L350.624 57.2578L349.655 57.902L348.364 59.1943L348.687 60.1625V62.4217L349.655 63.0672L350.301 63.3886L351.269 63.7127L351.915 64.0354L352.56 64.6795L353.53 65.0036H354.496L358.369 66.2946H359.338L360.307 66.6173L361.274 67.2628L361.92 67.5855L363.21 68.8752L364.18 69.1993L364.824 69.8447L365.471 70.813L367.406 72.7481L367.729 73.7176L368.052 75.0086L368.376 75.9768L366.438 76.6223H365.792L363.856 77.2678H361.92L360.951 77.5905H355.787L354.821 77.2678L354.496 76.6223L353.851 75.9768L353.53 75.0086L352.239 73.0722L351.592 72.4267H350.624L349.978 72.7481H349.01L348.043 75.6541L347.719 76.2996L347.396 77.2678V78.2347L349.334 84.0454V85.0122L350.301 87.9183L349.334 88.5637L348.687 88.8851L347.719 89.532L347.073 89.8547H344.17L343.201 89.532H342.232L341.587 89.2092L339.65 88.5637L339.005 88.241L338.037 87.5942L336.102 85.6591L335.455 84.6908L335.132 84.0454L334.486 83.0771L333.841 82.4317L333.518 81.4634L333.197 80.8166L332.55 79.8497L331.906 77.9133L331.582 77.2678L330.936 75.3314L330.615 74.6859L329.968 73.7176L329.645 72.7481L329.324 72.1039L328.677 71.1357L328.354 70.4902L326.418 68.5538L325.45 67.9083L323.513 65.9705L322.868 65.6491L322.222 65.0036L321.255 64.6795L320.609 64.0354L319.964 63.7127L318.995 63.0672L318.027 63.3886L317.381 63.7127H316.413L313.508 64.6795H312.863L309.958 65.6491H308.991L308.344 65.3264L305.44 64.3581L302.536 67.2628L301.89 68.231L300.599 69.522L299.632 70.1661L298.662 70.4902L298.017 70.813L295.112 71.7812H293.176L292.207 71.4571H289.303L288.334 71.1357L287.366 70.4902L282.525 68.8752L281.88 68.231L280.913 67.5855L279.943 67.2628L279.298 66.6173L278.331 66.2946L277.361 65.6491L276.717 65.3264L275.748 65.0036L275.102 64.6795H274.135L273.166 64.3581H271.229L270.262 64.6795H269.293L268.649 65.0036H267.679L266.711 65.3264H265.743L264.776 65.6491H263.806L262.838 65.9705L262.194 66.2946H261.224L260.256 66.6173H259.289L258.319 66.2946L257.674 65.6491L256.707 65.3264L256.06 64.6795L255.092 64.0354L254.447 63.7127L253.478 63.0672L252.833 62.7444V61.7762L252.511 60.8066V58.8715L252.187 57.902V56.9351L251.865 55.9669V45.9605L252.187 44.9936L251.542 44.3482L250.896 43.3799L250.574 42.7345L249.93 41.7649L249.283 41.1208L248.315 40.798H246.378L245.41 40.4739H243.473V41.1208L243.152 41.7649V47.2515L243.473 48.2211V48.8665L244.119 50.803L244.764 51.4485L245.087 52.4167L245.41 53.0622L246.057 54.0291L246.701 54.6759L247.024 55.6441L247.669 56.2896L248.315 57.2578L248.639 57.902L248.315 58.8715L247.669 59.517L247.024 60.4852L246.701 61.1307L246.057 62.0976H243.473L242.505 62.4217L241.537 61.7762L240.891 61.4535L239.923 61.1307L239.279 60.8066L238.31 60.1625L235.083 56.9351L234.759 56.2896L234.114 55.32L233.792 54.3532L233.146 53.7077L232.823 52.7381V50.803L232.502 50.1575V49.1893L232.823 48.2211V47.2515L233.146 46.2846V45.3164L233.468 44.3482L233.792 43.7027V42.7345L234.114 41.7649V40.798L234.437 39.8298V38.8616V41.1208V40.1525L234.759 39.183V34.0204L234.437 33.0522L234.114 31.7612V30.793L232.823 29.5021L232.177 29.1793L231.211 29.5021L230.564 29.8235L229.596 30.1475L228.95 30.4703L228.306 31.1144L227.659 33.0522V34.3432L227.336 35.3114V36.2796L226.691 38.2161L226.045 38.8616H225.077L224.109 39.183L223.142 38.5388L222.495 38.2161L221.527 37.892L220.559 37.2479L219.913 36.9251L218.946 36.601L218.3 37.2479L217.331 37.892L216.04 39.8298L215.718 40.4739L215.073 42.4117L214.427 43.3799L214.104 44.0254L213.783 44.9936L212.813 45.6391L212.169 46.2846L211.199 46.9301L210.554 47.2515L209.587 47.5756H208.617L207.972 47.8983H206.035L204.744 47.5756H203.776L199.903 46.2846L199.258 45.6391L195.385 44.3482L194.741 44.0254L193.771 43.7027L193.45 42.7345L193.771 41.7649V39.8298L193.45 38.8616L193.126 38.2161L192.48 37.2479L191.835 36.601L191.189 35.6341L190.544 34.9887L189.898 34.0204L189.253 33.375L188.607 32.4054L187.963 32.084L187.316 31.4385L186.348 30.793L185.703 30.4703L185.057 29.8235L184.734 29.1793L184.09 28.2111L183.766 27.2429L183.443 26.5974L182.799 25.6278L182.475 24.9837L181.83 24.0155L180.862 23.37L180.216 22.7245L179.248 22.079L178.604 22.7245L177.634 23.0459L176.989 23.6927L176.022 24.3369L175.375 24.9837L174.407 25.3064L173.761 25.9519L173.44 26.9201L172.793 27.8884L172.47 28.5325L172.148 29.5021V30.4703L171.826 31.4385L171.502 32.7295L171.179 33.6964L170.211 34.0204L168.92 34.6659L167.953 34.0204L167.306 33.375L166.338 33.0522V32.084L165.693 30.1475V29.1793L165.047 27.2429V26.2746L164.724 25.6278L164.079 24.6609L163.111 23.6927H161.176L160.206 23.37H156.979L156.01 23.0459H154.074L151.169 22.079L150.525 21.7549H149.556L148.587 20.788L147.621 20.1426L146.974 19.4971L146.006 20.1426L145.36 20.788L144.392 21.4335L143.101 22.7245L142.133 23.37L141.487 24.0155L140.519 24.3369L135.355 29.5021L134.71 30.4703L134.064 31.1144L133.741 31.7612L133.097 33.6964L132.45 34.3432V35.3114L132.128 35.9569V38.2161L132.45 39.183V40.1525L132.773 41.1208V42.089L133.741 44.9936V45.9605L134.388 47.8983V48.8665L135.355 51.7712L135.679 52.4167L136.646 55.32L136.97 55.9669L137.937 58.8715L138.261 59.517L139.228 62.4217L139.552 63.0672L140.519 65.9705V73.0722L140.196 74.039V81.4634L139.874 82.4317V89.2092L139.552 90.1761V95.9868L139.228 96.9537V97.9233L138.905 98.8915V99.8597L138.583 100.828V101.796L138.261 102.764V103.731L137.614 105.669L137.292 106.313L136.97 107.283L136.323 108.251L135.355 109.218L134.388 109.542H131.805L130.837 108.896L130.192 108.574L129.223 107.928L127.286 106.96L126.32 106.637L125.673 106.313L123.736 105.669H123.091L122.124 105.346L121.477 105.022H118.251L117.281 104.701L116.313 105.022H115.346L114.377 105.346H112.44L111.473 105.669H109.858L108.892 105.992H107.922L103.081 107.605H102.435L98.5625 108.896L97.9183 109.542L95.9806 110.187L95.3364 110.509L94.3668 110.833L93.3986 111.478L92.7545 111.8L91.7849 112.124L91.1408 112.769L90.1712 113.415L89.5257 114.06L88.8802 114.382L87.912 115.029L86.621 116.32L85.6528 116.965L85.0073 117.61L84.3619 117.933L83.3936 118.577L82.1027 119.868L81.1344 120.515L80.4903 120.838L79.8435 121.483L78.8752 122.129L77.5843 123.42L76.6174 124.065L75.9706 124.388L75.3251 125.355L74.6796 126.002L74.0341 126.97L73.7127 127.615L73.0659 128.261L72.4218 129.228L71.1308 130.519L70.8067 131.488L69.5157 132.779L68.8703 133.748L67.5793 135.039L67.2565 136.005L65.9656 137.296L65.3201 138.266L64.6746 138.911L64.3532 139.557L63.7064 140.525L63.0623 141.171L62.4154 142.139L61.1245 143.43L60.8017 144.398L59.5108 145.689L58.8666 146.656L58.2198 147.303L57.8971 147.948L57.2516 148.916L54.3469 151.821L53.7028 152.142H52.7332L52.0877 152.467L51.1195 153.112L49.183 154.08L48.2162 154.724L46.9252 156.017L45.9556 156.662L44.0192 158.599L43.6964 159.244L43.0509 161.826V164.731L42.7296 165.698L43.0509 166.989L44.3433 170.861L44.6647 172.154V173.445L43.6964 174.413L42.7296 174.736H41.4386L40.469 175.057L39.8235 175.704L38.8567 176.027L36.9189 177.963L36.2747 178.93L34.3369 180.868L33.6914 181.835L32.4005 183.126L31.755 184.095L30.464 185.386L29.8185 186.354L27.8821 188.291L27.5594 189.259L26.9139 189.903L25.9457 190.55L20.1377 192.485L17.2324 194.423L16.5863 195.067L15.6185 195.391L14.3275 197.328L13.6813 197.972L13.3597 198.619L13.0365 199.91V200.878L12.7135 201.523V203.46L12.3905 204.428V205.396L12.0687 206.04L11.7457 207.01L11.4227 207.655L10.7765 208.622L10.4547 209.592L10.1317 210.237L9.48557 211.204L9.16391 211.851L8.51775 212.819L8.19474 213.787L7.87294 214.433L7.22678 215.4L6.90378 216.047L6.58198 217.015L5.93595 217.982L5.61281 218.629L4.968 219.597L4.64499 220.242L4.32197 221.21L3.67717 222.177L3.35416 222.824L3.03101 223.792L2.3862 224.438L2.06319 225.406L1.74018 226.05L1.41703 227.02V227.665L0.772226 229.602V230.57L0.449219 231.537V232.828L0.772226 233.797V234.766L1.09537 235.41V236.379L1.41703 237.348V240.575L1.74018 241.543V244.448L2.06319 245.739L2.3862 246.383L3.03101 248.321L3.35416 248.965V249.934L3.67717 250.903L4.32197 251.547L4.64499 252.516L5.29114 253.162L5.93595 254.13L6.58198 254.776L7.22678 255.742L7.87294 256.389L8.19474 257.358L8.84076 258.324L9.16391 259.294V267.04L9.48557 268.008L9.80872 269.299V270.267L10.4547 271.235L11.0995 273.171L11.7457 274.14L12.0687 275.108V276.077L12.3905 277.367V279.627L12.0687 280.595L11.7457 281.239V282.209L11.0995 283.177L10.7765 283.821L9.80872 286.726L9.16391 287.372L8.51775 289.308L8.19474 289.954L7.87294 290.923L7.22678 291.89L6.90378 292.536L5.93595 295.441L5.29114 296.085L4.64499 298.023L4.32197 298.667L4.00017 299.637L3.35416 300.605L3.03101 301.25L1.41703 306.092V308.027L1.09537 308.996V310.931L0.772226 311.901L0.757436 317.106L1.38748 316.825Z" stroke="transparent" stroke-width="1.29097"/>
    <g opacity="0.408">
      <path d="M246.7 61.1299L247.018 70.8418L242.497 72.424L245.891 80.2633L241.371 81.6195L237.244 74.8798L235.07 76.0387L240.495 84.6278L248.83 81.1674L260.336 103.901L255.301 111.839L259.441 119.153L255.46 121.858L255.78 125.054L263.641 124.967L271.431 116.433L310.654 122.281L320.149 126.012L326.388 156.099" stroke="white" stroke-width="1.0758"/>
      <path d="M107.249 256.148L97.1488 245.146L86.8211 239.659L84.5619 233.527L85.8031 230.49L89.0803 225.135V223.2L82.6254 219.327L81.0117 217.39L81.3345 212.226L83.9164 209.322L87.4679 208.031L91.3408 204.803L92.3077 200.608L93.9633 197.093L90.0498 196.089L90.694 193.83L95.5364 189.635L102.314 188.021L107.799 189.635L111.674 189.312L112.64 191.248L113.609 190.926L111.995 177.693L109.736 171.561L111.674 169.625L111.027 162.202L113.286 160.265L115.805 154.438L120.324 152.908L128.243 153.054L135.157 154.346L141.152 140.39L147.848 133.476L143.328 129.859L147.956 126.36L144.566 116.415L135.356 109.217" stroke="white" stroke-width="1.0758"/>
    </g>
  </g>
  <defs>
    <clipPath id="clip0_125_510">
      <rect width="533.151" height="337.1" fill="white"/>
    </clipPath>
  </defs>
</svg>