<?xml version="1.0" encoding="utf-8"?>
<svg version="1.1" id="svg2" x="0px" y="0px" width="533" height="560.602" viewBox="35.337 20.94 466.907 505.634" enable-background="new 0 0 533 560.602" xmlns="http://www.w3.org/2000/svg">
  <g id="layer2" transform="translate(-60.481875,-26.70498)">
    <g id="g5260" transform="matrix(1.25,0,0,1.25,-27.400875,-377.22986)">
      <g id="g5242" transform="translate(70.8662,391.693)"/>
      <g id="g5246" transform="translate(231.906,323.773)"/>
      <g id="g5250" transform="translate(256.387,340.334)"/>
    </g>
  </g>
  <g id="layer3" transform="translate(-60.481875,-26.70498)">
    <g id="g5271" transform="matrix(1.25,0,0,1.25,476.46756,53.76345)"/>
    <g id="g5275" transform="matrix(1.25,0,0,1.25,96.367306,331.56345)"/>
    <g id="g5279" transform="matrix(1.25,0,0,1.25,351.36756,505.5622)"/>
    <g id="g5283" transform="matrix(1.25,0,0,1.25,495.36756,503.76345)"/>
    <g id="g5287" transform="matrix(1.25,0,0,1.25,340.26756,551.7622)"/>
    <g id="g5291" transform="matrix(1.25,0,0,1.25,325.26756,575.76345)"/>
    <g id="g5295" transform="matrix(1.25,0,0,1.25,340.26756,579.06345)"/>
    <path id="path4432" fill="#1f1f1f" stroke="#1f1f1f" stroke-width="1.2" d="   M360.667,551.763l0.602,0.301l0.599,0.601l0.899,0.6l0.601,0.3h1.2l1.199-0.602l1.802-1.199l0.599-0.899l1.2-1.2l0.3-0.6l0.6-0.9   l0.301-0.6l0.602-0.901l0.299-0.599l0.6-0.9l0.301-0.6l0.6-0.6l0.299-0.601l1.201-1.199l0.899-0.301l0.901-0.6l1.799-0.6l0.9-0.601   l1.799-0.6l0.9-0.601l0.901-0.3l0.899-0.601l0.899-0.299h1.802l1.199-0.301h0.898l1.201,0.301l0.601,0.6l0.299,0.6l1.2,1.2   l0.3,0.601l0.601,0.6l0.6,0.3l0.9-0.3l1.799-1.2l0.601-0.3l0.899-0.602l0.601-0.599l0.901-0.602l1.199-0.298h3.299l0.9,0.298   l0.6,0.602l0.302,0.599l0.299,0.901l0.3,0.601v0.899l0.3,0.9l0.302,0.599l0.599,1.801l0.899,1.799l0.301,0.302l1.801,0.6h0.898   l0.9,0.299l1.2,0.302h5.399l0.9,0.3h5.701l0.898,0.3h1.802l0.898-0.3h0.9l1.801-0.602h0.899l0.899-0.299h2.4l0.6,0.299l0.302,0.901   l0.599,0.6l0.601,0.301h2.1l0.899,0.3h2.7l0.9-0.601l0.9-0.3l0.899-0.6l0.6-0.3l1.8-1.2l0.9-0.302l0.6-0.599l0.9-0.3l0.9-0.6   l0.9-0.301l0.6-0.601l0.899-0.299l0.901-0.601l0.898-0.301l0.6-0.599l0.9-0.3h0.9l0.9-0.301h0.9l0.898-0.3h2.702l1.798-0.6h0.601   l0.899-0.602l0.9-1.2l0.301-0.898l0.299-1.2l0.9-2.7l1.5-1.501l0.301-0.599l0.899-0.3l2.7-1.8l2.701-0.901l0.898-0.599l0.6-0.602   l0.301-1.199l0.3-0.899l0.601-0.9l0.6-1.2l1.801-1.8l0.899-0.6l1.199-0.3l0.9-0.301l0.9-0.6l0.899-0.3l0.601-0.6l0.6-0.9l1.2-1.2   l0.301-0.9l0.599-0.9l0.301-0.899l0.301-0.6l0.599-0.901l0.3-0.898l0.601-0.601l0.6-1.8l0.601-0.899l0.3-0.601l0.6-0.899   l0.601-1.802l0.3-0.599l2.399-7.2l0.301-0.6l3-9v-0.9l0.6-1.801l0.3-1.2v-0.898l0.3-0.9v-2.102l-0.3-0.898l-0.3-1.2v-0.899   l-0.3-0.9v-0.6l0.3-0.9l0.6-0.9l0.9-0.3l1.8-1.8l0.3-0.9l0.301-1.199v-3.601l0.301-0.901v-1.799l0.299-0.899l0.6-0.601l0.302-0.6   l3.599-3.602l0.6-0.898l0.301-0.9v-2.1l-0.301-1.2l-0.899-0.899l-1.2-0.301l-0.6-0.6l-0.9-0.602l-0.599-0.299l-0.302-0.9   l-1.199-1.2l-0.899-2.699v-8.1l0.299-0.9v-0.901l0.601-1.799v-0.601l0.899-2.699v-0.899l0.9-2.702v-0.898l0.901-2.701v-0.898   l0.298-0.9l0.601-1.2l0.6-0.901l0.601-0.298l1.801-1.2l0.599-0.601l0.3-0.899l0.601-0.602l0.3-0.898v-0.9l0.3-0.6v-10.201   l0.302-0.899l0.299-0.6l-0.299-1.5l-0.602-0.9l-0.599-0.6l-0.901-0.602l-1.499-1.498l-1.201-1.801v-2.1l0.3-0.6l0.601-0.601   l0.6-0.901l1.5-1.498l0.602-0.301l0.299-0.601l0.6-0.599l0.601-0.9l0.3-0.901l0.601-0.898l0.299-0.9l0.601-0.901l0.3-0.898l0.6-1.2   l0.301-0.899v-0.9l-0.9-0.6l-0.6-0.601l-1.799-0.6l-1.2-0.3h-0.602l-0.599,0.6l-0.602,0.9l-0.599,1.8l-0.601,0.899l-0.301,0.9   l-0.3,0.6l-0.3,0.9l-1.199,1.8l-0.601,0.299l-0.9,0.302l-2.7-0.9h-0.899l-1.8-0.6h-0.9l-2.7-0.9l-0.599-0.3l-0.901-0.601   l-0.899-0.3l-0.601-0.602l-0.899-0.298l-0.6-0.901l-0.9-0.899v-0.6l0.3-0.901l0.601-0.299l0.899-0.6l0.6-0.601l0.9-1.201   l0.301-0.898l-0.301-0.9l-0.3-0.601l-0.601-0.299l-0.899-0.3l-0.6,0.3l-1.801,0.6h-1.799l-0.901-0.301l-0.6-0.299l-0.9-0.3   l-0.899-0.602l-1.799-0.599l-0.901-0.602l-0.9-0.299l-0.599-0.3l-2.701-0.9h-0.9l-1.8-0.6l-0.6-0.602v-0.898l0.3-0.9l0.3-0.601   l0.601-0.899l0.3-0.899l0.601-0.602l0.299-0.898l0.601-0.601l0.3-0.899l0.6-0.9l0.901-2.7l-0.301-0.899v-0.9l-0.3-0.6l-0.301-1.2   l-0.6-1.801v-2.4l0.3-0.898v-0.601l0.601-1.2l0.899-0.3h0.901l6.3-2.101l0.899-0.6l0.6-0.899l0.3-0.901v-1.799l0.3-0.6l-0.3-1.2   v-3.3l0.602-0.9l0.898-0.6l0.9-0.302l0.601-0.599l0.899-0.3l1.801-1.2l0.599-0.9v-1.8l-0.3-1.2l-0.299-0.899l-0.301-1.2v-1.2   l0.301-0.9l1.2-1.799l-0.301-0.9l-0.301-0.6l-2.699-2.701l-0.6-1.199v-1.502l0.299-0.598v-0.9l0.301-0.901l0.6-2.399l-0.6-1.799   l-0.6-0.3l-0.9-0.3h-2.4l-0.9-0.6l-0.3-1.2l-0.6-1.8l-1.2-1.8l-0.3-0.9l-0.3-0.6l-0.6-0.901v-2.099l0.299-0.9l0.601-0.602   l0.3-0.898l0.6-0.9l0.301-0.6h0.899l1.8,0.6l0.601,0.3l0.6,1.2l0.601,1.8l0.3,1.2l0.3,0.6l1.2,1.2l1.801,0.6h2.999l0.9-0.301   l0.6-0.299h0.9l0.899-0.3l0.601-0.3l1.5-1.501v-0.899l0.301-0.6v-3l-0.301-0.9v-2.4l0.301-0.901l1.2-1.799l0.299-0.6l-0.299-0.6   l-0.602-0.3l-0.599-0.601l-0.602-1.2l-0.599-0.898l-0.301-0.9v-0.9l-0.3-1.2l-0.301-0.9v-2.702l0.601-1.2l0.6-0.299l0.901-0.6   l0.599-0.9l0.3-0.601l0.601-0.599v-2.101l-0.601-1.799l-0.3-0.601l-0.3-0.899v-0.9l-0.299-0.9v-0.6h0.599l1.802,1.2l0.898,0.3   l0.9,0.599l0.899,0.301l1.201,0.6h0.599l0.301-0.3h0.301l0.599-0.9l0.3-0.6l0.601-0.9l0.6-0.6l0.601-0.9l-0.299-0.9l-0.302-0.6   l-2.099-2.1l-0.901-0.602l-0.9-0.898l-0.6-0.9v-0.9l-0.3-0.9v-0.9l-0.3-1.2v-1.2l0.3-0.602v-0.599l0.6-0.9l2.7-0.9l0.9-0.6l0.3-0.6   v-0.9l-0.3-0.601l-0.601-0.599l-0.898-0.601l-0.602-0.599l-0.599-1.2v-1.8l-0.301-0.9v-2.7l-0.3-0.9v-3.9l-0.301-0.9l-0.6-0.901   l-0.6-0.299l-0.9-0.3l-0.898-1.2l-0.302-0.9v-3l0.302-0.9l1.199-1.8l0.6-0.6l0.6-0.901v-2.999l-1.8-1.8l-0.9-0.6l-0.6-0.901   l-1.8-1.799l-0.899-0.601l-0.601-0.899l-1.801-1.801l-1.8-2.699l-0.898-2.7l-0.302-1.2l-0.6-1.8l-0.299-1.2l-0.602-0.9   l-0.599-1.801v-0.899l-0.301-0.9v-0.901l-0.3-0.599v-0.9l0.3-1.2v-0.901l0.301-0.898l0.299-1.2l0.901-2.7l0.599-0.9l0.3-0.601   l0.601-0.899l0.3-0.9l0.602-0.601l0.599-0.899l0.601-0.6l0.899-0.6l0.6-0.602l0.9-0.299l0.6-0.6l0.901-0.301l0.299-0.899l0.3-1.2   l0.3-0.9l0.601-0.9l0.3-0.9l0.602-0.9l0.299-0.9l0.6-0.901l2.7-0.899l1.2-0.301v-1.799l-0.601-0.9l-0.299-1.2l-0.301-0.9   l0.899-0.301l1.2-0.298l0.9-0.3h2.101l0.899,0.3h3.001l1.2,0.298l1.799-1.2l1.2-1.2l0.899-0.599l1.201-1.2l0.899-0.601l1.199-1.199   l0.9-0.3l0.602-0.3l1.799-0.6h1.8l5.399-1.8l0.601-0.3l3.6-1.2l0.602-0.602l0.299-0.898l0.3-0.6l0.602-0.9l-0.302-0.9v-1.801   l-0.6-0.599l-0.601-0.9l-0.3-0.901l-0.599-0.898l-0.301-0.9l-1.2-0.6l0.6-1.2l1.5-1.501l0.3-0.899l0.601-0.6l0.3-1.2v-10.2   l0.3-0.901l0.601-0.898l0.6-0.301h0.9l0.6,1.2l0.3,0.901l1.201,1.2l0.899,0.3h3.6l0.9-0.3h0.899l1.8-0.6h0.9l0.901-0.3l0.898-0.6   l0.9-1.2l1.2-3.6v-0.9l0.3-1.2v-0.9l-0.3-0.9l-0.6-0.3h-3.001l-0.899-0.301h-0.899l-0.901-0.299l-0.6-0.6l-0.3-0.6l-0.3-0.901   l-0.6-0.898l-0.301-0.6l-2.4-2.401l-1.8-2.699l-0.299-0.6l-1.501-1.501l-0.9-0.599l-0.6-0.9l-0.6-0.6l-0.9-0.602l-1.799-0.599   l-1.2-0.3l-1.801-0.6l-0.899-0.6l-1.199-0.301l-0.602-0.299v-0.901l-0.3-0.599v-1.8l-0.299-0.9v-3.9l-0.302-0.9v-2.7l-0.3-0.9v-1.8   l0.3-1.2l0.601-1.8l0.6-0.9l0.6-0.6l0.901-0.6l0.599-0.9l0.601-0.601l0.6-0.899l0.601-0.6l1.199-1.8v-0.9l0.302-0.9v-2.1l0.299-0.9   v-1.802l0.3-0.898v-1.2l0.3-0.6l0.601-0.9l0.3-0.9l0.601-0.601l0.6-0.899l0.3-0.6l0.6-1.8v-0.9l0.3-0.9v-2.1l0.9-2.702v-0.898   l0.3-0.9l0.707-0.988l-3.493-2.188l-0.898-0.3h-0.901l-0.9-0.301h-10.798l-1.2-0.299l-0.901-0.3h-0.9l-0.899-0.3h-0.899   l-1.201-0.301l-0.899-0.299h-0.9l-0.898-0.3h-0.901l-1.2-0.3l-0.9-0.301h-0.899l-1.8-0.599l-1.2,0.3l-0.9,0.299l-2.7,1.801   l-0.599,0.599l-0.601,0.901l-0.601,0.6l-0.6,0.898l-0.3,0.602l-0.6,0.6l-0.601,0.9l-0.9,0.599l-1.2,1.2l-0.898,0.601l-1.2,0.3   l-0.901,0.299l-0.899,0.602l-0.601,0.3l-0.6,0.9l-0.3,0.9l-0.599,0.9l-0.302,0.9l-1.2,1.2l-0.898,0.3l-0.602,0.299l-0.899-0.599   l-1.2-0.601l-1.5-0.299l-0.898,0.6l-0.901,0.3l-0.9,0.599l-0.599,0.601l-0.901,0.599l-0.6,0.901l-0.9,0.6l-0.6,0.6l-0.899,0.6   l-2.701,2.7l-0.898,0.6l-0.602,0.6l-0.9,0.6l-0.6,0.9l-0.9,0.599l-0.6,0.601l-0.9,0.599l-0.598,0.602l-0.602,0.9l-0.9,0.6   l-0.6,0.599l-1.801,1.2l-0.899,0.301l-0.899,0.6h-0.9l-0.898-0.3h-1.2l-0.602-0.601l-0.899-0.599l-0.601-0.601l-1.8-1.199l-0.6-0.9   l-1.799-0.602l-0.902-0.599h-4.5l-2.699,0.9l-1.2,0.3h-0.899l-4.5,1.5h-4.801l-0.9-0.6l-0.6-0.3l-0.9-0.6l-0.899-0.3l-0.898-0.6   l-0.901-0.3l-0.9-0.601l-0.899-0.299l-0.601-0.6l-0.899-0.301l-0.899-0.599l-0.9-0.3l-0.9-0.6l-0.9-0.3l-0.6-0.601l-0.9-0.299   l-0.899-0.6l-0.9-0.3l-0.899-0.6l-0.9-0.3l-0.898-0.602l-0.602-0.599l-0.9-0.3l-0.898-0.6l-0.901-0.3l-0.899-0.601l-0.9-0.299   l-0.9-0.6l-0.6-0.301l-0.898-0.599l-0.901-0.3l-0.9-0.6l-0.899-0.3l-0.898-0.6l-0.902-0.3l-0.6-0.6l-1.199,0.3l-6.301,2.1   l-3.599-1.2l-0.901-0.6l-7.2-2.401l-0.899-0.599l-0.898-0.3l-1.802,0.6h-0.899l-0.9,0.299h-0.9l-0.9,0.301l-1.199,0.3v0.9l-0.6,1.8   l-0.299,1.2l-0.302,0.9v0.899l-0.3,0.901l-0.301,1.2l-0.299,0.9l1.201,3.6l1.199,1.8l0.299,0.9l1.2,1.8l0.3,0.9v1.2l-0.3,0.9v0.898   l-0.299,1.2l-0.901,0.601l-0.9,0.9l-1.199,0.6l-0.9,0.3l-0.6,0.9l-0.9,0.9l-1.5,4.499v1.801l-0.3,0.899v1.2l-0.299,0.901v1.8   l-0.302,0.898v1.202l-0.299,0.9v1.799l-0.301,0.901v0.9l-0.299,1.2v0.9l-0.301,0.9l-0.6,0.9l-0.601,1.799l-0.601,0.901l-0.299,0.9   l-0.601,0.9l-0.601,1.8l-0.6,0.6l-0.3,0.9l-0.899,0.6l-0.601,0.899l-0.899,0.601l-0.6,0.599l-0.9,0.602l-0.601,0.599l-1.8,1.2   l-0.599,0.602l-0.901,0.3l-0.9,0.6l-1.799,0.6l-0.9,0.599l-0.601,0.301l-0.899,0.3l-0.9,0.599l-1.799,0.601l-0.901,0.599   l-0.899,0.301l-0.9,0.6l-0.6,0.299l-0.9,0.301l-0.9,0.6l-1.8,0.6l-0.899,0.6l-0.899,0.3l-0.601,0.3l-0.9,0.6l-1.8,0.599l-0.9,0.601   h-3.899l-4.499-1.5h-1.2l-2.701-0.9h-0.898l-0.901,0.3h-2.101l-0.898,0.3h-0.901l-0.9,0.3l-0.599,0.6l-0.901,0.299l-0.9,0.602   l-1.8,0.599l-0.6,0.601l-0.899,0.3l-0.901,0.6l-1.8,0.6h-0.899l-0.601,0.299l-0.9-0.599l-0.6-0.3l-0.9-0.6l-0.6-0.3l-0.299-1.2   v-0.9l-0.301-0.9v-5.7l-0.3-0.9l-0.3-1.2v-0.9l-0.299-1.2l-0.901-0.6l-2.7-2.7l-1.2-0.3l-0.9-0.301h-1.2l-0.9-0.299l-1.2-0.3   l-0.898,0.3h-2.7l-1.2,0.299h-1.801l-0.9,0.301h-2.099h-0.901l-0.9,0.3h-5.1l-0.9,0.3h-5.1l-0.899,0.299h-4.801l-0.9-0.299h-1.2   l-1.799-0.6h-0.901l-1.799-0.6h-0.901l-1.2-0.3h-0.9l-1.799-0.6h-0.901l-0.9-0.3h-0.898l-1.2-0.3l-0.901-0.3h-0.9l-0.9-0.3h-0.899   l-0.901-0.301l-1.2-0.299h-0.9l-1.8-0.6h-0.9l-0.9-0.301h-15.3l-1.8,0.601l-0.9,0.599l-3.6,1.201l-0.9,0.6l-0.899,0.3l-0.601,0.3   l-1.8,0.6l-0.9,0.6l-0.9,0.299l-0.6,0.901l-1.499,1.499l-1.2,1.801l-0.301,0.6l-0.3,0.9l-0.6,0.9l-0.6,1.8l-0.6,0.6l-0.299,0.899   l-1.801,2.701l-0.3,0.9l-1.8,0.6l-0.899,0.6l-1.201,0.299l-1.8-0.599l-0.899-0.602l-0.901-0.299l-0.6-0.6l-0.899-0.6l-0.601-0.6   l-0.9-0.601l-1.199-1.2l-0.901-0.599l-1.2-1.2l-0.9-0.601l-0.599-0.599l-0.901-0.3l-0.6-0.6l-0.899-0.3l-0.901-0.6h-1.799l-1.2-0.3   h-0.901l-0.9-0.3h-3l-0.9,0.3h-5.1l-0.9,0.3h-3.9l-0.9,0.3h-3.9l-0.899,0.3h-3.001l-0.9,0.3l-1.2,0.299l-1.8,0.602l-0.599,0.9   l-1.801,1.8v0.9l0.602,1.8v0.9l0.299,0.9l-0.299,0.6l-0.602,0.6l-0.599,2.4l-0.601,1.2l0.9,0.3h1.8l0.9,0.3h0.9l0.3,0.9l0.6,0.898   l0.301,0.901l0.299,0.6l-0.9,2.7l-0.3,0.599l-1.2,0.301h-2.999l-1.801-1.8l-1.8,0.9l-0.6,0.599l-0.6,0.901l-0.6,0.6v0.9l-0.3,0.6   v2.099l-0.3,0.901l-0.6,0.6l-0.6,0.899l-2.4,2.401l-0.6,0.299l-0.6,0.602l-0.9,0.599l-0.6,0.301l-0.9,0.6l-2.7,0.9l-0.6,0.3   l-0.898,0.6l-0.301,0.899l0.301,0.601l0.299,0.9l0.6,0.9v1.8l-0.3,0.898l-1.2,1.2l-0.6,0.901l-0.6,0.6l-0.6,0.9l-0.6,0.3   l-0.898,0.3h-1.801l-0.9-0.3h-1.8l-1.2,0.3l-0.599,1.8l-0.301,1.2v2.1l-0.3,1.2l-0.9,0.3l-0.899,0.6l-0.601,0.3l-0.9,0.3l-0.6,0.9   l-0.6,1.8l-1.5,1.499l-0.3,0.901l-0.599,0.6l-0.601,0.9l-0.599,0.6l-0.602,0.898l-0.3,0.602l-1.8,2.7l-0.6,0.6v1.2l0.3,0.6   l0.601,0.9l0.299,0.898v2.701l0.3,1.2l-0.9,0.6l-0.6,0.6l-0.6,0.9l-2.7,1.8l-0.6,0.6l-1.8,1.2l-0.6,0.9l-0.6,0.599l0.9,0.301   l0.601,0.6l1.799,0.6l1.2,0.3v1.8l-1.798,1.8l-0.301,1.2v0.899l-0.3,0.901v3.3l-0.3,0.6l-0.6,1.8l-1.8,0.6h-2.999l-0.901,0.299   h-0.9l-0.9,0.301l-1.2,0.3l0.301,0.9l0.299,0.6v0.9l0.3,0.898l-1.799,5.401l0.299,0.9l0.3,0.6v0.9l0.3,0.899l-0.6,0.601   l-0.299,0.599l-0.602,0.901l-1.5,1.499l0.602,1.801v0.898l0.299,0.901l-0.9,0.299l-1.2,0.601l-0.599,0.599l-0.901,0.601l-0.6,0.599   l-0.6,0.901l-0.9,0.6l-0.599,0.6v2.1l0.599,0.6l0.9,0.6l0.6,0.6l0.9,0.6l0.602,0.6l0.599,0.299v1.501l-1.2,0.3l-0.599,0.6   l-0.601,0.3l-0.9,0.6v1.799l0.6,0.601l0.6,0.9l0.6,0.6l4.5,1.499h0.9l0.9,0.601l0.901,0.3l0.599,0.6l-0.599,1.8l-0.601,0.9   l-0.599,1.2l-0.601,0.6l-0.9,0.6l1.2,0.6l2.4,2.4l0.6,1.799l-0.298,1.2l-0.602,0.901l0.3,0.9l0.301,1.2l0.298,0.9l1.2,1.8l1.8,1.2   l0.602,0.3l0.898,0.299v2.101l-0.898-0.3l-1.201-0.3l-1.8,0.6l-1.2,1.8v2.1l-0.3,1.2l0.602,1.8v1.2l1.2,0.6h1.799l0.6,0.6l0.6,0.3   l0.6,0.6l0.301,0.9l0.599,0.599v0.901l0.3,0.9v0.9l0.6,1.8v0.9l0.6,1.8l0.6,1.2l0.6,0.9l0.6,0.599v1.2l-0.9,0.601l-0.9,0.3v1.2   l0.301,0.9v2.099l0.298,0.901v0.9l0.3,1.2l-1.2,1.2l-0.9,0.6l-0.6,0.601l-0.6,0.898l-1.8,1.802l-1.799,1.199l-0.601,0.6   l-1.799,1.201v1.8l-0.301,0.898v0.901l-0.6,0.6l-0.299,0.898l-0.601,0.902l-0.3,0.899l-0.6,0.601l-0.3,0.899l-0.6,0.599v4.8   l-0.407,1.29l-0.107,1.886l-0.299,0.602l-0.901,0.599l-0.6,0.302l-1.2-0.302h-2.7l-0.599,0.602l-0.301,1.2l0.301,0.599v0.602   l0.899,2.699l0.301,0.6l0.898,2.701v0.898l0.301,0.901v2.999l-0.601,1.801v0.9l-0.3,0.898v0.901l-0.6,1.799v0.901l-0.6,1.8v0.898   l-0.299,0.901v0.9l-0.301,1.199l-0.3,0.899v0.901l-0.3,1.199v8.4l-0.3,0.9v7.8l0.3,0.899v1.801l0.3,0.899v1.8l0.601,1.8   l0.899,0.301h1.8l0.6-0.301l1.501-1.501l0.599-0.299h0.9l1.8,0.9l1.2,1.2l0.601,0.3l0.899,0.299l2.4,0.601l0.9-0.3l1.2,0.3   l0.901,0.601l0.898,0.3l3.6,3.599l0.9,1.2l0.3,0.602l0.3,0.899l0.301,0.601l0.299,0.899v0.899l0.3,0.9v3l-0.3,0.899v0.901   l-0.299,0.899v0.899l-0.301,0.9v0.601l-0.6,1.8v0.9l-0.3,0.899v0.9l-0.299,0.899v1.2l0.299,0.9v0.898l0.3,0.602l1.2,0.899   l0.6,0.301l0.9,0.599l1.801,0.601l0.599,0.301l4.501,1.5l0.599,0.298l0.9,0.302l0.901,0.6l0.599,0.299l0.601,0.602l0.899,0.599   l0.6,0.602l0.9,0.599l0.6,0.602l0.6,0.3l0.9,0.6l0.601,0.9l1.499,1.498v0.901l-0.299,0.9v0.599l-0.301,0.901v0.9l-0.3,0.899v0.9   l-0.3,0.899l-0.299,1.2l-1.2,3.601l-0.602,0.899l-0.3,0.601l-0.299,0.899l-0.601,0.898l-0.3,0.602l-0.3,0.9l-0.6,0.898l-0.3,0.602   l-0.599,0.899v0.899l-0.301,0.901l0.6,0.6l0.901,0.3h2.7l3.6-1.2l1.2,0.3l1.199,0.601l0.9,0.899l0.9,0.601l0.901,1.2l0.599,0.6   l0.3,0.9l0.9,0.599l0.9,0.301l0.6-0.301h0.9l1.2-1.2l0.6-0.898l0.301-0.601l0.599-0.901l0.601-0.599h0.599l0.9,0.3h1.2l4.5,1.499   h0.9l0.9,0.302h0.901l1.2-0.302l0.899-0.599l0.601-0.9l0.899-0.6l0.9-0.3l0.601-0.3h0.899l1.2-0.3l0.9,0.3h1.8l0.9,0.3h1.801   l0.899,0.3h3.9l0.9-0.3l0.601-0.3l0.899-0.3l0.6-0.601l0.6-0.301l0.6-0.599l0.6-0.301l0.9-0.301h0.9l0.9,0.301l0.6,0.601l0.3,0.6   l0.3,0.9l0.6,0.899l0.6,1.2l1.2,1.2l0.301,0.9v0.898l-0.602,0.901v1.8l0.3,0.9l0.9,0.6h1.2l0.9,0.3h1.8l0.9,0.3h0.901l0.599,0.601   v3.299l0.3,0.9l1.501,1.5l0.899,0.601l0.6,0.6l0.9,0.601l1.501,1.5l0.599,0.899l0.601,0.601l0.599,1.2l0.3,0.899l0.301,0.601   l0.599,1.8l0.3,0.6v0.9l0.301,0.899v0.899l0.299,0.9v2.7l-0.9,2.699l-0.599,0.901l-0.301,0.6l-0.6,0.601h-2.4l-0.6,0.3l-0.6,0.6   v1.2l-0.3,0.898v1.802l0.3,0.599l0.6,0.901l2.4,2.399l0.9,0.599l0.602,0.901l0.599,0.601l0.9,0.3l0.901,0.599h4.199l0.901,0.602   l0.599,1.2v2.399l-0.3,0.898v1.2l0.3,0.602l0.3,0.9l1.8,1.8l0.6,0.299l1.2,0.301h1.801l1.798,0.9l1.801,1.199l0.899,0.299   l0.9-0.299h0.901l0.899-0.6l1.8-0.6h1.2l0.901,0.3h2.099l2.7,0.899h0.9l2.7,0.9h0.9l1.8,0.599h0.9l0.9,0.302l0.6,0.3l0.9,0.3   l0.9-0.901l0.9-0.599l0.6-0.602l0.3-0.599l1.2-1.2l0.601-0.3l0.899-0.3h0.6l1.8,0.601h0.9l1.2,0.3l0.901,0.3h0.898l2.702,0.899h2.7   l0.899-0.6l0.6-0.6l1.2-0.601l0.901-0.3h0.899l1.2,0.3l0.9-0.3l0.6-0.301l1.8-1.799l0.3-0.602l1.2-1.2h0.9l0.901-0.299h0.898   l0.6-0.3l1.201-1.2l0.599-0.899l0.601-0.601l0.299-0.601l0.6-0.299l1.8-0.601h2.7l0.901,0.301h2.699l0.901,0.3l0.899-0.3l1.2-0.602   l0.6-0.898l0.3-0.601l0.6-0.6l0.301-0.9l1.2-1.2l0.899-0.3l0.6-0.3l0.6-1.2v-0.899l-0.3-0.602v-0.898l0.3-0.9l0.6-0.602l0.6-1.2   l0.301-0.898v-1.801l0.299-0.899l0.6-0.301l0.6-0.599h0.9l0.9-0.3l0.601-0.302l0.899-0.299h0.9l0.9-0.3h0.901l0.898-0.3l0.6,0.3   l0.6,0.599l1.801,1.2l1.799,1.801l0.9,0.601l2.4,2.399l0.9,0.299l1.2,1.2l0.301,0.901l0.599,0.9l0.601,0.599l0.599,0.901l0.601,0.6   l0.599,0.9l0.3,0.6l0.6,0.898l1.8,1.802l0.3,0.599l1.2,1.2l0.9,0.301h1.2l0.9,0.3h1.8l0.899-0.3h3.9l0.899,0.9l0.301,0.6l0.602,1.8   v1.499l0.298,0.901l-0.298,0.9v2.399l-0.602,1.8l-0.301,0.601l-0.6,0.6h-0.3l-0.9-0.3h-0.898l-0.901-0.3h-1.2l-0.3,0.3h-0.299   l-0.301,0.3l-0.601,0.9l-0.6,0.599l-0.6,0.901l-0.299,0.6l-0.601,0.9l-0.3,0.899v1.2l0.6,1.2l0.9,0.599l0.602,0.901l0.899,0.6   l0.6,0.601l0.9,0.6l0.6,0.6l0.3,0.9l0.3,0.6v0.9l0.302,1.2l-0.302,1.2l0.302,0.899v0.899l0.599,1.201l0.9,0.6l0.9,0.898   l0.899,0.302l0.899,0.6l0.602,0.299h0.898l0.602,0.302h2.099l0.9-0.302l0.899,0.302h0.902l1.199,1.2v1.199l-0.301,0.601l-1.801,1.8   l-0.6,0.3l-0.6,0.898l-0.299,0.602l0.599,0.599l0.3,0.602l0.9,1.2l0.899,0.3l0.901,0.6l0.599,0.601l0.901,0.299l0.599,0.601   l0.9,0.3l0.901,0.601l0.599,0.6l0.899,0.3l0.902,0.601l0.598,0.3l0.9,0.599H360.667z"/>
    <path id="path4432-0" stroke="#1f1f1f" stroke-width="1.2" d="   M360.667,551.763l0.602,0.301l0.599,0.601l0.899,0.6l0.601,0.3h1.2l1.199-0.602l1.802-1.199l0.599-0.899l1.2-1.2l0.3-0.6l0.6-0.9   l0.301-0.6l0.602-0.901l0.299-0.599l0.6-0.9l0.301-0.6l0.6-0.6l0.299-0.601l1.201-1.199l0.899-0.301l0.901-0.6l1.799-0.6l0.9-0.601   l1.799-0.6l0.9-0.601l0.901-0.3l0.899-0.601l0.899-0.299h1.802l1.199-0.301h0.898l1.201,0.301l0.601,0.6l0.299,0.6l1.2,1.2   l0.3,0.601l0.601,0.6l0.6,0.3l0.9-0.3l1.799-1.2l0.601-0.3l0.899-0.602l0.601-0.599l0.901-0.602l1.199-0.298h3.299l0.9,0.298   l0.6,0.602l0.302,0.599l0.299,0.901l0.3,0.601v0.899l0.3,0.9l0.302,0.599l0.599,1.801l0.899,1.799l0.301,0.302l1.801,0.6h0.898   l0.9,0.299l1.2,0.302h5.399l0.9,0.3h5.701l0.898,0.3h1.802l0.898-0.3h0.9l1.801-0.602h0.899l0.899-0.299h2.4l0.6,0.299l0.302,0.901   l0.599,0.6l0.601,0.301h2.1l0.899,0.3h2.7l0.9-0.601l0.9-0.3l0.899-0.6l0.6-0.3l1.8-1.2l0.9-0.302l0.6-0.599l0.9-0.3l0.9-0.6   l0.9-0.301l0.6-0.601l0.899-0.299l0.901-0.601l0.898-0.301l0.6-0.599l0.9-0.3h0.9l0.9-0.301h0.9l0.898-0.3h2.702l1.798-0.6h0.601   l0.899-0.602l0.9-1.2l0.301-0.898l0.299-1.2l0.9-2.7l1.5-1.501l0.301-0.599l0.899-0.3l2.7-1.8l2.701-0.901l0.898-0.599l0.6-0.602   l0.301-1.199l0.3-0.899l0.601-0.9l0.6-1.2l1.801-1.8l0.899-0.6l1.199-0.3l0.9-0.301l0.9-0.6l0.899-0.3l0.601-0.6l0.6-0.9l1.2-1.2   l0.301-0.9l0.599-0.9l0.301-0.899l0.301-0.6l0.599-0.901l0.3-0.898l0.601-0.601l0.6-1.8l0.601-0.899l0.3-0.601l0.6-0.899   l0.601-1.802l0.3-0.599l2.399-7.2l0.301-0.6l3-9v-0.9l0.6-1.801l0.3-1.2v-0.898l0.3-0.9v-2.102l-0.3-0.898l-0.3-1.2v-0.899   l-0.3-0.9v-0.6l0.3-0.9l0.6-0.9l0.9-0.3l1.8-1.8l0.3-0.9l0.301-1.199v-3.601l0.301-0.901v-1.799l0.299-0.899l0.6-0.601l0.302-0.6   l3.599-3.602l0.6-0.898l0.301-0.9v-2.1l-0.301-1.2l-0.899-0.899l-1.2-0.301l-0.6-0.6l-0.9-0.602l-0.599-0.299l-0.302-0.9   l-1.199-1.2l-0.899-2.699v-8.1l0.299-0.9v-0.901l0.601-1.799v-0.601l0.899-2.699v-0.899l0.9-2.702v-0.898l0.901-2.701v-0.898   l0.298-0.9l0.601-1.2l0.6-0.901l0.601-0.298l1.801-1.2l0.599-0.601l0.3-0.899l0.601-0.602l0.3-0.898v-0.9l0.3-0.6v-10.201   l0.302-0.899l0.299-0.6l-0.299-1.5l-0.602-0.9l-0.599-0.6l-0.901-0.602l-1.499-1.498l-1.201-1.801v-2.1l0.3-0.6l0.601-0.601   l0.6-0.901l1.5-1.498l0.602-0.301l0.299-0.601l0.6-0.599l0.601-0.9l0.3-0.901l0.601-0.898l0.299-0.9l0.601-0.901l0.3-0.898l0.6-1.2   l0.301-0.899v-0.9l-0.9-0.6l-0.6-0.601l-1.799-0.6l-1.2-0.3h-0.602l-0.599,0.6l-0.602,0.9l-0.599,1.8l-0.601,0.899l-0.301,0.9   l-0.3,0.6l-0.3,0.9l-1.199,1.8l-0.601,0.299l-0.9,0.302l-2.7-0.9h-0.899l-1.8-0.6h-0.9l-2.7-0.9l-0.599-0.3l-0.901-0.601   l-0.899-0.3l-0.601-0.602l-0.899-0.298l-0.6-0.901l-0.9-0.899v-0.6l0.3-0.901l0.601-0.299l0.899-0.6l0.6-0.601l0.9-1.201   l0.301-0.898l-0.301-0.9l-0.3-0.601l-0.601-0.299l-0.899-0.3l-0.6,0.3l-1.801,0.6h-1.799l-0.901-0.301l-0.6-0.299l-0.9-0.3   l-0.899-0.602l-1.799-0.599l-0.901-0.602l-0.9-0.299l-0.599-0.3l-2.701-0.9h-0.9l-1.8-0.6l-0.6-0.602v-0.898l0.3-0.9l0.3-0.601   l0.601-0.899l0.3-0.899l0.601-0.602l0.299-0.898l0.601-0.601l0.3-0.899l0.6-0.9l0.901-2.7l-0.301-0.899v-0.9l-0.3-0.6l-0.301-1.2   l-0.6-1.801v-2.4l0.3-0.898v-0.601l0.601-1.2l0.899-0.3h0.901l6.3-2.101l0.899-0.6l0.6-0.899l0.3-0.901v-1.799l0.3-0.6l-0.3-1.2   v-3.3l0.602-0.9l0.898-0.6l0.9-0.302l0.601-0.599l0.899-0.3l1.801-1.2l0.599-0.9v-1.8l-0.3-1.2l-0.299-0.899l-0.301-1.2v-1.2   l0.301-0.9l1.2-1.799l-0.301-0.9l-0.301-0.6l-2.699-2.701l-0.6-1.199v-1.502l0.299-0.598v-0.9l0.301-0.901l0.6-2.399l-0.6-1.799   l-0.6-0.3l-0.9-0.3h-2.4l-0.9-0.6l-0.3-1.2l-0.6-1.8l-1.2-1.8l-0.3-0.9l-0.3-0.6l-0.6-0.901v-2.099l0.299-0.9l0.601-0.602   l0.3-0.898l0.6-0.9l0.301-0.6h0.899l1.8,0.6l0.601,0.3l0.6,1.2l0.601,1.8l0.3,1.2l0.3,0.6l1.2,1.2l1.801,0.6h2.999l0.9-0.301   l0.6-0.299h0.9l0.899-0.3l0.601-0.3l1.5-1.501v-0.899l0.301-0.6v-3l-0.301-0.9v-2.4l0.301-0.901l1.2-1.799l0.299-0.6l-0.299-0.6   l-0.602-0.3l-0.599-0.601l-0.602-1.2l-0.599-0.898l-0.301-0.9v-0.9l-0.3-1.2l-0.301-0.9v-2.702l0.601-1.2l0.6-0.299l0.901-0.6   l0.599-0.9l0.3-0.601l0.601-0.599v-2.101l-0.601-1.799l-0.3-0.601l-0.3-0.899v-0.9l-0.299-0.9v-0.6h0.599l1.802,1.2l0.898,0.3   l0.9,0.599l0.899,0.301l1.201,0.6h0.599l0.301-0.3h0.301l0.599-0.9l0.3-0.6l0.601-0.9l0.6-0.6l0.601-0.9l-0.299-0.9l-0.302-0.6   l-2.099-2.1l-0.901-0.602l-0.9-0.898l-0.6-0.9v-0.9l-0.3-0.9v-0.9l-0.3-1.2v-1.2l0.3-0.602v-0.599l0.6-0.9l2.7-0.9l0.9-0.6l0.3-0.6   v-0.9l-0.3-0.601l-0.601-0.599l-0.898-0.601l-0.602-0.599l-0.599-1.2v-1.8l-0.301-0.9v-2.7l-0.3-0.9v-3.9l-0.301-0.9l-0.6-0.901   l-0.6-0.299l-0.9-0.3l-0.898-1.2l-0.302-0.9v-3l0.302-0.9l1.199-1.8l0.6-0.6l0.6-0.901v-2.999l-1.8-1.8l-0.9-0.6l-0.6-0.901   l-1.8-1.799l-0.899-0.601l-0.601-0.899l-1.801-1.801l-1.8-2.699l-0.898-2.7l-0.302-1.2l-0.6-1.8l-0.299-1.2l-0.602-0.9   l-0.599-1.801v-0.899l-0.301-0.9v-0.901l-0.3-0.599v-0.9l0.3-1.2v-0.901l0.301-0.898l0.299-1.2l0.901-2.7l0.599-0.9l0.3-0.601   l0.601-0.899l0.3-0.9l0.602-0.601l0.599-0.899l0.601-0.6l0.899-0.6l0.6-0.602l0.9-0.299l0.6-0.6l0.901-0.301l0.299-0.899l0.3-1.2   l0.3-0.9l0.601-0.9l0.3-0.9l0.602-0.9l0.299-0.9l0.6-0.901l2.7-0.899l1.2-0.301v-1.799l-0.601-0.9l-0.299-1.2l-0.301-0.9   l0.899-0.301l1.2-0.298l0.9-0.3h2.101l0.899,0.3h3.001l1.2,0.298l1.799-1.2l1.2-1.2l0.899-0.599l1.201-1.2l0.899-0.601l1.199-1.199   l0.9-0.3l0.602-0.3l1.799-0.6h1.8l5.399-1.8l0.601-0.3l3.6-1.2l0.602-0.602l0.299-0.898l0.3-0.6l0.602-0.9l-0.302-0.9v-1.801   l-0.6-0.599l-0.601-0.9l-0.3-0.901l-0.599-0.898l-0.301-0.9l-1.2-0.6l0.6-1.2l1.5-1.501l0.3-0.899l0.601-0.6l0.3-1.2v-10.2   l0.3-0.901l0.601-0.898l0.6-0.301h0.9l0.6,1.2l0.3,0.901l1.201,1.2l0.899,0.3h3.6l0.9-0.3h0.899l1.8-0.6h0.9l0.901-0.3l0.898-0.6   l0.9-1.2l1.2-3.6v-0.9l0.3-1.2v-0.9l-0.3-0.9l-0.6-0.3h-3.001l-0.899-0.301h-0.899l-0.901-0.299l-0.6-0.6l-0.3-0.6l-0.3-0.901   l-0.6-0.898l-0.301-0.6l-2.4-2.401l-1.8-2.699l-0.299-0.6l-1.501-1.501l-0.9-0.599l-0.6-0.9l-0.6-0.6l-0.9-0.602l-1.799-0.599   l-1.2-0.3l-1.801-0.6l-0.899-0.6l-1.199-0.301l-0.602-0.299v-0.901l-0.3-0.599v-1.8l-0.299-0.9v-3.9l-0.302-0.9v-2.7l-0.3-0.9v-1.8   l0.3-1.2l0.601-1.8l0.6-0.9l0.6-0.6l0.901-0.6l0.599-0.9l0.601-0.601l0.6-0.899l0.601-0.6l1.199-1.8v-0.9l0.302-0.9v-2.1l0.299-0.9   v-1.802l0.3-0.898v-1.2l0.3-0.6l0.601-0.9l0.3-0.9l0.601-0.601l0.6-0.899l0.3-0.6l0.6-1.8v-0.9l0.3-0.9v-2.1l0.9-2.702v-0.898   l0.3-0.9l0.707-0.988l-3.493-2.188l-0.898-0.3h-0.901l-0.9-0.301h-10.798l-1.2-0.299l-0.901-0.3h-0.9l-0.899-0.3h-0.899   l-1.201-0.301l-0.899-0.299h-0.9l-0.898-0.3h-0.901l-1.2-0.3l-0.9-0.301h-0.899l-1.8-0.599l-1.2,0.3l-0.9,0.299l-2.7,1.801   l-0.599,0.599l-0.601,0.901l-0.601,0.6l-0.6,0.898l-0.3,0.602l-0.6,0.6l-0.601,0.9l-0.9,0.599l-1.2,1.2l-0.898,0.601l-1.2,0.3   l-0.901,0.299l-0.899,0.602l-0.601,0.3l-0.6,0.9l-0.3,0.9l-0.599,0.9l-0.302,0.9l-1.2,1.2l-0.898,0.3l-0.602,0.299l-0.899-0.599   l-1.2-0.601l-1.5-0.299l-0.898,0.6l-0.901,0.3l-0.9,0.599l-0.599,0.601l-0.901,0.599l-0.6,0.901l-0.9,0.6l-0.6,0.6l-0.899,0.6   l-2.701,2.7l-0.898,0.6l-0.602,0.6l-0.9,0.6l-0.6,0.9l-0.9,0.599l-0.6,0.601l-0.9,0.599l-0.598,0.602l-0.602,0.9l-0.9,0.6   l-0.6,0.599l-1.801,1.2l-0.899,0.301l-0.899,0.6h-0.9l-0.898-0.3h-1.2l-0.602-0.601l-0.899-0.599l-0.601-0.601l-1.8-1.199l-0.6-0.9   l-1.799-0.602l-0.902-0.599h-4.5l-2.699,0.9l-1.2,0.3h-0.899l-4.5,1.5h-4.801l-0.9-0.6l-0.6-0.3l-0.9-0.6l-0.899-0.3l-0.898-0.6   l-0.901-0.3l-0.9-0.601l-0.899-0.299l-0.601-0.6l-0.899-0.301l-0.899-0.599l-0.9-0.3l-0.9-0.6l-0.9-0.3l-0.6-0.601l-0.9-0.299   l-0.899-0.6l-0.9-0.3l-0.899-0.6l-0.9-0.3l-0.898-0.602l-0.602-0.599l-0.9-0.3l-0.898-0.6l-0.901-0.3l-0.899-0.601l-0.9-0.299   l-0.9-0.6l-0.6-0.301l-0.898-0.599l-0.901-0.3l-0.9-0.6l-0.899-0.3l-0.898-0.6l-0.902-0.3l-0.6-0.6l-1.199,0.3l-6.301,2.1   l-3.599-1.2l-0.901-0.6l-7.2-2.401l-0.899-0.599l-0.898-0.3l-1.802,0.6h-0.899l-0.9,0.299h-0.9l-0.9,0.301l-1.199,0.3v0.9l-0.6,1.8   l-0.299,1.2l-0.302,0.9v0.899l-0.3,0.901l-0.301,1.2l-0.299,0.9l1.201,3.6l1.199,1.8l0.299,0.9l1.2,1.8l0.3,0.9v1.2l-0.3,0.9v0.898   l-0.299,1.2l-0.901,0.601l-0.9,0.9l-1.199,0.6l-0.9,0.3l-0.6,0.9l-0.9,0.9l-1.5,4.499v1.801l-0.3,0.899v1.2l-0.299,0.901v1.8   l-0.302,0.898v1.202l-0.299,0.9v1.799l-0.301,0.901v0.9l-0.299,1.2v0.9l-0.301,0.9l-0.6,0.9l-0.601,1.799l-0.601,0.901l-0.299,0.9   l-0.601,0.9l-0.601,1.8l-0.6,0.6l-0.3,0.9l-0.899,0.6l-0.601,0.899l-0.899,0.601l-0.6,0.599l-0.9,0.602l-0.601,0.599l-1.8,1.2   l-0.599,0.602l-0.901,0.3l-0.9,0.6l-1.799,0.6l-0.9,0.599l-0.601,0.301l-0.899,0.3l-0.9,0.599l-1.799,0.601l-0.901,0.599   l-0.899,0.301l-0.9,0.6l-0.6,0.299l-0.9,0.301l-0.9,0.6l-1.8,0.6l-0.899,0.6l-0.899,0.3l-0.601,0.3l-0.9,0.6l-1.8,0.599l-0.9,0.601   h-3.899l-4.499-1.5h-1.2l-2.701-0.9h-0.898l-0.901,0.3h-2.101l-0.898,0.3h-0.901l-0.9,0.3l-0.599,0.6l-0.901,0.299l-0.9,0.602   l-1.8,0.599l-0.6,0.601l-0.899,0.3l-0.901,0.6l-1.8,0.6h-0.899l-0.601,0.299l-0.9-0.599l-0.6-0.3l-0.9-0.6l-0.6-0.3l-0.299-1.2   v-0.9l-0.301-0.9v-5.7l-0.3-0.9l-0.3-1.2v-0.9l-0.299-1.2l-0.901-0.6l-2.7-2.7l-1.2-0.3l-0.9-0.301h-1.2l-0.9-0.299l-1.2-0.3   l-0.898,0.3h-2.7l-1.2,0.299h-1.801l-0.9,0.301h-2.099h-0.901l-0.9,0.3h-5.1l-0.9,0.3h-5.1l-0.899,0.299h-4.801l-0.9-0.299h-1.2   l-1.799-0.6h-0.901l-1.799-0.6h-0.901l-1.2-0.3h-0.9l-1.799-0.6h-0.901l-0.9-0.3h-0.898l-1.2-0.3l-0.901-0.3h-0.9l-0.9-0.3h-0.899   l-0.901-0.301l-1.2-0.299h-0.9l-1.8-0.6h-0.9l-0.9-0.301h-15.3l-1.8,0.601l-0.9,0.599l-3.6,1.201l-0.9,0.6l-0.899,0.3l-0.601,0.3   l-1.8,0.6l-0.9,0.6l-0.9,0.299l-0.6,0.901l-1.499,1.499l-1.2,1.801l-0.301,0.6l-0.3,0.9l-0.6,0.9l-0.6,1.8l-0.6,0.6l-0.299,0.899   l-1.801,2.701l-0.3,0.9l-1.8,0.6l-0.899,0.6l-1.201,0.299l-1.8-0.599l-0.899-0.602l-0.901-0.299l-0.6-0.6l-0.899-0.6l-0.601-0.6   l-0.9-0.601l-1.199-1.2l-0.901-0.599l-1.2-1.2l-0.9-0.601l-0.599-0.599l-0.901-0.3l-0.6-0.6l-0.899-0.3l-0.901-0.6h-1.799l-1.2-0.3   h-0.901l-0.9-0.3h-3l-0.9,0.3h-5.1l-0.9,0.3h-3.9l-0.9,0.3h-3.9l-0.899,0.3h-3.001l-0.9,0.3l-1.2,0.299l-1.8,0.602l-0.599,0.9   l-1.801,1.8v0.9l0.602,1.8v0.9l0.299,0.9l-0.299,0.6l-0.602,0.6l-0.599,2.4l-0.601,1.2l0.9,0.3h1.8l0.9,0.3h0.9l0.3,0.9l0.6,0.898   l0.301,0.901l0.299,0.6l-0.9,2.7l-0.3,0.599l-1.2,0.301h-2.999l-1.801-1.8l-1.8,0.9l-0.6,0.599l-0.6,0.901l-0.6,0.6v0.9l-0.3,0.6   v2.099l-0.3,0.901l-0.6,0.6l-0.6,0.899l-2.4,2.401l-0.6,0.299l-0.6,0.602l-0.9,0.599l-0.6,0.301l-0.9,0.6l-2.7,0.9l-0.6,0.3   l-0.898,0.6l-0.301,0.899l0.301,0.601l0.299,0.9l0.6,0.9v1.8l-0.3,0.898l-1.2,1.2l-0.6,0.901l-0.6,0.6l-0.6,0.9l-0.6,0.3   l-0.898,0.3h-1.801l-0.9-0.3h-1.8l-1.2,0.3l-0.599,1.8l-0.301,1.2v2.1l-0.3,1.2l-0.9,0.3l-0.899,0.6l-0.601,0.3l-0.9,0.3l-0.6,0.9   l-0.6,1.8l-1.5,1.499l-0.3,0.901l-0.599,0.6l-0.601,0.9l-0.599,0.6l-0.602,0.898l-0.3,0.602l-1.8,2.7l-0.6,0.6v1.2l0.3,0.6   l0.601,0.9l0.299,0.898v2.701l0.3,1.2l-0.9,0.6l-0.6,0.6l-0.6,0.9l-2.7,1.8l-0.6,0.6l-1.8,1.2l-0.6,0.9l-0.6,0.599l0.9,0.301   l0.601,0.6l1.799,0.6l1.2,0.3v1.8l-1.798,1.8l-0.301,1.2v0.899l-0.3,0.901v3.3l-0.3,0.6l-0.6,1.8l-1.8,0.6h-2.999l-0.901,0.299   h-0.9l-0.9,0.301l-1.2,0.3l0.301,0.9l0.299,0.6v0.9l0.3,0.898l-1.799,5.401l0.299,0.9l0.3,0.6v0.9l0.3,0.899l-0.6,0.601   l-0.299,0.599l-0.602,0.901l-1.5,1.499l0.602,1.801v0.898l0.299,0.901l-0.9,0.299l-1.2,0.601l-0.599,0.599l-0.901,0.601l-0.6,0.599   l-0.6,0.901l-0.9,0.6l-0.599,0.6v2.1l0.599,0.6l0.9,0.6l0.6,0.6l0.9,0.6l0.602,0.6l0.599,0.299v1.501l-1.2,0.3l-0.599,0.6   l-0.601,0.3l-0.9,0.6v1.799l0.6,0.601l0.6,0.9l0.6,0.6l4.5,1.499h0.9l0.9,0.601l0.901,0.3l0.599,0.6l-0.599,1.8l-0.601,0.9   l-0.599,1.2l-0.601,0.6l-0.9,0.6l1.2,0.6l2.4,2.4l0.6,1.799l-0.298,1.2l-0.602,0.901l0.3,0.9l0.301,1.2l0.298,0.9l1.2,1.8l1.8,1.2   l0.602,0.3l0.898,0.299v2.101l-0.898-0.3l-1.201-0.3l-1.8,0.6l-1.2,1.8v2.1l-0.3,1.2l0.602,1.8v1.2l1.2,0.6h1.799l0.6,0.6l0.6,0.3   l0.6,0.6l0.301,0.9l0.599,0.599v0.901l0.3,0.9v0.9l0.6,1.8v0.9l0.6,1.8l0.6,1.2l0.6,0.9l0.6,0.599v1.2l-0.9,0.601l-0.9,0.3v1.2   l0.301,0.9v2.099l0.298,0.901v0.9l0.3,1.2l-1.2,1.2l-0.9,0.6l-0.6,0.601l-0.6,0.898l-1.8,1.802l-1.799,1.199l-0.601,0.6   l-1.799,1.201v1.8l-0.301,0.898v0.901l-0.6,0.6l-0.299,0.898l-0.601,0.902l-0.3,0.899l-0.6,0.601l-0.3,0.899l-0.6,0.599v4.8   l-0.407,1.29l-0.107,1.886l-0.299,0.602l-0.901,0.599l-0.6,0.302l-1.2-0.302h-2.7l-0.599,0.602l-0.301,1.2l0.301,0.599v0.602   l0.899,2.699l0.301,0.6l0.898,2.701v0.898l0.301,0.901v2.999l-0.601,1.801v0.9l-0.3,0.898v0.901l-0.6,1.799v0.901l-0.6,1.8v0.898   l-0.299,0.901v0.9l-0.301,1.199l-0.3,0.899v0.901l-0.3,1.199v8.4l-0.3,0.9v7.8l0.3,0.899v1.801l0.3,0.899v1.8l0.601,1.8   l0.899,0.301h1.8l0.6-0.301l1.501-1.501l0.599-0.299h0.9l1.8,0.9l1.2,1.2l0.601,0.3l0.899,0.299l2.4,0.601l0.9-0.3l1.2,0.3   l0.901,0.601l0.898,0.3l3.6,3.599l0.9,1.2l0.3,0.602l0.3,0.899l0.301,0.601l0.299,0.899v0.899l0.3,0.9v3l-0.3,0.899v0.901   l-0.299,0.899v0.899l-0.301,0.9v0.601l-0.6,1.8v0.9l-0.3,0.899v0.9l-0.299,0.899v1.2l0.299,0.9v0.898l0.3,0.602l1.2,0.899   l0.6,0.301l0.9,0.599l1.801,0.601l0.599,0.301l4.501,1.5l0.599,0.298l0.9,0.302l0.901,0.6l0.599,0.299l0.601,0.602l0.899,0.599   l0.6,0.602l0.9,0.599l0.6,0.602l0.6,0.3l0.9,0.6l0.601,0.9l1.499,1.498v0.901l-0.299,0.9v0.599l-0.301,0.901v0.9l-0.3,0.899v0.9   l-0.3,0.899l-0.299,1.2l-1.2,3.601l-0.602,0.899l-0.3,0.601l-0.299,0.899l-0.601,0.898l-0.3,0.602l-0.3,0.9l-0.6,0.898l-0.3,0.602   l-0.599,0.899v0.899l-0.301,0.901l0.6,0.6l0.901,0.3h2.7l3.6-1.2l1.2,0.3l1.199,0.601l0.9,0.899l0.9,0.601l0.901,1.2l0.599,0.6   l0.3,0.9l0.9,0.599l0.9,0.301l0.6-0.301h0.9l1.2-1.2l0.6-0.898l0.301-0.601l0.599-0.901l0.601-0.599h0.599l0.9,0.3h1.2l4.5,1.499   h0.9l0.9,0.302h0.901l1.2-0.302l0.899-0.599l0.601-0.9l0.899-0.6l0.9-0.3l0.601-0.3h0.899l1.2-0.3l0.9,0.3h1.8l0.9,0.3h1.801   l0.899,0.3h3.9l0.9-0.3l0.601-0.3l0.899-0.3l0.6-0.601l0.6-0.301l0.6-0.599l0.6-0.301l0.9-0.301h0.9l0.9,0.301l0.6,0.601l0.3,0.6   l0.3,0.9l0.6,0.899l0.6,1.2l1.2,1.2l0.301,0.9v0.898l-0.602,0.901v1.8l0.3,0.9l0.9,0.6h1.2l0.9,0.3h1.8l0.9,0.3h0.901l0.599,0.601   v3.299l0.3,0.9l1.501,1.5l0.899,0.601l0.6,0.6l0.9,0.601l1.501,1.5l0.599,0.899l0.601,0.601l0.599,1.2l0.3,0.899l0.301,0.601   l0.599,1.8l0.3,0.6v0.9l0.301,0.899v0.899l0.299,0.9v2.7l-0.9,2.699l-0.599,0.901l-0.301,0.6l-0.6,0.601h-2.4l-0.6,0.3l-0.6,0.6   v1.2l-0.3,0.898v1.802l0.3,0.599l0.6,0.901l2.4,2.399l0.9,0.599l0.602,0.901l0.599,0.601l0.9,0.3l0.901,0.599h4.199l0.901,0.602   l0.599,1.2v2.399l-0.3,0.898v1.2l0.3,0.602l0.3,0.9l1.8,1.8l0.6,0.299l1.2,0.301h1.801l1.798,0.9l1.801,1.199l0.899,0.299   l0.9-0.299h0.901l0.899-0.6l1.8-0.6h1.2l0.901,0.3h2.099l2.7,0.899h0.9l2.7,0.9h0.9l1.8,0.599h0.9l0.9,0.302l0.6,0.3l0.9,0.3   l0.9-0.901l0.9-0.599l0.6-0.602l0.3-0.599l1.2-1.2l0.601-0.3l0.899-0.3h0.6l1.8,0.601h0.9l1.2,0.3l0.901,0.3h0.898l2.702,0.899h2.7   l0.899-0.6l0.6-0.6l1.2-0.601l0.901-0.3h0.899l1.2,0.3l0.9-0.3l0.6-0.301l1.8-1.799l0.3-0.602l1.2-1.2h0.9l0.901-0.299h0.898   l0.6-0.3l1.201-1.2l0.599-0.899l0.601-0.601l0.299-0.601l0.6-0.299l1.8-0.601h2.7l0.901,0.301h2.699l0.901,0.3l0.899-0.3l1.2-0.602   l0.6-0.898l0.3-0.601l0.6-0.6l0.301-0.9l1.2-1.2l0.899-0.3l0.6-0.3l0.6-1.2v-0.899l-0.3-0.602v-0.898l0.3-0.9l0.6-0.602l0.6-1.2   l0.301-0.898v-1.801l0.299-0.899l0.6-0.301l0.6-0.599h0.9l0.9-0.3l0.601-0.302l0.899-0.299h0.9l0.9-0.3h0.901l0.898-0.3l0.6,0.3   l0.6,0.599l1.801,1.2l1.799,1.801l0.9,0.601l2.4,2.399l0.9,0.299l1.2,1.2l0.301,0.901l0.599,0.9l0.601,0.599l0.599,0.901l0.601,0.6   l0.599,0.9l0.3,0.6l0.6,0.898l1.8,1.802l0.3,0.599l1.2,1.2l0.9,0.301h1.2l0.9,0.3h1.8l0.899-0.3h3.9l0.899,0.9l0.301,0.6l0.602,1.8   v1.499l0.298,0.901l-0.298,0.9v2.399l-0.602,1.8l-0.301,0.601l-0.6,0.6h-0.3l-0.9-0.3h-0.898l-0.901-0.3h-1.2l-0.3,0.3h-0.299   l-0.301,0.3l-0.601,0.9l-0.6,0.599l-0.6,0.901l-0.299,0.6l-0.601,0.9l-0.3,0.899v1.2l0.6,1.2l0.9,0.599l0.602,0.901l0.899,0.6   l0.6,0.601l0.9,0.6l0.6,0.6l0.3,0.9l0.3,0.6v0.9l0.302,1.2l-0.302,1.2l0.302,0.899v0.899l0.599,1.201l0.9,0.6l0.9,0.898   l0.899,0.302l0.899,0.6l0.602,0.299h0.898l0.602,0.302h2.099l0.9-0.302l0.899,0.302h0.902l1.199,1.2v1.199l-0.301,0.601l-1.801,1.8   l-0.6,0.3l-0.6,0.898l-0.299,0.602l0.599,0.599l0.3,0.602l0.9,1.2l0.899,0.3l0.901,0.6l0.599,0.601l0.901,0.299l0.599,0.601   l0.9,0.3l0.901,0.601l0.599,0.6l0.899,0.3l0.902,0.601l0.598,0.3l0.9,0.599H360.667z" style=""/>
  </g>
  <g id="layer4" transform="translate(-60.481875,-26.70498)" style="opacity:0.408">
    <path id="path5330" d="m 331.681,313.806 0.601,0.599 0.899,0.602 0.601,0.3 h 0.899 l 0.602,-0.901 0.898,-0.599 1.502,1.5 -0.901,0.601 -0.601,0.6 -0.898,0.599 -0.9,0.302 -0.9,0.6 -1.801,0.6 -0.6,0.6 -0.898,0.299 v 1.502 h 1.498 v 1.5 h 3 v -3.002 h 1.5 v 6.002 l -0.898,0.6 -0.602,0.899 v 1.501 l -1.5,1.5 h 1.5 v 1.2 h 1.5 l 0.9,-0.601 0.602,-0.6 0.898,0.6 0.6,0.9 v 2.7 h -1.498 l -0.602,0.899 -0.9,0.599 -4.5,1.502 -3,3 0.9,0.599 0.602,0.901 h 1.498 l 0.902,0.6 0.598,0.898 v 1.2 l 3,3.002 v 0.898 l 0.302,0.602 0.599,0.899 0.9,0.601 v 3 h 4.5 v 3 h 1.501 v 2.998 l 0.599,0.602 0.9,0.6 0.6,0.9 0.9,0.599 0.602,0.901 0.898,0.6 0.602,0.899 0.898,0.601 0.6,0.9 0.901,0.6 0.599,0.9 0.9,0.6 -1.499,1.499 v 1.501 h -1.501 l -0.898,0.601 -0.602,0.899 v 4.2 h 3.001 v 1.499 l -1.501,1.501 h 1.501 l 0.599,0.3 0.9,0.599 0.6,0.302 0.9,0.3 v 1.5 l -0.6,0.9 -0.301,0.898 -0.6,1.2 v 1.2 l 1.5,1.501 v 1.5 l -0.301,0.9 -0.6,0.899 -0.3,0.601 -0.599,0.898 -0.602,1.801 -0.599,0.9 -0.601,0.6 -0.9,0.601 h -7.199 l -1.501,1.5 1.501,1.5 -0.9,0.599 -0.601,0.901 v 1.498 l -0.899,0.302 -0.601,0.6 -0.899,0.299 -1.199,1.201 -0.901,0.3 h -4.5 v 3 h -1.5 v 1.5 h -1.5 l 0.3,0.601 v 0.6 l 0.301,1.2 1.199,1.799 v 1.501 h 1.502 l -0.902,0.601 -0.6,0.899 -0.898,0.599 -0.602,0.901 v 2.7 l 0.602,0.9 0.898,0.599 0.6,0.301 0.902,0.601 0.598,0.299 0.902,0.301 v 4.5 l 1.498,1.499 -0.9,0.601 -0.598,0.6 h 1.498 l 0.6,0.9 0.9,0.601 h 1.5 v 1.5 l 0.301,0.899 0.6,1.199 0.602,0.901 h 1.5 l 2.998,3 v 4.2 l 0.602,0.899 0.898,0.601 0.6,0.899 0.902,0.599 h -1.502 v 1.502 h -1.5 v 2.7 l 0.602,0.6 0.898,0.299 0.6,0.301 0.902,0.3 -1.502,1.5 h -3 v -1.5 l -1.498,-1.5 h -3.002 v 7.199 l -0.6,0.901 -0.6,0.6 v 4.5 h -1.5 l -0.9,0.3 -1.2,0.601 -0.899,0.3 h -1.5 l 1.5,1.499 -0.601,0.901 -0.899,0.6 h -3 v -3 l -1.5,-1.5 -0.6,-0.3 -0.9,-0.3 -0.6,-0.302 -0.899,-0.599 h -2.701 v 3 h -5.999 l -0.301,0.9 -1.8,2.7 -2.1,2.1 v -1.5 l -0.898,-0.6 -0.602,-0.901 h -4.5 l -0.898,-0.599 -0.602,-0.9 0.602,-0.6 0.898,-0.601 0.6,-0.899 0.901,-0.601 0.599,-0.901 0.9,-0.599 h 1.2 l 0.901,-0.602 0.599,-0.898 v -1.501 h -1.5 v -1.2 h -0.9 l -0.9,-0.299 h -1.2 v -4.2 l 1.501,-4.5 -0.602,-0.6 -0.9,-0.602 h -1.5 l -0.599,-0.898 -0.901,-0.601 h -1.5 v -4.5 h -4.5 l -0.599,-0.3 -0.901,-0.3 -0.599,-0.6 -0.901,-0.302 h -1.2 v -0.898 l -0.298,-0.9 v -2.399 l -0.301,-1.2 -1.2,-1.8 v -3 l -3,-3 h -1.5 l 0.3,-0.9 0.3,-0.6 0.9,-2.701 v -1.499 h 4.501 l 1.499,-1.5 -0.299,-0.9 v -1.8 l 1.499,-1.5 h 3 l 0.9,-0.6 1.2,-0.3 0.901,-0.602 2.099,-2.099 0.9,-0.601 0.6,-0.899 0.9,-0.601 v -0.901 l -0.3,-0.599 v -4.5 h -1.499 l -1.5,-1.5 v -1.5 h -3.001 v -1.199 l -0.9,0.3 -0.899,0.6 -0.901,0.3 -0.299,-0.601 v -0.899 h -1.201 l -0.299,-0.6 v -0.601 l -0.601,-0.899 -0.9,-0.601 h -2.7 l -3.9,-3.9 -0.9,-0.6 v -1.5 l -1.5,-1.5 h -7.2 v -1.501 h 2.701 l 0.899,-0.599 0.601,-0.9 v -8.699 h 1.499 v -1.5 l -0.9,-0.602 -0.599,-0.898 -0.901,-0.301 -0.599,-0.6 -0.901,-0.6 -0.6,-0.302 -0.898,-0.599 -0.602,-0.3 -1.5,-1.501 h -1.499 v -1.499 l 0.599,-0.901 0.601,-0.599 v -1.5 h 1.499 v -1.5 l -1.499,-1.501 v -1.499 h -1.501 v -1.2 l -0.6,-0.3 h -0.9 v 1.5 h -3 v 1.499 l -0.6,0.9 -0.899,0.601 h -1.501 v -1.501 h -1.5 v -7.199 h 1.5 v -1.501 l 0.9,-0.599 0.9,-0.301 1.2,-0.6 v -3.602 l -0.299,-0.898 h -2.701 l -0.9,-0.6 -0.9,-0.901 h -4.199 v 1.501 h -1.501 l -0.9,-0.301 -0.6,-0.299 -0.899,-0.601 -0.601,-0.301 -0.9,-0.599 -0.6,-0.9 h -3 v -0.6 l -0.3,-0.9 v -1.5 h -4.499 l -1.501,-1.5 0.9,-0.6 2.1,-2.102 h 4.5 l 0.6,-0.898 0.3,-1.2 0.601,-0.9 0.899,-0.6 1.2,-0.302 0.9,-0.599 v -1.5 h 6 l 0.6,0.899 0.9,0.601 v 1.5 l 0.601,0.9 0.899,0.6 h 6 v -1.5 l 0.601,-0.6 0.899,-0.601 h 9 v -1.5 l 0.6,-0.899 0.6,-0.601 h 1.501 l 0.898,0.301 0.6,0.599 0.901,0.301 0.599,0.3 h 4.501 v 0.9 l 0.299,0.6 h 5.7 l 0.9,0.9 0.9,0.599 h 1.5 l -0.3,-0.599 v -2.4 h 6.001 l 0.898,-0.601 0.6,-0.599 v -3 l 1.5,-1.502 0.901,-0.599 0.599,-0.899 v -3.001 h 1.5 l 0.6,-0.6 0.901,-0.6 v -1.5 h 7.5 v -4.5 h 2.999 l 1.5,-1.5 h 1.5 l 0.9,-0.301 0.9,-0.6 1.2,-0.296 0,0 z" style="fill:#1f1f1f;stroke:white;stroke-width:1.20000005000000010;stroke-linejoin:bevel"/>
    <path id="path5338" d="m 294.782,486.904 -0.6,-0.299 -0.9,-0.6 -1.2,-0.601 v -0.9 l -0.3,-1.2 v -2.399 l -0.6,-0.6 -0.899,-0.6 v 1.199 l -0.601,0.9 -0.599,0.6 h -1.5 v -5.1 l -0.301,-0.6 -0.6,-0.901 -0.6,-0.599 -0.898,-0.602 -0.602,-0.898 -0.9,-0.601 -0.6,-0.899 v -2.101 l -0.299,-0.601 2.999,-2.999 h 1.5 v -1.5 l -0.899,-0.602 -0.601,-0.898 -0.599,0.898 -0.901,0.602 h -1.499 v -3.001 l 0.899,-0.6 0.6,-0.601 v -1.499 l 0.6,-0.9 0.9,-0.6 v -1.5 l -1.2,0.599 -0.9,0.302 -0.899,0.6 v -1.5 h -1.501 l 1.501,-1.5 v -4.2 h -1.501 v -3 l -0.9,-0.601 -1.8,-2.699 -0.6,-1.2 v -1.201 h -1.499 l -0.601,-0.898 -0.9,-0.601 h -1.2 l -0.9,0.601 -0.6,0.6 v 1.5 l -0.899,-0.3 -0.601,-0.3 -0.9,-0.3 -0.6,-0.601 -0.9,-0.6 -0.599,-0.601 0.599,-0.9 0.9,-0.6 v -1.5 l 0.6,-1.8 0.6,-0.6 0.6,-1.802 0.6,-0.898 0.3,-0.6 -0.599,-0.901 -0.301,-0.599 -0.6,-0.9 -0.6,-0.6 -0.3,-0.9 -0.599,-0.6 h -1.501 l -0.3,0.899 -0.599,0.9 -0.601,1.2 -0.6,-0.9 -0.9,-0.6 -0.599,-0.9 -0.901,-0.6 h -1.499 l -1.801,-1.801 -0.599,-0.9 -1.201,-1.2 -0.9,-0.599 -0.599,-0.301 -0.901,-0.6 -0.6,-0.6 -0.899,-0.301 -0.601,-0.6 -0.9,-0.6 -2.1,-2.101 -0.9,-0.601 h -1.5 l -0.299,-0.899 -0.301,-0.6 -0.3,-0.901 -0.599,-0.599 h -1.501 v 0.599 l 0.301,0.901 h -3.001 l -0.899,0.6 -0.601,0.601 v 1.498 h -4.5 l -0.6,0.901 -0.9,0.601 h -2.7 l -4.499,-1.502 h -9.001 v -2.998 l -4.499,1.5 v -3 l 0.898,-0.601 0.9,-0.3 1.2,-0.6 1.5,-1.502 h 1.8 l 0.9,0.302 h 3 v -1.501 l -0.6,-0.6 -0.3,-0.601 -0.599,-0.299 h -3.001 l -0.6,-0.3 -0.9,-0.602 -0.599,-0.299 -0.901,-0.3 v -1.5 h 1.5 v -1.5 h 4.501 l 2.699,-2.701 v -1.499 l 1.5,-1.5 v -1.5 h -4.5 v -1.5 l -0.898,-0.6 -0.602,-0.901 v -1.499 h -1.5 l -0.9,-0.6 -3.6,-3.601 h 1.501 v -1.5 l 0.899,-0.6 0.9,-0.3 0.9,-0.602 -1.499,-1.499 v -1.5 l -1.501,-1.5 v -1.2 h 1.501 v -1.5 l -0.901,-0.301 -0.6,-0.599 -0.899,-0.3 -0.601,-0.301 -1.5,-1.501 v -1.499 l 0.3,-0.6 0.3,-0.9 0.301,-0.601 0.299,-0.899 -0.6,-0.6 -0.9,-0.6 1.5,-1.5 0.901,0.3 0.599,0.3 0.9,0.3 0.6,0.601 v -1.5 h 1.501 v -1.502 h 4.499 l 1.5,1.502 v -1.502 l 0.6,0.901 0.901,0.601 0.599,-0.601 0.602,-0.901 h 1.5 v -1.498 l 0.898,-0.601 0.6,-0.899 0.901,-0.602 0.599,-0.599 h 1.5 l 0.6,-1.2 0.3,-0.901 1.2,-1.799 0.901,-0.602 0.599,-0.599 0.601,-0.899 v -1.5 l -1.501,-1.5 v -2.7 l 0.6,-0.9 0.901,-0.601 0.599,-0.899 0.9,-0.6 h 15 l 0.6,0.9 0.9,0.599 0.601,0.301 0.899,0.601 0.6,0.298 0.9,0.302 h 1.501 v -1.501 h 4.199 l 0.9,0.901 0.9,0.6 h 2.701 l 0.299,0.898 v 3.602 l -1.2,0.6 -0.9,0.301 -0.9,0.599 v 1.501 h -1.5 v 7.198 h 1.5 v 1.502 h 1.501 l 0.899,-0.601 0.6,-0.901 v -1.498 h 3 v -1.5 h 0.9 l 0.6,0.3 v 1.2 h 1.501 v 1.498 l 1.499,1.502 v 1.5 h -1.499 v 1.5 l -0.601,0.599 -0.599,0.901 v 1.498 h 1.499 l 1.5,1.502 0.602,0.3 0.898,0.599 0.6,0.302 0.901,0.6 0.599,0.6 0.901,0.301 0.599,0.898 0.9,0.602 v 1.5 h -1.499 v 8.699 l -0.602,0.9 -0.898,0.599 h -2.701 v 1.501 h 7.2 l 1.5,1.5 v 1.5 l 0.9,0.599 3.9,3.901 h 2.7 l 0.9,0.601 0.602,0.899 v 0.601 l 0.299,0.6 h 1.201 v 0.898 l 0.299,0.602 0.901,-0.3 0.899,-0.6 0.9,-0.301 v 1.2 h 3.001 v 1.5 l 1.5,1.5 h 1.499 v 4.5 l 0.3,0.599 v 0.901 l -0.9,0.601 -0.6,0.899 -0.9,0.601 -2.099,2.099 -0.901,0.601 -1.2,0.301 -0.9,0.6 h -3 l -1.499,1.5 v 1.8 l 0.299,0.9 -1.499,1.5 h -4.501 v 1.498 l -0.9,2.702 -0.3,0.6 -0.3,0.9 h 1.5 l 3,3 v 3 l 1.2,1.8 0.301,1.2 v 2.399 l 0.298,0.9 v 0.898 h 1.2 l 0.901,0.302 0.599,0.6 0.901,0.3 0.599,0.3 h 4.5 v 4.5 h 1.5 l 0.901,0.601 0.599,0.898 h 1.5 l 0.9,0.602 0.602,0.6 -1.501,4.5 v 4.2 h 1.2 l 0.9,0.299 h 0.9 v 1.2 h 1.5 v 1.501 l -0.599,0.898 -0.901,0.602 h -1.2 l -0.9,0.599 -0.599,0.901 -0.901,0.6 -0.6,0.9 -0.898,0.6 -0.602,0.601 0.602,0.899 0.898,0.599 h 4.5 l 0.602,0.901 0.898,0.601 v 3 l 1.5,1.5 -0.898,0.6 -2.102,2.099 v 1.502 l 1.5,1.5 v 1.5" style="fill:#1f1f1f;stroke:white;stroke-width:1.20000005000000010;stroke-linejoin:bevel"/>
    <path id="path5342" d="m 501.182,180.605 h -3 l -0.9,-0.3 h -0.898 l -0.602,0.9 -0.9,0.6 -0.3,0.9 -0.3,0.599 -0.6,0.901 -0.301,0.6 -0.599,0.899 -0.901,0.601 v 1.5 l -1.5,1.5 h -1.498 v 1.499 l -1.502,1.501 h -4.799 l -0.301,-0.9 -0.6,-1.2 -0.3,-0.9 h -3.301 l -1.5,1.499 h -1.498 l -0.602,-0.899 -0.9,-0.6 h -1.5 l -0.599,0.6 -0.901,0.6 -0.6,0.9 -0.9,0.599 h -3 v -2.999 l -1.5,-1.5 h -1.5 v -1.5 l 0.6,-0.9 0.302,-0.9 0.599,-1.2 0.9,-0.6 0.6,-0.9 v -1.5 l -1.5,-1.5 v -1.501 h -1.5 l -1.5,-1.499 h -1.498 l -0.602,0.9 -0.9,0.599 h -1.5 l -0.599,0.901 -1.802,1.2 -0.6,0.9 v -1.5 h -1.498 l 0.598,-0.9 0.301,-1.2 0.6,-0.9 1.5,-1.5 v -1.5 h -2.998 l -0.902,0.6 -0.6,0.9 -3,-3 v -4.5 h -1.5 l -1.498,-1.5 v -3.001 l -1.502,-1.499 -0.898,-0.3 h -0.602 l -0.599,1.2 -0.601,0.9 -0.301,0.899 -1.498,1.501 h -1.5 v -9.001 h -4.502 l -0.9,-0.299 -0.598,-0.6 -0.902,-0.301 -0.598,-0.299 -1.502,-1.5 v -1.5 l 0.6,-0.9 0.902,-0.6 h 1.5 v -1.501 h 2.998 l 0.9,0.301 0.9,0.6 1.799,0.6 1.201,0.6 2.699,0.9 h 0.9 l 0.6,0.3 h 1.502 v -1.5 l 1.498,-1.5 v -1.501 l 1.5,-1.499 h 1.801 l 0.6,-0.901 0.9,-0.599 0.6,-0.9 0.9,-0.6 0.6,-0.9 0.9,-0.6 -1.5,-1.501 h -1.5 v -1.499 l 0.6,-0.901 0.9,-0.599 1.5,1.5 0.9,-0.3 0.6,-0.3 0.899,-0.6 0.601,-0.3 v -6 l -0.301,-0.901 -0.599,-1.199 -0.601,-0.9 h 4.799 l 0.601,-0.3 0.899,-0.6 0.602,-0.6 0.898,-0.301 0.9,-0.599 0.602,-0.3 v -1.501 h -0.901 l -1.2,-0.299 h -0.9 l -0.899,-0.6 -0.601,-0.9 h 1.5 l 0.9,-0.3 0.6,-0.3 0.9,-0.3 0.602,-0.3 v -6 h 1.799 l 1.5,1.499 h 3.001 l 1.499,-1.499 0.6,-0.9 0.301,-0.9 0.6,-0.602 0.3,-0.898 0.601,-0.9 0.299,-0.9 0.601,-0.901 v -4.499 l 0.601,-0.9 0.299,-0.901 0.602,-1.2 v -1.499 l -0.602,0.9 -0.899,0.599 v -2.999 l 0.899,-0.6 0.602,-0.9 0.898,0.3 h 0.9 l 2.7,-0.901 1.2,-0.299 0.899,-0.3 1.5,-1.5 h 2.101 l 0.901,0.3 -0.302,-1.5 -0.6,-0.301 -0.9,-0.299 -0.599,-0.6 -0.901,-0.3 -0.6,-0.9 -0.9,-0.602 -0.3,-1.499 v -4.5 l 0.3,-0.9 v -0.9 l 0.3,-0.901 v -0.899 l 0.301,-0.9 v -2.4 l 0.3,-0.9 v -2.1 l -1.5,-1.501" style="fill:#1f1f1f;stroke:white;stroke-width:1.20000005000000010;stroke-linejoin:bevel"/>
    <path id="path5350" d="m 307.982,485.405 0.901,-0.6 2.099,-2.1 v -1.5 l -1.5,-1.5 v -1.502 l 2.101,-2.099 0.899,-0.6 -1.5,-1.5 v -1.5 l 2.1,-2.101 1.8,-2.699 0.301,-0.9 h 5.999 v -3 h 2.701 l 0.899,0.599 0.6,0.302 0.9,0.3 0.6,0.3 1.5,1.5 v 3 h 3 l 0.899,-0.6 0.601,-0.901 -1.5,-1.499 h 1.5 l 0.899,-0.3 1.2,-0.601 0.9,-0.3 h 1.5 v -4.5 l 0.6,-0.6 0.6,-0.901 v -7.199 h 3.002 l 1.498,1.5 v 1.5 h 3 l 1.502,-1.5 h 2.998 l 0.901,-0.3 0.899,-0.6 0.899,-0.3 0.899,-0.602 1.801,-0.599 0.9,-0.601 0.6,-0.3 0.9,-0.3 0.899,-0.6 1.5,-1.502 h 1.5 v 1.502 l 0.302,0.899 0.598,1.2 0.601,0.9 v 2.998 h 1.501 l 0.6,-0.898 0.899,-0.6 h 1.2 v 0.899 l 0.3,0.9 v 2.399 h 2.101 l 0.6,0.301 v 1.199 l 0.602,1.2 0.598,0.899 0.301,0.9 h 1.501 l 1.499,1.499 0.9,0.602 0.6,0.899 h 1.5 v -1.501 l -0.6,-0.898 -0.299,-0.9 -0.602,-1.2 0.602,-0.601 0.898,-0.599 h 1.5 v 1.199 l 0.301,0.9 0.6,0.6 0.601,0.9 0.299,0.599 0.601,0.901 0.6,0.6 h 2.699 l 0.902,-0.6 1.799,-2.7 0.299,-0.899 h 3 v 2.698 l 0.601,0.901 0.899,0.6 0.601,0.601 0.899,0.3 0.602,0.299 0.898,0.301 0.601,0.899 0.901,0.601 h 2.699 l 1.5,1.5 h 7.5 l 0.6,-0.6 0.9,-0.6 -0.9,-0.301 h -0.6 l -0.9,-0.601 -0.6,-0.599 h -1.5 v -4.502 l -1.5,-1.498 v -1.5 h 4.5 l 0.6,0.3 h 0.9 l 0.601,0.6 0.899,0.601 h 1.799 l 0.902,0.298 0.898,0.602 0.602,0.599 h 1.498 l 0.901,-0.599 0.599,-0.602 0.9,0.302 1.199,0.6 0.902,0.601 h 8.698 l 4.5,1.5 -0.899,0.6 -0.601,0.9 -0.601,0.599 -0.898,0.602 v 1.5 l 1.499,1.498 h 7.201 v 1.502 h -1.2 l -0.301,0.899 v 0.601 h 4.5 l 0.602,0.898 0.299,1.2 0.6,0.901 1.5,1.498 0.301,0.901 1.2,1.8 -1.501,1.5 -1.2,1.801 -0.3,1.199 -0.898,0.601 -0.602,0.6 0.602,0.9 0.898,0.6 -1.5,1.499 v 7.201 l -1.5,1.499 1.5,1.501 h 1.5 l -0.898,0.6 -0.602,0.9 -0.9,0.599 -0.6,0.602 v 1.5 l -1.2,0.599 -0.899,0.301 -1.799,1.2 -0.602,0.898 0.602,0.901 0.299,0.9 0.6,0.9 -1.5,1.5 v 1.5 l -0.898,0.599 -0.602,0.901 v 1.199 l -0.6,1.2 -0.301,0.9 -0.6,0.899 v 1.5 l -0.6,0.899 -0.301,0.901 -0.599,0.899 h -1.501 v -2.7 h -2.7 v -1.5 h -7.5 v 1.199 h -4.2 l -0.9,-0.599 -0.598,-0.9 h -1.5 l -1.502,1.499 0.6,0.901 0.902,0.6 h 1.5 l 1.498,1.5 v 4.2 h -6 l -1.5,1.499 v 2.701 l -0.6,0.898 -0.898,0.602 h -1.5 l -0.602,0.899 -0.6,0.601 -0.9,0.599 -0.6,0.901 v 1.2 l 0.6,0.899 0.9,0.599 v 3.123" style="fill:#1f1f1f;stroke:white;stroke-width:1.20000005000000010;stroke-linejoin:bevel"/>
    <path id="path5358" d="m 207.783,131.705 0.599,0.9 0.3,0.9 0.6,0.9 0.901,2.699 1.799,1.801 v 1.5 l 0.9,0.6 0.9,0.9 1.8,0.6 1.2,0.3 2.7,0.9 h 3.9 v 1.5 h -1.5 l -0.9,0.599 -0.6,0.901 -0.9,-0.6 -0.599,-0.301 -0.901,-0.299 -0.9,-0.6 -0.9,-0.301 -0.6,-0.299 -0.9,-0.6 -0.9,-0.3 h -1.5 l -0.899,0.6 -1.2,0.3 -0.901,0.6 -3.6,3.6 -0.599,0.9 1.5,1.5 h 4.8 v 1.5 l -0.601,0.899 -0.9,0.601 0.9,0.9 0.9,0.6 v 1.8 l 0.901,0.6 0.599,0.9 h 3.301 v 1.5 h -1.501 v 2.999 h -3 l -1.5,1.501 h -1.499 l 0.899,0.6 0.6,0.9 h -1.499 l -1.501,1.5 v -1.5 h -0.6 l -0.9,-0.3 -0.6,0.9 -0.9,0.6 -0.599,0.899 -0.901,0.601 0.3,1.2 v 5.1 h -1.5 l -0.6,0.599 -0.6,0.901 -0.9,-0.3 h -0.9 l 0.301,0.9 v 0.899 h 1.499 v 3.601 l 0.3,0.9 h 4.5 l 0.6,0.9 0.9,0.6 v 1.499 l 0.901,0.901 0.899,0.6 v 6.3 l 0.301,0.6 v 0.9 l 0.299,0.6 0.3,0.9 0.602,0.599 0.299,0.901 v 3 h 1.5 l 0.9,0.898 0.9,0.602 v 1.5 l -0.6,1.2 -0.3,0.9 -1.2,1.8 -0.9,0.6 -0.599,0.898 -0.901,0.602 0.3,0.9 v 2.1 l 0.602,0.9 0.898,0.599 h 1.501 l 0.898,-0.299 1.2,-0.6 0.9,-0.301 h 4.501 l -1.501,1.501 h -1.5 l -0.9,0.3 -0.899,0.599 -1.2,0.601 v 1.5 l 0.599,0.6 0.3,0.9 0.301,0.6 0.599,0.899 -0.9,0.601 -0.6,0.9 -0.9,0.6 -0.6,0.9 h -1.499 l -1.801,-1.801 -0.599,-0.899 -0.601,-0.6 -0.9,-0.6 -2.399,-2.4 -0.901,0.6 -0.9,0.3 -1.2,0.6 v 2.1 l 0.3,0.899 -1.2,0.601 -0.898,0.3 -0.901,0.6 0.6,0.898 0.9,0.602 v 1.5 l -0.9,0.3 -1.2,0.299 -0.9,0.301 h -0.9 l -1.2,0.3 -0.9,0.3 h -7.5 l -1.5,-1.5 -0.9,-0.3 h -5.1 l -1.5,1.5 v 1.5 h -1.5 v -1.5 h -10.499 l -0.601,-0.9 -0.9,-0.6 h -3 l -2.1,2.099 -0.6,0.901 -1.2,0.299 -1.8,1.2 -0.6,0.601 -0.298,0.9 -0.602,0.6 -0.3,0.9 -0.6,0.6 -0.3,0.9 v 1.5 l -0.899,0.6 -0.601,0.899 -1.5,1.501 h -3 l -0.6,0.6 -0.6,0.9 v 3 l 0.301,0.6 0.299,0.899 0.6,0.601 0.301,0.9 v 3 l -1.501,1.5 v 1.499 l 0.9,0.601 0.601,0.9 0.899,0.6 0.6,0.9 -1.499,1.5 v 1.5 h -1.2 l -0.901,0.6 -0.599,0.899 h -1.501 l -4.499,1.501 h -2.7 v 1.5 h -1.501 l -0.899,-0.6 -1.2,-0.3 -0.901,-0.6 h -4.199 v 1.5 l -0.602,0.899 -1.798,1.2 -0.901,0.301 -0.9,0.6 h -2.7 l -1.2,-1.2 h -2.7 l -1.5,1.499 -0.6,0.901 -0.899,0.9 h -2.101 l -0.9,0.3 h -1.2 l -1.2,0.299" style="fill:#1f1f1f;stroke:white;stroke-width:1.20000005000000010;stroke-linejoin:bevel"/>
    <path id="path5362" d="m 483.482,72.004 1.5,1.501 v 2.1 l -0.3,0.9 v 2.4 l -0.301,0.9 v 0.899 l -0.299,0.901 v 0.9 l -0.301,0.9 v 4.5 l 0.301,1.499 0.899,0.602 0.6,0.9 0.901,0.3 0.599,0.6 0.9,0.299 0.6,0.301 0.302,1.5 -0.901,-0.3 h -2.101 l -1.5,1.5 -0.899,0.3 -1.2,0.299 -2.7,0.901 h -0.9 l -0.898,-0.3 -0.602,0.9 -0.899,0.6 v 2.999 l 0.899,-0.599 0.602,-0.9 v 1.499 l -0.602,1.2 -0.299,0.901 -0.601,0.9 v 4.499 l -0.601,0.901 -0.299,0.9 -0.601,0.9 -0.3,0.898 -0.6,0.602 -0.301,0.9 -0.6,0.9 -1.499,1.499 h -3.001 l -1.5,-1.499 h -1.799 v 6 l -0.602,0.3 -0.9,0.3 -0.6,0.3 -0.9,0.3 h -1.5 l 0.601,0.9 0.899,0.6 h 0.9 l 1.2,0.299 h 0.901 v 1.501 l -0.602,0.3 -0.9,0.599 -0.898,0.301 -0.602,0.6 -0.899,0.6 -0.601,0.3 h -4.799 l 0.601,0.9 0.599,1.199 0.301,0.901 v 6 l -0.601,0.3 -0.899,0.6 -0.6,0.3 -0.9,0.3 -1.5,-1.5 -0.9,0.599 -0.6,0.901 v 1.499 h 1.5 l 1.5,1.501 -0.9,0.6 -0.6,0.9 -0.9,0.6 -0.6,0.9 -0.9,0.599 -0.6,0.901 h -1.801 l -1.498,1.499 v 1.501 l -1.5,1.5 v 1.5 h -1.502 l -0.6,-0.3 h -0.9 l -2.699,-0.9 -1.201,-0.6 -1.799,-0.6 -0.9,-0.6 -0.9,-0.301 h -2.998 v 1.501 h -1.5 l -0.902,0.6 -0.6,0.9 v 1.5 l 1.502,1.5 0.598,0.299 0.902,0.301 0.598,0.6 0.9,0.299 h 4.502 v 9.001 l -4.502,1.5 h -1.8 v 3 l -0.601,0.9 -0.899,0.599 -0.601,-0.899 -0.899,-0.6 v -1.5 l -0.599,-0.9 -0.901,-0.6 h -3.899 l -0.9,0.3 -1.2,0.3 -1.799,0.6 h -2.701 l -1.5,-1.5 v -1.501 h -3 l -0.601,0.901 -0.898,0.6 -1.501,-1.501 h -1.5 l -1.5,1.501 h -1.5 l -0.601,-0.9 -0.898,-0.602 v -2.999 h -1.501 v 2.999 l -0.899,0.602 -0.601,0.9 h -1.5 l -1.5,-1.501 v -4.8 l 0.601,-0.599 0.899,-0.6 -0.899,-0.3 h -3.601 v -1.5 l 1.501,-1.5 v -1.5 h 3.6 l 0.899,0.3 0.601,-1.2 0.299,-0.9 0.601,-0.9 h 1.501 v -1.501 h -1.501 l -0.899,0.301 -1.201,0.6 -0.899,0.3 h -2.999 v -4.5 l -0.602,0.898 -0.899,0.602 -1.5,1.5 -0.899,-0.6 -0.601,-0.9 1.5,-1.5 v -1.501 l 0.899,-0.599 0.601,-0.9 v -1.5 l -0.601,-0.6 -0.598,-0.9 -0.902,-0.602 -3.299,-3.299 -0.6,-0.9 -0.9,-0.6 -0.601,-0.6 v -3 l 1.501,-1.501 h 1.499 l 1.5,-1.499 -0.599,-0.9 -0.901,-0.6 h -2.101 l -0.899,-0.3 h -3 l -0.599,0.9 -0.901,0.6 h -4.5 l -1.5,-1.5 -0.899,0.599 -0.601,0.901 -0.899,0.3 -0.6,0.3 -0.9,0.3 -0.9,0.6 v -0.9 l 0.3,-0.6 h -1.8 l -0.301,-0.901 -0.298,-1.2 -0.901,-2.699 0.3,-0.6 v -0.9" style="fill:#1f1f1f;stroke:white;stroke-width:1.20000005000000010;stroke-linejoin:bevel"/>
    <path id="path5366" d="m 348.782,130.205 0.899,0.3 4.5,4.5 h 4.802 l 0.599,0.9 0.9,0.6 -0.6,1.2 -0.601,0.9 -0.299,0.899 v 3.001 h 1.499 l -0.6,1.2 -0.601,0.899 -0.299,0.901 h 1.499 l 0.6,0.299 h 0.9 l 1.5,1.501 v 1.5 h 1.5 v 1.5 l -0.898,0.6 -0.602,0.9 -0.898,0.6 -0.602,0.899 v 1.501 h 1.5 l 1.5,1.5 -0.898,0.599 -0.602,0.901 h -1.5 v 1.5 l -0.9,0.6 -0.6,0.899 -0.9,0.601 -0.599,0.9 h -3.899 l -0.602,-0.301 v 1.801 l -1.2,0.3 -0.899,0.6 -0.899,0.3 v 1.5 l 0.599,0.9 0.9,0.899 v 1.501 l 0.3,0.6 0.601,0.9 0.6,0.599 0.3,0.901 0.601,0.6 0.6,0.9 -0.898,0.6 -0.602,0.899 h -1.5 v 3.001 h -1.499 l -0.901,-0.601 -0.6,-0.299 -0.898,-0.3 -0.602,-0.3 -0.898,0.6 -0.602,0.6 h -1.5 v 3 l -1.499,1.5 v 1.499 h -1.501 l -0.898,0.601 -0.602,0.599 -0.898,0.301 -0.602,0.6 -0.9,0.6 -0.6,0.3 h -3 l -1.5,1.5 v 4.5 l -1.5,4.5 v 1.499 h 1.5 l 1.5,-1.499 0.6,0.9 0.901,0.599 v 1.501 l -0.601,0.898 -0.301,1.201 -0.6,0.9 1.501,1.5 h 1.499 v 1.499 l -0.6,0.901 -0.899,0.6 -0.302,0.898 -0.6,1.201 -0.6,0.9 -4.5,1.5 v 1.499 l 0.9,0.601 0.6,0.9 -0.9,0.3 -0.898,0.599 -1.2,0.602 v 1.5 h 2.999 l 1.5,-1.5 v -1.5 h 3.001 v 3 h -1.501 l -1.5,1.5 0.3,0.9 v 2.1 l -0.899,0.6 -0.601,0.9 3.001,3 0.6,0.299 0.899,0.301 0.601,0.3 0.899,0.599 v 3.001 h -4.5 l -0.899,-0.3 h -6.601 l -0.9,-0.301 -0.6,-0.299 -0.899,-0.6 -0.601,-0.301 h -6 v -1.499 l -2.099,2.1 -0.602,0.9 -0.599,0.6 -0.601,0.9 -0.599,0.6 -0.601,0.9 -0.3,0.599 -0.6,0.901 -0.9,0.6 -0.6,0.899 -0.899,0.601 -0.601,0.9 -0.9,0.6 -0.6,0.6 h -1.499 v -4.2 h -0.901 l -0.6,-0.3 h -9.3 v -1.5 l 1.2,-1.8 0.3,-1.201 v -2.999 l -0.6,-0.3 -0.9,-0.301 -0.599,-0.299 -0.901,-0.6 h -1.499 v -3.001 l -0.901,-0.599 -0.6,-0.9 1.501,-4.5 -0.301,-0.9 v -2.1 l -1.5,-1.5 0.9,-0.601 0.6,-0.599 -0.6,-0.9 -0.9,-0.9 h -1.5 l -0.599,0.9 -0.901,0.6 h -1.499 l -1.501,-1.5 v -1.501 h 1.501 v -2.999 h 1.499 l -0.9,-0.601 -0.599,-0.899 -0.901,-0.301 -0.6,-0.299 -0.899,-0.6 -5.401,-1.801 -0.6,-0.299 -0.9,-0.6 -0.599,-0.301 -0.901,-0.299 -1.5,-1.5 0.6,-0.9 0.9,-0.6 0.6,-0.9 0.9,-0.6 -1.5,-1.501 -0.9,-0.299 -0.6,-0.6 -1.8,-0.6 h -1.5 l -0.599,-0.901 -0.901,-0.899 0.901,-0.6 0.599,-0.6 h 1.5 l 1.501,-1.5 v -1.501 h -0.602 l -0.9,-0.299 0.6,-0.901 0.3,-0.899 0.602,-1.2 v -3 h 1.5 l 0.599,0.3 h 2.4 v -3 l 0.602,-0.901 0.898,-0.599 -1.8,-1.801 -0.6,0.901 -0.899,0.6 v -1.501 h -1.501 v -2.999 h 1.501 v -1.5 l -0.901,-0.601 -0.6,-0.899 1.501,-1.501 h 6.899 l 0.601,0.301 2.999,-3.001 h 3 v 0.602 l 0.301,0.9 1.499,1.5 h 6.001 v -1.5 l -0.901,-0.3 -0.599,-0.6 -0.901,-0.3 -0.6,-0.301 h -1.5 v -0.898 l -0.3,-0.6 1.5,-1.5 -0.599,-0.9 -0.901,-0.6 h -1.499 v -4.8 h -1.501 v -1.5 l -0.9,-0.6 -0.9,-0.901 v -5.999 h 3 v 1.5 h 1.501 l 0.599,-0.9 0.3,-0.901 0.6,-1.2 v -5.399 l -0.299,-1.2 v -2.4 l -0.602,-0.9 -0.9,-0.6 v -4.501 l 0.6,-0.899 0.901,-0.6 v -1.5 l -0.901,-0.6 -1.2,-0.6 -0.9,-0.3 0.601,-0.9 0.899,-0.6 h 1.501 l 2.999,-3 v -0.9 l 0.3,-1.2 v -2.4" style="fill:#1f1f1f;stroke:white;stroke-width:1.20000005000000010;stroke-linejoin:bevel"/>
    <path id="path5370" d="m 499.982,384.306 v 2.1 l -0.3,0.6 -0.9,0.601 -0.9,0.3 -0.899,0.601 v 1.5 l -1.2,0.6 -0.9,0.3 -0.898,0.601 v 1.5 l 1.2,1.2 -0.602,0.899 -0.899,0.599 h -2.7 v 1.502 l -0.899,0.6 -0.601,0.9 -0.9,0.6 -0.6,0.9 h -1.499 v 1.2 l -1.501,1.5 v 3 l -0.899,0.6 -0.601,0.9 v 1.5 h 4.201 l 0.898,0.599 0.601,0.901 v 1.498 l -0.601,-0.299 h -3.899 v 1.5 l -0.9,0.601 -0.9,0.3 -1.199,0.599 v 1.501 l -2.101,2.099 -0.9,0.602 h -4.199 l -1.2,0.599 -0.899,0.302 -0.899,0.6 v 4.5 h -1.501 l -0.898,0.601 -0.602,0.6 -9,3 h -2.999 l -0.601,0.599 -0.9,0.602 -0.6,-0.602 -0.601,-0.898 v -1.2 l -1.5,-4.5 h -3 l -1.499,-1.5 -0.602,-0.9 -0.299,-0.899 -0.601,-1.2 v -2.701 l -0.601,-0.898 -0.899,-0.601 -0.601,-0.6 -0.899,-0.3 -1.2,-0.601 -2.998,-3 h -3.002 v -3 l 1.502,-1.5 v -7.2 h 1.5 l -1.5,-1.5 v -1.5 h -3.002 l -2.998,-3.001 -0.302,-0.898 -1.198,-1.802 -0.902,-0.299 -0.6,-0.3 -2.699,-0.899 h -1.5 l -0.9,0.6 -0.6,0.6 v 1.5 h -1.5 v -1.5 h -1.5 v 1.5 h -1.5 l -0.9,-0.6 -0.6,-0.9 h -3 l -1.5,-1.5 0.899,-0.601 0.601,-0.899 -0.601,-0.6 -0.899,-0.6 -0.601,-0.302 h -0.899 v -1.198 h 1.5 v -3 l -0.601,-0.901 -0.899,-0.599 v -4.502 l -0.6,-0.299 -0.9,-0.3 -0.601,-0.3 -0.899,-0.6 h -1.5 l -1.5,-1.5 0.899,-0.602 3.601,-3.599 0.9,0.6 0.6,0.9 0.899,0.6 0.601,0.9 h 3 v -3 l -1.5,-1.501 v -2.999 h -1.5 v -4.2 l 1.5,-1.501 v -5.999 h -1.5 v -2.701 l -0.601,-0.898 -0.899,-0.601 -0.6,-0.6 -0.9,-0.3 -0.601,-0.301 -0.899,-0.3 v -3 l 0.899,-0.6 0.601,-0.901 h 1.5 l 0.899,0.301 0.601,0.601 0.899,0.299 0.601,0.301 0.899,-0.6 0.601,-0.901 h 3 l 0.601,-0.599 0.899,-0.602 h 7.5 v 3.001 l 1.5,1.5 h 4.5 l 0.601,-0.901 0.899,-0.599 v -1.5 l -1.5,-1.501 h -1.5 v -1.499 h -1.5 v -1.5 l 0.299,-0.6 0.601,-0.9 0.601,-0.601 0.299,-0.899 1.201,-1.199 h 1.5 l -1.5,-1.5 v -3 l 0.601,-0.901 0.899,-0.599 h 1.5 l 0.6,0.899 0.9,0.601 h 1.201 v -3 l 1.199,-0.302 0.898,-0.599 0.9,-0.3 v -4.5 h -1.5 v -7.5 h 1.5 l 0.9,-0.601 0.6,-0.899 v -4.2 l -0.3,-1.2 -1.2,-1.8 h -1.5 v -1.5 l 1.5,-1.5 h 1.5 l 0.9,-0.602 0.602,-0.898 v -1.501 l 0.898,-0.599 0.602,-0.9 -0.602,-0.3 -0.898,-0.3 -0.602,-0.301 -0.9,-0.599 v -1.2 l 1.502,-1.5 h 2.998 v -3.001 l -0.6,-0.899 -0.898,-0.6 v -1.5 l 0.898,-0.6 0.6,-0.9 h 3 l 4.5,1.5 3,2.999 v 1.501 l 0.9,-0.6 0.602,-0.901 h 1.5 l 0.898,0.601 0.6,0.3 0.901,0.298 0.599,0.301 v 5.999 h 1.5 l 0.9,-0.599 0.602,-0.9 v 1.499 h 1.5 l 0.898,-0.299 1.199,-0.6 0.9,-0.6 v 3 l 0.602,0.899 0.898,0.601 0.6,0.9 0.902,0.6 0.598,0.3 0.902,0.6 0.598,0.3 0.9,0.3 h 4.501 v 4.5 l -1.501,1.5 h -1.5 v 1.5 l 1.5,1.499 h 1.501 v -2.999 l 0.6,0.899 0.9,0.601 v 1.499 l 1.499,1.501 0.3,0.899 0.602,0.9 0.599,1.2 h 1.5 v -1.5 l 0.601,-0.899 0.9,-0.601 h 1.5 l 0.6,0.899 0.899,0.601" style="fill:#1f1f1f;stroke:white;stroke-width:1.20000005000000010;stroke-linejoin:bevel"/>
    <path id="path5374" d="m 198.203,462.162 3.28,-1.057 0.899,-0.6 0.9,-0.3 v -4.502 h 3 l 0.301,-0.898 0.599,-0.9 0.601,-1.199 v -0.602 l -0.301,-0.599 h -1.2 l -1.5,-1.5 -0.899,-0.602 -0.601,-0.599 -0.9,-0.3 -0.6,-0.601 -0.9,-0.3 -0.599,-0.601 v -1.499 l -0.301,-0.601 v -0.899 l 0.9,-0.601 2.1,-2.1 4.5,-1.5 0.6,-0.6 0.6,-0.901 v -1.499 l 0.9,-0.3 1.2,-0.601 0.9,-0.3 0.3,-1.201 1.2,-1.799 v -0.899 l -0.3,-1.2 v -2.4 h 1.5 l 1.5,1.499 0.9,-0.599 0.6,-0.601 0.6,-1.199 0.3,-0.9 0.601,-0.9 h -4.501 l -1.5,-1.5 v -3 l -0.9,-0.6 -0.599,-0.901 h 5.699 l 0.9,-0.599 0.6,-0.602 h 9.001 l 4.499,1.502 h 2.7 l 0.9,-0.601 0.6,-0.901 h 4.5 v -1.498 l 0.601,-0.601 0.899,-0.6 h 3.001 l -0.301,-0.901 v -0.599 h 1.501 l 0.599,0.599 0.3,0.901 0.301,0.6 0.299,0.899 h 1.5 l 0.9,0.601 2.1,2.101 0.9,0.6 0.601,0.6 0.899,0.301 0.6,0.6 0.901,0.6 0.599,0.301 0.9,0.599 1.201,1.2 0.599,0.9 1.801,1.801 h 1.499 l 0.901,0.6 0.599,0.9 0.9,0.6 0.6,0.9 0.601,-1.2 0.599,-0.9 0.3,-0.899 h 1.501 l 0.599,0.6 0.3,0.9 0.6,0.6 0.6,0.9 0.301,0.599 0.599,0.901 -0.3,0.6 -0.6,0.898 -0.6,1.802 -0.6,0.6 -0.6,1.8 v 1.5 l -0.9,0.6 -0.599,0.9 0.599,0.601 0.9,0.6 0.6,0.601 0.9,0.3 0.601,0.3 0.899,0.3 v -1.5 l 0.6,-0.6 0.9,-0.601 h 1.2 l 0.9,0.601 0.601,0.898 h 1.499 v 1.201 l 0.6,1.2 1.8,2.699 0.9,0.601 v 3 h 1.501 v 4.2 l -1.501,1.5 h 1.501 v 1.5 l 0.899,-0.6 0.9,-0.302 1.2,-0.599 v 1.5 l -0.9,0.6 -0.6,0.9 v 1.499 l -0.6,0.601 -0.899,0.6 v 3.001 h 1.499 l 0.901,-0.602 0.599,-0.898 0.601,0.898 0.899,0.602 v 1.5 h -1.5 l -2.999,2.999 0.299,0.601 v 2.101 l 0.6,0.899 0.9,0.601 0.602,0.898 0.898,0.602 0.6,0.599 0.6,0.901 0.301,0.6 v 5.1 h 1.5 l 0.599,-0.6 0.601,-0.9 v -1.199 l 0.899,0.6 0.6,0.6 v 2.399 l 0.3,1.2 v 0.9 l 1.2,0.601 0.9,0.6 0.6,0.299 4.5,-0.648" style="fill:#1f1f1f;stroke:white;stroke-width:1.20000005000000010;stroke-linejoin:bevel"/>
    <path id="path5378" d="m 427.081,282.306 0.9,0.6 0.6,0.9 4.5,-1.5 0.901,0.3 0.599,0.3 0.9,0.6 0.6,0.3 v 1.5 h 1.502 l 1.498,-1.5 v 1.5 l 1.201,-0.6 0.898,-0.301 0.9,-0.599 0.9,0.3 0.6,0.299 0.9,0.602 0.602,0.3 h 1.498 v 1.5 l 0.9,0.6 0.6,0.898 v 3.001 h -2.998 l -1.502,1.5 v 1.2 l 0.9,0.599 0.602,0.301 0.898,0.3 0.6,0.3 -0.6,0.9 -0.898,0.599 v 1.501 l -0.602,0.898 -0.9,0.602 h -1.5 l -1.5,1.5 v 1.5 h 1.5 l 1.2,1.8 0.3,1.2 v 4.199 l -0.6,0.9 -0.9,0.6 h -1.5 v 7.5 h 1.5 v 4.5 l -0.9,0.301 -0.898,0.599 -1.201,0.302 v 2.999 h -1.199 l -0.9,-0.6 -0.6,-0.9 h -1.5 l -0.899,0.599 -0.601,0.901 v 3 l 1.5,1.5 h -1.5 l -1.201,1.2 -0.299,0.898 -0.601,0.602 -0.601,0.9 -0.299,0.6 v 1.5 h 1.5 v 1.499 h 1.5 l 1.5,1.501 v 1.5 l -0.899,0.599 -0.601,0.901 h -4.5 l -1.5,-1.5 v -3.001 h -7.5 l -0.899,0.602 -0.601,0.599 h -3 l -0.601,0.901 -0.899,0.6 -0.601,-0.301 -0.899,-0.299 -0.601,-0.601 -0.899,-0.301 h -1.5 l -0.601,0.901 -0.899,0.6 v 3 l 0.899,0.3 0.601,0.3 0.9,0.301 0.6,0.6 0.899,0.6 0.601,0.899 v 2.701 h 1.5 v 5.999 l -1.5,1.501 v 4.2 h 1.5 v 2.998 l 1.5,1.502 v 3 h -3 l -0.601,-0.9 -0.899,-0.6 -0.6,-0.9 -0.9,-0.6 -3.601,3.599 -0.899,0.601 -0.601,0.9 -0.899,0.6 -0.6,0.9 -1.801,1.2 -0.898,0.3 -0.902,0.6 h -3 v 1.5 l -0.898,0.601 -2.102,2.1 0.601,0.9 0.899,0.6 -1.5,1.5 -0.899,0.601 -0.601,0.898 v 1.501 l 1.5,1.5 v 1.2 l -1.5,1.5 v 2.999 l -0.899,0.601 -0.599,0.9 h -1.502 l -1.5,-1.501 v -2.999 l -1.5,-1.5 h -1.5 l -0.6,0.9 -0.898,0.6 h -6.002 v 2.999 l -0.6,0.601 -0.898,0.6 h -1.2 l -0.302,-0.6 v -0.899 l -0.299,-0.901 -1.801,-2.7 -0.6,-0.599 h -1.5 l -1.2,0.3 -1.799,1.2 h -0.901 l -0.6,-0.3 v -2.7 h 1.501 l 0.599,-0.9 0.9,-0.601 v -1.499 h -1.499 l -0.901,0.6 -0.6,0.899 -1.2,0.301 -1.8,1.2 h -1.5 l -3,-3 -0.9,-0.3 -0.6,-0.601 -0.898,-0.3 -0.602,-0.3 v -1.5 l -0.9,-0.3 -0.6,-0.302 -0.9,-0.599 -0.599,-0.3 h -1.501 l 1.501,-1.501 v -1.499 h -3.001 v -4.2 l 0.6,-0.899 0.9,-0.601 h 1.501 v -1.501 l 1.499,-1.499 -0.9,-0.6 -0.599,-0.9 -0.901,-0.6 -0.6,-0.9 -0.9,-0.601 -0.6,-0.899 -0.898,-0.6 -0.602,-0.901 -0.9,-0.599 -0.6,-0.9 -0.9,-0.6 -0.599,-0.602 v -2.998 h -1.501 v -3 h -4.5 v -3 l -0.9,-0.601 -0.599,-0.899 -0.302,-0.602 v -0.898 l -3,-3.002 v -1.2 l -0.598,-0.898 -0.902,-0.6 h -1.498 l -0.602,-0.901 -0.9,-0.599 3,-3 4.5,-1.502 0.9,-0.599 0.602,-0.899 h 1.498 v -2.7 l -0.6,-0.9 -0.898,-0.6 -0.602,0.6 -0.9,0.601 h -1.5 v -1.2 h -1.5 l 1.5,-1.5 v -1.501 l 0.602,-0.899 0.898,-0.6 v -6.002 h -1.5 v 3.002 h -3 v -1.5 h -1.498 v -1.502 l 0.898,-0.299 0.6,-0.6 1.801,-0.6 0.9,-0.6 0.9,-0.302 0.898,-0.599 0.601,-0.6 0.901,-0.601 -1.502,-1.5 -0.898,0.599 -0.602,0.901 h -0.899 l -0.601,-0.3 -0.899,-0.602 -0.601,-0.599 -0.899,-0.601 -0.599,-0.299 -0.901,-0.301 -0.601,-0.3 -0.898,-0.899 -0.901,-0.602 v -1.499 l -0.6,-0.899 -0.9,-0.601 -0.6,-0.901 -0.899,-0.599 v -1.5 l -0.601,-0.9 -0.9,-0.601 v -1.499 h 4.5 l 1.5,1.499 h 1.5 l 0.899,-0.599 0.601,-0.9 h 1.5 v -1.5 l 0.899,-0.6 0.601,-0.6 h 4.5 l 3,-3 0.6,-0.9 0.9,-0.601 h 1.5 l 0.6,0.301 0.9,0.6 0.6,0.299 0.9,0.301 h 3 v 1.5 h 1.5 v 1.5 l 0.899,-0.6 1.2,-0.301 0.9,-0.599 3,3 v -4.5 l 0.899,-0.301 1.2,-0.599 0.9,-0.3 h 1.5 l 0.6,-0.9 0.9,-0.6 -1.5,-1.501 v -1.499 h 1.5 v -1.5 h 12 l 0.6,0.9 0.9,0.6 0.6,0.6 0.9,0.3 0.6,0.3 0.9,0.299 h 3 v -1.2 h 3 l 0.6,-0.899 0.9,-0.6 h 1.5 v 1.499 l -0.899,0.601 -0.601,0.9 v 1.5 l 1.5,1.5 0.6,0.3 0.9,0.298 0.6,0.301 0.9,0.6 0.6,0.6 0.9,0.6 0.6,0.6 0.9,0.3 0.601,0.3 0.899,0.299 0.6,-0.599 0.9,-0.601 h 1.5 l 0.6,-0.899 0.9,-0.6 0.299,-0.901 0.602,-1.2 0.6,-0.899 h 4.5 l 3,-3.001 h 0.601 l 0.899,0.301 2.701,-0.9 1.198,-0.3 h 0.899 l 0.9,-0.301 v -1.499 l 1.5,-1.5 -3,-3 -0.6,-0.301 -0.898,-0.299 -0.602,-0.6 -0.9,-0.301 v -1.499 l 0.9,-0.6 0.602,-0.9 h 4.498 l 1.5,1.5 h 2.4 l 0.6,0.298 h 3 v 1.506 l 0.005,0 z" style="fill:#1f1f1f;stroke:white;stroke-width:1.20000005000000010;stroke-linejoin:bevel"/>
    <path id="path5386" d="m 109.682,269.105 h 1.2 l 0.9,-0.3 h 2.101 l 0.899,-0.9 0.6,-0.901 1.5,-1.499 h 2.7 l 1.2,1.2 h 2.7 l 0.9,-0.6 0.901,-0.301 1.799,-1.2 0.602,-0.899 v -1.5 h 4.199 l 0.901,0.6 1.2,0.3 0.899,0.6 h 1.501 v -1.5 h 2.7 l 4.499,-1.501 h 1.501 l 0.599,-0.899 0.901,-0.6 h 1.2 v -1.5 l 1.499,-1.5 -0.6,-0.9 -0.899,-0.6 -0.601,-0.9 -0.9,-0.601 v -1.499 l 1.501,-1.5 v -3 l -0.301,-0.9 -0.6,-0.601 -0.299,-0.899 -0.301,-0.6 v -3 l 0.6,-0.9 0.6,-0.6 h 3 l 1.5,-1.501 0.602,-0.899 0.898,-0.6 v -1.5 l 0.3,-0.9 0.6,-0.6 0.3,-0.9 0.601,-0.6 0.299,-0.9 0.6,-0.601 1.8,-1.2 1.2,-0.299 0.6,-0.901 2.1,-2.099 h 3 l 0.9,0.6 0.601,0.9 h 10.499 v 1.5 h 1.5 v -1.5 l 1.5,-1.5 h 5.1 l 0.9,0.3 1.5,1.5 h 7.5 l 0.9,-0.3 1.2,-0.3 h 0.9 l 0.9,-0.301 1.2,-0.299 0.9,-0.3 v -1.5 l -0.9,-0.602 -0.6,-0.898 0.901,-0.6 0.899,-0.3 1.2,-0.601 -0.3,-0.899 v -2.1 l 1.2,-0.6 0.9,-0.3 0.901,-0.6 2.398,2.4 0.9,0.6 0.601,0.6 0.599,0.899 1.801,1.801 h 1.499 l 0.6,-0.9 0.9,-0.6 0.6,-0.9 0.9,-0.601 -0.599,-0.899 -0.301,-0.6 -0.3,-0.9 -0.599,-0.6 v -1.5 l 1.2,-0.601 0.899,-0.599 0.9,-0.3 h 1.5 l 1.501,-1.501 0.898,0.601 0.602,0.9 h 1.499 l -2.1,2.099 -0.6,0.901 -0.9,0.6 -0.599,0.9 1.499,1.499 0.6,0.901 1.801,1.2 0.599,0.299 0.9,0.601 0.6,0.599 0.9,0.602 0.601,0.3 0.599,0.9 0.3,0.6 0.301,0.9 0.599,0.599 0.6,0.901 0.9,0.6 h 2.1 l 0.901,0.3 0.599,-0.9 0.9,-0.6 h 1.5 v 3 h 1.5 l 0.601,-0.901 0.899,-0.599 0.6,-0.9 0.901,-0.6 0.298,-1.2 1.8,-2.7 0.9,-0.6 h 4.501 v -3 h 2.999 l 0.3,0.899 0.3,0.601 0.6,0.9 0.3,0.6 1.5,-1.5 h 4.5 l 0.3,0.9 0.3,0.6 0.6,0.9 0.3,0.6 0.601,0.9 0.599,0.599 0.3,0.901 0.6,0.6 0.6,0.899 0.301,0.601 v 0.9 l 0.298,0.6 v 4.5 l 0.6,0.899 0.9,0.601 0.602,0.9 0.898,0.6 -0.6,0.9 -0.9,0.6 v 1.499 l 3,3.001 v 1.5 l -0.3,1.2 -0.599,0.9 -0.301,0.899 -1.5,1.501 0.6,0.899 0.9,0.601 h 1.501 v -1.5 h 1.499 v -1.501 l 1.5,-1.499 0.9,-0.3 0.901,-0.6 1.199,-0.6 h 3.3 l 1.2,0.299 -1.2,1.801 -0.3,0.899 -1.499,1.501 v 1.5 h 1.499 v 1.5 h -1.499 l -1.501,1.5 v 1.499 l -0.6,0.901 -0.9,0.6 h -1.5 l -1.5,1.5 0.901,0.599 0.599,0.901 h -1.5 v 1.5 l -1.499,1.499 -0.901,0.301 -0.9,0.6 -1.2,0.6 h 1.5 l 0.6,0.6 0.3,0.9 0.3,0.599 0.6,0.601 h -1.499 l -0.901,-0.601 -0.9,-0.899 -0.6,-0.301 -0.9,-0.299 -0.599,-0.3 -0.901,-0.601 h -7.5 l -1.499,-1.499 h -1.501 l -0.6,0.9 -0.9,0.599 -1.5,-1.499 h -6 l -0.6,0.9 -0.9,0.599 v 4.501 h -2.999 v -3 h -1.501 v 4.799 l 0.301,1.2 4.499,4.501 v 1.2 l -1.5,1.5 h -2.999 l -0.901,-0.3 -0.599,-0.3 -0.901,-0.301 -0.6,-0.599 -1.5,1.5 v 4.5 l -1.5,4.499 0.901,0.602 0.599,0.9 h 1.5 l 0.9,0.6 0.9,0.9 -1.2,1.8 -0.299,1.2 0.599,0.6 0.9,0.6 0.6,0.9 0.9,0.599 v 1.501 l -1.5,1.5 -0.6,1.2 -0.3,0.899 -0.599,0.901 -1.501,1.499 v 3.301 l 0.301,1.199 v 7.201 l 0.299,0.898 0.3,0.602 0.601,0.899 0.299,0.601 v 1.498 l -1.499,1.502 v 1.5 h -3.001 v 1.199 l 0.9,0.899 0.901,0.601 v 4.499 l 1.499,4.501 v 1.5 l -0.6,0.601 -0.898,0.6 h -1.501 l -0.6,0.9 -0.6,0.599 v 4.501 l -0.6,0.3 -0.9,0.301 -0.6,0.6 -0.9,0.3 -2.1,2.101 -0.899,0.599 -0.601,0.901 -0.9,0.6 -0.6,0.898 -0.599,0.602 h -3.001 l -0.9,-0.3 -0.6,-0.302 -0.9,-0.599 -0.599,-0.3 -0.901,-0.301 -0.599,-0.299 -0.901,-0.301 -0.6,-0.601 v -0.599 l -0.3,-0.9 0.9,-0.6 0.6,-0.601 v -1.5 h -1.5 l -0.599,-0.901 -0.601,-0.599 -0.9,-0.601 -3.9,-3.899 -0.899,-0.6 -0.601,-0.9 -0.9,-0.6 -0.6,-0.9 -0.9,-0.601 -0.599,-0.899 -0.901,-0.6 -0.6,-0.901 -1.5,1.501 h -1.5 l -1.5,1.5 v 1.5 l 0.901,0.601 0.599,0.899 -1.5,1.499 h -1.499 l -0.601,-0.299 -0.9,-0.6 -0.6,-0.302 -0.9,-0.299 h -6 v -1.5 l 1.2,-0.6 0.9,-0.302 0.9,-0.599 v -3.001 h -1.499 v 1.501 l -0.901,0.601 -1.2,0.299 -0.9,0.601 h -4.499 v -3.001 h 1.499 v -2.999 h -1.499 l -1.501,1.5 h -4.5 v -2.7 h -0.9 l -0.599,-0.3 -4.501,1.5 h -1.5 v -1.5 h 1.5 v -1.2 h -7.5 l -0.599,-0.899 -0.901,-0.601 h -4.5 l -0.6,-0.899 -0.9,-0.602 -0.3,-0.898 -0.299,-0.601 -0.601,-0.899 -0.3,-0.601 h -3 l -1.5,1.5 -0.899,0.301 -1.801,1.198 -1.2,0.302 -0.9,0.6 -0.898,0.299 h -1.5 v -1.2 l 1.798,-1.198 0.901,-0.301 v -1.5 h -1.501 l -4.5,-1.5 h -2.699 l -0.901,0.6 -0.599,0.9 -0.901,0.601 -0.6,0.899 -1.5,1.499 h -2.7 l -0.9,-0.599 -0.6,-0.3 -0.9,-0.3 -0.599,-0.301 h -1.501 l -0.898,0.601 -0.602,0.6 v 3.899 l 0.3,0.9 v 4.199 l -0.6,0.602 -0.9,0.599 h -1.2 v -0.599 l -0.3,-0.9 v -1.2 l 1.5,-1.5 h -3 l -0.299,0.9 -0.601,0.898 -0.3,0.901 -1.499,1.499 h -4.201 v -0.599 l -0.3,-0.9 -2.1,-2.1 -0.6,-0.9" style="fill:#1f1f1f;stroke:white;stroke-width:1.20000005000000010;stroke-linejoin:bevel"/>
    <path id="path5394" d="m 295.982,118.506 -0.3,1.2 v 0.9 l -2.999,3 h -1.501 l -0.899,0.6 -0.601,0.9 0.9,0.3 1.2,0.6 0.901,0.6 v 1.5 l -0.901,0.6 -0.6,0.899 v 4.501 l 0.9,0.6 0.602,0.9 v 2.4 l 0.299,1.2 v 5.399 l -0.6,1.2 -0.3,0.901 -0.599,0.9 h -1.501 v -1.5 h -3 v 5.999 l 0.9,0.901 0.9,0.6 v 1.5 h 1.501 v 4.8 h 1.499 l 0.901,0.6 0.599,0.9 -1.5,1.5 0.3,0.6 v 0.898 h 1.5 l 0.6,0.301 0.901,0.3 0.599,0.6 0.901,0.3 v 1.5 h -6.001 l -1.499,-1.5 -0.301,-0.9 v -0.602 h -3 l -2.999,3.001 -0.601,-0.301 h -6.899 l -1.501,1.501 0.6,0.899 0.901,0.601 v 1.5 h -1.501 v 2.999 h 1.501 v 1.501 l 0.899,-0.6 0.6,-0.901 1.8,1.801 -0.898,0.599 -0.602,0.901 v 3 h -2.4 l -0.599,-0.3 h -1.5 v 3 l -0.602,1.2 -0.3,0.899 -0.6,0.901 0.9,0.299 h 0.602 v 1.501 l -1.501,1.5 h -1.5 l -0.599,0.6 -0.901,0.6 0.901,0.899 0.599,0.901 h 1.5 l 1.8,0.6 0.6,0.6 0.9,0.299 1.5,1.501 -0.9,0.6 -0.6,0.9 -0.9,0.6 -0.6,0.9 1.5,1.5 0.901,0.299 0.599,0.301 0.9,0.6 0.6,0.299 5.401,1.801 0.899,0.6 0.6,0.299 0.901,0.301 0.599,0.899 0.9,0.601 h -1.499 v 2.999 h -1.501 v 1.501 l 1.501,1.5 h 1.499 l 0.901,-0.6 0.599,-0.9 h 1.5 l 0.9,0.9 0.6,0.9 -0.6,0.599 -0.9,0.601 -0.599,0.9 -0.901,0.6 -0.599,0.9 -0.901,0.599 v 1.501 h 1.5 v 0.9 l 0.3,0.6 h -1.8 l -0.6,0.899 -0.6,0.601 h -9.3 l -3,2.999 -0.3,0.901 -0.6,0.9 -0.6,1.2 0.3,0.899 v 2.101 l -1.2,0.299 -1.799,1.2 h -3.001 l -0.898,-0.299 h -0.602 l -0.9,-0.6 -0.898,-0.9 -0.301,-0.601 -0.6,-0.899 -0.6,-0.6 -0.3,-0.901 -0.599,-0.599 -0.601,-0.9 -0.3,-0.6 -0.6,-0.9 -0.3,-0.6 -0.3,-0.9 h -4.5 l -1.5,1.5 -0.3,-0.6 -0.6,-0.9 -0.3,-0.601 -0.3,-0.899 h -2.999 v 3 h -4.501 l -0.9,0.6 -1.8,2.7 -0.298,1.2 -0.901,0.6 -0.6,0.9 -0.899,0.599 -0.601,0.901 h -1.5 v -3 h -1.5 l -0.9,0.6 -0.599,0.9 -0.901,-0.3 h -2.1 l -0.9,-0.6 -0.6,-0.901 -0.599,-0.599 -0.301,-0.9 -0.3,-0.6 -0.599,-0.9 -0.601,-0.3 -0.9,-0.602 -0.6,-0.599 -0.9,-0.601 -0.599,-0.299 -1.801,-1.2 -0.6,-0.901 -1.499,-1.499 0.599,-0.9 0.9,-0.6 0.6,-0.901 2.1,-2.099 h -1.499 l -0.602,-0.9 -0.898,-0.601 h -4.501 l -0.9,0.301 -1.2,0.6 -0.898,0.299 h -1.501 l -0.898,-0.599 -0.602,-0.9 v -2.1 l -0.3,-0.9 0.901,-0.602 0.599,-0.898 0.9,-0.6 1.2,-1.8 0.3,-0.9 0.6,-1.2 v -1.5 l -0.9,-0.602 -0.9,-0.898 h -1.5 v -3 l -0.298,-0.901 -0.602,-0.599 -0.3,-0.9 -0.299,-0.6 v -0.9 l -0.301,-0.6 v -6.3 l -0.899,-0.6 -0.901,-0.901 v -1.499 l -0.9,-0.6 -0.6,-0.9 h -4.5 l -0.3,-0.9 v -3.601 h -1.499 v -0.899 l -0.301,-0.9 h 0.9 l 0.9,0.3 0.6,-0.901 0.6,-0.599 h 1.5 v -5.1 l -0.3,-1.2 0.901,-0.601 0.599,-0.899 0.9,-0.6 0.6,-0.9 0.9,0.3 h 0.6 v 1.5 l 1.501,-1.5 h 1.499 l -0.6,-0.9 -0.899,-0.6 h 1.499 l 1.5,-1.501 h 3 v -2.999 h 1.501 v -1.5 h -3.301 l -0.599,-0.9 -0.901,-0.6 v -1.8 l -0.9,-0.6 -0.9,-0.9 0.9,-0.601 0.601,-0.899 v -1.5 h -4.8 l -1.5,-1.501 0.599,-0.898 3.6,-3.6 0.901,-0.6 1.2,-0.3 0.899,-0.6 h 1.5 l 0.9,0.3 0.9,0.6 0.6,0.299 0.9,0.301 0.9,0.6 0.901,0.299 0.599,0.301 0.9,0.6 0.6,-0.901 0.9,-0.599 h 1.5 v -1.5 h -3.9 l -2.7,-0.9 -1.2,-0.3 -1.8,-0.602 -0.9,-0.898 -0.9,-0.6 v -1.5 l -1.798,-1.801 -0.901,-2.7 -0.6,-0.898 -0.3,-0.9 -0.599,-0.9" style="fill:#1f1f1f;stroke:white;stroke-width:1.20000005000000010;stroke-linejoin:bevel"/>
    <path id="path5398" d="m 410.882,374.404 v 4.501 l 0.899,0.6 0.601,0.9 v 3 h -1.5 v 1.199 h 0.899 l 0.601,0.301 0.899,0.601 0.601,0.6 -0.601,0.899 -0.899,0.601 1.5,1.5 h 3 l 0.6,0.9 0.9,0.6 h 1.5 v -1.5 h 1.5 v 1.5 h 1.5 v -1.5 l 0.6,-0.6 0.9,-0.601 h 1.5 l 2.699,0.9 0.6,0.3 0.902,0.299 1.198,1.802 0.302,0.898 2.998,3.001 h 3.002 v 1.5 l 1.5,1.5 h -1.5 v 7.2 l -1.502,1.5 v 3 h 3.002 l 2.998,3 1.2,0.6 0.899,0.301 0.601,0.6 0.899,0.6 0.601,0.899 v 2.701 l 0.601,1.2 0.299,0.899 0.602,0.9 1.499,1.5 h 3 l 1.5,4.5 v 1.2 l 0.601,0.898 0.6,0.602 v 4.5 l 0.9,0.6 0.601,0.9 v 2.699 l 0.899,-0.3 1.199,-0.6 0.9,-0.3 h 1.5 l 1.5,1.5 -0.898,0.6 -0.602,0.601 0.3,1.199 1.2,1.801 v 3 l -0.898,0.599 -0.602,0.901 v 1.199 l -1.5,1.5 h -2.999 l -1.501,1.499 h -1.5 l -0.6,0.901 -0.299,0.9 -0.602,1.199 -0.6,-0.3 h -0.9 l -1.801,0.601 h -0.898 l -0.9,0.298 h -0.9 l -0.898,0.302 h -0.902 l -0.899,0.3 -0.899,0.599 -0.601,0.901 -0.899,0.601 -0.6,0.899 h -3.001 v 2.699 l 0.601,0.901 0.899,0.6 v 1.5 h -3 l -4.5,-1.5 h -8.698 l -0.902,-0.6 -1.199,-0.601 -0.9,-0.301 -0.599,0.601 -0.901,0.599 h -1.498 l -0.602,-0.599 -0.898,-0.601 -0.902,-0.299 h -1.799 l -0.899,-0.601 -0.601,-0.6 h -0.9 l -0.6,-0.3 h -4.5 v 1.5 l 1.5,1.498 v 4.502 h 1.5 l 0.6,0.599 0.9,0.602 h 0.6 l 0.9,0.3 -0.9,0.6 -0.6,0.601 h -7.5 l -1.5,-1.5 h -2.699 l -0.901,-0.602 -0.601,-0.898 -0.898,-0.302 -0.602,-0.299 -0.899,-0.3 -0.601,-0.6 -0.899,-0.601 -0.601,-0.901 v -2.698 h -3 l -0.299,0.899 -1.799,2.7 -0.902,0.601 h -2.699 l -0.6,-0.601 -0.601,-0.901 -0.299,-0.599 -0.601,-0.899 -0.6,-0.601 -0.301,-0.899 v -1.2 h -1.5 l -0.898,0.599 -0.602,0.602 0.602,1.199 0.299,0.9 0.6,0.898 v 1.502 h -1.5 l -0.6,-0.9 -0.9,-0.602 -1.499,-1.498 h -1.501 l -0.301,-0.901 -0.598,-0.899 -0.602,-1.199 v -1.2 l -0.6,-0.3 h -2.101 v -2.4 l -0.3,-0.9 v -0.899 h -1.2 l -0.899,0.6 -0.6,0.899 h -1.501 v -2.999 l -0.601,-0.9 -0.598,-1.2 -0.302,-0.899 v -1.501 h -1.5 l -1.5,1.501 -0.899,0.6 -0.9,0.3 -0.6,0.301 -0.9,0.6 -1.801,0.599 -0.899,0.602 -0.899,0.3 -0.899,0.6 -0.901,0.301 h -2.998 l -0.902,-0.301 -0.6,-0.301 -0.898,-0.299 -0.602,-0.6 v -2.7 h 1.5 v -1.501 h 1.502 l -0.902,-0.6 -0.6,-0.899 -0.898,-0.601 -0.602,-0.899 v -4.2 l -2.998,-3 h -1.5 l -0.602,-0.901 -0.599,-1.198 -0.302,-0.9 v -1.5 h -1.5 l -0.9,-0.6 -0.6,-0.901 h -1.498 l 0.598,-0.599 0.9,-0.602 -1.498,-1.499 v -4.5 l -0.902,-0.301 -0.598,-0.299 -0.902,-0.601 -0.6,-0.301 -0.898,-0.599 -0.602,-0.9 v -2.7 l 0.602,-0.9 0.898,-0.6 0.6,-0.899 0.902,-0.601 h -1.502 v -1.501 l -1.199,-1.799 -0.301,-1.2 v -0.6 l -0.3,-0.6 h 1.5 v -1.5 h 1.5 v -3 h 4.5 l 0.901,-0.301 1.2,-1.201 0.898,-0.299 0.601,-0.6 0.899,-0.301 v -1.499 l 0.601,-0.901 0.9,-0.599 -1.501,-1.5 1.501,-1.5 h 7.199 l 0.9,-0.601 0.601,-0.6 0.599,-0.9 0.602,-1.801 0.599,-0.898 0.3,-0.601 0.6,-0.899 0.301,-0.9 v -1.5 l -1.5,-1.501 v -1.2 l 0.6,-1.2 0.302,-0.898 0.599,-0.9 0.602,0.3 0.898,0.301 0.602,0.6 0.898,0.3 3,3 h 1.5 l 1.8,-1.2 1.2,-0.301 0.6,-0.898 0.901,-0.601 h 1.499 v 1.499 l -0.9,0.602 -0.599,0.899 h -1.501 v 2.7 l 0.6,0.3 h 0.901 l 1.799,-1.2 1.2,-0.3 h 1.5 l 0.602,0.599 1.799,2.7 0.299,0.901 v 0.9 l 0.302,0.599 h 1.2 l 0.898,-0.599 0.6,-0.602 v -2.999 h 6.002 l 0.898,-0.6 0.6,-0.9 h 1.5 l 1.5,1.5 v 2.999 l 1.5,1.501 h 1.502 l 0.599,-0.899 0.899,-0.602 v -2.999 l 1.5,-1.5 v -1.2 l -1.5,-1.5 v -1.501 l 0.601,-0.898 0.899,-0.601 1.5,-1.5 -0.899,-0.6 -0.601,-0.9 2.102,-2.1 0.898,-0.6 v -1.5 h 3 l 0.902,-0.601 0.898,-0.3 1.801,-1.2 0.6,-0.899 0.899,-0.601 0.601,-0.899 1.501,1.5 h 1.499 l 0.899,0.6 0.601,0.3 0.9,0.3 0.597,0.297 0,0 z" style="fill:#1f1f1f;stroke:white;stroke-width:1.20000005000000010;stroke-linejoin:bevel"/>
    <path id="path5402" d="m 368.282,121.506 v 0.9 l -0.3,0.6 0.9,2.699 0.299,1.2 0.301,0.901 h 1.8 l -0.3,0.6 v 0.9 l 0.9,-0.6 0.9,-0.3 0.6,-0.3 0.899,-0.3 0.601,-0.901 0.899,-0.599 1.5,1.5 h 4.5 l 0.901,-0.6 0.599,-0.9 h 3 l 0.899,0.3 h 2.101 l 0.901,0.6 0.599,0.9 -1.5,1.499 h -1.499 l -1.501,1.501 v 3 l 0.601,0.6 0.9,0.6 0.6,0.9 3.299,3.299 0.902,0.601 0.598,0.9 0.601,0.6 v 1.5 l -0.601,0.9 -0.899,0.599 v 1.501 l -1.5,1.5 0.601,0.9 0.899,0.6 1.5,-1.5 0.899,-0.601 0.602,-0.899 v 4.5 h 2.999 l 0.899,-0.3 1.201,-0.6 0.899,-0.301 h 1.501 v 1.501 h -1.501 l -0.601,0.9 -0.299,0.9 -0.601,1.2 -0.899,-0.3 h -3.6 v 1.5 l -1.501,1.5 v 1.5 h 3.601 l 0.899,0.3 -0.899,0.6 -0.601,0.599 v 4.8 l 1.5,1.501 h 1.5 l 0.601,-0.9 0.899,-0.602 v -2.999 h 1.501 v 2.999 l 0.898,0.602 0.601,0.9 h 1.5 l 1.5,-1.501 h 1.5 l 1.501,1.501 0.898,-0.6 0.601,-0.901 h 3 v 1.501 l 1.5,1.5 h 2.701 l 1.799,-0.6 1.2,-0.3 0.9,-0.3 h 3.899 l 0.901,0.6 0.599,0.9 v 1.5 l 0.899,0.6 0.601,0.899 0.899,-0.599 0.601,-0.9 v -3 h 1.8 l 4.502,-1.5 h 1.5 l 1.498,-1.501 0.301,-0.899 0.601,-0.9 0.599,-1.2 h 0.602 l 0.898,0.3 1.502,1.499 v 3.001 l 1.5,1.5 h 1.498 v 4.5 l 3,3 0.6,-0.9 0.902,-0.6 h 2.998 v 1.5 l -1.498,1.5 -0.602,0.9 -0.301,1.2 -0.598,0.9 h 1.5 v 1.5 l 0.598,-0.9 1.802,-1.2 0.599,-0.901 h 1.5 l -0.6,0.901 -0.9,0.6 v 4.5 h -2.998 l -1.201,0.6 -0.9,0.3 -0.9,0.599 h -1.5 l -0.9,0.602 -0.6,0.9 h -1.498 l -1.5,-1.501 h -0.902 l -0.6,-0.299 -0.898,-0.6 -0.602,-0.9 h -1.799 l -0.301,1.2 -1.2,1.799 v 1.501 h 1.501 v 1.5 h 2.999 v 3 l -0.599,0.9 -0.901,0.599 h -1.499 l -1.501,-1.499 h -1.5 v 1.499 l -0.601,0.901 -0.899,0.6 h 1.5 l 3.001,3 v 2.999 h -6.001 l -0.601,-0.899 -0.898,-0.6 h -1.501 l -1.5,1.499 h -6 l -0.601,-0.899 -2.399,-2.4 -0.3,-0.6 -0.299,-0.9 -0.602,-0.6 -0.3,-0.901 -3,-2.999 h -1.5 v 4.5 h 1.5 v 3 h 1.501 l 1.499,1.5 4.5,1.499 0.899,0.901 0.602,0.9 v 1.2 l -0.602,0.899 -0.899,0.601 h -1.5 v 1.5 h 1.5 v 1.499 h 3 l 1.5,1.501 0.899,0.3 h 0.601 v 1.2 l -0.601,0.899 -0.899,0.601 -0.599,0.9 -0.901,0.6 h -7.5 l -0.601,-0.3 -0.898,-0.601 -0.602,-0.299 -0.899,-0.3 v -4.501 l -1.5,-1.499 -0.601,-0.3 -0.899,-0.601 -0.599,-0.299 -0.901,-0.3 h -1.499 l -1.501,1.5 v 1.499 h 1.501 v 1.501 l -3.001,3 0.899,0.599 0.601,0.901 h 1.501 v 1.499 l -0.9,0.301 -0.9,0.6 -1.2,0.3 h -1.5 l -1.799,1.2 -1.2,0.299 v -2.999 l -1.501,-1.5 h -3 v -1.5 h -1.5 l -1.499,-1.501 h -1.501 l -0.601,0.901 -0.899,0.6 h -4.499 l -0.9,0.3 -1.201,0.599 -0.899,0.601 -1.5,1.5 v 1.5 h 1.5 v 1.499 h -3 l -0.601,-0.299 h -0.898 v 3 l 1.499,1.5 h 1.5 l 1.2,-0.3 0.9,-0.6 0.899,-0.3 h 1.501 v 3 l -0.602,0.6 -0.899,0.6 -1.5,4.5 -0.601,0.9 -0.899,0.6 v 1.5 l -0.599,0.9 -0.901,0.599 h -1.499 l -0.9,0.601 -0.9,0.3 -1.2,0.6 h -3 l -3,3 v 0.6 l 0.302,0.6 v 1.5 h -1.5 v -1.5 l -0.302,-0.9 v -3.3 h -1.5 l -0.599,-0.301 h -0.901 l -0.601,0.901 -0.898,0.6 h -1.501 l -1.5,-1.501 v -1.499 l 0.899,-0.6 0.601,-0.9 v -4.2 h -2.101 l -0.899,-0.301 h -1.5 l -0.601,0.901 -0.898,0.6 -0.602,0.898 -0.899,0.602 h -1.5 l -0.601,0.9 -0.299,1.199 -0.601,0.901 v 1.499 l -1.5,1.501 v 1.5 l -1.499,1.5 -0.9,0.3 -0.9,0.6 -1.2,0.6 v 1.499 l 0.899,0.602 0.601,0.9 v 0.6 l 0.302,0.9 -0.902,-0.3 h -6.899 v -3 l -1.5,-1.5 v -3 h -1.5 v -10.201 l -0.899,-0.599 -0.601,-0.3 -0.899,-0.301 -0.6,-0.299 -3.001,-3 0.601,-0.9 0.899,-0.6 v -2.1 l -0.3,-0.9 1.5,-1.5 h 1.501 v -3 h -3.001 v 1.5 l -1.5,1.5 h -2.999 v -1.5 l 1.2,-0.602 0.898,-0.599 0.9,-0.3 -0.6,-0.9 -0.9,-0.601 v -1.499 l 4.5,-1.5 0.6,-0.9 0.6,-1.201 0.302,-0.898 0.899,-0.6 0.6,-0.901 v -1.499 h -1.499 l -1.501,-1.5 0.6,-0.9 0.301,-1.202 0.601,-0.898 v -1.501 l -0.901,-0.599 -0.6,-0.9 -1.5,1.499 h -1.5 v -1.499 l 1.5,-4.5 v -4.5 l 1.5,-1.5 h 3 l 0.6,-0.3 0.9,-0.6 0.602,-0.6 0.898,-0.301 0.602,-0.599 0.898,-0.601 h 1.501 v -1.499 l 1.499,-1.5 v -3 h 1.5 l 0.602,-0.6 0.898,-0.6 0.602,0.3 0.898,0.3 0.6,0.299 0.901,0.601 h 1.499 v -3.001 h 1.5 l 0.602,-0.899 0.898,-0.6 -0.6,-0.9 -0.601,-0.6 -0.3,-0.901 -0.6,-0.599 -0.601,-0.9 -0.3,-0.6 v -1.501 l -0.9,-0.899 -0.599,-0.9 v -1.5 l 0.899,-0.3 0.899,-0.6 1.2,-0.3 v -1.801 l 0.602,0.301 h 3.899 l 0.599,-0.9 0.9,-0.601 0.6,-0.899 0.9,-0.6 v -1.5 h 1.5 l 0.602,-0.901 0.898,-0.599 -1.5,-1.5 h -1.5 v -1.501 l 0.602,-0.899 0.898,-0.6 0.602,-0.9 0.898,-0.6 v -1.5 h -1.5 v -1.5 l -1.5,-1.501 h -0.9 l -0.6,-0.299 h -1.499 l 0.299,-0.901 0.601,-0.899 0.6,-1.2 h -1.499 v -3.001 l 0.299,-0.898 0.601,-0.9 0.6,-1.2 -0.9,-0.6 -0.599,-0.9 h -4.802 l -4.5,-4.5" style="stroke: rgb(100, 100, 100); stroke-width: 1.2; stroke-linejoin: bevel;"/>
    <path id="path5406" d="m 493.081,313.806 -0.899,-0.601 -0.6,-0.899 h -1.5 l -0.9,0.601 -0.601,0.899 v 1.5 h -1.5 l -0.599,-1.2 -0.602,-0.9 -0.3,-0.899 -1.499,-1.501 v -1.499 l -0.9,-0.601 -0.6,-0.899 v 2.999 h -1.501 l -1.5,-1.499 v -1.5 h 1.5 l 1.501,-1.5 v -4.5 h -4.501 l -0.9,-0.3 -0.598,-0.3 -0.902,-0.6 -0.598,-0.3 -0.902,-0.6 -0.6,-0.9 -0.898,-0.601 -0.602,-0.899 v -3 l -0.9,0.6 -1.199,0.6 -0.898,0.299 h -1.5 v -1.499 l -0.602,0.9 -0.9,0.599 h -1.5 v -5.999 l -0.599,-0.301 -0.901,-0.299 -0.6,-0.3 -0.898,-0.601 h -1.5 l -0.602,0.901 -0.9,0.6 v -1.501 l -3,-2.999 -4.5,-1.5 h -3 l -0.6,0.9 -0.898,0.6 h -1.5 l -0.602,-0.3 -0.9,-0.602 -0.6,-0.298 -0.9,-0.3 -0.9,0.599 -0.898,0.301 -1.199,0.6 v -1.5 l -0.602,-0.9 -0.898,-0.6 v -6 l -1.502,-1.5 h -3 l -0.6,0.899 -0.898,0.601 -1.5,1.5 h -1.502 l -0.6,-0.901 -0.9,-0.599 v -3.001 h -2.998 l -1.5,1.501 h -1.502 v -1.501 l -0.6,-0.899 -0.9,-0.6 v -1.5 l 1.5,-1.5 0.9,-0.601 0.602,-0.899 h 1.5 v -1.501 l 0.598,-0.899 0.301,-0.9 0.6,-1.2 v -5.701 h 4.502 v 1.501 h 1.5 v 1.5 h 1.498 l 0.6,-0.9 0.302,-1.2 0.599,-0.901 h 3.002 l 0.898,-0.299 1.199,-0.6 0.9,-0.6 1.5,-1.5 0.602,0.9 0.898,0.6 h 1.502 l 0.598,-0.6 0.902,-0.602 v -1.499 h 1.498 l 0.6,-0.901 0.9,-0.599 h 7.5 l 0.602,0.9 0.898,0.6 1.502,-1.5 -0.902,-0.601 -1.799,-2.699 -0.301,-1.202 v -2.999 h -1.5 v -4.2 h -1.498 l -0.902,0.6 -0.598,0.6 -0.902,-0.6 -0.6,-0.901 v -1.499 h -7.5 v -1.5 l 1.502,-1.5 h -3.002 l -1.5,1.5 -0.9,-0.601 -0.598,-0.899 1.498,-1.5 v -1.501 l -0.9,-0.599 -0.598,-0.9 h -1.5 v -0.6 l -0.302,-0.9 h 1.802 l -0.302,-0.9 v -2.1 h -1.5 l -1.5,-1.501 v -8.7 l 1.5,-1.499 1.2,-0.6 0.9,-0.301 0.9,-0.599 1.2,-0.602 0.899,-0.299 0.899,-0.6 h 3 l 1.2,-1.801 0.301,-1.2 1.2,-0.299 0.899,-0.6 1.199,-0.6 h 1.502 l 0.598,-0.6 0.902,-0.6 0.598,-0.901 0.9,-0.599 h 4.502 l 0.598,-0.9 0.902,-0.6 h 1.498 l 1.5,-1.5 v -3 h -1.5 v -1.5 l 3,-3 v -1.501 h 3.002 l 0.898,-0.599 0.6,-0.9 0.901,-0.6 0.599,-0.6 h 1.5 l 0.9,0.6 0.602,0.899 h 1.5 l 1.498,-1.499 h 3.301 l 0.3,0.9 0.6,1.2 0.301,0.9 h 4.799 l 1.502,-1.501 v -1.499 h 1.498 l 1.5,-1.5 v -1.5 l 0.901,-0.601 0.599,-0.899 0.301,-0.6 0.6,-0.901 0.3,-0.599 0.3,-0.9 0.9,-0.6 0.602,-0.9 h 0.898 l 0.9,0.3 h 3.54" style="fill:#1f1f1f;stroke:white;stroke-width:1.20000005000000010;stroke-linejoin:bevel"/>
    <path id="path5410" d="m 104.882,330.905 2.1,2.101 0.3,0.899 v 0.6 h 4.201 l 1.499,-1.499 0.3,-0.901 0.601,-0.898 0.299,-0.9 h 3 l -1.5,1.5 v 1.2 l 0.3,0.9 v 0.599 h 1.2 l 0.9,-0.599 0.6,-0.602 v -4.199 l -0.3,-0.901 v -3.898 l 0.601,-0.601 0.899,-0.6 h 1.501 l 0.599,0.301 0.9,0.299 0.6,0.301 0.9,0.599 h 2.7 l 1.5,-1.499 0.6,-0.9 0.901,-0.6 0.599,-0.9 0.901,-0.6 h 2.699 l 4.5,1.5 h 1.501 v 1.5 l -0.901,0.301 -1.799,1.198 v 1.2 h 1.5 l 0.898,-0.299 0.9,-0.6 1.2,-0.302 1.801,-1.198 0.899,-0.301 1.5,-1.5 h 3 l 0.3,0.6 0.602,0.9 0.298,0.6 0.3,0.899 0.9,0.602 0.6,0.899 h 4.5 l 0.901,0.601 0.599,0.899 h 7.5 v 1.2 h -1.5 v 1.5 h 1.5 l 4.501,-1.5 0.599,0.3 h 0.9 v 2.7 h 4.5 l 1.501,-1.5 h 1.499 v 2.999 h -1.499 v 3.001 h 4.499 l 0.9,-0.602 1.2,-0.298 0.901,-0.601 v -1.501 h 1.499 v 3.001 l -0.9,0.599 -0.9,0.302 -1.2,0.6 v 1.5 h 6 l 0.9,0.299 0.6,0.301 0.9,0.601 0.601,0.299 h 1.499 l 1.5,-1.499 -0.599,-0.9 -0.901,-0.6 v -1.5 l 1.5,-1.5 h 1.5 l 1.5,-1.501 0.6,0.901 0.901,0.6 0.599,0.898 0.9,0.602 0.6,0.9 0.9,0.6 0.601,0.9 0.899,0.6 3.9,3.898 0.9,0.602 0.602,0.599 0.599,0.901 h 1.5 v 1.5 l -0.6,0.6 -0.9,0.601 0.3,0.899 v 0.6 l 0.6,0.601 0.901,0.3 0.598,0.299 0.901,0.302 0.599,0.3 0.9,0.599 0.6,0.302 0.9,0.3 h 3.001 l 0.599,-0.602 0.6,-0.898 0.9,-0.601 0.602,-0.9 0.898,-0.6 2.1,-2.1 0.9,-0.3 0.6,-0.601 0.9,-0.3 0.6,-0.3 h 3 l 1.5,-1.5 h 1.5 v 3 l -0.899,0.6 -0.601,0.899 0.9,0.601 0.6,0.9 h 1.5 v 2.7 l 1.501,1.5 v 1.5 l -0.602,0.899 -0.599,0.6 -0.901,0.601 -1.2,1.799 -0.3,0.901 -0.6,1.2 h -1.5 l -0.599,0.599 -0.901,0.602 -0.6,0.899 -0.899,0.601 v 1.498 h -1.5 l -0.601,0.901 -0.599,0.601 -0.901,-0.601 -0.6,-0.901 v 1.502 l -1.5,-1.502 h -4.499 v 1.502 h -1.501 v 1.5 l -0.6,-0.601 -0.9,-0.3 -0.599,-0.3 -0.901,-0.3 -1.5,1.5 0.9,0.6 0.6,0.601 -0.299,0.898 -0.301,0.602 -0.3,0.899 -0.3,0.601 v 1.498 l 1.5,1.502 0.602,0.3 0.898,0.3 0.6,0.599 0.901,0.301 v 1.5 h -1.501 v 1.2 l 1.501,1.5 v 1.5 l 1.499,1.499 -0.9,0.602 -0.9,0.3 -0.899,0.6 v 1.5 h -1.501 l 3.6,3.601 0.9,0.6 h 1.5 v 1.499 l 0.601,0.901 0.899,0.6 v 1.5 h 4.5 v 1.5 l -1.5,1.5 v 1.499 l -2.699,2.701 h -4.501 v 1.5 h -1.5 v 1.5 l 0.901,0.3 0.599,0.299 0.9,0.602 0.6,0.3 h 3.001 l 0.599,0.299 0.3,0.601 0.6,0.6 v 1.501 h -3 l -0.9,-0.302 h -1.8 l -1.5,1.502 -1.2,0.6 -0.9,0.3 -0.899,0.601 v 3 l 4.499,-1.5 v 2.998 l -0.6,0.602 -0.9,0.599 h -5.698 l 0.599,0.901 0.9,0.601 v 3 l 1.5,1.5 h 4.501 l -0.601,0.899 -0.3,0.9 -0.6,1.2 -0.6,0.6 -0.9,0.599 -1.5,-1.499 h -1.5 v 2.4 l 0.3,1.2 v 0.899 l -1.2,1.799 -0.3,1.201 -0.9,0.301 -1.2,0.6 -0.9,0.3 v 1.499 l -0.6,0.901 -0.6,0.6 -4.5,1.5 -2.1,2.101 -0.9,0.6 v 0.9 l 0.301,0.6 v 1.499 l 0.599,0.601 0.9,0.301 0.6,0.6 0.9,0.3 0.601,0.599 0.899,0.602 1.5,1.5 h 1.2 l 0.301,0.599 v 0.602 l -0.601,1.2 -0.599,0.899 -0.301,0.898 h -3 v 4.502 l -0.9,0.3 -0.899,0.6 -0.901,0.301" style="fill:#1f1f1f;stroke:white;stroke-width:1.20000005000000010;stroke-linejoin:bevel"/>
    <path id="path5414" d="m 248.282,264.306 1.5,1.499 0.9,-0.599 0.6,-0.9 h 1.501 l 1.499,1.499 h 7.5 l 0.901,0.601 0.599,0.3 0.9,0.299 0.6,0.301 0.9,0.899 0.901,0.601 h 2.999 l 0.602,-0.601 0.898,-0.599 h 1.501 l 6.599,6.6 0.901,0.6 h 0.599 l 0.901,0.3 h 1.499 l -0.9,0.599 -0.599,0.601 0.898,0.599 0.6,0.301 0.901,0.3 0.599,0.3 v 2.999 h -1.5 v 1.501 h -1.499 v 3 h 1.499 l 0.901,-0.6 0.599,-0.9 h 1.5 l 1.501,1.5 h 1.499 v 0.9 l 0.3,0.6 -1.5,1.499 h 1.5 v 1.501 h 1.5 l 1.5,-1.501 v -2.099 l -0.3,-0.9 0.9,-0.6 0.6,-0.9 v 1.5 l 0.301,0.9 v 0.6 l 0.599,0.9 0.9,0.599 h 1.5 l 1.5,-1.499 0.601,0.9 0.899,0.599 h 1.501 v 3.001 h -1.501 l 0.6,0.9 0.901,0.6 h 1.499 l 0.6,0.9 0.9,0.6 h 1.5 l 0.601,0.9 0.899,0.599 v 4.501 l 0.9,0.6 0.601,0.9 0.899,0.6 0.6,0.898 1.2,-0.599 0.9,-0.601 0.9,-0.299 h 3.001 l 0.899,0.6 0.6,0.898 h 1.5 l 0.6,0.602 0.301,0.9 0.299,0.6 0.3,0.9 h 3.001 l 0.899,0.599 0.6,0.901 0.9,0.601 0.6,0.899 v 1.499 l 0.901,0.602 0.898,0.899 0.601,0.3 0.901,0.301 0.599,0.299 0.899,0.601 -1.199,0.3 -0.9,0.6 -0.9,0.301 h -1.5 l -1.5,1.5 h -2.999 v 4.5 h -7.5 v 1.5 l -0.901,0.6 -0.6,0.6 h -1.5 v 3.001 l -0.6,0.899 -0.9,0.599 -1.5,1.502 v 3 l -0.6,0.599 -0.898,0.601 h -6.001 v 2.4 l 0.3,0.599 h -1.5 l -0.9,-0.599 -0.9,-0.9 h -5.7 l -0.298,-0.6 v -0.9 h -4.501 l -0.599,-0.3 -0.901,-0.301 -0.6,-0.599 -0.898,-0.301 h -1.501 l -0.6,0.601 -0.6,0.899 v 1.5 h -9 l -0.898,0.601 -0.602,0.6 v 1.5 h -6 l -0.898,-0.6 -0.602,-0.9 v -1.5 l -0.9,-0.601 -0.6,-0.899 h -6 v 1.5 l -0.9,0.599 -1.2,0.302 -0.899,0.6 -0.601,0.9 -0.3,1.2 -0.6,0.898 h -4.5 l -2.1,2.102 -0.9,0.6 1.501,1.5 h 4.499 v 1.5 l 0.3,0.9 v 0.6 h -12 l -0.9,0.6 -0.599,0.899 -0.901,0.601 -0.6,0.9 h -1.5 l -0.6,-0.9 -0.9,-0.601 0.601,-0.899 0.899,-0.6 v -3 h -1.5 l -1.5,1.5 h -3 v -4.501 l 0.6,-0.599 0.6,-0.9 h 1.501 l 0.899,-0.6 0.6,-0.601 v -1.5 l -1.499,-4.501 v -4.499 l -0.901,-0.601 -0.9,-0.899 v -1.199 h 3.001 v -1.5 l 1.499,-1.502 v -1.498 l -0.299,-0.601 -0.601,-0.899 -0.3,-0.602 -0.298,-0.898 v -7.201 l -0.301,-1.199 v -3.301 l 1.501,-1.499 0.599,-0.901 0.3,-0.898 0.6,-1.2 1.5,-1.5 v -1.501 l -0.9,-0.599 -0.6,-0.9 -0.9,-0.6 -0.599,-0.6 0.299,-1.2 1.2,-1.8 -0.9,-0.9 -0.9,-0.6 h -1.5 l -0.599,-0.9 -0.901,-0.601 1.5,-4.499 v -4.5 l 1.5,-1.5 0.6,0.599 0.901,0.301 0.599,0.3 0.901,0.3 h 2.999 l 1.5,-1.5 v -1.2 l -4.499,-4.501 -0.301,-1.2 v -4.799 h 1.501 v 3 h 2.999 v -4.501 l 0.9,-0.599 0.6,-0.9 h 5.997 l 0,-0.004 z" style="fill:#1f1f1f;stroke:white;stroke-width:1.20000005000000010;stroke-linejoin:bevel"/>
    <path id="path5418" d="m 291.483,218.406 -1.501,4.5 0.6,0.9 0.901,0.599 v 3.001 h 1.499 l 0.901,0.6 0.599,0.299 0.9,0.301 0.6,0.3 v 2.999 l -0.3,1.201 -1.2,1.8 v 1.5 h 9.3 l 0.6,0.3 h 0.901 v 4.2 h 1.499 l 0.6,-0.6 0.9,-0.6 0.601,-0.9 0.899,-0.601 0.6,-0.899 0.9,-0.6 0.6,-0.901 0.3,-0.599 0.601,-0.9 0.599,-0.6 0.601,-0.9 0.599,-0.6 0.602,-0.9 2.099,-2.1 v 1.499 h 6 l 0.601,0.301 0.899,0.6 0.6,0.299 0.9,0.301 h 6.601 l 0.899,0.3 h 4.5 v 7.2 h 1.5 v 3 l 1.5,1.5 v 3 h 6.899 l 0.902,0.3 -0.302,-0.9 v -0.6 l -0.601,-0.9 -0.899,-0.602 v -1.499 l 1.2,-0.6 0.9,-0.6 0.9,-0.3 1.499,-1.5 v -1.5 l 1.5,-1.501 v -1.499 l 0.601,-0.901 0.299,-1.199 0.601,-0.9 h 1.5 l 0.899,-0.602 0.602,-0.898 0.898,-0.6 0.601,-0.901 h 1.5 l 0.899,0.301 h 2.101 v 4.2 l -0.601,0.9 -0.899,0.6 v 1.499 l 1.5,1.501 h 1.501 l 0.898,-0.6 0.601,-0.901 h 0.901 l 0.599,0.301 h 1.5 v 3.3 l 0.302,0.9 v 1.5 h 1.5 v -1.5 l -0.302,-0.6 v -0.6 l 3,-3 h 1.5 l 0.899,0.6 0.601,0.9 v 0.599 l 0.302,0.901 v 2.999 h 1.5 l -1.201,1.801 -0.299,1.2 0.598,0.599 0.902,0.602 0.598,0.9 0.9,0.6 0.6,0.3 h 0.9 l 4.502,-1.5 0.598,-0.901 0.9,-0.599 h 1.5 l 0.301,0.599 0.301,0.901 0.299,0.6 0.6,0.9 h 1.502 v 1.499 l 1.5,1.501 v 1.5 h -3.002 v 5.699 l 0.301,0.901 0.6,0.6 0.3,0.898 0.302,0.602 -0.602,1.2 -0.301,0.899 -0.6,0.901 v 3 h 1.502 l 0.898,0.3 0.602,0.599 0.898,0.301 0.6,0.3 v 1.5 l 0.901,0.599 0.599,0.901 v 3 l 0.9,0.6 0.6,0.9 v 1.5 h -4.498 v 2.7 l -4.502,-1.5 -0.599,0.9 -0.601,0.6 0.601,0.299 0.899,0.601 0.6,0.3 0.9,0.299 h 1.5 l -1.5,1.501 v 1.5 h -3 l -0.9,0.6 -0.6,0.9 1.5,1.5 -0.9,0.6 -0.6,0.899 h -3 v 1.2 h -3 l -0.9,-0.299 -0.6,-0.3 -0.9,-0.3 -0.6,-0.6 -0.9,-0.6 -0.6,-0.9 h -12 v 1.5 h -1.5 v 1.499 l 1.5,1.501 -0.9,0.6 -0.6,0.9 h -1.5 l -0.9,0.3 -1.2,0.599 -0.899,0.301 v 4.5 l -3,-3 -0.9,0.599 -1.2,0.301 -0.899,0.6 v -1.5 h -1.5 v -1.5 h -3 l -0.9,-0.301 -0.6,-0.299 -0.9,-0.6 -0.6,-0.301 h -1.5 l -0.9,0.601 -0.6,0.9 -3,3 h -4.5 l -0.601,0.6 -0.899,0.6 v 1.5 h -1.5 l -0.601,0.9 -0.899,0.599 h -1.5 l -1.5,-1.499 h -4.5 v 1.499 l 0.9,0.601 0.601,0.9 v 1.5 h -3.001 l -0.3,-0.9 -0.299,-0.6 -0.301,-0.9 -0.6,-0.601 h -1.5 l -0.6,-0.899 -0.899,-0.6 h -3.001 l -0.9,0.299 -0.898,0.601 -1.201,0.599 -0.6,-0.899 -0.899,-0.6 -0.601,-0.9 -0.9,-0.6 v -4.501 l -0.899,-0.599 -0.601,-0.9 h -1.5 l -0.9,-0.6 -0.6,-0.9 h -1.499 l -0.901,-0.6 -0.6,-0.9 h 1.501 v -3.001 h -1.501 l -0.899,-0.599 -0.601,-0.9 -1.5,1.499 h -1.5 l -0.9,-0.599 -0.599,-0.9 v -0.6 l -0.301,-0.9 v -1.5 l -0.6,0.9 -0.9,0.6 0.3,0.9 v 2.099 l -1.5,1.501 h -1.5 v -1.501 h -1.5 l 1.5,-1.499 -0.299,-0.6 v -0.9 h -1.5 l -1.501,-1.5 h -1.5 l -0.599,0.9 -0.901,0.6 h -1.499 v -3 h 1.499 v -1.501 h 1.5 v -2.999 l -0.599,-0.3 -0.901,-0.3 -0.6,-0.301 -0.898,-0.599 0.599,-0.601 0.9,-0.599 h -1.499 l -0.901,-0.3 h -0.599 l -0.901,-0.6 -6.599,-6.6 h -1.501 l -0.898,0.599 -0.602,0.601 h -1.5 l -0.6,-0.601 -0.3,-0.599 -0.3,-0.9 -0.6,-0.6 h -1.5 l 1.2,-0.6 0.9,-0.6 0.901,-0.301 1.499,-1.499 v -1.5 h 1.5 l -0.599,-0.901 -0.901,-0.599 1.5,-1.5 h 1.5 l 0.9,-0.6 0.6,-0.901 v -1.499 l 1.501,-1.5 h 1.499 v -1.5 h -1.499 v -1.5 l 1.499,-1.501 0.3,-0.899 1.2,-1.801 -1.2,-0.298 h -3.3 l -1.199,0.6 -0.901,0.6 -0.9,0.3 -1.5,1.499 v 1.501 h -1.499 v 1.5 h -1.501 l -0.9,-0.602 -0.6,-0.898 1.5,-1.501 0.301,-0.898 0.599,-0.9 0.3,-1.2 v -1.5 l -3,-3.001 v -1.499 l 0.9,-0.6 0.6,-0.9 -0.898,-0.6 -0.602,-0.9 -0.9,-0.602 -0.6,-0.898 v -4.5 l -0.298,-0.6 v -0.9 l 0.898,0.9 0.9,0.6 h 0.602 l 0.898,0.298 h 3.001 l 1.799,-1.2 1.2,-0.299 v -2.101 l -0.3,-0.899 0.6,-1.2 0.6,-0.9 0.3,-0.901 3,-2.999 h 9.3 l 0.6,-0.601 0.6,-0.899 h 1.8 l -0.3,-0.6 v -0.9 h -1.5 v -1.501 l 0.901,-0.599 0.599,-0.9 0.901,-0.6 0.599,-0.9 1.5,1.5 v 2.1 l 0.296,0.899 0,0 z" style="fill:#1f1f1f;stroke:white;stroke-width:1.20000005000000010;stroke-linejoin:bevel"/>
    <path id="path5422" d="m 466.081,181.506 -0.6,0.9 -0.9,0.6 -0.599,1.2 -0.302,0.9 -0.6,0.9 v 1.5 h 1.5 l 1.5,1.5 v 4.5 l -3,3 v 1.5 h 1.5 v 3 l -1.5,1.5 h -1.498 l -0.902,0.6 -0.598,0.9 h -4.502 l -0.9,0.599 -0.598,0.901 -0.902,0.6 -0.598,0.6 h -1.502 l -1.199,0.6 -0.899,0.6 -1.2,0.299 -0.301,1.2 -1.2,1.801 h -3 l -0.899,0.6 -0.899,0.299 -1.2,0.601 -0.9,0.599 -0.9,0.301 -1.2,0.6 -1.5,1.499 v 8.7 l 1.5,1.501 h 1.5 v 2.1 l 0.302,0.9 h -1.802 l 0.302,0.9 v 0.6 h 1.5 l 0.598,0.9 0.9,0.599 v 1.501 l -1.498,1.5 0.598,0.899 0.9,0.601 1.5,-1.5 h 3.002 l -1.502,1.5 v 1.5 h 7.5 v 1.499 l 0.6,0.901 0.902,0.6 0.598,-0.6 0.902,-0.6 h 1.498 v 4.2 h 1.5 v 2.999 l 0.301,1.202 1.799,2.699 0.902,0.601 -1.502,1.5 -0.898,-0.6 -0.602,-0.9 h -7.5 l -0.9,0.599 -0.6,0.901 h -1.498 v 1.499 l -0.902,0.602 -0.598,0.6 h -1.502 l -0.898,-0.6 -0.602,-0.9 -1.5,1.5 -0.9,0.6 -1.199,0.6 -0.898,0.299 h -3.002 l -0.599,0.901 -0.302,1.2 -0.6,0.9 h -1.498 v -1.5 h -1.5 v -1.501 h -4.502 v 5.701 l -0.6,1.2 -0.301,0.9 -0.598,0.899 v 1.501 h -1.5 l -0.602,0.899 -0.9,0.601 -1.5,1.5 v 1.5 l 0.9,0.6 0.6,0.899 v 1.501 h 1.502 l 1.5,-1.501 h 2.998 v 3.001 l 0.9,0.599 0.6,0.901 h 1.502 l 1.5,-1.5 0.898,-0.601 0.6,-0.899 h 3 l 1.502,1.5 v 6 l 0.898,0.6 0.602,0.9 -1.5,1.5 h -1.502 v -1.5 l -0.6,-0.3 -0.9,-0.6 -0.599,-0.3 -0.901,-0.3 -4.5,1.5 -0.6,-0.9 -0.9,-0.6 v -1.501 h -2.998 l -0.602,-0.299 h -2.4 l -1.5,-1.5 h -4.498 l -0.602,0.9 -0.9,0.6 v 1.499 l 0.9,0.301 0.602,0.6 0.898,0.299 0.602,0.301 2.998,3 -1.5,1.5 v 1.499 l -0.9,0.301 h -0.899 l -1.198,0.3 -2.701,0.9 -0.899,-0.301 h -0.601 l -3,3.001 h -4.5 l -0.6,0.899 -0.602,1.2 -0.299,0.901 -0.9,0.6 -0.6,0.899 h -1.5 l -0.9,0.601 -0.6,0.599 -0.899,-0.298 -0.601,-0.3 -0.9,-0.3 -0.6,-0.6 -0.9,-0.6 -0.6,-0.6 -0.9,-0.6 -0.6,-0.301 -0.9,-0.299 -0.6,-0.3 -1.5,-1.5 v -1.5 l 0.601,-0.9 0.899,-0.601 v -1.499 h -1.5 l -1.5,-1.5 0.6,-0.9 0.9,-0.6 h 3 v -1.5 l 1.5,-1.501 h -1.5 l -0.9,-0.299 -0.6,-0.3 -0.899,-0.602 -0.601,-0.298 0.601,-0.6 0.599,-0.9 4.502,1.5 v -2.7 h 4.498 v -1.5 l -0.6,-0.9 -0.9,-0.6 v -3 l -0.599,-0.901 -0.901,-0.599 v -1.5 l -0.6,-0.3 -0.898,-0.301 -0.602,-0.599 -0.898,-0.3 h -1.502 v -3 l 0.6,-0.901 0.301,-0.898 0.602,-1.2 -0.302,-0.601 -0.3,-0.899 -0.6,-0.6 -0.301,-0.901 v -5.699 h 3.002 v -1.5 l -1.5,-1.501 v -1.499 h -1.502 l -0.6,-0.9 -0.299,-0.6 -0.301,-0.901 -0.301,-0.599 h -1.5 l -0.9,0.599 -0.598,0.901 -4.502,1.5 h -0.9 l -0.6,-0.3 -0.9,-0.6 -0.598,-0.9 -0.902,-0.601 -0.598,-0.599 0.299,-1.2 1.201,-1.801 h -1.5 v -2.999 l -0.302,-0.901 v -0.599 l -0.601,-0.9 -0.899,-0.6 h 1.5 l 1.2,-0.6 0.9,-0.3 0.9,-0.601 h 1.499 l 0.901,-0.599 0.599,-0.9 v -1.5 l 0.899,-0.6 0.601,-0.9 1.5,-4.5 0.899,-0.6 0.602,-0.6 v -3 h -1.501 l -0.899,0.3 -0.9,0.6 -1.2,0.3 h -1.5 l -1.499,-1.5 v -3 h 0.898 l 0.601,0.299 h 3 v -1.499 h -1.5 v -1.5 l 1.5,-1.5 0.899,-0.602 1.201,-0.599 0.9,-0.3 h 4.499 l 0.899,-0.6 0.601,-0.901 h 1.501 l 1.499,1.501 h 1.5 v 1.5 h 3 l 1.501,1.5 v 2.999 l 1.2,-0.299 1.799,-1.2 h 1.5 l 1.2,-0.3 0.9,-0.6 0.9,-0.302 v -1.499 h -1.501 l -0.601,-0.901 -0.899,-0.599 3.001,-3 v -1.501 h -1.501 v -1.499 l 1.501,-1.5 h 1.499 l 0.901,0.3 0.599,0.298 0.899,0.602 0.601,0.3 1.5,1.499 v 4.501 l 0.899,0.3 0.602,0.298 0.898,0.602 0.601,0.3 h 7.5 l 0.901,-0.6 0.599,-0.9 0.899,-0.601 0.601,-0.899 v -1.2 h -0.601 l -0.899,-0.3 -1.5,-1.501 h -3 v -1.499 h -1.5 v -1.5 h 1.5 l 0.899,-0.601 0.602,-0.899 v -1.2 l -0.602,-0.9 -0.899,-0.901 -4.5,-1.499 -1.499,-1.5 h -1.501 v -3 h -1.5 v -4.5 h 1.5 l 3,2.999 0.3,0.901 0.602,0.6 0.299,0.9 0.3,0.6 2.399,2.4 0.601,0.899 h 6 l 1.5,-1.499 h 1.501 l 0.898,0.6 0.601,0.899 h 6.001 v -2.999 l -3.001,-3 h -1.5 l 0.899,-0.6 0.601,-0.901 v -1.499 h 1.5 l 1.501,1.499 h 1.499 l 0.901,-0.599 0.599,-0.9 v -3 h -2.999 v -1.5 h -1.501 v -1.501 l 1.2,-1.799 0.301,-1.2 h 1.799 l 0.602,0.9 0.898,0.6 0.6,0.298 h 0.902 l 1.5,1.501 h 1.498 l 0.6,-0.9 0.9,-0.602 h 1.5 l 0.9,-0.599 0.9,-0.3 1.201,-0.6 h 2.998 v -4.5 l 0.9,-0.6 0.6,-0.901 0.9,-0.599 0.602,-0.9 h 1.5 l 1.498,1.499 h 1.5 v 1.501 l 1.5,1.5 v 1.5 l 0.001,0 z" style="fill:#1f1f1f;stroke:white;stroke-width:1.20000005000000010;stroke-linejoin:bevel"/>
    <path id="path5426" d="m 492.117,511.806 h -6.834 l -0.901,-0.6 -1.199,-0.601 -0.9,-0.3 h -3 l -0.601,-0.901 -3.598,-3.6 h -1.502 l -1.5,1.501 h -1.5 l -0.6,0.6 -0.898,0.601 h -1.5 v 1.5 h -1.502 v 1.5 h -1.199 l -0.899,0.599 -0.601,0.901 -1.201,0.299 -0.899,0.602 -0.899,0.3 h -1.5 v -4.2 h -1.5 v 1.5 l -0.601,0.599 -0.899,0.602 -0.6,-0.602 -0.9,-0.599 0.299,-0.9 v -0.6 h -1.5 l -1.5,-1.5 h -4.5 l -0.598,-0.9 -0.902,-0.601 v -1.499 l -1.5,1.499 -0.6,-0.899 -0.6,-0.6 v -3 l 0.6,-0.602 0.9,-0.599 0.602,-0.9 0.898,-0.6 h -1.5 l -1.5,-1.501 1.5,-1.499 v -7.201 l 1.5,-1.499 -0.898,-0.6 -0.602,-0.9 0.602,-0.6 0.898,-0.601 0.3,-1.199 1.2,-1.801 1.501,-1.5 -1.2,-1.8 -0.301,-0.901 -1.5,-1.498 -0.6,-0.901 -0.299,-1.2 -0.602,-0.898 h -4.5 v -0.601 l 0.301,-0.899 h 1.2 v -1.502 h -7.201 l -1.499,-1.498 v -1.5 l 0.898,-0.602 0.601,-0.599 0.601,-0.9 0.899,-0.6 h 3 v -1.5 l -0.899,-0.601 -0.601,-0.9 v -2.699 h 3.001 l 0.6,-0.9 0.899,-0.6 0.601,-0.901 0.899,-0.599 0.899,-0.3 h 0.902 l 0.898,-0.302 h 0.899 l 0.901,-0.299 h 0.898 l 1.801,-0.6 h 0.9 l 0.6,0.3 0.602,-1.2 0.298,-0.899 0.601,-0.901 h 1.5 l 1.501,-1.499 h 2.999 l 1.5,-1.5 v -1.2 l 0.602,-0.9 0.898,-0.6 0.899,0.301 1.802,1.199 v 1.499 2.7 l 2.998,3.001 h 3 l 0.601,0.9 0.901,0.6 h 2.698 l 1.5,1.5 h 1.5 v 7.2 h 1.5 v 1.5 h 1.501 l 0.299,0.9 0.601,1.199 0.301,0.9 h 5.999 v 1.5 h 4.5 l 1.5,-1.5 v 2.099 l -0.3,0.901 h 4.5 l 0.899,-0.6 1.2,-0.302 0.9,-0.599 h 3" style="fill:#1f1f1f;stroke:white;stroke-width:1.20000005000000010;stroke-linejoin:bevel"/>
    <path id="path5430" d="m 504.782,471.306 h -3 l -0.9,0.599 -1.199,0.302 -0.9,0.6 h -4.5 l 0.3,-0.901 v -2.099 l -1.5,1.5 h -4.5 v -1.5 h -5.999 l -0.301,-0.9 -0.6,-1.199 -0.3,-0.9 h -1.5 v -1.5 h -1.5 v -7.2 h -1.5 l -1.5,-1.5 h -2.699 l -0.901,-0.6 -0.601,-0.9 h -3 l -2.998,-3.001 v -4.199 l -1.801,-1.199 -0.9,-0.301 v -3 l -1.2,-1.8 -0.3,-1.2 0.6,-0.6 0.9,-0.6 -1.5,-1.5 h -1.5 l -0.9,0.3 -1.199,0.6 -0.899,0.3 v -2.699 l -0.601,-0.9 -0.9,-0.6 v -4.5 l 0.9,-0.602 0.601,-0.599 h 2.999 l 9,-3 0.6,-0.601 0.9,-0.6 h 1.501 v -4.5 l 0.899,-0.6 0.899,-0.302 1.2,-0.599 h 4.199 l 0.9,-0.602 2.101,-2.099 v -1.501 l 1.199,-0.599 0.9,-0.3 0.9,-0.601 v -1.5 h 3.899 l 0.601,0.299 v -1.499 l -0.601,-0.901 -0.898,-0.599 h -4.201 v -1.5 l 0.6,-0.899 0.9,-0.601 v -3 l 1.501,-1.5 v -1.199 h 1.499 l 0.6,-0.9 0.9,-0.6 0.601,-0.9 0.899,-0.6 v -1.502 h 2.7 l 0.899,-0.599" style="fill:#1f1f1f;stroke:white;stroke-width:1.20000005000000010;stroke-linejoin:bevel"/>
    <path id="path5434" d="m 406.382,539.706 v -1.502 l -0.9,-0.599 -0.6,-0.899 v -1.2 l 0.6,-0.901 0.9,-0.599 0.6,-0.6 0.602,-0.9 h 1.498 l 0.9,-0.602 0.6,-0.898 v -2.701 l 1.5,-1.499 h 6 v -4.2 l -1.5,-1.5 h -1.498 l -0.902,-0.6 -0.6,-0.901 1.502,-1.499 h 1.498 l 0.6,0.9 0.9,0.599 h 4.2 v -1.198 h 7.5 v 1.5 h 2.7 v 2.699 h 1.501 l 0.599,-0.899 0.301,-0.901 0.6,-0.898 v -1.5 l 0.6,-0.9 0.301,-0.9 0.6,-1.2 v -1.199 l 0.602,-0.901 0.898,-0.599 v -1.5 l 1.5,-1.5 -0.6,-0.9 -0.301,-0.9 -0.6,-0.9 0.6,-0.899 1.801,-1.2 0.899,-0.301 1.2,-0.599 v 1.5 l 0.6,0.6 0.6,0.899 1.5,-1.499 v 1.499 l 0.9,0.601 0.6,0.9 h 4.5 l 1.5,1.5 h 1.5 v 0.6 l -0.299,0.9 0.9,0.599 0.6,0.602 0.899,-0.602 0.601,-0.599 v -1.5 h 1.5 v 4.2 h 1.5 l 0.899,-0.301 0.899,-0.601 1.201,-0.299 0.601,-0.901 0.899,-0.599 h 1.199 v -1.5 h 1.502 v -1.5 h 1.498 l 0.9,-0.601 0.6,-0.6 h 1.5 l 1.5,-1.501 h 1.502 l 3.598,3.6 0.601,0.901 h 3 l 0.9,0.3 1.199,0.601 0.901,0.6" style="fill:#1f1f1f;stroke:white;stroke-width:1.20000005000000010;stroke-linejoin:bevel"/>
  </g>
  <g id="layer5" transform="translate(-60.481875,-26.70498)">
    <g id="g4810">
      <g id="g5935" transform="matrix(1.25,0,0,1.25,415.18162,278.80623)"/>
      <g id="g5943" transform="matrix(1.25,0,0,1.25,95.681375,492.10623)"/>
      <g id="g5947" transform="matrix(1.25,0,0,1.25,71.08175,27.40498)">
        <path id="path5949" fill="#1f1f1f" stroke="red" stroke-width="1.12" d="M 0.72 0 L 1.44 0.721 L 3.6 2.161 L 3.6 2.88 L 3.36 3.601 L 3.12 4.561 L 3.12 5.281 L 2.64 6 L 2.401 6.481 L 1.44 7.92 L 1.2 8.641 L 0.72 9.121 L 0.481 9.841 L 0 10.561 L 0.72 10.801"/>
      </g>
      <g id="g5951" transform="matrix(1.25,0,0,1.25,89.381375,348.10623)"/>
      <g id="g5955" transform="matrix(1.25,0,0,1.25,61.181875,330.10623)"/>
      <g id="g5959" transform="matrix(1.25,0,0,1.25,104.08287,49.30623)"/>
      <g id="g5963" transform="matrix(1.25,0,0,1.25,551.08162,27.40498)"/>
      <g id="g5967" transform="matrix(1.25,0,0,1.25,61.181875,385.30623)"/>
      <g id="g5971" transform="matrix(1.25,0,0,1.25,61.181875,337.90623)"/>
    </g>
  </g>
</svg>