<?xml version="1.0" encoding="utf-8"?>
<svg width="532.79974" height="416.70126" viewBox="27.522 20.373 384.064 249.52" id="svg2" version="1.1" xmlns="http://www.w3.org/2000/svg">
  <g id="layer1" transform="translate(-70.240905,-438.414)" style="display:inline"/>
  <g id="layer2" style="display:inline" transform="translate(-48.514305,-21.444)">
    <g transform="translate(276.5151,21.924)" style="fill:transparent;fill-opacity:1;stroke:transparent;stroke-width:0.95999998;stroke-linecap:butt;stroke-linejoin:miter;stroke-opacity:1;stroke-dasharray:none" id="g5481"/>
    <g transform="translate(267.6341,21.924)" style="fill:transparent;fill-opacity:1;stroke:transparent;stroke-width:0.95999998;stroke-linecap:butt;stroke-linejoin:miter;stroke-opacity:1;stroke-dasharray:none" id="g5485"/>
    <g transform="translate(270.7541,44.964)" style="fill:transparent;fill-opacity:1;stroke:transparent;stroke-width:0.95999998;stroke-linecap:butt;stroke-linejoin:miter;stroke-opacity:1;stroke-dasharray:none" id="g5489"/>
    <g transform="translate(167.31511,42.085)" style="fill:transparent;fill-opacity:1;stroke:transparent;stroke-width:0.95999998;stroke-linecap:butt;stroke-linejoin:miter;stroke-opacity:1;stroke-dasharray:none" id="g5493"/>
    <g transform="translate(57.634005,21.924)" style="fill:transparent;fill-opacity:1;stroke:transparent;stroke-width:0.95999998;stroke-linecap:butt;stroke-linejoin:miter;stroke-opacity:1;stroke-dasharray:none" id="g5497"/>
    <g transform="translate(57.634005,30.565)" style="fill:transparent;fill-opacity:1;stroke:transparent;stroke-width:0.95999998;stroke-linecap:butt;stroke-linejoin:miter;stroke-opacity:1;stroke-dasharray:none" id="g5501"/>
    <g transform="translate(81.634105,89.125)" style="fill:transparent;fill-opacity:1;stroke:transparent;stroke-width:0.95999998;stroke-linecap:butt;stroke-linejoin:miter;stroke-opacity:1;stroke-dasharray:none" id="g5505"/>
    <g transform="translate(48.994305,30.565)" style="fill:transparent;fill-opacity:1;stroke:transparent;stroke-width:0.95999998;stroke-linecap:butt;stroke-linejoin:miter;stroke-opacity:1;stroke-dasharray:none" id="g5509"/>
    <g transform="translate(194.9141,196.405)" style="fill:transparent;fill-opacity:1;stroke:transparent;stroke-width:0.95999998;stroke-linecap:butt;stroke-linejoin:miter;stroke-opacity:1;stroke-dasharray:none" id="g5513"/>
    <g transform="translate(86.674105,275.365)" style="fill:transparent;fill-opacity:1;stroke:transparent;stroke-width:0.95999998;stroke-linecap:butt;stroke-linejoin:miter;stroke-opacity:1;stroke-dasharray:none" id="g5517"/>
    <g transform="translate(194.9141,290.485)" style="fill:transparent;fill-opacity:1;stroke:transparent;stroke-width:0.95999998;stroke-linecap:butt;stroke-linejoin:miter;stroke-opacity:1;stroke-dasharray:none" id="g5521"/>
    <g transform="translate(436.3551,92.725)" style="fill:transparent;fill-opacity:1;stroke:transparent;stroke-width:0.95999998;stroke-linecap:butt;stroke-linejoin:miter;stroke-opacity:1;stroke-dasharray:none" id="g5525"/>
    <g transform="translate(420.9941,124.165)" style="fill:transparent;fill-opacity:1;stroke:transparent;stroke-width:0.95999998;stroke-linecap:butt;stroke-linejoin:miter;stroke-opacity:1;stroke-dasharray:none" id="g5529"/>
    <g transform="translate(425.31511,237.924)" style="fill:transparent;fill-opacity:1;stroke:transparent;stroke-width:0.95999998;stroke-linecap:butt;stroke-linejoin:miter;stroke-opacity:1;stroke-dasharray:none" id="g5533"/>
    <g transform="translate(452.43511,311.365)" style="fill:transparent;fill-opacity:1;stroke:transparent;stroke-width:0.95999998;stroke-linecap:butt;stroke-linejoin:miter;stroke-opacity:1;stroke-dasharray:none" id="g5537"/>
    <g transform="translate(76.593905,220.165)" style="fill:transparent;fill-opacity:1;stroke:transparent;stroke-width:0.95999998;stroke-linecap:butt;stroke-linejoin:miter;stroke-opacity:1;stroke-dasharray:none" id="g5541"/>
    <g transform="translate(48.994305,208.884)" style="fill:transparent;fill-opacity:1;stroke:transparent;stroke-width:0.95999998;stroke-linecap:butt;stroke-linejoin:miter;stroke-opacity:1;stroke-dasharray:none" id="g5545"/>
    <g transform="translate(48.994305,224.964)" style="fill:transparent;fill-opacity:1;stroke:transparent;stroke-width:0.95999998;stroke-linecap:butt;stroke-linejoin:miter;stroke-opacity:1;stroke-dasharray:none" id="g5549"/>
    <path id="path4505" d="m 271.4751,45.205 0.47901,0 0.71999,0.24 0.721,0 0.719,0.24 0.48001,-0.24 0.721,0 0.47899,-0.24 1.2,0 0.481,0.48 0.23901,0.48 0.721,0.24 0.95999,0.24 0.96001,-0.24 0.719,-0.24 1.91999,0 0.96001,0.24 0.71999,0.24 2.40001,0 0.47999,0.239 0.72001,0.241 0.47999,0.48 0.48,0.239 0.72,0.481 0.481,0.48 0.479,0.24 0.72,0.48 0.721,0.72 0.47901,0.719 0.24,0.96 0.47999,0.96 0.48,0.241 0.72,0.48 0.96001,0.96 0.721,0.48 0.47899,0.48 0.72001,0.479 0.96,0.96 0.721,0.481 1.19999,1.2 0.23901,0.72 0.47999,0.72 0.72001,0.48 0.481,0.24 1.43899,0.96 0.481,0.48 0.47901,0.719 0.24,0.481 0.47999,0.479 0.48,0.721 0.96,0.96 0.24,0.48 0.72001,0.24 0.71999,0.48 0.48001,0.24 0.71999,0.48 0.72001,0.24 0.47999,0.48 0.72,0.24 0.721,0.479 0.479,0.241 0.481,0.48 0.719,0.48 1.92,1.92 0.48,0.72 0.48,0.24 2.16,0 0.72,-0.24 0.481,0 0.719,-0.24 0.48,0 0.721,0.24 0.719,0 0.72,0.24 0.721,0 0.719,0.24 0.72,0 0.72,0.24 0.96,-0.48 0.24,-0.24 0.72001,0 0.48,0.24 0.72,0.48 0.48,0.24 1.44,1.44 0.721,0.24 0.719,-0.24 2.161,0 0.719,0.24 0.481,0.24 0.96,0.96 0.719,0.239 0.95999,0 1.44001,-0.719 0.721,0 0.71899,0.24 0.72001,0 0.48,0.24 2.88,0.96 0.48,0.239 0.721,0.241 0.479,0.48 0.48,0.24 1.201,0.24 1.439,-0.72 0.72,-0.481 0.721,0 0.96,-0.479 0.239,-0.24 0.48,-0.241 0.72,-0.479 0.48,-0.24 0.48,-0.48 0.48,-0.24 0.72,-0.24 0.481,-0.241 2.159,-0.719 0.48,-0.241 1.441,-0.479 0.479,-0.48 0.72,-0.24 0.721,0.24 0.719,0.48 0.72,0.24 0.481,0.48 0.479,0.719 0.96,0.96 0.721,0.481 0.239,0.479 0.48,0.721 0.48,0.96 0,0.48 -0.239,0.72 0.479,0.96 0.96,0.96 0.24,0.48 0.96,0.96 0.48,0.96 -0.239,0.24 -0.241,0.48 -0.24,0.72 -0.479,0.479 -0.241,0.721 -0.719,0.72 -0.721,0.24 -0.48,0.48 -0.719,0.24 -1.441,0.96 -0.48,0.96 0,0.24 0.48,0.24 3.84,0 0.72,0.48 0.96,0.96 1.44,0.96 0.72,0.24 0.48,0 1.44,0.479 0.721,0.481 0.239,0.72 0,0.719 0.48,0.721 0.48,0.24 0.48,0.48 0.72,0.48 0.48,0.239 0.72,0.481 0.481,0.24 0.479,0.48 0.72,0.48 0.48,1.44 0.48,0.48 1.44,0.96 0.481,0.48 0.719,0.48 0.48,0.72 0.24,0.719 -0.24,0.241 -0.239,0.48 -0.481,0.48 -1.44,0.96 -0.48,0.24 -0.48,0.479 -0.48,0.961 0,0.72 0.241,0.479 0.479,0.241 0.481,0.48 0.71899,0.48 0.481,0.48 0.71901,0.48 0.48,0.24 0.721,0.479 1.92,1.921 0.239,0.48 0.721,0.48 1.439,1.44 0.721,0.48 0.479,0.48 0.481,0.24 0.47899,0.479 0.72001,0.481 1.44,1.44 0.48,0.24 0.47999,0.48 0.481,0.72 0.23901,0.48 0.24,0.239 0.24,0.481 -0.24,0.479 0,0.481 -0.47901,0.72 -0.24099,0.48 -0.48001,0.72 -0.479,0.96 0,0.96 0.23901,0.48 0.96099,0.96 0.71901,0.239 0.48,0.721 0.48,0.48 0.71999,0.48 0.24,0.48 0,0.72 -0.47999,0.48 -0.239,0.48 -1.92001,1.92 -0.721,1.44 0.24,0.24 0.481,0.72 0.47901,0.48 0.481,0.24 0.479,-0.24 0.71999,-0.48 0.96001,-0.96 0.24,-0.48 0.481,0 0.71899,0.239 0.48,0.241 0.961,0.96 0.719,0 1.44,-0.72 0.48,-0.481 0.48,-0.239 0.48,-0.721 -0.24,-0.479 -0.72,-0.481 -0.48,-0.96 0.48,-0.959 0.96,-1.44 0.241,-0.721 0.479,-0.479 0.481,-0.72 0.95901,-0.96 0.47999,-0.721 0.96,-0.959 0.48,-0.72 0.96,-0.96 0.48,-0.72 0.48,-0.48 0.48,-0.72 1.44,-1.441 0.481,-0.239 0.479,-0.48 0.72,-0.24 1.44,0.48 0.96,0.24 0.48,0.239 0.721,0.481 0.479,0.24 0.721,0.48 0.479,0.24 0.72,0.479 0.721,0.241 0.479,0.48 0.481,0.239 0.47901,0.481 0.481,0.72 0.23899,0.48 0.721,0.72 0.719,0.24 0.481,0.24 1.92,0 0.719,-0.24 1.44,0 0.96,-0.48 0.72001,-0.72 0.71999,-0.481 0.481,-0.479 0.719,-0.481 1.44,0 0.721,-0.239 0.479,0 0.72,-0.24 1.44,0 0.72,-0.24 0.48,1.44 0,0.96 0.48,0.96 0.24,0.24 1.2,0 0.72,-0.24 0.72,0 0.72,-0.24 1.201,0 0.479,0.48 0.24,0.48 -0.24,0.48 -0.479,0.48 -0.721,0.48 -0.239,0.48 -0.481,0.719 -0.24,0.481 -0.479,0.72 -0.481,0.48 -0.479,0.24 -0.241,0.48 -0.24,0.96 0,3.36 0.24,0.48 0.241,0.24 1.919,0 0.72,-0.24 0.72,0 0.48,-0.241 0.72,-0.719 0,-0.72 0.24,-0.481 0.241,-0.719 0,-0.72 0.239,-0.481 0,-0.719 0.24,-0.72 0.481,-0.96 0.479,-0.48 0.481,-0.241 2.16,0 0.719,-0.239 1.44,0 0.96,0.239 0.48,0.241 0.241,0.24 0.239,0.479 0,0.481 0.24,0.72 0,3.36 0.24,0.72 -0.24,0.48 -0.24,0.72 -0.48,0.48 -0.719,0.24 -0.481,0.24 -0.72,0.48 -0.96,0.48 0,1.2 0.241,0.72 0,0.48 0.239,0.239 0,0.721 -0.239,0.48 -0.481,0.48 -0.96,0.48 -0.479,0.959 0,4.561 0.239,0.48 0.721,0.72 0.239,0.48 -0.48,0.719 -0.48,0.481 -1.439,0.479 -0.721,0.481 -0.48,0.24 -0.24,0.72 0,1.2 0.24,0.72 0,0.719 0.241,0.481 0,0.72 0.239,0.719 0,1.441 0.24,0.72 0,2.16 -0.24,0.48 0,0.72 -0.239,0.72 0,0.48 -0.241,0.72 0,0.72 0.241,0.48 0,0.48 0.239,0.48 0.24,0.24 0.96,0 0.96,-0.48 0.96,-0.24 0.96,0 0.48,0.24 0.241,0.48 0,0.48 0.239,0.48 0,0.239 0.48,0.241 0.72,0 0.72,0.24 0.72,0 0.48,0.24 0.48,0.96 0,0.72 0.241,0.72 0,1.2 0.239,0.719 0.24,0.96 0.24,0.721 0,0.72 0.241,0.72 0,0.719 0.239,0.721 0,0.72 0.24,0.719 0,1.681 0.24,0.48 0,0.719 0.241,0.721 0,0.48 -0.241,0.72 -0.48,0.96 -1.44,1.44 -0.719,0.48 -0.721,0.239 -0.96,0.241 -0.96,0.96 0,2.879 0.24,0.481 0,0.72 0.241,0.719 0,1.201 0.239,0.96 0.24,0.72 0.481,0.72 0.479,1.439 0,0.96 0.24,0.481 0,3.12 -0.719,0.96 -2.641,2.64 -0.72,0.48 -0.479,0.239 -0.721,0.481 -0.96,0.24 -0.479,0 -0.721,-0.48 -1.44,-0.48 -0.48,-0.48 -2.88,-0.96 -0.96,-0.241 -0.72,-0.239 -0.48,-0.24 -0.239,-0.24 -0.241,-0.48 -0.48,-1.44 -0.96,-0.96 -2.88,-0.96 -0.72,0 -2.16,-0.72 -1.2,0 -0.48,0.239 -0.72,0 -1.44,0.481 -2.16,0 -0.479,0.24 -0.481,0 -0.479,0.239 -0.481,0.481 -0.24,0.48 -0.479,0.72 0,0.72 -0.241,0.719 0,4.801 -0.24,0.72 0,3.6 0.24,0.48 0,0.72 0.241,0.719 0,1.441 0.479,0.96 0.48,0.479 0.96,0 0.72,0.241 0.481,0 0.719,0.719 0.241,0.481 0,0.48 0.239,0.72 0.24,0.479 0.24,0.721 0.241,0.48 0.479,0.719 0,0.721 -0.96,0.48 -3.84,0 -0.48,0.24 -0.72,0.24 -0.72,0.48 -0.48,0.24 -1.68,0 -0.479,0.24 -0.241,0.48 -0.24,0.72 0,2.4 0.481,0.48 1.439,0.72 0.72,0.24 0.721,0.48 0.479,0.96 0,0.72 0.24,0.72 0,0.72 0.241,0.719 -1.441,0 -0.72,0.241 -0.71899,0 -0.481,0.24 -0.72001,0 -0.71999,0.24 -1.44,0 -0.719,0.239 -0.721,0 -0.72001,0.241 -0.47899,0 -0.721,0.24 -1.44,0 -0.72001,0.24 -0.71999,0 -0.72001,0.239 -0.47999,0 -0.72001,0.241 -1.43899,0 -0.721,0.24 -0.72001,0 -0.719,0.24 -0.24099,-0.24 -0.48001,-0.24 -0.47999,-0.96 -0.24,-0.241 -0.96001,-0.479 -0.47899,0 -1.44101,0.479 -0.96,0.96 -0.48,0.721 -0.239,0.48 -0.96,0.959 -1.201,0.241 -2.63999,0 -0.48001,-0.241 -0.719,-0.239 -0.95999,-0.96 -0.96001,-0.48 -2.161,0 -0.71999,-0.24 -0.24,-0.241 -0.24001,-0.479 0,-0.96 -0.24,-0.72 0,-1.44 -0.24,-0.48 -0.239,-0.24 -0.241,-0.48 -0.96,0 -0.48,0.24 -0.72,0.24 -0.72,0.72 -0.48,0.719 -0.239,0.481 -0.241,0.72 -0.24,0.24 -0.96,0.24 -0.719,0.239 -1.441,0 -0.72,0.241 -2.16,0 -0.96,-0.96 -0.96,-0.48 -0.24,-0.24 -0.24,-0.481 0,-0.479 -0.239,-0.481 -0.96,-0.479 -0.241,-0.48 0,-1.44 0.48,-0.24 0.721,0 0.239,0.479 0.721,0.481 0.479,0.24 0.48,-0.24 0.72,-0.72 0.24,-0.721 0.241,-0.479 0,-0.72 0.239,-0.48 0.48,-1.44 0.48,-0.72 0,-1.68 -0.239,-0.481 0,-1.439 0.239,-0.96 0,-0.481 -0.96,0 -0.48,0.241 -1.44,0 -0.479,-0.241 -0.721,-0.719 -0.239,-0.48 -0.481,0 -0.479,-0.24 -0.481,-0.48 0.24,-0.96 0,-1.44 -0.24,-0.48 0,-1.44 -0.24,-0.96 -0.48,-0.961 -0.24,-0.239 -0.72,-0.24 -0.48,0 -0.72,-0.24 -0.24,0 -0.479,-0.48 0,-0.48 0.479,-0.96 1.681,-1.68 0.479,-0.96 0,-1.2 -0.24,-0.24 -0.48,-0.241 -0.72,0.241 -0.72,0.48 -0.479,0.48 -0.721,0.24 -0.72,0.48 -0.479,0.48 -0.481,0.24 -1.68,0 -0.24,-0.24 -0.24,-0.48 0,-1.68 -0.48,-0.72 -0.24,-0.72 0,-1.681 0.24,-0.479 0,-0.72 0.24,-0.48 0,-1.2 -0.24,-0.48 -0.959,-0.48 -0.96,0 -0.721,-0.241 -2.159,0.721 -0.721,0 -2.16,0.72 -0.72,0 -0.479,0.24 -0.721,0.48 -1.44,0.48 -0.48,0.24 -2.16,0.72 -0.48,0.24 -1.44,0 -0.239,-0.72 -0.481,-0.48 -0.24,-0.721 -0.48,-0.479 -0.24,-0.481 -0.96,-0.479 -0.719,-0.24 -0.481,0 -0.72,-0.241 -0.719,0 -0.721,-0.239 -0.72,0 -1.44,-0.721 -0.48,-0.479 -0.24,-0.481 -0.479,-0.479 -0.481,-0.72 -0.24,-0.48 -0.72,-0.72 -0.96,-0.48 -0.72,0 -0.48,-0.241 -0.72,0.241 -1.44,0 -0.48,0.24 -0.719,0.24 -0.721,0 -1.44,0.48 -0.48,0.24 -0.72,0.24 -0.96,0.24 -1.44,1.44 -0.72,0.48 -0.479,0.48 -0.481,0.719 -0.72,0.481 -0.48,0.479 -0.48,0.241 -1.44,0.48 -0.96,0.239 -0.96,0 -1.439,-0.96 -0.481,0 -0.72,-0.239 -0.72,0 -0.72,-0.24 -0.72,0 -0.719,-0.24 -0.721,0 -0.72,-0.241 -0.72,0 -0.48,-0.239 -0.72,0 -0.72,-0.24 -0.72,0 -0.72,-0.24 -0.72,0 -0.719,-0.241 -0.721,0 -0.72,-0.239 -0.479,0 -0.721,-0.24 -0.72,0 -1.44,-0.481 -0.48,-0.479 -1.44,-0.48 -0.48,-0.24 -0.719,-0.48 -0.721,-0.24 -0.48,-0.241 -0.72,-0.479 -0.72,-0.24 -0.479,-0.241 -0.721,-0.239 -0.72,0 -0.96,-0.24 -0.72,0.24 -0.72,0 -1.44,0.48 -0.719,0 -0.721,0.24 -0.72,0 -0.96,0.24 -0.72,0.239 -0.96,0.241 -0.959,0 -0.481,-0.48 -2.16,-0.721 -0.96,-0.239 -1.68,0 -0.48,0.239 -0.72,0 -0.72,0.241 -1.44,0.96 -3.6,0 -0.48,0.24 -0.72,0 -1.439,0.96 -0.96,0.96 -0.721,0.48 -0.48,0.48 -0.48,0.24 -0.479,0.479 -0.721,0.481 -0.48,0.479 -0.719,0.241 -0.721,0.48 -5.52,0 -0.96,-0.48 0,-0.48 -0.24,-0.48 -0.24,-0.96 0,-3.12 -0.239,-0.48 -1.681,0 -0.479,0.239 -0.481,0.481 -0.24,0.72 -0.239,0.48 0,1.439 0.719,2.161 0.241,0.48 0,1.2 -0.241,0.24 0,0.72 -0.24,0.72 0,2.88 -0.479,0.96 -1.441,0.96 -0.479,0.24 -0.241,0.96 0,1.2 0.48,0.239 1.44,0 0.96,0.481 0,0.72 0.241,0.719 0,0.961 0.479,0.96 0.24,0.239 0.24,0.481 0.96,0.479 1.44,0.481 0.721,0 1.439,0.479 0.96,0.481 0.24,0.479 0.24,0.96 0,0.481 -0.24,0.72 0,0.48 -0.24,0.72 -0.479,0.48 -0.481,0.239 -0.72,0.241 -0.48,0.24 -0.72,0.24 -0.72,0 -1.44,0.48 -0.72,0 -0.719,0.48 -0.481,0.48 -0.479,0.24 -0.96,0.96 -0.721,0.48 -0.48,0.72 -0.24,0.479 0,0.481 -0.24,0.72 0,2.4 1.44,1.44 0.72,0.24 0.72,0.48 0.48,0.239 1.44,0.96 0.48,0.241 0.72,0.48 0.48,0.239 1.44,0.96 0.48,0.241 0.72,0.719 0,0.241 0.24,0.24 -0.24,0.48 0,0.48 -0.24,0.48 -0.239,0.72 -0.481,0.479 -0.24,0.481 -0.239,0.96 -0.241,0.72 0.241,0.48 0,0.48 0.239,0.48 0,0.96 -0.239,0.72 0,0.48 -0.241,0.72 0,0.479 0.241,0.481 0.479,0.24 0.72,0 0.48,0.239 0.72,0.241 0.72,0 0.72,0.24 0.72,0 0.96,0.479 0,1.921 -0.24,0.48 0,0.719 -0.239,0.721 0,1.44 -0.241,0.48 0,0.72 -0.24,0.72 0,0.72 -0.96,2.88 0,0.72 -0.48,1.44 0,0.72 -0.24,0.72 0,0.48 -0.24,0.72 -0.24,0.479 0,0.721 -0.24,0.72 -0.23901,0.479 -0.241,0.721 -0.23999,0.48 -0.24001,0.72 -0.48,0.96 0,0.72 0.241,0.24 0.239,0.48 0.721,0.48 0.47901,0.48 0.72001,0.48 0.47999,0.72 0.24,0.24 0.24099,0.48 0,1.2 -0.24099,0.719 0,0.721 -0.24,0.72 -0.24,0.96 0,0.479 -0.24,0.481 -0.48001,0.48 -0.47999,0.72 -0.23901,0.24 -0.95999,0.239 -0.721,0 -0.72001,-0.239 -3.35999,0 -0.72,-0.24 -1.439,0 -0.721,-0.24 -0.72,0 -1.44,-0.48 -0.72,0 -0.72,-0.24 -0.719,0 -0.721,-0.24 -0.72,0 -1.439,-0.481 -0.721,0 -1.43899,-0.479 -0.481,-0.24 -1.43901,-0.48 c 0,0 -0.481,-0.24 -0.481,-0.24 l -0.72001,-0.24 -0.719,-0.48 -0.48099,-0.24 -0.72,-0.24 -0.48,-0.241 -1.439,-0.479 -0.481,-0.24 -0.72,-0.241 -0.719,0 -0.721,-0.239 -1.44,0 -0.72,-0.24 -1.199,0 -0.481,0.24 -0.72,0.239 -0.48,0.241 -0.72,0.24 -0.72,0.479 -0.48,0.241 -1.439,0.48 -0.48099,0.48 -1.43901,0.48 -0.481,0.239 -0.72,0.481 -0.719,0.24 -0.481,0.239 -0.71999,0.241 -0.72001,0.48 -0.48,0.24 -0.719,0.24 -0.481,0.48 -2.15999,0.72 -0.48001,0 -0.72,0.24 -0.72,0 -1.439,0.479 -0.721,0 -0.72,0.241 -0.47899,0 -1.441,0.48 -0.72,0 -0.72001,0.239 -0.72,0 -0.479,0.241 -0.721,0 -2.159,0.719 -0.721,0 -0.47999,0.241 -2.16001,0.719 -0.48,0.241 -2.159,0.72 -0.48099,0.24 -2.16,0.72 -0.479,0.239 -1.441,0.481 -0.72,0 -0.719,0.24 -1.441,0 -0.719,0.239 -2.161,0 -0.719,-0.239 -2.161,0 -0.72,-0.24 -1.199,0 -0.721,-0.24 -2.159,0 -0.721,-0.241 -0.48,-0.239 -0.72,-0.24 -0.72,0 -0.72,-0.24 -0.48,-0.24 -2.159,-0.72 -0.481,-0.24 -0.72,-0.241 -0.72,0 -0.72,-0.239 -0.479,-0.24 -2.161,-0.72 -0.48,-0.24 -0.72,-0.24 -0.72,0 -0.72,-0.241 -0.48,-0.239 -1.44,-0.48 -1.44,0 -0.719,0.24 -0.721,0 -0.72,0.24 -0.48,0.239 -0.72,0.241 -0.72,0 -2.16,0.719 -0.72,0 -0.48,0.241 -1.439,0.48 -0.721,0 -2.159,0.72 -0.481,0 -0.72,0.24 -1.44,0 -0.72,0.24 -2.639,0 -0.721,0.24 -3.359,0 -0.721,0.24 -0.48,-0.24 -0.719,0 -0.241,-0.48 -0.48,-1.44 -0.48,-0.96 -0.48,-0.48 -0.72,-0.24 -0.719,0.24 -1.441,0 -0.72,-0.24 -0.24,-0.24 -0.24,-0.48 -0.239,-0.721 0,-0.719 -0.481,-0.96 0,-0.481 0.24,-0.479 0,-0.481 0.48,-0.719 0.48,-0.48 0,-0.48 0.241,-0.48 -0.241,-0.48 -0.48,-0.72 -0.72,-0.72 -0.479,-0.24 -1.441,0 -1.44,0.48 -0.72,0 -0.72,0.24 -0.719,0 -1.441,0.48 -0.479,0.239 -0.481,0 -0.24,0.481 0,0.96 0.24,0.96 0,0.96 -0.48,0.96 -0.239,0.24 -0.96,0.48 -0.721,0 -0.72,0.24 -0.479,0.24 -0.721,0 -0.72,0.24 -0.72,0 -0.72,0.239 -0.72,0 -0.72,0.241 -0.48,0.24 -0.72,0 -0.72,0.24 -0.719,0 -0.721,0.239 -0.72,0 -0.48,0.241 -0.239,0.24 -0.481,0.96 0,0.479 -0.24,0.241 0,0.24 -0.239,0.24 -0.721,0.48 -0.48,0 -0.719,-0.241 -0.96,-0.479 -1.921,-1.92 0,-0.481 -0.239,-0.479 -0.481,-1.44 -0.24,-0.96 -0.96,-0.48 -0.72,-0.24 -0.96,-0.24 -0.72,-0.241 -0.719,0 -1.441,-0.479 -0.719,0 -0.481005,-0.24 -0.72,-0.241 -0.719,0 -0.721,-0.239 -0.72,0 -0.96,-0.721 -0.48,-0.479 -0.48,-0.24 -0.48,-0.48 -0.48,-0.24 -0.719,-0.24 -0.481,-0.24 -0.72,-0.24 -0.719,0 -1.441,-0.48 -0.48,-0.24 -0.72,0 -2.16,-0.72 -0.48,0 -0.719,-0.24 -0.721,0 -0.72,-0.241 -1.44,0 -0.48,-0.239 -0.719,0 -0.721,-0.24 -0.72,0 -0.72,-0.24 -0.719,0 -0.721,-0.241 -0.2402,-0.239 -0.2393,-0.48 0,-0.72 0.2393,-0.481 0,-0.719 0.4805,-0.48 0.2397,-0.48 0.48,-0.481 0.48,-0.719 0.72,-0.72 0.24,-0.72 0,-0.96 -0.24,-0.48 0,-0.72 -0.24,-0.96 -0.239,-0.48 -0.241,-0.72 -0.24,-0.481 -0.24,-0.719 -0.239,-0.48 -0.4807,-0.721 -0.4805,-0.96 -0.2393,-0.719 -0.4804,-0.48 -0.2403,-0.72 0,-0.96 0.2403,-0.48 1.4399,-0.721 3.6,-1.199 2.16,0 0.72,-0.24 1.44,0 0.48,-0.481 0,-0.719 -0.239,-0.72 -0.241,-0.48 0,-0.72 -0.719,-0.72 -0.481,-0.721 -0.24,-0.239 -0.48,-0.24 -0.24,-0.72 0,-10.08 0.24,-0.721 0.48,-0.96 0,-0.719 0.24,-0.48 0,-2.64 0.24,-0.96 0.241,-0.48 0.719,-0.721 0,-0.719 -0.24,-0.72 -0.72,-0.72 -0.48,-0.72 -0.48,-0.241 -0.72,-0.239 -0.48,0.239 -0.48,0 -0.72,-0.239 -0.479,-0.24 -0.241,-0.481 0,-0.719 0.48,-1.44 0,-0.721 0.48,-1.439 0.48,-0.48 0,-0.96 -0.96,-0.96 0,-0.72 0.24,-0.72 0,-0.721 0.24,-0.719 0.241,-0.48 0,-0.72 0.719,-2.161 0.241,-0.96 0.479,-1.439 0.24,-0.48 0.72,-0.48 0.721,0 0.719,-0.48 0.48,-0.48 0.24,-0.48 0.481,-0.48 0.479,-0.96 0.24,-0.721 0.48,-0.479 0.24,-0.481 0.481,-0.479 0.479,-0.24 0.721,-0.48 0.719,-0.72 1.44,-0.48 2.16,0 0.72,0.239 0.72,0 0.72,-0.239 0.96,-0.24 0.72,-0.24 0.721,-0.48 0.719005,-1.44 0,-1.201 0.241,-0.719 0,-0.48 -0.241,-0.48 0,-2.88 0.241,-0.481 0,-0.719 0.239,-0.48 0.24,-0.72 0,-0.48 0.24,-0.721 0,-0.719 0.48,-0.96 0.48,-0.241 0.24,0 0.72,1.441 0,0.72 0.24,0.72 0,0.48 0.241,0.719 0,1.441 -0.721,1.439 0,0.96 0.24,0.721 0,0.72 0.24,0.48 0.48,0.48 0.48,0.24 0.48,-0.24 0.24,-0.48 0.481,-1.44 0.239,-0.96 0.24,-0.481 0.481,-1.439 0.96,-0.96 0.479,-0.72 1.44,-1.44 0.48,-0.72 0.96,-0.96 0.96,-1.92 0.24,-0.24 0.481,-0.24 0.719,0.719 0.241,0.481 0.239,0.24 0.48,0.239 0.24,0.481 1.68,0 0.72,-0.24 0.96,-0.48 0.48,-0.721 3.84,-3.839 0.481,-0.241 0.239,-0.479 0.48,-0.72 0.241,-0.721 0.479,-0.719 0.96,-0.48 1.44,0 0.72,-0.24 0.481,-0.24 0.479,-0.48 0.481,-1.44 0,-1.2 0.239,-0.72 0,-0.72 0.24,-0.721 0,-1.439 0.24,-0.721 0,-1.679 -0.24,-0.48 -0.96,-0.48 -0.479,0 -0.481,-0.241 -0.24,-0.479 0,-0.24 -0.239,-0.72 0,-3.36 -0.241,-0.72 0,-4.08 -0.24,-0.72 0,-0.721 -0.24,-0.96 -0.24,-0.719 0,-1.68 -0.239,-0.24 -0.241,-0.481 -0.48,0 -0.48,-0.239 0,-0.48 -0.24,-0.72 0,-1.441 1.2,-1.199 0,-0.96 -0.719,-2.16 -0.481,-0.48 -0.72,-2.161 -0.24,-0.959 0,-2.161 -1.2,0 -0.48,-0.479 0,-0.481 -0.24,-0.479 0,-1.92 0.481,-0.48 0.239,-0.48 0.48,-0.48 0.72,-0.241 0.481,-0.479 0.479,-0.24 0.72,-0.48 0.48,-0.24 1.441,-0.481 0.479,-0.239 1.441,-0.48 0.479,-0.241 0.72,-0.239 0.721,-0.48 0.479,-0.241 1.44,-0.479 0.48,-0.24 0.24,0.24 0.24,0.72 0.48,0 0.721,-0.241 0.479,-0.719 0.481,-0.48 0.719,-0.48 0.48,-0.72 0.48,-0.48 0.48,-0.241 0.24,-0.239 0.24,0 0.481,-0.48 1.439,-0.48 0.481,-0.48 1.439,-0.48 0.481,-0.24 0.719,-0.481 1.441,-0.479 0.479,-0.48 1.441,-0.48 0.479,-0.24 0.72,-0.481 0.721,-0.239 0.719,-0.48 0.48,-0.72 1.921,-1.92 0.479,-0.72 0.481,-0.48 0.719,-0.48 0.96,0 0.72,-0.24 0.96,-0.24 0.721,-0.481 1.199,-1.199 0,-0.96 -0.48,-0.24 -0.96,-0.24 -1.44,-0.48 -0.72,0 -0.719,-0.24 -0.481,-0.24 -0.479,-0.48 0,-0.96 -0.241,-0.48 -0.719,-0.72 -3.601,0 -0.72,-0.24 -1.92,0 -0.48,-0.24 -0.48,-0.48 -0.48,-0.24 -0.72,-0.481 -0.96,-0.479 -0.719,-0.24 -0.721,0 -0.48,-0.241 -0.719,0 -0.721,-0.239 -0.72,0 -0.719,-0.24 -0.721,0 -0.48,-0.24 -0.24,-0.48 -0.24,-0.24 -0.48,-1.44 -0.48,-0.96 -0.239,-0.241 -0.96,-0.479 -0.721,-0.72 -0.239,-0.48 -0.241,-0.96 -0.24,-0.48 0.24,-0.96 0.241,-0.48 0.479,-0.72 0.24,-0.48 0.48,-0.48 0.48,-0.721 0.72,-0.479 0.481,0 0.479,0.24 0.24,0.239 0.241,0.481 0.719,0.72 1.2,0 0.96,-0.96 0.72,-0.48 1.441,-1.44 0.719,-0.48 0.48,-0.24 0.721,0 0.479,0.24 0.721,0.239 0.239,0.241 0.48,0.96 0.241,0.96 0,0.48 1.439,0.72 0.72,-0.24 0.96,-0.96 0.48,-0.72 0.48,-0.481 0.48,-0.719 0.24,-0.241 0.96,-0.479 0.72,0.24 0.481,0 0.479,0.239 0.24,0.481 0,1.92 -0.24,0.479 0.481,0.96 0.719,-0.239 0.48,-0.721 0.24,-0.479 0.24,-0.72 0.48,-0.48 0.48,0 0,0.48 0.24,0.48 0,1.679 0.48,0.961 0,1.44 0.96,0.48 0.48,0 0.48,-0.48 0.48,-0.96 0.241,-0.72 0.239,-0.96 0.24,-0.721 0.481,-0.719 0.239,-0.48 0.96,-0.48 0.48,-0.72 0.24,-0.72 0.96,-0.96 0.48,-0.24 0.24,-0.721 0.24,-0.479 0.241,-0.72 0,-0.721 0.239,-0.479 0.24,-0.72 0.481,-0.48 0.239,-0.72 0.48,-0.72 0.48,-0.48 0.48,-0.72 0.241,-0.48 0.479,0.24 0.96,0.96 0.721,0.48 0.479,0.24 0.72,0.48 0.48001,0.479 0.71999,0.481 0.48101,0.479 0.719,0.241 0.48,0.48 0.72,0.48 0.48,0.48 0.72099,0.239 0.479,0.481 1.44101,0.96 0.47899,0.48 0.72,0.24 0.48001,0.48 0.72,0.24 0.721,-0.24 1.43899,0 0.96001,0.96 0.72,0.479 0.47999,0.481 0.96001,0.479 0.72,0.241 0.721,0 0.71899,0.24 0.72,0 0.72,0.24 0.72101,0 0.71899,0.239 0.72,0 0.72,0.481 0.48,0.24 0.72,0.239 0.48,0.481 0.72,0.24 0.481,0.48 0.239,0.72 1.44,1.44 0.48,0.719 0.24,0.481 0.72,0 0.72,0.24 0.48,-0.48 0.48,-0.241 0.72,-0.479 0.481,-0.481 0.479,-0.239 0.72,-0.48 1.44,-1.44 0.241,-0.48 0.479,-0.481 0,-0.96 -0.96,-0.96 -0.479,-0.239 -0.241,-0.24 -0.24,-0.481 0,-1.679 0.24,-0.48 0.48,-0.72 0.48,-0.48 0.72,-0.48 0.48,-0.72 0.96,-0.481 0.48,-0.479 0.24,-0.481 -0.24,-0.719 0,-2.16 -0.239,-0.48 0,-0.48 -3.361,-3.36 -0.48,-0.96 0,-1.68 0.24,-0.72 0,-1.2 0.24,-0.48 0.241,-0.721 0.479,-0.719 0.481,-1.441 0.239,-0.479 0.961,-2.88 0.479,-0.96 0.72,-0.48 0.96,-0.96 0.721,-0.241 0.479,-0.239 0.72,-0.24 1.2,0 0.721,-0.481 0.479,-0.239 0,-0.48 -0.24,-0.48 -0.239,-0.24 -0.961,0 -0.72,-0.24 -0.24,0 0,-1.201 0.24,-0.479 0.96,-0.96 0.721,-0.48 0.479,-0.48 0.72,-0.48 1.44,-1.44 0.241,-0.721 0.479,-0.479 0.481,-0.72 0.239,-0.48 0,-2.64 0.24,-0.721 0.481,-0.239 0.719,0 0.96,0.48 1.441,-0.48 0.479,-0.24 0.72,-0.481 1.44,-0.479 0.48,-0.24 0.72,-0.48 2.161,-0.72 0.479,-0.24 0.72,-0.48 2.16,-0.72 0.48,-0.48 2.161,-0.72 0.719,-0.481 0.48,-0.239 2.16,-0.721 0.48,-0.479 0.72,0 0.72,-0.24 1.44,0 2.161,-0.72 0.719,0 5.76,-1.92 1.44,-0.721 0.96,-1.439 0.96,-0.96 0.72,-0.481 0.96,-0.479 2.88,0 0.721,-0.24 0.719,-0.48 0.72,-0.24 0.481,0 2.879,0.96 0.241,0.479 0.239,0.241 0,0.48 -0.239,0.48 -0.721,0.48 -0.48,0.96 0.48,0.96 0.721,0.239 1.199,0 0.96,-0.479 0.48,-0.96 0.241,-0.72 0.239,-0.48 0.24,-0.72 0.24,-0.96 0.48,-0.24 0.24,-0.48 0.721,-0.48 0.479,-0.24 0.72,0.24 0.48,0 0.72,0.24 0.96,0.48 0.481,0.48 0.719,0.479 0.48,0.241 0.48,0.48 0.72,0.239 c 0,0 0.72099,0.241 0.721,0.241 z" style="fill:transparent;fill-opacity:1;stroke:transparent;stroke-width:0.95999998;stroke-linecap:butt;stroke-linejoin:miter;stroke-opacity:1;stroke-dasharray:none"/>
  </g>
  <g id="layer3" style="display:inline;opacity:0.40799997" transform="translate(-48.514305,-21.444)">
    <path style="fill:none;stroke:white;stroke-width:0.80000001px;stroke-linecap:butt;stroke-linejoin:miter;stroke-opacity:1" d="M 128.435 179.365 L 133.671 181.007 L 133.146 172.026 L 133.862 170.044 L 137.517 170.778 L 138.703 172.171 L 137.963 175.999 L 135.953 180.107 L 136.899 181.597 L 139.084 181.721 L 156.398 184.088 L 161.184 189.568 L 169.122 190.604 L 169.883 197.91 L 176.748 200.387 L 190.503 201.852 L 193.982 208.776 L 193.721 214.023 L 190.907 220.119 L 186.459 226.224 L 177.636 227.549 L 180.943 240.584 L 169.74 243.281 L 167.211 249.017 L 170.683 254.555 L 180.978 255.362 L 184.716 264.179 L 183.771 290.145" id="path4529"/>
    <path style="fill:none;stroke:white;stroke-width:0.80000001px;stroke-linecap:butt;stroke-linejoin:miter;stroke-opacity:1" d="m 254.1941,213.685 -1.78544,0.32881 -0.0829,1.90661 -8.77954,-0.019 -1.77416,-4.58685 -12.20541,-0.47838 -3.92131,1.35906 -5.78706,2.60059 -4.39161,2.43657 -0.7483,-2.18528 -2.12213,0.7778 -0.52809,2.03528 -5.97349,0.68067 -3.25236,-5.19898 -9.12123,0.68137" id="path4533"/>
    <path style="fill:none;stroke:white;stroke-width:0.80000001px;stroke-linecap:butt;stroke-linejoin:miter;stroke-opacity:1" d="M 190.503 201.852 C 191.672 201.321 192.834 200.773 193.988 200.208 C 194.654 199.882 195.317 199.551 195.978 199.213 L 195.676 196.407 L 206.005 192.008 L 206.966 194.215 L 210.878 192.824 L 210.33 190.073 L 208.688 188.15 L 206.035 187.984 L 203.242 184.237 L 206.499 180.33 L 209.542 179.529 L 213.402 177.209 L 215.104 175.108 L 217.86 176.066 L 220.785 179.229 L 222.985 178.885 L 219.99 154.177 L 217.22 154.914 L 217.286 151.875 L 220.971 150.878 L 227.103 151.082 L 234.823 150.393 L 237.668 151.507 L 240.317 147.821 L 241.673 144.76 L 245.875 143.41 L 244.402 141.314 L 242.555 135.928 L 236.053 132.518 L 230.435 132.805 L 228.336 136.242 L 225.874 139.045 L 221.315 130.884 L 218.914 129.205 L 211.954 127.765 L 210.754 119.844 L 204.034 118.405 L 202.834 113.605 L 196.114 108.565 L 187.558 100.498" id="path4537"/>
    <path style="fill:none;stroke:white;stroke-width:0.80000001px;stroke-linecap:butt;stroke-linejoin:miter;stroke-opacity:1" d="M 282.947 196.716 L 293.299 177.363 L 293.685 164.064 L 290.855 159.323 L 293.905 154.975 L 297.953 157.198 L 299.999 153.831 L 300.772 148.788 L 298.905 145.152 L 305.403 144.394 L 313.107 146.443 L 319.305 146.621 L 319.791 149.184 L 323.164 149.852 C 323.588 148.924 324.034 148.007 324.502 147.101 C 324.988 146.16 325.497 145.232 326.029 144.318 L 329.929 144.982 L 328.768 149.821 L 332.17 149.562 L 336.429 147.941 L 340.95 150.339 L 343.633 153.705 L 346.372 158.171 L 343.681 162.044 L 339.117 166.297 L 336.257 171.162 L 338.519 175.85 L 345.138 178.939 L 352.646 180.983 C 353.539 178.352 354.346 175.69 355.064 173.006 C 355.675 170.725 356.222 168.427 356.705 166.115 L 356.324 159.233 L 376.311 169.666 L 373.163 151.539 L 379.828 155.363 L 391.782 147.134 L 397.475 138.805" id="path4516"/>
    <path style="fill:none;stroke:white;stroke-width:0.80000001px;stroke-linecap:butt;stroke-linejoin:miter;stroke-opacity:1" d="m 319.30468,146.62112 c 0.0256,-0.14204 0.0511,-0.28407 0.0767,-0.42611 0.21488,-1.19384 0.42967,-2.3877 0.64438,-3.58157 l -0.78982,-10.57679 2.02061,-4.71229 4.57535,-5.65025 3.84131,-3.59104 -1.11658,-7.33955 -0.60265,-9.12139 2.87062,-3.384991 2.90053,-4.259826 -5.00084,-4.026418 1.76858,-3.181087 15.79294,1.673152 1.92364,-1.922623 0.0647,-7.715337" id="path4524"/>
    <path style="fill:none;stroke:white;stroke-width:0.80000001px;stroke-linecap:butt;stroke-linejoin:miter;stroke-opacity:1" d="m 293.90492,154.97485 0.17701,-4.75663 -3.00517,-2.14091 -1.90599,-2.18786 -1.21961,-5.12056 -2.88182,-7.58421 -1.05648,-8.62234 1.81402,-5.0437 -3.35599,-2.31446 -0.0645,-4.02691 1.69648,-6.20517 -10.75305,-5.47878 -4.21372,8.06802 -3.12449,3.54141 -4.19182,-3.05435 -0.81066,-5.61631 -2.10115,-7.061479 -3.63813,-3.655394 -5.63107,1.380417 -0.037,6.267636 -3.4787,1.55575 -4.4693,-4.849241 -2.63869,-7.950753 -3.22905,-3.968789 3.49085,-4.247601 0.30647,-6.345671 -3.06292,-6.859871 L 225.63411,54.325" id="path4528"/>
  </g>
  <g id="layer4" style="display:inline"/>
</svg>