<?xml version="1.0" encoding="utf-8"?>
<svg viewBox="42.879 55.07 401.21 209.095" xmlns="http://www.w3.org/2000/svg">
  <g id="layer1" transform="matrix(1, 0, 0, 1, -17.769257, 16.930855)"/>
  <g id="layer2" style="display:inline" transform="matrix(1, 0, 0, 1, -17.769257, 16.930855)">
    <g transform="translate(460.8686,86.658)" style="fill:red;fill-opacity:1;stroke:red;stroke-width:0.95999998;stroke-linecap:butt;stroke-linejoin:miter;stroke-dasharray:none;stroke-opacity:1" id="g5289"/>
    <g transform="translate(102.0686,21.858)" style="fill:#fefee9;fill-opacity:1;stroke:red;stroke-width:0.95999998;stroke-linecap:butt;stroke-linejoin:miter;stroke-dasharray:none;stroke-opacity:1" id="g5293"/>
    <g transform="translate(57.429201,21.858)" style="fill:#fefee9;fill-opacity:1;stroke:red;stroke-width:0.95999998;stroke-linecap:butt;stroke-linejoin:miter;stroke-dasharray:none;stroke-opacity:1" id="g5297"/>
    <g transform="translate(352.8686,21.858)" style="fill:#fefee9;fill-opacity:1;stroke:red;stroke-width:0.95999998;stroke-linecap:butt;stroke-linejoin:miter;stroke-dasharray:none;stroke-opacity:1" id="g5301"/>
    <g transform="translate(352.8686,29.057)" style="fill:#fefee9;fill-opacity:1;stroke:red;stroke-width:0.95999998;stroke-linecap:butt;stroke-linejoin:miter;stroke-dasharray:none;stroke-opacity:1" id="g5305"/>
    <g transform="translate(376.3896,86.658)" style="fill:#fefee9;fill-opacity:1;stroke:red;stroke-width:0.95999998;stroke-linecap:butt;stroke-linejoin:miter;stroke-dasharray:none;stroke-opacity:1" id="g5309"/>
    <g transform="translate(93.668601,29.057)" style="fill:#fefee9;fill-opacity:1;stroke:red;stroke-width:0.95999998;stroke-linecap:butt;stroke-linejoin:miter;stroke-dasharray:none;stroke-opacity:1" id="g5313"/>
    <g transform="translate(371.3496,215.538)" style="fill:#fefee9;fill-opacity:1;stroke:red;stroke-width:0.95999998;stroke-linecap:butt;stroke-linejoin:miter;stroke-dasharray:none;stroke-opacity:1" id="g5317"/>
    <g transform="translate(114.3086,179.298)" style="fill:#fefee9;fill-opacity:1;stroke:red;stroke-width:0.95999998;stroke-linecap:butt;stroke-linejoin:miter;stroke-dasharray:none;stroke-opacity:1" id="g5321"/>
    <g transform="translate(64.868701,179.057)" style="fill:#fefee9;fill-opacity:1;stroke:red;stroke-width:0.95999998;stroke-linecap:butt;stroke-linejoin:miter;stroke-dasharray:none;stroke-opacity:1" id="g5325"/>
    <g transform="translate(106.1486,191.538)" style="fill:#fefee9;fill-opacity:1;stroke:red;stroke-width:0.95999998;stroke-linecap:butt;stroke-linejoin:miter;stroke-dasharray:none;stroke-opacity:1" id="g5329"/>
    <g transform="translate(49.028801,25.938)" style="fill:#fefee9;fill-opacity:1;stroke:red;stroke-width:0.95999998;stroke-linecap:butt;stroke-linejoin:miter;stroke-dasharray:none;stroke-opacity:1" id="g5333"/>
    <g transform="translate(49.028801,64.818)" style="fill:#fefee9;fill-opacity:1;stroke:red;stroke-width:0.95999998;stroke-linecap:butt;stroke-linejoin:miter;stroke-dasharray:none;stroke-opacity:1" id="g5337"/>
    <g transform="translate(49.028801,34.097)" style="fill:#fefee9;fill-opacity:1;stroke:red;stroke-width:0.95999998;stroke-linecap:butt;stroke-linejoin:miter;stroke-dasharray:none;stroke-opacity:1" id="g5341"/>
    <g transform="translate(61.269001,145.698)" style="fill:#fefee9;fill-opacity:1;stroke:transparent;stroke-width:0.95999998;stroke-linecap:butt;stroke-linejoin:miter;stroke-dasharray:none;stroke-opacity:1" id="g5345"/>
    <path style="display:inline;fill:none;stroke:transparent;stroke-width:0.95999992;stroke-linecap:butt;stroke-linejoin:miter;stroke-dasharray:none;stroke-opacity:1" d="M 460.39 87.137 L 459.909 87.858 L 459.669 88.338 L 459.189 89.057 L 458.709 89.538 L 458.229 90.978 L 457.989 91.458 L 457.749 92.178 L 457.749 92.658 L 457.51 93.137 L 457.029 93.858 L 456.309 94.578 L 455.829 95.298 L 455.589 95.778 L 454.869 96.498 L 454.149 96.978 L 453.909 97.698 L 453.43 98.178 L 453.189 99.137 L 452.709 100.578 L 452.229 101.538 L 451.749 102.017 L 451.269 102.017 L 450.789 101.778 L 450.549 101.538 L 450.309 100.818 L 450.309 100.097 L 449.829 99.137 L 449.829 96.978 L 449.589 96.738 L 449.109 96.738 L 448.629 97.218 L 448.39 97.698 L 448.149 98.418 L 447.669 98.898 L 446.949 99.137 L 446.709 98.898 L 446.709 96.978 L 446.949 96.498 L 446.949 95.778 L 446.709 95.538 L 446.229 95.298 L 445.51 95.057 L 444.549 95.057 L 444.069 95.298 L 443.829 95.538 L 443.35 96.258 L 442.869 96.738 L 442.39 97.458 L 441.909 97.938 L 441.189 98.418 L 440.709 98.658 L 440.229 98.418 L 439.51 98.178 L 439.269 97.938 L 439.269 97.458 L 439.029 96.498 L 438.549 95.538 L 437.589 95.057 L 436.39 95.057 L 435.43 95.538 L 434.709 96.017 L 433.269 97.458 L 432.549 97.938 L 432.069 98.418 L 430.869 98.418 L 430.629 98.178 L 430.149 97.218 L 429.189 96.738 L 428.229 97.218 L 427.51 97.938 L 427.269 98.418 L 427.029 99.137 L 426.549 99.618 L 426.309 100.097 L 426.069 101.057 L 426.309 101.538 L 426.549 102.498 L 426.789 102.978 L 427.51 103.698 L 428.229 104.178 L 428.709 104.418 L 428.949 104.898 L 428.949 105.378 L 429.43 106.818 L 429.669 107.057 L 430.629 107.538 L 431.35 107.778 L 431.829 107.778 L 432.549 108.017 L 433.269 108.017 L 433.989 108.258 L 434.709 108.258 L 435.189 108.498 L 435.909 108.498 L 436.39 108.738 L 436.869 109.218 L 437.589 109.458 L 438.069 109.938 L 439.029 110.418 L 439.51 110.418 L 440.229 110.658 L 443.829 110.658 L 444.549 110.898 L 445.269 110.898 L 445.51 111.137 L 445.989 112.097 L 445.989 112.578 L 446.229 113.057 L 446.47 113.298 L 446.949 113.538 L 448.39 114.017 L 449.35 114.017 L 450.789 114.498 L 451.269 114.738 L 451.51 114.977 L 451.269 115.698 L 450.069 116.898 L 449.35 117.378 L 447.909 117.858 L 446.709 117.858 L 445.269 119.298 L 444.789 120.017 L 444.309 120.498 L 443.589 120.977 L 441.909 122.658 L 441.43 122.898 L 439.989 123.378 L 439.51 123.858 L 438.069 124.338 L 437.589 124.578 L 436.869 125.057 L 436.39 125.298 L 435.669 125.538 L 434.949 126.017 L 434.47 126.258 L 433.029 126.738 L 432.549 127.218 L 431.829 127.458 L 431.589 127.698 L 431.35 127.698 L 430.869 127.938 L 430.39 128.658 L 429.43 129.618 L 428.949 130.338 L 428.47 130.818 L 427.749 131.057 L 427.269 131.057 L 427.029 130.338 L 426.789 130.097 L 426.069 130.338 L 425.35 130.818 L 424.869 131.057 L 421.269 132.258 L 420.549 132.738 L 420.069 132.977 L 418.629 133.458 L 418.149 133.698 L 417.43 134.178 L 416.949 134.418 L 416.47 134.898 L 415.749 135.137 L 415.51 135.618 L 415.269 136.338 L 415.269 136.818 L 415.029 137.538 L 415.269 138.258 L 415.269 138.738 L 415.51 138.977 L 415.51 139.218 L 415.749 139.458 L 416.709 139.458 L 416.949 139.698 L 416.949 141.618 L 417.189 142.578 L 417.43 143.298 L 417.909 144.017 L 418.39 145.458 L 418.629 145.938 L 418.869 146.658 L 419.35 147.378 L 419.35 147.858 L 419.109 148.338 L 418.39 149.057 L 418.149 149.538 L 417.909 150.498 L 418.149 150.977 L 418.149 151.458 L 418.39 151.938 L 418.629 152.178 L 419.589 152.658 L 419.589 154.338 L 419.829 154.818 L 419.829 155.538 L 420.069 156.258 L 420.069 156.977 L 420.309 157.698 L 420.309 160.818 L 420.549 161.538 L 420.549 165.858 L 420.789 166.338 L 420.789 166.818 L 421.029 167.057 L 422.949 168.017 L 423.189 168.498 L 423.189 170.178 L 422.949 170.898 L 422.949 172.097 L 422.709 172.818 L 422.709 173.538 L 422.47 174.258 L 422.47 175.458 L 421.989 176.898 L 421.51 177.378 L 421.029 177.618 L 420.309 177.618 L 419.589 177.858 L 418.869 177.858 L 417.909 178.338 L 417.43 179.057 L 416.949 180.498 L 416.47 180.738 L 415.989 181.218 L 415.51 181.938 L 415.029 182.418 L 414.309 182.898 L 413.35 183.858 L 412.629 184.338 L 412.39 185.057 L 411.909 185.538 L 411.43 185.778 L 410.709 186.258 L 408.549 186.258 L 408.309 186.017 L 407.829 185.778 L 407.35 184.818 L 407.109 184.578 L 406.629 184.338 L 406.149 184.338 L 405.909 184.578 L 404.949 186.498 L 404.47 186.977 L 403.989 187.698 L 402.069 189.618 L 401.589 190.338 L 401.109 190.818 L 400.869 191.298 L 400.39 192.738 L 399.909 193.218 L 399.669 193.938 L 399.43 194.898 L 399.189 195.618 L 398.949 196.097 L 398.709 196.338 L 397.989 196.097 L 397.51 195.137 L 397.269 194.418 L 397.269 192.017 L 397.51 191.778 L 397.749 191.298 L 397.989 191.057 L 397.989 190.578 L 397.749 189.858 L 397.749 189.378 L 397.51 188.658 L 397.51 187.938 L 397.269 187.458 L 397.269 186.738 L 397.029 186.258 L 396.549 185.778 L 396.069 186.017 L 395.589 186.498 L 395.589 187.218 L 395.35 187.698 L 395.35 188.418 L 394.869 189.858 L 394.629 190.818 L 394.629 196.338 L 394.39 196.818 L 394.39 197.538 L 394.149 198.017 L 393.189 198.977 L 392.47 199.218 L 391.51 199.218 L 390.789 199.458 L 388.629 199.458 L 387.909 199.218 L 387.189 199.218 L 386.47 199.458 L 384.309 200.898 L 384.069 201.378 L 383.589 201.618 L 383.109 202.097 L 382.869 202.578 L 382.629 203.298 L 382.39 203.778 L 381.909 204.498 L 381.669 204.738 L 381.43 205.218 L 380.709 205.698 L 380.229 206.178 L 379.51 206.178 L 378.789 206.658 L 378.549 207.137 L 377.589 210.017 L 377.35 210.977 L 377.109 211.458 L 377.109 212.178 L 376.869 212.898 L 376.869 213.618 L 376.39 215.057 L 376.39 215.538 L 375.909 215.298 L 375.189 214.818 L 374.709 214.578 L 374.47 214.097 L 374.47 211.458 L 374.229 210.977 L 374.229 210.738 L 373.51 210.017 L 373.029 209.298 L 372.549 208.818 L 372.309 208.338 L 371.829 207.618 L 371.35 206.658 L 371.35 205.698 L 370.869 204.738 L 370.629 204.498 L 370.149 204.498 L 367.989 205.938 L 366.789 205.938 L 365.829 205.698 L 365.109 205.458 L 364.149 205.458 L 362.709 205.938 L 362.229 206.178 L 361.749 206.658 L 361.749 207.137 L 361.51 207.858 L 361.51 208.338 L 361.749 209.298 L 361.749 210.017 L 361.989 210.738 L 361.989 211.458 L 361.51 211.938 L 361.029 212.178 L 360.309 212.418 L 359.589 212.418 L 358.149 212.898 L 357.669 213.137 L 357.189 214.097 L 357.189 214.818 L 356.949 215.298 L 356.709 215.538 L 356.229 215.778 L 355.51 215.778 L 354.549 215.298 L 353.829 214.818 L 353.589 214.338 L 353.109 213.618 L 352.629 212.658 L 352.149 212.418 L 351.669 212.418 L 350.949 212.658 L 350.47 212.898 L 349.749 213.137 L 349.269 213.378 L 348.549 213.378 L 347.829 213.618 L 347.109 213.618 L 346.629 213.858 L 345.909 213.858 L 345.189 214.097 L 344.709 214.578 L 343.989 215.057 L 343.269 215.778 L 342.549 217.218 L 342.549 218.898 L 343.029 219.858 L 343.269 220.097 L 343.749 220.338 L 344.47 220.578 L 345.43 220.578 L 345.669 220.818 L 345.909 221.298 L 345.909 222.498 L 345.669 222.977 L 345.669 223.458 L 345.43 223.698 L 344.949 223.938 L 343.51 223.938 L 343.029 224.178 L 342.309 224.178 L 341.35 224.418 L 340.869 224.658 L 340.629 225.137 L 340.629 226.578 L 340.869 226.818 L 341.109 227.538 L 341.589 228.498 L 341.589 231.378 L 342.549 232.338 L 342.549 232.818 L 342.069 233.298 L 341.35 233.538 L 340.629 233.538 L 339.669 234.017 L 339.43 234.498 L 339.43 238.338 L 338.949 239.298 L 338.47 239.298 L 337.749 239.538 L 337.269 239.538 L 336.549 239.778 L 335.109 239.778 L 334.39 240.017 L 333.669 240.017 L 332.949 240.258 L 332.47 240.258 L 331.749 240.498 L 331.029 240.498 L 330.309 240.738 L 329.589 240.738 L 328.869 240.977 L 327.43 240.977 L 326.949 241.218 L 326.229 241.218 L 325.51 241.458 L 324.789 241.458 L 324.069 241.698 L 323.35 241.698 L 322.629 241.938 L 321.909 241.938 L 320.949 241.698 L 320.229 241.458 L 319.749 241.218 L 314.709 239.538 L 313.749 239.057 L 313.269 239.057 L 312.309 239.298 L 311.589 239.538 L 310.629 240.017 L 310.149 239.778 L 308.47 238.097 L 307.749 237.618 L 307.269 237.378 L 305.829 236.418 L 305.35 236.178 L 304.869 236.178 L 304.149 235.938 L 302.47 235.938 L 301.749 236.178 L 300.549 236.178 L 299.829 236.418 L 298.869 236.898 L 298.629 237.137 L 298.149 237.378 L 297.669 238.338 L 297.189 238.818 L 296.949 239.538 L 296.47 240.017 L 296.229 240.498 L 295.749 241.218 L 295.51 241.698 L 295.029 243.137 L 294.549 243.618 L 294.309 244.097 L 293.829 244.818 L 293.589 245.298 L 292.629 246.258 L 290.709 246.738 L 289.749 246.498 L 289.269 246.498 L 288.789 246.258 L 288.069 245.778 L 287.589 245.538 L 286.869 245.298 L 286.149 244.578 L 285.669 243.858 L 285.43 243.137 L 284.949 242.658 L 284.709 241.938 L 284.229 240.977 L 283.989 240.738 L 283.51 240.498 L 283.029 240.017 L 282.309 239.778 L 281.35 239.298 L 280.149 238.097 L 279.43 237.858 L 278.709 237.858 L 277.989 237.618 L 276.789 237.618 L 276.069 237.378 L 275.109 237.618 L 274.39 237.858 L 274.149 238.578 L 274.149 239.057 L 273.909 239.538 L 273.669 239.778 L 271.749 239.778 L 271.029 240.017 L 264.789 240.017 L 263.829 239.538 L 263.35 238.818 L 263.109 238.097 L 263.109 237.618 L 263.35 236.898 L 263.35 235.698 L 263.109 235.218 L 263.109 234.977 L 262.629 234.258 L 262.149 233.778 L 262.149 233.298 L 261.909 232.818 L 262.629 231.378 L 262.869 230.658 L 263.35 230.178 L 264.309 228.738 L 264.309 228.498 L 264.549 227.778 L 264.549 226.338 L 263.829 224.898 L 262.39 223.458 L 262.149 222.977 L 261.909 222.738 L 261.43 221.778 L 261.43 221.298 L 261.189 220.818 L 261.189 220.338 L 260.709 219.378 L 260.229 218.658 L 259.989 218.418 L 259.269 218.178 L 258.549 218.418 L 257.589 218.658 L 256.869 218.898 L 256.39 218.658 L 255.909 218.178 L 255.189 217.698 L 254.949 217.218 L 254.47 216.498 L 253.989 216.017 L 253.749 215.538 L 252.789 214.097 L 252.549 213.378 L 252.069 212.898 L 251.829 212.178 L 251.35 211.458 L 250.869 210.977 L 250.869 210.738 L 250.629 210.258 L 250.149 209.538 L 249.43 208.097 L 249.43 207.618 L 250.39 207.137 L 251.109 206.898 L 251.589 206.658 L 252.309 206.178 L 253.029 205.938 L 253.51 205.698 L 254.229 205.218 L 254.709 204.977 L 255.43 204.258 L 255.43 203.538 L 255.669 203.057 L 255.669 201.378 L 255.43 200.898 L 255.189 199.938 L 254.47 197.778 L 254.229 197.298 L 253.749 197.057 L 253.029 196.818 L 252.309 197.057 L 251.35 197.057 L 249.909 197.538 L 248.709 197.538 L 247.989 197.298 L 247.51 197.057 L 247.029 196.578 L 246.309 196.338 L 244.629 196.338 L 243.669 196.097 L 242.949 195.618 L 242.709 195.137 L 241.749 194.178 L 241.269 193.938 L 240.789 193.938 L 240.069 194.178 L 238.629 194.898 L 238.39 195.137 L 238.149 195.618 L 238.149 198.258 L 237.669 198.498 L 237.43 198.738 L 236.47 198.977 L 234.789 198.977 L 234.549 198.258 L 234.069 198.017 L 233.589 198.017 L 232.869 198.498 L 232.39 198.977 L 232.39 201.378 L 232.149 202.097 L 232.149 202.578 L 231.189 203.057 L 230.709 203.057 L 230.229 202.818 L 229.749 202.338 L 229.51 201.858 L 229.51 201.378 L 229.749 201.137 L 230.47 199.698 L 230.47 199.218 L 230.709 198.498 L 230.709 195.137 L 230.47 194.658 L 230.229 194.418 L 229.989 193.938 L 228.069 193.938 L 227.35 194.178 L 224.949 194.178 L 224.229 194.418 L 223.749 194.418 L 223.029 194.658 L 222.309 195.137 L 221.35 195.618 L 220.869 195.378 L 220.149 194.898 L 219.669 194.418 L 219.43 193.938 L 219.189 193.698 L 218.949 193.218 L 218.47 192.977 L 217.749 193.458 L 217.029 193.698 L 216.549 194.178 L 216.069 194.418 L 215.35 194.898 L 213.909 194.898 L 213.43 194.658 L 212.709 194.658 L 211.989 194.418 L 210.55 194.418 L 209.829 194.178 L 209.109 194.178 L 208.629 193.938 L 207.189 193.938 L 206.47 193.698 L 205.749 193.698 L 204.789 193.218 L 204.069 192.498 L 203.829 192.017 L 203.829 188.418 L 203.589 188.178 L 203.109 187.938 L 200.949 187.218 L 200.47 186.977 L 199.989 186.498 L 199.989 186.017 L 199.749 185.057 L 199.749 182.178 L 199.269 181.218 L 198.789 180.977 L 198.069 180.738 L 197.109 180.498 L 196.149 180.498 L 193.989 179.778 L 192.069 179.778 L 191.35 179.538 L 189.189 179.538 L 188.47 179.298 L 187.749 179.298 L 187.269 179.538 L 185.829 179.538 L 184.39 180.017 L 183.909 180.258 L 182.47 180.738 L 181.989 181.218 L 181.269 181.458 L 180.789 181.938 L 180.309 182.898 L 180.309 183.618 L 179.589 185.057 L 175.989 186.258 L 175.029 186.977 L 174.55 187.458 L 174.309 187.938 L 173.829 188.178 L 173.589 188.418 L 172.149 188.418 L 171.43 188.178 L 170.949 187.938 L 170.47 187.458 L 170.229 186.738 L 170.229 186.258 L 169.749 185.298 L 169.51 185.057 L 169.269 184.578 L 168.789 184.338 L 167.589 184.338 L 166.629 185.057 L 166.149 185.538 L 165.669 186.498 L 165.43 187.218 L 165.43 187.698 L 164.949 188.178 L 164.47 188.178 L 163.749 187.938 L 163.269 187.698 L 162.55 186.258 L 162.55 185.778 L 161.589 185.538 L 161.109 185.538 L 160.39 185.298 L 156.789 185.298 L 156.069 185.057 L 155.35 185.057 L 154.629 184.818 L 154.149 184.818 L 153.669 185.057 L 152.949 185.298 L 152.47 185.298 L 151.029 185.778 L 150.55 186.017 L 149.109 186.498 L 148.629 186.738 L 147.189 187.698 L 146.949 187.938 L 146.709 188.658 L 146.47 189.137 L 146.47 189.618 L 146.229 190.097 L 143.829 190.097 L 143.109 189.858 L 142.39 189.858 L 135.909 187.698 L 134.949 187.698 L 134.229 187.458 L 119.589 187.458 L 118.869 188.178 L 118.869 188.658 L 118.39 190.097 L 118.39 190.578 L 117.909 191.538 L 117.189 191.778 L 116.47 191.538 L 114.309 191.538 L 112.869 191.538 L 112.149 191.298 L 108.55 191.298 L 107.829 191.057 L 104.229 191.057 L 103.51 190.818 L 99.909 190.818 L 99.189 190.578 L 95.589 190.578 L 94.869 190.338 L 94.149 190.338 L 93.669 190.097 L 92.949 189.618 L 91.51 189.137 L 90.789 188.658 L 90.55 188.178 L 90.069 187.698 L 89.829 186.977 L 88.869 186.017 L 87.669 182.418 L 87.189 181.938 L 86.709 180.498 L 86.229 180.017 L 85.989 179.298 L 85.269 179.538 L 84.789 179.778 L 84.55 180.017 L 83.829 180.258 L 83.109 180.738 L 82.39 180.977 L 81.909 180.977 L 81.43 180.498 L 80.709 180.017 L 79.989 179.298 L 79.51 179.057 L 79.029 179.298 L 78.789 179.538 L 78.069 180.498 L 77.588 181.458 L 77.109 182.178 L 76.869 182.658 L 76.628 183.378 L 76.389 183.858 L 75.909 184.578 L 75.669 184.818 L 74.949 185.298 L 74.469 185.298 L 73.989 185.057 L 72.789 183.858 L 72.309 182.898 L 71.349 181.938 L 70.628 181.698 L 70.149 181.218 L 69.189 180.738 L 68.709 180.977 L 67.269 181.458 L 66.309 181.698 L 65.588 181.698 L 64.869 181.938 L 64.628 181.218 L 64.628 180.738 L 64.869 180.258 L 65.109 179.538 L 65.588 178.818 L 66.069 177.858 L 65.588 176.898 L 65.588 175.938 L 65.829 175.218 L 65.829 174.977 L 65.349 174.498 L 62.469 173.538 L 61.509 173.057 L 61.269 172.818 L 61.269 172.338 L 61.749 171.378 L 62.229 170.658 L 62.469 170.178 L 63.429 168.738 L 63.669 168.258 L 64.149 167.778 L 64.869 165.618 L 64.869 164.898 L 65.109 164.418 L 65.109 160.338 L 65.588 159.858 L 66.069 159.137 L 68.469 156.738 L 69.189 156.258 L 69.429 155.778 L 70.389 154.818 L 70.628 154.338 L 71.588 152.898 L 72.069 152.418 L 72.309 151.698 L 74.469 149.538 L 75.189 149.057 L 75.669 148.818 L 76.389 148.818 L 77.109 149.057 L 77.829 149.057 L 78.309 149.538 L 78.55 150.258 L 78.309 150.738 L 78.309 151.938 L 78.55 152.418 L 79.029 153.137 L 79.51 154.097 L 79.51 154.818 L 79.749 155.298 L 79.989 156.017 L 79.989 156.498 L 80.229 156.738 L 80.47 157.218 L 81.189 156.977 L 81.669 156.498 L 82.39 156.017 L 82.629 155.538 L 83.109 155.057 L 83.589 154.338 L 84.069 153.858 L 84.309 153.378 L 84.789 152.898 L 85.029 152.178 L 85.269 151.698 L 85.749 150.977 L 86.229 150.498 L 86.709 150.258 L 87.43 150.017 L 88.629 150.017 L 89.35 149.778 L 90.069 149.778 L 90.55 149.298 L 91.269 148.818 L 91.749 148.338 L 92.229 147.618 L 92.709 147.137 L 93.669 145.698 L 94.39 145.938 L 97.269 145.938 L 97.749 145.698 L 98.229 144.977 L 100.149 143.057 L 100.869 142.578 L 101.35 142.097 L 101.829 141.858 L 102.309 141.378 L 103.029 140.898 L 103.989 140.418 L 104.709 140.178 L 105.43 140.418 L 105.669 140.658 L 106.149 141.618 L 106.629 141.858 L 107.35 142.338 L 108.069 142.578 L 109.989 142.578 L 110.229 142.338 L 110.709 141.378 L 111.43 141.137 L 111.909 140.658 L 113.35 140.178 L 113.829 139.698 L 114.55 139.458 L 115.269 138.977 L 115.989 138.738 L 116.47 138.258 L 117.909 137.778 L 118.39 137.298 L 119.109 137.057 L 119.829 136.578 L 120.55 136.338 L 121.029 135.858 L 122.47 135.378 L 123.189 134.898 L 123.189 134.418 L 123.43 133.938 L 123.669 133.218 L 123.669 132.017 L 124.149 130.578 L 124.39 130.097 L 125.35 129.137 L 125.829 128.898 L 128.949 128.898 L 129.909 129.137 L 130.39 129.378 L 130.629 129.618 L 131.35 130.578 L 131.35 130.818 L 131.589 131.298 L 132.069 131.538 L 133.989 131.538 L 134.709 131.298 L 136.149 131.298 L 136.869 131.057 L 138.069 131.057 L 138.789 130.818 L 139.51 130.818 L 140.47 130.338 L 141.189 129.858 L 141.189 129.378 L 141.43 128.898 L 141.43 124.338 L 140.709 123.618 L 138.55 122.898 L 138.309 122.418 L 138.069 122.178 L 138.309 121.458 L 138.789 120.738 L 140.709 118.818 L 141.43 118.578 L 143.589 116.418 L 143.829 115.698 L 143.829 114.977 L 144.069 114.498 L 144.309 113.778 L 144.309 113.057 L 144.55 112.338 L 144.55 111.618 L 144.789 111.378 L 144.789 110.898 L 144.55 110.418 L 144.55 109.938 L 144.069 109.218 L 144.309 108.498 L 144.789 107.778 L 145.029 107.298 L 145.749 106.818 L 146.229 106.578 L 147.669 105.137 L 148.149 104.898 L 150.069 102.977 L 150.789 102.498 L 151.51 102.258 L 151.989 101.778 L 152.709 101.538 L 153.43 101.057 L 154.39 100.818 L 155.109 100.818 L 155.829 101.057 L 158.229 101.057 L 159.189 101.538 L 160.629 102.017 L 161.109 101.778 L 162.55 101.778 L 163.029 102.017 L 163.51 102.738 L 163.989 103.218 L 165.909 103.218 L 166.39 102.977 L 167.109 102.977 L 168.55 102.498 L 169.269 102.498 L 169.989 102.258 L 170.709 102.498 L 171.189 102.738 L 172.629 102.738 L 173.109 102.498 L 176.949 102.498 L 177.909 102.977 L 178.629 103.218 L 180.069 103.218 L 181.029 103.458 L 181.749 103.698 L 182.47 103.698 L 183.909 104.178 L 184.39 104.658 L 184.869 104.898 L 185.589 105.378 L 186.069 105.858 L 187.029 106.338 L 187.749 106.578 L 188.229 106.578 L 188.949 106.338 L 193.029 106.338 L 195.189 105.618 L 195.669 105.137 L 196.39 104.658 L 197.109 104.418 L 197.829 103.938 L 198.309 103.458 L 199.749 102.977 L 200.47 102.977 L 201.189 102.738 L 203.829 102.738 L 204.309 102.977 L 206.47 103.698 L 207.909 103.698 L 208.629 103.458 L 209.35 103.698 L 209.829 103.698 L 210.55 103.938 L 211.269 104.418 L 211.749 104.658 L 212.229 105.137 L 212.47 105.858 L 212.949 106.338 L 213.189 106.818 L 213.669 107.057 L 214.149 106.818 L 214.39 106.338 L 214.869 105.858 L 215.589 105.618 L 217.029 105.618 L 217.51 105.378 L 220.39 104.418 L 221.109 103.938 L 221.829 103.698 L 222.55 103.698 L 223.989 103.218 L 224.709 102.738 L 225.189 102.498 L 225.909 101.778 L 226.149 101.057 L 226.629 100.338 L 226.869 99.618 L 226.869 98.658 L 227.109 97.938 L 227.35 96.977 L 227.829 95.538 L 230.709 92.658 L 231.189 92.418 L 231.909 91.698 L 232.39 90.258 L 232.629 89.298 L 232.629 84.258 L 232.39 83.538 L 232.39 80.898 L 232.869 78.977 L 233.829 78.017 L 234.789 77.778 L 235.51 77.778 L 236.229 78.258 L 238.39 78.977 L 244.149 78.977 L 244.869 78.738 L 245.589 78.017 L 245.829 77.057 L 246.069 76.338 L 246.55 75.858 L 247.269 75.378 L 247.749 75.137 L 251.109 75.137 L 253.269 75.858 L 253.749 76.097 L 256.629 77.057 L 257.109 77.298 L 259.269 78.017 L 259.749 78.498 L 260.47 78.977 L 260.949 79.458 L 261.669 79.698 L 263.109 81.137 L 263.35 81.858 L 263.829 82.578 L 264.069 83.298 L 264.069 84.258 L 264.309 84.977 L 264.55 85.938 L 264.789 86.658 L 265.51 87.137 L 265.989 87.378 L 266.47 87.378 L 267.43 87.137 L 267.909 86.658 L 268.629 85.698 L 269.829 84.498 L 270.309 83.778 L 270.789 82.818 L 271.51 82.097 L 272.229 81.618 L 277.269 79.938 L 278.229 78.977 L 278.709 78.258 L 279.43 77.778 L 279.909 77.538 L 280.39 77.538 L 281.35 78.017 L 281.35 78.498 L 281.589 78.738 L 281.589 79.218 L 283.029 79.218 L 283.749 78.977 L 284.47 78.977 L 284.949 78.738 L 285.669 78.738 L 286.149 79.698 L 286.629 79.938 L 287.35 80.178 L 289.029 80.178 L 289.749 79.698 L 290.229 79.218 L 290.47 78.738 L 290.949 77.298 L 291.189 76.338 L 291.189 75.858 L 291.43 75.137 L 291.43 74.658 L 291.189 74.178 L 290.229 73.218 L 289.989 72.738 L 290.47 71.778 L 290.47 71.298 L 290.949 70.578 L 291.669 70.097 L 292.149 69.618 L 292.869 69.378 L 293.35 68.898 L 293.829 68.658 L 294.55 68.178 L 295.029 67.938 L 295.749 67.218 L 295.989 66.498 L 296.47 66.017 L 296.709 65.538 L 296.949 64.818 L 297.43 64.097 L 297.909 63.618 L 298.149 62.898 L 299.109 61.458 L 299.35 60.738 L 300.55 59.538 L 301.029 59.298 L 301.51 59.538 L 302.229 59.778 L 302.709 60.017 L 303.43 60.017 L 304.149 60.258 L 304.629 60.017 L 304.869 59.778 L 304.869 58.818 L 304.629 58.338 L 304.629 57.378 L 304.869 56.898 L 305.589 56.418 L 306.069 55.698 L 306.789 55.698 L 307.269 55.458 L 307.989 54.738 L 308.709 54.258 L 309.189 54.017 L 309.669 54.017 L 309.909 54.498 L 310.149 54.738 L 310.149 56.898 L 310.39 57.378 L 311.35 57.858 L 311.829 58.818 L 311.829 59.298 L 312.309 60.258 L 312.55 60.498 L 313.269 60.738 L 313.749 60.738 L 314.47 60.977 L 315.909 60.977 L 316.39 61.218 L 317.109 60.977 L 317.589 60.738 L 318.789 59.538 L 319.749 58.818 L 320.709 58.818 L 320.949 59.298 L 320.949 61.218 L 320.709 61.938 L 320.709 63.858 L 320.949 64.338 L 321.189 65.057 L 321.669 65.778 L 322.149 66.258 L 322.39 66.738 L 322.869 67.218 L 323.35 67.938 L 323.589 68.418 L 324.069 68.898 L 324.55 69.618 L 324.789 70.097 L 325.269 70.578 L 325.51 71.057 L 325.989 72.498 L 326.229 73.458 L 326.229 74.658 L 326.47 75.378 L 326.47 76.578 L 326.709 77.057 L 326.949 77.298 L 327.669 77.538 L 329.109 77.538 L 329.589 77.298 L 330.069 76.818 L 330.069 75.137 L 330.309 74.658 L 330.55 73.938 L 331.029 73.458 L 331.749 73.218 L 332.229 73.218 L 333.189 73.698 L 334.149 74.658 L 335.589 75.137 L 336.069 75.137 L 336.789 75.378 L 337.51 75.137 L 337.989 74.898 L 338.47 74.418 L 339.189 73.938 L 340.149 72.977 L 340.629 72.258 L 341.589 70.338 L 342.069 69.618 L 342.55 69.137 L 343.269 68.898 L 343.749 68.898 L 344.47 69.137 L 344.949 69.378 L 345.43 69.858 L 346.149 70.338 L 346.629 70.578 L 347.35 71.057 L 347.589 71.538 L 348.55 72.017 L 349.989 72.498 L 350.709 72.498 L 351.43 72.738 L 352.149 72.258 L 352.629 72.017 L 353.109 71.298 L 354.789 69.618 L 355.51 69.137 L 356.47 68.178 L 356.949 67.938 L 357.669 67.458 L 358.149 66.977 L 359.109 65.538 L 359.109 64.338 L 358.629 63.858 L 356.709 63.378 L 356.47 63.137 L 356.229 62.658 L 355.989 61.938 L 355.749 61.458 L 355.029 59.298 L 354.789 58.818 L 354.55 58.097 L 354.309 57.618 L 354.069 56.898 L 354.069 56.418 L 353.829 55.938 L 353.829 55.698 L 353.589 54.738 L 358.387 52.416 L 362.389 53.51 L 364.914 54.928 L 366.766 56.329 L 373.632 52.625 L 376.894 54.875 L 380.368 54.944 L 381.851 56.672 C 380.832 58.884 381.998 59.473 381.824 60.417 L 382.164 63.078 L 371.796 69.453 L 381.421 65.83 L 384.009 65.347 L 385.999 65.963 L 388.432 69.364 L 390.062 70.409 L 387.357 63.181 L 389.159 57.56 L 390.489 56.402 L 391.029 55.218 L 391.269 55.698 L 392.47 56.898 L 394.629 56.898 L 395.35 57.137 L 396.789 57.137 L 397.51 57.378 L 399.189 57.378 L 399.909 57.618 L 401.35 57.618 L 401.829 57.858 L 401.829 58.578 L 402.069 59.057 L 402.55 59.778 L 404.709 60.498 L 405.669 60.738 L 406.149 61.458 L 406.149 61.938 L 405.909 62.418 L 405.669 62.658 L 405.189 62.898 L 404.47 62.898 L 403.749 63.137 L 403.51 63.378 L 403.269 63.858 L 403.51 64.818 L 403.51 65.298 L 403.269 65.778 L 403.269 66.258 L 402.55 66.977 L 401.829 67.458 L 401.589 67.698 L 401.589 67.938 L 402.069 68.418 L 402.55 68.658 L 403.029 69.137 L 403.51 69.378 L 403.749 69.858 L 404.229 70.578 L 404.709 71.057 L 404.949 71.538 L 405.43 72.017 L 405.909 72.977 L 406.149 73.218 L 406.869 73.698 L 407.35 74.178 L 407.829 74.418 L 408.789 75.378 L 408.789 75.618 L 409.029 75.858 L 409.51 75.858 L 410.229 75.378 L 410.709 74.898 L 410.949 74.178 L 411.189 73.938 L 412.869 73.938 L 413.589 74.178 L 414.069 74.418 L 414.789 74.658 L 415.269 74.898 L 415.989 75.378 L 416.47 75.618 L 417.189 75.858 L 417.669 76.338 L 418.149 77.057 L 419.589 78.017 L 423.189 79.218 L 424.629 80.658 L 424.869 81.137 L 425.35 81.378 L 425.829 81.137 L 426.309 81.137 L 427.029 80.658 L 427.51 80.418 L 427.749 79.698 L 428.229 79.218 L 428.47 78.498 L 429.189 78.258 L 429.909 78.258 L 430.629 78.738 L 431.35 78.977 L 432.069 79.458 L 432.789 79.698 L 434.229 80.658 L 435.189 81.618 L 435.669 82.578 L 435.909 83.298 L 436.629 84.738 L 436.629 85.698 L 436.869 86.178 L 437.35 86.178 L 437.829 85.458 L 438.309 84.977 L 438.309 84.258 L 438.55 83.538 L 438.789 82.578 L 438.789 81.858 L 439.029 81.137 L 439.269 80.658 L 439.989 80.418 L 440.949 80.178 L 442.629 80.178 L 443.589 79.698 L 444.309 78.977 L 445.749 78.498 L 446.47 78.498 L 447.43 78.258 L 447.909 78.977 L 450.069 81.137 L 451.029 81.378 L 451.749 81.618 L 455.109 81.618 L 455.829 81.858 L 456.55 81.858 L 457.51 82.338 L 458.229 82.818 L 458.47 83.298 L 458.949 83.538 L 459.189 84.258 L 459.669 84.738 L 460.149 85.458 L 460.39 85.938 L 460.869 86.658 L 460.39 87.137 Z" id="path6914-6"/>
    <path style="fill:none;stroke:white;stroke-width:0.80000001px;stroke-linecap:butt;stroke-linejoin:miter;stroke-opacity:0.5" d="m 206.4696,103.698 -0.7632,5.88627 -2.5397,1.4287 -1.21922,-2.05159 -2.66513,0.36119 0.34625,1.94905 -4.03754,1.00077 -0.25587,12.06502 -1.8829,2.27223 -7.97918,-1.65674 -6.65968,1.90251 -1.26511,4.46848 -4.533,1.72684 -0.58556,4.10165 -3.30155,1.79023 -0.32984,4.57243 -5.14996,4.01365 c 0.27814,0.86881 0.54748,1.74043 0.80798,2.61469 0.8202,2.7527 1.55267,5.53154 2.1959,8.33088 l 2.63855,-0.0874 2.34311,-1.75754 3.35818,-0.11117 c 1.47762,0.81532 2.94608,1.64725 4.40501,2.49557 0.90172,0.52432 1.79979,1.0549 2.69414,1.5917 l 2.16615,7.37137 0.0318,0.95948 7.8998,-0.74089 1.54147,3.07059 -2.55918,2.4851 1.76655,2.58397 -1.58827,3.20296" id="path4804"/>
    <path style="fill:none;stroke:white;stroke-width:0.80000001px;stroke-linecap:butt;stroke-linejoin:miter;stroke-opacity:0.5" d="m 264.7886,86.658 1.67875,4.156124 -0.57562,4.340434 6.53109,1.465615 4.61311,1.528139 3.66805,9.243648 -2.31042,2.71827 -1.65628,0.77421 -1.83157,2.70311 -4.13341,-1.54507 -2.16173,3.35168 1.17693,3.16551 2.54961,4.47706 1.33441,4.03804 -3.52649,2.27898 0.36689,3.82895 -1.59961,2.45526 -6.40384,-0.92203 -1.10408,6.21347 2.74873,3.2708 0.8864,5.01241 7.65198,-0.97287 2.86095,6.6279 0.16708,5.03736 -4.26199,1.82309 -0.55284,5.06104 -1.48745,5.81243 1.96405,8.57869 1.81418,4.02312 -2.31825,2.47812 -3.56728,1.07869 c 0.0371,1.11939 0.0741,2.23877 0.11121,3.35816 0.0371,1.11938 0.0741,2.23875 0.11119,3.35813 l -5.73307,0.90924 -0.99125,-0.9277 -7.39993,1.21787" id="path4817"/>
    <path style="fill:none;stroke:white;stroke-width:0.80000001px;stroke-linecap:butt;stroke-linejoin:miter;stroke-opacity:0.5" d="m 345.4296,69.858 c 0.45483,1.702132 0.93374,3.397827 1.43656,5.086405 0.59276,1.990628 1.21874,3.971365 1.87758,5.941109 l 4.26205,-1.822076 6.08406,2.439946 0.25418,7.674792 6.00469,0.04226 -0.50669,13.703284 -3.38994,-0.84829 -2.63215,7.53227 2.70213,1.83161 -1.54401,4.13337 -3.48682,3.47737 -4.26206,1.82207 -2.28751,3.43753 -0.68145,8.42721 3.5252,4.92598 -0.76089,6.02846 5.18023,4.1508 6.85295,-3.34863 1.5917,-2.69413 8.37951,-0.75776 0.74702,-4.63635 3.42856,0.17469 0.17475,5.27811 4.31663,-0.14295 0.80801,2.61365 1.03894,2.36791 -2.63956,0.0874 0.11122,3.35816 -1.67908,0.0556 -0.0969,4.32458 -2.37378,0.8 1.46826,8.11481 3.82304,-0.60586 0.82984,3.33433 2.51784,3.51861 1.07069,3.32636 1.76646,2.58295 -1.70346,6.53893 0.16683,5.03724 3.64472,1.32111 2.55117,-2.72597 2.54848,0.0131" id="path4830"/>
  </g>
  <g id="layer3" style="display:inline;opacity:0.40799997" transform="matrix(1, 0, 0, 1, 30.540747, 38.308857)"/>
  <g id="layer4" style="display:inline" transform="matrix(1, 0, 0, 1, -17.769257, 16.930855)">
    <g transform="translate(391.27045,53.1184)" style="fill:none;stroke:red;stroke-width:0.95999998;stroke-linecap:butt;stroke-linejoin:miter;stroke-opacity:1;stroke-dasharray:none" id="g6069"/>
    <g transform="translate(48.789648,140.7174)" style="fill:none;stroke:red;stroke-width:0.95999998;stroke-linecap:butt;stroke-linejoin:miter;stroke-opacity:1;stroke-dasharray:none" id="g6073"/>
    <g transform="translate(315.90945,21.4384)" style="fill:none;stroke:#0978ab;stroke-width:0.95999998;stroke-linecap:butt;stroke-linejoin:miter;stroke-opacity:1;stroke-dasharray:none" id="g6077"/>
    <g transform="translate(372.06945,21.4384)" style="fill:none;stroke:#0978ab;stroke-width:0.95999998;stroke-linecap:butt;stroke-linejoin:miter;stroke-opacity:1;stroke-dasharray:none" id="g6081"/>
    <g transform="translate(423.90945,65.3584)" style="fill:none;stroke:#0978ab;stroke-width:0.95999998;stroke-linecap:butt;stroke-linejoin:miter;stroke-opacity:1;stroke-dasharray:none" id="g6085"/>
    <g transform="translate(423.90945,66.3184)" style="fill:none;stroke:red;stroke-width:0.95999998;stroke-linecap:butt;stroke-linejoin:miter;stroke-opacity:1;stroke-dasharray:none" id="g6089"/>
  </g>
</svg>