<?xml version="1.0" encoding="utf-8"?>
<svg id="Layer_2" data-name="Layer 2" viewBox="3.367 5.612 253.37 324.027" xmlns="http://www.w3.org/2000/svg">
  <defs>
    <style>
      .cls-1, .cls-2, .cls-3, .cls-4 {
        fill: #191919;
        fill-rule: evenodd;
      }

      .cls-2, .cls-5, .cls-6, .cls-3, .cls-4, .cls-7, .cls-8, .cls-9, .cls-10 {
        stroke-linejoin: round;
      }

      .cls-2, .cls-6, .cls-8, .cls-9 {
        stroke: #4b4b4b;
      }

      .cls-2, .cls-8 {
        stroke-width: 1.2px;
      }

      .cls-5, .cls-6, .cls-4 {
        stroke-width: .57px;
      }

      .cls-5, .cls-6, .cls-7, .cls-11, .cls-8, .cls-9, .cls-10 {
        fill: none;
      }

      .cls-5, .cls-3, .cls-4, .cls-7, .cls-10 {
        stroke: #fff;
      }

      .cls-3, .cls-9, .cls-10 {
        stroke-width: .48px;
      }

      .cls-7 {
        stroke-width: .72px;
      }

      .cls-12 {
        clip-path: url(#clippath);
      }
    </style>
    <clipPath id="clippath">
      <rect class="cls-11" width="264.22" height="331.51"/>
    </clipPath>
  </defs>
  <g id="Layer_1-2" data-name="Layer 1">
    <g class="cls-12">
      <g>
        <path class="cls-9" d="m132.63,112.22l-2.63,5.76v.73l-3.38,1.2.49,5.86,1.92,2.41-2.63.12-1.08,2.04-1.08,2.77v.94l-1.33.14-.71.82,1.45.63.22.93-1.56.85-1.44.49-1.19-1.08-1.93,1.3,1.93,1.7-1.33,1.56-1.31-.37-.59.97,1.19,1.19"/>
        <path class="cls-9" d="m72.45,112.62l-.79,1.5,1.11,2.02-1.31,1.84,3.32,3.57v.88l1.36.57,1.56.08-.29-1.62-.82-.42.57-.99,3.34.65.37,1.76,1.14.11.02,2.95.74,1.02,3.54,1.08-.9,1.58,6.57,1.17.29,1.72.68.77"/>
        <path class="cls-9" d="m66.84,148.59l-5.92-5.24.54-2.58,1.07-.06-.17-.79-1.44-.54-.97,2.15-2.52-1.5-.91.54h-2.21l-2.21-1.02v-1.73l-1.76-.06-1.19,1.68-1.5,1.87-1.08.65-3.43-6.01-4.62.48-2.52-2.8-3.17-.74-.49-1.79-1.13-.25-.71-1.42-1.33,2.64-4.82-4.31"/>
        <path class="cls-9" d="m249.48,166.99l-3.29-1.87-1.19-.71-1.93.59.11,2.05,1.68,1.44v1.42l1.1,1.22-5.3-.85-.82-2.27-7.2-.48-4.56-4.82-6.72.25.22-.96h-1.44l-2.27,6.24-.25,2.63-4.2,3.38-4.79-.6-.26-4.22,2.19-9.47-1.93-.11-2.52-3.01-3.97-1.33-.71.62-4.79.12-.37-6.5-2.15-.22"/>
        <path class="cls-9" d="m249.48,166.99l-4.48-2.58-1.93.59.11,2.05,1.68,1.44v1.42l1.1,1.22-5.3-.85-.82-2.27-7.2-.48-4.56-4.82-6.72.25.22-.96h-1.44l-2.27,6.24-.25,2.63-4.09,3.26.74,5.5,1.79,1.08-.97,1.7-.45,2.75.59,2.27-.73,2.89,2.63.85.74,1.19h6.01l-.25,2.04v1.56l3.6,3.37-.71,3.6,1.41,1.56.97.82,1.44.97-1.19,2.15.12.74,1.19,1.3-.94.6,4.54,3.97"/>
        <path class="cls-9" d="m163.33,222.41l.17-.03,1.59,1.25,2.98-.51-1.22-1.81-.48-1.79"/>
        <path class="cls-9" d="m159.31,217.96l-.85-.48"/>
        <path class="cls-9" d="m167.73,270.2l-3.49-.51-1.39-.48-2.49,4.62-1.22-.77-.17-.74-1.28-.71-.48.71-2.01.74-.31-.74h-.37l-1.84.43.34.91-.23-.26-.48-1.13-.11.43-.96,1.19-1.08-1.98-2.58-2.64-.31.48-1.98,2.24.48.88v.2l-.6.65-2.69-.85.17-2.81h-.28l-7.29-.85-.23-1.02h-.48l-1.79-.37-4.08-1.56.34-1.73,2.89-.23.28-3.91.68-.91-.11-.77-.43-.96"/>
        <path class="cls-9" d="m128.49,266.26l1.31,1.5,2.35,1.08-1.27,3.06-.83-.06-.48-.82-.42.6-1.39,1.19-.65-1.08-.71.96-1.22-.9-.91.59-1.96-.48v.96l2.98,1.76-.65,1.56,1.27,2.32,2.16,2.16-.06.25.77,2.95,1.39,1.31.59,1.44-1.25-.31-1.27,2.52,1.5-.76.91,1.61-.06,1.02h-1.08l-1.92,3.77-.26.8-2.1.65-2.8,4.39-1.28-.2h-1.36l-1.7,1.14,2.47,1.7"/>
        <path class="cls-9" d="m31.07,286.53l3.68.31,3.12.96,1.33.85,4.68.85.71,1.19,1.33-.11,1.45.59.48,1.45,2.04,1.42.71-.12,1.08.49,1.21-.12.6,1.19,1.67.97.97,1.07,2.15,1.45,1.33-2.04h.71l-.11,1.44,3.23.97.71-.6,1.7.23.11,1.19-.48.48-.71.74-1.44.59-.12.6,2.04,1.33.23.94,1.08.25.85-.59,2.63,2.63h1.31l-.23,1.51"/>
        <path class="cls-9" d="m27.13,278.25l1.76.74.17.73,4.08-2.95.79-1.27,3.29,1.81.59-1.75,1.62-.4,1.11-.79,2.57.42,2.64.6.96-1.79.12-2.24,2.8-1.08,3.26.91v-.25l.94-3.94.91.11-.29-1.5-.19-1.25,1.92-.96h1.33l-.19-4.03-1.68-1.45-.25-.48-2.33-1.13-1.81-1.62,1.11-.48,2.86,1.08,1.61.05,1.17-1.98-1.59-1.67,1.81-2.21-2.75-1.02-.25-1.62,2.83-1.27h3.66l1.25.96,2.83-1.62.4-.54,2.41-.59.2-2.3-.74-.71-2.04-.25-2.04.48-.71-1.56,2.04-.82-1.28-1.22.37-2.1.49.06-.97-1.42.71-1.7,1.11-.34.22-1.27-.9-.29-.17-1.27-1.34.48-.71-2.41"/>
        <path class="cls-9" d="m64.15,298.74l-.23-1.58-.96-.6.85-.96-.26-5.02,2.04,1.08h1.34l.7.59.74-.11.48-1.82-.73-1.07,1.92-1.93.37-1.42.82-.25v-.85l.49.25,2.52-.37,1.81-2.26.6-.26,1.19-2.38-.48-.62,1.56-1.42-.23-3.74-.6.48-.73-.11-.34-1.2-.63-.73-.7-.23-8.06-4.08-2.04,1.08-2.26-1.31-.37-1.44,1.22-.15-.97-2.01-4.45-.37-1.44-.36"/>
        <path class="cls-9" d="m106.53,306.11h-2.95l-.97-4.82h.85l-.59-1.41h-1.19l-.62-4.82-4.31-2.38-2.41.11-.23-1.93-1.33-.37v-1.55l-3.35-.34.34-2.53-1.56-.48-2.26.48-3.86-7.68-2.27,1.45-.96.11-1.3-.48"/>
        <path class="cls-9" d="m88.21,285.48v-.48l1.93.11-.11-1.19-1.08-3.01-1.08.6-1.56-2.27,2.75-4.93,1.45-.71,1.19-.85.85-.6,2.04-.11,3.12-1.7,2.75.6.85-1.68,1.56-.59,2.52-.6,1.56-1.44.23,1.44,1.7-.25,7.91,3.26,1.78-.26.26.97,1.78.7,2.05.26"/>
        <path class="cls-6" d="m29.62,112.28l.85-1.33,1.67.48.49-.96.96.73.23,1.19,1.22.23,5.75.26.54.02,5.21-.28.71-.71,4.82-.22,1.67-1.71,2.41-.96,2.87,1.93-.97.96-.22.23-.06.62,1.02,2.53.71-.26v-2.64l-.48-.7.73-.74.29.03.68.93-.26.48v1.45l.26.48,3.34.23.97-1.93v-1.19h.71l1.44.48h4.82l.45-.22h.49l-.49.93.74.48,1.45-1.41.22-3.38,1.68-.71v-2.41l-.94-2.63-.26-1.67-.96-.74.74-1.93h.93l.49-5.27-1.68-4.08-2.41-1.93.49-1.67.25-.49-.48-2.63.71-2.64.96-.96,3.6-.97,1.45.26h1.19l2.63-.96v-1.19l3.38-.26.48.48h.96l.97-.96,1.9.25,2.4.71.49-.96,2.63-.71,1.45,1.67.48.48.96-.25.97-1.19h1.9l1.22,1.19,1.19.25v1.19l.48.26-.71.96.94.71-.49.97v1.19l1.22.73,1.45-.25.71.48.48-2.15-.71-1.19.45-.97,1.22-.96,2.27.11"/>
        <path class="cls-9" d="m191.82,182.89l-.71.11-2.24-2.35"/>
        <path class="cls-9" d="m208.43,170.42l.2,3.23-.54,2.64"/>
        <path class="cls-9" d="m158.46,217.47l-6.83-6.86.48-2.49-2.04-1.81-1.7-.37-.11-1.87-2.41.71h-.82l-.96,2.52-.96-.26-1.3,3.49-.48,7.31.48,1.08-1.22.26-1.3-2.3.48-1.08-2.78-2.04-1.08-.23-6.83,3.83-3.49,2.89-.71-.71-1.08.82.45,1.08,1.7,1.56-1.56.26-1.93-.6-.26,3.34h-6.58l-.85-.82-.23,1.67-.26,2.41,3,2.01,1.79,2.04-1.19,1.22-.48,2.15-2.41.23.14,4.45,4.68-.11,5.75-1.45.6,1.08,4.08.85-.11,11.4-.85.37,1.33,2.98.48,1.33,2.38-.11,2.18-.48-.85-2.3,1.33-.94,3.71-3.49,3.6-2.04,4.31-.26-.48-6.12,2.41.62,6.24,1.9.48-2.64-2.15-.6-.26-1.19-1.3-.11.6-1.11,2.41-.71-.85-.96,1.08-.37,1.19.14.26.34.71-1.79,1.81,1.56,3.71-6.01,3.12-1.3,1.45.11,1.3-1.19,1.22-.37.23-1.08.74-.85-.48-1.56-3.12-1.81-2.98.51-1.59-1.25-.17.03"/>
        <path class="cls-9" d="m116.42,241.31l-1.28.06-.14-4.45,2.41-.23.48-2.15,1.19-1.22-1.78-2.04-3.01-2.01.12-2.53-.71-.62-1.67.48-1.34-.11-.48-3.97-1.78-1.9-.6-.25-2.41-1.45-1.56.62-3.71.12-.37,2.52-1.56.71v.37l-1.81.11.48,2.04,4.45,2.89-7.91,5.16-1.11-.85-1.67.71-2.38-.11-2.52.11-2.78-.23-.23.71-1.56-.48-4.81.48-2.16-3.71-2.38-2.52-4.71-1.79-.7-1.45-1.34,1.76-2.24,1.05.71,2.41,1.34-.48.17,1.27.9.29-.22,1.27-1.11.34-.71,1.7.97,1.42-.49-.06-.37,2.1,1.28,1.22-2.04.82.71,1.56,2.04-.48,2.04.25.74.71-.2,2.3-2.41.59-3.23,2.16-1.25-.96h-3.66l-2.83,1.27.25,1.62,2.75,1.02-1.81,2.21,1.59,1.67-1.17,1.98-1.61-.05-2.86-1.08-1.11.48,1.81,1.62,2.33,1.13,1.93,1.93.19,4.03,1.25.53,4.45.37.97,2.01-1.22.15.37,1.44,2.26,1.31,2.04-1.08,8.76,4.31.97,1.93.73.11.6-.48.23,3.74-1.56,1.42.48.62,1.02.17.96-.11,2.27-1.45,3.86,7.68,2.26-.48v-.59l1.93.11-.11-1.19-1.08-3.01-1.08.6-1.56-2.27,2.75-4.93,1.45-.71,2.04-1.45-1.44-.73-.71-2.75-1.34-1.08.23-.96-1.19.85-2.15-1.22-.85-1.79.96-1.67,3.97,1.56,1.19.23.74-1.93.34-.71.96-.26.74-.59-2.78-2.75.48-2.75.37-.62-.6-.49-.14-1.55,2.78-.71,1.08,1.07,2.15-.59,1.33,1.19,1.08-.11,4.2.85-.97-.74-.37-5.5,5.79.48-.26-2.29,8.53-1.93-.25-3.35Z"/>
        <path class="cls-9" d="m77.1,176.06l-3.77.88-.48,1.67-4.93,4.68-1.9,3.8,1.25.65-.06.85"/>
        <path class="cls-9" d="m66.42,224.42l-.6-1.67,1.08-1.45v-1.44l2.52-2.98,4.31-1.59,2.78.62-.48-3.85.59-4.79,3.49-3.71,3.6-.49-2.19-2.41-.59-1.67-2.16-.59-.7-1.22,1.07-4.2-2.29-.59-3.23,2.63h-1.34l-.93-.96-2.04-.37-1.56-.82,1.19-1.45-.85-2.63-.88-.2.06-.85-1.25-.65,1.9-3.8,4.93-4.68.48-1.67,3.77-.88,3.86.85,2.58,1.19-.85.54-.17,1.93.82-.23.91-1.98,2.94-.54.66,1.24-.06.97.59.06,1.34,1.33,2.04-1.45.22-1.08,1.22-.42-.14.17h1.93l3.29.85,4.02-.17-.28-1.28,2.81-.59.19-1.14,3.24,1.51-1.03.93-.48,1.87,1.79.71h2.18l-.14,1.16,1.56,1.54-2.89,3.34-.6,1.81.48,3.6,2.16,4.2-1.79.23-1.67,1.07-.85,1.34-.71,2.75.82.96,2.78.96-.74,1.56-2.75,2.41.34,1.79h.74l1.08,2.04h-.6l-.11,6.72.94,1.56-.34.25-3.01-1.7-1.56.62-3.71.12-.37,2.52-1.56.71v.37l-1.81.11.48,2.04,4.45,2.89-7.91,5.16-1.11-.85-1.67.71-7.68-.23-.23.71-1.56-.48-4.81.48-2.16-3.71-2.38-2.52-4.71-1.79-.7-1.45v.09Z"/>
        <path class="cls-10" d="m77.78,133.71l-1.02-.65"/>
        <path class="cls-3" d="m92.07,134.05l-.11,2.52.48,2.19-.12,3.11h.6l.37-.36.71.59.79-.17,1.56,1.67,1.25-1.98-2.47-1.84-.62-.91-1.45-.85-.34-2.16-.14-.17,1.5-.36.97.48,1.38.11-.11-.71-2.52-.79v-1.02l-.85-.54-.88,1.19Z"/>
        <path class="cls-3" d="m76.56,143.43l2.69,1.28,1.64-.2,2.83,1.22,1.13,1.87-.82.51.34,2.64,1.7,2.52,4.17-.45c-.26.65-.34.48-.03,1.11.06.2-.85,1.02-1.16,1.98-.51,1.53-.54,3.4-.28,3.71.31.4,1.62.06,2.64-.91.74-.68,1.3-2.04,1.56-2.07.28.11.6.14.91.2.2.06.43.11.65.17.88.51,2.07.4,2.83-.23.11-.03.23-.03.34-.06.37-.03.57-.11.91-.23.09.54.31.99.65,1.36.14.28.31.54.54.77.09.28.23.54.43.77.06.14.11.26.2.37.09.26.26.54.37.77.11.65.4,1.08.85,1.5.37.4,1.05.74,1.59.85.09.06.2.14.31.2l.17.17c.2.37.51.62.71.96.23.51.51.77.88,1.11.17.17.34.28.51.4l.17.17c-.31.45-.43.91-.43,1.47,0,4.08.94,1.45,2.41,1.45.11.23.74,1.7.91,1.87.11.23.2.4.34.6.11.23.23.43.37.6.17.4.37.62.65.91.45.45,1.08.71,1.67.71h.34c.26.26.57.45.91.57.31.2.62.31.99.37l.06.11c0,.23.06.45.11.65,0,.11-.06.23-.06.34l-.14.6c-.14.79.11,1.59.62,2.13.14.28.28.54.48.74l.06.06v.31c0,.65.26,1.25.71,1.7.34.34.6.62,1.02.82l-2.47,1.11-1.93-1.22-.28,2.41-1.76-1.67.14-1.16h-2.18l-1.79-.71.48-1.87,1.02-.94-3.23-1.5-.2,1.13-2.81.6.28,1.28-4.03.17-3.29-.85h-1.93l.14-.17-1.22.43-.23,1.08-2.04,1.45-1.33-1.33-.6-.06.06-.96-.65-1.25-2.95.54-.91,1.98-.82.23.17-1.93.85-.54-2.58-1.19-3.86-.85.79-.77-.26-.91-3.23-.96-1.13-2.95.28-1.02,1.33-.34-2.15-2.3-1.93-.17-1.02-2.41-2.69-1.08,2.1-3.34.23-1.28h-1.5l-1.02-1.25,1.64-.6,1.36.71.2-1.28,2.1-.65.11-.77-2.95-.91-.96-3.43-1.62-1.13.06-.65,2.18-.2v.85l5.39.11.6.79,1.22-.37-.74-1.98.96-.6-2.1-1.25,1.19-2.52h1.02l.04-.02Z"/>
        <path class="cls-1" d="m86.43,146.66l-2.38,1.45.34,2.64,1.7,2.52,2.97-.37h.43l1.56-2.21-.82-2.41,3.6-3.12.17-3.06-.71-.59-.37.36h-.6l.12-3.11-.48-2.19.11-2.52-.6-.45-.22-.85-.14-1.56-1.68.22.26,1.7h-1.33l-.71,1.31-1.82.11-1.67,3.26"/>
        <path class="cls-10" d="m86.43,146.66l-2.38,1.45.34,2.64,1.7,2.52,2.97-.37h.43l1.56-2.21-.82-2.41,3.6-3.12.17-3.06-.71-.59-.37.36h-.6l.12-3.11-.48-2.19.11-2.52-.6-.45-.22-.85-.14-1.56-1.68.22.26,1.7h-1.33l-.71,1.31-1.82.11-1.67,3.26"/>
        <path class="cls-1" d="m76.56,143.43l2.7,1.28,1.64-.2,2.84,1.22"/>
        <path class="cls-10" d="m76.56,143.43l2.7,1.28,1.64-.2,2.84,1.22"/>
        <path class="cls-2" d="m95.33,149.9l2.75,1.87-1.08.48-1.19-.31-.68-1.08.2-.96Z"/>
        <path class="cls-1" d="m83.74,145.73l1.13,1.87,1.56-.94"/>
        <path class="cls-10" d="m83.74,145.73l1.13,1.87,1.56-.94"/>
        <path class="cls-8" d="m95.13,139.78l5.05-.37v-2.16l8.05.34.22,2.53.97-.6.85.97,2.75-1.45,2.04,3.71h.37l2.63.48v.97l6.24.85,1.79-3.01,2.18-.96,1.67.6v-2.27l.71-2.16,4.08.83.26,1.07h1.55l2.16,1.08.96,4.22-4.93,2.04-2.04.23-.23-.48-1.33.11-.11,1.22h3.48l-2.41,2.27,1.56,1.56-.82,3.71,3.12,3.01,2.15,1.56-.73,1.7,2.89,1.19-1.33,1.44-3.12-.37v1.93l-2.98,1.56-1.22-.14-.71-1.56-.73,1.22-.34,1.67.48.97-1.22.85-2.52-1.34.73-1.67-2.52,1.67.48,3.01-2.15-.12-.97-1.55-1.67.7,6.1,9.47-2.16,1.45-.96-1.79-2.38.23,2.63,4.93.23,1.9-4.56,1.81v-3.71l-1.19-2.52-1.68-.26-.59-1.07-1.08-.97.82-2.15h-1.78l.22-3.72-2.52-1.44-.96.25-1.31-1.44-1.33-3.01-1.78,1.02-.97-2.69.97-1.93-3.12-2.09-2.3-1.88-1.3-1.55-.85-2.87-2.75.82-3.6-.87-.37,2.8-1.19-.71-1.45,1.08-.96-.59.71-1.56-.34-2.04,2.04-1.82-1.33-.71.48-1.44,1.19-1.08.14-1.33-.96-1.08,1.56-1.56,1.44-.71.6-.85.22-3,.74-.23,1.56,1.67,1.25-1.98-2.47-1.84Z"/>
        <path class="cls-9" d="m24.72,73.28l.22,1.92,4.31.23-.22.96,6.01.97v-1.93l4.56.26v-1.93l3.12-.26-.48-1.19.48-.96,2.38.25.48-1.92v-.26l-1.19-1.42-2.89-1.7.25-4.08,2.87,1.22h.73l4.79.48.71-1.93,3.15.49,1.19-1.68-1.67-.48.93-2.89h.97l.25,1.45,4.31-.26,3.6,1.7h1.45l-.97-1.44h-.71l-.25-.74-1.9-1.67-.96-.71h-2.19l-.71-2.16,5.28-.48v-.48l-4.31-1.93-1.93,1.45-.48-1.22-1.9-.71.23-1.45-.71-1.19v-.48l-1.45-.48-.25-1.67-.97-.26-3.82-.22-1.19.48h-1.22v-.74l2.63-1.19,1.7-2.15,1.45-.97,2.15.48,1.19-1.92-2.4-1.19-.49-2.41.49-1.45.22-.08,2.18-.15-.22-1.92,1.42-.49-1.42-1.67-1.93-.96v1.93h-1.19l-.96,1.44-.49-.48-.25-.74-.71-.22-.03.25-.22.71h-.71l-.23-1.45-1.93-.25.48-1.67-2.89-2.16.97-1.19.71.97,3.6-3.38.25-1.19,1.45-2.18"/>
        <path class="cls-8" d="m253.08,187.14l-1.22-.23-.48.96-1.42-.26-1.7,4.56-2.38.26-2.18-2.41-1.42.71v.74l-2.89,5.75-2.41-.71,1.22,2.64.48-.48,1.42,2.15-5.02,2.89-.96,6.72,1.67-.74,5.53.74-.74,2.38-.96-.71-5.27,2.64,1.22,8.16-1.45,2.41-1.22-.96v-1.22l-6.72-.71-1.19,4.31-2.64,2.18.48,3.34-1.45.48-3.83,6.01-5.78-1.7-3.12.48.48-4.08-.48-2.64-1.9-.23-3.86,4.31-2.15.26-1.93,3.83-2.15-3.12-3.12-1.45-1.67-4.31,1.9-9.13-1.19-1.93-1.67.48-1.7-.48h-7.2l-.71,1.7,1.45.48-2.41,2.38,1.67-.48,3.6,1.22-.71,1.9.96.26,2.89,3.83-1.22,1.7-6.72,1.42-3.12,3.86-.48-.96-3.83,2.15.96,2.41-1.93,5.53,1.45,1.42-.26,2.66.48,3.6-1.93,4.31,1.7.96-.96,1.19v1.45l-4.08,5.27-2.64,6.97,1.42.48v.96l.74,1.19v1.93l-2.41-1.45-1.93,1.45.26,2.38-1.19,5.05-4.08,2.64v2.41l-.96-2.15-2.15,2.64-.74,4.08h-4.08l-2.64.71.96,1.45-.48,3.83-1.19-.23-.74,2.64-2.15-.71-1.19,2.15-6.01-.74-1.45,1.22-3.6.48-1.19,1.45-1.45-.96-.48.71-.71-1.45-3.86-1.9-1.42.23-2.89-1.93-1.93,2.64-1.19-.23-2.64,3.83h-1.93l-3.34-5.27-3.15,1.19.26,3.15h-2.41v3.83h-1.67l-1.93,8.65-.71-.26-.48-2.15-6.01-1.45-4.79-.23-4.08-.96.48-6.72-4.31.23-.74-1.42-1.19,3.34-1.45.74,1.19,2.64-1.42,1.9-2.18-2.15-.23-4.31-2.41-.96-2.86-.48-1.45,1.93h-2.15l-.96.71-1.93-.23,1.19,8.16-2.15.45-2.86,3.15.23,1.19-2.41,2.15.48,1.67-1.45-.48-3.83,1.7-.96-1.22-4.56.96-2.38-3.6.94-.23v-1.22l.96-1.42-2.15.23-1.19-1.19.23-1.7-.96-1.67-.94.74-.74,2.38-1.93-1.67-2.15.23-2.64-2.15.71-3.12-1.67-1.45,1.67-.71-2.86-2.41-4.79-.23-.74-1.67v-3.12l-1.67-1.7v-3.34l3.6-.74,2.64-3.83v-.96l1.67-.96-.48-1.19-1.9-.96-2.41-3.86,1.45-1.19,2.15.74.23-1.93h-1.9l-1.45-2.89-1.19-5.05-2.41-3.83.96-3.6,1.9-1.67-2.32-2.35.43-1.5-2.15-.96.71-5.98-4.79-.26-.48-1.45,2.15-4.79-1.67-5.05,2.64-2.15,1.45,1.45.45-1.19-.71-1.7,1.67-1.45.96,1.45,2.15.74.74-2.18,4.08-.94.23-1.7,1.93.74.96-2.15,1.19.23,1.67-1.19-2.86-.48.23-2.41,2.89-2.41,5.27-2.86-.48-.74.48-.71-.23-2.64-.74-1.67-1.9-1.7v-1.9l-2.66-3.6,2.41-1.93.26-3.37-3.86-5.5.96-.26.48-.71h-.74l-.45-1.45,3.12-2.15v-1.93h-.74l-3.6-2.41.48-1.9.96.23,1.93-5.27,1.67-.48-2.64-5.05.71-1.93v-3.34l1.7-2.64-5.05.23-2.41-2.15,1.67-2.64.74-2.15-1.7.71-2.64-1.45.26-3.12-2.41-3.12-7.2,1.19v.96l-2.41,1.45-1.19-2.89,3.37-.23,2.15-4.08-5.05-.96.26-1.93,2.61,1.53,2.89-.79-.71-5.27-3.6-1.93.48-1.45-.96-1.19,3.12-.74,1.19-1.19-.96-.96.74-1.67-.26-2.41-4.54-4.31,2.86-1.45-1.45-.71,1.22-1.22.48-2.64,3.34.74,2.15-4.82,1.45-.23,1.45-1.45,1.45-3.12-2.89-6.24-2.41-.26-2.64.48-2.15-.23,2.15-.26.26-1.67.96-.96-1.22-.23-.96-2.18.48-1.42,4.34.71-1.22-2.41-.71.96-2.64-1.9,1.93-4.08-.96-1.93-3.37-2.41.48-2.64-3.12-3.34-2.64-.74.23-5.05,2.18-.23,2.64.71-.26-4.31.74-2.41,3.6-3.83-5.05-4.56-2.41-4.79-6.94-5.05-1.93.48.23,4.56-1.19-.48-4.31-18.74,2.86-1.19,4.82-.26,3.34-7.2-.23-2.15.48-5.75-3.49.11.96-2.64,3.6-2.15,7.91,2.41.26-1.93,1.42-2.64-.23-2.64,1.67-1.93-.23-2.89,4.08,3.12,2.38-.96.48-3.6,1.22-1.67h3.12l.48-.71,2.64-.74,2.86-2.38,1.22,4.56-1.45,1.19,1.45,4.56,4.08,1.9v-2.64l.96.26,1.42,2.15,2.41-1.93v.96l2.64,1.19v-1.67l1.19-1.93-.71-.71v-.96l4.08-1.45,2.41,2.89,1.19.48.23-2.89,1.45.96,1.93-1.45.71-1.42,1.93.71h2.41l4.31,1.45.96-3.12,3.12,2.86v-2.64l.96-1.19,3.6,3.34,1.93.48,4.79,3.86,3.37,4.79.94.48,1.7,6.24-3.37,2.41,7.94,8.16,3.83-.74.48,2.41-.71,1.19.06.09c-.17.65-.23.68-.31,1.36l4.08-1.45,3.12,2.64.37-.06v.91l1.45.74.23,2.15-.71,1.19-2.64-.96-1.45,1.22,1.9,3.34-.45,2.15,1.67.96v.96l-3.37-.23-1.19,1.9.23,3.6,2.41,3.12-.23,1.7-2.41.71-.26,1.19,2.18,1.7v1.9l-1.45,1.7,1.19,3.83,7.94-.48.71,2.15h1.19l1.7.96,1.19,2.64-.26,3.37,1.22,1.19,1.45,6.97h1.9l2.64,1.19,3.15,2.89.45,2.86.48,2.89-.94.71-.48,2.15-2.18-.71.48,3.12-1.19,2.41,2.41.23,1.45-.99,1.67,1.47h1.67l2.15,2.64,3.12.96,1.22-3.83.23.71h3.12l1.67,1.19,4.82-.94,3.12.23,3.12-.48.71-1.93,4.08.26v4.08l1.22.23.71,1.45h1.67l-.23,1.19,1.67.74.96,2.15.71.23,1.45,1.7.26,2.64-1.7,2.86.26,2.18,1.67,1.67.71,1.67-1.19,1.22-4.31-1.22.23,2.41,1.19.23v2.89l5.05.23.96,1.93v1.93l5.53,2.41,1.67,2.86,2.15-3.6h.74l3.83,2.15.26,1.7,2.64.23.96-.96,2.64-.96.71-.96,2.89-.94,2.86,1.9.96-1.9,5.05.94,1.45-1.19-.48-3.12,2.15.26,1.93-1.45h7.91l.26-1.93.71-.48-.71-3.34h2.64v-2.18l3.66-1.3,2.1,3h1.45l2.41,2.15.45,1.45.96.71,1.7,4.79h9.1l-.48,3.12.48.96-1.19,2.41-2.75.65c-.4,0-.43,0-.85.06l-.23-.96h-.96l-1.45,1.7-.96,2.38,5.27.96.26,2.64.71,1.45.48,3.37.96.96,4.08-2.66-1.93,3.15.74.94-.48,1.93.94.74,1.93-1.45,3.37.48.71.96-1.45,2.15.74,2.15-1.45,2.89.48,1.67-5.27,2.64,2.15,1.19-1.22,2.64.48,2.41,2.18,1.67.02.08Z"/>
        <path class="cls-7" d="m95.13,139.78l5.05-.37v-2.16l8.05.34.22,2.53.97-.6.85.97,2.75-1.45,2.04,3.71h.37l2.63.48v.97l6.24.85,1.79-3.01,2.18-.96,1.67.6v-2.27l.71-2.16,4.08.83.26,1.07h1.55l2.16,1.08.96,4.22-4.93,2.04-2.04.23-.23-.48-1.33.11-.11,1.22h3.48l-2.41,2.27,1.56,1.56-.82,3.71,3.12,3.01,2.15,1.56-.73,1.7,2.89,1.19-1.33,1.44-3.12-.37v1.93l-2.98,1.56-1.22-.14-.71-1.56-.73,1.22-.34,1.67.48.97-1.22.85-2.52-1.34.73-1.67-2.52,1.67.48,3.01-2.15-.12-.97-1.55-1.67.7,6.1,9.47-2.16,1.45-.96-1.79-2.38.23,2.63,4.93.23,1.9-4.56,1.81v-3.71l-1.19-2.52-1.68-.26-.59-1.07-1.08-.97.82-2.15h-1.78l.22-3.72-2.52-1.44-.96.25-1.31-1.44-1.33-3.01-1.78,1.02-.97-2.69.97-1.93-3.12-2.09-2.3-1.88-1.3-1.55-.85-2.87-2.75.82-3.6-.87-.37,2.8-1.19-.71-1.45,1.08-.96-.59.71-1.56-.34-2.04,2.04-1.82-1.33-.71.48-1.44,1.19-1.08.14-1.33-.96-1.08,1.56-1.56,1.44-.71.6-.85.22-3,.74-.23,1.56,1.67,1.25-1.98-2.47-1.84Z"/>
        <path class="cls-7" d="m95.33,149.9l2.75,1.87-1.08.48-1.19-.31-.68-1.08.2-.96Z"/>
        <path class="cls-7" d="m253.08,187.14l-1.22-.23-.48.96-1.42-.26-1.7,4.56-2.38.26-2.18-2.41-1.42.71v.74l-2.89,5.75-2.41-.71,1.22,2.64.48-.48,1.42,2.15-5.02,2.89-.96,6.72,1.67-.74,5.53.74-.74,2.38-.96-.71-5.27,2.64,1.22,8.16-1.45,2.41-1.22-.96v-1.22l-6.72-.71-1.19,4.31-2.64,2.18.48,3.34-1.45.48-3.83,6.01-5.78-1.7-3.12.48.48-4.08-.48-2.64-1.9-.23-3.86,4.31-2.15.26-1.93,3.83-2.15-3.12-3.12-1.45-1.67-4.31,1.9-9.13-1.19-1.93-1.67.48-1.7-.48h-7.2l-.71,1.7,1.45.48-2.41,2.38,1.67-.48,3.6,1.22-.71,1.9.96.26,2.89,3.83-1.22,1.7-6.72,1.42-3.12,3.86-.48-.96-3.83,2.15.96,2.41-1.93,5.53,1.45,1.42-.26,2.66.48,3.6-1.93,4.31,1.7.96-.96,1.19v1.45l-4.08,5.27-2.64,6.97,1.42.48v.96l.74,1.19v1.93l-2.41-1.45-1.93,1.45.26,2.38-1.19,5.05-4.08,2.64v2.41l-.96-2.15-2.15,2.64-.74,4.08h-4.08l-2.64.71.96,1.45-.48,3.83-1.19-.23-.74,2.64-2.15-.71-1.19,2.15-6.01-.74-1.45,1.22-3.6.48-1.19,1.45-1.45-.96-.48.71-.71-1.45-3.86-1.9-1.42.23-2.89-1.93-1.93,2.64-1.19-.23-2.64,3.83h-1.93l-3.34-5.27-3.15,1.19.26,3.15h-2.41v3.83h-1.67l-1.93,8.65-.71-.26-.48-2.15-6.01-1.45-4.79-.23-4.08-.96.48-6.72-4.31.23-.74-1.42-1.19,3.34-1.45.74,1.19,2.64-1.42,1.9-2.18-2.15-.23-4.31-2.41-.96-2.86-.48-1.45,1.93h-2.15l-.96.71-1.93-.23,1.19,8.16-2.15.45-2.86,3.15.23,1.19-2.41,2.15.48,1.67-1.45-.48-3.83,1.7-.96-1.22-4.56.96-2.38-3.6.94-.23v-1.22l.96-1.42-2.15.23-1.19-1.19.23-1.7-.96-1.67-.94.74-.74,2.38-1.93-1.67-2.15.23-2.64-2.15.71-3.12-1.67-1.45,1.67-.71-2.86-2.41-4.79-.23-.74-1.67v-3.12l-1.67-1.7v-3.34l3.6-.74,2.64-3.83v-.96l1.67-.96-.48-1.19-1.9-.96-2.41-3.86,1.45-1.19,2.15.74.23-1.93h-1.9l-1.45-2.89-1.19-5.05-2.41-3.83.96-3.6,1.9-1.67-2.32-2.35.43-1.5-2.15-.96.71-5.98-4.79-.26-.48-1.45,2.15-4.79-1.67-5.05,2.64-2.15,1.45,1.45.45-1.19-.71-1.7,1.67-1.45.96,1.45,2.15.74.74-2.18,4.08-.94.23-1.7,1.93.74.96-2.15,1.19.23,1.67-1.19-2.86-.48.23-2.41,2.89-2.41,5.27-2.86-.48-.74.48-.71-.23-2.64-.74-1.67-1.9-1.7v-1.9l-2.66-3.6,2.41-1.93.26-3.37-3.86-5.5.96-.26.48-.71h-.74l-.45-1.45,3.12-2.15v-1.93h-.74l-3.6-2.41.48-1.9.96.23,1.93-5.27,1.67-.48-2.64-5.05.71-1.93v-3.34l1.7-2.64-5.05.23-2.41-2.15,1.67-2.64.74-2.15-1.7.71-2.64-1.45.26-3.12-2.41-3.12-7.2,1.19v.96l-2.41,1.45-1.19-2.89,3.37-.23,2.15-4.08-5.05-.96.26-1.93,2.61,1.53,2.89-.79-.71-5.27-3.6-1.93.48-1.45-.96-1.19,3.12-.74,1.19-1.19-.96-.96.74-1.67-.26-2.41-4.54-4.31,2.86-1.45-1.45-.71,1.22-1.22.48-2.64,3.34.74,2.15-4.82,1.45-.23,1.45-1.45,1.45-3.12-2.89-6.24-2.41-.26-2.64.48-2.15-.23,2.15-.26.26-1.67.96-.96-1.22-.23-.96-2.18.48-1.42,4.34.71-1.22-2.41-.71.96-2.64-1.9,1.93-4.08-.96-1.93-3.37-2.41.48-2.64-3.12-3.34-2.64-.74.23-5.05,2.18-.23,2.64.71-.26-4.31.74-2.41,3.6-3.83-5.05-4.56-2.41-4.79-6.94-5.05-1.93.48.23,4.56-1.19-.48-4.31-18.74,2.86-1.19,4.82-.26,3.34-7.2-.23-2.15.48-5.75-3.49.11.96-2.64,3.6-2.15,7.91,2.41.26-1.93,1.42-2.64-.23-2.64,1.67-1.93-.23-2.89,4.08,3.12,2.38-.96.48-3.6,1.22-1.67h3.12l.48-.71,2.64-.74,2.86-2.38,1.22,4.56-1.45,1.19,1.45,4.56,4.08,1.9v-2.64l.96.26,1.42,2.15,2.41-1.93v.96l2.64,1.19v-1.67l1.19-1.93-.71-.71v-.96l4.08-1.45,2.41,2.89,1.19.48.23-2.89,1.45.96,1.93-1.45.71-1.42,1.93.71h2.41l4.31,1.45.96-3.12,3.12,2.86v-2.64l.96-1.19,3.6,3.34,1.93.48,4.79,3.86,3.37,4.79.94.48,1.7,6.24-3.37,2.41,7.94,8.16,3.83-.74.48,2.41-.71,1.19.06.09c-.17.65-.23.68-.31,1.36l4.08-1.45,3.12,2.64.37-.06v.91l1.45.74.23,2.15-.71,1.19-2.64-.96-1.45,1.22,1.9,3.34-.45,2.15,1.67.96v.96l-3.37-.23-1.19,1.9.23,3.6,2.41,3.12-.23,1.7-2.41.71-.26,1.19,2.18,1.7v1.9l-1.45,1.7,1.19,3.83,7.94-.48.71,2.15h1.19l1.7.96,1.19,2.64-.26,3.37,1.22,1.19,1.45,6.97h1.9l2.64,1.19,3.15,2.89.45,2.86.48,2.89-.94.71-.48,2.15-2.18-.71.48,3.12-1.19,2.41,2.41.23,1.45-.99,1.67,1.47h1.67l2.15,2.64,3.12.96,1.22-3.83.23.71h3.12l1.67,1.19,4.82-.94,3.12.23,3.12-.48.71-1.93,4.08.26v4.08l1.22.23.71,1.45h1.67l-.23,1.19,1.67.74.96,2.15.71.23,1.45,1.7.26,2.64-1.7,2.86.26,2.18,1.67,1.67.71,1.67-1.19,1.22-4.31-1.22.23,2.41,1.19.23v2.89l5.05.23.96,1.93v1.93l5.53,2.41,1.67,2.86,2.15-3.6h.74l3.83,2.15.26,1.7,2.64.23.96-.96,2.64-.96.71-.96,2.89-.94,2.86,1.9.96-1.9,5.05.94,1.45-1.19-.48-3.12,2.15.26,1.93-1.45h7.91l.26-1.93.71-.48-.71-3.34h2.64v-2.18l3.66-1.3,2.1,3h1.45l2.41,2.15.45,1.45.96.71,1.7,4.79h9.1l-.48,3.12.48.96-1.19,2.41-2.75.65c-.4,0-.43,0-.85.06l-.23-.96h-.96l-1.45,1.7-.96,2.38,5.27.96.26,2.64.71,1.45.48,3.37.96.96,4.08-2.66-1.93,3.15.74.94-.48,1.93.94.74,1.93-1.45,3.37.48.71.96-1.45,2.15.74,2.15-1.45,2.89.48,1.67-5.27,2.64,2.15,1.19-1.22,2.64.48,2.41,2.18,1.67.02.08Z"/>
        <path class="cls-5" d="m76.76,133.06l1.02.65"/>
        <path class="cls-1" d="m86.43,146.66l-.6-12.13,1.82-.11.71-1.31h1.33l-.26-1.7,1.68-.22.14,1.56.22.85.6.45.88-1.19-.68-.77-.29-1.72-6.57-1.17.9-1.58-3.54-1.08-.74-1.02-.02-2.95-1.14-.11-.37-1.76-3.34-.65-.57.99.82.42.29,1.62-1.56-.08-1.36-.57v-.88l-3.32-3.57,1.31-1.84-1.11-2.02.79-1.5.49-.93h-.49l-.45.22h-4.82l-1.44-.48h-.71v1.19l-.97,1.93-3.34-.23-.26-.48v-1.45l.26-.48-.68-.93-.29-.03-.73.74.48.7v2.64l-.71.26-1.02-2.53.06-.62.22-.23.97-.96-2.87-1.93-2.41.96-1.67,1.71-4.82.22-.71.71-5.21.28-.54-.02-5.75-.26-1.22-.23-.23-1.19-.96-.73-.49.96-1.67-.48-.85,1.33,2.89,6.24-1.44,3.11-1.45,1.45-1.44.23-2.16,4.82-1.67-.37,4.82,4.31,1.33-2.64.71,1.42,1.13.25.49,1.79,3.17.74,2.52,2.8,4.62-.48,3.43,6.01,1.08-.65,1.5-1.87,1.19-1.68,1.76.06v1.73l2.21,1.02h2.21l.91-.54,2.52,1.5.97-2.15,1.44.54.17.79-1.07.06-.54,2.58,5.92,5.24,2.18-.2v.85l5.39.12.59.79,1.22-.37-.73-1.19v-.79l.96-.6-2.1-1.24,1.19-2.53h1.02"/>
        <path class="cls-5" d="m86.43,146.66l-.6-12.13,1.82-.11.71-1.31h1.33l-.26-1.7,1.68-.22.14,1.56.22.85.6.45.88-1.19-.68-.77-.29-1.72-6.57-1.17.9-1.58-3.54-1.08-.74-1.02-.02-2.95-1.14-.11-.37-1.76-3.34-.65-.57.99.82.42.29,1.62-1.56-.08-1.36-.57v-.88l-3.32-3.57,1.31-1.84-1.11-2.02.79-1.5.49-.93h-.49l-.45.22h-4.82l-1.44-.48h-.71v1.19l-.97,1.93-3.34-.23-.26-.48v-1.45l.26-.48-.68-.93-.29-.03-.73.74.48.7v2.64l-.71.26-1.02-2.53.06-.62.22-.23.97-.96-2.87-1.93-2.41.96-1.67,1.71-4.82.22-.71.71-5.21.28-.54-.02-5.75-.26-1.22-.23-.23-1.19-.96-.73-.49.96-1.67-.48-.85,1.33,2.89,6.24-1.44,3.11-1.45,1.45-1.44.23-2.16,4.82-1.67-.37,4.82,4.31,1.33-2.64.71,1.42,1.13.25.49,1.79,3.17.74,2.52,2.8,4.62-.48,3.43,6.01,1.08-.65,1.5-1.87,1.19-1.68,1.76.06v1.73l2.21,1.02h2.21l.91-.54,2.52,1.5.97-2.15,1.44.54.17.79-1.07.06-.54,2.58,5.92,5.24,2.18-.2v.85l5.39.12.59.79,1.22-.37-.73-1.19v-.79l.96-.6-2.1-1.24,1.19-2.53h1.02"/>
        <path class="cls-4" d="m65.03,111.43h.71l1.45.48h4.82l.45-.23h.48l-.48.94.74.48,1.45-1.42.23-3.37,1.67-.71v-2.41l-.94-2.64-.26-1.67-.96-.74.74-1.93h.94l.48-5.27-1.67-4.08-2.41-1.93.48-1.67.26-.48-.48-2.64.71-2.64.96-.96,3.6-.96,1.45.26h1.19l2.64-.96v-1.19l3.37-.26.48.48h.96l.96-.96,1.9.26,2.41.71.48-.96,2.64-.71,1.45,1.67.48.48.96-.26.96-1.19h1.9l1.22,1.19,1.19.26v1.19l.48.26-.71.96.94.71-.48.96v1.19l1.22.74,1.45-.26.71.48.48-2.15-.71-1.19.45-.96,1.22-.96,2.27.11-1.19-3.83,1.45-1.7v-1.9l-2.18-1.7.26-1.19,2.41-.71.23-1.7-2.41-3.12-.23-3.6,1.19-1.9,3.37.23v-.96l-1.67-.96.45-2.15-1.9-3.34,1.45-1.22,2.64.96.71-1.19-.23-2.15-1.45-.74-.11-.88-.26.03-3.12-2.64-4.08,1.45c.09-.68.14-.71.31-1.36l-.06-.09.71-1.19-.48-2.41-3.83.74-7.94-8.16,3.37-2.41-1.7-6.24-.94-.48-3.37-4.79-4.79-3.86-1.93-.48-3.6-3.34-.96,1.19v2.64l-3.12-2.86-.96,3.12-4.31-1.45h-2.41l-1.93-.71-.71,1.42-1.93,1.45-1.45-.96-.23,2.89-1.19-.48-2.41-2.89-4.08,1.45v.96l.71.71-1.19,1.93v1.67l-2.64-1.19v-.96l-2.41,1.93-1.42-2.15-.96-.26v2.64l-1.45,2.18-.26,1.19-3.6,3.37-.71-.96-.96,1.19,2.89,2.15-.48,1.67,1.93.26.23,1.45h.71l.23-.71.03-.26.71.23.26.74.48.48.96-1.45h1.19v-1.93l1.93.96,1.42,1.67-1.42.48.23,1.93-2.18.14-.23.09-.48,1.45.48,2.41,2.41,1.19-1.19,1.93-2.15-.48-1.45.96-1.7,2.15-2.64,1.19v.74h1.22l1.19-.48,3.83.23.96.26.26,1.67,1.45.48v.48l.71,1.19-.23,1.45,1.9.71.48,1.22,1.93-1.45,4.31,1.93v.48l-5.27.48.71,2.15h2.18l.96.71,1.9,1.67.26.74h.71l.96,1.45h-1.45l-3.6-1.7-4.31.26-.26-1.45h-.96l-.94,2.89,1.67.48-1.19,1.67-3.15-.48-.71,1.93-4.79-.48h-.74l-2.86-1.22-.26,4.08,2.89,1.7,1.19,1.42v.26l-.48,1.93-2.38-.26-.48.96.48,1.19-3.12.26v1.93l-4.56-.26v1.93l-6.01-.96.23-.96-4.31-.23-.23-1.9-3,3.2-.74,2.41.26,4.31-2.64-.71-2.18.23-.23,5.05,2.64.74,3.12,3.34-.48,2.64,3.37,2.41.96,1.93-1.93,4.08,2.64,1.9.71-.96,1.22,2.41-4.34-.71-.48,1.42.96,2.18,1.22.23-.96.96-.26,1.67-2.15.26,2.15.23,2.64-.48,2.41.26.85-1.33,1.67.48.48-.96.96.74.23,1.19,1.22.23,5.75.26.54.03,5.22-.28.71-.71,4.82-.23,1.67-1.7,2.41-.96,2.86,1.93-.96.96-.23.23-.06.62,1.02,2.52.71-.26v-2.64l-.48-.71.74-.74.28.03.68.94-.26.48v1.45l.26.48,3.34.23.96-1.93v-1.28Z"/>
        <path class="cls-4" d="m53.74,38.47l-2.4-1.19-.49-2.41.49-1.45.22-.08,2.18-.15-.22-1.92,1.42-.49-1.42-1.67-1.93-.96v1.93h-1.19l-.96,1.44-.49-.48-.25-.74-.71-.22-.03.25-.22.71h-.71l-.23-1.45-1.93-.25.48-1.67-2.89-2.16.97-1.19.71.97,3.6-3.38.25-1.19,1.45-2.18-4.09-1.9-1.44-4.56,1.44-1.19-1.21-4.57-2.87,2.38-2.63.74-.49.71h-3.11l-1.22,1.67-.48,3.6-2.39.96-4.08-3.11.23,2.89-1.67,1.93.22,2.63-1.41,2.64-.26,1.93-7.91-2.41-3.6,2.15-.96,2.64,3.49-.12-.49,5.76.23,2.15-3.34,7.2-4.82.26-2.87,1.19,4.31,18.73,1.19.49-.22-4.57,1.92-.48,6.95,5.05,2.41,4.79,5.04,4.56-.59.62.22,1.9,4.31.23-.22.96,6.01.97v-1.93l4.56.26v-1.93l3.12-.26-.48-1.19.48-.96,2.38.25.48-1.92v-.26l-1.19-1.42-2.89-1.7.25-4.08,2.87,1.22h.73l4.79.48.71-1.93,3.15.49,1.19-1.68-1.67-.48.93-2.89h.97l.25,1.45,4.31-.26,3.6,1.7h1.45l-.97-1.44h-.71l-.25-.74-1.9-1.67-.96-.71h-2.19l-.71-2.16,5.28-.48v-.48l-4.31-1.93-1.93,1.45-.48-1.22-1.9-.71.23-1.45-.71-1.19v-.48l-1.45-.48-.25-1.67-.97-.26-3.82-.22-1.19.48h-1.22v-.74l2.63-1.19,1.7-2.15,1.45-.97,2.15.48,1.19-1.92Z"/>
        <path class="cls-4" d="m79.43,77.84l-1.45-.26-3.6.97-.96.96-.71,2.64.48,2.63-.25.49-.49,1.67,2.41,1.93,1.68,4.08-.49,5.27h-.93l-.74,1.93.96.74.26,1.67.94,2.63v2.41l-1.68.71-.22,3.38-1.45,1.41-.74-.48-.79,1.5,1.11,2.02-1.31,1.84,3.32,3.57v.88l1.36.57,1.56.08-.29-1.62-.82-.42.57-.99,3.34.65.37,1.76,1.14.11.02,2.95.74,1.02,3.54,1.08-.9,1.58,6.57,1.17.29,1.72.68.77.85.54v1.02l2.52.79.11.71-1.38-.11-.97-.48-1.5.36.14.17.34,2.16,1.45.85.62.91,5.05-.37v-2.16l8.05.34.22,2.53.97-.6.85.97,2.75-1.45,2.04,3.71h.37l2.18.4-1.16-1.16.59-.97,1.31.37,1.33-1.56-1.93-1.7,1.93-1.3,1.19,1.08,1.44-.49,1.56-.85-.22-.93-1.45-.63.71-.82,1.33-.14v-.94l1.08-2.77,1.08-2.04,2.63-.12-1.92-2.41-.49-5.86,3.38-1.2v-.73l2.63-5.76.34-.28-1.58-.14,1.19-2.41-.49-3.12,2.19.71.48-2.15.93-.71-.48-2.89-.45-2.87-3.15-2.89-2.63-1.19h-1.9l-1.45-6.97-1.22-1.19.26-3.38-1.19-2.63-1.7-.97h-1.19l-.71-2.15-7.94.48-2.27-.11-1.22.96-.45.97.71,1.19-.48,2.15-.71-.48-1.45.25-1.22-.73v-1.19l.49-.97-.94-.71.71-.96-.48-.26v-1.19l-1.19-.25-1.22-1.19h-1.9l-.97,1.19-.96.25-.48-.48-1.45-1.67-2.63.71-.49.96-2.4-.71-1.9-.25-.97.96h-.96l-.48-.48-3.38.26v1.19l-2.63.96h-1.19Z"/>
        <path class="cls-4" d="m59.95,141.53l-2.52-1.5-.91.54h-2.21l-2.21-1.02v-1.73l-1.76-.06-1.19,1.68-1.5,1.87-1.08.65-3.43-6.01-4.62.48-2.52-2.8-3.17-.74-.49-1.79-1.13-.25-.71-1.42-1.33,2.64-4.82-4.31-1.67-.37-.48,2.64-1.22,1.21,1.44.71-2.86,1.45,4.53,4.31.26,2.41-.74,1.67.97.96-1.19,1.19-3.12.74.96,1.19-.48,1.45,3.6,1.92.71,5.28-2.89.79-2.61-1.53-.26,1.93,5.05.96-2.15,4.08-3.38.23,1.19,2.89,2.41-1.44v-.97l7.2-1.19,2.41,3.12-.25,3.12,2.63,1.44,1.7-.71-.73,2.16-1.68,2.63,2.41,2.16,5.05-.23-1.7,2.64v3.34l-.71,1.93,2.64,5.05,1.95.45-.74,2.47,4.94-.17.82-.74,2.3.74,2.74-.74,6.44-.11,4.62,1.19,2.75-1.42.06-.85-1.25-.65,1.9-3.8,4.93-4.68.48-1.67,3.77-.88.8-.77-.26-.9-3.23-.97-1.13-2.94.28-1.02,1.33-.35-2.15-2.29-1.93-.17-1.02-2.41-2.69-1.08,2.09-3.34.23-1.28h-1.5l-1.02-1.25,1.64-.59,1.36.71.2-1.28,2.1-.65.11-.77-2.95-.9-.96-3.43-1.62-1.14.06-.65-5.92-5.24.54-2.58,1.07-.06-.17-.79-1.44-.54-.97,2.15Z"/>
        <path class="cls-4" d="m130.65,137.25l4.08.83.26,1.07h1.55l2.16,1.08.96,4.22-2.11,1.03-1.02.67-1.69.42-3.16.14-.11.39,3.03.25-1.87,2.35.75,2.52-.65,2.89,3.12,3.01,2.15,1.56-.73,1.7,2.89,1.19,5.44-6.86,4.62-2.58,1.31.05.96-1.07,1.39,1.07,1.19-.19.25,2.12,2.16.29,2.52-2.81,3.77.34,3.23,4.19,2.95.63.96-.91.91.85,1.45-2.72-.43-1.67-.96.79-.65-.48v-1.5l.82-.31.37-1.03-.97-1.19.23-1.02,1.22-.11-.43-2.24,2.16-.71.11-1.13-.76-.48.7-.74,2.44-.4v-.96l-.96-1.93-5.05-.23v-2.89l-1.19-.22-.22-2.41,4.3,1.22,1.19-1.22-.48-.48-.22-1.2-1.68-1.67-.25-2.18,1.7-2.86-.26-2.64-.96-.74-.48-.96-.71-.23-.96-2.15-1.68-.74.23-1.19h-1.67l-.71-1.44-1.22-.23v-4.08l-4.08-.26-.71,1.93-3.12.48-3.12-.23-4.82.94-1.67-1.19h-3.12l-.22-.71-1.22,3.83-3.12-.97-2.15-2.63h-1.68l-1.67-1.48-1.44,1-.83-.09-.34.28-2.63,5.76v.73l-3.38,1.2.49,5.86,1.92,2.41-2.63.12-1.08,2.04-1.08,2.77v.94l-1.33.14-.71.82,1.45.63.22.93-1.56.85-1.44.49-1.19-1.08-1.93,1.3,1.93,1.7-1.33,1.56-1.31-.37-.59.97,1.16,1.16.45.08v.97l6.24.85,1.79-3.01,2.18-.96,1.67.6v-2.27l.71-2.16Z"/>
        <path class="cls-1" d="m163.5,220.34l2.86-.82.48,1.79,1.22,1.81,1.42.82,1.22.62,6.72,2.15,2.15-1.28-1.79-.11-.14-1.22-1.3-.48.03-.03h-.03l1.42-1.56-.71-2.35-1.45-.48-.23,1.42h-.6l-1.08-3.6v-.03l1.45-.11.45-1.56h.26l1.02-.2.06-.06,1.67.6.96-1.9,1.08-.14v-2.58l-3.34,1.08h-1.45l-.85.48-3.83-1.22-2.41-.45.03-.06h-.03l.48-1.16-.96-.37.06-.03h-.06l1.45-.96.23-4.03v-.06l.85.6,1.81-3.23,1.3-5.53,4.82-.34v-3.6l-5.02.11-2.3-1.42v-.06l1.67-5.64v-5.84l-1.08-1.3-3.74-.74-.34-1.45-.37-4.08v-.03l3.12-3.49,2.86.37-.82-2.95h.03l-.03-.06,1.3-.11-.57-4.65v-.03l1.16-.48-2.49-2.72-.23.11-.91-.85-.96.91-2.95-.6-3.23-4.2-3.77-.37-2.52,2.83-2.15-.31-.26-2.1-1.19.17-1.39-1.08-.96,1.08-1.3-.06-4.62,2.58-5.44,6.86h-.03l-1.3,1.42-3.12-.37v1.93l-2.98,1.56-1.22-.14-.71-1.56-.74,1.22-.34,1.67.48.96-1.22.85-2.52-1.33.74-1.67-2.52,1.67.48,3-2.15-.11-.96-1.56-1.67.71,6.09,9.47-2.01,1.36.06.14,1.33.48h2.64l2.41,3.12-1.7,2.89,1.33.85,2.75.34-.96,2.52,1.81,1.7.96,2.49,2.27-.23,1.56.37v1.19h3.12l2.3,1.19,1.19,1.08,2.64,4.25v.09l.11,1.79,1.7.37,2.04,1.81-.48,2.49,6.83,6.86.85.48"/>
        <path class="cls-5" d="m163.5,220.34l2.86-.82.48,1.79,1.22,1.81,1.42.82,1.22.62,6.72,2.15,2.15-1.28-1.79-.11-.14-1.22-1.3-.48.03-.03h-.03l1.42-1.56-.71-2.35-1.45-.48-.23,1.42h-.6l-1.08-3.6v-.03l1.45-.11.45-1.56h.26l1.02-.2.06-.06,1.67.6.96-1.9,1.08-.14v-2.58l-3.34,1.08h-1.45l-.85.48-3.83-1.22-2.41-.45.03-.06h-.03l.48-1.16-.96-.37.06-.03h-.06l1.45-.96.23-4.03v-.06l.85.6,1.81-3.23,1.3-5.53,4.82-.34v-3.6l-5.02.11-2.3-1.42v-.06l1.67-5.64v-5.84l-1.08-1.3-3.74-.74-.34-1.45-.37-4.08v-.03l3.12-3.49,2.86.37-.82-2.95h.03l-.03-.06,1.3-.11-.57-4.65v-.03l1.16-.48-2.49-2.72-.23.11-.91-.85-.96.91-2.95-.6-3.23-4.2-3.77-.37-2.52,2.83-2.15-.31-.26-2.1-1.19.17-1.39-1.08-.96,1.08-1.3-.06-4.62,2.58-5.44,6.86h-.03l-1.3,1.42-3.12-.37v1.93l-2.98,1.56-1.22-.14-.71-1.56-.74,1.22-.34,1.67.48.96-1.22.85-2.52-1.33.74-1.67-2.52,1.67.48,3-2.15-.11-.96-1.56-1.67.71,6.09,9.47-2.01,1.36.06.14,1.33.48h2.64l2.41,3.12-1.7,2.89,1.33.85,2.75.34-.96,2.52,1.81,1.7.96,2.49,2.27-.23,1.56.37v1.19h3.12l2.3,1.19,1.19,1.08,2.64,4.25v.09l.11,1.79,1.7.37,2.04,1.81-.48,2.49,6.83,6.86.85.48"/>
        <path class="cls-4" d="m106.75,180.62l.48-1.87,1.02-.94-3.23-1.5-.2,1.13-2.81.6.28,1.28-4.03.17-3.29-.85h-1.93l.14-.17-1.22.43-.23,1.08-2.04,1.45-1.33-1.33-.6-.06.06-.96-.65-1.25-2.95.54-.91,1.98-.82.23.17-1.93.85-.54-2.58-1.19-3.86-.85-3.77.88-.48,1.67-4.93,4.68-1.9,3.8,1.25.65-.06.85.88.2.85,2.64-1.19,1.45,1.56.82,2.04.37.94.96h1.33l3.23-2.64,2.3.6-1.08,4.2.71,1.22,2.15.6.6,1.67,2.18,2.41-3.6.48-3.49,3.71-.11,2.27-.48,2.52.48,3.86-2.78-.62-4.31,1.59-2.52,2.98v1.45l-1.08,1.45.57,1.62.03-.03.71,1.45,4.71,1.79,2.38,2.52,2.15,3.71,4.82-.48,1.56.48.23-.71,4.71.14.6-.03,2.38.11,1.67-.71,1.11.85,7.91-5.16-4.45-2.89-.48-2.04,1.81-.11v-.37l1.56-.71.37-2.52,3.71-.11,1.56-.62,3,1.7.34-.26-.94-1.56.11-6.72h.6l-1.08-2.04h-.74l-.34-1.79,2.75-2.41.74-1.56-2.78-.96-.82-.96.71-2.75.85-1.33,1.67-1.08,1.79-.23-2.15-4.2-.48-3.6.6-1.81,2.89-3.34-1.56-1.53.14-1.16h-2.18l-1.79-.71v-.05Z"/>
        <path class="cls-4" d="m109.13,192.78l2.15,4.2-1.79.23-1.67,1.08-.85,1.33-.71,2.75.82.96,2.78.96-.74,1.56-2.75,2.41.34,1.79h.74l1.08,2.04h-.6l-.11,6.72.94,1.56-.34.26,1.79,1.9.48,3.97,1.33.11,1.67-.48.71.62.37-1.56.85.82h6.58l.26-3.34,1.93.6,1.56-.26-1.7-1.56-.45-1.08,1.08-.82.71.71,3.49-2.89,6.83-3.83,1.08.23,2.78,2.04-.48,1.08,1.3,2.3,1.22-.26-.48-1.08.11-3.46.37-3.86,1.3-3.49.96.26.23-1.22.74-1.3h.82l1.11-.48,1.25-.23-2.58-4.25-1.19-1.08-2.3-1.19-1.3.23-1.81-.23v-1.19l-1.56-.37-1.08.23h-1.19l-.96-2.49-1.81-1.7.96-2.52-2.75-.34-1.33-.85,1.7-2.89-2.41-3.12h-2.64l-1.33-.48-.09-.11-.11.06-.96-1.79-2.38.23,2.64,4.93.23,1.9-4.56,1.81v-3.71l-1.19-2.52-1.67-.26-1.96.62-1.93-1.22-.28,2.41-.2-.14-2.89,3.34-.6,1.81.48,3.6h-.04Z"/>
        <path class="cls-4" d="m81.52,200.66l-.6-1.67-2.15-.6-.71-1.22.48-2.27.6-1.93-2.3-.6-3.23,2.64h-1.33l-.94-.96-2.04-.37-1.56-.82,1.19-1.45-.85-2.64-.88-.2-2.75,1.42-4.62-1.19-6.43.11-2.75.74-2.3-.74-.82.74-4.93.17.74-2.47-1.96-.45-1.67.48-1.93,5.27-.96-.23-.48,1.9,3.6,2.41h.74v1.93l-3.12,2.15.45,1.45h.74l-.48.71-.96.26,3.86,5.5-.26,3.37-2.41,1.93,2.66,3.6v1.9l1.9,1.7.74,1.67.23,2.64-.48.71.48.74-5.27,2.86-2.89,2.41-.23,2.41,1.08.17,4.76-4.05,3.12,3.23,4.2-2.41,3.12,2.89,3.12.71,1.67-2.64,1.45-.11-.11-.74,4.79-4.68,2.27-.96,1.3-1.73-.57-1.62,1.08-1.45v-1.45l2.52-2.98,4.31-1.59,2.78.62-.48-3.86.6-4.79,1.3-1.56,2.18-2.15,3.6-.48-2.18-2.41-.03.03Z"/>
        <path class="cls-1" d="m209.03,176.47l-.66-7.04,2.19-9.47-1.93-.11-2.52-3.01-3.97-1.33-.71.62-4.79.12-.37-6.5-2.15-.22-.06-.09-.03.03-2.63-.23-.26-1.7-3.83-2.15h-.73l-2.16,3.6-1.67-2.86-5.53-2.41v-.97l-2.44.4-.7.74.76.48-.11,1.13-2.16.71.17.68.26,1.56-1.22.11-.23,1.02.97,1.19-.37,1.03-.82.31v1.5l.65.48.96-.79.43,1.67-1.22,2.58,2.52,2.78h-.03l.03.03-1.19.48.6,4.65h-.03l.03.02-1.31.15.82,2.94h-.02l.02.03-2.89-.34-3.12,3.46.37,4.05.34,1.45,3.74.71,1.08,1.33v5.93l-1.67,5.58,1.79,1.08,5.52.25v.03l.12,2.95,9.12-1.31,1.19,1.2,2.53-.12v-2.29l-1.45-4.79-1.93-.97-.11-2.27-2.04-2.15,2.15-2.3,8.8,10.23"/>
        <path class="cls-5" d="m209.03,176.47l-.66-7.04,2.19-9.47-1.93-.11-2.52-3.01-3.97-1.33-.71.62-4.79.12-.37-6.5-2.15-.22-.06-.09-.03.03-2.63-.23-.26-1.7-3.83-2.15h-.73l-2.16,3.6-1.67-2.86-5.53-2.41v-.97l-2.44.4-.7.74.76.48-.11,1.13-2.16.71.17.68.26,1.56-1.22.11-.23,1.02.97,1.19-.37,1.03-.82.31v1.5l.65.48.96-.79.43,1.67-1.22,2.58,2.52,2.78h-.03l.03.03-1.19.48.6,4.65h-.03l.03.02-1.31.15.82,2.94h-.02l.02.03-2.89-.34-3.12,3.46.37,4.05.34,1.45,3.74.71,1.08,1.33v5.93l-1.67,5.58,1.79,1.08,5.52.25v.03l.12,2.95,9.12-1.31,1.19,1.2,2.53-.12v-2.29l-1.45-4.79-1.93-.97-.11-2.27-2.04-2.15,2.15-2.3,8.8,10.23"/>
        <path class="cls-1" d="m198.43,188.16l.36-.85,2.04,1.56,2.39-3,2.52-.12,2.04-1.92,3.12-2.75.37-.97,2.97-.56-.68-5.42-.14.12-4.79-.6-.54,2.64"/>
        <path class="cls-5" d="m198.43,188.16l.36-.85,2.04,1.56,2.39-3,2.52-.12,2.04-1.92,3.12-2.75.37-.97,2.97-.56-.68-5.42-.14.12-4.79-.6-.54,2.64"/>
        <path class="cls-1" d="m208.09,176.29l.54-2.64-.2-3.23"/>
        <path class="cls-5" d="m208.09,176.29l.54-2.64-.2-3.23"/>
        <path class="cls-1" d="m188.87,180.65l2.24,2.35.71-.11"/>
        <path class="cls-5" d="m188.87,180.65l2.24,2.35.71-.11"/>
        <path class="cls-4" d="m210.56,159.96l-2.13,10.46.2,3.23,4.9.48,4.08-3.26.26-2.64,2.27-6.24h1.45l-.23.96,6.72-.26,4.56,4.82,7.2.48.82,2.27,5.3.85-1.11-1.22v-1.42l-1.67-1.45-.11-2.04,1.93-.6,4.48,2.58.48-1.93-.74-.94.31-.6,1.62-2.55-4.08,2.66-.96-.96-.48-3.37-.71-1.45-.26-2.64-5.27-.96.96-2.38,1.45-1.7h.96l.23.96c.43-.06.45-.06.85-.06l2.75-.65-.06-.23,1.25-2.18-.48-.96.48-3.12h-9.1l-1.7-4.79-.96-.71-.09-.31-.37-1.13-2.41-2.15h-1.45l-2.1-3-3.66,1.3v2.18h-2.64l.71,3.34-.71.48-.26,1.93h-7.91l-1.93,1.45-2.15-.26.48,3.12-1.45,1.19-5.05-.94-.96,1.9-2.86-1.9-1.67.71-1.22.23-.71.96-2.64.96-.94.94.06.09,2.15.23.37,6.49,4.79-.11.71-.62,3.97,1.33,2.52,3,1.93.11.03.04Z"/>
        <path class="cls-4" d="m217.62,170.87l-4.06,3.26.82,5.39,1.68,1.19-.97,1.7-.45,2.75.59,2.27-.73,2.89,2.63.85.74,1.19h6.01l-.25,3.6,3.6,3.37-.71,3.6,2.38,2.38,1.44.97-1.19,2.15.12.74,1.19,1.3-.94.6,4.54,3.97.42.7-.14-.99,5.27-2.63.97.71.73-2.39-5.52-.73-1.68.73.97-6.71,5.01-2.9-1.41-2.15-.48.48-1.22-2.63,2.41.7,2.89-5.75v-.74l1.41-.71,2.19,2.41,2.38-.25,1.7-4.56,1.42.25.62-1.56-1.11-.85-.48-2.41,1.22-2.63-2.15-1.2,5.27-2.63-.48-1.67,1.44-2.9-.73-2.15,1.44-2.15-.71-.97-3.37-.48-1.93,1.45-.93-.74-3.29-1.87-1.19-.71-1.93.59.11,2.05,1.68,1.44v1.42l1.1,1.22-5.3-.85-.82-2.27-7.2-.48-4.56-4.82-6.72.25.22-.96h-1.44l-2.27,6.24-.25,2.63Z"/>
        <path class="cls-1" d="m198.53,187.91l-7.42-4.9-2.24-2.35-.54-.54-2.15,2.3,2.04,2.15.11,2.27,1.93.96,1.45,4.79v2.3l-2.52.11-1.19-1.19-9.13,1.3-.11.65v.03l-4.82.37-1.3,5.53-1.81,3.23-.85-.6-.23,4.03v.06l-1.39.91.91.37v.03l-.45,1.16,2.38.48,3.83,1.19.85-.48h1.45l3.34-1.08v2.69l-1.08.11-.96,1.93-1.67-.6h-.06l-.17.2h-.85l-.26.03-.45,1.56-1.45.11,1.08,3.57h.6l.23-1.45,1.45.48.74,2.41h-.03l.03.03-1.42,1.53,1.28.48.14,1.19,1.79.11.26-2.75,1.3-2.52.43.09.45-1.13h7.2l1.7.48,1.67-.48,1.19,1.93-1.9,9.13,1.67,4.31,3.12,1.45,2.15,3.12,1.93-3.83,2.15-.26,3.86-4.31,1.9.23.48,2.64-.03.4.03.34-.48,3.34,3.12-.48,5.78,1.7,3.83-6.01,1.45-.48-.48-3.34,2.64-2.18,1.19-4.31,6.72.71v1.22l1.22.96,1.45-2.41-1.08-7.17-.43-.71-4.54-3.97.94-.6-1.19-1.3-.11-.74,1.19-2.15-1.45-.96-.96-.82-1.42-1.56.71-3.6-3.6-3.37v-1.56l.26-2.04h-6.01l-.74-1.19-2.64-.85.74-2.89-.6-2.27.45-2.75.96-1.7-1.79-1.08-.03-.09-2.98.57-.37.96-5.16,4.68-2.52.11-2.38,3-2.04-1.56-.37.85"/>
        <path class="cls-5" d="m198.53,187.91l-7.42-4.9-2.24-2.35-.54-.54-2.15,2.3,2.04,2.15.11,2.27,1.93.96,1.45,4.79v2.3l-2.52.11-1.19-1.19-9.13,1.3-.11.65v.03l-4.82.37-1.3,5.53-1.81,3.23-.85-.6-.23,4.03v.06l-1.39.91.91.37v.03l-.45,1.16,2.38.48,3.83,1.19.85-.48h1.45l3.34-1.08v2.69l-1.08.11-.96,1.93-1.67-.6h-.06l-.17.2h-.85l-.26.03-.45,1.56-1.45.11,1.08,3.57h.6l.23-1.45,1.45.48.74,2.41h-.03l.03.03-1.42,1.53,1.28.48.14,1.19,1.79.11.26-2.75,1.3-2.52.43.09.45-1.13h7.2l1.7.48,1.67-.48,1.19,1.93-1.9,9.13,1.67,4.31,3.12,1.45,2.15,3.12,1.93-3.83,2.15-.26,3.86-4.31,1.9.23.48,2.64-.03.4.03.34-.48,3.34,3.12-.48,5.78,1.7,3.83-6.01,1.45-.48-.48-3.34,2.64-2.18,1.19-4.31,6.72.71v1.22l1.22.96,1.45-2.41-1.08-7.17-.43-.71-4.54-3.97.94-.6-1.19-1.3-.11-.74,1.19-2.15-1.45-.96-.96-.82-1.42-1.56.71-3.6-3.6-3.37v-1.56l.26-2.04h-6.01l-.74-1.19-2.64-.85.74-2.89-.6-2.27.45-2.75.96-1.7-1.79-1.08-.03-.09-2.98.57-.37.96-5.16,4.68-2.52.11-2.38,3-2.04-1.56-.37.85"/>
        <path class="cls-1" d="m158.31,217.56l-6.69-6.94.48-2.49-2.04-1.81-1.7-.37-.11-1.79-.03-.09-2.38.71h-.82l-.96,2.52-.96-.26-1.3,3.49-.48,7.31.48,1.08-1.22.26-1.3-2.3.48-1.08-2.78-2.04-1.08-.23-6.83,3.83-3.49,2.89-.71-.71-1.08.82.45,1.08,1.7,1.56-1.56.26-1.93-.6-.26,3.34h-6.58l-.85-.82-.23,1.67-.26,2.41,3,2.01,1.79,2.04-1.19,1.22-.48,2.15-2.41.23.14,4.45,1.28-.06v.03l3.4-.09,5.75-1.45.6,1.08,4.08.85-.11,11.4-.85.37,1.33,2.98.48,1.33,1.05-.06,1.33-.06,2.18-.48-.85-2.3,1.33-.94,3.71-3.49,3.6-2.04,4.31-.26-.48-6.12,2.41.62,6.24,1.9.48-2.64-2.15-.6-.26-1.19-1.3-.11.6-1.11,2.41-.71-.85-.96,1.08-.37,1.19.14.26.34.71-1.79,1.81,1.56,3.71-6.01,3.12-1.3,1.45.11,1.3-1.19,1.22-.37.23-1.08.74-.85-.48-1.56-1.7-.99-1.42-.71-.09-.11-2.89.51-1.59-1.25-.17.03"/>
        <path class="cls-5" d="m158.31,217.56l-6.69-6.94.48-2.49-2.04-1.81-1.7-.37-.11-1.79-.03-.09-2.38.71h-.82l-.96,2.52-.96-.26-1.3,3.49-.48,7.31.48,1.08-1.22.26-1.3-2.3.48-1.08-2.78-2.04-1.08-.23-6.83,3.83-3.49,2.89-.71-.71-1.08.82.45,1.08,1.7,1.56-1.56.26-1.93-.6-.26,3.34h-6.58l-.85-.82-.23,1.67-.26,2.41,3,2.01,1.79,2.04-1.19,1.22-.48,2.15-2.41.23.14,4.45,1.28-.06v.03l3.4-.09,5.75-1.45.6,1.08,4.08.85-.11,11.4-.85.37,1.33,2.98.48,1.33,1.05-.06,1.33-.06,2.18-.48-.85-2.3,1.33-.94,3.71-3.49,3.6-2.04,4.31-.26-.48-6.12,2.41.62,6.24,1.9.48-2.64-2.15-.6-.26-1.19-1.3-.11.6-1.11,2.41-.71-.85-.96,1.08-.37,1.19.14.26.34.71-1.79,1.81,1.56,3.71-6.01,3.12-1.3,1.45.11,1.3-1.19,1.22-.37.23-1.08.74-.85-.48-1.56-1.7-.99-1.42-.71-.09-.11-2.89.51-1.59-1.25-.17.03"/>
        <path class="cls-1" d="m158.31,217.56l-6.69-6.94.48-2.49-2.04-1.81-1.7-.37-.11-1.79-.03-.09-2.38.71h-.82l-.96,2.52-.96-.26-1.3,3.49-.48,7.31.48,1.08-1.22.26-1.3-2.3.48-1.08-2.78-2.04-1.08-.23-6.83,3.83-3.49,2.89-.71-.71-1.08.82.45,1.08,1.7,1.56-1.56.26-1.93-.6-.26,3.34h-6.58l-.85-.82-.23,1.67-.26,2.41,3,2.01,1.79,2.04-1.19,1.22-.48,2.15-2.41.23.14,4.45,1.28-.06v.03l3.4-.09,5.75-1.45.6,1.08,4.08.85-.11,11.4-.85.37,1.33,2.98.48,1.33,1.05-.06,1.33-.06,2.18-.48-.85-2.3,1.33-.94,3.71-3.49,3.6-2.04,4.31-.26-.48-6.12,2.41.62,6.24,1.9.48-2.64-2.15-.6-.26-1.19-1.3-.11.6-1.11,2.41-.71-.85-.96,1.08-.37,1.19.14.26.34.71-1.79,1.81,1.56,3.71-6.01,3.12-1.3,1.45.11,1.3-1.19,1.22-.37.23-1.08.74-.85-.48-1.56-1.7-.99-1.42-.71-.09-.11-2.89.51-1.59-1.25-.17.03"/>
        <path class="cls-5" d="m158.31,217.56l-6.69-6.94.48-2.49-2.04-1.81-1.7-.37-.11-1.79-.03-.09-2.38.71h-.82l-.96,2.52-.96-.26-1.3,3.49-.48,7.31.48,1.08-1.22.26-1.3-2.3.48-1.08-2.78-2.04-1.08-.23-6.83,3.83-3.49,2.89-.71-.71-1.08.82.45,1.08,1.7,1.56-1.56.26-1.93-.6-.26,3.34h-6.58l-.85-.82-.23,1.67-.26,2.41,3,2.01,1.79,2.04-1.19,1.22-.48,2.15-2.41.23.14,4.45,1.28-.06v.03l3.4-.09,5.75-1.45.6,1.08,4.08.85-.11,11.4-.85.37,1.33,2.98.48,1.33,1.05-.06,1.33-.06,2.18-.48-.85-2.3,1.33-.94,3.71-3.49,3.6-2.04,4.31-.26-.48-6.12,2.41.62,6.24,1.9.48-2.64-2.15-.6-.26-1.19-1.3-.11.6-1.11,2.41-.71-.85-.96,1.08-.37,1.19.14.26.34.71-1.79,1.81,1.56,3.71-6.01,3.12-1.3,1.45.11,1.3-1.19,1.22-.37.23-1.08.74-.85-.48-1.56-1.7-.99-1.42-.71-.09-.11-2.89.51-1.59-1.25-.17.03"/>
        <path class="cls-1" d="m159.31,217.96l-.96-.37-.03-.03"/>
        <path class="cls-5" d="m159.31,217.96l-.96-.37-.03-.03"/>
        <path class="cls-1" d="m163.33,222.41l.17-.03,1.59,1.25,2.89-.51-1.13-1.81-.48-1.79"/>
        <path class="cls-5" d="m163.33,222.41l.17-.03,1.59,1.25,2.89-.51-1.13-1.81-.48-1.79"/>
        <path class="cls-4" d="m157.12,237.06l-1.19-.14-1.07.37.85.96-2.41.71-.6,1.11,1.31.11.25,1.19,2.16.6-.49,2.63-6.23-1.9-2.41-.62.48,6.12-4.31.26-3.6,2.04-3.71,3.48-1.33.94.85,2.3-2.19.48-1.33.05.43.97.11.76-.68.91-.28,3.91-2.9.23-.34,1.73,4.09,1.56,1.78.37h.48l.23,1.02,7.29.85h.28l-.17,2.8,2.69.85.6-.65v-.2l-.48-.88,1.98-2.24.31-.48,2.58,2.64,1.08,1.98.96-1.19.12-.42.48,1.13.22.26-.34-.91,1.85-.43h.37l.31.74,2.01-.74.48-.7,1.28.7.17.74,1.22.77,2.49-4.62,1.39.48,3.49.51,1.1-2.89,4.08-5.28v-1.44l.97-1.19-1.7-.97,1.92-4.3-.48-3.6.26-2.67-1.45-1.42,1.93-5.52-.96-2.41,3.82-2.16.48.97,3.12-3.86,6.72-1.42,1.22-1.7-2.89-3.82-.97-.26.71-1.9-3.6-1.22-1.67.49,2.41-2.39-1.45-.48.26-.56-.43-.09-1.3,2.52-.26,2.75-1.78-.11-.14-1.19-1.28-.48-.03.03,1.31.48.14,1.22,1.78.11-2.15,1.27-6.72-2.15-1.22-.62,1.7.99.49,1.56-.74.85-.23,1.08-1.22.36-1.3,1.19-1.45-.11-3.11,1.31-3.72,6-1.81-1.55-.71,1.78-.26-.34Z"/>
        <path class="cls-4" d="m117.41,236.69l.48-2.15,1.19-1.22-1.79-2.04-3-2.01.11-2.52-.71-.62-1.67.48-1.33-.11-.48-3.97-.6-.6-1.19-1.3-.6-.26-2.41-1.45-1.56.62-3.71.11-.37,2.52-1.56.71v.37l-1.81.11.48,2.04,4.45,2.89-7.91,5.16-1.11-.85-1.67.71-2.98-.09-1.93.09-2.78-.23-.23.71-1.56-.48-4.82.48-2.15-3.71-2.38-2.52-4.71-1.79-.71-1.45v.09l-1.33,1.67-2.24,1.05.71,2.41,1.33-.48.17,1.28.91.28-.23,1.28-1.11.34-.71,1.7.96,1.42-.48-.06-.37,2.1,1.28,1.22-2.04.82.71,1.56,2.04-.48,2.04.26.74.71-.2,2.3-2.41.6-.4.54-2.83,1.62-1.25-.96h-3.66l-2.83,1.28.26,1.62,2.75,1.02-1.81,2.21,1.59,1.67-1.16,1.98-1.62-.06-2.86-1.08-1.11.48,1.81,1.62,2.32,1.13,1.93,1.93.2,4.03,1.25.54,4.45.37.96,2.01-1.22.14.37,1.45,2.27,1.3,2.04-1.08,8.76,4.31.62.74.34,1.19.74.11.6-.48.23,3.74-1.56,1.42.28.34,1.22.45.96-.11,2.27-1.45,3.86,7.68,2.27-.48v-.6l1.93.11-.11-1.19-1.08-3-1.08.6-1.56-2.27,2.75-4.93,1.45-.71,2.04-1.45-1.45-.74-.71-2.75-1.33-1.08.23-.96-1.19.85-2.15-1.22-.85-1.79.96-1.67,3.97,1.56,1.19.23.74-1.93.34-.71.96-.26.74-.6-2.78-2.75.48-2.75.37-.62-.6-.48-.14-1.56,2.78-.71,1.08,1.08,2.15-.6,1.33,1.19,1.08-.11,4.2.85-.96-.74-.37-5.5,5.78.48-.26-2.3,8.53-1.93-.26-3.32-1.28.03-.14-4.45,2.41-.23h.02Z"/>
        <path class="cls-4" d="m53.06,256.31l-1.81-1.62,1.11-.48,2.86,1.08,1.61.05,1.17-1.98-1.59-1.67,1.81-2.21-2.75-1.02-.25-1.62,2.83-1.27h3.66l1.25.96,3.23-2.16,2.41-.59.2-2.3-.74-.71-2.04-.25-2.04.48-.71-1.56,2.04-.82-1.28-1.22.37-2.1.49.06-.97-1.42.71-1.7,1.11-.34.22-1.27-.9-.29-.17-1.27-1.34.48-.71-2.41,2.24-1.05-2.26.97-4.79,4.67.11.74-1.45.11-1.67,2.64-3.12-.71-3.12-2.89-4.19,2.41-3.12-3.23-4.76,4.05,1.78.31-1.67,1.19-1.19-.22-.96,2.15-1.93-.74-.23,1.7-4.08.94-.74,2.18-2.15-.73-.96-1.45-1.68,1.45.71,1.7-.45,1.19-1.45-1.45-2.63,2.16,1.67,5.04-2.15,4.79.48,1.45,4.79.25-.71,5.98,2.15.97-.42,1.5,2.32,2.35-1.9,1.67-.96,3.6,2.41,3.83.37,1.59,1.76.74.17.73,4.08-2.95.79-1.27,3.29,1.81.59-1.75,1.62-.4,1.11-.79,2.57.42,2.64.6.96-1.79.12-2.24,2.8-1.08,3.26.91v-.25l.94-3.94.91.11-.29-1.5-.19-1.25,1.92-.96h1.33l-.19-4.03-1.68-1.45-.25-.48-2.33-1.13Z"/>
        <path class="cls-4" d="m56.18,263.4l-1.92.96.19,1.25.29,1.5-.91-.11-.94,3.94v.25l-3.26-.91-2.8,1.08-.12,2.24-.96,1.79-2.64-.6-2.57-.42-1.11.79-1.62.4-.59,1.75-3.29-1.81-.79,1.27-4.08,2.95-.17-.73-1.76-.74.82,3.46,1.45,2.89h1.89l-.22,1.93,3.68.31,3.12.96,1.33.85,4.68.85.71,1.19,1.33-.11,1.45.59.48,1.45,2.04,1.42.71-.12,1.08.49,1.21-.12.6,1.19,1.67.97.97,1.07,2.15,1.45,1.33-2.04h.71l-.11,1.44,3.23.97.71-.6-.23-1.58-.96-.6.85-.96-.26-5.02,2.04,1.08h1.34l.7.59.74-.11.48-1.82-.73-1.07,1.92-1.93.37-1.42.82-.25v-.85l.49.25,2.52-.37,1.81-2.26.6-.26,1.19-2.38-.2-.28-.28-.34,1.56-1.42-.23-3.74-.6.48-.73-.11-.97-1.93-.7-.23-8.06-4.08-2.04,1.08-2.26-1.31-.37-1.44,1.22-.15-.97-2.01-4.45-.37-1.25-.53h-1.33Z"/>
        <path class="cls-4" d="m56.13,297.52l-.97-1.07-1.67-.97-.6-1.19-1.21.12-1.08-.49-.71.12-2.04-1.42-.48-1.45-1.45-.59-1.33.11-.71-1.19-4.68-.85-1.33-.85-3.12-.96-3.68-.31-2.16-.74-1.44,1.19,2.41,3.85,1.9.97.48,1.19-1.67.96v.97l-2.64,3.82-3.6.74v3.35l1.67,1.7v3.11l.74,1.68,4.79.22,2.86,2.41-1.67.71,1.67,1.45-.71,3.12,2.64,2.15,2.15-.23,1.93,1.68.74-2.39.93-.73.97,1.67-.23,1.7,1.19,1.19,2.16-.23-.97,1.42v1.22l-.93.23,2.38,3.6,4.56-.97.97,1.22,3.82-1.7,1.45.48-.48-1.67,2.41-2.15-.23-1.19,2.86-3.15,2.16-.45-1.19-8.17,1.92.23.97-.71h2.15l1.45-1.93,1.64.29.23-1.51h-1.31l-2.63-2.63-.85.59-1.08-.25-.23-.94-2.04-1.33.12-.6,1.44-.59.71-.74.48-.48-.11-1.19-1.7-.23-.71.6-3.23-.97.11-1.44h-.71l-1.33,2.04-2.15-1.45Z"/>
        <path class="cls-4" d="m63.92,297.16l.23,1.58,1.7.23.11,1.19-.48.48-.71.74-1.44.59-.12.6,2.04,1.33.23.94,1.08.25.85-.59,2.63,2.63h1.31l-.23,1.51,1.22.19,2.41.97.23,4.31,2.18,2.15,1.42-1.9-1.19-2.63,1.44-.74,1.19-3.35.74,1.42,4.31-.23-.48,6.72,4.08.97,4.79.22,6.01,1.45.48,2.15.71.26,1.93-8.65h1.67v-3.82h2.41l-.14-2.02h-2.95l-.97-4.82h.85l-.59-1.41h-1.19l-.62-4.82-4.31-2.38-2.41.11-.23-1.93-1.33-.37v-1.55l-3.35-.34.34-2.53-1.56-.48-2.26.48-3.86-7.68-2.27,1.45-.96.11-1.02-.17-1.19,2.38-.6.26-1.81,2.26-2.52.37-.49-.25v.85l-.82.25-.37,1.42-1.92,1.93.73,1.07-.48,1.82-.74.11-.7-.59h-1.34l-2.04-1.08.26,5.02-.85.96.96.6Z"/>
        <path class="cls-4" d="m129.74,288.06l.91,1.61-.06,1.02h-1.08l-1.92,3.77-.26.8-2.1.65-2.8,4.39-1.28-.2h-1.36l-1.7,1.14,2.44,1.67.06-.08,2.89,1.92,1.41-.22,3.86,1.9.71,1.44.48-.71,1.45.97,1.19-1.45,3.6-.48,1.44-1.22,6.01.74,1.19-2.16,2.16.71.73-2.64,1.19.23.49-3.83-.97-1.44,2.64-.71h4.08l.74-4.08,2.15-2.64.97,2.16v-2.41l4.08-2.64,1.19-5.04-.26-2.39,1.93-1.44,2.41,1.44v-1.92l-.74-1.19v-.97l-1.41-.48,1.53-4.08-3.49-.51-1.39-.48-2.49,4.62-1.22-.77-.17-.74-1.28-.7-.48.7-2.01.74-.31-.74h-.37l-1.85.43.34.91-.22-.26-.48-1.13-.12.42-.96,1.19-1.08-1.98-2.58-2.64-.31.48-1.98,2.24.48.88v.2l-.6.65-2.69-.85.17-2.8h-.28l-7.29-.85-.23-1.02h-.48l-1.78-.37-4.09-1.56,1.31,1.5,2.35,1.08-1.27,3.06-.83-.06-.48-.82-.42.6-1.39,1.19-.65-1.08-.71.96-1.22-.9-.91.59-1.96-.48v.96l2.98,1.76-.65,1.56,1.27,2.32,2.16,2.16-.06.25.77,2.95,1.39,1.31.59,1.44-1.25-.31-1.27,2.52,1.5-.76Z"/>
        <path class="cls-4" d="m128.24,288.82l1.27-2.52,1.25.31-.59-1.44-1.39-1.31-.77-2.95.06-.25-2.16-2.16-1.27-2.32.65-1.56-2.98-1.76v-.17l-1.7-.2-1.78-.7-.26-.97-1.78.26-7.91-3.26-1.7.25-.23-1.44-1.56,1.44-2.52.6-1.56.59-.85,1.68-2.75-.6-3.12,1.7-2.04.11-.85.6-1.19.85-1.45.71-2.75,4.93,1.56,2.27,1.08-.6,1.08,3.01.11,1.19-1.93-.11v.59l1.56.48-.34,2.53,3.35.34v1.55l1.33.37.23,1.93,2.41-.11,4.31,2.38.62,4.82h1.19l.59,1.41h-.85l.97,4.82h2.95l-.12-1.13,3.15-1.19,3.34,5.27h1.93l2.64-3.83,1.19.23,1.87-2.55-2.44-1.67,1.7-1.14h1.36l1.28.2,2.8-4.39,2.1-.65.26-.8,1.92-3.77h1.08l.06-1.02-.91-1.61-1.5.76Z"/>
        <path class="cls-4" d="m124.27,272.38l.91-.59,1.22.9.71-.96.65,1.08,1.39-1.19.42-.6.48.82.83.06,1.27-3.06-2.35-1.08-1.31-1.5.34-1.73,2.9-.23.28-3.91.68-.91-.11-.76-.43-.97-1.05.06-.48-1.33-1.33-2.98.85-.37.11-11.39-4.08-.85-.6-1.08-5.75,1.45-3.4.08.25,3.32-8.53,1.93.26,2.29-5.79-.48.37,5.5.97.74-4.2-.85-1.08.11-1.33-1.19-2.15.59-1.08-1.07-2.78.71.14,1.55.6.49-.37.62-.48,2.75,2.78,2.75-.74.59-.96.26-.34.71-.74,1.93-1.19-.23-3.97-1.56-.96,1.67.85,1.79,2.15,1.22,1.19-.85-.23.96,1.34,1.08.71,2.75,1.44.73,2.04-.11,3.12-1.7,2.75.6.85-1.68,1.56-.59,2.52-.6,1.56-1.44.23,1.44,1.7-.25,7.91,3.26,1.78-.26.26.97,1.78.7,1.7.2v-.79l1.96.48Z"/>
      </g>
    </g>
  </g>
</svg>