<?xml version="1.0" encoding="utf-8"?>
<svg id="svg2457" width="1227" height="1272" version="1.0" viewBox="17.699 -0.803 1189.593 1273.587" xmlns="http://www.w3.org/2000/svg">
  <g id="g4971" transform="rotate(-5.5901884,511.84121,618.20954)">
    <path id="Zakarpatkaya_oblast_border" style="fill:transparent;fill-opacity:1;fill-rule:evenodd;stroke:transparent;stroke-width:1.2;stroke-linecap:butt;stroke-linejoin:miter;stroke-miterlimit:4;stroke-dasharray:none;stroke-opacity:1;opacity:1" d="M 900.571 799.989 C 863.747 457.394 92.808 1061.534 92.857 1061.985 C 91.197 1068.199 87.027 1068.675 82.397 1068.1 C 77.862 1069.694 74.381 1072.517 72.419 1077.112 C 72.213 1088.113 75.574 1097.586 78.213 1107.367 C 83.206 1112.863 88.574 1118.173 95.271 1122.817 C 101.061 1127.046 105.333 1132.558 105.571 1141.485 L 107.985 1155.164 C 113.194 1162.015 119.315 1164.537 127.94 1155.164 L 138.884 1154.681 C 139.136 1158.386 142.829 1157.503 148.218 1154.359 L 156.747 1147.117 C 161.224 1149.759 164.041 1153.727 170.426 1154.842 L 177.507 1162.567 C 181.813 1170.21 186.849 1176.391 189.577 1187.189 L 193.922 1208.754 C 195.045 1213.784 198.593 1215.579 204.865 1213.743 C 211.752 1216.125 219.861 1223.637 224.821 1217.927 C 228.182 1215.543 231.07 1212.527 236.891 1213.421 L 247.351 1224.042 C 254.861 1225.078 262.371 1225.811 269.882 1219.697 C 276.671 1225.203 275.614 1241.103 280.181 1239.492 C 283.096 1246.86 287.48 1247.253 292.09 1246.573 C 298.824 1252.011 306.231 1254.894 315.103 1252.205 C 317.409 1260.845 323.897 1256.939 330.392 1253.01 L 349.382 1247.217 C 360.767 1224.103 362.83 1207.139 354.049 1197.328 C 359.493 1193.257 361.792 1182.109 363.865 1170.452 L 376.74 1164.337 L 378.027 1160.636 L 375.452 1158.222 C 369.267 1158.997 366.267 1154.995 364.348 1149.37 C 362.554 1137.513 366.013 1125.28 370.142 1113 C 372.942 1107.99 372.298 1102.487 372.234 1097.068 C 380.968 1088.525 389.468 1079.67 399.431 1072.767 L 399.914 1065.847 C 403.276 1064.8 406.714 1064.031 411.34 1067.617 C 414.36 1069.071 416.097 1067.446 416.973 1063.755 L 426.307 1045.731 C 427.256 1041.255 428.254 1036.785 425.019 1031.891 L 431.135 1021.43 L 441.112 1022.235 L 444.975 1026.258 L 458.171 1007.59 L 463.16 1005.337 L 466.861 1011.613 L 478.77 1021.269 C 494.904 1023.16 513.043 1023.044 523.992 1030.12 C 527.436 1030.236 531.41 1022.933 535.257 1017.407 L 551.994 1007.912 L 567.604 1015.798 L 571.628 1018.051 L 571.145 1024.005 L 576.777 1027.545 L 593.675 1006.303 L 609.929 1005.82 L 628.597 1013.866 L 631.655 1020.143 L 638.092 1022.878 C 641.214 1017.659 642.303 1011.495 656.921 1011.613 L 661.749 1012.096 L 667.703 1007.912 C 671.995 1010.127 676.286 1010.806 680.578 1006.624 L 693.774 995.037 L 720.489 991.819 L 725.156 986.991 L 739.801 987.152 L 751.227 999.865 L 757.825 999.704 L 758.308 987.474 L 762.653 983.129 L 763.136 962.69 C 754.891 959.316 745.642 958.951 736.582 958.023 C 729.605 957.616 723.142 956.524 718.719 952.713 C 723.598 951.248 727.129 948.097 730.306 944.505 C 731.177 938.525 730.758 932.384 734.812 926.803 L 718.075 919.561 L 710.511 924.871 C 705.545 919.085 708.08 910.62 708.741 902.824 L 729.501 903.468 L 735.295 898.64 L 740.283 904.594 C 746.902 902.957 747.96 896.686 749.617 890.915 C 750.457 880.716 753.522 871.816 764.584 867.58 L 764.745 863.557 L 749.135 844.728 C 740.918 830.593 749.851 823.399 759.273 816.404 L 765.389 815.277 L 767.32 795.322 C 760.08 790.071 762.247 785.182 766.032 780.355 L 776.815 779.712 C 779.485 779.453 781.684 778.486 781.804 774.401 L 777.941 763.297 C 784.03 763.737 788.242 757.231 791.299 751.549 L 800.15 751.549 L 813.024 757.342 L 808.679 763.779 C 806.423 767.881 809.354 769.019 813.024 769.734 C 816.243 773.224 819.247 773.27 822.036 769.895 L 832.819 768.446 L 837.808 773.596 C 843.479 780.998 850.108 787.061 857.924 791.46 C 862.502 793.027 866.215 792.721 868.224 788.724 L 882.064 794.517 L 890.11 793.23 L 896.869 790.172 L 901.536 792.747 L 900.571 799.989 Z M 900.41 799.989 C 741.189 574.316 1189.12 479.092 1189.12 479.092 C 1196.555 487.154 1202.69 496.793 1215.835 497.921 L 1215.996 523.187 L 1221.629 528.82 L 1217.283 533.326 L 1210.524 529.624 L 1201.834 540.246 L 1204.409 551.672 L 1195.88 563.259 L 1194.592 577.904 C 1188.664 577.421 1183.414 578.022 1179.626 580.962 C 1172.485 578.774 1163.475 571.758 1161.118 581.927 L 1158.061 598.664 L 1151.624 599.469 C 1147.064 592.184 1142.504 591.95 1137.944 600.112 C 1128.029 599.232 1118.652 593.501 1109.138 589.008 L 1105.919 592.227 L 1101.896 589.008 L 1095.137 593.353 L 1094.493 599.469 L 1075.986 597.698 L 1071.802 592.71 L 1068.261 593.675 L 1069.227 628.597 L 1065.686 634.23 C 1072.496 640.424 1082.226 646.812 1070.514 651.771 L 1067.617 650.645 L 1058.605 658.53 L 1058.283 663.036 L 1051.846 667.06 L 1044.926 654.99 L 1037.041 654.507 C 1025.844 667.522 1017.874 681.254 1018.212 696.832 L 1009.843 705.844 L 1013.545 711.96 L 1005.176 712.442 L 996.486 727.087 L 992.302 726.926 L 991.175 732.076 C 986.838 733.588 984.784 731.905 984.738 727.409 L 976.852 728.053 L 974.921 733.363 L 970.093 732.559 L 968.806 729.018 L 963.978 727.892 L 959.633 732.881 L 953.034 733.524 L 956.414 747.203 L 953.356 749.135 L 947.402 738.674 L 926.803 742.054 L 926.964 746.721 L 894.777 748.974 C 898.145 758.254 901.79 767.534 894.295 776.815 L 896.869 789.689 L 901.536 792.908 L 900.41 799.989 Z M 1189.12 479.092 C 976.011 519.043 1111.24 295.241 1113.483 294.665 L 1118.472 298.205 L 1122.817 290.642 L 1133.921 290.803 L 1148.727 300.78 L 1147.117 313.494 L 1147.278 321.219 L 1136.818 321.54 L 1135.852 326.047 C 1135.852 326.047 1135.474 326.002 1135.369 326.047 C 1130.548 328.084 1136.762 340.348 1138.266 340.209 C 1132.379 349.315 1135.842 358.889 1147.117 368.854 C 1148.16 375.7 1148.343 381.955 1142.611 384.143 C 1141.657 391.919 1142.545 401.801 1138.91 406.512 L 1189.12 479.092 Z M 1113.644 294.182 C 1024.877 509.03 664.389 149.831 709.895 39.69 L 701.016 22.53 C 701.016 22.53 698.892 21.899 701.886 23.328 C 706.946 25.744 717.731 18.448 716.144 17.059 C 726.909 16.976 735.348 19.762 733.363 35.405 C 737.352 41.025 744.639 41.911 747.847 49.084 L 747.364 54.556 C 757.088 64.474 768.783 72.667 785.344 76.603 L 794.839 68.879 L 795.805 60.832 L 813.185 59.866 L 822.519 51.659 L 830.405 72.741 L 823.324 84.811 L 842.153 102.352 C 850.479 97.843 859.684 94.74 870.155 93.662 L 880.294 99.777 L 886.57 117.963 L 881.259 123.917 L 880.615 132.929 L 890.11 138.884 L 893.007 130.515 L 898.479 133.734 L 895.421 141.941 L 900.088 144.516 L 899.766 156.747 L 893.973 161.736 L 897.674 165.437 L 897.996 173.162 L 895.904 187.646 L 910.066 195.21 L 922.297 194.566 L 919.561 199.555 L 946.275 216.774 L 943.861 242.684 L 972.99 246.707 C 976.433 244.959 979.676 241.709 983.933 246.064 L 991.497 235.281 C 995.054 235.803 998.772 236.042 1000.67 239.466 L 1006.464 240.592 L 1009.36 233.511 L 1018.855 236.73 L 1016.602 246.225 L 1031.408 246.707 C 1043.647 241.526 1040.34 232.104 1038.972 223.212 L 1051.042 218.062 C 1058.863 229.023 1068.055 239.222 1072.284 252.179 L 1078.883 250.409 L 1086.929 253.628 C 1083.212 258.87 1082.783 269.867 1082.423 280.986 L 1113.644 294.182 Z"/>
    <path id="Poland_border" d="M 700.53 23.603 L 679.558 115.237 C 679.308 115.711 679.058 116.185 678.808 116.659 C 674.792 124.865 669.067 132.466 665.933 141.084 C 665.928 141.103 665.338 141.975 665.29 142.048 C 662.624 143.028 659.715 143.755 656.921 145.262 C 654.815 146.594 653.308 148.585 652.093 150.725 C 648.88 155.408 646.274 160.266 644.047 165.508 C 643.604 166.393 643.109 166.737 642.759 167.437 C 639.607 168.155 635.826 166.947 632.46 166.472 C 613.891 163.52 595.204 161.361 576.456 160.045 C 570.209 159.323 563.75 158.284 557.466 159.081 C 546.223 159.032 535.086 163.462 524.636 167.437 C 519.443 169.739 514.119 172.613 510.474 177.078 C 506.403 182.061 503.495 187.637 503.071 194.111 C 503.43 197.922 502.993 200.167 500.174 202.788 C 495.774 206.136 492.615 210.679 487.943 213.715 C 486.709 214.331 482.817 216.803 481.667 217.09 C 479.895 217.533 480.111 219.976 480.54 221.749 C 481.212 224.523 475.013 228.314 473.138 227.534 C 471.803 226.979 467.415 226.557 468.149 226.891 C 470.998 228.188 463.564 231.872 463.16 232.68 C 462.313 234.373 463.037 238.87 462.194 240.554 C 461.42 242.1 454.063 247.505 453.382 248.185 C 452.188 249.377 447.311 251.825 445.43 252.845 C 438.78 257.365 430.526 261.352 423.021 264.331 C 421.831 264.628 419.392 262.545 418.021 262.738 C 411.433 263.664 375.651 302.247 373.682 303.7 C 372.112 304.858 318.652 345.149 318 345.8 C 311.144 368.006 298.137 372.554 284.526 375.367 L 282.917 385.008 L 243.006 424.859 L 239.787 434.836 C 222.073 460.031 199.972 480.576 178.955 500.818 L 170.587 501.14 C 168.557 508.757 164.992 516.374 158.678 523.992 L 138.401 545.235 L 134.86 555.213 L 124.239 559.719 L 117.158 566.156 L 110.399 582.893 L 102.03 589.33 L 88.834 589.652 L 86.581 599.308 L 80.144 613.47 L 69.2 626.022 L 33.474 657.887 L 32.186 668.186 L 25.105 677.198 L 17.381 682.992 L 8.69 686.854 L 11.909 703.269 L 19.634 709.063 L 30.255 714.213 L 33.474 718.397 L 34.439 727.409 L 32.83 760.883 L 40.555 786.31 L 41.52 811.737 L 32.83 873.856 C 32.83 873.856 24.057 873.802 21.887 880.294 C 17.412 893.681 31.221 896.065 31.221 896.065 C 31.221 896.065 39.586 900.197 24.783 911.514 C 14.194 919.61 14.336 928.613 19.955 931.47 C 22.024 932.521 24.462 925.032 24.462 925.032 C 29.933 916.664 34.761 922.457 34.761 922.457 C 36.935 924.308 33.472 928.462 32.186 930.182 C 32.186 930.182 30.255 926.964 30.577 932.757 C 30.899 938.551 31.543 938.872 31.543 938.872 C 31.543 938.872 33.325 939.777 33.474 939.838 C 44.334 941.125 43.163 939.673 46.348 939.838 C 52.464 940.16 50.532 951.103 50.532 951.103 L 55.038 958.184 L 70.81 975.565 L 82.075 980.393 C 82.075 980.393 76.603 979.105 83.362 980.071 C 90.121 981.036 89.478 989.727 89.478 989.727 L 83.04 995.52 C 83.04 995.52 79.5 997.451 77.891 1000.348 C 76.281 1003.245 76.925 1014.51 76.925 1014.51 L 83.04 1022.557 C 83.04 1022.557 80.787 1018.694 84.006 1023.844 C 87.225 1028.994 87.372 1040.283 87.372 1040.283 L 93.406 1057.703 L 90.101 1045.478 C 84.89 1047.902 833.652 220.619 710.038 43.505" style="opacity:1;fill:transparent;fill-opacity:1;fill-rule:evenodd;stroke:transparent;stroke-width:1.2;stroke-linecap:butt;stroke-linejoin:miter;stroke-miterlimit:4;stroke-dasharray:none;stroke-opacity:1"/>
    <g id="g3778" style="fill:transparent;fill-opacity:1;stroke:transparent;stroke-opacity:1"/>
    <path style="fill:none;stroke:white;stroke-width:1px;stroke-linecap:butt;stroke-linejoin:miter;stroke-opacity:1" d="m 113.45414,575.23001 24.69363,8.76225 16.15896,21.16597 11.60714,39.14566 25.26261,0.45518 21.39356,-18.43488 52.57353,6.37255 33.45589,-1.59313 13.30426,-9.82349 20.37921,-0.41811 6.37255,-38.00771 11.60714,-10.24159 26.62816,0.68277 -1.43835,-41.90074 14.16194,2.89676 22.20851,-16.25405 17.0587,-20.27733 14.64474,44.417 h 14.9666 l 17.70242,-16.57591 c 7.3211,1.16537 14.67392,2.13144 22.04758,2.89676 7.91976,0.822 15.86355,1.41242 23.81781,1.77025 l 47.15283,-0.96559 7.08098,-37.65789 20.79058,-4.94766 -37.21114,-45.40441 -21.39827,-1.8701 -14.10593,-54.1173 -19.71368,-8.11163 -60.08373,-71.18301 -14.40334,1.7702 -10.94332,12.1503 -31.46205,-30.33552" id="path4510"/>
    <path style="fill:none;stroke:white;stroke-width:1px;stroke-linecap:butt;stroke-linejoin:miter;stroke-opacity:1" d="m 365.51122,575.57139 -6.14495,48.93207 64.63585,31.86275 10.2416,44.60785 -6.1668,32.3893 -17.86336,-12.71356 -11.93549,22.66588 -61.44912,7.26732 -28.15358,18.23154 -27.68954,-7.93195 -29.28947,65.01619 -14.64474,-4.667 -39.42814,13.67915 -5.1498,27.03644 21.24292,18.98988 -6.43725,9.8168 -6.60456,35.42286 15.01593,30.24105 20.55624,-5.95845 -0.0529,21.82141 -32.98298,17.57792 7.93059,45.89416 -22.2085,-0.6437 v 0 l -12.23077,46.0263 v 0 l -12.82684,48.9691 25.37947,15.4034 -8.63049,20.5632" id="path4514"/>
    <path style="fill:none;stroke:white;stroke-width:1px;stroke-linecap:butt;stroke-linejoin:miter;stroke-opacity:1" d="m 211.1417,1035.753 28.00202,11.9089 c 5.70331,-14.9478 11.49697,-29.8611 17.38057,-44.7388 5.18728,-13.11697 10.44447,-26.20629 15.77126,-39.26723 l 14.74397,11.48078 20.01716,-15.98685 -11.58705,-17.0587 28.96762,-19.63361 20.92105,4.18421 23.81781,7.08097 -16.58945,29.82834 48.45383,3.64535 -7.7247,-26.07085 41.19838,-1.93118 3.54049,-20.27733 1.60931,-18.66801 39.58907,-50.21053 26.55364,-10.78239 L 493.73684,795.64372 472.01113,795 l 4.667,-38.46255 -10.62145,-0.48279 -3.37955,-10.2996 -25.10527,-1.28745 -9.49494,-11.10425" id="path4518"/>
    <path style="fill:none;stroke:white;stroke-width:1px;stroke-linecap:butt;stroke-linejoin:miter;stroke-opacity:1" d="m 766.03239,780.35526 -44.91998,-6.1816 4.02951,-26.9434 -19.61965,-18.69484 -55.067,-10.94726 -19.32856,-6.7841 3.73852,-20.98196 -15.47619,-12.40376 -2.84489,7.28296 -37.66632,-4.21048 -8.76225,-11.7209 -10.92437,27.99366 9.33123,13.31412 -6.94153,6.14496 -32.43172,-8.98985 v -9.55886 l -23.89706,-1.93453 -5.72176,31.66949 11.34869,16.6244 -5.7161,9.60738 -6.43725,-7.40284 -2.5749,5.63259 -5.59439,-4.69568 -2.77403,-8.17881 -7.40283,-2.5749 -3.0577,2.89676 6.11539,2.5749 10.27198,15.83792 -17.0311,-1.19318" id="path4522"/>
    <path style="fill:none;stroke:white;stroke-width:1px;stroke-linecap:butt;stroke-linejoin:miter;stroke-opacity:1" d="m 496.94506,205.62214 19.64401,25.79689 19.72924,-3.60677 19.80042,6.71394 11.15196,27.08333 18.77626,5.68978 15.83564,22.3768 19.55477,-0.0729 0.0788,0.0729 c 5.78548,6.45346 11.57096,12.90692 17.35644,19.36038 3.82432,4.26586 7.64863,8.53173 11.47295,12.79759 l -11.01465,14.92006 v 0 l 23.2711,4.58122 23.81257,17.34176 -8.87606,-37.09734 36.674,-7.76399 12.23077,15.77125 23.33502,-6.75911 63.17689,-11.03457 17.52451,3.64146 19.07593,16.72712 28.64575,8.20749 35.99142,15.28629 10.0349,16.57808 28.64574,1.93118 38.78442,-0.4828 -10.0577,-8.17733 5.39069,-13.22651 21.56485,7.08097 41.5202,-14.32288 20.9451,-12.72466 2.229,-41.34821 9.1731,-9.97773" id="path4526"/>
    <path style="fill:none;stroke:white;stroke-width:1px;stroke-linecap:butt;stroke-linejoin:miter;stroke-opacity:1" d="m 878.20142,340.36943 -0.78772,21.32577 -21.58171,19.22889 28.73677,18.48888 -1.13305,18.63644 -55.76668,1.33723 28.16296,32.66903 -45.22166,37.65789 -14.9666,33.95648 -29.12855,7.40283 8.36843,23.01316 33.17791,3.96086 53.56399,12.45412 -3.90388,24.61356 31.16024,37.5546 3.48149,22.64257 35.73829,4.81432 12.85296,23.21144 13.20635,-4.04702 -6.5982,26.55365 16.41497,22.04757" id="path4530"/>
    <path style="opacity:1;fill:transparent;fill-opacity:1;stroke:red;stroke-width:0;stroke-miterlimit:4;stroke-dasharray:none;stroke-dashoffset:0;stroke-opacity:1" d="m 380.37426,1269.525 c -0.69715,-1.8167 -2.62661,-2.1644 -7.95682,-1.4338 -4.85748,0.6657 -8.68199,0.1436 -12.35006,-1.6863 -2.92245,-1.4579 -6.90109,-2.6508 -8.84142,-2.6508 -4.33458,0 -11.20335,-7.0364 -14.35405,-14.7044 -3.77126,-9.1783 -6.45121,-10.5508 -12.91141,-6.6122 -7.90493,4.8194 -14.86475,4.3167 -21.55442,-1.557 -6.83669,-6.0026 -8.41385,-6.0547 -16.52234,-0.5448 -6.35796,4.3203 -6.47384,4.3345 -13.90981,1.6934 -4.12415,-1.4647 -8.99709,-2.2713 -10.82877,-1.7923 -4.51271,1.1801 -6.04057,-1.1678 -11.16202,-17.1534 -2.41628,-7.5419 -6.1864,-16.3514 -8.37806,-19.5767 -4.81751,-7.0896 -4.87182,-8.5513 -0.76155,-20.4981 l 3.22328,-9.3686 -13.91729,-6.5218 c -10.71945,-5.0233 -13.73709,-7.1528 -13.13304,-9.2678 0.43133,-1.5102 3.86938,-22.2292 7.6401,-46.0423 3.77072,-23.813 7.39016,-43.8901 8.0432,-44.6158 0.65304,-0.7257 5.19282,-1.7328 10.0884,-2.2381 6.86836,-0.7089 12.10576,0.059 22.93415,3.3617 15.98673,4.8762 17.49965,5.0603 18.39708,2.2381 0.35717,-1.1233 5.58961,-19.6877 11.62764,-41.2542 6.03803,-21.5665 11.4479,-39.75372 12.02193,-40.41599 0.57403,-0.66227 3.73457,0.62437 7.02342,2.8592 3.28885,2.23483 6.96287,4.06333 8.1645,4.06333 1.20163,0 6.16965,-4.035 11.04005,-8.96666 l 8.85528,-8.96666 -3.60998,-4.51242 c -9.46693,-11.83356 -9.35769,-11.3487 -3.64079,-16.15915 20.83379,-17.53047 19.51769,-16.7958 28.48159,-15.89919 9.78443,0.97868 32.28781,5.21391 33.35061,6.27673 0.40516,0.40514 -1.9345,6.9544 -5.19921,14.55393 -3.26472,7.5995 -5.93691,14.425 -5.9382,15.16775 -10e-4,0.74276 11.43268,1.13033 25.40882,0.86129 28.88433,-0.55606 26.69224,1.26163 19.56833,-16.22605 -2.11192,-5.18432 -3.7125,-9.55719 -3.55683,-9.7175 0.1557,-0.16028 9.17963,-1.55041 20.05324,-3.08907 l 19.77021,-2.79757 1.05568,-15.01837 c 0.58063,-8.26011 0.69714,-17.16315 0.25891,-19.78453 -0.66255,-3.9632 2.16222,-9.30008 16.76696,-31.678 l 17.56377,-26.91184 12.6039,-6.58163 c 6.93216,-3.6199 12.61482,-7.07783 12.62815,-7.68427 0.0131,-0.60646 -3.70065,-10.68355 -8.25331,-22.39354 l -8.27758,-21.2909 -10.51144,0.98158 -10.51146,0.98157 v -18.20836 -18.20837 h 8.98605 c 9.17321,0 10.88989,-1.28751 6.53531,-4.90149 -1.34791,-1.11866 -2.45074,-2.76915 -2.45074,-3.66776 0,-0.8986 1.15887,-0.67205 2.57527,0.50345 2.13053,1.76819 2.81868,1.74342 3.98483,-0.14343 1.17273,-1.89754 1.95551,-1.78663 4.65917,0.66014 3.16103,2.8607 3.31964,2.80546 5.81814,-2.02611 3.55337,-6.87144 3.34254,-7.9327 -3.14987,-15.85583 -6.15958,-7.51696 -6.57291,-10.02753 -4.66151,-28.31481 l 1.05689,-10.11181 10.78836,0.47764 c 10.32206,0.45699 10.81008,0.66529 11.29074,4.81929 0.45724,3.95156 1.41144,4.49991 10.61988,6.10284 23.37691,4.06926 24.53028,4.06533 28.41668,-0.0968 l 3.5947,-3.84971 -5.41456,-6.44935 -5.41455,-6.44936 3.22954,-11.5041 c 1.77626,-6.32726 3.52189,-11.81812 3.87918,-12.20191 0.3573,-0.38379 2.70405,1.27046 5.21501,3.67612 4.41987,4.2345 5.17612,4.37391 23.72611,4.37391 17.37168,0 19.27023,-0.2918 20.33345,-3.12521 1.12255,-2.99148 1.47894,-2.94406 8.32902,1.10833 l 7.15632,4.23354 -0.92186,10.99576 -0.92184,10.99575 10.92074,2.57446 c 8.99653,2.12084 53.97344,7.52776 62.61894,7.52776 1.31409,0 7.22959,3.71675 13.14559,8.25944 l 10.75634,8.25944 -0.84479,13.54097 -0.84479,13.54096 11.24265,1.06157 c 6.18345,0.58387 16.07806,1.0668 21.98802,1.07319 l 10.74536,0.0116 -0.6807,4.63801 c -0.41644,2.83735 0.32773,5.64648 1.91679,7.23552 1.74129,1.74129 2.59751,5.5449 2.59751,11.53889 0,8.39927 -0.32974,9.13593 -5.43877,12.15033 -3.01653,1.7798 -6.95295,6.26937 -8.83863,10.08069 -4.68807,9.47544 -2.82912,14.74741 9.63426,27.32256 l 10.08809,10.17856 -5.87095,6.49842 c -4.38363,4.85216 -6.13472,8.49672 -6.91216,14.38633 -1.76937,13.4042 -2.59922,16.58541 -4.80379,18.41503 -1.56384,1.29787 -2.67329,1.11099 -4.17961,-0.70401 -2.60562,-3.13958 -5.59087,-3.14692 -8.18586,-0.0201 -1.11866,1.34791 -4.42529,2.45074 -7.34804,2.45074 -2.92277,0 -7.6117,0.45952 -10.41984,1.02115 -4.92566,0.98513 -5.10571,1.31801 -5.10571,9.43942 0,5.08957 1.03872,9.90129 2.62693,12.16877 l 2.62694,3.75047 3.60844,-3.38997 c 3.43747,-3.22932 3.95554,-3.27169 10.93361,-0.89403 l 7.32515,2.49594 -1.01033,9.17891 c -0.9774,8.87969 -3.9253,13.424 -10.20278,15.72801 -1.60273,0.58824 -1.60104,1.18626 0.008,2.89269 1.33378,1.41434 9.08072,2.56251 22.61772,3.35216 11.32401,0.66056 20.82642,1.4387 21.11647,1.72919 1.696,1.69863 1.10472,19.43372 -0.72128,21.6339 -1.19399,1.43866 -1.81726,5.02876 -1.43761,8.28069 0.87214,7.4705 -1.82663,7.49217 -10.48118,0.0842 -6.04799,-5.17685 -7.24812,-5.5744 -14.14727,-4.68633 -4.14626,0.53371 -9.00911,2.25321 -10.80632,3.82113 -1.79721,1.56792 -8.41421,3.81511 -14.70445,4.99375 -10.5069,1.96875 -12.15501,2.86108 -20.27007,10.97472 -7.4904,7.48906 -9.51792,8.6948 -13.33658,7.93107 -2.74372,-0.54875 -5.20683,-0.0529 -6.30385,1.26885 -0.99029,1.19323 -4.75854,2.56627 -8.37389,3.05119 -7.79321,1.04529 -14.69261,5.19291 -15.82192,9.51146 -1.09524,4.1881 -3.11124,3.9022 -7.74574,-1.0985 -2.19836,-2.3721 -8.14038,-5.48593 -13.65406,-7.15534 -8.93667,-2.7058 -12.49857,-2.83543 -22.52982,-0.81985 -2.06982,0.41589 -6.28493,5.01649 -10.44197,11.39689 -6.99302,10.7333 -10.15746,12.4668 -11.10074,6.081 -0.37684,-2.5511 -3.29318,-4.5041 -11.41041,-7.6411 l -10.90417,-4.2141 -8.29558,5.7134 c -4.56415,3.1435 -9.98712,8.7231 -12.05616,12.4045 -3.13125,5.5713 -4.34491,6.4945 -7.25219,5.5168 -1.92037,-0.6459 -12.68256,-1.629 -23.91596,-2.1846 -18.20862,-0.9007 -21.04455,-1.4496 -26.14125,-5.0591 -3.14428,-2.2269 -6.82614,-5.3966 -8.18193,-7.0438 -3.66155,-4.4486 -7.395,-2.0907 -13.29768,8.3984 -2.8566,5.0762 -5.42359,9.5181 -5.70441,9.8707 -0.2808,0.3528 -1.58671,-0.2518 -2.90199,-1.3434 -4.18908,-3.4766 -11.13179,-1.4189 -14.44872,4.2823 -2.58975,4.4513 -2.76027,6.1257 -1.16589,11.4473 1.66893,5.5704 1.34997,7.5357 -2.99876,18.4766 l -4.86632,12.2432 -7.52678,-0.5557 c -6.94341,-0.5125 -7.53264,-0.2593 -7.60243,3.2677 -0.048,2.4312 -4.50174,8.5825 -12.2314,16.8939 -10.78222,11.5937 -12.15826,13.7906 -12.17804,19.4429 -0.0131,3.5048 -1.2091,12.2293 -2.6596,19.3878 -4.66971,23.0459 -0.50175,38.7761 10.2743,38.7761 5.12303,0 4.79669,2.6439 -0.69325,5.6167 -7.9964,4.3299 -8.37311,4.9326 -10.18932,16.3016 -0.98556,6.1693 -2.81602,12.6791 -4.06771,14.4661 -2.00585,2.8638 -1.85244,3.8224 1.29337,8.0823 4.47233,6.0562 4.70314,20.5317 0.54898,34.4305 -2.24491,7.511 -3.73949,9.8051 -7.2558,11.1374 -2.43566,0.9229 -8.67801,3.8345 -13.87186,6.4703 -10.9601,5.5622 -10.79899,5.53 -12.00233,2.3942 z" id="path4729" transform="rotate(5.5901884,511.84121,618.20954)"/>
    <path style="opacity:1;fill:transparent;fill-opacity:1;stroke:red;stroke-width:0;stroke-miterlimit:4;stroke-dasharray:none;stroke-dashoffset:0;stroke-opacity:1" d="m 267.60828,1066.2732 -13.30842,-4.0848 -5.32625,-19.712 c -2.92943,-10.8415 -5.64109,-20.5864 -6.02591,-21.6553 -0.38481,-1.0688 6.28459,-6.583 14.8209,-12.2537 l 15.52057,-10.31032 -0.90524,-11.43679 c -0.49789,-6.29024 -1.15385,-11.72582 -1.4577,-12.07907 -0.30385,-0.35327 -4.34392,0.93337 -8.97795,2.85919 -4.63402,1.92581 -9.24648,3.49504 -10.2499,3.48717 -1.00343,-0.008 -5.51992,-6.07347 -10.03664,-13.47909 l -8.21223,-13.46476 1.73129,-17.97211 c 1.02299,-10.61941 2.85246,-20.06039 4.47176,-23.07647 l 2.74046,-5.10434 -11.34589,-7.96628 c -12.46408,-8.75137 -12.79102,-9.60789 -10.38046,-27.19481 l 1.01852,-7.43091 18.16786,-8.45643 c 17.36574,-8.08307 18.51632,-8.38753 26.06038,-6.89588 7.28271,1.43997 7.9886,1.29283 9.13591,-1.90435 0.68386,-1.9057 5.92344,-17.12844 11.64351,-33.82832 l 10.40011,-30.36341 9.88398,2.12249 c 16.37281,3.5159 17.67717,3.18864 31.79911,-7.97811 l 12.9188,-10.21539 30.24119,-6.44611 30.24119,-6.44611 4.36026,-11.11358 c 2.39815,-6.11247 4.78212,-11.11358 5.29771,-11.11358 2.46794,0 16.59293,9.22185 21.96482,14.3403 l 6.03585,5.75105 12.20313,-0.92292 12.20313,-0.92292 1.97364,4.76478 c 1.65357,3.99208 2.90957,4.76479 7.7449,4.76479 h 5.77126 l -1.049,19.50928 -1.049,19.50929 11.19551,-0.9386 11.19553,-0.93859 7.7506,19.92385 c 8.85148,22.75381 9.37786,20.70296 -7.37445,28.73164 -8.72681,4.1824 -9.68752,5.3288 -26.5497,31.68116 l -17.49524,27.34174 -0.1629,15.40837 c -0.25759,24.37129 0.8993,22.97275 -21.86011,26.42636 -10.697,1.62323 -19.68202,3.18424 -19.96672,3.46893 -0.28469,0.2847 1.61427,5.68754 4.21994,12.00632 l 4.73754,11.48868 -8.39977,1.00924 c -9.72624,1.16861 -35.3579,1.38783 -35.3579,0.30243 0,-0.40437 2.8697,-7.35163 6.37711,-15.43838 l 6.37712,-14.70318 -8.41941,-1.74187 c -35.75467,-7.39726 -37.77941,-7.17285 -53.42197,5.92109 -7.14907,5.98427 -12.99831,11.77603 -12.99831,12.87056 0,1.09454 1.13715,2.93382 2.52701,4.0873 1.38985,1.15348 3.98685,4.14739 5.7711,6.65314 l 3.24409,4.5559 -7.58345,7.026 c -4.17089,3.8643 -8.18438,7.25309 -8.91885,7.53064 -0.73448,0.27756 -4.41475,-1.43926 -8.17838,-3.81514 -3.76362,-2.37586 -7.39332,-3.70578 -8.06599,-2.95538 -0.67267,0.75042 -6.54118,20.11261 -13.04114,43.02701 -6.49995,22.9144 -11.93069,41.7104 -12.0683,41.7689 -0.1376,0.059 -6.23898,-1.732 -13.55861,-3.9786 z" id="path4731" transform="rotate(5.5901884,511.84121,618.20954)"/>
    <path style="opacity:1;fill:transparent;fill-opacity:1;stroke:red;stroke-width:0;stroke-miterlimit:4;stroke-dasharray:none;stroke-dashoffset:0;stroke-opacity:1" d="m 165.20917,1192.7435 c -1.31444,-1.3145 -3.29478,-6.2772 -4.40076,-11.0284 -2.61084,-11.2157 -6.62652,-17.6998 -13.3443,-21.5468 -13.36754,-7.6551 -18.93687,-13.7141 -22.30067,-24.2615 -5.49174,-17.2198 -5.54672,-18.323 -1.14962,-23.0676 2.19116,-2.3643 5.43697,-4.2987 7.2129,-4.2987 1.77593,0 4.45006,-1.2211 5.94251,-2.7136 3.44961,-3.4496 1.94453,-16.1433 -2.48722,-20.9769 -1.64778,-1.7972 -3.52137,-6.2086 -4.16354,-9.803 -1.43763,-8.0469 -4.23053,-13.7463 -8.73273,-17.8207 -5.45798,-4.9394 -4.73757,-15.4472 1.46656,-21.3912 2.69581,-2.5827 4.90148,-6.3439 4.90148,-8.3581 0,-4.5167 -4.05717,-8.7971 -8.33832,-8.7971 -10.28795,0 -31.044949,-17.9102 -34.158746,-29.474 l -1.847343,-6.86051 -7.83133,1.03886 c -6.067694,0.80492 -8.314407,0.4568 -9.976415,-1.5458 -1.787733,-2.15409 -1.68779,-3.35882 0.59992,-7.2316 3.385342,-5.73093 2.042648,-9.84324 -3.213875,-9.84324 -2.799086,0 -4.956482,1.68065 -7.337375,5.71596 -1.854876,3.14378 -4.035748,5.30607 -4.846381,4.80507 -3.439102,-2.12549 -1.057226,-9.10851 5.878346,-17.23375 9.184198,-10.75955 9.450668,-14.86639 1.225371,-18.88551 -5.279056,-2.57951 -6.197867,-3.85572 -6.640042,-9.22301 -0.465007,-5.6444 -0.04316,-6.40665 4.493027,-8.11888 3.72356,-1.40549 5.028157,-2.94903 5.091855,-6.02447 0.0471,-2.27415 0.686242,-16.63361 1.420311,-31.9099 1.578791,-32.85532 -0.16827,-48.04997 -7.608144,-66.17003 -4.264136,-10.38545 -5.161124,-15.04738 -5.883235,-30.57703 -1.023342,-22.00786 -2.727473,-26.1139 -12.389615,-29.85226 -3.970918,-1.53638 -8.881141,-4.27319 -10.911607,-6.08178 -4.565451,-4.06655 -7.162185,-15.49014 -3.760012,-16.5411 1.257042,-0.38831 5.724056,-4.22648 9.926698,-8.52926 5.929654,-6.07095 7.881698,-9.42723 8.715035,-14.98431 0.925684,-6.17291 3.321182,-9.60538 17.359826,-24.87463 8.957276,-9.74246 18.339082,-20.73126 20.848456,-24.41954 4.990803,-7.33551 9.971722,-20.6238 9.971722,-26.60296 0,-3.31975 0.79506,-3.79353 6.366061,-3.79353 5.241872,0 7.261512,-1.01986 11.436792,-5.77524 2.78891,-3.17639 5.07074,-6.77919 5.07074,-8.00623 0,-1.81316 2.21834,-1.66601 11.84525,0.78571 10.79248,2.74857 12.65663,3.87455 20.97443,12.66889 7.60541,8.04115 10.37851,12.76 16.61416,28.27159 l 7.48499,18.61938 13.61166,-0.39833 13.61165,-0.39833 9.54881,-10.02073 9.54881,-10.02073 28.02924,0.22437 c 17.46465,0.13979 33.76024,-0.66541 43.23437,-2.13632 13.36546,-2.07506 15.95304,-3.03636 21.38658,-7.94523 5.07212,-4.58237 7.96063,-5.78585 16.09585,-6.70624 11.41675,-1.29166 11.8067,-1.82175 11.94603,-16.23995 0.23736,-24.56003 5.8052,-35.40213 18.18039,-35.40213 h 6.22964 l 0.003,25.73279 0.003,25.73279 32.26477,12.08111 c 17.74563,6.64461 32.87259,12.61955 33.61546,13.27764 0.74288,0.65808 4.56398,10.41534 8.49133,21.68279 7.13396,20.46709 7.13927,20.49959 5.67383,34.7034 -0.80676,7.81942 -1.83755,14.58786 -2.29068,15.04098 -0.45313,0.45311 -4.11267,-1.10354 -8.13236,-3.45922 -4.01955,-2.35569 -8.03151,-4.28307 -8.91535,-4.28307 -0.88383,0 -3.62744,5.14984 -6.0969,11.44409 -5.14901,13.12394 -0.99754,11.11539 -40.69469,19.68873 l -24.47303,5.2854 -12.85056,10.37534 c -9.21422,7.43944 -13.84721,10.16768 -16.37267,9.64137 -12.16555,-2.53528 -21.12984,-4.15244 -23.01788,-4.15244 -1.36996,0 -6.29064,11.98746 -13.2456,32.2681 -6.08624,17.74746 -11.50304,32.7834 -12.0373,33.41322 -0.53426,0.62981 -3.90297,0.48393 -7.486,-0.32418 -5.9239,-1.33605 -8.19553,-0.703 -25.05291,6.98171 -10.19606,4.64804 -19.11015,9.57286 -19.80908,10.94405 -0.69894,1.37119 -1.72593,8.1419 -2.28222,15.04602 l -1.01142,12.55296 11.52591,8.38324 c 11.46145,8.33634 11.51117,8.40573 8.89103,12.40457 -1.68374,2.56974 -3.25544,10.8109 -4.35399,22.8303 l -1.7191,18.80897 6.99318,11.57412 c 3.84624,6.36575 8.22461,13.09487 9.72971,14.95356 l 2.73651,3.37946 8.64896,-3.59434 c 4.75694,-1.9769 8.94637,-3.29697 9.30985,-2.93347 0.36349,0.36349 1.07029,4.62755 1.57066,9.47569 l 0.90977,8.81483 -15.74891,10.38472 c -13.53698,8.9263 -15.59558,10.8676 -14.65727,13.8224 2.68022,8.4399 10.39564,37.9468 10.40432,39.7902 0.007,1.4254 -3.19845,2.0423 -10.61026,2.0423 -7.40441,0 -10.62117,0.6183 -10.62413,2.0423 -0.002,1.1232 -3.30234,22.2609 -7.33334,46.9725 -4.03098,24.7117 -7.33757,46.2087 -7.34796,47.7713 -0.0131,1.9205 4.18665,4.9554 12.96174,9.3675 l 12.98067,6.5265 -2.59745,7.7877 c -3.30998,9.9241 -3.11054,9.7689 -7.44048,5.7896 -2.01832,-1.8549 -7.56346,-5.0263 -12.32253,-7.0476 l -8.65286,-3.6752 -4.79434,4.5933 c -3.91315,3.749 -6.49231,4.6786 -14.03279,5.0574 -6.60462,0.3318 -10.25366,1.4179 -12.79935,3.8095 -4.17743,3.9244 -9.49486,4.3195 -12.85901,0.9554 z" id="path4733" transform="rotate(5.5901884,511.84121,618.20954)"/>
    <path style="opacity:1;fill:transparent;fill-opacity:1;stroke:red;stroke-width:0;stroke-miterlimit:4;stroke-dasharray:none;stroke-dashoffset:0;stroke-opacity:1" d="m 163.15703,657.30033 c -6.89638,-16.99933 -8.83683,-20.16234 -17.69832,-28.84901 -8.4923,-8.32478 -11.31184,-10.05214 -19.21521,-11.77209 -13.58573,-2.95654 -14.20577,-3.5811 -10.46005,-10.53649 1.72909,-3.21072 5.95833,-7.41952 9.39832,-9.35291 4.34323,-2.44103 6.70662,-5.15261 7.73397,-8.87337 0.8137,-2.94697 5.91604,-11.09319 11.33853,-18.10269 9.87062,-12.75946 16.47284,-24.85199 16.54019,-30.29475 0.0232,-1.87287 1.69702,-3.23226 4.72585,-3.83804 9.98486,-1.99696 60.66315,-68.93983 60.66315,-80.13223 0,-1.318 8.08745,-12.18898 17.97211,-24.15774 9.88466,-11.96877 17.97211,-22.88679 17.97211,-24.26227 0,-5.20827 2.14978,-7.53859 10.90716,-11.82318 9.47419,-4.63529 17.24273,-14.16991 19.3454,-23.74331 0.72529,-3.30216 8.53691,-11.5859 26.65778,-28.26888 14.09752,-12.9789 28.08851,-26.65496 31.09106,-30.39124 3.22204,-4.00939 6.38089,-6.43957 7.70829,-5.9302 1.23699,0.47468 8.81045,6.03881 16.82991,12.36473 8.01945,6.32593 15.28765,11.50168 16.15154,11.50168 0.86388,0 3.57127,-2.88683 6.01641,-6.41517 3.47503,-5.01447 5.8408,-6.65088 10.83507,-7.49466 l 6.38935,-1.07947 32.67213,31.59362 c 29.68618,28.70623 33.57134,31.90694 42.51122,35.02209 5.4115,1.88567 10.3794,3.96776 11.03978,4.62687 0.66039,0.6591 5.25896,12.35029 10.21907,25.98041 l 9.01837,24.78205 11.40448,0.47254 11.40448,0.47255 19.19748,19.10785 c 10.55861,10.50931 19.19748,19.53649 19.19748,20.06039 0,0.52389 -3.96426,2.20216 -8.80944,3.72946 -10.01904,3.15822 -9.78411,2.60888 -11.68834,27.3318 l -1.07761,13.99062 -23.11424,2.76942 c -12.71283,1.52317 -33.53236,2.76342 -46.26559,2.75612 l -23.15138,-0.0133 -7.89136,8.79862 c -6.30316,7.02782 -9.22773,9.01932 -14.53133,9.89525 l -6.63996,1.09662 -9.4905,-21.33204 c -5.21977,-11.73262 -10.04907,-21.33204 -10.73178,-21.33204 -0.68271,0 -4.37567,4.81084 -8.20657,10.69074 -3.83092,5.8799 -11.643,14.79753 -17.36019,19.81694 -9.95983,8.74425 -10.70206,9.09159 -17.73404,8.29898 -8.59956,-0.9693 -8.26948,-2.36993 -4.90845,20.82806 1.30195,8.98605 2.39049,17.16237 2.41898,18.16959 0.0314,1.11143 -5.04849,2.27623 -12.92255,2.96309 -12.45704,1.08665 -13.20621,1.3884 -18.78902,7.56791 -4.9369,5.46457 -5.81641,7.60692 -5.82628,14.1921 -0.007,4.2658 -0.47149,12.62418 -1.03356,18.57421 l -1.02192,10.81824 -9.93788,1.03871 c -8.31692,0.86929 -10.87989,1.93922 -15.71319,6.55967 -5.03775,4.81591 -7.54886,5.79052 -19.66284,7.63155 -8.49359,1.2908 -25.3558,1.94945 -43.41431,1.69576 l -29.52677,-0.41478 -9.56595,10.33521 -9.56596,10.33522 -11.82973,0.81691 -11.82973,0.81692 z" id="path4735" transform="rotate(5.5901884,511.84121,618.20954)"/>
    <path style="opacity:1;fill:transparent;fill-opacity:1;stroke:red;stroke-width:0;stroke-miterlimit:4;stroke-dasharray:none;stroke-dashoffset:0;stroke-opacity:1" d="m 478.26319,753.40709 c -2.34583,-4.16497 -2.97531,-4.33633 -14.70446,-4.00294 -11.31445,0.3216 -12.66031,-0.002 -17.55833,-4.22345 l -5.30462,-4.57174 1.70542,-16.10559 1.70541,-16.10559 -7.45483,-22.36842 -7.45483,-22.36839 -33.05932,-12.44235 -33.05932,-12.44234 -0.0357,-25.46512 -0.0357,-25.46512 h 5.34563 c 4.64536,0 5.34563,-0.5476 5.34563,-4.18007 0,-3.72447 -2.04265,-19.83858 -4.07826,-32.1726 -0.72086,-4.3678 -0.52636,-4.49418 6.97831,-4.53417 7.21822,-0.0386 8.40988,-0.70199 18.33972,-10.21143 5.84093,-5.59365 13.26982,-14.08333 16.50864,-18.86596 l 5.88877,-8.69567 8.81569,19.93056 c 4.84862,10.96181 9.74374,20.28736 10.87804,20.72343 1.13429,0.43608 5.17801,0.28633 8.98605,-0.3328 5.74736,-0.93442 8.17285,-2.61116 14.27593,-9.86902 l 7.35222,-8.74337 23.24079,-0.0147 c 12.78243,-0.008 33.84484,-1.26029 46.80534,-2.78313 l 23.56456,-2.76878 1.038,-10.81241 c 0.57089,-5.94681 1.46205,-14.64003 1.98033,-19.31824 l 0.94233,-8.50584 8.39831,-2.72333 c 4.61906,-1.49783 9.10985,-3.38127 9.97954,-4.18542 0.97968,-0.90586 -6.47012,-9.53133 -19.58238,-22.67277 l -21.16358,-21.21029 -10.64345,-0.007 -10.64346,-0.007 -9.48665,-25.90405 -9.48665,-25.90406 -10.11929,-2.9357 c -9.46523,-2.74571 -11.65049,-4.42488 -33.80979,-25.97953 -46.99977,-45.71731 -42.79161,-42.31121 -50.63701,-40.98574 -6.90657,1.16686 -10.14478,3.42486 -15.1408,10.55768 l -2.67703,3.82199 -15.60433,-12.5508 c -8.58239,-6.90294 -15.60434,-13.08736 -15.60434,-13.74314 0,-0.65578 5.51093,-7.1814 12.2465,-14.50137 9.43071,-10.24893 12.99982,-13.11204 15.52285,-12.45225 3.93121,1.02804 21.65028,-9.98575 33.09074,-20.56849 5.51856,-5.10481 7.76069,-8.43592 7.76069,-11.52998 0,-4.91848 2.65549,-8.27233 6.5498,-8.27233 3.96498,0 8.63475,-4.00579 8.90223,-7.63645 0.13057,-1.77247 3.41801,-6.09615 7.3054,-9.60817 l 7.06798,-6.38549 10.26352,11.37928 10.26351,11.37928 10.41861,-2.77616 c 9.32713,-2.48533 11.34895,-2.53075 19.29903,-0.43356 9.83246,2.59375 12.15493,4.93178 18.88382,19.01024 l 4.44326,9.29638 10.01939,1.89052 c 9.51874,1.79606 10.45485,2.41322 18.73393,12.3511 l 8.71454,10.46058 9.49695,-0.99263 c 10.81274,-1.13015 10.21313,-1.46208 29.32767,16.23506 l 11.69744,10.83003 -4.39767,7.50407 c -2.41872,4.12724 -3.90462,7.99713 -3.30199,8.59976 0.60263,0.60263 6.02349,1.54737 12.04633,2.09943 9.08427,0.83266 13.17699,2.30698 24.01312,8.6502 7.18435,4.20556 13.26796,7.02998 13.51913,6.27649 0.25115,-0.75349 -2.17533,-8.93148 -5.3922,-18.17331 -3.21688,-9.24183 -5.62553,-17.00747 -5.35257,-17.25698 0.27296,-0.2495 7.84852,-2.74999 16.83457,-5.55664 l 16.33828,-5.103 6.76505,7.33561 6.76504,7.3356 12.02398,-4.83494 c 15.40724,-6.19539 69.87944,-21.22763 76.92238,-21.22763 8.65903,0 15.13852,2.52971 24.42313,9.53524 6.92036,5.22163 11.05614,6.9747 20.14494,8.53906 18.79574,3.23509 18.78902,3.22999 18.78902,14.3086 0,7.68676 -0.68465,10.20792 -3.44955,12.7026 -1.89726,1.71183 -6.3598,6.58412 -9.91676,10.82731 l -6.46722,7.71489 15.63517,7.76675 15.63516,7.76675 v 8.61733 c 0,4.73953 -0.55142,8.62598 -1.22537,8.63657 -3.70481,0.0582 -53.31965,6.60014 -53.81531,7.09579 -0.3247,0.32473 6.35767,7.23276 14.84974,15.35122 l 15.44009,14.76085 -20.40762,21.37941 -20.40764,21.37943 -5.66855,16.92794 -5.66855,16.92795 -13.03495,4.53759 c -7.16924,2.49569 -13.40171,5.13099 -13.84993,5.85623 -0.44821,0.72524 1.5831,6.33773 4.51402,12.4722 l 5.32896,11.15357 22.05668,0.92781 c 12.13117,0.51029 31.86458,2.28115 43.85201,3.93523 l 21.79533,3.00744 -1.08176,12.40304 -1.08177,12.40304 17.87474,17.60203 c 17.2362,16.97324 17.94989,17.95618 19.97857,27.51571 1.15711,5.45253 3.00699,10.26026 4.11086,10.68385 1.10386,0.4236 9.6044,1.27553 18.8901,1.89319 l 16.88307,1.12303 7.20454,10.33627 c 7.42425,10.65151 8.13658,10.96748 17.03057,7.55454 2.05857,-0.78995 2.10997,0.79012 0.3837,11.79426 l -1.99332,12.70641 8.75413,9.1778 c 4.81478,5.0478 8.75414,10.0686 8.75414,11.15735 0,1.08877 -2.16546,2.73444 -4.81213,3.65708 -4.28362,1.49329 -4.64249,2.12365 -3.26766,5.73977 2.40777,6.33289 1.72563,8.28122 -1.5331,4.37885 -2.91879,-3.49528 -3.14205,-3.51162 -13.2363,-0.96887 -6.85348,1.7264 -10.51033,3.51518 -10.99793,5.37977 -0.56434,2.15802 -4.05712,3.2702 -15.35619,4.88975 -8.04413,1.15301 -14.96375,2.64335 -15.37692,3.31187 -0.41316,0.66851 0.41147,3.99811 1.83249,7.39911 1.7082,4.0883 2.24506,8.43771 1.58435,12.83573 -1.0452,6.95737 -1.14745,10.50532 -0.49616,17.21611 0.29272,3.01601 -0.78399,4.60037 -4.28339,6.30293 -4.02769,1.9596 -5.87655,1.93225 -13.36373,-0.19766 -7.41684,-2.10991 -8.81836,-2.13571 -9.57033,-0.17608 -2.01554,5.2524 -13.66532,0.19923 -26.83157,-11.63836 l -8.52214,-7.66215 -7.823,2.55877 c -9.84656,3.22065 -15.69303,2.05323 -14.20102,-2.83565 0.57927,-1.89812 1.18996,-4.47058 1.35709,-5.7166 0.3713,-2.76835 -9.03456,-6.42719 -16.95719,-6.59627 -5.12895,-0.10947 -6.15929,0.57827 -8.63073,5.76094 -1.54356,3.23689 -4.25302,6.26354 -6.021,6.72588 -3.78509,0.98982 -3.74995,0.74405 -1.2836,8.97596 1.59731,5.33134 1.52673,6.7006 -0.40846,7.92522 -2.61515,1.65491 -45.96878,2.05301 -51.8562,0.47618 -3.65141,-0.97794 -3.73512,-1.40525 -2.66933,-13.62333 l 1.1003,-12.61374 -11.39193,-8.91358 -11.39195,-8.91357 -22.69985,-2.01432 c -12.48493,-1.10786 -29.13306,-3.2124 -36.99586,-4.67672 l -14.29599,-2.6624 v -11.17362 -11.17362 l -8.5776,-5.57096 -8.5776,-5.57094 -1.54076,3.95174 c -1.50208,3.85248 -1.99987,3.95173 -19.82048,3.95173 h -18.27971 l -4.36163,-5.71839 c -5.25848,-6.8942 -6.75506,-7.12308 -8.01249,-1.22537 -0.52686,2.47116 -2.38272,9.37815 -4.12414,15.34886 l -3.1662,10.85583 4.96022,6.01761 c 4.50785,5.46882 4.72624,6.25162 2.39454,8.5833 -2.24527,2.24527 -4.16054,2.31835 -15.3363,0.58522 -18.28396,-2.83549 -18.48902,-2.92957 -18.48902,-8.48198 v -4.85746 l -13.47908,0.47453 -13.47908,0.47453 -1.40217,16.77117 -1.40217,16.77116 6.05643,7.39108 c 4.78394,5.83817 5.83471,8.2745 5.00113,11.59576 -0.98333,3.91789 -1.25384,4.02502 -3.966,1.57055 -3.80774,-3.44595 -6.72505,-3.34925 -6.78959,0.22506 -0.0506,2.79986 -0.78723,2.12722 -9.94401,-9.0799 -2.06301,-2.52496 -9.90199,-1.96451 -10.79961,0.77212 -0.34341,1.047 0.85642,2.37362 2.66629,2.94806 1.80988,0.57444 5.58825,3.94532 8.39637,7.49087 l 5.10568,6.44645 -11.98254,-0.003 c -11.27312,-0.002 -12.12764,-0.26018 -14.43328,-4.35379 z" id="path4739" transform="rotate(5.5901884,511.84121,618.20954)"/>
    <path style="opacity:1;fill:transparent;fill-opacity:1;stroke:red;stroke-width:0;stroke-miterlimit:4;stroke-dasharray:none;stroke-dashoffset:0;stroke-opacity:1" d="m 979.44376,684.24189 c 0,-0.8986 -1.38067,-1.63383 -3.06814,-1.63383 -1.71811,0 -7.01348,-4.49382 -12.03468,-10.21304 l -8.96656,-10.21304 1.95372,-13.47747 c 2.11821,-14.61215 1.98046,-14.85107 -6.47633,-11.23318 -4.8696,2.08326 -4.9466,2.03295 -11.8365,-7.73254 -3.81425,-5.40619 -7.85798,-10.41542 -8.98605,-11.13163 -1.12808,-0.7162 -9.48661,-1.31345 -18.57453,-1.3272 l -16.52349,-0.025 -2.11353,-10.21142 c -2.04505,-9.88053 -2.69557,-10.80467 -20.07512,-28.51886 l -17.96157,-18.30744 1.042,-12.32684 c 0.5731,-6.77976 0.86757,-12.33071 0.65438,-12.33543 -0.21319,-0.005 -13.98924,-1.83892 -30.61344,-4.07598 -16.6242,-2.23705 -36.47521,-4.09555 -44.11335,-4.12997 l -13.88754,-0.0626 -4.39903,-9.74178 c -5.07672,-11.24253 -5.74973,-10.32787 11.84764,-16.10172 l 10.71627,-3.51609 5.55277,-17.53429 5.55277,-17.53434 21.30901,-21.7524 21.309,-21.75239 -15.02622,-14.60028 c -8.26442,-8.03015 -14.22876,-14.60028 -13.25409,-14.60028 2.83996,0 44.24578,-5.02255 48.37136,-5.86747 3.49322,-0.71542 3.71922,-1.46573 3.26765,-10.84884 l -0.48511,-10.08026 -13.07062,-6.99218 c -7.18884,-3.84569 -13.80585,-7.26815 -14.70445,-7.60545 -0.89861,-0.3373 2.69323,-5.18059 7.98187,-10.76287 l 9.6157,-10.1496 -1.01305,-9.69236 c -0.55718,-5.33081 -0.50032,-9.69237 0.12637,-9.69237 0.62668,0 8.61225,2.29451 17.7457,5.09891 15.93574,4.89302 16.85366,5.43027 22.73276,13.30509 l 6.12648,8.20617 16.54001,-0.94729 c 9.09701,-0.52101 24.91356,-1.86032 35.14791,-2.97623 18.52316,-2.0197 18.59077,-2.04279 14.85151,-5.07067 -2.06601,-1.67295 -4.83278,-3.64411 -6.14837,-4.38035 -1.97903,-1.10752 -2.06317,-2.33501 -0.48733,-7.10987 l 1.90469,-5.77124 10.59317,2.41632 10.59317,2.41631 20.88603,-9.65713 c 11.4873,-5.31142 25.1688,-12.89062 30.4032,-16.84267 l 9.5172,-7.18553 -1.0274,-21.28667 c -1.008,-20.88415 -0.9528,-21.3705 2.9189,-25.71978 l 3.9462,-4.43311 16.0597,5.36951 c 8.8329,2.95323 17.3362,5.9419 18.8963,6.64148 2.1551,0.96643 3.2247,0.2509 4.4526,-2.97868 2.0682,-5.44 8.5016,-5.66487 18.8084,-0.65744 l 7.396,3.59323 v 9.34758 c 0,9.03556 -0.162,9.38314 -4.8497,10.41275 -3.9434,0.86611 -5.0504,2.13504 -5.9237,6.79016 -0.6516,3.47335 -0.2524,7.44293 1.015,10.09299 1.1489,2.4024 1.9244,6.70844 1.7233,9.56899 -0.4352,6.18971 1.7099,10.65154 9.0878,18.90268 5.8765,6.57217 6.8914,11.65754 3.1524,15.79646 -1.4699,1.62714 -2.4703,6.92583 -2.7097,14.35261 l -0.3796,11.77322 29.6168,35.03822 c 32.5313,38.48634 38.6762,44.42988 48.781,47.18204 l 6.8084,1.85432 1.1269,11.54262 c 0.626,6.41262 2.2096,12.76759 3.5631,14.29886 3.3522,3.79244 1.3207,6.79347 -3.0244,4.46801 -1.8197,-0.97383 -3.4836,-1.52724 -3.6976,-1.22978 -7.7722,10.80115 -8.0577,11.60111 -6.3812,17.882 1.4499,5.43212 1.1693,7.07438 -2.1239,12.43101 -2.3666,3.84945 -3.8137,8.78503 -3.8455,13.1158 -0.043,5.91176 -0.5526,6.94377 -3.4261,6.94377 -1.8563,0 -4.8002,0.76274 -6.5421,1.69497 -2.2144,1.18508 -5.2358,1.13793 -10.0438,-0.15669 -6.3042,-1.69754 -7.1197,-1.55156 -9.7961,1.75369 -1.9194,2.37034 -2.9195,6.35935 -2.9195,11.64481 0,9.33926 -2.4394,11.25922 -8.9148,7.01638 -4.1077,-2.69144 -4.4249,-2.66396 -7.998,0.69276 -4.744,4.45677 -7.6545,4.39175 -22.0129,-0.49186 -6.4476,-2.19303 -11.7229,-3.24632 -11.7229,-2.34069 0,0.92207 -1.4894,1.1739 -3.3848,0.57231 -4.04,-1.28226 -9.6859,3.17257 -9.6859,7.64263 0,2.5414 -1.3258,3.01442 -8.4489,3.01442 -5.6125,0 -9.465,-0.9195 -11.4754,-2.7389 -2.2937,-2.07573 -3.4848,-2.28061 -4.9192,-0.84614 -1.4345,1.43447 -1.4085,6.05904 0.1073,19.0994 1.2934,11.12717 1.449,18.19142 0.4403,19.99387 -1.2278,2.19397 -0.312,3.86593 4.3027,7.85496 4.2428,3.66763 5.5537,5.87229 4.7449,7.97994 -0.6146,1.60172 -2.1253,2.52549 -3.3571,2.05282 -2.8161,-1.08064 -13.1944,9.41035 -11.7005,11.82755 0.6073,0.98258 -0.1508,2.26809 -1.6846,2.85668 -1.9476,0.74733 -4.1161,-0.55616 -7.189,-4.32121 -3.9301,-4.81539 -4.9087,-5.23057 -9.16,-3.88636 -6.5941,2.08491 -16.7791,22.13354 -18.178,35.78221 -0.5923,5.77886 -2.3055,11.50293 -4.2209,14.10217 -1.8561,2.51887 -2.7811,5.52906 -2.1802,7.09497 0.7007,1.82608 0.055,2.97833 -1.9638,3.50635 -1.6542,0.43258 -4.5885,4.04064 -6.5209,8.01795 -1.9323,3.97731 -4.6257,7.23147 -5.9852,7.23147 -1.3828,0 -2.47202,1.43981 -2.47202,3.26765 0,3.89508 -2.53111,4.29366 -4.53437,0.71402 -1.7104,-3.0563 -9.43818,-1.71029 -10.81751,1.88418 -1.00815,2.62723 -4.25404,3.13804 -4.25404,0.66946 z" id="path4741" transform="rotate(5.5901884,511.84121,618.20954)"/>
    <path style="opacity:1;fill:transparent;fill-opacity:1;stroke:red;stroke-width:0;stroke-miterlimit:4;stroke-dasharray:none;stroke-dashoffset:0;stroke-opacity:1" d="m 646.19571,333.00351 c -8.28207,-4.87332 -12.96534,-6.45415 -21.65851,-7.31075 l -11.09152,-1.09293 4.41056,-7.52605 4.41056,-7.52605 -16.24551,-15.19824 -16.24551,-15.19824 -9.84663,0.9558 -9.84663,0.95582 -9.32039,-10.61607 c -8.84082,-10.06984 -9.78372,-10.67396 -18.32512,-11.74113 l -9.00473,-1.12507 -6.95555,-13.36123 -6.95556,-13.36124 -10.39315,-2.37013 c -9.18838,-2.09536 -11.50847,-2.07953 -20.01475,0.13659 l -9.62161,2.50675 -9.96627,-10.37884 c -7.42926,-7.7368 -9.65968,-11.09928 -8.76186,-13.209 0.66242,-1.55659 1.75964,-6.57333 2.43826,-11.14829 2.36527,-15.94547 8.34646,-22.67126 28.14444,-31.6481 16.42529,-7.44758 29.35221,-8.81601 70.96217,-7.51199 l 36.25191,1.13611 5.57443,-12.06513 c 4.2239,-9.14208 6.72226,-12.54589 10.31219,-14.04953 3.89306,-1.63061 5.82059,-4.66979 10.81126,-17.04632 5.65618,-14.02697 6.44651,-18.201671 11.50187,-60.755434 l 5.42836,-45.6935134 5.31179,-1.0863754 c 2.92146,-0.5974576 6.62619,-2.27586 8.23271,-3.7297343 6.85388,-6.2026737 18.185,-0.6984268 18.185,8.8336111 0,4.126651 1.22916,5.676126 7.45239,9.394511 5.24998,3.136868 7.73267,5.82115 8.40079,9.08295 0.66358,3.239577 3.47414,6.307143 9.35829,10.213995 8.5241,5.659693 24.50389,12.114021 29.9922,12.114021 4.00789,0 11.78328,-8.298969 11.78328,-12.576767 0,-3.80526 2.8915,-5.395341 9.81123,-5.395341 2.56833,0 6.81128,-1.824907 9.49674,-4.08457 2.66984,-2.246513 5.17385,-4.08457 5.56448,-4.08457 0.39063,0 2.40731,3.623324 4.48151,8.051831 3.67292,7.841844 3.69903,8.2324 1.00094,14.975583 l -2.77033,6.923748 4.58828,3.771819 c 2.52354,2.074501 7.35302,5.733912 10.73217,8.132025 l 6.1439,4.360205 11.14161,-5.135498 c 12.06538,-5.561297 15.89546,-6.130591 22.13099,-3.2895 5.4924,2.502512 11.94125,17.201814 9.36003,21.334993 -1.00155,1.603756 -1.82101,5.363003 -1.82101,8.353882 0,4.575124 0.88092,5.858039 5.55191,8.085489 5.97661,2.85004 7.51871,2.3753 7.51871,-2.31462 0,-1.647445 0.81866,-2.995353 1.81927,-2.995353 1.10416,0 1.52776,1.986132 1.07767,5.052823 -0.46722,3.18339 0.0317,5.34957 1.34855,5.85489 3.65662,1.40317 4.56743,10.18031 1.4176,13.66083 -2.63819,2.91516 -2.644,3.46731 -0.0931,8.84275 1.98137,4.17544 2.43496,7.88745 1.66918,13.66016 l -1.05152,7.92671 8.47289,3.64494 c 5.8984,2.53742 9.98158,3.31358 13.4381,2.5544 3.78307,-0.8309 4.78681,-0.56327 4.21592,1.12408 -0.48868,1.44435 4.13218,4.79125 13.28549,9.62273 l 14.03476,7.40808 0.47195,13.26303 0.47194,13.263 15.04942,0.66465 c 8.27719,0.36555 15.96422,-0.0165 17.08231,-0.84899 1.1181,-0.83249 3.77338,-1.1809 5.90062,-0.77426 3.07057,0.58699 4.47249,-0.3836 6.80199,-4.70921 2.9269,-5.43495 9.12354,-7.50746 11.40575,-3.81476 1.79754,2.90849 7.61689,1.79157 8.51265,-1.63383 0.56643,-2.16606 2.22858,-3.26765 4.93036,-3.26765 3.78232,0 3.99768,0.41669 2.99034,5.78618 l -1.08548,5.78617 8.66434,-1.07244 c 4.7654,-0.58987 10.25472,-2.0659 12.19848,-3.28008 4.36519,-2.72677 5.99449,-9.58632 3.94979,-16.62916 -1.44204,-4.96697 -1.2004,-5.50346 3.5963,-7.98392 l 5.1422,-2.65913 6.3055,7.16698 c 3.4681,3.94185 8.8322,10.84311 11.9203,15.33614 5.0336,7.32375 6.2413,8.16914 11.6704,8.16914 h 6.0558 l -0.5101,13.85393 c -0.391,10.62011 -1.2667,14.91647 -3.7514,18.40595 -2.9058,4.0808 -3.1857,6.71687 -2.7035,25.46375 l 0.5377,20.91171 -9.8029,7.43486 c -5.3917,4.08918 -18.5007,11.34493 -29.1312,16.12391 l -19.32827,8.68904 -9.3621,-1.93372 c -13.65844,-2.8211 -13.99266,-2.71725 -16.12337,5.01007 -1.80237,6.53651 -1.67715,7.14003 2.13473,10.28996 l 4.04939,3.3462 -17.66045,1.96375 c -9.7133,1.08005 -23.93521,1.96374 -31.60426,1.96374 h -13.94376 l -5.25727,-7.32061 c -5.00675,-6.97179 -6.14603,-7.59807 -23.90846,-13.143 -10.25817,-3.2023 -25.5092,-7.1208 -33.89119,-8.70775 -13.24795,-2.50822 -16.47536,-3.81808 -24.69103,-10.02097 -7.42752,-5.60782 -11.4358,-7.41072 -18.72096,-8.42055 -8.36561,-1.1596 -12.43011,-0.41031 -41.66515,7.68106 -17.81738,4.93132 -36.9098,10.80047 -42.42762,13.04254 l -10.03236,4.07652 -7.13523,-7.13524 -7.13524,-7.13524 -18.24102,5.70236 c -10.03255,3.13629 -18.44768,5.86617 -18.70029,6.06643 -0.2526,0.20024 2.14613,7.56164 5.33051,16.35866 3.1844,8.79702 5.59675,16.18525 5.36077,16.41832 -0.23596,0.23306 -5.18418,-2.37425 -10.99604,-5.79406 z" id="path4743" transform="rotate(5.5901884,511.84121,618.20954)"/>
  </g>
</svg>