<?xml version="1.0" encoding="utf-8"?>
<svg width="319.95721" height="294.44687" viewBox="0 0 319.957 284.843" version="1.1" id="svg8" xmlns="http://www.w3.org/2000/svg">
  <g id="layer1" transform="matrix(1, 0, 0, 1, 56.441952, -5.822505)">
    <path d="m -44.2331,26.524005 1.1013,0.314718 0.34757,1.019373 2.85315,-0.627178 -0.11685,-1.843117 -4.45125,-0.605216 -0.36569,-3.831186 0.68653,-0.267415 c 0,0 1.03672,-0.438307 1.14665,-0.914727 0.0482,-0.208686 -0.23882,-0.369308 -0.27593,-0.580237 -0.0923,-0.52457 -0.23788,-1.228257 0.15251,-1.590585 0.30033,-0.27873 0.84745,0.123615 1.22894,-0.02588 0.45074,-0.176627 0.66134,-0.732009 1.08621,-0.964055 0.35838,-0.195732 0.85127,-0.08825 1.17939,-0.331342 0.32107,-0.237871 0.24841,-0.972769 0.64629,-1.00961 1.09003,-0.100927 1.28083,-0.102266 2.13775,0.0854 0.49589,0.108597 -0.0443,0.957142 0.25888,1.260732 0.63527,0.636244 1.74339,0.592184 2.64132,0.546584 0.61501,-0.03123 1.29225,-0.157335 1.76183,-0.555699 0.26405,-0.223999 0.13843,-0.82596 0.46978,-0.926482 0.35961,-0.109097 0.615,0.47464 0.98259,0.552748 0.34725,0.07379 0.71649,-0.187869 1.06035,-0.09962 0.71426,0.183298 1.12408,1.452853 1.83068,1.241957 0.27131,-0.08098 0.0788,-0.647121 0.32656,-0.784141 0.2494,-0.137919 0.56514,0.203474 0.84325,0.141207 0.47509,-0.10637 0.71825,-0.762928 1.20012,-0.832434 0.32191,-0.04643 0.74511,0.03671 0.92622,0.306861 0.17807,0.265609 -0.14734,0.647531 -0.0668,0.956997 0.0792,0.304244 0.51602,0.789452 0.51602,0.789452 l 2.30658,-3.233925 4.24634,3.870877 9.66596,-2.818801 -0.69968,-0.954385 -0.1617,-1.229204 4.13816,-0.516976 3.39781,-1.063417 0.29076,1.390409 7.04188,-0.676153 0.81408,3.720321 2.12667,-0.32395 c 0,0 -0.228235,-0.630565 -0.12338,-0.92257 0.115981,-0.32299 0.601576,-0.393295 0.754461,-0.700541 0.19674,-0.39538 -0.167065,-0.994644 0.133594,-1.318117 0.12274,-0.132055 0.532687,-0.09368 0.532687,-0.09368 l 0.177702,1.148046 2.275415,-0.317791 0.701971,3.501347 1.596369,-0.134649 c 0,0 0.199853,0.443183 0.398676,0.44366 0.241434,5.79e-4 0.2533,-0.474639 0.486698,-0.536417 0.744681,-0.19711 1.096739,-0.230018 1.984943,-0.186701 0.264253,0.01289 0.120894,0.663529 0.383601,0.694845 0.30721,0.03662 0.352078,-0.542477 0.627024,-0.684336 0.362444,-0.187003 0.860542,0.05232 1.214197,-0.150817 0.273526,-0.157111 0.263928,-0.694047 0.573918,-0.752411 0.290574,-0.05471 0.487596,0.581825 0.75762,0.461354 0.268985,-0.120008 0.128643,-0.575993 0.162127,-0.868626 0.06381,-0.557696 -0.310774,-1.27272 0.07294,-1.682425 0.321389,-0.343155 0.936709,-0.219769 1.402125,-0.153175 0.423495,0.0606 0.757793,0.497736 1.185557,0.491565 0.522291,-0.0075 0.908035,-0.613624 1.429626,-0.641697 0.321033,-0.01728 0.599035,0.252243 0.917226,0.298235 0.375375,0.05426 1.137406,-0.03103 1.137406,-0.03103 l 9.63e-4,-1.715789 -0.833109,-4.505667 7.557495,-1.565668 0.534268,1.828091 8.822474,-1.423818 0.276986,1.226271 2.109352,-0.261842 c 0,0 0.624189,0.515248 0.77913,0.873263 0.06822,0.157645 -0.06849,0.384802 0.04549,0.513312 0.109981,0.124001 0.379981,-0.02426 0.486516,0.102719 0.168966,0.201381 -0.09391,0.554448 0.02638,0.788187 0.247202,0.480338 1.047323,0.501173 1.286563,0.985526 0.148167,0.299973 -0.182128,0.723347 4.47e-4,1.003709 0.151321,0.232368 0.720487,0.0624 0.760672,0.336769 0.05888,0.401982 -0.183143,0.609016 -0.557347,1.222649 -0.139581,0.228892 -0.609059,-0.167406 -0.804113,0.01652 -0.252473,0.23807 -0.08242,1.037782 -0.08242,1.037782 l 2.453313,2.027739 2.091572,-0.398898 1.632277,8.609521 9.584264,-3.442217 0.655683,4.024406 c 0,0 0.970606,-0.708603 1.536787,-0.869241 0.769291,-0.218265 1.547751,0.201167 2.21347,-0.241851 0.247854,-0.16494 0.354941,-0.443768 0.55981,-0.659789 0.134018,-0.141314 0.382789,-0.131826 0.516186,-0.273726 0.254198,-0.270399 0.45991,-1.013938 0.45991,-1.013938 l 0.763977,0.08306 0.647848,3.597333 2.808656,-0.513282 -0.310056,-1.384502 7.405121,-1.262635 1.267401,6.815067 -2.544022,0.537459 -0.493971,3.090385 2.00119,-0.393588 0.391892,2.543091 c 2.108265,-0.347966 1.907732,-1.537774 2.01746,-2.815089 l 4.090076,-0.167775 -0.884915,-6.158116 2.027914,-0.367564 1.226304,2.03405 -0.002,-1.011229 1.459757,-0.248392 -0.41417,-2.629285 0.450552,-0.09451 -0.183645,-1.126369 5.301123,-1.04791 0.369092,1.714589 0.280468,-0.05095 0.291981,1.405176 4.774855,-0.601006 0.94961,4.167501 7.55481,-1.24635 1.80684,9.626123 -5.59216,1.055481 2.48566,14.729559 c 0,0 0.82854,-0.0206 1.16097,-0.23343 0.30675,-0.1964 0.37922,-0.63264 0.64395,-0.88281 0.1811,-0.17113 0.49252,-0.19644 0.62784,-0.40566 0.17932,-0.27727 0.14904,-0.97935 0.14904,-0.97935 l 0.51714,-0.0433 0.10206,0.5216 2.13738,-0.19058 -0.0954,-0.51123 4.31647,-0.34452 1.26156,7.33463 2.30621,-0.46586 c 0,0 0.0593,1.76291 0.29528,2.60398 0.1438,0.51243 0.56358,0.92737 0.67175,1.44848 0.19394,0.93436 -0.2357,1.92193 -0.0713,2.86194 0.1075,0.61463 0.67897,1.74439 0.67897,1.74439 l -3.4184,0.16855 0.0581,2.45502 -0.63213,0.16617 c 0,0 0.19018,0.9864 0.35614,1.36148 0.30517,0.68969 1.05726,1.83283 1.05726,1.83283 l 0.18742,0.88915 -4.37679,0.841 1.08299,5.59458 13.46706,-2.75154 -0.34375,-1.60162 5.77825,-0.98086 0.0936,0.4942 4.48587,-0.66682 0.47337,2.12365 1.68357,-0.32094 0.31707,1.69435 0.71147,-0.1515 0.49332,2.2857 2.03451,-0.3948 0.79892,4.42461 1.9267,-0.31811 0.50335,1.59059 1.99605,-2.0147 0.26836,1.45237 7.46261,-1.35693 -0.79091,-4.84055 1.88044,-0.27033 -0.32977,-3.7184 6.99777,-1.23957 c 0,0 0.28359,0.72621 0.60624,0.87165 0.39265,0.177 0.87663,-0.008 1.28342,0.13384 0.33734,0.11738 0.56455,0.45735 0.75741,0.75799 0.32965,0.51387 0.239,0.9712 0.63788,1.4334 0.34226,0.39659 0.92805,0.48745 1.37728,0.75693 0.77772,0.4665 1.45787,1.87248 2.27861,1.48666 0.27506,-0.12931 -0.18441,-0.80871 0.10357,-0.90595 1.37881,-0.4656 1.4328,-0.42423 3.16906,-0.79947 1.86523,-0.40311 -0.12464,0.57947 0.0688,0.72746 0.48707,0.3726 1.30564,0.0323 1.81307,-0.31208 0.29735,-0.20179 0.2108,-0.84531 0.56236,-0.91977 0.31513,-0.0668 0.69282,0.24383 0.79507,0.54929 0.10314,0.30814 -0.29995,0.6004 -0.30684,0.92527 -0.006,0.26754 0.22017,0.77202 0.22017,0.77202 l 21.0458,-3.88091 -0.0212,-0.63117 3.57752,-0.42957 c 0,0 -0.14211,-0.72075 -0.0875,-1.07665 0.11271,-0.73435 0.31699,-1.53593 0.83844,-2.06514 0.22126,-0.22454 0.6362,-0.1582 0.87091,-0.36864 0.4748,-0.42568 0.96225,-1.03315 0.93289,-1.67016 -0.0181,-0.39267 -0.66735,-0.97228 -0.66735,-0.97228 l -0.61838,0.74838 -0.49427,-2.80465 2.31929,-0.31758 -0.94409,-5.35587 -2.29517,0.37456 -0.44878,-2.67417 10.03811,-1.74711 c 0,0 -0.10409,-0.61816 -0.22987,-0.90168 -0.1717,-0.38702 -0.61381,-0.64449 -0.70193,-1.05861 -0.0731,-0.34346 0.17425,-1.03895 0.17425,-1.03895 l -4.27963,0.53298 -0.66709,-5.74901 11.11523,-1.66902 0.22843,2.04594 0.5088,-0.008 0.0144,0.89891 1.15546,-0.0476 0.0104,-0.86844 8.78032,-0.81303 c 0,0 -0.43302,-1.2978 -0.53207,-1.97111 -0.14806,-1.00634 -0.0869,-3.05027 -0.0869,-3.05027 l -1.86511,-1.07959 -0.0825,-1.294793 1.06784,-0.0031 0.23722,0.670929 3.50572,-0.550974 -0.19125,-1.048895 3.47593,-0.733913 0.74559,1.076279 3.89129,-2.035389 1.52606,9.619496 -1.17701,0.14265 0.17766,3.51749 0.97522,-0.0887 0.36483,4.84372 -1.43347,0.24002 1.12829,3.28651 c 0,0 0.34058,0.33432 0.55466,0.42724 0.27641,0.11997 0.89203,0.14638 0.89203,0.14638 l 6.68261,-1.52985 0.64778,5.79752 -1.49555,0.28102 0.35515,3.51437 -1.78087,0.24014 0.38065,4.17097 -0.73039,0.15781 0.96005,7.81126 -1.32183,0.16781 0.37331,3.39933 1.34087,-0.18653 0.45352,3.56903 -7.02373,1.11982 0.20316,1.0684 -3.91772,0.55467 2.74696,16.728283 c 0,0 -0.78551,-0.0166 -1.02741,0.43 -0.17006,0.31399 0.39342,1.1309 -0.0103,1.39341 -0.34923,0.22709 -0.7012,0.0285 -1.17748,0.15706 -0.65699,0.17733 -1.51704,0.60771 -1.6827,1.01121 -0.16024,0.39032 0.17293,1.25393 0.17293,1.25393 l 13.67411,-0.88799 0.095,2.00797 0.33958,8.16695 5.05609,-2.34285 0.86843,4.24082 -2.81618,1.29965 1.56962,13.5165 -7.00635,2.27499 -0.0911,-10.44512 -2.65278,0.9566 0.70066,3.50024 -2.12182,0.92206 0.52958,2.43532 -1.17502,0.98114 1.32087,6.74367 8.36425,-1.93978 2.09921,9.11227 -3.43016,1.71038 0.74677,3.73924 -1.19307,2.44586 3.90762,1.74508 0.0579,1.22656 4.56189,4.43494 -0.72187,0.69067 c 0,0 -2.67283,-0.37338 -3.93594,-0.0175 -0.57603,0.16128 -1.43569,0.32536 -1.52807,0.94188 -0.12797,0.85843 1.91672,2.75746 1.63377,3.34706 -0.27925,0.58181 -2.22207,1.07387 -3.08341,0.47471 -0.62529,-0.43509 -0.37777,-2.06424 -1.03285,-2.82208 -0.24963,-0.28889 -0.62827,-0.49925 -1.00726,-0.54518 -0.6877,-0.0841 -1.52211,0.0351 -2.01125,0.52309 -0.93749,0.93994 -0.15952,2.82359 -0.99218,3.85728 -0.65579,0.81373 -2.63816,1.07282 -2.80096,1.40817 -0.19388,0.3995 0.37672,1.25758 0.19301,1.58924 -0.2307,0.41651 -0.90226,0.3967 -1.38223,0.40249 -0.39792,0.004 -0.88262,-0.014 -1.15416,-0.30642 -0.14374,-0.15251 -0.0894,-0.4102 -0.1192,-0.61758 -0.0789,-0.5357 0.17355,-1.18869 -0.16127,-1.61624 -0.28363,-0.36199 -0.79357,-0.50959 -1.24304,-0.52466 -0.55201,-0.0175 -1.0488,0.34743 -1.56663,0.53991 -0.84739,0.31484 -1.87888,0.3662 -2.51927,1.00428 -0.68998,0.68734 -0.56551,1.89045 -1.09176,2.71 -0.89875,1.39992 -3.43248,3.62277 -3.43248,3.62277 l -0.005,2.02696 -0.9764,1.12682 0.006,5.93691 12.34693,7.85683 2.8144,-4.74565 1.77182,1.11261 3.50316,-6.13682 -2.05571,-1.18641 2.51333,-4.35871 4.9053,2.58638 -6.14401,11.64369 -7.92243,11.62118 -7.24214,-4.66197 -1.89427,1.71826 1.83807,7.13276 2.47499,-0.46594 0.20089,2.48743 -5.99588,0.65211 0.49907,2.64149 -9.08305,1.82376 -0.16127,2.68728 1.94847,1.23041 5.99182,-1.03583 0.68401,2.52849 2.68044,-0.45928 0.21106,1.62343 -14.50453,2.96365 -0.0684,0.78393 -3.46342,0.62038 0.21965,1.19378 -1.24023,0.25874 -0.2314,-1.23042 -7.1066,1.17871 -1.60204,-6.49832 -6.72202,1.35856 -1.48933,-0.99692 -1.89393,0.95344 -2.59673,-3.01529 -1.42254,0.57305 -1.28143,-2.08741 -0.51678,0.18581 1.06546,4.76368 -2.6283,0.48873 0.95731,4.00253 -6.1738,1.07914 -0.79287,-3.87121 -10.36349,2.06957 0.88034,4.1447 -3.72291,0.93171 -11.86401,-7.98348 2.37102,3.77314 -2.57403,2.32848 -1.82009,0.41002 1.19484,5.30069 -5.51768,1.22357 0.30011,1.41816 -6.28394,1.64254 -0.72959,-1.30053 -4.89533,1.124 0.44859,2.89238 1.46707,-0.22859 1.20972,6.48023 -6.60843,1.35592 0.30608,1.74018 -4.47994,0.87562 c 0,0 -1.52981,-4.31438 -2.05198,-6.53806 -0.27206,-1.15859 -0.0782,-2.43757 -0.55884,-3.52631 -0.46165,-1.04575 -1.67727,-1.71816 -2.14103,-2.67888 -0.29665,-0.61454 -0.66284,-0.80845 -1.39398,-1.17967 -0.73443,-0.37289 0.729,-2.32435 0.37399,-3.12928 -0.22741,-0.5156 -0.43426,-1.7192 -0.8123,-2.12442 -0.43143,-0.46244 -0.68461,-0.37909 -1.07474,-1.12806 -0.16034,-0.3078 1.33365,-0.54981 2.06301,-1.44988 0.66496,-0.82059 0.79666,-1.71119 0.92899,-2.63217 0.0958,-0.66705 -0.40128,-1.64309 -0.10886,-2.01876 0.7009,-0.90045 1.96009,-1.8284 2.54459,-2.83074 0.49719,-0.85261 0.86858,-1.18703 1.72248,-2.45001 0.36647,-0.54204 1.86189,-1.74501 2.11839,-2.32061 0.27487,-0.61683 -0.17901,-1.6904 0.0381,-2.17994 1.04625,-2.35923 1.38531,-3.18322 1.38531,-4.07594 0,-0.33061 -0.0453,-3.06364 -0.99794,-4.09729 -0.66214,-0.71845 -1.80496,-0.93589 -2.78191,-0.92324 -1.21085,0.0157 -2.29682,0.92482 -3.41719,1.23312 -0.89992,0.24764 -1.7011,-0.21258 -1.91889,-0.53654 -1.06526,-1.58453 1.53045,-4.19662 3.41277,-5.61505 0.92913,-0.70014 1.50336,-0.40902 2.00581,-1.34358 0.66585,-1.23849 -0.88349,-4.11816 -1.48253,-5.21409 -0.45319,-0.8291 -1.79387,-0.8592 -2.73276,-0.75305 -1.1956,0.13518 -2.6602,1.67872 -3.51729,2.48432 -1.00144,0.94127 -2.19067,0.92831 -2.75807,0.89566 -0.92898,-0.0534 -1.18255,-1.4422 -2.03409,-1.96311 -0.55393,-0.33885 -0.75478,-1.7425 -0.94436,-2.19238 -0.23379,-0.55478 0.98457,-1.098 1.24036,-1.69588 0.17102,-0.39976 0.19798,-0.60329 0.37258,-0.96599 0.98354,-2.04321 3.85284,-3.16492 4.11466,-5.41736 0.19588,-1.68515 -0.78121,-3.54385 -2.06663,-4.651 -1.38896,-1.19635 -4.29822,0.0708 -5.30112,-1.46372 -1.42426,-2.17919 1.82145,-5.22314 1.11788,-7.72962 -0.33568,-1.19588 -1.38058,-2.12688 -2.37461,-2.87166 -2.19221,-1.64251 -5.23643,-1.77897 -7.54917,-3.2469 -0.51454,-0.32658 -1.03373,-0.7031 -1.36857,-1.21231 -0.59346,-0.90253 -0.87625,-2.00691 -1.01154,-3.07857 -0.0949,-0.75166 -0.0422,-1.53519 0.15057,-2.26787 0.27518,-1.04582 1.64363,-2.95591 1.40614,-2.92367 -3.03637,1.67421 -2.81877,5.86596 -1.6389,8.49881 1.33626,2.98182 6.16329,2.65683 8.41942,5.02045 0.97201,1.01832 1.83209,2.32536 1.99193,3.72402 0.22648,1.98178 -2.83456,2.7211 -1.55915,5.77736 0.86384,2.07003 3.89915,1.75834 5.83323,3.12805 1.1367,0.80501 0.92874,1.82018 1.02894,3.13466 0.0955,1.25231 -0.9667,2.42392 -2.02983,3.32025 -0.29571,0.24931 -0.38801,-0.91999 -1.10756,-0.52433 -0.2432,0.13373 -0.20229,1.64123 -0.39443,1.83099 -0.54397,0.53724 -0.98687,1.11861 -1.16511,1.80189 -0.48377,1.85443 -0.15192,4.00331 0.73479,5.70234 0.45094,0.86402 1.3177,1.48364 2.16523,1.96487 0.63587,0.36105 1.44319,0.68902 2.09834,0.63966 1.68469,-0.12694 2.8031,-0.97174 4.63251,-2.13104 0.45205,-0.28646 1.15577,-0.68499 1.54268,-0.44486 0.53725,0.33344 0.43691,1.08157 0.35526,1.8634 -0.15483,1.48263 -1.49657,2.41788 -2.63952,3.61606 -1.31802,1.38171 -2.43403,3.01958 -2.18063,4.71983 0.1795,1.2044 1.78411,2.44135 2.67135,2.49179 1.04457,0.0594 2.53031,0.2706 3.67381,-0.0494 0.82624,-0.23122 1.4738,-1.05589 1.64715,-0.90972 0.77111,0.65018 1.05125,1.91157 1.02766,2.91993 -0.0965,4.12605 -2.07717,5.27671 -3.62203,7.56895 -1.07542,1.59568 -2.0187,2.32085 -3.55571,3.56291 -0.23707,0.19157 -0.76943,0.15741 -1.02446,0.36859 -0.2163,0.17912 -0.15355,0.60103 -0.37523,0.7924 -1.35722,1.17165 -2.7504,2.55708 -3.38538,3.96132 -0.88445,1.95596 -0.97846,4.31544 -0.54139,6.4171 0.42087,2.02378 1.52616,3.95273 2.94166,5.4591 0.38305,0.40764 1.3876,0.32818 1.42495,0.8863 0.0296,0.44147 -0.29642,1.06467 -0.47201,1.94706 -0.31348,1.57529 -0.52757,3.8828 -0.93952,5.77521 -0.10329,0.47449 0.42005,0.92973 0.36005,1.41161 -0.24795,1.99161 -1.39238,3.93652 -2.8732,5.2912 -1.03172,0.94383 -2.55567,1.13662 -3.84967,1.66657 -1.76564,0.7231 -4.24165,1.77826 -5.33894,2.06375 -1.05136,0.27352 -0.55052,-1.3023 -2.51335,-2.07476 -1.31128,-0.51604 -2.84372,-0.16286 -4.18578,-0.59257 -1.17039,-0.37475 -2.1285,-1.24852 -3.27164,-1.69958 -1.55648,-0.61416 -3.17981,-1.10267 -4.834516,-1.3512 -1.240314,-0.18629 -2.536731,-0.36689 -3.761443,-0.0964 -1.05462,0.23292 -2.011272,0.82983 -2.902783,1.43949 -0.611144,0.41793 -1.146262,0.94597 -1.641372,1.49645 -1.13839,1.2657 -1.363942,3.73441 -3.022898,4.11625 -2.469125,0.56832 -4.276888,-2.88937 -6.724803,-3.54304 -2.115653,-0.56495 -5.907489,-0.15176 -6.564858,-0.24288 -0.736724,-0.10213 2.407526,-0.68679 3.476826,-1.31213 1.768495,-1.03422 3.628167,-2.20828 4.71078,-3.94757 0.561048,-0.90136 0.918723,-2.04425 0.757733,-3.09369 -0.0916,-0.59708 -1.477785,-1.16478 -0.938922,-1.55 0.514877,-0.36807 3.222843,-0.83062 3.215913,-1.6302 -0.0073,-0.84234 -0.614161,-1.48517 -0.512516,-2.3084 0.175022,-1.4175 0.207489,-1.75552 0.708483,-4.22582 0.06656,-0.32821 1.183056,-0.32185 1.418667,-0.56138 0.135424,-0.13767 -0.52393,-0.39863 -0.523643,-0.68641 9.83e-4,-0.98533 -0.07379,-1.59439 0.150263,-2.24466 0.515292,-1.49551 2.188614,-0.99769 2.507852,-2.40439 0.161226,-0.71043 1.301906,-0.35921 2.297827,-1.53831 0.0948,-0.11223 1.002023,-0.71318 1.431471,-0.81689 0.345046,-0.0834 0.68354,-0.38812 1.065375,-0.43622 0.411388,-0.0518 0.844328,-0.0835 1.142049,-0.13782 0.805838,-0.14686 0.566298,-0.26445 0.610517,-0.53455 0.05206,-0.31803 -2.017352,-0.18886 -2.71899,0.26416 -0.157104,0.10143 0.01527,-0.58076 0.01265,-0.66541 -0.03541,-1.145 -0.585198,-3.07921 -1.070169,-4.56497 -0.685661,-2.1006 -0.303785,-3.23266 -0.578354,-4.02578 -0.305591,-0.88272 -0.579224,-1.68873 -2.189649,-3.27682 -0.424863,-0.41897 -0.973365,-0.5419 -1.213615,-1.1825 -0.0777,-0.20717 -0.04223,-0.54036 -0.06264,-0.88608 -0.02254,-0.38177 -0.10221,-0.77884 -0.231461,-1.0384 -0.231091,-0.46407 -0.77472,-1.32866 -0.918648,-1.80754 -0.266852,-0.88788 -0.05134,-2.79999 -0.454635,-2.74394 -0.513746,0.0714 -0.489025,0.73447 -0.460404,1.3604 0.02958,0.64693 0.07358,1.26445 0.174461,1.79095 0.149047,0.77793 0.901582,1.34652 1.074238,2.11955 0.117509,0.52612 -0.251745,1.11749 -0.04787,1.61654 0.283594,0.69418 1.141897,0.98278 1.622036,1.55879 0.71897,0.86252 1.509005,1.74241 1.858688,2.80945 0.303997,0.92763 -0.04225,1.96661 0.143122,2.92502 0.179104,0.92601 0.723799,1.75251 0.925501,2.67386 0.198903,0.90856 0.888295,1.85052 0.272503,2.77689 -0.521438,0.78442 -0.823329,0.87507 -1.66945,1.40814 -0.826178,0.5205 -1.357805,0.85217 -2.170057,1.32245 -0.386927,0.22402 -0.422779,0.61076 -0.801008,0.83188 -0.501976,0.29347 -0.975071,0.0767 -1.603911,0.68586 -0.11959,0.11585 -0.119854,1.58218 -0.655664,1.70293 -0.498728,0.1124 -1.168575,-0.65109 -1.365231,-0.37988 -0.20759,0.28628 0.695955,0.99046 0.917243,1.54789 0.102262,0.25761 0.185623,0.53415 0.182144,0.81129 -0.006,0.47572 -0.191565,1.0315 -0.34752,1.38431 -0.407993,0.92298 -0.374588,1.26919 -0.59837,1.72569 -0.113575,0.23168 -1.012922,0.84968 -1.248047,0.75741 -0.555819,-0.21813 -0.482183,-2.95575 -1.041825,-3.19831 -0.777127,-0.33682 -1.31783,0.016 -2.34624,-0.97547 -0.281626,-0.2715 -0.573408,-0.40031 -1.302308,-0.25185 -0.466512,0.095 -0.528821,-0.22296 -0.93426,-0.15277 -0.310535,0.0538 -0.501596,0.39991 -0.662,0.28783 -1.00743,-0.70391 -0.300939,-3.48142 -0.938901,-4.50292 -0.364653,-0.58388 0.03713,-1.56039 -0.486721,-2.00701 -0.108768,-0.0927 -0.306402,-0.10987 -0.427456,-0.0339 -0.200143,0.12565 -0.246583,0.42475 -0.256692,0.66085 -0.02836,0.66242 0.412477,1.49817 0.559074,1.9089 0.191679,0.53705 0.11544,1.6558 0.294453,3.15707 0.09871,0.82783 0.792613,1.58925 0.970844,1.67644 0.664114,0.32488 0.989823,-0.60125 1.157812,-0.14273 0.205588,0.56114 1.153987,0.73408 1.47799,1.07224 0.594918,0.62091 0.342516,0.87501 0.830511,1.58465 0.31037,0.45134 1.024661,0.50795 1.333405,0.9604 0.129685,0.19005 0.184142,0.43889 0.171435,0.66862 -0.01621,0.29297 -0.307489,0.45805 -0.311336,0.82336 -0.01953,1.85441 0.116688,3.26099 -0.25154,4.57602 -0.114292,0.40817 -0.727003,0.47172 -0.976766,0.81418 -0.682491,0.93579 -0.5285,2.35984 -1.30279,3.22122 -0.964892,1.07343 -2.738597,1.0836 -3.819077,2.04058 -0.41397,0.36666 -0.635338,0.62474 -0.952824,1.35809 -0.380904,0.87984 0.331559,3.05286 -0.483046,3.44855 -0.990323,0.48105 -2.196959,-0.42272 -3.290062,-0.29128 -0.968494,0.11646 -1.884473,0.17984 -2.770733,0.94176 -0.979242,0.84185 -0.263079,1.75043 -0.67142,2.74242 -0.27323,0.40189 -1.256676,-0.49278 -1.888738,-0.78048 -0.349634,-0.15911 -1.08055,-0.276 -1.730468,-0.4401 -0.716096,-0.18081 -1.35531,-0.40463 -1.767861,-0.47867 -1.729541,-0.31041 -3.516082,0.0594 -5.271448,-0.0292 -1.995445,-0.1008 -3.896267,-1.79107 -4.931479,-2.07665 -1.035213,-0.28559 -3.131432,-0.58815 -3.131432,-0.58815 l 0.05542,-0.96296 1.281552,-0.96384 c 0,0 -0.288068,-0.27761 -0.348152,-0.54187 -0.10169,-0.44725 0.787074,-0.51729 0.567731,-0.83413 -0.302434,-0.43687 -1.384741,0.2773 -1.50633,-0.31078 -0.102624,-0.49636 0.730001,-0.62667 1.169867,-0.79792 0.385802,-0.1502 1.237734,0.18048 1.22918,-0.17816 -0.02531,-1.06108 -0.488389,-2.12197 -0.312857,-3.16873 0.132256,-0.78869 1.142624,-0.89041 1.001647,-2.18 -0.08786,-0.80373 -0.100119,-3.48991 -0.326856,-4.30031 -0.245483,-0.87741 -3.109538,-0.63846 -2.777712,-1.14065 0.469325,-0.71028 0.87541,-1.2878 0.320739,-2.26253 -0.247827,-0.43551 -1.429736,-0.7236 -0.970866,-1.02965 0.436087,-0.29086 1.682696,-1.11888 1.900453,-1.76872 0.266895,-0.79648 -0.14036,-2.71374 0.147003,-3.32378 0.283659,-0.60218 0.640698,-0.91265 0.49475,-1.06094 -0.388734,-0.39498 -0.907577,0.97934 -1.441035,0.82918 -0.704065,-0.19818 -0.969983,-1.19894 -1.051787,-1.92577 -0.126307,-1.12224 0.360159,-2.50432 0.922402,-3.25999 0.247464,-0.3326 0.339188,-0.7227 0.117403,-1.23813 -0.349533,-0.81231 -0.628853,-2.42283 -1.095933,-3.17864 -0.343447,-0.55575 -1.289543,-0.71269 -1.938585,-1.06627 -1.243112,-0.67721 -3.792839,-0.21467 -4.067059,-1.22252 -0.165779,-0.6093 0.02524,-5.83908 -0.311251,-6.87595 -0.295504,-0.91059 -0.124207,-1.90506 -0.68939,-2.29341 -0.502754,-0.34394 -0.311036,1.23216 -0.504569,1.83694 -0.124739,0.3898 -0.14607,0.85773 -0.422573,1.15282 -0.309635,0.33044 -0.777941,0.0719 -0.805908,0.051 -0.661398,-0.42334 -1.586472,-1.54013 -2.155312,-2.05603 -1.627113,-1.45514 -3.216344,-4.21259 -4.147079,-6.08781 -0.119203,-0.50275 -0.37088,-2.14478 -0.36475,-2.70937 l 1.180436,-0.58345 5.441227,-0.92001 -0.251039,-1.3513 5.291423,-1.02641 0.27785,1.45576 11.06348,-1.79711 -0.533741,-1.1828 -0.284053,-2.55138 -0.594302,-1.14923 4.020534,-0.85936 0.166234,0.88674 2.505722,-0.5057 -0.117999,-1.09669 0.7076,-0.14292 -0.235391,-2.16864 1.034709,-0.22709 -1.037006,-5.31888 0.738197,-0.20437 -1.002425,-1.39252 -2.411239,-12.46338 -2.267842,0.60158 -0.329445,-1.59803 -4.909875,0.88309 -0.258696,2.55944 -3.607735,-0.27644 -3.621011,0.76165 -0.315394,-0.87883 -1.832378,0.44703 -0.435006,-1.44917 1.157916,-0.41544 -0.967941,-3.19774 1.186238,-0.36108 0.633913,1.99982 3.46102,-0.73538 -1.08083,-5.53286 3.294088,-0.68474 -1.028951,-5.37839 0.737702,-0.14701 -0.274673,-1.5693 -10.050701,2.20035 0.183667,0.67841 -6.666657,1.49539 -1.159309,-4.88536 -1.799439,0.47753 0.883954,-3.53743 -9.742995,1.83012 -1.550998,-6.82726 -1.945719,0.39736 -0.743391,-2.73644 2.206131,-0.54047 -0.123481,-0.54962 2.082581,-0.51081 -0.595775,-2.31841 -1.767387,0.23616 -1.269131,-6.61919 2.116005,-0.54299 -0.636797,-3.44495 -3.685288,0.9149 -0.512818,-3.66676 1.820939,-0.085 -1.075085,-5.91245 0.518728,-0.14185 -0.786647,-3.42639 3.24945,-0.6372 -0.641394,-3.45398 0.466686,-0.13845 -0.565445,-2.41696 -4.294767,1.33642 -0.713783,-2.11008 -2.84793,0.46557 -0.20263,-0.85709 -1.44218,0.51789 -1.56536,0.34868 -0.1165,-1.28236 -1.06779,0.11895 -0.51869,-1.16915 -0.51919,0.0523 -0.64183,-3.01575 3.38251,-0.583 -0.29953,-1.97464 0.49695,-0.12939 -0.47247,-4.25977 0.79381,-0.21267 -0.31779,-1.52426 1.37483,-0.25986 -0.43558,-2.005213 -8.4676,1.551633 1.201,5.01867 -2.29702,0.95934 -4.01599,0.17325 -0.0955,-2.79804 0.51408,-0.0236 -0.19086,-2.59216 -4.9685,1.555 -0.50748,-1.54873 -5.58454,1.46885 -0.36386,-0.92029 -9.27743,2.07232 -0.73989,-3.49949 -4.58768,0.81781 -1.26155,-5.740503 0.64348,-0.13607 -2.7906,-12.94622 0.99387,-0.1485 -0.11775,-0.73638 2.68741,-0.31751 -0.56702,-4.18233 2.38888,-0.29669 -0.23434,-1.83413 -0.94022,0.0944 -0.57738,-3.42382 -9.77533,1.79698 -3.54174,-18.15674 0.79599,-1.18259 -6.47807,-5.86309 0.191,-2.76987 -2.54451,-4.3552 3.49664,-1.3153 0.0118,-1.457512 -2.59022,-5.032621 -0.86398,0.736424 -1.84644,-1.752872 0.68488,-0.905754 c 0,0 0.50728,0.425139 0.81843,0.493437 0.36845,0.08088 0.8404,0.123161 1.12478,-0.12468 1.75837,-1.532477 1.96691,-3.022283 1.96691,-3.022283 l 3.49476,0.512349 0.12145,-1.056893 0.88273,-0.794556 3.40005,0.512519 0.0489,-0.358541 -0.92688,-0.581714 z" id="path3394-0" style="fill:#fde182;fill-opacity:1;stroke:none;stroke-width:0.634998;stroke-miterlimit:4;stroke-dasharray:none;stroke-opacity:1"/>
    <path d="m -44.233104,26.524005 1.101304,0.314718 0.347572,1.019373 2.853143,-0.627178 -0.116849,-1.843117 -4.451244,-0.605216 -0.365696,-3.831186 0.686532,-0.267415 c 0,0 1.036726,-0.438307 1.146653,-0.914727 0.04815,-0.208686 -0.238825,-0.369308 -0.275935,-0.580237 -0.09229,-0.52457 -0.237878,-1.228257 0.152518,-1.590585 0.300322,-0.27873 0.847445,0.123615 1.228937,-0.02588 0.450737,-0.176627 0.661336,-0.732009 1.086208,-0.964055 0.358382,-0.195732 0.851274,-0.08825 1.179386,-0.331342 0.32107,-0.237871 0.248415,-0.972769 0.646298,-1.00961 1.090024,-0.100927 1.280826,-0.102266 2.13775,0.0854 0.495883,0.108597 -0.04425,0.957142 0.258874,1.260732 0.635269,0.636244 1.743388,0.592184 2.641327,0.546584 0.615002,-0.03123 1.292241,-0.157335 1.761825,-0.555699 0.264046,-0.223999 0.138433,-0.82596 0.46978,-0.926482 0.359613,-0.109097 0.615,0.47464 0.982591,0.552748 0.347254,0.07379 0.716487,-0.187869 1.060352,-0.09962 0.714256,0.183298 1.124078,1.452853 1.830677,1.241957 0.271313,-0.08098 0.07878,-0.647121 0.326556,-0.784141 0.249405,-0.137919 0.565143,0.203474 0.843257,0.141207 0.47509,-0.10637 0.718252,-0.762928 1.200117,-0.832434 0.321913,-0.04643 0.745111,0.03671 0.926224,0.306861 0.178067,0.265609 -0.147348,0.647531 -0.0668,0.956997 0.07918,0.304244 0.516021,0.789452 0.516021,0.789452 l 2.306577,-3.233925 4.246337,3.870877 9.6659574,-2.818801 -0.6996739,-0.954385 -0.1617005,-1.229204 4.138156,-0.516976 3.3978116,-1.063417 0.29075684,1.390409 7.04188896,-0.676153 0.8140762,3.720321 2.1266689,-0.32395 c 0,0 -0.2282349,-0.630565 -0.1233796,-0.92257 0.1159815,-0.32299 0.6015761,-0.393295 0.7544611,-0.700541 0.1967395,-0.39538 -0.1670651,-0.994644 0.133594,-1.318117 0.1227403,-0.132055 0.532687,-0.09368 0.532687,-0.09368 l 0.177702,1.148046 2.275415,-0.317791 0.701971,3.501347 1.596369,-0.134649 c 0,0 0.199853,0.443183 0.398676,0.44366 0.241434,5.79e-4 0.2533,-0.474639 0.486698,-0.536417 0.744681,-0.19711 1.096739,-0.230018 1.984943,-0.186701 0.264253,0.01289 0.120894,0.663529 0.383601,0.694845 0.30721,0.03662 0.352078,-0.542477 0.627024,-0.684336 0.362444,-0.187003 0.860542,0.05232 1.214197,-0.150817 0.273526,-0.157111 0.263928,-0.694047 0.573918,-0.752411 0.290574,-0.05471 0.487596,0.581825 0.75762,0.461354 0.268985,-0.120008 0.128643,-0.575993 0.162127,-0.868626 0.06381,-0.557696 -0.310774,-1.27272 0.07294,-1.682425 0.321389,-0.343155 0.936709,-0.219769 1.402125,-0.153175 0.423495,0.0606 0.757793,0.497736 1.185557,0.491565 0.522291,-0.0075 0.908035,-0.613624 1.429626,-0.641697 0.321033,-0.01728 0.599035,0.252243 0.917226,0.298235 0.375375,0.05426 1.137406,-0.03103 1.137406,-0.03103 l 9.63e-4,-1.715789 -0.833109,-4.505667 7.557495,-1.5656685 0.534268,1.8280918 8.822474,-1.4238186 0.276986,1.226271 2.109352,-0.2618415 c 0,0 0.624189,0.5152482 0.77913,0.8732631 0.06822,0.1576445 -0.06849,0.3848018 0.04549,0.5133117 0.109981,0.1240007 0.379981,-0.024256 0.486516,0.1027185 0.168966,0.2013818 -0.09391,0.5544485 0.02638,0.7881873 0.247202,0.4803382 1.047323,0.5011732 1.286563,0.9855262 0.148167,0.299973 -0.182128,0.723347 4.47e-4,1.003709 0.151321,0.232368 0.720487,0.0624 0.760672,0.336769 0.05888,0.401982 -0.183143,0.609016 -0.557347,1.222649 -0.139581,0.228892 -0.609059,-0.167406 -0.804113,0.01652 -0.252473,0.23807 -0.08242,1.037782 -0.08242,1.037782 l 2.453313,2.027739 2.091572,-0.398898 1.632277,8.609521 9.584264,-3.442217 0.655683,4.024406 c 0,0 0.970606,-0.708603 1.536787,-0.869241 0.769291,-0.218265 1.547751,0.201167 2.21347,-0.241851 0.247854,-0.16494 0.354941,-0.443768 0.55981,-0.659789 0.134018,-0.141314 0.382789,-0.131826 0.516186,-0.273726 0.254198,-0.270399 0.45991,-1.013938 0.45991,-1.013938 l 0.763977,0.08306 0.647848,3.597333 2.808656,-0.513282 -0.310056,-1.384502 7.405121,-1.262635 1.267401,6.815067 -2.544022,0.537459 -0.493971,3.090385 2.00119,-0.393588 0.391892,2.543091 c 2.108265,-0.347966 1.907732,-1.537774 2.01746,-2.815089 l 4.090076,-0.167775 -0.884915,-6.158116 2.027914,-0.367564 1.226304,2.03405 -0.002,-1.011229 1.459757,-0.248392 -0.41417,-2.629285 0.450552,-0.09451 -0.183645,-1.126369 5.301123,-1.04791 0.369092,1.714589 0.280468,-0.05095 0.291981,1.405176 4.774855,-0.601006 0.94961,4.167501 7.55481,-1.24635 1.80684,9.626123 -5.59216,1.055481 2.48566,14.729558 c 0,0 0.82854,-0.02058 1.16097,-0.23343 0.30675,-0.196401 0.37922,-0.632638 0.64395,-0.882807 0.1811,-0.171132 0.49252,-0.196443 0.62784,-0.405662 0.17932,-0.277272 0.14904,-0.979348 0.14904,-0.979348 l 0.51714,-0.04329 0.10206,0.521594 2.13738,-0.190572 -0.0954,-0.511233 4.31647,-0.344518 1.26156,7.334626 2.30621,-0.46586 c 0,0 0.0593,1.762914 0.29528,2.603985 0.1438,0.512427 0.56358,0.927365 0.67175,1.448476 0.19394,0.934361 -0.2357,1.921934 -0.0713,2.861944 0.1075,0.614627 0.67897,1.744389 0.67897,1.744389 l -3.4184,0.168544 0.0581,2.455025 -0.63213,0.166163 c 0,0 0.19018,0.9864 0.35614,1.361482 0.30517,0.689689 1.05726,1.832831 1.05726,1.832831 l 0.18742,0.889157 -4.37679,0.84099 1.08299,5.594581 13.46706,-2.751538 -0.34375,-1.601616 5.77825,-0.980859 0.0936,0.494201 4.48587,-0.666827 0.47337,2.123654 1.68357,-0.32094 0.31707,1.694351 0.71147,-0.151502 0.49332,2.285702 2.03451,-0.394799 0.79892,4.424603 1.9267,-0.318111 0.50335,1.590595 1.99605,-2.0147 0.26836,1.452372 7.46261,-1.356928 -0.79091,-4.840554 1.88044,-0.270332 -0.32977,-3.718397 6.99777,-1.239567 c 0,0 0.28359,0.726202 0.60624,0.871647 0.39265,0.177003 0.87663,-0.0077 1.28342,0.133836 0.33734,0.117381 0.56455,0.457348 0.75741,0.75799 0.32965,0.513871 0.239,0.971206 0.63788,1.433402 0.34226,0.396589 0.92805,0.487455 1.37728,0.756926 0.77772,0.466508 1.45787,1.872485 2.27861,1.48666 0.27506,-0.12931 -0.18441,-0.808706 0.10357,-0.90595 1.37881,-0.465598 1.4328,-0.424229 3.16906,-0.799467 1.86523,-0.403105 -0.12464,0.57947 0.0688,0.72746 0.48707,0.372601 1.30564,0.03228 1.81307,-0.312075 0.29735,-0.201792 0.2108,-0.84531 0.56236,-0.919774 0.31513,-0.06675 0.69282,0.243827 0.79507,0.549289 0.10314,0.308137 -0.29995,0.600406 -0.30684,0.925275 -0.006,0.267539 0.22017,0.772016 0.22017,0.772016 l 21.0458,-3.880909 -0.0212,-0.631172 3.57752,-0.429567 c 0,0 -0.14211,-0.720752 -0.0875,-1.076651 0.11271,-0.734353 0.31699,-1.535935 0.83844,-2.06514 0.22126,-0.224544 0.6362,-0.158202 0.87091,-0.368637 0.4748,-0.42568 0.96225,-1.033157 0.93289,-1.670159 -0.0181,-0.392675 -0.66735,-0.972288 -0.66735,-0.972288 l -0.61838,0.748383 -0.49427,-2.80465 2.31929,-0.317578 -0.94409,-5.355875 -2.29517,0.374566 -0.44878,-2.674176 10.03811,-1.74711 c 0,0 -0.10409,-0.618155 -0.22987,-0.901678 -0.1717,-0.387015 -0.61381,-0.644488 -0.70193,-1.058608 -0.0731,-0.343464 0.17425,-1.038951 0.17425,-1.038951 l -4.27963,0.532983 -0.66709,-5.749016 11.11523,-1.669016 0.22843,2.04594 0.5088,-0.0075 0.0144,0.898906 1.15546,-0.04764 0.0104,-0.868438 8.78032,-0.813026 c 0,0 -0.43302,-1.297804 -0.53207,-1.97111 -0.14806,-1.006339 -0.0869,-3.050276 -0.0869,-3.050276 l -1.86511,-1.079588 -0.0825,-1.294791 1.06784,-0.0031 0.23722,0.670929 3.50572,-0.550974 -0.19125,-1.048895 3.47593,-0.733913 0.74559,1.076279 3.89129,-2.035389 1.52606,9.619496 -1.17701,0.142648 0.17766,3.517489 0.97522,-0.08865 0.36483,4.843726 -1.43347,0.240013 1.12829,3.286511 c 0,0 0.34058,0.334319 0.55466,0.427239 0.27641,0.119971 0.89203,0.146388 0.89203,0.146388 l 6.68261,-1.529852 0.64778,5.797515 -1.49555,0.281019 0.35515,3.51437 -1.78087,0.240146 0.38065,4.170965 -0.73039,0.157812 0.96005,7.811259 -1.32183,0.167813 0.37331,3.399333 1.34087,-0.186535 0.45352,3.569034 -7.02373,1.119813 0.20316,1.0684 -3.91772,0.554676 2.74696,16.728281 c 0,0 -0.78551,-0.0166 -1.02741,0.43 -0.17006,0.31399 0.39342,1.1309 -0.0103,1.39341 -0.34923,0.22709 -0.7012,0.0285 -1.17748,0.15706 -0.65699,0.17733 -1.51704,0.60771 -1.6827,1.01121 -0.16024,0.39032 0.17293,1.25393 0.17293,1.25393 l 13.67411,-0.88799 0.095,2.00797 0.33958,8.16695 5.05609,-2.34285 0.86843,4.24082 -2.81618,1.29965 1.56962,13.5165 -7.00635,2.27499 -0.0911,-10.44512 -2.65278,0.9566 0.70066,3.50024 -2.12182,0.92206 0.52958,2.43532 -1.17502,0.98114 1.32087,6.74367 8.36425,-1.93978 2.09921,9.11227 -3.43016,1.71038 0.74677,3.73924 -1.19307,2.44586 3.90762,1.74508 0.0579,1.22656 4.56189,4.43494 -0.72187,0.69067 c 0,0 -2.67283,-0.37338 -3.93594,-0.0175 -0.57603,0.16128 -1.43569,0.32536 -1.52807,0.94188 -0.12797,0.85843 1.91672,2.75746 1.63377,3.34706 -0.27925,0.58181 -2.22207,1.07387 -3.08341,0.47471 -0.62529,-0.43509 -0.37777,-2.06424 -1.03285,-2.82208 -0.24963,-0.28889 -0.62827,-0.49925 -1.00726,-0.54518 -0.6877,-0.0841 -1.52211,0.0351 -2.01125,0.52309 -0.93749,0.93994 -0.15952,2.82359 -0.99218,3.85728 -0.65579,0.81373 -2.63816,1.07282 -2.80096,1.40817 -0.19388,0.3995 0.37672,1.25758 0.19301,1.58924 -0.2307,0.41651 -0.90226,0.3967 -1.38223,0.40249 -0.39792,0.004 -0.88262,-0.014 -1.15416,-0.30642 -0.14374,-0.15251 -0.0894,-0.4102 -0.1192,-0.61758 -0.0789,-0.5357 0.17355,-1.18869 -0.16127,-1.61624 -0.28363,-0.36199 -0.79357,-0.50959 -1.24304,-0.52466 -0.55201,-0.0175 -1.0488,0.34743 -1.56663,0.53991 -0.84739,0.31484 -1.87888,0.3662 -2.51927,1.00428 -0.68998,0.68734 -0.56551,1.89045 -1.09176,2.71 -0.89875,1.39992 -3.43248,3.62277 -3.43248,3.62277 l -0.005,2.02696 -0.9764,1.12682 0.006,5.93691 12.34693,7.85683 2.8144,-4.74565 1.77182,1.11261 3.50316,-6.13682 -2.05571,-1.18641 2.51333,-4.35871 4.9053,2.58638 -6.14401,11.64369 -7.92243,11.62118 -7.24214,-4.66197 -1.89427,1.71826 1.83807,7.13276 2.47499,-0.46594 0.20089,2.48743 -5.99588,0.65211 0.49907,2.64149 -9.08305,1.82376 -0.16127,2.68728 1.94847,1.23041 5.99182,-1.03583 0.68401,2.52849 2.68044,-0.45928 0.21106,1.62343 -14.50453,2.96365 -0.0684,0.78393 -3.46342,0.62038 0.21965,1.19378 -1.24023,0.25874 -0.2314,-1.23042 -7.1066,1.17871 -1.60204,-6.49832 -6.72202,1.35856 -1.48933,-0.99692 -1.89393,0.95344 -2.59673,-3.01529 -1.42254,0.57305 -1.28143,-2.08741 -0.51678,0.18581 1.06546,4.76368 -2.6283,0.48873 0.95731,4.00253 -6.1738,1.07914 -0.79287,-3.87121 -10.36349,2.06957 0.88034,4.1447 -3.72291,0.93171 -11.86401,-7.98348 2.37102,3.77314 -2.57403,2.32848 -1.82009,0.41002 1.19484,5.30069 -5.51768,1.22357 0.30011,1.41816 -6.28394,1.64254 -0.72959,-1.30053 -4.89533,1.124 0.44859,2.89238 1.46707,-0.22859 1.20972,6.48023 -6.60843,1.35592 0.30608,1.74018 -4.47994,0.87562 c 0,0 -1.52981,-4.31438 -2.05198,-6.53806 -0.27206,-1.15859 -0.0782,-2.43757 -0.55884,-3.52631 -0.46165,-1.04575 -1.67727,-1.71816 -2.14103,-2.67888 -0.29665,-0.61454 -0.66284,-0.80845 -1.39398,-1.17967 -0.73443,-0.37289 0.729,-2.32435 0.37399,-3.12928 -0.22741,-0.5156 -0.43426,-1.7192 -0.8123,-2.12442 -0.43143,-0.46244 -0.68461,-0.37909 -1.07474,-1.12806 -0.16034,-0.3078 1.33365,-0.54981 2.06301,-1.44988 0.66496,-0.82059 0.79666,-1.71119 0.92899,-2.63217 0.0958,-0.66705 -0.40128,-1.64309 -0.10886,-2.01876 0.7009,-0.90045 1.96009,-1.8284 2.54459,-2.83074 0.49719,-0.85261 0.86858,-1.18703 1.72248,-2.45001 0.36647,-0.54204 1.86189,-1.74501 2.11839,-2.32061 0.27487,-0.61683 -0.17901,-1.6904 0.0381,-2.17994 1.04625,-2.35923 1.38531,-3.18322 1.38531,-4.07594 0,-0.33061 -0.0453,-3.06364 -0.99794,-4.09729 -0.66214,-0.71845 -1.80496,-0.93589 -2.78191,-0.92324 -1.21085,0.0157 -2.29682,0.92482 -3.41719,1.23312 -0.89992,0.24764 -1.7011,-0.21258 -1.91889,-0.53654 -1.06526,-1.58453 1.53045,-4.19662 3.41277,-5.61505 0.92913,-0.70014 1.50336,-0.40902 2.00581,-1.34358 0.66585,-1.23849 -0.88349,-4.11816 -1.48253,-5.21409 -0.45319,-0.8291 -1.79387,-0.8592 -2.73276,-0.75305 -1.1956,0.13518 -2.6602,1.67872 -3.51729,2.48432 -1.00144,0.94127 -2.19067,0.92831 -2.75807,0.89566 -0.92898,-0.0534 -1.18255,-1.4422 -2.03409,-1.96311 -0.55393,-0.33885 -0.75478,-1.7425 -0.94436,-2.19238 -0.23379,-0.55478 0.98457,-1.098 1.24036,-1.69588 0.17102,-0.39976 0.19798,-0.60329 0.37258,-0.96599 0.98354,-2.04321 3.85284,-3.16492 4.11466,-5.41736 0.19588,-1.68515 -0.78121,-3.54385 -2.06663,-4.651 -1.38896,-1.19635 -4.29822,0.0708 -5.30112,-1.46372 -1.42426,-2.17919 1.82145,-5.22314 1.11788,-7.72962 -0.33568,-1.19588 -1.38058,-2.12688 -2.37461,-2.87166 -2.19221,-1.64251 -5.23643,-1.77897 -7.54917,-3.2469 -0.51454,-0.32658 -1.03373,-0.7031 -1.36857,-1.21231 -0.59346,-0.90253 -0.87625,-2.00691 -1.01154,-3.07857 -0.0949,-0.75166 -0.0422,-1.53519 0.15057,-2.26787 0.27518,-1.04582 1.64363,-2.95591 1.40614,-2.92367 -3.03637,1.67421 -2.81877,5.86596 -1.6389,8.49881 1.33626,2.98182 6.16329,2.65683 8.41942,5.02045 0.97201,1.01832 1.83209,2.32536 1.99193,3.72402 0.22648,1.98178 -2.83456,2.7211 -1.55915,5.77736 0.86384,2.07003 3.89915,1.75834 5.83323,3.12805 1.1367,0.80501 0.92874,1.82018 1.02894,3.13466 0.0955,1.25231 -0.9667,2.42392 -2.02983,3.32025 -0.29571,0.24931 -0.38801,-0.91999 -1.10756,-0.52433 -0.2432,0.13373 -0.20229,1.64123 -0.39443,1.83099 -0.54397,0.53724 -0.98687,1.11861 -1.16511,1.80189 -0.48377,1.85443 -0.15192,4.00331 0.73479,5.70234 0.45094,0.86402 1.3177,1.48364 2.16523,1.96487 0.63587,0.36105 1.44319,0.68902 2.09834,0.63966 1.68469,-0.12694 2.8031,-0.97174 4.63251,-2.13104 0.45205,-0.28646 1.15577,-0.68499 1.54268,-0.44486 0.53725,0.33344 0.43691,1.08157 0.35526,1.8634 -0.15483,1.48263 -1.49657,2.41788 -2.63952,3.61606 -1.31802,1.38171 -2.43403,3.01958 -2.18063,4.71983 0.1795,1.2044 1.78411,2.44135 2.67135,2.49179 1.04457,0.0594 2.53031,0.2706 3.67381,-0.0494 0.82624,-0.23122 1.4738,-1.05589 1.64715,-0.90972 0.77111,0.65018 1.05125,1.91157 1.02766,2.91993 -0.0965,4.12605 -2.07717,5.27671 -3.62203,7.56895 -1.07542,1.59568 -2.0187,2.32085 -3.55571,3.56291 -0.23707,0.19157 -0.76943,0.15741 -1.02446,0.36859 -0.2163,0.17912 -0.15355,0.60103 -0.37523,0.7924 -1.35722,1.17165 -2.7504,2.55708 -3.38538,3.96132 -0.88445,1.95596 -0.97846,4.31544 -0.54139,6.4171 0.42087,2.02378 1.52616,3.95273 2.94166,5.4591 0.38305,0.40764 1.3876,0.32818 1.42495,0.8863 0.0296,0.44147 -0.29642,1.06467 -0.47201,1.94706 -0.31348,1.57529 -0.52757,3.8828 -0.93952,5.77521 -0.10329,0.47449 0.42005,0.92973 0.36005,1.41161 -0.24795,1.99161 -1.39238,3.93652 -2.8732,5.2912 -1.03172,0.94383 -2.55567,1.13662 -3.84967,1.66657 -1.76564,0.7231 -4.24165,1.77826 -5.33894,2.06375 -1.05136,0.27352 -0.55052,-1.3023 -2.51335,-2.07476 -1.31128,-0.51604 -2.84372,-0.16286 -4.18578,-0.59257 -1.17039,-0.37475 -2.1285,-1.24852 -3.27164,-1.69958 -1.55648,-0.61416 -3.17981,-1.10267 -4.834516,-1.3512 -1.240314,-0.18629 -2.536731,-0.36689 -3.761443,-0.0964 -1.05462,0.23292 -2.011272,0.82983 -2.902783,1.43949 -0.611144,0.41793 -1.146262,0.94597 -1.641372,1.49645 -1.13839,1.2657 -1.363942,3.73441 -3.022898,4.11625 -2.469125,0.56832 -4.276888,-2.88937 -6.724803,-3.54304 -2.115653,-0.56495 -5.907489,-0.15176 -6.564858,-0.24288 -0.736724,-0.10213 2.407526,-0.68679 3.476826,-1.31213 1.768495,-1.03422 3.628167,-2.20828 4.71078,-3.94757 0.561048,-0.90136 0.918723,-2.04425 0.757733,-3.09369 -0.0916,-0.59708 -1.477785,-1.16478 -0.938922,-1.55 0.514877,-0.36807 3.222843,-0.83062 3.215913,-1.6302 -0.0073,-0.84234 -0.614161,-1.48517 -0.512516,-2.3084 0.175022,-1.4175 0.207489,-1.75552 0.708483,-4.22582 0.06656,-0.32821 1.183056,-0.32185 1.418667,-0.56138 0.135424,-0.13767 -0.52393,-0.39863 -0.523643,-0.68641 9.83e-4,-0.98533 -0.07379,-1.59439 0.150263,-2.24466 0.515292,-1.49551 2.188614,-0.99769 2.507852,-2.40439 0.161226,-0.71043 1.301906,-0.35921 2.297827,-1.53831 0.0948,-0.11223 1.002023,-0.71318 1.431471,-0.81689 0.345046,-0.0834 0.68354,-0.38812 1.065375,-0.43622 0.411388,-0.0518 0.844328,-0.0835 1.142049,-0.13782 0.805838,-0.14686 0.566298,-0.26445 0.610517,-0.53455 0.05206,-0.31803 -2.017352,-0.18886 -2.71899,0.26416 -0.157104,0.10143 0.01527,-0.58076 0.01265,-0.66541 -0.03541,-1.145 -0.585198,-3.07921 -1.070169,-4.56497 -0.685661,-2.1006 -0.303785,-3.23266 -0.578354,-4.02578 -0.305591,-0.88272 -0.579224,-1.68873 -2.189649,-3.27682 -0.424863,-0.41897 -0.973365,-0.5419 -1.213615,-1.1825 -0.0777,-0.20717 -0.04223,-0.54036 -0.06264,-0.88608 -0.02254,-0.38177 -0.10221,-0.77884 -0.231461,-1.0384 -0.231091,-0.46407 -0.77472,-1.32866 -0.918648,-1.80754 -0.266852,-0.88788 -0.05134,-2.79999 -0.454635,-2.74394 -0.513746,0.0714 -0.489025,0.73447 -0.460404,1.3604 0.02958,0.64693 0.07358,1.26445 0.174461,1.79095 0.149047,0.77793 0.901582,1.34652 1.074238,2.11955 0.117509,0.52612 -0.251745,1.11749 -0.04787,1.61654 0.283594,0.69418 1.141897,0.98278 1.622036,1.55879 0.71897,0.86252 1.509005,1.74241 1.858688,2.80945 0.303997,0.92763 -0.04225,1.96661 0.143122,2.92502 0.179104,0.92601 0.723799,1.75251 0.925501,2.67386 0.198903,0.90856 0.888295,1.85052 0.272503,2.77689 -0.521438,0.78442 -0.823329,0.87507 -1.66945,1.40814 -0.826178,0.5205 -1.357805,0.85217 -2.170057,1.32245 -0.386927,0.22402 -0.422779,0.61076 -0.801008,0.83188 -0.501976,0.29347 -0.975071,0.0767 -1.603911,0.68586 -0.11959,0.11585 -0.119854,1.58218 -0.655664,1.70293 -0.498728,0.1124 -1.168575,-0.65109 -1.365231,-0.37988 -0.20759,0.28628 0.695955,0.99046 0.917243,1.54789 0.102262,0.25761 0.185623,0.53415 0.182144,0.81129 -0.006,0.47572 -0.191565,1.0315 -0.34752,1.38431 -0.407993,0.92298 -0.374588,1.26919 -0.59837,1.72569 -0.113575,0.23168 -1.012922,0.84968 -1.248047,0.75741 -0.555819,-0.21813 -0.482183,-2.95575 -1.041825,-3.19831 -0.777127,-0.33682 -1.31783,0.016 -2.34624,-0.97547 -0.281626,-0.2715 -0.573408,-0.40031 -1.302308,-0.25185 -0.466512,0.095 -0.528821,-0.22296 -0.93426,-0.15277 -0.310535,0.0538 -0.501596,0.39991 -0.662,0.28783 -1.00743,-0.70391 -0.300939,-3.48142 -0.938901,-4.50292 -0.364653,-0.58388 0.03713,-1.56039 -0.486721,-2.00701 -0.108768,-0.0927 -0.306402,-0.10987 -0.427456,-0.0339 -0.200143,0.12565 -0.246583,0.42475 -0.256692,0.66085 -0.02836,0.66242 0.412477,1.49817 0.559074,1.9089 0.191679,0.53705 0.11544,1.6558 0.294453,3.15707 0.09871,0.82783 0.792613,1.58925 0.970844,1.67644 0.664114,0.32488 0.989823,-0.60125 1.157812,-0.14273 0.205588,0.56114 1.153987,0.73408 1.47799,1.07224 0.594918,0.62091 0.342516,0.87501 0.830511,1.58465 0.31037,0.45134 1.024661,0.50795 1.333405,0.9604 0.129685,0.19005 0.184142,0.43889 0.171435,0.66862 -0.01621,0.29297 -0.307489,0.45805 -0.311336,0.82336 -0.01953,1.85441 0.116688,3.26099 -0.25154,4.57602 -0.114292,0.40817 -0.727003,0.47172 -0.976766,0.81418 -0.682491,0.93579 -0.5285,2.35984 -1.30279,3.22122 -0.964892,1.07343 -2.738597,1.0836 -3.819077,2.04058 -0.41397,0.36666 -0.635338,0.62474 -0.952824,1.35809 -0.380904,0.87984 0.331559,3.05286 -0.483046,3.44855 -0.990323,0.48105 -2.196959,-0.42272 -3.290062,-0.29128 -0.968494,0.11646 -1.884473,0.17984 -2.770733,0.94176 -0.979242,0.84185 -0.263079,1.75043 -0.67142,2.74242 -0.27323,0.40189 -1.256676,-0.49278 -1.888738,-0.78048 -0.349634,-0.15911 -1.08055,-0.276 -1.730468,-0.4401 -0.716096,-0.18081 -1.35531,-0.40463 -1.767861,-0.47867 -1.729541,-0.31041 -3.516082,0.0594 -5.271448,-0.0292 -1.995445,-0.1008 -3.896267,-1.79107 -4.931479,-2.07665 -1.035213,-0.28559 -3.131432,-0.58815 -3.131432,-0.58815 l 0.05542,-0.96296 1.281552,-0.96384 c 0,0 -0.288068,-0.27761 -0.348152,-0.54187 -0.10169,-0.44725 0.787074,-0.51729 0.567731,-0.83413 -0.302434,-0.43687 -1.384741,0.2773 -1.50633,-0.31078 -0.102624,-0.49636 0.730001,-0.62667 1.169867,-0.79792 0.385802,-0.1502 1.237734,0.18048 1.22918,-0.17816 -0.02531,-1.06108 -0.488389,-2.12197 -0.312857,-3.16873 0.132256,-0.78869 1.142624,-0.89041 1.001647,-2.18 -0.08786,-0.80373 -0.100119,-3.48991 -0.326856,-4.30031 -0.245483,-0.87741 -3.109538,-0.63846 -2.777712,-1.14065 0.469325,-0.71028 0.87541,-1.2878 0.320739,-2.26253 -0.247827,-0.43551 -1.429736,-0.7236 -0.970866,-1.02965 0.436087,-0.29086 1.682696,-1.11888 1.900453,-1.76872 0.266895,-0.79648 -0.14036,-2.71374 0.147003,-3.32378 0.283659,-0.60218 0.640698,-0.91265 0.49475,-1.06094 -0.388734,-0.39498 -0.907577,0.97934 -1.441035,0.82918 -0.704065,-0.19818 -0.969983,-1.19894 -1.051787,-1.92577 -0.126307,-1.12224 0.360159,-2.50432 0.922402,-3.25999 0.247464,-0.3326 0.339188,-0.7227 0.117403,-1.23813 -0.349533,-0.81231 -0.628853,-2.42283 -1.095933,-3.17864 -0.343447,-0.55575 -1.289543,-0.71269 -1.938585,-1.06627 -1.243112,-0.67721 -3.792839,-0.21467 -4.067059,-1.22252 -0.165779,-0.6093 0.02524,-5.83908 -0.311251,-6.87595 -0.295504,-0.91059 -0.124207,-1.90506 -0.68939,-2.29341 -0.502754,-0.34394 -0.311036,1.23216 -0.504569,1.83694 -0.124739,0.3898 -0.14607,0.85773 -0.422573,1.15282 -0.309635,0.33044 -0.777941,0.0719 -0.805908,0.051 -0.661398,-0.42334 -1.586472,-1.54013 -2.155312,-2.05603 -1.627113,-1.45514 -3.216344,-4.21259 -4.147079,-6.08781 -0.119203,-0.50275 -0.37088,-2.14478 -0.36475,-2.70937 l 1.180436,-0.58345 5.441227,-0.92001 -0.251039,-1.3513 5.291423,-1.02641 0.27785,1.45576 11.06348,-1.79711 -0.533741,-1.1828 -0.284053,-2.55138 -0.594302,-1.14923 4.020534,-0.85936 0.166234,0.88674 2.505722,-0.5057 -0.117999,-1.09669 0.7076,-0.14292 -0.235391,-2.16864 1.034709,-0.22709 -1.037006,-5.31888 0.738197,-0.20437 -1.002425,-1.39252 -2.411239,-12.46338 -2.267842,0.60158 -0.329445,-1.59803 -4.909875,0.88309 -0.258696,2.55944 -3.607735,-0.27644 -3.621011,0.76165 -0.315394,-0.87883 -1.832378,0.44703 -0.435006,-1.44917 1.157916,-0.41544 -0.967941,-3.19774 1.186238,-0.36108 0.633913,1.99982 3.46102,-0.73538 -1.08083,-5.53286 3.294088,-0.68474 -1.028951,-5.37839 0.737702,-0.14701 -0.274673,-1.5693 -10.050701,2.20035 0.183667,0.67841 -6.666657,1.49539 -1.159309,-4.88536 -1.799439,0.47753 0.883954,-3.53743 -9.742995,1.83012 -1.550998,-6.82726 -1.945719,0.39736 -0.743391,-2.73644 2.206131,-0.54047 -0.123481,-0.54962 2.082581,-0.51081 -0.595775,-2.31841 -1.767387,0.23616 -1.269131,-6.61919 2.116005,-0.54299 -0.636797,-3.44495 -3.685288,0.9149 -0.512818,-3.66676 1.820939,-0.085 -1.075085,-5.91245 0.518728,-0.14185 -0.786647,-3.42639 3.24945,-0.6372 -0.641394,-3.45398 0.466686,-0.13845 -0.565445,-2.41696 -4.294767,1.33642 -0.713783,-2.11008 -2.8479254,0.46557 -0.2026318,-0.85709 -1.4421814,0.51789 -1.565363,0.34868 -0.1164975,-1.28236 -1.0677923,0.11895 -0.5186839,-1.16915 -0.5191986,0.0523 -0.6418211,-3.01575 3.3825064,-0.583 -0.2995299,-1.97464 0.4969459,-0.12939 -0.4724717,-4.25977 0.7938111,-0.21267 -0.3177901,-1.52426 1.3748322,-0.25986 -0.4355815,-2.005211 -8.4676013,1.551631 1.20100786,5.01867 -2.29702566,0.95934 -4.0159929,0.17325 -0.09546,-2.79804 0.5140871,-0.0236 -0.1908638,-2.59216 -4.9685027,1.555 -0.507476,-1.54873 -5.584538,1.46885 -0.363858,-0.92029 -9.277432,2.07232 -0.739888,-3.49949 -4.587679,0.81781 -1.261552,-5.740503 0.643473,-0.136067 -2.790598,-12.946222 0.993876,-0.148498 -0.117756,-0.736378 2.687412,-0.317519 -0.567021,-4.182329 2.388884,-0.296683 -0.23434,-1.834132 -0.940223,0.09444 -0.577379,-3.423826 -9.775334,1.796983 -3.541741,-18.156734 0.795993,-1.182599 -6.478068,-5.86309 0.190998,-2.769865 -2.544506,-4.355203 3.496633,-1.315302 0.01175,-1.457508 -2.590215,-5.032621 -0.863984,0.736424 -1.846432,-1.752872 0.684878,-0.905754 c 0,0 0.507282,0.425139 0.818432,0.493437 0.368448,0.08088 0.840395,0.123161 1.124771,-0.12468 1.758376,-1.532477 1.966919,-3.022283 1.966919,-3.022283 l 3.494758,0.512349 0.121444,-1.056893 0.882734,-0.794556 3.400045,0.512519 0.04891,-0.358541 -0.92688,-0.581714 z" id="path3394" style="fill:none;fill-opacity:1;stroke:#000000;stroke-width:0.634998;stroke-miterlimit:4;stroke-dasharray:none;stroke-opacity:1"/>
    <path d="m 84.238024,268.18185 v 0 c 0.702894,1.58201 1.234604,2.67324 2.288387,3.64791 1.24967,1.15584 2.554736,1.56825 4.524236,2.36858 1.8001,0.5572 2.933082,0.44504 5.18336,0.2601 0.911548,-0.0806 3.652763,-0.19228 4.566903,-0.42898 0.99219,-0.24997 1.94468,-0.80707 3.55862,-1.07802 1.61394,-0.27094 1.82096,0.35825 2.64118,0.22675 0.75273,-0.13148 1.64892,-0.24181 2.44133,-0.24181 3.49384,0 4.89897,3.53598 8.10043,3.98576 4.14072,0.59531 2.87824,0.72577 4.95655,1.29465 -0.61915,0.52799 -1.66655,3.2789 -1.66655,3.2789 0,0 -2.0157,-0.65263 -3.08508,2.2815 -1.89176,-1.09806 -2.23327,-1.12462 -3.4298,-1.45926 -0.93138,-0.26047 -1.9047,-0.39761 -2.87168,-0.41389 -1.17258,-0.0197 -2.4029,-0.0373 -3.49719,0.38444 -1.37916,0.53154 -3.05813,1.22086 -3.5927,2.59885 -0.68944,1.77722 -0.58136,3.2421 1.161,5.59971 l -0.369,0.14549 c -0.62301,-0.42334 -3.02147,-2.7633 -4.49226,-4.187 -1.464283,-1.41741 -2.896236,-3.35551 -4.311746,-4.33445 -3.042711,-2.14311 -3.109799,-2.60332 -5.292623,-5.20947 -1.182733,-1.42604 -3.620631,-1.91558 -4.531603,-3.76327 -0.910971,-1.84769 -1.56025,-3.02598 -2.281764,-4.95649 z" id="path3370" style="fill:#ebc0b3;fill-opacity:1;stroke:#000000;stroke-width:0.635;stroke-miterlimit:4;stroke-dasharray:none;stroke-opacity:1"/>
    <g id="g2428" transform="matrix(3.5012553,0,0,3.5012553,649.33701,-337.70954)" style="display:inline">
      <text id="text3489" style="white-space: pre;"><tspan id="trsvg373">Pervomaisk</tspan></text>
      <text id="text3491" style="white-space: pre;"><tspan id="trsvg374">Novyi Buh</tspan></text>
      <text id="text12147" style="white-space: pre;"><tspan id="trsvg375">Kazanka</tspan></text>
      <text id="text3495" style="white-space: pre;"><tspan id="trsvg376">Bashtanka</tspan></text>
      <text id="text12186" style="white-space: pre;"><tspan id="trsvg377">Yavkyne</tspan></text>
      <text id="text10716" style="white-space: pre;"><tspan id="trsvg378">Bereznehuvate</tspan></text>
      <text id="text12223" style="white-space: pre;"><tspan id="trsvg379">Snihurivka</tspan></text>
      <text id="text10755" style="white-space: pre;"><tspan id="trsvg380">Ochakiv</tspan></text>
      <text id="text12262" style="white-space: pre;"><tspan id="trsvg381">Kobleve</tspan></text>
      <text id="text3507" style="white-space: pre;"><tspan id="trsvg382">Nova Odesa</tspan></text>
      <text id="text12345" style="white-space: pre;"><tspan id="trsvg383">Voznesensk</tspan></text>
      <text id="text3511" style="white-space: pre;"><tspan id="trsvg384">Veselynove</tspan></text>
      <text id="text12384" style="white-space: pre;"><tspan id="trsvg385">Yuzhnoukrainsk</tspan></text>
      <text id="text3515" style="white-space: pre;"><tspan id="trsvg386">Kryve Ozero</tspan></text>
      <text id="text12423" style="white-space: pre;"><tspan id="trsvg387">Brats'ke</tspan></text>
      <text id="text3519" style="white-space: pre;"><tspan id="trsvg388">Yelanets'</tspan></text>
      <text id="text13899" style="white-space: pre;"><tspan id="trsvg486">Mykolaiv</tspan></text>
      <text id="trsvg915" style="white-space: pre;"><tspan id="trsvg717">Yuzhnoukrainsk Nuclear</tspan><tspan x="0" y="6.6700001" id="trsvg718">Power Plant</tspan></text>
      <g id="use1388" transform="matrix(0.24109104,0,0,0.24109104,-172.84235,119.58129)" style="fill:#ffff44;fill-opacity:1">
        <title id="title16809">Nuclear Power Plant</title>
        <g stroke="#000000" stroke-width="0.3" transform="translate(-503.04,-241.65)" id="g16815" style="fill:#ffff44;fill-opacity:1"/>
      </g>
      <text id="text10716-7" style="white-space: pre;"><tspan id="trsvg378-9">Berezanka</tspan></text>
      <circle class="cityru" cx="-152.88658" cy="175.37508" r="0.55372089" id="circle2781-3" style="fill:#ff0000;stroke:#555555;stroke-width:0.187933;stroke-miterlimit:4;stroke-dasharray:none"/>
      <text id="text10716-7-4" style="white-space: pre;"><tspan id="trsvg378-9-9">Vasylivka</tspan></text>
      <text id="text10716-7-4-4" style="fill: rgb(0, 68, 170); fill-opacity: 1; white-space: pre;"><tspan id="trsvg378-9-9-9" style="fill:#0044aa;fill-opacity:1">Voskresenske</tspan></text>
      <text id="text10716-7-4-47" style="white-space: pre;"><tspan id="trsvg378-9-9-7">Domanivka</tspan></text>
      <text id="text10716-7-4-1" style="white-space: pre;"><tspan id="trsvg378-9-9-90">Vradiivka</tspan></text>
      <text id="text10716-7-4-47-3" style="white-space: pre;"><tspan id="trsvg378-9-9-7-5">Arbuzynka</tspan></text>
      <text id="text10716-7-49" style="fill: rgb(0, 68, 170); fill-opacity: 1; white-space: pre;"><tspan id="trsvg378-9-7" style="fill:#0044aa;fill-opacity:1">Shevchenkove</tspan></text>
      <text id="text10716-7-49-1" style="white-space: pre;"><tspan id="trsvg378-9-7-8">Blahodatne</tspan></text>
      <text id="text10716-7-49-0" style="white-space: pre;"><tspan id="trsvg378-9-7-7">Promin</tspan></text>
      <text id="text10716-7-49-1-6" style="white-space: pre;"><tspan id="trsvg378-9-7-8-3">Tsentralne</tspan></text>
      <text id="text10716-7-49-1-9" style="white-space: pre;"><tspan id="trsvg378-9-7-8-1">Novopetrivka</tspan></text>
    </g>
    <path style="fill:#ebc0b3;fill-opacity:1;stroke:#000000;stroke-width:0.635;stroke-linecap:butt;stroke-linejoin:miter;stroke-miterlimit:4;stroke-dasharray:none;stroke-opacity:1" d="m 108.03541,294.23576 c 0,0 0.70784,2.4856 1.44103,3.51991 0.65161,0.91921 2.52772,2.24423 2.52772,2.24423 v 0 c 0,0 -1.53279,-0.955 -1.22843,-1.53554 0.15761,-0.30062 1.01582,0.0709 1.01582,0.0709 0,0 -1.18799,-1.06725 -1.71945,-1.66108 -0.74093,-0.82788 -2.03669,-2.63842 -2.03669,-2.63842 z" id="path3521"/>
    <path style="fill:none;stroke:#000000;stroke-width:0.254;stroke-linecap:butt;stroke-linejoin:miter;stroke-miterlimit:4;stroke-dasharray:none;stroke-opacity:1" d="m 58.216674,176.67455 1.670437,-0.3675 0.902033,2.77293 7.216278,0.60135 2.505651,-0.60135 -2.873147,-13.39689 -0.835218,-0.90203 h -2.906557 l 0.06682,-0.83522 4.677217,-1.16931 -0.133633,-1.13589 4.977895,-0.53454 -1.369756,-6.58151 5.646068,-0.33409 4.042449,0.63476 6.280836,2.57247 3.841998,-2.00452 -0.734991,-1.40316 9.354436,-5.51244 -0.701585,-0.86862 -2.505652,-0.93545 -2.839738,-3.64154 -1.937705,-1.30294 0.133635,-1.70384 2.405425,-0.735 0.56795,-0.56794 -1.904296,-3.60814 -0.80181,-0.73499 0.200454,-1.20272 1.23612,-1.33634 4.376539,-0.63477 0.668173,1.63703 6.94901,-1.26953 c 0,0 0.82206,-0.59034 1.00226,-1.03567 0.0752,-0.18582 0.14174,-0.45962 0,-0.60136 -0.16537,-0.16537 -0.55847,0.18496 -0.70159,0 -0.19009,-0.24566 0.094,-0.62469 0.23386,-0.90203 0.27098,-0.53731 1.1185,-0.80165 1.1359,-1.40317 0.0155,-0.53443 -1.05582,-0.78201 -0.93544,-1.30294 0.037,-0.1602 0.27227,-0.20594 0.43431,-0.23386 0.2887,-0.0498 0.57599,0.14716 0.86863,0.13364 0.18347,-0.008 0.37729,-0.0387 0.53454,-0.13364 0.24309,-0.14669 0.4893,-0.36195 0.56794,-0.63476 0.14706,-0.51016 -0.22257,-1.04116 -0.26727,-1.57021 -0.0197,-0.23303 -0.0504,-0.47322 0,-0.70158 0.0741,-0.3357 0.32617,-0.60912 0.43432,-0.93545 0.0859,-0.25915 0.0724,-0.54574 0.16704,-0.80181 0.0881,-0.23842 0.16527,-0.51417 0.3675,-0.66817 0.19125,-0.14565 0.47351,-0.0911 0.70158,-0.16704 0.61042,-0.20336 1.2321,-0.41639 1.77066,-0.7684 0.17809,-0.1164 0.38268,-0.2393 0.46772,-0.43432 0.089,-0.20416 -0.0656,-0.45534 0,-0.66817 0.0874,-0.28335 0.26948,-0.54989 0.50113,-0.73499 0.35542,-0.284 0.89421,-0.24399 1.26953,-0.50113 0.32507,-0.22271 0.69518,-0.48929 0.80181,-0.86863 0.0307,-0.10933 0.005,-0.24612 -0.0668,-0.33408 -0.14521,-0.17782 -0.48272,-0.0953 -0.63476,-0.26727 -0.35255,-0.39886 -0.0419,-1.17715 -0.43432,-1.5368 -0.17551,-0.16084 -0.56201,0.0592 -0.70158,-0.13364 -0.15143,-0.20926 0.1944,-0.52787 0.10023,-0.7684 -0.0634,-0.16198 -0.24248,-0.26226 -0.40091,-0.33409 -0.19509,-0.0884 -0.46521,0.0307 -0.63476,-0.10022 -0.15394,-0.11886 -0.28745,-0.34758 -0.23386,-0.53454 0.0706,-0.24645 0.44268,-0.2645 0.63476,-0.43431 0.18916,-0.16722 0.42528,-0.32714 0.50113,-0.56795 0.17844,-0.56655 -0.5022,-1.25902 -0.20045,-1.77066 0.17755,-0.30105 0.62413,-0.45856 0.96885,-0.40091 0.6303,0.10541 1.07144,0.74507 1.43658,1.26953 0.21152,0.3038 0.46158,0.67049 0.4009,1.03567 -0.0596,0.35868 -0.70158,0.83522 -0.70158,0.83522 l 8.28536,-0.86862 0.56794,2.10474 6.18061,-0.96885 1.00226,3.04019 4.40995,-0.63476 0.20045,2.27179 0.50113,-0.46772 10.05602,-2.57247 1.26953,-1.23613 -0.16705,-1.00226 1.77066,-0.33408 0.0668,0.70158 3.37428,-0.30068 0.93544,0.53454 0.20045,2.57247 -1.87088,4.6104 -2.97338,0.33409 c 0,0 0.98651,0.34462 1.20272,0.76839 0.17237,0.33786 0.0964,0.79352 -0.0668,1.1359 -0.14923,0.31309 -0.42785,0.63587 -0.7684,0.70158 -0.3737,0.0721 -0.71632,-0.54377 -1.06908,-0.4009 -0.217,0.0879 -0.30776,0.40075 -0.30068,0.63477 0.008,0.25407 0.3675,0.66817 0.3675,0.66817 l -2.07134,0.66817 -4.2429,-0.23386 -0.50113,1.36976 0.86862,5.7797 1.36976,0.4009 0.30068,2.40543 1.50339,-0.0334 1.13589,1.06908 0.90204,-0.10023 0.50113,0.7684 0.93544,-0.10022 1.33635,11.05827 -2.93997,0.60136 2.27179,10.05602 -1.1693,0.70158 -2.77292,0.63476 0.0668,2.80633 1.60361,6.74856 -1.13589,0.4009 1.90429,6.68174 12.46145,-2.47224 1.83747,1.60362 -2.3052,2.00452 c 0,0 0.35855,0.38984 0.43432,0.63476 0.0625,0.20214 0.10801,0.45282 0,0.63477 -0.21369,0.35996 -1.10249,0.60135 -1.10249,0.60135 l 2.13816,0.86863 11.1585,-2.40542 -1.97111,3.64154 6.04697,-1.23612 0.33409,1.43657 18.57523,-3.57473 1.30294,7.01583 0.83521,-0.20045 0.80181,3.842 2.20498,-0.46773 1.87088,9.75534 -1.26953,0.33409 0.53454,2.93996 -7.21628,1.10249 -0.53453,-2.57247 -1.30294,0.23386 1.83747,9.5883 -2.87314,0.36749 0.96885,4.51018 5.0113,-0.86863 c 0,0 -0.56188,0.76021 -0.46772,1.1693 0.0743,0.32267 0.57558,0.37797 0.73499,0.66818 0.40811,0.74296 0.55283,1.6663 0.43432,2.50565 -0.12116,0.85812 -1.1359,2.33861 -1.1359,2.33861 l -3.55818,1.22126" id="path4005"/>
    <path style="fill:none;stroke:#000000;stroke-width:0.264583px;stroke-linecap:butt;stroke-linejoin:miter;stroke-opacity:1" d="m 149.85673,111.92851 -0.99343,-2.40444 4.40145,-0.78156 -0.45248,-3.66103 2.09789,-0.20567 0.78156,4.19578 4.97735,-0.98724 -0.74043,-3.99011 -2.59151,0.32908 -0.57589,-3.24967 0.37021,-2.221294 -1.56313,-9.173125 4.77167,-0.575892 -1.23405,-6.910695" id="path4016"/>
    <path style="fill:none;stroke:#000000;stroke-width:0.264583px;stroke-linecap:butt;stroke-linejoin:miter;stroke-opacity:1" d="M 5.4252277,99.692787 2.7103117,92.699823 1.9287458,92.782093 1.1060451,91.321796 2.81315,90.355123 2.1138536,89.326746 4.458554,87.393395 4.3557158,85.891964 6.7209849,84.637345 5.816012,80.297591 3.4096081,80.955752 2.4017996,76.759974 5.528066,75.896136 l -0.8844042,-4.09294 8.2887212,-1.912784 0.123407,-1.357458 1.590153,-0.609968 -0.296718,-1.013406 2.100208,-0.947569 0.448959,1.093003 v 0 l 4.816334,-2.388758 0.781566,0.534758 h 1.336892 l 2.036186,-0.555326 0.390784,-1.090079 0.897914,-0.226849 1.508488,-0.328483 0.308514,1.007808 5.409264,-1.131215 -0.617027,-1.748243 4.36032,-0.966673 0.946107,0.658161 0.802135,1.789377 1.665973,-0.658161 -1.563135,-1.563135 -0.966673,-2.180159 8.514963,-1.830511 1.707105,0.04113 0.473054,-0.760999 1.357458,0.493622 0.843269,1.131215 2.180162,-0.575892 1.213485,4.401455 0.946107,-0.205676 0.267378,3.311377 0.143973,1.460293 0.658161,1.131216 0.946108,0.26738 2.097889,-0.390785 0.488631,-0.39285 0.308512,0.02056 -0.02056,1.892216 0.699297,0.781565 0.802134,0.246812 -0.14896,0.707814 -1.122698,-0.456265 -1.253158,-2.429642 -1.809943,0.308512 -0.123407,1.768811 -0.678727,0.863835 -0.555324,7.198643 3.825563,6.026291 9.440505,-2.385836 -0.966676,-3.414212 v 0 l 3.94897,-1.17235 0.658161,3.475916 4.010671,-0.966677 -1.275189,-4.36032 1.707108,-1.521997 -1.17235,-4.956778 3.51705,-0.884404 -4.730535,-24.105166 -1.522,-0.185108 -0.267377,-2.036188 h -1.419162 l -0.575889,-3.167401 1.480862,-0.802135 -1.17235,-5.039048 -0.411351,-3.866699 0.49362,-0.349648 0.123407,-1.748242" id="path4018"/>
  </g>
</svg>