<?xml version="1.0" encoding="UTF-8"?>
<svg id="Layer_2" data-name="Layer 2" xmlns="http://www.w3.org/2000/svg" xmlns:xlink="http://www.w3.org/1999/xlink" viewBox="0 0 498.64 703.42">
  <defs>
    <style>
      .cls-1, .cls-2, .cls-3, .cls-4 {
        fill: none;
      }

      .cls-1, .cls-3, .cls-4 {
        stroke: red;
      }

      .cls-5 {
        clip-path: url(#clippath);
      }

      .cls-3 {
        stroke-linejoin: bevel;
        stroke-width: 1.19px;
      }

      .cls-6 {
        fill: #191919;
      }

      .cls-4 {
        stroke-width: 2px;
      }

      .cls-7 {
        fill: red;
      }
    </style>
    <clipPath id="clippath">
      <rect class="cls-2" width="498.64" height="703.42"/>
    </clipPath>
  </defs>
  <g id="Layer_1-2" data-name="Layer 1">
    <g class="cls-5">
      <g>
        <path class="cls-6" d="m270.1,438.87v-4.71l7.37-6.48,7.53,4.24,1.89-1.88,3.77,1.41,6.12-3.3,5.18,4.24,10.83-7.07-.94-3.77-3.77,4.24-1.41-3.3-1.88-1.41-1.42.94-1.41-2.83v3.3l-2.35-1.88-.48,2.35-3.29-.94,1.41-3.3h-6.59l.47-2.35-4.71-1.41,4.71-2.36-3.77-.47-1.41-1.88,1.88-3.77-2.36.47v-3.77l-.94,2.36-1.88-.94-1.42,2.36h-1.41l1.41-4.24-3.29,3.77.47-1.89h-2.36v-2.36,2.83l.95-1.89-2.83-1.41.94-1.41-1.88-3.3h-1.89l11.78-2.83-2.36-2.35v-3.3l3.77-4.24-1.88-10.83,4.24-9.89v-14.61l-6.13-12.25,4.24-2.83h2.36l-1.41-3.77-3.3-1.88-6.6,4.71-3.29-7.07,1.41-.94-1.41-7.07-5.66.94-.94,1.88-14.13,2.83-5.18-16.49-1.41,1.41-9.9.47-1.41-7.54-10.36,2.83-2.36-3.77,6.13-1.41.94-17.43,3.77-1.89-2.36-12.72-10.36.94v4.24l-2.83.47-2.35-8.95-2.83.47-.47-2.83,13.66-3.3-4.71-26.38,7.54-1.89-4.24-26.38-10.84,1.88-2.82,1.89v3.3l1.41.94-2.35,1.41v5.65l-8.48,3.77-.95-3.77-4.23.94-2.36-10.36,2.36-1.88-1.42-6.6-8.48,2.36-3.29-17.9-7.07,3.3-4.24,4.71-.94-10.84-8.48,8.48-1.41-6.12,2.35-2.83-.47-1.41-4.24,3.3-.94-1.41,4.71-3.77v-8.95l-.94-.94-5.18,2.36-6.13-10.84,10.84-4.24.47-2.83,5.18-6.6-.94-3.77,3.77-3.3h-4.24l2.35-4.24v-5.18l1.89-.47-3.77-8.48,1.41-4.24,5.18-3.3,4.24-11.78-4.24-1.88-4.24,3.3-3.29-4.71v-2.36l3.76-6.59,7.54-5.65.94-2.83-9.89.94v-2.35l-.94,2.83h-1.41l-4.24-25.44-7.54-.47.47,2.83h-6.12l-1.42,1.41,1.89.94.47,2.83-3.3-2.36.94,5.18-3.29,1.41-6.13-.47-9.89-8.01-6.59,4.71-7.07-9.42v-3.3l-6.59-5.18,1.88-6.12-.47-2.83-2.35-.47,2.35-1.88,3.3,2.83.47-2.83,8.95-2.83,2.83-14.6,6.12,2.83,1.88-1.41,2.83.47,1.88,7.54,2.36-1.41-.94-2.36,2.82-3.77-.47-5.65,2.36-2.36-.47-1.88,1.88-.47,9.89,9.42,1.89-.47,1.88,1.41-2.36,2.36,6.13-.47,3.3,1.88,1.88-1.88,3.77.47,2.35-1.41,1.42,4.24-2.83.47-.47,1.88-5.18.47,2.35,3.77,6.6-1.88,1.41,4.24,2.36,1.41,5.18.47,6.12-2.36.47,1.88,2.36-1.41.47.94,2.35-1.41-.47-1.88,1.89-2.83,11.77-1.88,1.41,3.77,3.77,1.41,10.84.94.47-1.41h2.35l-.94-2.36,2.36-.94.94-3.77,6.12,1.88-.47,2.83,4.24.94.47-1.41-1.88-.94,2.35-.47.94-9.89-3.29-7.07,4.24,1.41,6.12-3.77h8.01l.94-1.41,2.35,2.36,8.01-3.3,6.6,6.6,6.59-11.31,7.07,3.77,2.35-3.3,3.3,5.18-.47,5.65h4.24l3.77,7.07,8,1.88,2.83-2.83h8.48l10.36,3.3,3.77-1.41,6.12.94,1.89,7.07,6.59.94v2.36l-4.24.94-2.35-1.88-.47,1.41,1.88.94h-5.65l-.95,2.83-5.18-.94-2.82,4.24-3.77.94,4.24,2.83,3.3,7.54-4.71,2.36,3.76,8.01-.47,3.3,5.65,3.3,3.77,5.18-1.41,1.41,4.71,25.91,14.6-1.88.94,4.71h1.42v2.83l-3.3.47,1.41,6.12-5.65,1.89,5.18,27.79,7.07-1.41,1.41,5.65,21.67-4.24.94,2.35,7.07-1.88-.47,7.54h2.35l7.07-1.88-1.89-7.07,12.72-2.35.47,3.3-2.83,3.3.95,8.95-5.18,1.41.47,2.36.47,2.36,3.29,2.83h8.48l.95,2.36,6.59-.94,1.88,8.01-4.71.94,1.89,13.66-2.83.47v5.18l5.65-.94,1.42,5.18-3.3.94,1.41,7.54.47,1.89h2.36l1.41,3.3-5.65,2.83.94,3.77,2.36-.47,2.35,9.89,14.13-2.83-1.41,5.18,3.3-.47,1.88,7.07,24.5-6.12.47,9.89-4.71.94,1.88,8.48-5.18.94-.94-2.83-1.42.47v8.01h13.66l.95-3.77,6.59-1.41.94,1.88,2.83-.47,5.18,20.73-1.41.47,1.41,7.54-1.88.47v5.18l-4.24-.94-5.66,1.41,2.36,7.07-16.49,2.83-1.41-2.35-7.07,1.41v2.36l-11.3,2.83,3.77,14.13h2.82l4.71,3.77,3.3,8.95,2.83-.47,4.24,2.83-.47,7.54,3.76,7.07-4.71,6.6,5.66,7.54-1.42,8.48,3.3,2.36-3.3,1.88,1.89.94-1.89,4.71-25.9,6.6-28.27,10.83-7.06-1.41-7.07,3.3-3.76,8.01,1.41,3.77,2.35,1.41.95-.94,2.35,11.31-3.77,15.55-5.18,3.77-6.12,8.48-10.84,22.14-9.42,16.49-7.06,8.01-4.71,9.42-16.49,17.43-25.44,32.04-81.01,65.01-12.25,14.13-1.88,7.07-2.36-.47-.47,1.41,6.59,6.59,2.36-1.88-1.41-1.89,1.41-2.35,2.35,2.35v2.83l1.42-2.36,6.59-.94,4.24,2.36,1.41-1.41.95.94-2.36,3.77,1.89,4.71-2.36,5.65,2.36,16.49-4.24,13.66.94,8.48-3.77.47-.47,3.3-4.71.94-1.41-1.41-2.83-8.48,2.83-4.24-1.42-8.95-2.35-6.12-8.95-11.31-8.01-5.18-11.3-3.3-8.01-4.71-11.78,1.41-4.24-2.83-6.12,4.71-8.01-1.41-3.3,2.83-5.18,1.41-1.41,2.83-4.24,2.36-10.83,3.3-15.08,8.95-3.76.47-2.83,4.24.47,4.71-1.88,2.36-4.24-1.41-6.6-6.6h-4.71l-3.77-4.24h-3.77l-2.82,2.83,3.77,2.83-.47,2.36-7.54,3.77,1.88,4.24,4.24,2.83v2.36l-11.77,3.77-12.72-4.24-12.25-1.41-34.38-16.49-9.9-16.96-.47-10.84-10.83-4.24,5.18-8.95,9.89-8.95,12.72,4.71,6.12-1.41-.94,2.83,1.89,6.6,13.19-3.3-3.77-16.02,8.95-2.36-4.71-19.32h-5.66l5.19-11.31,4.23-4.24,8.01.94.94-2.83-1.88-6.59,6.12,1.41,13.66-3.77-1.41-8.01,13.66-3.77-4.24-21.2.94-2.83-.94-4.71,3.77-.94-.94-2.36,32.5-7.54,4.24-10.36-8.95-11.31,18.37-22.61-17.9-14.61,7.07-16.49-10.37-29.21,15.08-.94-.48-3.77h-5.18l-.47-2.35,6.6-.94,1.41-3.3,4.24-1.41,15.54-.47.47-6.6,11.31-3.3.47,13.66h1.41l.95,3.3-5.66,5.18,3.77,10.84-6.12,7.54,5.18,1.89,4.24-4.24v-2.36l5.18-2.83,1.41,1.88,2.83-1.41-2.83-6.6,2.36-1.88-1.41-3.3,4.23-1.88-.47-5.18,2.36-1.88,8.01,17.9-1.42-5.18,10.37-11.31,8,8.48-3.76,4.71,3.76,3.77,8.95,1.89,2.36,12.72,3.3-.47.94,2.36,11.3-1.41-1.88-16.96,2.35-1.41,1.89,3.3,7.53-1.88,1.42-2.36-2.36-5.18,2.36-1.41,5.65,3.77,2.35,9.42,5.19,4.24-3.14,3.99"/>
        <path class="cls-4" d="m270.1,438.87v-4.71l7.37-6.48,7.53,4.24,1.89-1.88,3.77,1.41,6.12-3.3,5.18,4.24,10.83-7.07-.94-3.77-3.77,4.24-1.41-3.3-1.88-1.41-1.42.94-1.41-2.83v3.3l-2.35-1.88-.48,2.35-3.29-.94,1.41-3.3h-6.59l.47-2.35-4.71-1.41,4.71-2.36-3.77-.47-1.41-1.88,1.88-3.77-2.36.47v-3.77l-.94,2.36-1.88-.94-1.42,2.36h-1.41l1.41-4.24-3.29,3.77.47-1.89h-2.36v-2.36,2.83l.95-1.89-2.83-1.41.94-1.41-1.88-3.3h-1.89l11.78-2.83-2.36-2.35v-3.3l3.77-4.24-1.88-10.83,4.24-9.89v-14.61l-6.13-12.25,4.24-2.83h2.36l-1.41-3.77-3.3-1.88-6.6,4.71-3.29-7.07,1.41-.94-1.41-7.07-5.66.94-.94,1.88-14.13,2.83-5.18-16.49-1.41,1.41-9.9.47-1.41-7.54-10.36,2.83-2.36-3.77,6.13-1.41.94-17.43,3.77-1.89-2.36-12.72-10.36.94v4.24l-2.83.47-2.35-8.95-2.83.47-.47-2.83,13.66-3.3-4.71-26.38,7.54-1.89-4.24-26.38-10.84,1.88-2.82,1.89v3.3l1.41.94-2.35,1.41v5.65l-8.48,3.77-.95-3.77-4.23.94-2.36-10.36,2.36-1.88-1.42-6.6-8.48,2.36-3.29-17.9-7.07,3.3-4.24,4.71-.94-10.84-8.48,8.48-1.41-6.12,2.35-2.83-.47-1.41-4.24,3.3-.94-1.41,4.71-3.77v-8.95l-.94-.94-5.18,2.36-6.13-10.84,10.84-4.24.47-2.83,5.18-6.6-.94-3.77,3.77-3.3h-4.24l2.35-4.24v-5.18l1.89-.47-3.77-8.48,1.41-4.24,5.18-3.3,4.24-11.78-4.24-1.88-4.24,3.3-3.29-4.71v-2.36l3.76-6.59,7.54-5.65.94-2.83-9.89.94v-2.35l-.94,2.83h-1.41l-4.24-25.44-7.54-.47.47,2.83h-6.12l-1.42,1.41,1.89.94.47,2.83-3.3-2.36.94,5.18-3.29,1.41-6.13-.47-9.89-8.01-6.59,4.71-7.07-9.42v-3.3l-6.59-5.18,1.88-6.12-.47-2.83-2.35-.47,2.35-1.88,3.3,2.83.47-2.83,8.95-2.83,2.83-14.6,6.12,2.83,1.88-1.41,2.83.47,1.88,7.54,2.36-1.41-.94-2.36,2.82-3.77-.47-5.65,2.36-2.36-.47-1.88,1.88-.47,9.89,9.42,1.89-.47,1.88,1.41-2.36,2.36,6.13-.47,3.3,1.88,1.88-1.88,3.77.47,2.35-1.41,1.42,4.24-2.83.47-.47,1.88-5.18.47,2.35,3.77,6.6-1.88,1.41,4.24,2.36,1.41,5.18.47,6.12-2.36.47,1.88,2.36-1.41.47.94,2.35-1.41-.47-1.88,1.89-2.83,11.77-1.88,1.41,3.77,3.77,1.41,10.84.94.47-1.41h2.35l-.94-2.36,2.36-.94.94-3.77,6.12,1.88-.47,2.83,4.24.94.47-1.41-1.88-.94,2.35-.47.94-9.89-3.29-7.07,4.24,1.41,6.12-3.77h8.01l.94-1.41,2.35,2.36,8.01-3.3,6.6,6.6,6.59-11.31,7.07,3.77,2.35-3.3,3.3,5.18-.47,5.65h4.24l3.77,7.07,8,1.88,2.83-2.83h8.48l10.36,3.3,3.77-1.41,6.12.94,1.89,7.07,6.59.94v2.36l-4.24.94-2.35-1.88-.47,1.41,1.88.94h-5.65l-.95,2.83-5.18-.94-2.82,4.24-3.77.94,4.24,2.83,3.3,7.54-4.71,2.36,3.76,8.01-.47,3.3,5.65,3.3,3.77,5.18-1.41,1.41,4.71,25.91,14.6-1.88.94,4.71h1.42v2.83l-3.3.47,1.41,6.12-5.65,1.89,5.18,27.79,7.07-1.41,1.41,5.65,21.67-4.24.94,2.35,7.07-1.88-.47,7.54h2.35l7.07-1.88-1.89-7.07,12.72-2.35.47,3.3-2.83,3.3.95,8.95-5.18,1.41.47,2.36.47,2.36,3.29,2.83h8.48l.95,2.36,6.59-.94,1.88,8.01-4.71.94,1.89,13.66-2.83.47v5.18l5.65-.94,1.42,5.18-3.3.94,1.41,7.54.47,1.89h2.36l1.41,3.3-5.65,2.83.94,3.77,2.36-.47,2.35,9.89,14.13-2.83-1.41,5.18,3.3-.47,1.88,7.07,24.5-6.12.47,9.89-4.71.94,1.88,8.48-5.18.94-.94-2.83-1.42.47v8.01h13.66l.95-3.77,6.59-1.41.94,1.88,2.83-.47,5.18,20.73-1.41.47,1.41,7.54-1.88.47v5.18l-4.24-.94-5.66,1.41,2.36,7.07-16.49,2.83-1.41-2.35-7.07,1.41v2.36l-11.3,2.83,3.77,14.13h2.82l4.71,3.77,3.3,8.95,2.83-.47,4.24,2.83-.47,7.54,3.76,7.07-4.71,6.6,5.66,7.54-1.42,8.48,3.3,2.36-3.3,1.88,1.89.94-1.89,4.71-25.9,6.6-28.27,10.83-7.06-1.41-7.07,3.3-3.76,8.01,1.41,3.77,2.35,1.41.95-.94,2.35,11.31-3.77,15.55-5.18,3.77-6.12,8.48-10.84,22.14-9.42,16.49-7.06,8.01-4.71,9.42-16.49,17.43-25.44,32.04-81.01,65.01-12.25,14.13-1.88,7.07-2.36-.47-.47,1.41,6.59,6.59,2.36-1.88-1.41-1.89,1.41-2.35,2.35,2.35v2.83l1.42-2.36,6.59-.94,4.24,2.36,1.41-1.41.95.94-2.36,3.77,1.89,4.71-2.36,5.65,2.36,16.49-4.24,13.66.94,8.48-3.77.47-.47,3.3-4.71.94-1.41-1.41-2.83-8.48,2.83-4.24-1.42-8.95-2.35-6.12-8.95-11.31-8.01-5.18-11.3-3.3-8.01-4.71-11.78,1.41-4.24-2.83-6.12,4.71-8.01-1.41-3.3,2.83-5.18,1.41-1.41,2.83-4.24,2.36-10.83,3.3-15.08,8.95-3.76.47-2.83,4.24.47,4.71-1.88,2.36-4.24-1.41-6.6-6.6h-4.71l-3.77-4.24h-3.77l-2.82,2.83,3.77,2.83-.47,2.36-7.54,3.77,1.88,4.24,4.24,2.83v2.36l-11.77,3.77-12.72-4.24-12.25-1.41-34.38-16.49-9.9-16.96-.47-10.84-10.83-4.24,5.18-8.95,9.89-8.95,12.72,4.71,6.12-1.41-.94,2.83,1.89,6.6,13.19-3.3-3.77-16.02,8.95-2.36-4.71-19.32h-5.66l5.19-11.31,4.23-4.24,8.01.94.94-2.83-1.88-6.59,6.12,1.41,13.66-3.77-1.41-8.01,13.66-3.77-4.24-21.2.94-2.83-.94-4.71,3.77-.94-.94-2.36,32.5-7.54,4.24-10.36-8.95-11.31,18.37-22.61-17.9-14.61,7.07-16.49-10.37-29.21,15.08-.94-.48-3.77h-5.18l-.47-2.35,6.6-.94,1.41-3.3,4.24-1.41,15.54-.47.47-6.6,11.31-3.3.47,13.66h1.41l.95,3.3-5.66,5.18,3.77,10.84-6.12,7.54,5.18,1.89,4.24-4.24v-2.36l5.18-2.83,1.41,1.88,2.83-1.41-2.83-6.6,2.36-1.88-1.41-3.3,4.23-1.88-.47-5.18,2.36-1.88,8.01,17.9-1.42-5.18,10.37-11.31,8,8.48-3.76,4.71,3.76,3.77,8.95,1.89,2.36,12.72,3.3-.47.94,2.36,11.3-1.41-1.88-16.96,2.35-1.41,1.89,3.3,7.53-1.88,1.42-2.36-2.36-5.18,2.36-1.41,5.65,3.77,2.35,9.42,5.19,4.24-3.14,3.99"/>
        <path class="cls-3" d="m235.23,157.55h10.53v5.07h5.65l.94-.3.94-.61.94-.3h5.34l.94-.3.95-.61.94-.3,1.25,1.21,1.26-1.21h1.57l.63-.91,3.14-3.03v-4.85l-.32-.61-1.25-1.82v-2.63h4.08l.94-.61.63-.61v-1.52h-5.65v-1.21l-.63-.91-.31-.91-.63-.91v-2.43l-.63-.91-.63-.61-.31-.91v-4.14l.63-.61.62-.91v-3.84l-.62-.61-.32-.91-.63-.91-.62-.61-.63-.91h-2.83l-1.25-1.21h-2.83l-1.88-.61-.63-.3h-.94l-.95-.3-.62-.91-.63-.61h-5.65l-1.26-1.21-.94-.61-1.88-.61v-2.73l-.95-.61-.62-.61-.63-.91-.63-.2h-2.83l-.62-.61-.95-.61v-1.51h5.66l.94.61.94.3.94.61h2.51l.95-.61.94-.3.94-.61h1.57l.63-.3.94-.61.94-.3.63-.91.63-1.82v-3.84h2.82v-3.84l-.31-1.21h2.82l.95.3.94.61.94.3h2.83v-2.73l1.25-1.21,1.26,1.21h1.57l.94.61.94.3.94.61v1.21l1.26-1.21.94.3.94.61.95.3v1.21h2.82l.63.91.63.61v1.21l.31,1.21v1.51l.63-.61.63-.91h4.08l1.25-1.21.95.61.62.61h2.83v1.51l1.88,1.82.95.61.62.91.63.61v2.73l.32.61.94,2.73.31.61.63,1.82v.91l.31.61.63,1.82h1.26v.91l.31.91v3.23l.63.91.63.61h1.57l.94-.61.63-.3.94-.61h2.83l.62.91.95.61h1.25l.63,1.82v.61l.94,2.73h2.83v2.73l-1.26,1.21.32.91.62.91.32.91v1.21l-.63.61-.63.91,1.26,1.21h1.57l1.25,1.21h-1.25v1.51h-1.26l-.63.61-.94.61.32,1.21h-1.57v1.51h-1.26l1.26,1.21h4.08l.31,1.21h-1.57l-.94.61-.94.3-.63.61v1.21h4.08v1.21l.63.91.63.61h8.47l1.64,2.33"/>
        <path class="cls-3" d="m290.03,173.43v2.73l.31,1.21h1.26v5.66l.31.91,1.26,1.21h1.25l.95.61.62.61v1.52l-1.25,1.21-.63-.61-.94-.61-.94.3-.63.61-.94.3-.95-.61-.62-.61h-1.26v-2.73l-.31-1.21h-1.26l-1.26,1.21h-4.08v-2.73h-6.9l-.61-1.88"/>
        <path class="cls-3" d="m200.23,453.39h5.65l.94.3.63.61,1.89.61.62.3.95.61.94.3.63.3.94.3.94.61,1.25,1.21h1.26v1.21h-5.34v5.05h-1.25v1.52l1.25,1.21.95.3.94.61.94.3,1.25,1.21.63,1.82.32.61.31.91.31.61v10.41h-1.25v3.84l-1.26,1.21v3.84h6.6v.61l.31.91v11.32l.63.61.94.61-.94.61-.63.61.63,1.82.31.61.32.91.31.61v2.73h2.83l1.25,1.21v5.36h-4.08l-.63-.3h-11.3l-.94-.61-.63-.61h-1.26l-1.25,1.21v1.21l-.32.91-.62.91-.32.61-.63,1.82-.31.61v.91l-.31.61-.32.91-.63.91-.31.91.31.91.63.61.32.91v3.33l.31.61,1.26,1.21v6.57l.94.61.63.61h2.51v3.84h-3.77l-.94-.3h-.94l-.95-.3h-.94l-.94-.3h-.63l-.94-.3h-.94l-.94-.3v5.35l.31.91v1.52l1.26,1.21h-2.83l-.63.3-.94.61-.94.3h-.94l-.95.3h-.62l-.95.3h-.94l-.94.3h-1.57l-.94.3h-4.71l-.94.3-.63.3-.94.3-.63.3h-1.26l-.94.3-.94.61-.94.3h-7.85l-.63-.61-.63-.91v-5.05l-.94.3-.63.3-.94.3-.63.3-.94.3h-1.26l-.94.3-.63.3-.94.61-.94.3h-.63l-.94.3-.63.3-.94.3h-5.02l-1.26-1.21v-1.82l-.31-.61v-1.51l-.63-.61-.94-.3-.94-.61v-5.35l-.32-.91v-1.21l-.31-.91v-.91l-.32-.61-.31-.91-.31-.61v-4.45l-.32-.61v-.91l-.31-.91v-1.31l-.32-.61-.31-.91v-.91l-.31-.61v-2.12l-.32-.91-.31-.61-.63-1.82-.31-.61h-2.52v-1.51l-.31-.61-.63-1.82v-.91l-.63-1.82v-1.21l-.31-.91-.31-.61-.63-1.82-.32-.61v-1.52h2.2l.63-.3.94-.3,1.26-.61h1.57l.63-.3.94-.3.94-.61h2.51l.94-.3.63-.61.94-.3,1.26-1.21v-1.21l.63-1.82.62-.91,2.52-2.42,1.88,1.82.94.61.63.61.63.91h1.25l1.26,1.21.94.61.63.61.63.91,1.88,1.82.63-.61.94-.61-.31-.61v-.61l.63-.91.62-1.82.63-.91.32-.91.31-.61.63-.91.63-.61v-2.42l1.25-1.21-.63-.91-.62-.61v-1.62l.31-.61.31-.91.32-.61.31-.91,1.26-1.21.31-.61.32-.91.31-.61.31-.91.32-.61.63-.91.31-.61v-1.21l.63-1.82.63-.91,2.51-2.42v-1.21l.31-.91v-.3l.32-.91.31-.61.31-.91v-.91l-.31-.91v-.61l2.82-2.73v-2.43h2.52l1.88.61.63.3.94.3.94.61.63.3,1.88.61h5.34l.94.61,1.89.61.63.91.62.61v-2.73h-1.25v-1.21l-.94-.61-.63-.61h-1.26l-.94-.3-.63-.1-1.88-.61-.63-.3h-2.83l-.31-.91-.63-.91-.31-.91h.63l.62.3h4.09v-1.52l1.25-1.21v-3.84l.32-.61.62-.91.32-.91h-1.26l1.26-1.21.94.3h.94l.63.3.94.3.63.4v.07Z"/>
        <path class="cls-3" d="m272.92,13.27l.26,6.49-.63.91h-2.83v1.21l.95.61.62.61h2.83v6.57h-5.34l-.94.61-.63.61.63.91.31.91.63.91v1.21h4.08v2.73l-1.25,1.21-.94.61-.63.61-.94.61-.63.3-.94.61v3.84l.31,1.21-1.57,1.52.94.61,1.89,1.82h-1.26v1.52h2.83l1.88,1.82.94.61h1.26v2.73l.63.91.31.91.63.61v1.52h1.25l.95-.61.94-.3.94-.61.63.91.63.61v1.21l1.25,3.54v.61l.32.91h-1.26l-.63.91-.63.61.32.91.63.61.31.91v1.52l-1.26,1.21-.94.61-1.88.61h-2.83l.32,1.52v1.21l.31.91.63.91.31.91v1.21l.63.91.31.91.63.91v1.21l-.63.61-.62.91h-1.57l.62.61.32.91.31.61.63.91.63,1.21.31.91.94.61.63.61-.63.61-.62.91-1.99-1.41-.63-.3-1.88-.61h-6.91l-1.26-1.21-1.25,1.21v2.73h-2.83l-.94-.3-.94-.61-.95-.3h-2.82l.31,1.21v3.84h-2.82v3.84l-.63,1.82-.63.91-.94.3-.94.61-.63.3h-1.57l-.94.61-.94.3-.95.61h-2.51l-.94-.61-.94-.3-.94-.61h-5.66l-.94-.3-.94-.61-.94-.3-1.26-1.21v-2.43l-.31-.91v-.61l-.32-.91-.62-.91-.32-.91h-5.65l1.26-1.21h2.82l-.63-.91-.62-.61h-4.09l-.94.61-.63.91-1.25,1.21v-1.52h-1.57l.94-.61.63-.61v-1.21h-4.4l-.63-.61-.62-.91v-1.21l.94-.3.94-.61.94-.3-.94-.61-.63-.61v-1.52l-.94-.3-.94-.61-.94-.3-1.26-1.21-.63-.91-.94-.61-.94-.3-.94-.61-.94-.3h-2.52l-.94.61-.63.61-.62.3-1.89.61-.63.3-.94.3-.63-.91-.62-.61-.63-.91-.32-.61-.62-.91-.32-.5-.31-.61-.63-1.82v-.61l-.94-.61-.63-.61-.63-.81-.63-.61h-2.82l-.63-.61-.94-.61v-2.42l-.63-.91-1.26-1.21-.62-1.82-.95-.61-1.88-1.82v-3.03l-.31-.91.94-.61.63-.61v-2.43l.62-.61.63-.91h1.26l.63-.61.31-.91.63-.91,1.25-1.21v1.21l1.26,1.21v1.21h1.57l.94-.3.94-.61.95-.3-.32-1.21v-1.52l-1.88-1.82-.94-.61-1.26-1.21h4.08l.63-.61.63-.91.63-.61.31-.91.63-.91,1.25-1.21h1.26l1.57-.3v-1.21h-4.71l-.94.3v-1.52h-1.26v-1.52l-.31-.91"/>
        <path class="cls-3" d="m454.45,291.54l-.1-3.94-.95-.61-.62-.61v-5.05l-.63-.91-.94-.61-.32-.61-.31-.91v-.61l-.32-.91-.31-.61h-2.2l-.63-.3-.94.61-.94.3-.94.61h-5.65l-1.26,1.21h-1.26l-.94.61-.94.3-.94.61h-2.93v2.42l-1.89.61h-.94l-.94.3-.63.3-.94.3h-4.4v-3.84l.32-.91.31-.61.32-.91v-.91l.31-.61-1.26-1.21.32-.91.63-.91.31-.91h-9.73l-1.89.61h-.94l-.63.3-1.88.61v1.21h-2.83v-1.21l-.62-1.82v-.91l-.63-1.82-.32-.61h-4.08v-1.52l-.31-.61-.63-.61-.31-.91-.32-.61-.63-.91-.31-.61-.31-.91-.63-.61-.94-.61h-4.09l-.31-.61-.31-.91-.63-.61-.32-.91-.31-.61-.63-.91-.31-.61h-2.83l-.94.3-.94.61-.63.3-.94-.61-.63-.61v-1.21l-.63-.91-.62-.61-.32-.91-.63-.91-.62-.61v-1.21h1.88l.94-.3-.31-1.21h1.57v1.21l.63.91.62.61.94-.61.95-.3.94-.61v-1.21l-.63-.61-.94-.61-.63-.2-.63-.91-.31-.61-.31-.91-.32-.61-.63-1.82-.62.3h-.63l-1.26,1.21-.94.3-.94.61-.94.3v-2.42l-.63-.91-.94-.61-.95.61-.62.3-.95.61h-6.9v-3.54l-.32-.61v-.91h1.57l.32-.91.62-.91.32-.91v-2.73l-.94-.61-.63-.61v-1.21h-4.08v-5.35h2.51v-3.84h1.25l.95.61.62.91v-2.73h4.09l.31.91.63.91.31.61h1.57v-1.21h1.26l-.32-.91-.62-.91-.32-.91-.31-.61v-1.82h4.39l.63-.61.63-.91h5.34l.94.61.94.3,1.88,1.21,1.89,1.82v.91l.31.91v.91l1.26,1.21h8.48v-1.21l-.32-.91v-1.82l-1.25-1.21-1.26,1.21-.31-1.21v-3.74h1.57l1.25-1.21.63-.91.63-.61h-1.26l1.26-1.21h2.82v-1.11h4.09l.94-.61.94-.3.94-.61h2.83l1.25-1.21-.31-.91-.63-.91-.31-.61h1.25v-1.52l-.31-.61-.63-1.82-.31-.61-.63-.91-.63-1.82-.31-.61h4.08l.63-.61.94-.61"/>
        <path class="cls-3" d="m338.7,457.84l.62.61.63.3.94.61.63.3.63.61.94.3,1.26-1.21h1.25l.32.61v.61h2.82l.32.91.62.91.32.91.63.91.31.91.63.91v2.43l-.63.61-.94.61-.32-.61-.62-.91-.32-.91-.63-.61-.94-.61-.94.3-.63.3-.94.61h-2.82l-.95.61-.62.61-1.26-1.21-.94-.3h-.63l-1.26-.61-.94-.3-.63-.3v-1.21l-.62-.91-.95-.61-1.25-1.21.63-.61.62-.91,1.26-1.21.94.61.63.91v-2.73l1.26-1.21.94.61.63.61v-.04Z"/>
        <path class="cls-3" d="m243.79,420.88v-.35"/>
        <path class="cls-3" d="m270.18,451.46l.85-3.64v-1.75l-1.58.35h-2.76v-5.48l.39-1.05,1.11-.93-2.69.11v-1.4l-.39-1.05"/>
        <path class="cls-3" d="m274.98,455.16v-2.8"/>
        <path class="cls-3" d="m292.48,481.98l.79-1.05.79-.7h1.57v-4.43l-.79-2.1v-1.05l-.39-1.05-.39-.7v-1.05l-.53-.47v-2.1h3.16v-8.98l-.79-1.05-.79-.7h-1.58l-1.19.35h-.78l-2.37.7h-.79l-2.37.7-.4.7-.79.7"/>
        <path class="cls-3" d="m329.45,541.34l-10.13-7.81-.79.35-1.19.35-.78.35h-1.19l-.79.35h-1.97l-.4-.7-.39-1.05-.4-.7-.79-2.1v-1.4h3.56v-5.83l-.4-.7v-1.05l-.79,1.05-.79.7h-3.15v-2.1l-.4-1.05v-3.15l-.39-1.05-.79-1.05-.4-1.05v-1.75l.4-1.05v-2.8l.39-1.05v-2.1l.4-.7v-1.05l-1.19-3.15v-1.05l-.79-2.1v-3.85l-.39-1.05v-2.45h-5.13l-.79.35-1.19.35-1.18.7-.79.35-1.19.35h-.79l-.78.35-1.19.35v-1.4l-.79-.7-.79-1.05v-4.43"/>
        <path class="cls-3" d="m287.68,407.37l29.35.25.94-.3,1.26-.61.94-.3.63-.61.94-.61h2.83l.62.61.63.91.63.61.31.91.63.61.32.61.62.91.32.61.63.91.31.61.63.91.94,1.82.63.91v2.43l.63.91.62,1.21.63.61.32.61"/>
        <path class="cls-3" d="m335.87,457.84v2.73l-.63-.91-.94-.61-1.26,1.21-.62.91-.63.61,1.25,1.21.95.61.62.91v1.21l.63.3.94.3,1.26.61h.63l.94.3,1.26,1.21.62-.61.95-.61h2.82l.94-.61.63-.3.94-.3.94.61.63.61.32.91.62.91.32.61.94-.61.63-.61v-2.43l-.63-.91-.31-.91-.63-.91-.32-.91-.62-.91-.32-.91h-2.82v-.61l-.32-.61h-1.25l-1.26,1.21-.94-.3-.63-.61-.63-.3-.94-.61-.63-.3-1.25-1.21-.94-.61-1.26,1.21v.03Z"/>
        <path class="cls-3" d="m287.31,363.47h.63l1.88.61h.94l.63.3h22.29v-1.21l-.31-.91v-.91l-.32-.91v-.91l-.62-1.82v-.91l1.25-1.21h1.57l.94-.3h1.57l.95-.3h.94l.94-.3h.63l.94-.3h1.88l.94-.3h1.89l.94-.3h1.88l.95-.3h1.88l.94-.3h1.57v2.73h1.26l.63-.61.94-.61h2.51l.94-.61,1.89-.61h1.57v2.42l.31.91.63.91.31.91v2.73l-1.88.61-.94.61h-4.09v1.52l-.31.91h10.05v5.05l.63.3h.62l.95-.61.94-.3.94-.61v-2.42l-.31-.91-.63-.61-.63-.91-.63-.61-.31-.91v-1.21h10.88l.94-.61.95-.3.94-.61,1.25,1.21v1.52l1.89-.61.63-.3,1.88-.61v-1.21l-.31-.91-.32-.61-.63-1.82-.31-.61-.63-.61-.63-.91v-1.21h1.26l1.26,1.21.62.91.32.91.63.91,1.25,1.21v1.52l.94.61.63.61v1.52h.63l.63-.3.63-.61.94-.61v-3.33l-.32-.61-.31-.91-.31-.61-.32-.91-.63-.61-.31-.91-.31-.61-.63-.91v-1.21l.31-.91.32-.61.62-1.82.32-.61v-1.52l-.32-.61-.31-.91v-.91l-.31-.91v-.2l-.32-.91v-.91l-.31-.61-.94-2.73-.63-.61-.63-1.82-.31-.61-.32-.91v-1.51l-.31-.61-.63-1.82v-.91l-.63-1.82h2.83l1.25,1.21.95.61.62.91,1.26,1.21v2.73l1.88-1.21.63-.61.94-.3.63-.61.63-.91.31-.91.63-.91.31.91v.91l.63,1.82.32.61v.91l.94-.61.63-.61h1.25v3.84l.94.61.63.61.32.91.31.61v.91l.31.91.32.61v2.73l.63.91.31.61.63,1.82.31.61.94,2.73.95.61,1.88,1.82.94.61.63.61.63.3,1.88.61.63.3.94.3,1.26,1.21.94.61,1.88,1.82.63.91.63,1.82.31.61.95,2.73.31.61v.91l.31.91v.91l.32.91v.61l.63,1.82.31.61.31.91v.91l.32.91.31.61v.91l.32.91v.91l.31.91v6.57l.31.61v.61h-.94l-.94.3h-5.02l1.25,1.21.32.91v2.12l1.25,1.21.32.91v2.12l-.63-.91-.94-.61h-1.26l-.63.61h-.94v1.52l-.63.61-.94.61h-1.26l-.94-.61-.63-.91-.94-.3-.94-.61-.94-.3h-1.26l-.94.61-.63.61v1.82l-.31.91-1.26,1.21h-1.57v8.08l.32.91v2.12l-.32.91v3.54l-.31.91-.63.91-.31.91v-2.73h-1.57l-1.26-1.21-.63.61-.94.61-.94.3-.94.61-.95.3-2.82,2.73v-2.73h1.57v-2.73h-3.14v-4.75l-.31-.91v-.91h-7.54l-.94-.3h-3.14l-.63-.91-.31-.91-.63-.91.31-.61,1.26-3.54v-.91h-4.08l-.95.61-.62.61h-1.57l-.63.91-.32.91-.62.91-1.26,1.21-.31.61-1.89,1.82-.63.91-.31.61-3.77,3.54-.63.91-8.79,8.39-.62.3-.63.61-.32.91-.62.91-.32.91-.31-.61-.63-.61-.31-.91-.32-.61-.63-.61-.62-1.21-.63-.91v-2.43l-.63-.91-.94-1.82-.63-.91-.31-.61-.63-.91-.32-.61-.62-.91-.32-.61-.63-.61-.31-.91-.63-.61-.63-.91-.62-.61h-2.83l-.94.61-.63.61-.94.3-1.26.61-.94.3h-1.26l-.31.91v.3"/>
        <path class="cls-3" d="m125.17,490.27l8.91,7.87h1.26l1.88,1.82.63.91,1.26,1.21.94.3.94.61.94.3.32.91.63.91.31.91.63.61.63.91.62.61.32.91.63.91h-2.52l-.94.61-.94.3-.63.3h-1.57l-1.25.61-.95.3-.62.3h-2.2v1.52l.31.61.63,1.82.31.61.32.91v1.21l.63,1.82v.91l.62,1.82.32.61v1.51h2.51l.31.61.63,1.82.32.61.31.91v2.12l.31.61v.91l.32.91.31.61v.91l.32.91v.91l.31.61v4.45l.31.61.32.91.31.61v.91l.32.91v1.21l.31.91v5.35h-2.51v1.52h-1.26v1.21l-1.25,1.21h-1.36v7.78h-7.85l-1.26,1.21,2.83,2.73.31.91.63.61.31.91-.94.61-.63.3-.94.61-.94.3-.94-.2-.63.3h-1.57l-1.26,1.21h-1.25v1.51l.62.61.95.61v1.21l-1.89.61h-.94l-1.88.61h-.95l-1.88.61-.63.61-.94.3h-1.26v1.52h1.26l-1.26,1.21-.94.3h-.94l-.94.3h-.94l-1.89.61h-.94l-.63.91-.62.61h-1.26l-.63-.61-.63-.91h-4.08l-.63.91-.62.61h-.63l-2.83.91h-.63l-.94.3h-1.25v1.21l.62.61.63.91.32.61.31.91.31.61v.91l.32.91v3.84l.31.91v2.42l.32.91v.61l.31.91v.91l.31.61.32.91v.91l1.25,1.21-.62.3-.95.3-.62.3-.95.3h-3.14l-.94.3-.63.3-.94.3-.63.3-.94.3v2.73h-6.91l-.94.3h-1.25l-.63-.61-.63-.91v-2.42l.32-.91.62-.91.63-1.82.63-.91.31-.91v-2.73l-1.25-1.21h-4.08l-1.26.3-.63-.91-.63-.61-1.88-.61-.94-.61-4.4-4.14-.94-.61-1.26-1.21"/>
        <path class="cls-1" d="m91.45,549.34l3.5,10-11,2"/>
        <path class="cls-3" d="m289.71,188.38l-2.82.91-.63.3-.94.3-.63.3-1.88.61-.63.3-1.88.61-.63.3-1.89.61-.62.3h-1.57l-.63.91-.63.61v5.05l.31.91v3.03h4.09v2.73h-1.26l-1.26,1.21v.91l.32.61.63,1.82.31.61.63.91.31.91.63.91.31.91.63.91.32.91.94.61,1.88,1.82.31,1.52,1.26,1.21h2.83l1.25-1.21,1.26,1.21v.91l.31.91v5.96l.63.61.94.61v3.84l.32.91.31.61.63,1.82.31.61-.94.61-.63.91-.31.61-.32.91-.62.91-.63.61-.63.91h-.94l-.63.3-.94.3-.63.3-1.88.61-.95.61-.94.3-1.25-1.21v-1.21h-1.26v2.43h-10.99v-2.43h-2.82l-.63-.91-.63-.61v-3.23l-.31-.91v-.91l-.63-.61-.63-.91h-1.26l-.94-.61-.63-.61h-2.51l-.94.61-.94.3-.63.61-.94.61-.94.3-.63.61-.94.3-.63.1-.94-.61-.63-.61-1.26,1.21-.94-.3-.63-.3-.94-.3-.63-.3h-1.57l-.94.3-.63.3-.94.3-.63.3h-2.82v1.21l.63.91.31.91.63.91h-2.83l-1.25-1.21h-1.57l-1.26,1.82h-1.57l-1.26-1.21-.94.3"/>
        <path class="cls-3" d="m232.57,170.8h15.07v1.21h5.34l.94-.3.94-.61.94-.3h1.26l1.88-.61.63-.3.94-.3.63-.3h4.08l1.57,1.51.32.91.63.61.31.91.63.91.31.61.32.91.62.61.32.91.31.61.63.91,1.88,1.82.95.61"/>
        <path class="cls-3" d="m387.05,255.97l.31.61.63.91.31.61.32.91.63.61.31.91.31.61h4.09l.94.61.63.61.31.91.31.61.63.91.32.61.31.91.63.61.31.61v1.51h4.08l.32.61.63,1.82v.91l.62,1.82v1.21h2.83v5.05l.94,2.73v.91l.63,1.82v2.42h1.57l1.26-1.21h1.25v2.42h2.83v2.73l.94-.61.63-.91.62.91.63.61v1.21l.32.91.31.61.31.91.32.61.31.91-1.25,1.21-.63.3-.94.61v1.51l.31.91.63.61.63.91-1.26,1.21h-2.82v1.21l.62.91.32.91.62.91v1.21h-3.45l-.63.3-.94.61-.63.61.63.61.94.61v3.84l.63,1.82v.61l.94,2.73.32.61.63,1.82v.61l.94,2.73v.91l.62,1.82.32.61v1.52h-.94l-3.77,1.21h-.94v1.52l-.32.91-.31.61-.63.91v1.52l-.63-.91-.31-.61-1.26-1.82-.62-.61-1.26,1.21h-2.83v1.52l-.31.91-.63.91-.31.91-.63-.91-.94-.61v-1.21h-5.34l-1.57,1.52-.63-.91-.63-.61-.62-.91-.32-.61-.63-.91-.62-.61-.63-.91h-1.26v2.73l-.63-.61-.94-.61v-3.84h-1.25l-.63.61-.94.61v-1.31l-.32-.61-.63-1.82v-.91l-.31-.91-.63.91-.31.91-.63.91-.63.61-.94.3-.63.61-1.88,1.21v-2.73l-1.26-1.21-.62-.91-.95-.61-1.25-1.21h-12.56v-1.21l-.32-.91-.62-.91-.32-.91v-1.21h-5.65v-7.78l-.31-.91-.32-.61v-.91l-.94-2.73v-3.84l-.31-.91-.63-.91-.32-.91h-4.39l-.94.61-.63.3-.94.61-.32-.71-.31-.61-.63-1.82-.31-.61.94-.61,1.88-.61v-1.52h1.26l1.26-1.21v-1.51l-.63.3h-.63l-1.26,1.21-.94-.61-.63-.51-.31-.91-.63-.91-.31-.91h-1.57l-1.26,1.21v-2.43l-1.57-1.52-.63.91-.62.61h-2.83v3.03l.31.91-.94.61-1.88,1.82-.32-.61v-.91l-.31-.91v-.61l-.63-1.82v-.61l-.63-1.82-.31-.61-.63-1.82v-.61h-1.57l-.94.3-.94.61-.63.3h-9.73v-1.21l-.32-.61-.62-1.82-.32-.61-.31-.91v-5.05l1.25,1.21v-1.21h6.91l.94-.3.63-.3,1.88-.61.63-.3h2.83l1.25-1.21.95-.3.94-.61.94-.3.94-.61.94-.3.95-.61h1.25l.63.61.63.91.94-.3h.63l1.25-1.21v-.91l.63-.61.63-.91h4.08l.94-.61.63-.61-.94-.61-.63-.61v-2.73h2.83l.94-.3.63-.61.94-.3h4.08l1.88-.61.63-.3,1.89-.61-.32-1.21h4.4v3.84l.94-.61.94-.3.63-.61h1.57v-3.84h1.26l1.25-1.21h1.57l1.26,1.21v3.84h2.82l1.26-1.21h1.57l.31.61.32.91.31.61.32.91v.61l1.88-.61.94-.61.94-.3.94-.61.95-.3v-1.51l-.63-.61-.63-.71-.63-.61-.63-.91-.31-.91.63-.3.94-.61.94-.3,2.83.1Z"/>
        <path class="cls-3" d="m74.64,662.63l1.25-1.21h3.77l.94.3h.94l.63.3h.94l.95.3h2.82l1.26-.61.63-.61.94-.3.63-.61.62-.91v-2.73l-.31-.61-.63-.91-1.25-2.42-.32-.91-.31-.61h2.51v1.21h2.83l-.32-.91v-1.82l-.63-.91-2.51-2.42-.94-.61-1.26-1.21-.62-.91-.63-.61-1.26.3v-1.52l-.94-.3-.94-.61-.94-.3v-6.16l-.95-.61-.62-.91v-10.41l-.63-.91-.32-.91-.62-.91.94-1.82.31-.91-.31-.91-.32-.61-.62-.91h1.25l.94-.3h6.91v-2.73l.94-.3.63-.3.94-.3.63-.3.94-.3h3.14l.95-.3.62-.3.95-.3.62-.3-1.25-1.21v-.91l-.32-.91-.31-.61v-.91l-.31-.91v-.61l-.32-.91v-2.42l-.31-.91v-3.54l-.32-.91v-.91l-.31-.61-.31-.91-.32-.61-.63-.91-.62-.61v-1.21h1.25l.94-.3h.63l2.83-.91h.63l.62-.61.63-.91h4.08l.63.91.63.61h1.26l.62-.61.63-.91h.94l1.89-.61h.94l.94-.3h.94l.94-.3,1.26-1.21h-1.26v-1.52h1.26l.94-.3.63-.61,1.88-.61h.95l1.88-.61h.94l1.89-.61v-1.21l-.95-.61-.62-.61v-1.52h1.25l1.26-1.21h1.57l.63-.3.94-.61.94-.3.94-.61.63-.3.94-.61-.31-.91-.63-.61-.31-.91-2.83-2.73,1.26-1.21h7.85v-7.78h1.25l1.26-1.21v-1.21h1.25v-1.51h2.52l.94.61.94.3.63.61v1.52l.31.61v1.82l1.26,1.21.31.61.63,1.82v.61l.31.91.32.61.31.91.31.61.63,1.82v2.42h-2.51v2.73l.31.61.63.91.32.91v3.84l-.63,1.82-.63.91h4.08l1.26,1.21v3.84h1.25l1.26,1.21.94.61,1.26,1.21.94.61.63.3.94.61.63.61v2.42l-.63.61-.63.91-3.77,3.54v2.73l-2.51,2.43-.63.91-.62.61v2.42l-.32.91-.31.61v.91l-.32.91-.31.61h1.26v1.21h4.08v5.05h1.25l-.31.91-.63.91-.31.91-1.26,1.21v1.52h2.51l1.26,1.21v3.03l.31.91v2.42"/>
        <path class="cls-3" d="m160.67,630.4l3.97,19.81-4.29-21.33-.31-.91v-3.03l-1.26-1.21h-2.51v-1.52l1.26-1.21.31-.91.63-.91.31-.91h-1.25v-5.05h-4.08v-1.21h-1.26l.31-.61.32-.91v-.91l.31-.61.32-.91v-2.42l.62-.61.63-.91,2.51-2.42v-2.73l3.77-3.54.63-.91.63-.61v-2.02l-.63-.61-.94-.61-.63-.3-.94-.61-1.26-1.21-.94-.61-1.26-1.21h-1.25v-3.84l-1.26-1.21h-4.08l.63-.91.63-1.82v-3.84l-.32-.91-.63-.91-.31-.61v-2.73h2.51v-2.42l-.63-1.82-.31-.61-.31-.91-.32-.61-.31-.91v-.61l-.63-1.82-.31-.61h5.02l.94-.3.63-.3.94-.3h.63l.94-.3.94-.61.63-.3.94-.3h1.26l.94-.3.63-.3.94-.3.63-.3.94-.3v5.05l.63.91.63.61h7.85l.94-.3.94-.61.94-.3h1.26l.63-.3.94-.3.63-.3.94-.3h.63l.31.91.31.61.32.91v.91l.63,1.82.31.61.31.91v.61l.63,1.82.94-.61.95-.3.94-.61.63.3h9.73l.63.91.63,1.82v1.52l.31.91v1.21h1.26l.62-.3h.95l.62-.3.95-.3.62-.3h1.26v4.14l.31.91v3.84h1.26l1.26-1.21,1.25,1.21v1.21l-1.25,1.21v1.21h3.76v-1.21h9.11v-5.05h6.28"/>
        <path class="cls-3" d="m192.48,35.07l.95,5.91h1.25v1.52l.94-.3h4.71v1.11l-1.57.3h-1.25l-1.26,1.21-.63.91-.31.91-.63.61-.63.91-.62.61h-4.08l1.25,1.21.94.61,1.89,1.82v1.52l.31,1.21-.94.3-.94.61-.95.3h-1.56v-1.21l-1.26-1.21v-1.21l-1.26,1.21-.62.91-.32.91-.63.61h-1.25l-.63.91-.63.61v2.43l-.63.61-.94.61.32.91v3.03l1.88,1.82.94.61.63,1.82,1.26,1.21.62.91v2.42l.95.61.62.61h2.83l.63.61.62.91.63.61.94.61v.61l.63,1.82.32.61.31.91.63.91.31.61.63.91.63.61.63.91-.63.61-.63,1.82v1.21l-1.57,1.52h-.94l-1.89.61h-.94l-1.88.61.31,1.21.63.61.63.91.63.61.94.61v1.21h-1.57l-.63.91-.63.61v1.21l.63.61.94.61v2.73l-.31.91-.63.91-.31.91-.94.61-1.89.61h-.63l-1.88-.61-.63-.3-1.88-.61-.63-.61-.94-.61-.63-.3-.94-.61-.63-.61-.94-.3-.94-.61-.63-.61-.94-.3-.63-.3-.94-.3-.95-.61-.62-.3-1.89-.61"/>
        <path class="cls-3" d="m412.17,384.39l-2.1-4.14v-2.42l-.31-.91v-.91l-.31-.91v-.91l-.32-.61-.31-.91v-.91l-.32-.91-.31-.61-.63-1.82v-.61l-.31-.91v-.91l-.32-.91v-.91l-.31-.61-.94-2.73-.32-.61-.62-1.82-.63-.91-1.89-1.82-.94-.61-1.25-1.21-.95-.3-.62-.3-1.89-.61-.63-.3-.62-.61-.95-.61-1.88-1.82-.94-.61-.94-2.73-.32-.61-.62-1.82-.32-.61-.63-.91v-2.73l-.31-.61-.31-.91v-.91l-.32-.61-.31-.91v-2.12h1.25l.63.91.63.61.63.91.31.61.63.91.63.61.63.91,1.56-1.51h5.34v1.21l.94.61.63.91.32-.91.62-.91.32-.91v-1.52h2.82l1.26-1.21.63.61,1.25,1.82.32.61.63.91v-1.51l.62-.91.32-.61.31-.91v-1.52h.94l3.77-1.21h.94v-1.51l-.31-.61-.63-1.82v-.91l-.94-2.73v-.61l-.63-1.82-.31-.61-.94-2.73v-.3l-.63-1.82v-3.84l-.94-.61-.63-.61.63-.61.94-.61.63-.3h3.45v-1.21l-.63-.91-.31-.91-.63-.91v-1.21h2.83l1.25-1.21-.63-.91-.62-.61-.32-.91v-1.51l.94-.61.63-.91,1.26-1.21-.32-.91-.31-.61-.31-.91-.32-.61-.31-.91v-.91l-.63-.61-.63-.91-.63.91-.94.61v-2.73h-2.82v-2.43h-1.26l-1.26,1.21h-1.67v-2.42l-.63-1.82v-.91l-.94-2.73v-6.26l1.88-.61.63-.3h.94l1.89-.61h9.73l-.31.91-.63.91-.32.91,1.26,1.21-.31.61v.91l-.32.91-.31.61-.32.91v3.84h4.4l.94-.3.63-.3.94-.3h.94l1.89-.61v-2.43h2.82l.95-.61.94-.3.94-.61h1.26l1.25-1.21h5.65l.95-.61.94-.3.94-.61.63.3h2.19l.32.61.31.91v.61l.32.91.31.61.94.61.63.91v5.05"/>
        <path class="cls-3" d="m225.35,125.44l-.63.91-.63.61h-5.65v-2.73l-.31-.91-1.26-1.82v-1.21h-2.83v-5.05h1.26v-1.51h1.57l.63.61.63.91h5.65v1.21l-1.26,1.21.63.61.63.91.63.61.94.61v5.05-.02Z"/>
        <path class="cls-3" d="m218.44,125.44v1.51h5.65l.63-.61.63-.91v-5.05l-.94-.61-.63-.61-.63-.91-.63-.61,1.26-1.21v-1.21h-5.65l-.63-.91-.63-.61h-1.57v1.51h-1.26v5.05h2.83v1.21l1.26,1.82.31.91v1.24Z"/>
        <path class="cls-3" d="m166.85,132.8l.63-.3h.63l1.26.3,1.88.61.63-.3h.63l1.88.61.63.61.94.3.94.61h1.88l.95.3h1.88l.94.3h1.89l.94.3h.94l.94.3h.94l.63.91.63.61h.94l.94-.3h2.2l.94.61.63.91h-1.57l.94.61.63.61h4.08v-1.52h2.83l.63.91.63.61v1.21l.31.91v1.82h1.26l.62-.61.63-.91h2.83v1.52h8.47l.63-.61.94-.3.95-.61h1.57v1.52h1.25v1.21l.94.61.63.61h5.34l1.57,1.51v5.05l.31,1.51,1.26,1.21h1.26l1.25,1.82.32.91-1.26,1.21.31.91.32.61.31.91.32.61.62,1.82.63.91.32.91.31.61.31.91.32.61.63,1.82h-12.25v1.21h-1.26v2.73h-2.82v1.21l.31.91v1.82h-2.82v2.42l.31,1.21v1.51l1.26,1.21,1.25-1.21.32,1.21,1.25,1.21-.63.91-.62.61-.32.61-.31.91v.91l-.32.61-.31.91h-1.26v4.75l.32.61v.91h-1.57l.31,1.51-.63,2.73-3.01,2.09"/>
        <path class="cls-3" d="m424.56,192.99l-6.74-.06-.94.61-.63.61h-4.08l.31.61.63,1.82.63.91.31.61.63,1.82.31.61v1.52h-1.25l.31.61.63.91.31.91-1.25,1.21h-2.83l-.94.61-.94.3-.94.61h-4.09v1.21h-2.82l-1.26,1.21h1.26l-.63.61-.63.91-1.25,1.21h-1.57v3.84l.31,1.21,1.26-1.21,1.25,1.21v1.82l.32.91v1.21h-8.48l-1.26-1.21v-.91l-.31-.91v-.91l-1.89-1.82-1.88-1.21-.94-.3-.94-.61h-5.34l-.63.91-.63.61h-4.39v1.82l.31.61.32.91.62.91.32.91h-1.26v1.21h-1.57l-.31-.61-.63-.91-.31-.91h-4.09v2.73l-.62-.91-.95-.61h-1.25v3.84h-2.51l-.32-.91v-1.52h-5.34v-2.73l-.94.61-.94.3-.94.61-.63-.91-.63-.61-.31-.91v-3.03h-1.26l-.63.61-.62.91h-2.83v-3.84l.63-.61.94-.3.94-.61,1.57,1.52.63-.3.94-.3.63-.3,1.88-.61.63-.3.94-.3h.63l1.89-.61h1.25v-1.51l.32-.61v-.91l.62-1.82v-.91l.32-.91-.63-.61-.94-.61.94-.61.63-.91h1.25v-2.42h1.26v-2.73l-.31-.91v-.91l-.32-.91-.31-.61-.63-1.82v-2.73h-4.08v-1.21l.63-.61.62-.91-1.25-1.21v-1.21h-2.83l-.63-.61-.94-.61-.63-1.82-.31-.61v-.91l-.31-.61-.32-1.52-1.25-1.21-2.83,2.73-.31-.91-.63-.91-.31-.91-.95.3-.94.61-.94.3-.63.61-.63.91h-1.57v-3.84l-.62-.91-.63-.61-1.57,1.52v-.61l-1.26-3.54v-.91l-.31-1.21v-2.73l-.32-.91v-.61l-1.25-3.54h6.91l.94-.61.63-.61h1.25l.94-.61.95-.3.94-.61h5.33l.95-.61.62-.61h5.34l-.31-.91-.63-.91-.31-.91v-1.11h1.25l1.57-1.52h1.26l-.63-.61-.31-.91-.85-6.04"/>
        <path class="cls-3" d="m405.89,393.28l.63.91v-2.12"/>
        <path class="cls-3" d="m399.92,421.06v-1.52l-1.25-1.21h-2.83l-1.26-1.21v-1.52l1.26-1.21.31-1.21h1.26v-2.73l-1.26-1.21v-1.21l.63-.61.94-.61-.62-.91-.32-.91-.63-.91h-2.82v-4.14l-.63-.61-.31-.91-.63-.91.31-.91v-1.82l.63-.61.94-.61h1.26l.94.3.94.61.94.3.63.91.94.61h1.26l.94-.61.63-.61v-1.21l.94-.61"/>
        <path class="cls-3" d="m337.75,420.15l8.8-8.39.62-.91,3.77-3.54.31-.61.63-.91,1.89-1.82.31-.61,1.26-1.21.62-.91.32-.91.63-.91h1.57l.62-.61.95-.61h4.08v.91l-1.26,3.54-.31.61.63.91.31.91.63.91h3.14l.94.3h7.54v.91l.31.91v4.75h3.14v2.73h-1.57v2.73l2.83-2.73.94-.3.94-.61.94-.3.94-.61.63-.61,1.26,1.21.31.91.31.61.32.91.31.61.32.91,1.25,1.21"/>
        <path class="cls-3" d="m399.08,433.49l-4.08-1.92-.31-.91-.32-.61-.62-.91-.94-.61.31-.91v-2.73l-.63-1.21v-.91l.63-.61v-2.73l-1.26-1.21h-2.82l-1.26-1.21.32-.91.62-.91.32-.91v-3.54l.31-.91v-2.12l-.31-.91v-8.08h1.57l1.25-1.21.63.91.32.91.62.61v4.14h2.83l.63.91.31.91.63.91-.94.61-.63.61v1.21l1.25,1.21v2.73h-1.25l-.32,1.21-1.25,1.21v1.52l1.25,1.21h2.83l1.26,1.21v1.52h1.25l.63-.3h.63l.94-.61.63-.61-1.26-1.21v-2.73l.32-.61,1.25-1.82,1.26-1.21,1.25,1.21v2.43l-.31.91-.31.61-.63,1.82-.32.61-1.25,1.21v1.52"/>
        <path class="cls-3" d="m58.6,581.96l4.83,11.16,1.25,1.21.95.61,4.39,4.14.94.61,1.89.61.63.61.62.91,1.26-.3h4.08l1.26,1.21v2.73l-.32.91-.62.91-.63,1.82-.63.91-.31.91v2.42l.62.91.63.61.63.91.31.61.32.91-.32.91-.94,1.82.63.91.31.91.63.91v10.41l.63.91.94.61v6.57l.94.3.95.61.94.3v1.52l1.25-.3.63.61.63.91,1.26,1.21.94.61,2.51,2.42.63.91v1.82l.31.91h-2.83v-1.21h-2.61l.31.61.32.91,1.25,2.42.63.91.31.61v2.73l-.62.91-.63.61-.94.3-.63.61-1.26.61h-2.82l-.95-.3h-.94l-.63-.3h-.94l-.94-.3h-3.77l-19.06,28.21"/>
        <path class="cls-3" d="m268.72,317.89l-.04-9.99-.32-.91-.94-.91v-.91l-.94-2.73v-.91l-.31-.91v-5.05h1.57l.94-.3v-3.84h.94l.63-.3.94-.3.63-.3.94-.3v1.21l.31.91.32.61.63,1.82.31.61h5.34l.62-.3,1.89-.61h.63l.94-.3v-2.73h2.51v-2.63l.94-.3.63-.3.94-.3.63-.61.94-.3,1.26-.61.31,1.21.63,1.82.63.91v2.42h1.25l.95-.61.62-.61v-1.51h2.52v1.51l.94-.61.94-.3.94-.61h1.26l.94-.3.94-.61.94-.3h5.34l.94-.61.95-.3.94-.61h9.73l.63-.3.94-.61.94-.3h1.57v.61l.63,1.82.31.61.32.91.31.91v.61l.63,1.82v.61l.31.91v.91l.32.61,1.88-1.82.94-.61-.31-.91v-3.03h2.83l.62-.61.63-.91,1.57,1.52v2.42l1.26-1.21h1.57l.31.91.63.91.31.91.63.61.94.61,1.26-1.21h.63l.63-.3v1.52l-1.26,1.21h-1.26v1.52l-1.88.61-.94.61.31.61.63,1.82.31.61.32.91.94-.61.63-.3.94-.61h4.39l.32.91.63.91.31.91v3.84l.94,2.73v.91l.32.61.31.91v7.78h5.65v1.21l.32.91.62.91.32.91v1.21h9.73l.63,1.82v.91l.63,1.82.31.61v1.52l.32.91.31.61.63,1.82.63.61.94,2.73.31.61v.91l.32.91v.61l.31.91v.91l.31.91.32.61v1.51l-.32.61-.62,1.82-.32.61-.31.91v1.21l.63.91.31.61.31.91.63.61.32.91.31.61.31.91.32.61v3.33l-.94.61-.63.61-.63.3h-.63v-1.51l-.63-.61-.94-.61v-1.52l-1.25-1.21-.63-.91-.32-.91-.62-.91-1.26-1.21h-1.26v1.21l.63.91.63.61.31.61.63,1.82.32.61.31.91v1.21l-1.88.61-.63.3-1.89.61v-1.51l-1.25-1.21-.94.61-.95.3-.94.61h-10.99v1.21l.32.91.62.61.63.91.63.61.31.91v2.42l-.94.61-.94.3-.94.61h-.63l-.63-.3v-5.05h-10.04l.31-.91v-2.53h4.08l.94-.61,1.89-.61v-2.73l-.32-.91-.62-.91-.32-.91v-2.42h-1.57l-1.88.61-.94.61h-2.52l-.94.61-.63.61h-1.25v-2.73h-1.57l-.94.3h-1.89l-.94.3h-1.88l-.95.3h-1.88l-.94.3h-1.89l-.94.3h-.63l-.94.3h-.94l-.94.3h-1.57l-.94.3h-1.57l-1.26,1.21v.91l.63,1.82v.91l.31.91v.91l.32.91v1.21h-22.3l-.62-.3h-.95l-1.88-.61h-.63"/>
        <path class="cls-3" d="m292.54,480.97v2.12l.31.91v3.33l.63,1.82v.91l.94,2.73v.91l-.31.61v1.82l-.31.91v2.42l-.32.91v1.52l.32.91.62.91.32.91v2.73l.31.91v1.82l-.94-.3h-1.88l-.63.91-.63.61-.94-.61-.94-.3-.95-.61h-2.51l-.94-.3-.63-.3h-.94l-.63-.3-.94-.3-.63-.3-.94-.3-.63-.3-.94-.3-.63-.3h-1.88l-.94.3h-.63l-.94.3h-.94l-1.89.61h-.94l-.63.3h-1.25v3.84h-2.52l-1.25.3h-1.26v3.84l-.31.61-.63.61h-1.88l-.95.3h-1.88l-1.88.61h-.95l-.62.3-1.89.61h-.63l-.94.3h-.94l-.63.3h-.94l-.94.3h-.94l-.63.3h-.94l-.94.3h-.95l-.62.3h-.95l-.94.3h-.94l-1.26.3-1.25,1.21h1.25l.32.61v.61l-1.26.3h-9.42v-7.78l-1.25-1.21h-2.83v-2.73l-.31-.61-.32-.91-.31-.61-.63-1.82.63-.61.94-.61-.94-.61-.63-.61v-11.32l-.31-.91v-.61h-6.6v-3.84l1.26-1.21v-3.84h1.25v-10.41l-.31-.61-.31-.91-.32-.61-.63-1.82-1.25-1.21-.94-.3-.95-.61-.94-.3-1.25-1.21v-1.52h1.25v-5.05h5.34v-1.21l1.88.61.95.61h3.76l.95-.3h3.45l1.26,1.21h2.82v-1.21l.32-.91.62-.91.32-.91.63-.91.94-.61v-1.21l-.63-.91-.31-.91-.63-.91v-5.05l-2.51-2.43v-3.84l-1.26-1.21h-2.2l-.63.3h-4.39l-.32-.61-.62-.91-.32-.61-.63-.91-.31-.61-.63-.91-.31-.61-.63-.91-.31-.61-.63-.91-.32-.61-.62-.91-.63-.61-.32-.91-1.88-1.82-.63-.91-.63-.61,1.26-1.21.94.3.94.61.95.3v-1.21"/>
        <path class="cls-3" d="m269.93,451.57l.63-.3.94-.61h3.14v2.73l1.26,1.21.63-.61.31-.61,1.89-.61h.62l1.89-.61h.62l.95-.3h1.25l.63.61.63.91v7.78"/>
        <path class="cls-3" d="m259.57,433.79l.63.61"/>
        <path class="cls-3" d="m254.23,425.91l.63-.61"/>
        <path class="cls-3" d="m329.13,59.4l-3.31,2.49h-2.82l-.63-.91-1.26-1.21-.94-.61-.63-.61-.63-.91v-1.21h-1.57l-.62,1.82-.63.91-1.26,1.21v-1.21l-.94-.61-.63-.61-.62.61-.32.91-.63.61-.62.91-1.26,1.21-.63.91v.91l-.31.91v.91l-.32.91v1.21l-.62,1.82v1.21l-1.26,1.21h-5.34l-2.82,2.73h-1.26l-.94-.61-.63-.61h-2.83l-.94.3-.63.61-.94.3h-1.57l-1.88-1.82-.94-.61v-1.52l-.32-.91-.63-.61-.31-.91-1.57-1.51-.31-.91v-.61l-1.26-3.54v-1.21l-.63-.61-.63-.91-.94.61-.94.3-.94.61h-1.26v-1.52l-.62-.61-.32-.91-.63-.91v-2.73h-1.25l-.94-.61-1.89-1.82h-2.82v-1.52h1.25l-1.88-1.82-.94-.61,1.57-1.52-.32-1.21v-3.74l.94-.61.63-.3.94-.61.63-.61.94-.61,1.26-1.21v-2.73h-4.08v-1.21l-.63-.91-.31-.91-.63-.91.63-.61.94-.61h5.34v-6.57h-2.83l-.63-.61-.94-.61v-1.21h2.83l.62-.91"/>
        <path class="cls-3" d="m290.03,174.44v-2.73h1.57l.63-.61,1.88-.61h6.28l.94-.3h4.71l.63-.3,1.88-.61.63-.3h2.83l1.25-1.21v-2.73h6.91l1.26-1.21v-2.73l.62-.61.63-.91h1.26l.94-.61.63-.61.94-.3.94-.61.63-.3.94.3.94.61.95.3.94-.3.94-.61.94-.3,1.26,2.02,1.25,3.54v.61l.32.91v2.73l.31,1.21v.91l1.26,3.54v.91l1.57-1.52.63.61.62.91v3.84h1.57l.63-.91.63-.61.94-.3.94-.61.95-.3.31.91.63.91.31.91,2.83-2.73,1.25,1.21.32,1.51.31.61v.91l.31.61.63,1.82.94.61.63.61h2.83v1.21l1.25,1.21-.62.91-.63.61v1.21h4.08v2.73l.63,1.82.31.61.32.91v.91l.31.91v2.73h-1.26v2.42h-1.25l-.63.91-.94.61.94.61.63.61-.32.91v.91l-.62,1.82v.91l-.32.61v1.52h-1.25l-1.89.61h-.63l-.94.3-.63.3-1.88.61-.63.3-.94.3-.63.3-1.57-1.52-.94.61-.94.3-.63.61v3.84h2.83l.62-.91.63-.61h1.26v3.03l.31.91.63.61.63.91.94-.61.94-.3.94-.61v2.73h5.34v1.52l.32.91v5.36h4.08v1.21l.63.61.94.61v2.73l-.32.91-.62.91-.32.91h-1.57v.91l.32.61v3.54h6.9l.95-.61.62-.3.95-.61.94.61.63.91v2.43l.94-.3.94-.61.94-.3,1.26-1.21h.63l.62-.3.63,1.82.31.61.32.91.31.61.63.91.63.61.94.61.63.61v1.21l-.94.61-.95.3-.94.61-.63-.61-.62-.91v-1.21h-1.57l.31,1.21-.94.3h-1.88v1.21l.62.61.63.91.32.91.62.61.63.91v1.21l.63.61.94.61.31.91.63.91.63.61.63.91.63.61v1.52l-.95.3-.94.61-.94.3-.94.61-1.88.61v-.61l-.32-.91-.31-.61-.32-.91-.31-.61h-1.57l-1.26,1.21h-2.82v-3.84l-1.26-2.12h-1.57l-1.25,1.21h-1.26v3.84h-1.57l-.63.61-.94.3-.94.61v-3.84h-4.4l.32,1.21-1.89.61-.63.3-1.88.61h-4.08l-.94.3-.63.61-.94.3h-1.57v-1.21l-.63-.61-.63-.91v-2.42l-.31-.91-.32-.61-.62-1.82-.32-.61v-3.84l-.63-.91-.31-.91-.63-.91v-3.84l-.94.61-.94.3-.94.61h-.95l-1.88.61-.63.3h-.94l-.94.3h-5.65v2.73l-.63.3-.94.61-.95.3-.94.61-.94.3-.94.61h-2.2l-.63.3-1.88.61-.63.3-.31-.91-.32-.61-.31-.91-.32-.61-.31-.91v-1.21h1.26l1.57-1.52-.63-.91-.32-.61-.62-.91v-5.36l-.32-.61-.31-.91v-.91l-.32-.91v-.61l-.62-1.82v-2.12h-4.08v2.73h-2.83l-.31-.91-.63-.91-.32-.91h-4.39l-.63.61-.94.3-.94.61-.95-.61-1.88-.61h-5.34v-1.51l-.94-.61-.63-.61v-5.96l-.31-.91v-.91l-1.26-1.21-1.25,1.21h-2.83l-1.26-1.21-.31-1.52-1.88-1.82-.94-.61-.32-.91-.63-.91-.31-.91-.63-.91-.31-.91-.63-.91-.31-.61-.63-1.82-.32-.61v-.91l1.26-1.21h1.26v-2.73h-4.09v-3.03l-.31-.91v-5.05l.63-.61.63-.91h1.57l.62-.3,1.89-.61.63-.3,1.88-.61.63-.3,1.88-.61.63-.3.94-.3.63-.3,2.82-.91"/>
        <path class="cls-3" d="m216.66,424.09v1.21l-.94-.3-.94-.61-.94-.3-1.26,1.21.63.61.63.91,1.88,1.82.31.91.63.61.63.91.31.61.63.91.32.61.62.91.32.61.63.91.31.61.63.91.31.61.63.91.31.61h4.4l.63-.3h2.19l1.26,1.21v3.84l2.51,2.43v5.05l.63.91.31.91.63.91v1.21l-.94.61-.63.91-.31.91-.63.91-.31.91v1.21h-2.83l-1.26-1.21h-3.45l-.94.3h-3.77l-.94-.61-1.88-.61h-1.26l-1.26-1.21-.94-.61-.94-.3-.63-.3-.94-.3-.94-.61-.63-.3-1.88-.61-.63-.61-.94-.3h-5.66l-.62-.3-.95-.3-.73-.51h-.94l-.94-.3-1.26,1.21h1.26l-.32.91-.62.91-.32.61v3.84l-1.25,1.21v1.52h-4.09l-.62-.3h-.63l.31.91.63.91.31.91h2.83l.63.3,1.88.61.63.3.94.3h1.26l.63.61.94.61v1.21h1.25v2.73l-.62-.61-.63-.91-1.89-.61-.94-.61h-5.34l-1.88-.61-.63-.51-.94-.61-.94-.3-.63-.3-1.88-.61h-2.52v2.42l-2.82,2.73v.61l.31.91v.91l-.31.91-.31.61-.32.91v.61l-.31.91v1.21l-2.51,2.43-.63.91-.63,1.82v1.21l-.31.61-.63.91-.32.4-.31.91-.31.61-.32.91-.31.61-1.26,1.21-.31.91-.32.61-.31.91-.31.61v2.12l.62.61.63.91-1.25,1.21v2.42l-.63.61-.63.91-.31.61-.32.91-.63.61-.62,1.82-.63.91v.61l.31.61-.94.61-.63.61-1.88-1.82-.63-.91-.63-.61-.94-.61-1.26-1.21h-1.25l-.63-.91-.63-.61-.94-.61-1.88-1.82-2.52,2.42-.62.91-.63,1.82v1.21l-1.26,1.21-.94.3-.63.61-.94.3-.63-.91-.31-.91-.63-.61-.63-.91-.62-.61-.32-.91-.63-.91-.31-.91-.94-.3-.94-.61-.95-.3-1.25-1.21-.63-.91-1.88-1.82h-1.26"/>
        <path class="cls-3" d="m228.49,579.38h-6.28v5.05h-9.11v1.21h-3.76v-1.21l1.25-1.21v-1.21l-1.25-1.21-1.26,1.21h-1.26v-3.84l-.31-.91v-4.14h-1.26l-.62.3-.95.3-.62.3h-.95l-.62.3h-1.26v-1.21l-.31-.91v-1.52l-.63-1.82-.63-.91h-9.73l-.63-.3-.94.61-.95.3-.94.61-.63-1.82v-.61l-.31-.91-.31-.61-.63-1.82v-.81l-.32-.91-.31-.61-.31-.91h4.08l.94-.3h1.57l.94-.3h.94l.95-.3h.62l.95-.3h.94l.94-.3.94-.61.63-.3h2.83l-1.26-1.21v-1.52l-.31-.91v-5.35l.94.3h.94l.94.3h.63l.94.3h.94l.95.3h.94l.94.3h3.77v-3.84h-2.51l-.63-.61-.94-.61v-6.57l-1.26-1.21-.31-.61v-3.33l-.32-.91-.63-.61-.31-.91.31-.91.63-.91.32-.91.31-.61v-.91l.31-.61.63-1.82.32-.61.62-.91.32-.91v-1.21l1.25-1.21h1.26l.63.61.94.61h11.3l.63.3h4.08v2.42h9.42l1.26-.3v-.61l-.32-.61h-1.25l1.25-1.21,1.26-.3h.94l.94-.3h.95l.62-.3h.95l.94-.3h.94l.63-.3h.94l.94-.3h.94l.63-.3h.94l.94-.3h.63l1.89-.61.62-.3h.95l1.88-.61h1.88l.95-.3h1.88l.63-.61.31-.61v-3.84h1.26l1.25-.3h2.52v-3.84h1.25l.63-.3h.94l1.89-.61h.94l.94-.3h.63l.94-.3h1.88l.63.3.94.3.63.3.94.3.63.3.94.3.63.3h.94l.63.3.94.3h2.51l.95.61.94.3.94.61.63-.61.63-.91h1.88l.94.3h2.51l.63-.61.63-.91v.91l.31.61v5.05h-2.82v1.21l.63,1.82.31.61.31.91.32.61h1.57l.63-.3h.94l.63-.3.94-.3.63-.3h5.65"/>
        <path class="cls-3" d="m222.78,243.79l2.87-1.86h3.14l.94-.3,1.26,1.21h1.57l1.26-1.82h1.57l1.25,1.21h2.83l-.63-.91-.31-.91-.63-.91v-1.21h2.82l.63-.3.94-.3.63-.3.94-.3h1.57l.63.3.94.3.63.3.94.3,1.26-1.21.63.61.94.61.63-.61.94-.3.63-.61.94-.3.94-.61.63-.61.94-.3.94-.61h2.51l.63.61.94.61h1.26l.63.91.63.61v.91l.31.91v3.23l.63.61.63.91h2.82v2.42h10.99v-2.42h1.26v1.21l1.25,1.21.94-.3.95-.61,1.88-.61.63-.3.94-.3.63-.3h.94l.63-.91.63-.61.62-.91.32-.91.31-.61.63-.91.94-.61-.31-.61-.63-1.82-.31-.61-.32-.91v-2.42h5.34l1.88.61.95.61.94-.61.94-.3.63-.61h4.39l.32.91.63.91.31.91h2.83v-2.73h4.08v2.12l.62,1.82v.61l.32.91v.91l.31.91.32.61v5.35l.62.91.32.61.63.91-1.57,1.52h-1.26v1.21l.31.91.32.61.31.91.32.61.31.91.63-.3,1.88-.61.63-.3h2.2l.94-.61.94-.3.94-.61.95-.3.94-.61.63-.3v-2.73h5.65l.94-.3h.94l.63-.3,1.88-.61h.95l.94-.61.94-.3.94-.61v3.84l.63.91.31.91.63.91v3.84l.32.61.62,1.82.32.61.31.91v2.42l.63.91.63.61v1.21h-1.26v2.73l.63.61.94.61-.63.61-.94.61h-4.08l-.63.91-.63.61v1.21l-1.25,1.21h-.63l-.94.3-.63-.91-.63-.61h-1.25l-.95.61-.94.3-.94.61-.94.3-.94.61-.95.3-1.25,1.21h-2.83l-.63.3-1.88.61-.63.3-.94.3h-6.91v1.21l-1.25-1.21v5.05l.31.91.31.61.63,1.82.32.61v1.21l-.95.61-.94.3-.94.61h-5.34l-.94.3-.94.61-.94.3h-1.26l-.94.61-.94.3-.94.61v-1.52h-2.52v1.52l-.62.61-.95.61h-1.25v-2.42l-.63-.91-.63-1.82-.31-1.21-1.26.61-.94.3-.63.61-.94.3-.63.3-.94.3v2.73h-2.51v2.73l-.94.3h-.63l-1.89.61-.62.3h-5.34l-.31-.61-.63-1.82-.32-.61-.31-.91v-1.21l-.94.3-.63.3-.94.3-.63.3h-.94v3.84l-.94.3h-1.57v5.05l.31.91v.91l.94,2.73v.91l.94.91.32.91"/>
        <path class="cls-7" d="m358.49,500.45l.62.63.3.63,1.23,1.25.3.94.61.63"/>
        <path class="cls-4" d="m256.82,432.41c1.72,1.36,4.1,2.97,7.17,4.29,2.1.9,4.04,1.47,5.7,1.83"/>
      </g>
    </g>
  </g>
</svg>