<?xml version="1.0" encoding="utf-8"?>
<svg width="533" height="629" viewBox="0 6.786 533 614.459" fill="none" xmlns="http://www.w3.org/2000/svg">
  <g clip-path="url(#clip0_125_1039)">
    <path d="M532.145 130.103L531.818 130.757V131.74L531.49 132.721L531.163 133.704L530.837 134.687L530.181 135.669L529.853 136.65L529.527 137.634L529.198 138.616L528.871 139.597L528.217 140.581L527.888 141.563L527.561 142.545L527.234 143.526L526.907 144.51L526.251 145.492L525.924 146.147L525.598 147.13L525.269 148.112L524.941 149.093L525.269 150.077L525.598 151.059L525.924 151.713L526.579 152.369L527.234 153.351L528.217 154.006L528.871 154.661L529.527 155.316L530.508 155.969L531.163 156.626L532.145 157.279" fill="white"/>
    <path d="M532.145 130.103L531.818 130.757V131.74L531.49 132.721L531.163 133.704L530.837 134.687L530.181 135.669L529.853 136.65L529.527 137.634L529.198 138.616L528.871 139.597L528.217 140.581L527.888 141.563L527.561 142.545L527.234 143.526L526.907 144.51L526.251 145.492L525.924 146.147L525.598 147.13L525.269 148.112L524.941 149.093L525.269 150.077L525.598 151.059L525.924 151.713L526.579 152.369L527.234 153.351L528.217 154.006L528.871 154.661L529.527 155.316L530.508 155.969L531.163 156.626L532.145 157.279" stroke="white" stroke-width="1.30978"/>
    <path d="M-0.371776 533.177L0.283119 534.159L0.611925 535.14L1.5929 535.797L4.54128 536.779H6.50457L7.48692 537.106L8.79806 536.779H10.1079L12.0712 536.124L13.0535 535.469L13.7084 534.814L14.6907 534.487L15.673 533.831L16.6554 533.505L17.3103 532.85L18.6201 532.521L19.6038 532.195H21.8945L23.2043 532.85L25.1703 533.505L26.1513 534.159L27.4611 536.779L27.7899 537.76V538.744L28.116 539.726L28.4434 541.036V543.327L28.7709 544.31L28.4434 545.293V546.275L28.116 547.257L27.4611 548.24L26.8062 548.893L26.1513 549.877L20.2573 555.771L19.9298 556.426V558.063L20.5847 560.028L21.8945 561.337L22.5494 562.318L23.2043 562.975L23.8592 563.957L24.5141 564.612L24.8415 565.265L25.4964 565.922V567.885L25.1703 568.869V569.524L24.8415 570.505V571.488L24.1866 573.452V574.435L23.8592 575.418V584.586L24.5141 586.551V587.533L24.8415 588.515V589.498L25.4964 591.462V592.443L26.1513 593.427L26.8062 594.082L27.4611 595.063L28.7709 596.374L29.7532 597.029L31.063 598.339L32.0453 598.994L33.3565 600.303L34.3374 600.958L37.9393 604.56L38.9217 605.215L40.8864 607.18L41.8687 607.835L43.1785 609.144L44.1622 609.799L45.472 611.109L46.4529 611.764L47.1078 612.419L48.0915 612.746L48.745 613.401L49.7287 614.056L50.7097 614.382L51.3646 615.038L52.3483 615.366L53.0018 616.021L53.9842 616.676L54.9679 617.002L55.6214 617.658L56.6037 617.985L57.2586 618.64L58.241 619.295L59.2247 619.621L59.8782 620.278L60.8605 620.605V618.968L61.1879 617.985V616.021L61.5154 614.711L62.1703 613.729L63.4801 613.401H64.4638L65.4447 613.729H66.101L67.4108 614.711L68.7206 616.021H69.3741L70.0303 614.711L70.3564 613.401V606.525L70.0303 605.543L70.3564 604.233L70.6839 603.249L71.3401 602.268L71.9937 601.613L72.976 601.286L73.9583 600.63L74.6132 600.303L75.5969 599.648L76.2504 599.32L77.2328 598.666L78.5425 597.356L78.87 596.374L79.1975 595.719L79.8523 593.753L80.5072 592.772L80.836 591.79V590.807L80.5072 589.824L79.8523 588.843L79.1975 588.188L78.2165 587.533L76.2504 585.567L75.923 584.257L75.5969 583.276L75.923 582.294V580.657L76.9067 577.71V576.727L77.5602 574.761L78.2165 573.78L78.87 573.452L79.8523 573.125L80.836 573.452H82.1444L88.0385 575.418L88.6934 575.745L90.6594 576.4L91.3129 577.055H92.2953L93.605 577.381L96.5521 578.365L97.8618 579.019L98.8455 580.002L99.8265 580.657H101.136L101.791 580.329L104.738 578.365L105.394 577.71L106.048 576.727L106.703 576.071L107.685 575.418L108.341 574.761L109.322 574.435L109.977 574.108L110.632 574.761L111.287 575.09L111.942 576.071L112.924 577.055L113.581 577.381H114.889L116.199 576.727L117.181 576.4L121.438 572.143L122.093 571.816L123.075 571.161L124.385 570.833H125.367L126.677 570.505H127.659L128.643 570.178H131.59L132.571 569.851H135.845L136.829 569.524H139.776L140.757 569.195H143.049L144.032 568.869H146.979L147.962 568.541H149.926L150.908 568.214L151.892 567.559L152.873 567.231L153.528 566.575L154.511 565.922L155.165 564.939L156.475 563.63L157.129 562.647L158.439 561.337L159.094 560.355L160.078 559.699L161.388 558.389L162.041 557.408L163.351 556.098L164.006 555.116L164.661 554.461L165.644 553.806L166.298 552.823L167.608 551.513L168.264 550.532L169.574 549.222L170.227 548.24L170.884 547.585L171.865 546.93L172.521 545.946L173.831 544.636L174.811 543.983L175.466 543.327L176.45 543L177.104 542.346L178.086 541.691H179.723L180.707 542.017H181.688L185.617 543.327L186.272 543.655L190.203 544.965H192.166L193.148 545.293L194.132 544.636L194.786 543.983L195.768 543.655L196.75 543L197.733 542.673L198.389 542.017L199.37 541.691L200.68 541.363H201.989L202.972 541.691L205.591 542.346L206.246 542.673L207.229 543.327L209.195 543.983L210.176 544.636L210.83 544.965L211.814 545.293L212.795 545.946L214.761 546.602L215.742 547.257L216.397 547.585L217.381 548.24L218.362 548.567L219.672 548.893H220.981L222.291 548.567L225.238 547.585L226.22 546.93L228.186 546.275L228.84 545.62L229.824 544.965L230.477 544.31L231.133 543.327L231.787 542.673L232.443 542.346L233.424 542.673L234.734 543.983L235.389 546.602L234.734 548.567L234.079 549.877L233.424 550.859L232.443 551.513L231.787 552.496L231.46 553.479L230.805 554.461L230.477 555.443L230.15 556.753L229.824 557.736L229.495 559.045V560.683L229.824 561.337L230.15 562.318L231.787 563.957L232.443 564.284L233.424 564.612L234.079 565.594L234.734 566.249L235.063 567.559L235.389 568.541V572.798L235.716 573.78V577.055L236.699 576.727L237.681 576.071L238.336 575.745L239.32 575.418L240.301 574.761L241.283 574.435L241.939 574.108L242.92 573.78L243.902 573.125L245.867 572.471L246.522 571.816L247.506 571.488L248.159 570.833L250.125 569.524L250.779 568.869L251.435 567.885L252.089 567.231L252.745 566.249L253.398 565.594L254.053 564.612L254.382 563.63L255.036 562.975L255.692 561.992L256.018 561.009L256.673 560.355L257.983 558.389L258.311 557.736L259.621 555.771L259.947 555.116L261.257 553.151L261.585 552.496L262.239 551.513L262.894 550.859L263.878 550.203L264.532 549.549L265.514 548.893L266.169 547.912L267.479 547.257L269.443 546.602H270.098L271.08 546.275H273.7L275.665 546.93H276.32L277.629 547.257L278.612 546.93H281.56L282.541 546.602L283.196 546.275L284.18 545.946L284.833 545.62L285.489 544.965L286.47 544.31L288.436 542.346L289.09 541.363L290.4 540.053L291.71 538.089L292.037 537.106L292.692 536.45L293.347 535.469L294.329 535.14L294.984 534.487L295.966 533.831L296.623 533.177L297.604 532.521L298.258 532.195L299.242 531.54L299.896 530.885L301.862 529.574L302.515 528.593L303.825 527.283L304.152 526.301L304.809 525.318L305.135 524.009L305.79 523.354L306.445 522.371L306.772 521.388L307.428 520.407L308.082 519.752L309.064 519.097L309.719 518.442L311.685 517.132L312.339 516.477L313.321 516.149L313.976 515.495L314.958 514.84L315.614 514.185L317.578 512.875L317.905 512.221L318.56 511.892L319.215 510.911L319.542 509.928V508.946L319.871 508.291L319.542 506.982V504.689L320.197 503.706L321.507 502.396L322.491 501.742L323.144 501.086L324.127 500.433L324.781 499.776L325.764 499.123L326.42 498.468L327.401 497.813L328.057 497.486L328.711 496.829L329.367 495.848L330.677 494.539L331.33 493.556L331.658 492.574L331.987 491.264L332.968 489.299L335.915 486.352L336.57 485.043L336.897 484.06L337.224 483.404V480.786L337.553 479.476L338.207 478.166L339.189 477.837H340.499L341.809 478.166L342.792 478.494L343.446 478.821L344.43 479.147L345.411 479.804L346.393 480.131L347.703 480.457L348.685 480.131L349.669 479.476L350.322 478.166V475.547L349.995 474.237V470.635L350.322 469.325L350.65 468.342L351.632 467.361V467.032L352.616 466.378L356.545 465.068L357.526 464.414L358.181 464.085L360.146 463.431L361.128 462.775L364.075 461.794L364.731 461.139L365.712 460.812L366.694 460.155L368.004 458.846L368.988 458.192L369.642 457.537L370.951 457.21H372.261L373.571 457.537L374.553 457.865L375.537 458.52L376.518 458.846L377.174 459.174L378.155 459.829L378.81 460.155L379.794 460.812L380.447 461.139L383.067 461.794L384.377 461.465H385.36L386.014 461.139L387.98 459.829L388.633 459.174L388.961 458.52L389.616 457.537L390.271 456.882L391.253 456.227L391.909 455.245L392.89 454.589L393.546 453.935L395.51 452.626L397.476 451.969L398.457 451.316L402.386 450.006L403.696 449.679L404.678 449.351L405.333 448.696L405.988 447.712L406.315 446.732V445.749L406.643 444.767L406.972 444.112L407.298 442.802L408.608 440.838L409.262 440.183L410.572 439.855L411.555 439.526H413.848L415.158 440.183L416.139 441.165L416.468 442.147L416.794 442.802L417.121 443.783L417.449 444.439V449.679L418.758 450.988L420.068 451.969H421.05L421.705 452.298L422.688 452.626H423.67L426.617 453.608H427.601L429.564 454.263L430.22 453.279L431.53 451.969L432.184 450.988L433.493 449.679L434.148 448.696L435.458 447.386L436.113 446.403L436.768 445.749L438.406 440.838L438.078 439.855L437.423 438.873L435.458 437.563L434.476 437.236L433.493 436.581L432.511 436.253L431.53 435.271L431.201 434.616L430.546 433.961L429.564 431.014V429.704L429.891 428.395L430.22 428.067L430.546 426.757L431.201 425.775L431.53 424.793L431.856 423.483L433.493 418.571L434.148 417.261L434.803 416.279L435.787 415.624L436.44 414.642L437.75 413.332L438.406 412.348L438.733 411.367L440.042 409.403L440.37 408.42L440.697 407.766L442.334 402.852L442.989 401.872L443.317 400.889L443.644 400.234L445.283 395.323V394.013L445.609 393.03V390.738L445.283 389.756L444.954 388.446L444.299 387.464L443.644 385.499L442.989 384.844L441.68 382.88L441.352 382.223L440.042 380.26L439.387 379.604L439.06 378.623L438.406 377.641L438.078 376.658L437.423 375.676L437.097 374.694L436.768 374.037V373.384L436.44 372.401V371.418L436.113 370.108V369.127L435.787 367.817V365.851L436.113 364.87V362.906L436.768 360.941V359.958L437.097 358.976V357.994L437.423 356.684L437.75 355.702V354.719L438.078 353.736V352.755L438.733 350.79V349.479L439.06 348.498V347.516L439.387 346.206V342.931L438.733 341.949L438.406 340.967L437.75 340.312L436.44 338.347L435.787 337.692L434.803 335.728L434.476 334.745L434.803 333.763L435.787 333.435L436.768 332.781L437.75 331.797L438.078 331.143L438.733 330.161L438.406 328.851L438.078 327.867L436.44 326.232L435.787 325.249L435.458 324.594L435.131 323.611V321.647L434.803 320.665V320.01L434.476 319.028L434.148 317.718L433.821 316.734L432.511 314.771L432.184 313.789L431.53 312.805L430.874 310.842V309.859L431.201 309.204L432.511 307.895L433.821 303.965V302.983L434.148 302.328L434.476 301.346L435.131 300.036L435.787 299.052L436.768 298.726L437.75 298.071H438.733L441.68 297.089H442.662L444.626 296.433H445.609L446.593 295.779L447.574 295.452L448.556 294.797L449.212 294.469L450.193 293.815L451.503 292.832L451.83 291.85L452.485 291.195L453.469 288.247L454.122 287.266L455.105 284.319L455.432 283.664L456.088 283.009L457.069 282.354L457.724 281.37L459.362 279.734L459.689 279.079L460.345 278.425L460.671 277.442L460.999 276.787L461.655 274.823L461.981 273.513V271.548L462.309 270.565V266.308L462.636 265.327V264.017L462.965 263.362L463.618 261.397L464.275 260.743L464.928 259.76L465.256 259.105L465.91 258.122L466.893 257.468L467.548 256.158L468.203 255.176L471.151 246.335L472.461 244.37L473.114 243.715L474.097 243.059L475.079 242.733L475.734 242.078L476.718 241.423L477.699 241.096L478.353 240.44L478.681 239.786L479.337 239.13L479.991 238.149L480.318 237.494L480.973 235.529L481.628 234.547L482.283 232.582V231.6L482.61 230.618V229.308L482.283 228.325V227.343L481.957 226.687V225.706L481.3 224.724L480.973 224.067L480.647 223.086L479.991 222.104L479.663 221.122L479.337 220.467L478.681 219.484L478.027 217.52L477.371 216.865L476.718 214.9L476.061 213.918L475.734 213.262L475.406 212.281L475.079 210.643L475.406 209.661L476.061 209.005H477.044L479.008 208.351L480.318 208.024H481.3L483.265 207.369H484.247L486.213 206.714L487.523 206.385L488.504 206.059L490.469 204.095L491.779 202.128L492.434 200.819L493.09 199.838L494.071 196.889V194.599L493.743 193.616L493.09 192.633L492.434 191.979L491.451 191.323L489.814 189.687V189.032L489.486 188.05V183.137L489.814 182.156V180.846L490.143 179.864V177.899L490.469 176.917V175.934L490.796 174.951V173.97L491.124 172.66V171.677L491.451 170.695V169.713L491.779 168.73V167.748L492.106 167.093L492.434 166.111L493.09 165.455L493.743 165.129L495.053 165.455L496.035 165.783L496.69 166.764L497.345 167.421L497.673 168.403L498.329 169.384L498.982 171.35L499.637 172.331L499.965 173.315L500.62 174.297L501.602 174.951L502.257 175.607L503.239 176.26L503.896 176.917L504.876 177.57L505.531 178.554L506.186 179.209L507.169 179.864L507.823 180.517L509.788 181.827L510.772 182.156L512.082 181.827L512.735 180.846L513.063 179.536L512.735 178.226L512.082 176.26L511.425 175.279L510.772 174.624L510.116 173.641L508.806 172.331L507.823 171.677L507.496 170.695V169.713L507.169 168.73V165.783L507.496 164.801V163.819L507.823 162.836V160.544L508.478 158.578V157.925L509.133 155.959L509.788 155.305L510.772 154.65L512.735 153.995L514.045 153.668L515.027 153.012L516.01 152.686L516.992 152.031L517.648 151.702L518.629 151.048H519.939L520.921 150.721H522.231L524.196 150.066L525.387 150.071L524.941 149.093L525.269 148.112L525.598 147.13L525.924 146.147L526.251 145.492L526.907 144.51L527.233 143.526L527.561 142.545L527.888 141.563L528.217 140.581L528.871 139.597L529.198 138.616L529.527 137.634L529.853 136.65L530.18 135.669L530.837 134.687L531.163 133.704L531.49 132.721L531.818 131.74V130.757L532.145 130.103L532.146 121.916L531.491 120.934L531.163 119.952L530.837 118.968L530.508 117.987L529.853 117.332L528.871 117.005L528.217 116.677L527.234 116.022H526.251H525.269H524.288H523.304H522.322H521.012H520.031H519.048L518.065 115.695H517.083H516.102L515.118 115.368L514.136 115.039L513.155 114.713L512.171 114.385L511.189 113.73L510.207 113.403L509.226 113.075L508.242 112.748L507.26 112.421L506.605 111.766L505.622 111.438L504.64 111.111L503.659 110.782L502.675 110.456L501.693 110.128L500.711 109.472L499.73 109.146L498.746 108.819L497.764 108.491L497.109 108.162L496.126 107.836L495.144 107.181L494.163 106.853H493.18H492.197H491.215H489.906H488.923H487.94H486.958L485.977 107.181L484.993 107.836L484.338 108.162L483.357 108.819L482.701 109.472L481.72 110.456L481.064 111.111L480.41 111.766L479.754 112.748L479.101 113.403L478.444 114.058L477.791 115.039L476.807 115.368L475.825 115.695L474.843 116.348L474.188 116.677L473.205 117.005L472.224 117.332H471.241H469.931H468.949H467.966L466.985 117.005H466.001L465.019 116.677H464.038L463.055 116.348H462.072L461.09 116.022H460.109L459.125 115.695H458.143L457.162 115.368L456.178 115.695L455.196 116.022L453.886 116.348L452.904 116.677L451.923 117.005L450.939 117.332L449.957 117.658L448.976 117.987H447.992L446.682 118.315H445.7L444.718 118.642L444.063 117.987L443.408 117.332L442.427 116.677L441.771 116.022L442.098 114.713L442.427 113.73V112.748L442.753 111.438L443.08 110.456L443.408 109.472L443.737 108.491L444.39 107.509L444.718 106.527L445.046 105.544L445.7 104.562L446.027 103.579V102.27L446.356 101.286V99.9762V98.9953L446.682 97.6855H445.7L444.718 97.358L443.737 97.0306L442.753 96.7031H441.771L440.79 96.3757H439.806L438.824 96.7031H437.841L436.86 97.0306H435.877H434.894L433.584 96.7031H432.603L431.62 96.3757L430.965 95.7194L430.31 95.0659L429.328 94.4097L428.674 93.7561L428.345 92.7738V91.464L428.018 90.4803L427.69 89.4993L427.364 88.517L427.035 87.2072V86.2235V85.2426V83.9328V82.9504V81.9681L427.364 80.9858V79.676V78.6936V77.7113V76.7276V75.7466L427.69 74.7643V73.782V72.7996V71.8173L427.364 70.8349V69.5252L427.035 68.5415L426.708 67.5605L426.381 66.5782L425.726 66.2507L424.743 65.5958L423.761 64.9409L422.779 64.6135L422.124 63.9586L421.142 63.6312L420.159 63.3037L418.849 62.9749L417.868 62.6488H416.885L415.902 62.3214L414.921 61.9939H413.938L412.628 61.6651H411.646H410.663H409.682L408.699 61.339H407.389H406.406H405.425H404.442H403.459H402.15H401.167L400.185 61.0116H399.203H397.893H396.911H395.93H394.946L393.964 61.339L392.981 61.6651L391.999 61.9939L391.017 62.3214L390.034 62.6488L389.053 62.9749L388.069 63.3037L387.087 63.6312L386.105 63.9586L385.124 64.286L384.14 64.6135L383.158 64.9409L382.177 65.2684L381.193 65.5958L380.211 65.9219L379.228 66.2507L378.574 66.5782L377.591 67.2317L376.609 67.5605L375.627 67.8879L374.644 68.2154L373.662 67.8879H372.352L371.371 67.5605H370.387L369.405 67.2317H368.423L367.44 66.9056L366.458 66.5782H365.148L364.166 66.2507H363.185L362.201 65.9219H361.219L360.237 65.5958L359.254 64.9409L358.272 64.6135L357.29 64.286L356.309 63.6312L355.325 63.3037L354.343 62.9749L353.689 62.6488L352.705 61.9939L351.723 61.6651L350.742 61.339L349.758 60.6842L348.776 60.3553L347.794 60.0293L346.813 59.3744L345.829 59.0456L344.847 58.7195L343.864 58.392L343.209 57.7358L342.227 57.4097L341.246 57.0823L340.263 56.4274L339.28 56.0999L338.298 55.7725L337.317 55.1176L336.333 54.7888L335.351 54.4627L334.37 54.1352L333.386 53.479L332.404 53.1529L331.421 52.8255L330.767 52.1692L329.784 51.8431L328.802 51.5157L327.821 51.1882L326.837 50.5333L325.855 50.2059L324.874 49.8784L323.89 49.2236L322.908 48.8961H321.926H320.945H319.635H318.651H317.669L316.688 48.5687H315.704H314.394H313.412H312.43H311.449H310.138H309.155H308.173H307.192L305.882 48.2412H304.898H303.916H302.934H301.625H300.642H299.659H298.677H297.696H296.386L295.402 47.9138H294.42H293.439H292.129H291.146H290.163H289.181H287.871H286.89H285.907L284.924 47.5863H283.614H282.633H281.65H280.667H279.685H278.375L277.393 46.9314L276.738 46.6026L275.757 45.9491L275.101 45.2928L274.447 44.3119L273.791 43.3295L273.138 42.6733V41.3635L272.809 40.3825V39.4002V38.4165L273.138 37.4355V36.4532V35.1434V34.1611L272.481 33.8336L271.499 33.1774L270.844 32.8513H269.862H268.881H267.571H266.587L265.605 32.5238H264.623H263.642H262.332H261.348H260.366H259.385L258.401 32.1964H257.419H256.109H255.127H254.146H253.162H252.18L250.87 31.869H249.889H248.905H247.923H246.941H245.631H244.648L243.666 31.5415H242.684H241.703H240.393H239.409H238.427H237.445H236.462L235.48 31.2141H234.17H233.188H232.207H231.223H230.241H228.931H227.95L226.966 30.8866H225.984H225.002H223.692L222.711 30.5592L221.727 29.9043L220.745 29.5768L219.764 29.2494L218.78 28.5945L217.798 28.2671L217.144 27.6108L216.161 26.9573L215.506 26.301L214.851 25.32L213.869 24.6652L213.215 24.0103L212.559 23.3554L211.578 22.7005L210.922 22.0442L210.268 21.3907L209.284 20.7344L208.629 20.0809L207.648 19.4247L206.992 18.4437L206.339 17.7888L205.355 17.1339L204.7 16.479L203.718 16.1516H202.735L201.753 15.8241L200.772 15.4967H199.788L198.479 15.1692H197.496H196.514H195.532H194.222L193.24 15.4967H192.257H190.947H189.966H188.983H187.673H186.691H185.71H184.726H183.416L182.434 15.1692H181.451L180.471 14.8418L179.487 14.5143H178.504L177.523 14.1869H176.54L175.23 13.8581L174.248 13.532H173.265L172.284 13.2046H171.301L170.318 12.8771L169.337 12.5483H168.028L167.044 12.2222H166.062L165.079 11.8948L164.098 11.5673H163.115L162.132 11.2385H161.151L159.841 10.9124L158.858 10.585H157.875L156.893 10.2576H155.912L154.928 9.92874L153.946 9.60266H152.636L151.655 9.27522H150.672L149.689 8.94777L148.707 8.61896H147.726L146.742 8.29288H145.76L144.45 7.96544H143.469L142.485 7.63799L141.503 7.31055L140.521 7.63799L139.54 7.96544H138.556L137.574 8.29288H136.593L135.609 8.61896L134.627 8.94777H133.317L132.335 9.27522H131.354L130.37 9.60266L129.388 9.92874H128.407L127.423 10.2576L126.441 10.585H125.458L124.477 10.9124H123.494H122.184H121.202H120.221H119.237L118.255 10.585H116.945H115.962H114.981H113.998H113.015H111.706H110.725H109.741H108.759H107.776H106.466H105.484H104.502H103.519H102.538H101.555L100.245 10.2576H99.2627H98.2803L97.2532 10.2522L97.2083 11.2279L97.5344 12.2116V13.194L97.8618 14.1763V16.141L98.8455 16.7945L99.8265 17.1233L100.481 17.7782H103.428L104.738 18.1043H107.685L108.668 18.4331H112.597L113.907 18.7605H116.854L117.837 19.088H118.818L120.128 19.4141L120.457 19.7429L119.801 20.7239L118.818 21.0527L115.871 23.0173L115.218 23.6722L114.562 24.6546L113.907 25.9643V30.876L114.234 32.1858L114.562 33.1668V33.823L114.889 35.1328L115.544 36.1151L116.199 38.0798L116.528 39.3896V40.6994L116.199 41.3529V42.0092L115.544 43.9725L114.889 44.9562L114.562 45.9385L113.907 46.9209L113.581 47.9032L110.961 51.8325L109.977 52.4874L109.322 53.4684L108.668 54.1247L107.685 54.7782L106.375 56.0893L105.394 56.7442L104.738 57.7252L103.756 58.3814L103.101 59.035L102.119 59.6912L101.791 60.6736L101.136 61.3284L100.481 62.3108L99.8265 62.9643L99.4991 63.948L98.8455 64.6029L98.1893 65.5852L97.5344 66.2401L96.8795 67.2211L96.5521 67.8774L95.2423 69.8407L94.5887 70.4969L94.2599 71.4793L93.605 72.1341L92.9501 73.1165L92.2953 73.7714L91.6404 75.0812L91.3129 76.0635L90.6594 77.0458L90.3306 78.0268L90.0032 79.3366V80.3203L89.6757 81.3026V82.2836L89.3482 83.5934V85.5594L89.0222 86.8692V87.8515L88.6934 89.1613V93.4181L88.3659 94.7279L88.6934 95.7088V98.9847L89.0222 99.9656V105.206L89.3482 106.516V107.498L90.6594 109.462L91.3129 110.118L93.279 110.771H93.9325L94.9148 111.1H96.2246L97.2083 110.771L98.5167 110.445H99.1716L99.8265 111.1L100.155 112.081V113.392L100.481 114.375L101.136 115.357L102.119 116.012L103.101 116.338H104.085L104.738 116.667L105.721 116.994L106.703 117.648L107.358 118.304L108.013 119.286L108.341 120.267V121.906L107.358 124.853L107.032 125.508L106.703 126.49L106.048 127.144L105.721 128.127L103.428 130.419L102.446 131.074L100.809 132.71L99.4991 134.676L98.8455 135.33L98.5167 136.64L97.8618 138.606V145.154L98.1893 146.137V148.101L99.1716 151.048V152.031L100.155 154.978V155.959L100.809 157.925V163.491L100.481 164.474V165.455L100.155 166.764V167.748L99.8265 169.058V171.023L99.4991 172.005V175.934L99.8265 176.589V178.554L100.155 179.536V180.846L99.8265 181.827V182.811L99.4991 183.793V186.085L99.1716 187.067V188.05L98.8455 189.032V190.997L98.5167 191.979V194.271L98.8455 195.581L99.1716 196.563L99.8265 197.546L100.155 198.528L101.465 199.838L102.446 200.493L103.428 200.819H104.411L105.066 200.493L106.048 199.838L107.032 196.889L107.358 196.236L108.013 194.271L109.322 192.307L110.305 191.979L111.287 191.323L111.942 190.669L113.252 190.342L115.218 189.687L116.528 189.36H120.457L121.767 189.687L122.748 190.013L123.73 190.669L124.714 190.997L126.024 191.323L127.004 191.652L128.314 191.323L129.297 190.997L129.953 190.342L130.934 189.687L131.59 189.032L132.244 188.05L132.9 186.085L133.553 185.103L134.21 183.793L134.863 183.137L135.845 182.811L136.829 183.137L137.483 183.466L137.81 184.447L138.139 185.756L138.793 186.74L139.447 187.395L140.43 188.05L141.412 188.377L142.722 188.703H146.651L147.634 188.05L148.288 187.722L150.582 185.43L151.563 184.775L152.218 184.447L152.545 185.43V188.05L151.563 190.997V192.307L150.253 196.236V197.546L149.926 198.856V199.838L149.598 201.148L149.926 202.129L150.582 203.112L150.908 204.095L151.563 205.076L152.218 205.732L154.182 207.042L155.165 207.369L156.148 208.024L158.112 208.679L159.094 209.661L159.749 210.644V211.626L160.078 212.936V214.245L160.404 215.555L160.731 216.538L162.041 217.847L163.023 218.501L163.678 219.485L164.661 220.139L165.316 220.794L166.298 221.448L166.954 222.104L167.935 222.758L168.59 223.414L169.245 224.396L169.9 225.051L170.555 226.033L171.21 226.687L171.865 227.671L172.192 228.326L173.502 230.29L174.157 230.944L175.14 231.273L176.121 231.927L177.104 232.254L177.76 232.91L179.723 233.563L180.707 234.22L181.688 234.547L182.343 234.873L183.326 235.529L185.29 236.184L185.946 236.839L186.927 237.167L187.909 237.82L189.874 238.476L190.529 239.459L191.839 240.769L192.822 241.423L193.476 242.406L194.786 243.716L195.768 244.37L196.423 245.353L197.733 246.663L198.715 247.316L199.37 248.3L200.68 249.61L201.008 250.919L201.335 251.902V256.812L201.008 257.796V258.778L200.352 259.76L200.025 261.07L199.699 261.725L199.042 262.707L198.715 263.362L198.389 264.345L197.405 264.998L196.75 265.654L195.768 266.308L194.458 267.618L193.148 267.946H192.166L190.203 268.601H189.219L187.256 269.256H186.272L184.962 269.584H183.98L182.017 270.239H181.033L180.051 270.565L179.07 271.221L178.741 272.203V274.168L178.413 275.15V277.115L178.086 278.097V281.044L177.76 282.027V283.664L178.413 284.646L179.396 285.301L180.378 285.629L181.36 286.283L182.343 286.611L183.653 286.937L184.636 287.593L186.6 286.937L187.256 286.283L187.909 285.956L188.564 285.301L189.219 284.974L191.184 284.319H193.476L194.458 284.646L195.442 285.301L196.095 285.956L197.079 286.611L197.733 287.266L198.389 288.247L199.042 288.903L199.699 289.885L200.352 290.54L201.662 292.505L201.989 293.16L202.644 294.142L202.972 295.123L203.628 296.107L204.282 298.071V299.381L204.609 300.691L204.936 301.673L206.246 303.638L206.575 304.293L207.229 305.275V307.239L207.556 308.222V310.187L207.885 311.495V312.805L207.556 314.115L206.901 315.425L205.919 316.408L203.954 317.718L203.299 318.046L202.318 318.701H201.662L200.68 319.028H199.699L198.715 319.355H197.733L196.75 319.681H195.768L194.458 320.01H193.476L192.494 320.338H191.513L190.529 320.665H188.564L187.256 320.991H186.272L184.307 322.957L183.653 325.577V326.887L184.962 328.851L185.617 329.177L186.6 329.834L187.256 330.487L188.237 331.143L189.219 332.126L189.874 333.436L191.513 335.073V339.002L191.184 340.312L190.856 341.293L190.529 341.949L187.256 345.224L186.272 345.878L184.962 347.188L184.636 348.169L183.98 348.825L183.326 349.808L182.998 350.463L182.343 351.445L181.688 353.41L182.017 354.72L182.67 355.374L183.653 355.702L184.636 356.355L186.6 357.012L187.582 357.665L188.893 358.649L189.547 359.959L188.564 361.922L188.237 362.906L186.272 364.215H184.307L182.343 363.561H181.36L180.378 363.232H178.086L177.104 363.561L176.45 363.888L175.466 364.542L174.811 365.198L173.831 365.851L173.174 366.508L172.192 367.162L171.537 367.817L170.555 368.472L169.9 369.127L168.917 369.782L168.264 370.437L167.28 371.092L166.625 371.747L165.644 372.074L164.335 373.056L163.351 374.037L163.023 375.349L162.369 376.658L162.041 377.641V380.914L161.714 381.897V389.429L161.388 390.41V392.376L161.714 393.357V395.323L162.041 396.305V397.615L162.369 398.596V404.819L162.041 405.801L161.388 406.456L161.059 407.438L160.404 408.093L159.749 409.075L159.094 409.729L158.439 411.039L157.784 412.022L157.458 413.332L157.129 414.315V415.297L156.802 416.279V417.262L156.475 418.244V419.225L156.148 420.209V421.191L155.82 422.173V422.828L155.492 423.81L154.837 424.793L153.855 425.448L152.545 425.775H151.563L150.253 425.448L148.943 424.793L148.288 424.138L147.306 423.483L145.996 422.173L145.341 421.191L144.687 420.535L143.706 419.881L142.396 418.571L140.43 417.262L138.465 416.607H137.483L136.5 416.279H135.519L134.536 415.952L133.226 415.624H132.244L131.261 415.297L130.606 414.968L129.953 413.987V413.005L130.279 412.022L129.624 410.058L128.314 408.748L127.659 407.766L127.004 407.111L126.35 406.128L122.748 402.527L121.767 401.872H120.783L119.801 401.543H108.341L107.685 401.872L106.703 402.199L106.048 402.853L105.066 403.181L104.411 403.509L102.446 404.819L101.791 405.472L99.8265 406.782L99.1716 407.438L98.1893 407.766L97.2083 408.421L96.5521 408.748L95.5697 409.403L94.5887 409.729L93.9325 410.058L92.9501 410.713L92.2953 411.039L91.3129 411.368L90.0032 412.022L85.0928 413.658L84.4366 414.315L83.4542 414.968L82.4733 415.297L81.817 415.952L80.836 416.607L80.1798 416.934L79.1975 417.589L77.2328 418.244H75.5969L74.6132 417.915H73.6309L72.3211 417.589L70.3564 416.934L69.7015 416.607L67.7369 415.952L67.082 415.624L66.101 415.297L65.4447 414.642L64.4638 414.315L63.4801 413.658L62.8252 413.005L62.1703 412.022L61.5154 411.368L60.5344 410.713L59.8782 410.385L59.2247 410.713V411.368L58.8958 412.349L59.2247 413.658L60.2056 416.607V417.915L59.8782 418.899L59.5507 419.554L58.8958 420.209L58.5684 421.191L57.9149 421.844V422.828L57.5861 423.81L57.9149 425.448L58.5684 426.101L60.5344 427.411L61.1879 428.067L62.1703 428.395L63.154 429.05L63.8075 429.704L64.135 430.687L63.4801 431.669L62.8252 431.997L61.8442 432.324L60.5344 432.652L59.5507 432.324H58.5684L57.5861 431.997H56.6037L55.2939 431.669H53.3293L52.3483 431.34H51.3646L50.3823 431.014H49.3999L48.0915 430.687H47.1078L46.1255 430.359L45.1431 431.014L44.4883 431.997L44.1622 432.979V433.961L44.4883 435.271L44.8157 436.253L46.1255 438.217L46.4529 439.2L47.1078 440.183L47.7627 442.147L48.0915 443.457V444.44L48.4176 445.749V447.059L48.0915 448.369L47.7627 449.351V450.006L47.1078 450.66L46.7817 451.643L45.798 452.298L44.4883 453.608L43.5059 453.935L42.8524 454.263L41.8687 454.589H40.2315L39.2491 454.263H37.2858L35.976 453.935H34.01L33.0276 453.608H31.063L30.0807 453.279H27.7899L26.8062 452.953H25.8239L24.8415 452.626H23.8592L23.2043 452.298L20.2573 451.316H19.275L16.3279 450.334H15.347L13.3809 451.643L12.7274 452.626L12.0712 453.279L11.4176 454.589L10.7614 455.573V456.882L11.0888 457.865L11.4176 458.52L13.0535 460.156L14.0372 460.812L14.6907 461.465L16.6554 462.775L17.3103 463.431L18.294 464.085L20.2573 466.051L20.5847 467.032L20.2573 467.688L19.9298 468.671L19.275 469.325L18.9475 470.308L18.294 471.29L17.9652 471.945L17.6377 472.927L16.9842 473.582L16.6554 474.237L16.0005 475.218L15.673 475.874L15.0181 476.528L14.0372 477.184L13.3809 477.838L12.3986 478.166H10.1079L9.12415 477.838H6.17714L5.52225 478.166L5.1948 479.147L5.52225 480.786L6.17714 481.441L6.83201 482.423L8.79806 483.733L9.45159 484.388L10.4339 485.043L11.7437 486.353L12.7274 487.007L13.3809 487.662L14.0372 488.643L14.6907 489.3L15.347 490.282L15.673 490.937L16.9842 492.9L17.3103 493.884L17.9652 494.539L18.294 495.52L18.9475 496.503L19.275 497.486L19.9298 498.141L20.5847 499.123L21.2396 499.776L22.2233 500.433H23.2043L23.8592 500.76L24.8415 501.086H25.8239L26.8062 501.742L27.4611 502.396L27.7899 503.38V505.016L27.4611 505.672L27.1336 506.654L26.4801 507.637L25.1703 508.946L21.2396 510.256L20.5847 510.582L19.6038 510.911L18.6201 511.566L17.3103 512.876L16.6554 513.858L16.3279 514.513L15.673 515.495L14.3633 516.805L13.7084 517.787L11.7437 519.752L11.4176 520.734L10.4339 521.388L9.12415 522.699L8.14181 523.354L7.48692 524.335L6.17714 525.645L5.1948 526.301L4.54128 526.954L3.88502 527.938L3.2315 528.593L2.24779 529.248L0.938015 530.558L-0.0443234 531.213L-0.699219 532.195L-0.371776 533.177Z" fill="#1E1E1E" stroke="#1f1f1f" stroke-width="1.30978"/>
    <path d="M525.27 150.077L525.598 151.059L525.924 151.713L526.579 152.369L527.234 153.351L528.218 154.006L528.871 154.661L529.528 155.316L530.509 155.969L531.164 156.626L532.146 157.279" fill="#1E1E1E"/>
    <path d="M525.27 150.077L525.598 151.059L525.924 151.713L526.579 152.369L527.234 153.351L528.218 154.006L528.871 154.661L529.528 155.316L530.509 155.969L531.164 156.626L532.146 157.279" stroke="white" stroke-width="1.30978"/>
    <path d="M-0.371766 533.177L0.28313 534.159L0.611936 535.14L1.59291 535.797L4.54129 536.779H6.50458L7.48693 537.106L8.79807 536.779H10.1079L12.0712 536.124L13.0535 535.469L13.7084 534.814L14.6907 534.487L15.6731 533.831L16.6554 533.505L17.3103 532.85L18.6201 532.521L19.6038 532.195H21.8945L23.2043 532.85L25.1704 533.505L26.1513 534.159L27.4611 536.779L27.7899 537.76V538.744L28.116 539.726L28.4434 541.036V543.327L28.7709 544.31L28.4434 545.293V546.275L28.116 547.257L27.4611 548.24L26.8062 548.893L26.1513 549.877L20.2573 555.771L19.9299 556.426V558.063L20.5847 560.028L21.8945 561.337L22.5494 562.318L23.2043 562.975L23.8592 563.957L24.5141 564.612L24.8415 565.265L25.4964 565.922V567.885L25.1704 568.869V569.524L24.8415 570.505V571.488L24.1866 573.452V574.435L23.8592 575.418V584.586L24.5141 586.551V587.533L24.8415 588.515V589.498L25.4964 591.462V592.443L26.1513 593.427L26.8062 594.082L27.4611 595.063L28.7709 596.374L29.7532 597.029L31.063 598.339L32.0453 598.994L33.3565 600.303L34.3374 600.958L37.9394 604.56L38.9217 605.215L40.8864 607.18L41.8687 607.835L43.1785 609.144L44.1622 609.799L45.472 611.109L46.4529 611.764L47.1078 612.419L48.0915 612.746L48.7451 613.401L49.7288 614.056L50.7097 614.382L51.3646 615.038L52.3483 615.366L53.0018 616.021L53.9842 616.676L54.9679 617.002L55.6214 617.658L56.6037 617.985L57.2586 618.64L58.241 619.295L59.2247 619.621L59.8782 620.278L60.8605 620.605V618.968L61.188 617.985V616.021L61.5154 614.711L62.1703 613.729L63.4801 613.401H64.4638L65.4447 613.729H66.101L67.4108 614.711L68.7206 616.021H69.3741L70.0304 614.711L70.3564 613.401V606.525L70.0304 605.543L70.3564 604.233L70.6839 603.249L71.3401 602.268L71.9937 601.613L72.976 601.286L73.9583 600.629L74.6132 600.303L75.5969 599.649L76.2505 599.32L77.2328 598.666L78.5426 597.356L78.87 596.374L79.1975 595.719L79.8524 593.753L80.5072 592.772L80.8361 591.79V590.807L80.5072 589.824L79.8524 588.843L79.1975 588.188L78.2165 587.533L76.2505 585.567L75.923 584.257L75.5969 583.276L75.923 582.294V580.657L76.9067 577.71V576.727L77.5602 574.761L78.2165 573.78L78.87 573.452L79.8524 573.125L80.8361 573.452H82.1445L88.0385 575.418L88.6934 575.745L90.6594 576.4L91.3129 577.055H92.2953L93.605 577.381L96.5521 578.365L97.8619 579.019L98.8455 580.002L99.8265 580.657H101.136L101.791 580.329L104.738 578.365L105.394 577.71L106.048 576.727L106.703 576.071L107.685 575.418L108.341 574.761L109.322 574.435L109.977 574.108L110.632 574.761L111.287 575.09L111.942 576.071L112.924 577.055L113.581 577.381H114.889L116.199 576.727L117.181 576.4L121.438 572.143L122.093 571.816L123.075 571.161L124.385 570.833H125.367L126.677 570.505H127.659L128.643 570.178H131.59L132.571 569.851H135.846L136.829 569.524H139.776L140.757 569.195H143.049L144.032 568.869H146.979L147.962 568.541H149.926L150.908 568.214L151.892 567.559L152.873 567.231L153.528 566.575L154.511 565.922L155.165 564.939L156.475 563.63L157.129 562.647L158.439 561.337L159.094 560.355L160.078 559.699L161.388 558.389L162.041 557.408L163.351 556.098L164.006 555.116L164.661 554.461L165.644 553.806L166.298 552.822L167.608 551.513L168.264 550.532L169.574 549.222L170.227 548.24L170.884 547.585L171.864 546.93L172.521 545.946L173.831 544.636L174.812 543.983L175.466 543.327L176.45 543L177.104 542.346L178.086 541.691H179.723L180.707 542.017H181.688L185.617 543.327L186.272 543.655L190.203 544.965H192.166L193.148 545.293L194.132 544.636L194.786 543.983L195.768 543.655L196.75 543L197.733 542.673L198.389 542.017L199.37 541.691L200.68 541.363H201.989L202.972 541.691L205.591 542.346L206.246 542.673L207.229 543.327L209.195 543.983L210.176 544.636L210.831 544.965L211.814 545.293L212.795 545.946L214.761 546.602L215.742 547.257L216.397 547.585L217.381 548.24L218.362 548.567L219.672 548.893H220.981L222.291 548.567L225.238 547.585L226.22 546.93L228.186 546.275L228.84 545.62L229.824 544.965L230.477 544.31L231.133 543.327L231.787 542.673L232.443 542.346L233.424 542.673L234.734 543.983L235.389 546.602L234.734 548.567L234.079 549.877L233.424 550.859L232.443 551.513L231.787 552.496L231.46 553.479L230.805 554.461L230.477 555.443L230.15 556.753L229.824 557.736L229.495 559.045V560.683L229.824 561.337L230.15 562.318L231.787 563.957L232.443 564.284L233.424 564.612L234.079 565.594L234.734 566.249L235.063 567.559L235.389 568.541V572.798L235.716 573.78V577.055L236.699 576.727L237.681 576.071L238.336 575.745L239.32 575.418L240.301 574.761L241.283 574.435L241.939 574.108L242.92 573.78L243.903 573.125L245.867 572.471L246.522 571.816L247.506 571.488L248.159 570.833L250.125 569.524L250.779 568.869L251.435 567.885L252.089 567.231L252.745 566.249L253.398 565.594L254.053 564.612L254.382 563.63L255.036 562.975L255.692 561.992L256.018 561.009L256.673 560.355L257.983 558.389L258.311 557.736L259.621 555.771L259.947 555.116L261.257 553.151L261.585 552.496L262.239 551.513L262.894 550.859L263.878 550.203L264.532 549.549L265.514 548.893L266.169 547.912L267.479 547.257L269.443 546.602H270.098L271.08 546.275H273.7L275.665 546.93H276.32L277.629 547.257L278.612 546.93H281.56L282.541 546.602L283.196 546.275L284.18 545.946L284.833 545.62L285.489 544.965L286.47 544.31L288.436 542.346L289.09 541.363L290.4 540.053L291.71 538.089L292.037 537.106L292.692 536.45L293.347 535.469L294.329 535.14L294.984 534.487L295.966 533.831L296.623 533.177L297.604 532.521L298.258 532.195L299.242 531.54L299.896 530.885L301.862 529.574L302.515 528.593L303.825 527.283L304.152 526.301L304.809 525.318L305.135 524.009L305.79 523.354L306.445 522.371L306.772 521.388L307.428 520.407L308.082 519.752L309.064 519.097L309.719 518.442L311.685 517.132L312.339 516.477L313.321 516.149L313.976 515.495L314.958 514.84L315.614 514.185L317.578 512.875L317.905 512.221L318.56 511.892L319.215 510.911L319.542 509.928V508.946L319.871 508.291L319.542 506.982V504.689L320.197 503.706L321.507 502.396L322.491 501.742L323.144 501.086L324.127 500.433L324.782 499.776L325.764 499.123L326.42 498.468L327.401 497.813L328.057 497.486L328.711 496.829L329.367 495.848L330.677 494.539L331.33 493.556L331.658 492.574L331.987 491.264L332.968 489.299L335.915 486.352L336.57 485.043L336.897 484.06L337.224 483.404V480.786L337.553 479.476L338.207 478.166L339.189 477.837H340.499L341.809 478.166L342.792 478.494L343.446 478.821L344.43 479.147L345.411 479.804L346.393 480.131L347.703 480.457L348.685 480.131L349.669 479.476L350.322 478.166V475.547L349.995 474.237V470.635L350.322 469.325L350.65 468.342L351.632 467.361V467.032L352.616 466.378L356.545 465.068L357.526 464.414L358.181 464.085L360.146 463.431L361.128 462.775L364.075 461.794L364.731 461.139L365.712 460.812L366.695 460.155L368.004 458.846L368.988 458.192L369.642 457.537L370.951 457.21H372.261L373.571 457.537L374.553 457.865L375.537 458.52L376.518 458.846L377.174 459.174L378.155 459.829L378.81 460.155L379.794 460.812L380.447 461.139L383.067 461.794L384.377 461.465H385.36L386.014 461.139L387.98 459.829L388.633 459.174L388.961 458.52L389.616 457.537L390.271 456.882L391.253 456.227L391.909 455.245L392.89 454.589L393.546 453.935L395.51 452.626L397.476 451.969L398.457 451.316L402.386 450.006L403.696 449.679L404.678 449.351L405.333 448.696L405.988 447.713L406.315 446.732V445.749L406.643 444.767L406.972 444.112L407.298 442.802L408.608 440.838L409.262 440.183L410.572 439.855L411.554 439.526H413.848L415.158 440.183L416.139 441.165L416.468 442.147L416.794 442.802L417.121 443.783L417.449 444.439V449.679L418.758 450.988L420.068 451.969H421.05L421.705 452.298L422.688 452.626H423.67L426.617 453.608H427.601L429.564 454.263L430.22 453.279L431.53 451.969L432.184 450.988L433.493 449.679L434.148 448.696L435.458 447.386L436.113 446.403L436.768 445.749L438.406 440.838L438.078 439.855L437.423 438.873L435.458 437.563L434.476 437.236L433.493 436.581L432.511 436.253L431.53 435.271L431.201 434.616L430.546 433.961L429.564 431.014V429.704L429.891 428.395L430.22 428.067L430.546 426.757L431.201 425.775L431.53 424.793L431.856 423.483L433.493 418.571L434.148 417.261L434.803 416.279L435.787 415.624L436.44 414.642L437.75 413.332L438.406 412.348L438.733 411.367L440.042 409.403L440.37 408.42L440.697 407.766L442.334 402.852L442.989 401.872L443.317 400.889L443.644 400.234L445.283 395.323V394.013L445.609 393.03V390.738L445.283 389.756L444.954 388.446L444.299 387.464L443.644 385.499L442.989 384.844L441.679 382.88L441.352 382.223L440.042 380.26L439.387 379.604L439.06 378.623L438.406 377.641L438.078 376.658L437.423 375.676L437.097 374.694L436.768 374.037V373.384L436.44 372.401V371.418L436.113 370.108V369.127L435.787 367.817V365.851L436.113 364.87V362.906L436.768 360.941V359.959L437.097 358.976V357.994L437.423 356.684L437.75 355.702V354.719L438.078 353.736V352.755L438.733 350.79V349.479L439.06 348.498V347.516L439.387 346.206V342.931L438.733 341.949L438.406 340.967L437.75 340.312L436.44 338.347L435.787 337.692L434.803 335.728L434.476 334.745L434.803 333.763L435.787 333.435L436.768 332.781L437.75 331.797L438.078 331.143L438.733 330.161L438.406 328.851L438.078 327.867L436.44 326.232L435.787 325.249L435.458 324.594L435.131 323.611V321.647L434.803 320.665V320.01L434.476 319.028L434.148 317.718L433.821 316.734L432.511 314.771L432.184 313.789L431.53 312.805L430.874 310.842V309.859L431.201 309.204L432.511 307.895L433.821 303.965V302.983L434.148 302.328L434.476 301.346L435.131 300.036L435.787 299.052L436.768 298.726L437.75 298.071H438.733L441.679 297.089H442.662L444.627 296.433H445.609L446.593 295.779L447.574 295.452L448.556 294.797L449.212 294.469L450.193 293.815L451.503 292.832L451.83 291.85L452.485 291.195L453.469 288.247L454.122 287.266L455.105 284.319L455.432 283.664L456.089 283.009L457.069 282.354L457.724 281.37L459.362 279.734L459.689 279.079L460.345 278.425L460.671 277.442L460.999 276.787L461.655 274.823L461.981 273.513V271.548L462.309 270.565V266.308L462.636 265.327V264.017L462.965 263.362L463.618 261.397L464.275 260.743L464.928 259.76L465.256 259.105L465.91 258.122L466.893 257.468L467.548 256.158L468.203 255.176L471.151 246.335L472.461 244.37L473.114 243.715L474.097 243.059L475.079 242.733L475.734 242.078L476.718 241.423L477.699 241.096L478.353 240.44L478.681 239.786L479.337 239.13L479.991 238.149L480.318 237.494L480.973 235.529L481.628 234.547L482.283 232.582V231.6L482.61 230.618V229.308L482.283 228.325V227.343L481.957 226.687V225.706L481.3 224.724L480.973 224.067L480.647 223.086L479.991 222.104L479.663 221.122L479.337 220.467L478.681 219.484L478.027 217.52L477.371 216.865L476.718 214.9L476.061 213.918L475.734 213.262L475.406 212.281L475.079 210.643L475.406 209.661L476.061 209.005H477.044L479.008 208.351L480.318 208.024H481.3L483.265 207.369H484.247L486.213 206.714L487.523 206.385L488.504 206.059L490.469 204.095L491.779 202.128L492.434 200.819L493.09 199.838L494.071 196.889V194.599L493.743 193.616L493.09 192.633L492.434 191.979L491.451 191.323L489.814 189.687V189.032L489.487 188.05V183.137L489.814 182.156V180.846L490.143 179.864V177.899L490.469 176.917V175.934L490.796 174.951V173.97L491.124 172.66V171.677L491.451 170.695V169.713L491.779 168.73V167.748L492.106 167.093L492.434 166.111L493.09 165.455L493.743 165.129L495.053 165.455L496.035 165.783L496.69 166.764L497.345 167.421L497.673 168.403L498.329 169.384L498.982 171.35L499.637 172.331L499.965 173.315L500.62 174.297L501.602 174.951L502.257 175.607L503.239 176.26L503.896 176.917L504.876 177.57L505.531 178.554L506.186 179.209L507.169 179.864L507.824 180.517L509.788 181.827L510.772 182.156L512.082 181.827L512.735 180.846L513.063 179.536L512.735 178.226L512.082 176.26L511.425 175.279L510.772 174.624L510.116 173.641L508.806 172.331L507.824 171.677L507.496 170.695V169.713L507.169 168.73V165.783L507.496 164.801V163.819L507.824 162.836V160.544L508.478 158.578V157.925L509.133 155.959L509.788 155.305L510.772 154.65L512.735 153.995L514.045 153.668L515.027 153.012L516.01 152.686L516.992 152.031L517.648 151.702L518.629 151.048H519.939L520.921 150.721H522.231L524.196 150.066L525.387 150.071L524.941 149.093L525.269 148.112L525.598 147.13L525.924 146.147L526.251 145.492L526.907 144.51L527.234 143.526L527.561 142.545L527.888 141.563L528.217 140.581L528.871 139.597L529.198 138.616L529.527 137.634L529.853 136.65L530.181 135.669L530.837 134.687L531.163 133.704L531.49 132.721L531.818 131.74V130.757L532.145 130.103L532.146 121.916L531.491 120.934L531.163 119.952L530.837 118.968L530.508 117.987L529.853 117.332L528.871 117.005L528.217 116.677L527.234 116.022H526.251H525.269H524.288H523.305H522.322H521.012H520.031H519.048L518.065 115.695H517.083H516.102L515.118 115.368L514.136 115.039L513.155 114.713L512.171 114.385L511.189 113.73L510.207 113.403L509.226 113.075L508.242 112.748L507.26 112.421L506.605 111.766L505.622 111.438L504.64 111.111L503.659 110.782L502.675 110.456L501.693 110.128L500.711 109.472L499.73 109.146L498.746 108.819L497.764 108.491L497.109 108.162L496.126 107.836L495.144 107.181L494.163 106.853H493.18H492.197H491.215H489.906H488.923H487.94H486.958L485.977 107.181L484.993 107.836L484.339 108.162L483.358 108.819L482.701 109.472L481.72 110.456L481.064 111.111L480.41 111.766L479.754 112.748L479.101 113.403L478.444 114.058L477.791 115.039L476.807 115.368L475.825 115.695L474.843 116.348L474.188 116.677L473.205 117.005L472.224 117.332H471.241H469.931H468.949H467.966L466.985 117.005H466.002L465.019 116.677H464.038L463.055 116.348H462.072L461.09 116.022H460.109L459.125 115.695H458.143L457.162 115.368L456.178 115.695L455.196 116.022L453.886 116.348L452.904 116.677L451.923 117.005L450.939 117.332L449.957 117.658L448.976 117.987H447.992L446.682 118.315H445.7L444.718 118.642L444.063 117.987L443.408 117.332L442.427 116.677L441.771 116.022L442.098 114.713L442.427 113.73V112.748L442.753 111.438L443.08 110.456L443.408 109.472L443.737 108.491L444.39 107.509L444.718 106.527L445.046 105.544L445.7 104.562L446.027 103.579V102.27L446.356 101.286V99.9762V98.9953L446.682 97.6855H445.7L444.718 97.358L443.737 97.0306L442.753 96.7031H441.771L440.79 96.3757H439.806L438.824 96.7031H437.841L436.86 97.0306H435.877H434.894L433.584 96.7031H432.603L431.62 96.3757L430.965 95.7194L430.31 95.0659L429.328 94.4097L428.674 93.7561L428.345 92.7738V91.464L428.018 90.4803L427.69 89.4993L427.364 88.517L427.036 87.2072V86.2235V85.2426V83.9328V82.9504V81.9681L427.364 80.9858V79.676V78.6936V77.7113V76.7276V75.7466L427.69 74.7643V73.782V72.7996V71.8173L427.364 70.835V69.5252L427.036 68.5415L426.708 67.5605L426.381 66.5782L425.726 66.2507L424.743 65.5958L423.761 64.9409L422.779 64.6135L422.124 63.9586L421.142 63.6312L420.159 63.3037L418.849 62.9749L417.868 62.6488H416.885L415.902 62.3214L414.921 61.9939H413.938L412.628 61.6651H411.646H410.663H409.682L408.699 61.339H407.389H406.407H405.425H404.442H403.459H402.15H401.167L400.185 61.0116H399.203H397.893H396.911H395.93H394.946L393.964 61.339L392.981 61.6651L391.999 61.9939L391.017 62.3214L390.034 62.6488L389.053 62.9749L388.07 63.3037L387.087 63.6312L386.105 63.9586L385.124 64.286L384.14 64.6135L383.158 64.9409L382.177 65.2684L381.193 65.5958L380.211 65.9219L379.228 66.2507L378.574 66.5782L377.591 67.2317L376.609 67.5605L375.627 67.8879L374.644 68.2154L373.662 67.8879H372.352L371.371 67.5605H370.387L369.405 67.2317H368.423L367.44 66.9056L366.458 66.5782H365.148L364.166 66.2507H363.185L362.201 65.9219H361.219L360.237 65.5958L359.254 64.9409L358.272 64.6135L357.29 64.286L356.309 63.6312L355.325 63.3037L354.343 62.9749L353.689 62.6488L352.705 61.9939L351.723 61.6651L350.742 61.339L349.758 60.6841L348.776 60.3553L347.794 60.0293L346.813 59.3744L345.829 59.0456L344.847 58.7195L343.864 58.392L343.21 57.7358L342.227 57.4097L341.246 57.0823L340.263 56.4274L339.28 56.0999L338.298 55.7725L337.317 55.1176L336.333 54.7888L335.351 54.4627L334.37 54.1352L333.386 53.479L332.404 53.1529L331.421 52.8255L330.767 52.1692L329.784 51.8431L328.802 51.5157L327.821 51.1882L326.837 50.5333L325.855 50.2059L324.874 49.8785L323.89 49.2236L322.908 48.8961H321.926H320.945H319.635H318.651H317.669L316.688 48.5687H315.704H314.394H313.412H312.43H311.449H310.138H309.155H308.173H307.192L305.882 48.2412H304.898H303.916H302.934H301.625H300.642H299.659H298.677H297.696H296.386L295.402 47.9138H294.42H293.439H292.129H291.146H290.163H289.181H287.871H286.89H285.907L284.924 47.5863H283.614H282.633H281.65H280.667H279.685H278.375L277.393 46.9314L276.738 46.6026L275.757 45.9491L275.101 45.2929L274.447 44.3119L273.791 43.3295L273.138 42.6733V41.3635L272.809 40.3825V39.4002V38.4165L273.138 37.4355V36.4532V35.1434V34.1611L272.481 33.8336L271.499 33.1774L270.844 32.8513H269.862H268.881H267.571H266.587L265.605 32.5238H264.623H263.642H262.332H261.348H260.366H259.385L258.401 32.1964H257.419H256.109H255.127H254.146H253.162H252.18L250.87 31.869H249.889H248.905H247.923H246.941H245.631H244.648L243.666 31.5415H242.684H241.703H240.393H239.409H238.427H237.445H236.462L235.48 31.2141H234.17H233.188H232.207H231.223H230.241H228.931H227.95L226.966 30.8866H225.984H225.002H223.692L222.711 30.5592L221.727 29.9043L220.745 29.5768L219.764 29.2494L218.78 28.5945L217.798 28.2671L217.144 27.6108L216.161 26.9573L215.506 26.301L214.851 25.32L213.869 24.6652L213.215 24.0103L212.559 23.3554L211.578 22.7005L210.922 22.0442L210.268 21.3907L209.284 20.7344L208.629 20.0809L207.648 19.4247L206.992 18.4437L206.339 17.7888L205.355 17.1339L204.7 16.479L203.718 16.1516H202.735L201.753 15.8241L200.772 15.4967H199.788L198.479 15.1692H197.496H196.514H195.532H194.222L193.24 15.4967H192.257H190.947H189.966H188.983H187.673H186.691H185.71H184.726H183.416L182.434 15.1692H181.451L180.471 14.8418L179.487 14.5143H178.504L177.524 14.1869H176.54L175.23 13.8581L174.248 13.532H173.265L172.284 13.2046H171.301L170.318 12.8771L169.337 12.5483H168.028L167.044 12.2222H166.062L165.079 11.8948L164.098 11.5673H163.115L162.132 11.2385H161.151L159.841 10.9125L158.858 10.585H157.875L156.893 10.2576H155.912L154.928 9.92875L153.946 9.60267H152.636L151.655 9.27522H150.672L149.689 8.94777L148.707 8.61897H147.726L146.742 8.29288H145.76L144.45 7.96544H143.469L142.485 7.63799L141.503 7.31055L140.521 7.63799L139.54 7.96544H138.556L137.574 8.29288H136.593L135.609 8.61897L134.627 8.94777H133.317L132.335 9.27522H131.354L130.37 9.60267L129.388 9.92875H128.407L127.423 10.2576L126.441 10.585H125.458L124.477 10.9125H123.494H122.184H121.202H120.221H119.237L118.255 10.585H116.945H115.962H114.981H113.998H113.015H111.706H110.725H109.741H108.759H107.776H106.466H105.484H104.502H103.519H102.539H101.555L100.245 10.2576H99.2627H98.2804L97.2532 10.2522L97.2083 11.2279L97.5344 12.2116V13.194L97.8619 14.1763V16.141L98.8455 16.7945L99.8265 17.1233L100.481 17.7782H103.428L104.738 18.1043H107.685L108.668 18.4331H112.597L113.907 18.7606H116.854L117.837 19.088H118.818L120.128 19.4141L120.457 19.7429L119.801 20.7239L118.818 21.0527L115.871 23.0173L115.218 23.6722L114.562 24.6546L113.907 25.9643V30.876L114.234 32.1858L114.562 33.1668V33.823L114.889 35.1328L115.544 36.1152L116.199 38.0798L116.528 39.3896V40.6994L116.199 41.3529V42.0092L115.544 43.9725L114.889 44.9562L114.562 45.9385L113.907 46.9209L113.581 47.9032L110.961 51.8325L109.977 52.4874L109.322 53.4684L108.668 54.1247L107.685 54.7782L106.375 56.0893L105.394 56.7442L104.738 57.7252L103.756 58.3814L103.101 59.035L102.119 59.6912L101.791 60.6736L101.136 61.3284L100.481 62.3108L99.8265 62.9643L99.4991 63.948L98.8455 64.6029L98.1893 65.5852L97.5344 66.2401L96.8795 67.2211L96.5521 67.8774L95.2423 69.8407L94.5888 70.4969L94.26 71.4793L93.605 72.1342L92.9502 73.1165L92.2953 73.7714L91.6404 75.0812L91.3129 76.0635L90.6594 77.0458L90.3306 78.0268L90.0031 79.3366V80.3203L89.6757 81.3026V82.2836L89.3483 83.5934V85.5594L89.0222 86.8692V87.8515L88.6934 89.1613V93.4181L88.3659 94.7279L88.6934 95.7088V98.9847L89.0222 99.9656V105.206L89.3483 106.516V107.498L90.6594 109.462L91.3129 110.118L93.279 110.771H93.9325L94.9148 111.1H96.2246L97.2083 110.771L98.5167 110.445H99.1716L99.8265 111.1L100.155 112.081V113.392L100.481 114.375L101.136 115.357L102.119 116.012L103.101 116.338H104.085L104.738 116.667L105.721 116.994L106.703 117.648L107.358 118.304L108.013 119.286L108.341 120.267V121.906L107.358 124.853L107.032 125.508L106.703 126.49L106.048 127.144L105.721 128.127L103.428 130.419L102.446 131.074L100.809 132.71L99.4991 134.676L98.8455 135.33L98.5167 136.64L97.8619 138.606V145.154L98.1893 146.137V148.101L99.1716 151.049V152.031L100.155 154.978V155.959L100.809 157.925V163.491L100.481 164.474V165.455L100.155 166.765V167.748L99.8265 169.058V171.023L99.4991 172.005V175.934L99.8265 176.589V178.554L100.155 179.536V180.846L99.8265 181.827V182.811L99.4991 183.793V186.085L99.1716 187.068V188.05L98.8455 189.032V190.997L98.5167 191.979V194.271L98.8455 195.581L99.1716 196.563L99.8265 197.546L100.155 198.528L101.465 199.838L102.446 200.493L103.428 200.819H104.411L105.066 200.493L106.048 199.838L107.032 196.89L107.358 196.236L108.013 194.271L109.322 192.307L110.305 191.979L111.287 191.323L111.942 190.669L113.252 190.342L115.218 189.687L116.528 189.36H120.457L121.767 189.687L122.748 190.013L123.73 190.669L124.714 190.997L126.024 191.323L127.004 191.652L128.314 191.323L129.297 190.997L129.953 190.342L130.934 189.687L131.59 189.032L132.244 188.05L132.9 186.085L133.553 185.103L134.21 183.793L134.863 183.137L135.846 182.811L136.829 183.137L137.483 183.466L137.81 184.447L138.139 185.756L138.793 186.74L139.447 187.395L140.43 188.05L141.412 188.377L142.722 188.703H146.651L147.634 188.05L148.288 187.722L150.582 185.43L151.563 184.775L152.218 184.447L152.545 185.43V188.05L151.563 190.997V192.307L150.253 196.236V197.546L149.926 198.856V199.838L149.598 201.148L149.926 202.129L150.582 203.112L150.908 204.095L151.563 205.076L152.218 205.732L154.182 207.042L155.165 207.369L156.148 208.024L158.112 208.679L159.094 209.661L159.749 210.644V211.626L160.078 212.936V214.245L160.404 215.555L160.731 216.538L162.041 217.847L163.023 218.501L163.678 219.485L164.661 220.139L165.316 220.794L166.298 221.448L166.954 222.104L167.935 222.758L168.59 223.414L169.245 224.396L169.9 225.051L170.555 226.033L171.21 226.687L171.864 227.671L172.192 228.326L173.502 230.29L174.157 230.944L175.14 231.273L176.121 231.927L177.104 232.254L177.76 232.91L179.723 233.563L180.707 234.22L181.688 234.547L182.343 234.873L183.326 235.529L185.29 236.184L185.946 236.839L186.927 237.167L187.909 237.82L189.874 238.476L190.529 239.459L191.839 240.769L192.822 241.423L193.476 242.406L194.786 243.716L195.768 244.37L196.423 245.353L197.733 246.663L198.715 247.316L199.37 248.3L200.68 249.61L201.009 250.919L201.335 251.902V256.812L201.009 257.796V258.778L200.352 259.76L200.025 261.07L199.699 261.725L199.042 262.707L198.715 263.362L198.389 264.345L197.405 264.998L196.75 265.654L195.768 266.308L194.458 267.618L193.148 267.946H192.166L190.203 268.601H189.219L187.256 269.256H186.272L184.962 269.584H183.98L182.017 270.239H181.033L180.051 270.565L179.07 271.221L178.741 272.203V274.168L178.413 275.15V277.115L178.086 278.097V281.044L177.76 282.027V283.664L178.413 284.646L179.396 285.301L180.378 285.629L181.36 286.283L182.343 286.611L183.653 286.937L184.636 287.593L186.6 286.937L187.256 286.283L187.909 285.956L188.564 285.301L189.219 284.974L191.184 284.319H193.476L194.458 284.646L195.442 285.301L196.095 285.956L197.079 286.611L197.733 287.266L198.389 288.247L199.042 288.903L199.699 289.885L200.352 290.54L201.662 292.505L201.989 293.16L202.644 294.142L202.972 295.123L203.628 296.107L204.282 298.071V299.381L204.609 300.691L204.936 301.673L206.246 303.638L206.575 304.293L207.229 305.275V307.239L207.556 308.222V310.187L207.885 311.495V312.805L207.556 314.115L206.901 315.425L205.919 316.408L203.954 317.718L203.299 318.046L202.318 318.701H201.662L200.68 319.028H199.699L198.715 319.355H197.733L196.75 319.681H195.768L194.458 320.01H193.476L192.494 320.338H191.513L190.529 320.665H188.564L187.256 320.991H186.272L184.307 322.957L183.653 325.577V326.887L184.962 328.851L185.617 329.177L186.6 329.834L187.256 330.487L188.237 331.143L189.219 332.126L189.874 333.436L191.513 335.073V339.002L191.184 340.312L190.856 341.293L190.529 341.949L187.256 345.224L186.272 345.878L184.962 347.188L184.636 348.169L183.98 348.825L183.326 349.808L182.998 350.463L182.343 351.445L181.688 353.41L182.017 354.72L182.67 355.374L183.653 355.702L184.636 356.355L186.6 357.012L187.582 357.665L188.893 358.649L189.547 359.959L188.564 361.922L188.237 362.906L186.272 364.215H184.307L182.343 363.561H181.36L180.378 363.232H178.086L177.104 363.561L176.45 363.888L175.466 364.542L174.812 365.198L173.831 365.851L173.174 366.508L172.192 367.162L171.537 367.817L170.555 368.472L169.9 369.127L168.918 369.782L168.264 370.437L167.28 371.092L166.625 371.747L165.644 372.074L164.335 373.056L163.351 374.037L163.023 375.349L162.369 376.658L162.041 377.641V380.914L161.714 381.897V389.429L161.388 390.41V392.376L161.714 393.357V395.323L162.041 396.305V397.615L162.369 398.596V404.819L162.041 405.801L161.388 406.456L161.059 407.438L160.404 408.093L159.749 409.075L159.094 409.729L158.439 411.039L157.784 412.022L157.458 413.332L157.129 414.315V415.297L156.802 416.279V417.262L156.475 418.244V419.225L156.148 420.209V421.191L155.82 422.173V422.828L155.492 423.81L154.837 424.793L153.855 425.448L152.545 425.775H151.563L150.253 425.448L148.943 424.793L148.288 424.138L147.306 423.483L145.996 422.173L145.341 421.191L144.687 420.535L143.706 419.881L142.396 418.571L140.43 417.262L138.465 416.607H137.483L136.5 416.279H135.519L134.536 415.952L133.226 415.624H132.244L131.261 415.297L130.606 414.968L129.953 413.987V413.005L130.279 412.022L129.624 410.058L128.314 408.748L127.659 407.766L127.004 407.111L126.35 406.128L122.748 402.527L121.767 401.872H120.783L119.801 401.543H108.341L107.685 401.872L106.703 402.199L106.048 402.853L105.066 403.181L104.411 403.509L102.446 404.819L101.791 405.472L99.8265 406.782L99.1716 407.438L98.1893 407.766L97.2083 408.421L96.5521 408.748L95.5697 409.403L94.5888 409.729L93.9325 410.058L92.9502 410.713L92.2953 411.039L91.3129 411.368L90.0031 412.022L85.0928 413.658L84.4366 414.315L83.4543 414.968L82.4733 415.297L81.817 415.952L80.8361 416.607L80.1798 416.934L79.1975 417.589L77.2328 418.244H75.5969L74.6132 417.915H73.6309L72.3211 417.589L70.3564 416.934L69.7015 416.607L67.7369 415.952L67.082 415.624L66.101 415.297L65.4447 414.642L64.4638 414.315L63.4801 413.658L62.8252 413.005L62.1703 412.022L61.5154 411.368L60.5344 410.713L59.8782 410.385L59.2247 410.713V411.368L58.8958 412.349L59.2247 413.658L60.2056 416.607V417.915L59.8782 418.899L59.5507 419.554L58.8958 420.209L58.5684 421.191L57.9149 421.844V422.828L57.5861 423.81L57.9149 425.448L58.5684 426.101L60.5344 427.411L61.188 428.067L62.1703 428.395L63.154 429.05L63.8075 429.704L64.135 430.687L63.4801 431.669L62.8252 431.997L61.8442 432.324L60.5344 432.652L59.5507 432.324H58.5684L57.5861 431.997H56.6037L55.2939 431.669H53.3293L52.3483 431.34H51.3646L50.3823 431.014H49.3999L48.0915 430.687H47.1078L46.1255 430.359L45.1431 431.014L44.4882 431.997L44.1621 432.979V433.961L44.4882 435.271L44.8157 436.253L46.1255 438.217L46.4529 439.2L47.1078 440.183L47.7627 442.147L48.0915 443.457V444.44L48.4176 445.749V447.059L48.0915 448.369L47.7627 449.351V450.006L47.1078 450.66L46.7817 451.643L45.798 452.298L44.4882 453.608L43.5059 453.935L42.8524 454.263L41.8687 454.589H40.2315L39.2491 454.263H37.2858L35.976 453.935H34.01L33.0276 453.608H31.063L30.0807 453.279H27.7899L26.8062 452.953H25.8239L24.8415 452.626H23.8592L23.2043 452.298L20.2573 451.316H19.275L16.3279 450.334H15.347L13.3809 451.643L12.7274 452.626L12.0712 453.279L11.4176 454.589L10.7614 455.573V456.882L11.0888 457.865L11.4176 458.52L13.0535 460.156L14.0372 460.812L14.6907 461.465L16.6554 462.775L17.3103 463.431L18.294 464.085L20.2573 466.051L20.5847 467.032L20.2573 467.688L19.9298 468.67L19.275 469.325L18.9475 470.308L18.294 471.29L17.9652 471.945L17.6377 472.927L16.9842 473.582L16.6554 474.237L16.0005 475.218L15.6731 475.874L15.0182 476.528L14.0372 477.184L13.3809 477.838L12.3986 478.166H10.1079L9.12415 477.838H6.17714L5.52225 478.166L5.19481 479.147L5.52225 480.786L6.17714 481.441L6.83202 482.423L8.79807 483.733L9.45159 484.388L10.4339 485.043L11.7437 486.353L12.7274 487.007L13.3809 487.662L14.0372 488.643L14.6907 489.3L15.347 490.282L15.6731 490.937L16.9842 492.9L17.3103 493.884L17.9652 494.539L18.294 495.52L18.9475 496.503L19.275 497.486L19.9298 498.141L20.5847 499.123L21.2396 499.776L22.2233 500.433H23.2043L23.8592 500.76L24.8415 501.086H25.8239L26.8062 501.743L27.4611 502.396L27.7899 503.38V505.016L27.4611 505.672L27.1336 506.654L26.4801 507.636L25.1703 508.946L21.2396 510.256L20.5847 510.582L19.6038 510.911L18.6201 511.566L17.3103 512.876L16.6554 513.858L16.3279 514.513L15.6731 515.495L14.3633 516.805L13.7084 517.787L11.7437 519.752L11.4176 520.734L10.4339 521.388L9.12415 522.699L8.14181 523.354L7.48692 524.335L6.17714 525.645L5.19481 526.301L4.54128 526.954L3.88502 527.938L3.2315 528.593L2.24779 529.248L0.938014 530.558L-0.0443234 531.213L-0.699219 532.195L-0.371766 533.177Z" stroke-width="1.30978" style="stroke: #1f1f1f;"/>
    <g opacity="0.408">
      <path d="M195.766 244.37L202.325 243.422L206.906 237.306L213.787 232.943L236.315 228.52L236.691 220.114L228.785 214.128L220.84 211.536C219.435 207.877 218.383 204.082 217.702 200.222C217.2 197.382 216.9 194.505 216.803 191.622L225.309 186.133L231.568 188.521L229.913 198.335C236.229 197.168 242.533 195.933 248.822 194.632C250.898 194.203 252.972 193.766 255.044 193.323L255.699 189.393L267.814 184.809L269.124 178.914L268.143 172.366L257.337 174.003L251.114 160.578L240.309 159.596L236.379 155.665L242.928 151.41L227.694 133.941L229.176 128.816L241.291 128.161L242.928 122.267L234.415 111.134L239.655 100.983L224.919 89.1949L215.75 85.2656L228.193 67.2561L236.052 73.4775L244.238 78.3892L251.771 77.0794L247.185 62.3444L249.805 58.0876L265.849 53.502L270.106 58.7411L278.373 47.5859" stroke="white" stroke-width="1.09148"/>
      <path d="M204.945 241.457L211.214 246.248L205.273 247.351L207.892 254.882L211.494 252.589L216.733 259.794L220.99 255.865L219.68 263.723L225.574 269.945L233.433 268.308L237.69 275.837L250.575 278.053L253.409 284.352L247.842 284.68L252.097 291.229L264.54 292.47L273.381 298.433L276.983 295.158L274.364 288.609L279.277 287.953L284.842 292.866L285.824 287.953L274.036 283.043L271.744 277.147L284.187 281.078C282.498 277.665 280.751 274.281 278.948 270.927C278.3 269.723 277.645 268.522 276.983 267.325L283.86 263.723L301.542 250.298L309.728 250.626L312.347 257.174L316.604 264.378L316.932 272.237L311.365 270.6L313.331 274.528L319.224 275.837L326.428 273.547L328.065 267.651L335.596 265.033L339.853 261.104C342.062 262.267 344.27 263.431 346.479 264.594C348.616 265.719 350.752 266.845 352.889 267.97L358.517 267.325L360.154 263.395L373.254 262.414L399.448 283.697L409.271 295.486L410.908 302.689L416.148 309.238L430.901 309.062" stroke="white" stroke-width="1.09148"/>
      <path d="M190.202 544.965L176.131 529.607L175.477 518.148L171.548 516.838L165.325 510.617L164.998 502.103L178.097 503.086L182.025 506.359L193.159 505.705L192.83 498.173L193.813 488.677L192.83 485.076L198.07 476.234L197.742 457.571L187.591 465.102H177.113L167.945 457.242L162.378 439.889L150.263 440.544L145.023 433.34L150.59 434.977L150.252 425.447" stroke="white" stroke-width="1.09148"/>
    </g>
  </g>
  <defs>
    <clipPath id="clip0_125_1039">
      <rect width="532.8" height="628.043" fill="white"/>
    </clipPath>
  </defs>
</svg>