<?xml version="1.0" encoding="utf-8"?>
<svg width="533.28833" height="694.32562" viewBox="22.653 19.412 382.949 497.821" id="svg2" version="1.1" xmlns="http://www.w3.org/2000/svg">
  <g id="layer3" style="display:inline" transform="translate(-48.441334,-21.997645)">
    <path style="fill:#fefee9;fill-opacity:1;stroke:transparent;stroke-width:0.95999998;stroke-linecap:butt;stroke-linejoin:miter;stroke-opacity:0;stroke-dasharray:none" d="m 89.125818,445.93816 0.721,0.48 0.479,0.239 0.721,0.481 0.719,0.24 0.48,0.48 0.721,0.48 1.439,0.48 1.441,0 0.719,0.24 1.441,0 0.719,0.24 1.440002,0 0.721,0.239 1.439,0 0.96,0.241 0.721,0 0.719,0.24 1.44,0 0.721,0.24 0.719,-0.24 0.96,0 0.481,-0.481 0.239,-0.719 0.48,-0.96 0.241,-0.72 0.479,-0.481 0.24,-0.479 0.96,-0.48 0.72,-0.48 2.88,-0.96 0.96,-0.24 0.48,0 0.72,-0.24 1.2,0 0.72,0.24 0.72,0.479 1.2,1.201 0.48,0.24 0.72,0.48 1.441,0.48 0.719,0.48 1.44,0.48 0.961,0.719 0.719,0 0.72,0.241 0.72,0 1.44,0.48 0.72,0 0.72,0.239 0.72,0 0.96,0.241 0.72,0.24 0.72,0 1.44,0.479 0.72,0 0.72,0.241 0.72,0 1.44,0.48 0.721,0 0.719,0.239 0.72,0 1.441,0.481 0.719,0 1.441,0.48 0.719,0 0.72,0.239 0.72,0 1.44,0.481 0.72,0 1.44,0.479 0.72,0 0.72,0.241 0.721,0 0.96,0.24 0.719,0.24 0.72,0 1.44,0.48 0.72,0 0.72,0.24 0.721,0 1.439,0.479 0.72,0 1.44,0.481 0.72,0 0.721,0.24 0.719,0 1.44,0.48 0.721,0 2.879,0.96 0.48,0.24 0.721,0.48 1.439,0.48 0.481,0.48 1.439,0.48 0.48,0.24 0.72,0.479 1.441,0.481 0.479,0.479 2.16,0.721 0.72,0 0.96,-0.24 0.96,-0.96 0.48,-0.72 0.72,0 1.441,-0.48 0.959,-0.241 0.72,0 0.72,-0.239 4.32,0 0.481,-0.24 0.719,0 1.44,-0.481 0.721,-0.479 0.719,-0.24 -0.24,-0.96 -0.479,-0.481 -0.481,-0.239 -0.72,-0.48 -0.48,-0.48 -0.72,-0.24 -0.479,-0.481 -0.721,-0.239 -0.72,-0.48 -0.24,-0.48 0,-0.48 0.24,-0.48 0.48,-0.72 0.48,-0.241 0.72,-0.479 0.721,-0.24 0.719,-0.48 1.44,-0.48 0.721,-0.48 1.439,-0.48 0.721,-0.48 2.159,-0.721 0.96,-0.239 0.721,0 1.439,-0.48 1.2,0 0.96,0.48 0.481,0.48 0.239,0.719 0.48,0.481 0.48,0.72 0.48,0.48 0.241,0.48 0.96,0.96 0.719,0.48 0.96,0.96 0.72,0.479 0.48,0.481 0.72,0.479 0.481,0.241 0.479,0.48 0.72,0.48 1.44,0.48 0.481,0.239 0.719,0.481 1.44,0.479 0.48,0.241 0.72,0.48 1.441,0.479 0.479,0.481 2.16,0.72 0.72,0.48 0.96,0 0.721,-0.24 0.239,-0.72 -0.239,-0.721 0,-2.399 0.719,-0.721 0.72,-0.479 0.48,-0.24 0.72,-0.241 1.2,0 0.48,0.241 2.16,0.719 0.96,-0.239 0.48,-0.48 0,-1.68 -0.24,-0.96 0.24,-0.48 0.48,-0.72 1.44,-0.481 0.96,0 0.72,-0.239 0.72,-0.48 0.48,-0.241 0.48,-0.479 0.72,-0.24 0.48,-0.48 0.721,0 0.719,-0.24 0.72,0 2.16,-0.72 0.241,-0.48 0.479,-0.48 0.24,-0.72 0.481,-0.96 0.96,0 0.479,0.24 2.16,0.72 0.48,0.24 1.44,0.48 0.481,0.48 0.479,0.719 0,1.441 -0.24,0.72 0,1.44 -0.239,0.72 0,11.76 0.239,0.72 0,0.72 0.721,2.16 0.239,0.48 0.48,0.719 0.48,0.481 0.24,0.72 0.96,0.959 0.24,0.721 0.96,0.96 0.48,0.72 1.44,1.439 0.481,0.721 1.439,1.439 0.24,0.721 0.48,0.48 0.721,0.48 0.96,0.96 0.719,0.48 1.441,1.44 0.719,0.48 0.96,0.959 0.72,0.481 0.24,0.479 0.48,0.481 0.48,0.72 0.48,0.48 0.24,0.72 0.24,0.479 0.24,0.721 0,1.68 -0.24,0.719 -0.48,0.721 -0.239,0.72 -0.481,0.72 -0.24,0.96 -0.239,0.719 -0.241,0.961 0,2.159 0.241,0.721 0,2.88 0.239,0.72 0,0.719 0.48,1.441 0.48,0.96 0.72,0.479 0.48,0.481 0.721,0.479 0.719,-0.479 0.241,-0.72 0.479,-0.721 0.96,-0.479 0.72,-0.24 1.68,0 0.72,0.48 0.481,0.72 0.239,0.479 0,0.721 0.24,0.72 0,0.96 0.481,1.44 1.439,1.44 0.24,0.48 0.241,0.96 0.239,0.48 0,0.48 0.48,0.479 0.48,0.721 0.48,0.48 0.72,0.48 0.721,0.239 0.479,0.481 1.441,0.96 0.479,0.479 0.72,0.481 0.721,0.72 0.239,0.48 0.24,0.72 0.24,0.48 0.24,0.72 0,2.399 -0.24,0.96 -0.24,0.721 -0.479,0.479 -0.241,0.481 -0.24,0.24 -0.72,0.48 -0.48,0.24 -0.72,0 -0.96,0.24 -1.439,0 -0.481,0.48 -0.48,0.719 0,0.721 -0.239,0.72 0,0.72 -0.241,0.72 0.241,0.96 0,0.48 0.239,0.48 0.48,0.72 0.72,0.96 0.48,0.96 0.241,0.72 -0.241,0.959 0,0.96 0.48,0.96 0.48,0.241 0.48,0 1.92,-1.92 1.44,-0.72 1.441,-0.48 0.479,-0.241 0.72,0 0.721,-0.239 1.679,0 0.72,0.239 0.721,0 0.719,0.241 0.72,0 0.72,0.24 0.721,0 0.96,0.24 0.719,0 0.72,0.24 0.721,0 0.719,0.239 0.72,0 0.72,0.241 0.721,0 0.96,0.24 6.239,0 0.721,-0.24 0.479,-0.48 0.48,-0.72 0.48,-0.48 0.24,-0.96 0.24,-0.721 0.72,-2.88 0.481,-0.719 0.719,-0.24 0.48,-0.241 0.721,0 0.96,0.721 0.479,0.24 0.96,0.96 0.721,0.48 0.96,0.24 0.719,0 0.72,-0.24 0.481,-0.241 0.719,-0.239 0.48,-0.48 0.72,-0.48 0.96,-0.961 0.72,-0.479 0.481,-0.24 0.479,-0.48 0.72,-0.24 0.96,0 0.721,-0.24 0.719,0 0.72,-0.241 1.44,0.481 0.72,0 1.441,0.479 0.719,0 1.441,0.481 0.719,0 1.44,0.479 0.721,0 1.439,0.481 0.72,0 2.16,0.719 0.721,-0.479 0.719,-0.24 0.48,-0.48 0.721,-0.24 0.719,-0.48 0.48,-0.241 0.72,-0.479 0.72,-0.24 1.2,-1.201 0.241,-0.479 1.199,-3.601 0.48,-0.719 0.241,-0.48 0.719,-0.721 0.48,0 1.44,1.441 0.481,0.72 0.479,0.24 0.72,0.48 0.48,0.48 1.44,0.96 0.721,0.24 0.719,0 0.72,-0.24 0.48,-0.48 0.241,-0.96 0,-1.44 -0.241,-0.481 0,-0.96 0.48,-1.439 0.48,-0.481 0.48,-0.719 0.48,-0.48 0.48,-0.72 0.48,-0.48 0.72,-0.24 0.96,-0.481 1.44,0.96 0.48,0.481 0.96,0.48 0.721,-0.48 0.479,-0.481 0.24,-0.96 0.48,-1.439 0.24,-0.481 0.481,-0.719 0.239,-0.72 0.48,-0.48 0.481,-0.72 0.719,-0.72 0.48,-0.24 0.48,-0.481 0.96,-0.479 0.96,0.24 0.96,0 0.72,0.239 0.96,0.241 0.721,0.24 0.719,0.479 0.72,0.241 1.441,0.96 0.479,0 0.481,0.24 2.399,0 0.721,-0.24 0.719,0 0.72,-0.24 0.72,0 1.44,-0.48 0.96,-0.481 0.481,-0.479 0.239,-0.72 0,-1.44 -0.48,-1.44 -0.24,-0.48 0,-0.96 0.481,-0.96 0.96,-1.441 0.719,-0.479 0.48,-0.24 2.16,0.719 0.721,0 0.719,0.241 0.48,0.24 0.96,-0.24 0.96,-0.96 0,-0.48 -0.239,-0.48 -0.481,-0.48 0,-0.96 0.24,-0.961 1.68,-1.679 0.72,-0.241 0.48,-0.239 0.96,-0.24 0.72,0.24 2.16,1.44 0.72,0.24 0.721,0.479 0.719,0.241 1.2,0.24 0.72,-0.24 0.481,-1.44 0.239,-0.96 0,-4.801 0.24,-0.719 0.481,-0.48 0.96,-0.24 1.679,0 0.72,0.479 0.721,0.241 0.719,0.48 0.48,0.48 0.721,0.24 0.479,0.479 0.72,0.241 0.721,0.48 0.479,0.48 0.721,0.24 0.479,0.48 0.72,0.48 0.721,0.24 0.479,0.479 0.72,0.481 0.721,0.24 0.479,0.48 0.72,0.24 0.48,0.24 0.72,-0.24 0,-0.481 -0.239,-0.719 -0.481,-0.72 -0.48,-0.481 -0.48,-1.439 0.48,-0.48 0.961,0 0.719,0.24 0.72,0 1.441,0.48 2.399,0 0.96,-0.24 1.44,0 0.72,-0.48 0.72,-0.241 0.721,-0.479 0.719,0 0.72,-0.24 1.92,0 3.601,1.2 0.719,0 0.72,0.24 4.08,0 1.44,-0.721 0.96,-0.96 0.48,-0.719 0.48,-1.92 0,-0.48 0.13409,-0.78673 -2.26792,0.65327 -0.48,0.239 -0.72,0 -0.719,-0.239 -1.681,0 -0.72,-0.24 -0.479,-0.24 -2.16,-0.72 -0.721,-0.48 -0.72,-0.241 -2.16,-1.439 -0.48,-0.481 -0.719,-0.479 -0.961,-0.96 -0.48,-0.72 -0.719,-0.48 -0.481,-0.72 -0.479,-0.48 -0.241,-0.72 0,-0.72 -0.24,-0.48 -0.24,-0.72 0,-0.72 -0.239,-0.721 0,-3.12 -0.481,-1.439 0,-0.72 -0.479,-1.44 0,-0.72 -0.481,-1.44 -0.24,-0.48 -0.48,-0.721 -0.24,-0.479 -0.24,-0.72 -0.479,-0.48 -0.481,-0.72 -1.439,-0.96 -0.481,-0.48 -4.32,-1.44 -0.96,0 -1.44,-0.48 -0.48,-0.241 -1.44,-0.479 -0.72,-0.481 -0.48,-0.239 -0.719,-0.24 -0.481,-0.72 -0.24,-0.48 -0.48,-0.72 -0.24,-0.721 -0.479,-0.719 -0.241,-0.72 -0.48,-0.481 -1.199,-3.599 0,-0.72 -0.721,-2.16 0,-0.96 -0.72,-2.16 0,-0.72 -0.719,-2.16 0,-0.72 -0.721,-2.16 0,-0.721 -0.72,-2.159 0,-0.721 -0.479,-1.439 -0.241,-0.96 -0.24,-0.721 0,-0.719 -0.72,-2.161 0,-0.719 -0.48,-1.44 0,-1.44 -0.239,-0.72 0,-0.721 1.199,-1.199 0.48,-0.721 0.48,-0.479 0.721,-0.48 0.719,-0.24 0.48,-0.24 0.721,-0.24 0.719,-0.481 1.441,-0.479 0.479,-0.24 0.72,-0.48 2.16,-0.721 0.481,-0.479 2.16,-0.72 -0.481,-0.721 -0.479,-0.479 -0.481,-0.72 -0.48,-0.48 -0.48,-0.72 -0.48,-0.48 -0.48,-0.72 0,-3.12 -0.24,-0.72 0,-1.681 0.24,-0.719 0,-1.44 0.241,-0.96 0,-2.16 -0.241,-0.96 -0.24,-0.721 0,-0.719 -0.479,-1.44 0,-0.96 -0.241,-0.72 -0.48,-0.72 -0.239,-0.72 -0.481,-0.721 -0.96,-0.96 -0.72,-0.479 -0.48,-0.24 -2.16,-1.44 -0.72,-0.24 -1.92,-1.92 0,-0.96 -0.24,-0.721 0,-1.439 0.24,-0.48 0,-2.88 -0.24,-0.72 0,-0.96 -0.239,-0.481 -0.241,-0.719 -0.48,-0.72 -0.24,-0.721 -0.48,-0.719 -0.48,-0.48 -0.96,-1.44 -0.48,-0.48 -0.48,-0.721 -0.96,-2.879 0,-4.56 0.24,-0.721 0,-2.399 -0.24,-0.96 -0.239,-0.72 -1.441,-2.16 -0.48,-0.24 -0.72,-0.481 -0.479,-0.239 -0.721,-0.24 -0.96,-0.24 -0.72,-0.241 -0.72,0 -0.48,-0.479 -0.48,-0.72 -0.48,-0.48 0,-0.72 -0.24,-0.72 0,-6.72 -0.48,-1.44 0,-0.96 0.72,0 1.44,-0.48 0.72,0 1.441,-0.48 0.96,0 1.439,-0.48 0.721,0 1.92,-1.92 0.479,-1.441 0.24,-0.96 0.48,-1.439 -0.239,-0.481 -0.241,-0.719 -0.48,-0.48 -0.239,-0.72 -0.721,-0.241 -0.48,-0.479 -0.719,-0.24 -0.481,-0.48 -2.88,-0.96 -2.4,0 -0.72,-0.24 -1.679,0 -0.721,0.24 -0.72,0 -1.439,0.48 -0.721,0 -1.439,0.48 -0.721,0 -2.159,0.72 -0.721,0 -0.72,0.24 -0.72,0 -0.72,-0.24 -2.4,0 -0.719,-0.24 -0.721,-0.48 -0.48,-0.48 -0.48,-0.72 -0.72,-0.481 -1.679,-1.679 -0.721,-2.16 -0.48,-0.72 -1.679,-5.04 0,-0.72 -0.241,-0.721 -0.24,-0.96 0,-0.719 -0.24,-0.72 0,-0.72 -0.239,-0.72 0,-0.72 -0.241,-0.72 0,-0.721 -0.24,-0.719 0,-0.96 -0.24,-0.72 0,-0.72 -0.24,-0.72 0,-0.72 -0.239,-0.72 0,-0.721 -0.241,-0.719 0,-0.96 -0.48,-1.44 0,-0.72 -0.239,-0.72 0,-0.72 -0.241,-0.721 -0.24,-0.96 -0.479,-1.439 -0.241,-0.96 -1.44,-1.44 -0.239,-0.72 -2.881,-0.96 -0.72,0 -0.72,0.24 -0.719,0 -0.721,0.239 -0.48,0.241 -0.719,0.24 -0.721,0.479 -1.439,0.481 -0.721,0 -0.48,0.24 -0.719,0 -0.721,-0.24 -0.72,-0.481 -0.479,-0.479 -0.721,-0.481 -1.439,-0.479 -0.481,-0.481 -0.72,-0.239 -0.719,0 -0.721,0.239 -0.72,0 -0.72,0.481 -0.48,0.24 -1.439,0.96 -0.481,0.239 -1.439,0.96 -0.481,0.241 -0.72,0.48 -0.719,0.24 -0.721,0.48 -2.16,0.719 -0.72,0.481 -1.439,0.479 -0.481,0.241 -0.72,0.48 -2.16,0.72 -0.719,0.479 -4.321,1.441 -0.719,0 -0.96,0.24 -0.721,0.24 -0.72,0 -1.439,0.48 -0.721,0 -2.16,0.719 -0.72,-0.239 -3.12,0 -0.96,-0.24 -3.12,0 -0.72,-0.24 -1.44,0 -0.96,-0.24 -0.72,-0.48 -0.96,-0.24 -1.92,-1.92 -0.24,-0.72 -0.239,-0.48 -0.481,-1.44 -0.48,-0.72 0,-0.72 -0.239,-0.481 0,-0.719 -0.241,-0.72 0,-0.72 -0.719,-2.16 -0.241,-0.96 -1.92,-1.92 -0.719,0 -0.721,-0.24 -0.72,0 -0.48,-0.24 -2.159,0 -0.96,0.24 -0.721,0 -0.72,0.24 -0.72,0 -0.72,0.239 -0.72,0 -0.72,0.241 -0.719,0 -0.721,0.24 -0.96,0.24 -0.72,0 -2.88,-0.96 -0.96,-0.48 -2.88,-0.96 -0.48,-0.241 -5.76,-1.919 -0.719,-0.48 -0.721,-0.24 -0.72,0 -0.72,-0.24 -0.719,0 -0.721,-0.241 -0.72,0 -0.72,-0.239 -0.72,0 -0.72,0.239 -0.72,0 -2.16,0.721 -0.72,0 -0.719,0.24 -0.961,0.96 -0.72,0.48 -0.479,0.48 -0.721,0.48 -0.96,0.96 -0.72,0.48 -0.479,0.48 -0.721,0.24 -0.48,0.479 -0.72,0.241 -0.48,0.24 -0.96,-0.24 -0.719,0 -0.96,-0.241 -2.161,-0.719 -0.72,-0.48 -1.44,-0.48 -0.719,-0.48 -2.161,-0.721 -0.719,-0.479 -2.16,-0.72 -0.721,-0.48 0.721,-0.48 0.719,-0.24 0.48,-0.48 0.72,-0.48 0.48,-0.48 0.721,-0.241 0.479,-0.479 1.441,-0.96 0.479,-0.481 0.72,-0.239 0.48,-0.48 0.72,-0.48 0.96,-0.96 0.48,-0.72 0.96,-0.96 0.48,-0.72 0.96,-0.96 0.721,-0.481 0.479,-0.719 0.481,-0.48 0.239,-0.72 0.24,-0.48 0.48,-0.721 0.48,-1.439 0.48,-0.72 0.241,-0.48 0.239,-0.72 0.48,-0.72 0.48,-1.44 0,-0.72 -0.239,-0.721 0,-0.719 -0.241,-0.72 0,-0.72 -0.24,-0.721 0,-0.719 -0.24,-0.96 0,-0.72 -0.239,-0.721 -0.721,0.481 -0.48,0.479 -0.72,0.241 -0.72,0.48 -2.16,0 -0.96,-0.24 -0.72,0 -1.44,-0.481 -0.96,-0.479 -0.72,-0.24 -1.439,-0.96 -0.481,-0.48 -0.72,-0.48 -0.96,-0.96 -0.72,-0.48 -0.48,-0.72 -0.48,-0.48 -0.48,-0.721 -0.48,-0.479 -0.48,-1.92 0.241,-0.72 0.479,-0.721 0.72,0 1.44,-0.479 0.96,0 0.96,-1.44 0.24,-0.72 0,-0.72 0.241,-0.721 -0.241,-0.719 0,-0.48 -0.24,-0.721 0,-0.719 -0.24,-0.72 -0.239,-0.48 0,-1.68 -0.241,-0.72 0.48,-1.44 0,-0.72 0.721,-2.16 0.239,-0.96 0.48,-1.441 0,-4.799 -0.24,-0.96 0,-0.72 -0.72,-2.16 -0.24,-0.96 -0.24,-0.72 -0.239,-0.48 -0.481,-0.72 -0.24,-0.72 -0.48,-0.48 -0.24,-0.72 -0.48,-0.48 -0.48,-0.72 -1.44,-1.441 -0.48,-0.719 -0.96,-0.96 -0.48,-0.72 -0.96,-0.96 -0.48,-0.72 -0.48,-0.48 -0.24,-0.72 -0.48,-0.48 0,-0.72 -0.48,-1.441 0,-0.719 -0.239,-0.72 0,-0.72 -0.241,-0.72 0,-0.72 -0.24,-0.96 -0.479,-1.441 -1.441,-0.96 -0.479,-0.479 -0.721,-0.24 -0.72,0 -3.599,-1.2 -0.241,-0.48 -0.48,-0.48 -0.239,-0.48 -0.481,-0.721 0.481,-1.439 0,-0.72 0.719,-2.16 0,-0.96 0.72,-0.24 0.72,-0.481 0.721,-0.239 0.719,-0.48 0.48,-0.48 0.72,-0.24 1.44,-0.96 0.721,0 2.159,-0.72 0.721,0 2.16,-0.72 0.96,0 2.159,-0.72 0.721,0 2.16,-0.72 0.719,0 1.44,-0.48 0.721,0 2.16,-0.72 0.96,0 2.159,-0.72 0.721,0 2.16,-0.721 9.599,0 0.72,-0.239 0.481,-0.24 0.719,-0.24 0.96,-0.96 0.481,-0.72 0.96,-0.96 0.479,-0.721 0.96,-0.96 0.481,-0.719 0.96,-0.96 0,-5.52 -0.241,-0.72 0,-3.121 -0.48,-1.439 -0.239,-0.481 -0.481,-0.719 -0.96,-2.88 -0.479,-0.72 -0.241,-0.48 -0.719,-2.16 -0.721,-0.48 -0.48,-0.48 -0.48,-0.72 -0.96,-0.96 -0.72,-0.481 -0.48,-0.719 -0.96,-0.96 -0.72,-0.48 -0.479,-0.48 -0.721,-0.48 -0.72,-0.72 -0.719,-0.48 -0.96,-0.96 -0.481,-0.721 -0.479,-0.479 -0.481,-0.72 -0.72,-0.48 -0.48,-0.72 -0.96,-0.96 -0.72,-0.48 -0.48,-0.48 -0.72,-0.48 -0.479,-0.241 -1.681,0 -1.44,0.481 -0.48,0.479 -0.72,0.241 -0.719,-0.241 -0.96,-0.239 0,-1.44 -0.241,-0.72 0,-0.72 -0.48,-1.92 -0.48,-0.48 -0.24,-0.481 -0.72,-0.239 -0.719,-0.48 -0.481,-0.48 -0.96,-0.721 -0.48,-0.719 -0.239,-0.48 -0.481,-0.721 -0.479,-0.479 -0.481,-0.72 -0.479,-0.48 -0.96,-1.441 -0.481,-0.479 -0.479,-0.72 -0.96,-0.96 -0.721,-0.48 -0.479,-0.241 -0.481,-0.479 -0.72,-0.48 -6.719,0 0,-1.92 0.719,-2.161 0,-0.479 0.241,-0.72 0,-1.44 -0.241,-0.96 0,-0.72 -0.48,-1.44 -0.96,-1.44 -0.239,-0.48 -1.441,-2.16 -0.24,-0.72 -0.239,-0.481 -0.481,-1.439 -0.24,-0.481 -0.479,-0.719 0,-0.72 -0.241,-0.721 0,-0.719 -0.24,-0.72 0,-0.72 -0.24,-0.721 0,-2.879 -0.239,-0.96 0,-3.6 -0.241,-0.72 0,-1.68 -0.24,-0.72 0,-1.920004 0.24,-0.72 0.48,-0.72 0.48,-1.44 0.48,-0.721 0.24,-0.719 0.48,-0.72 0,-2.64 -0.24,-0.72 0,-0.72 -0.96,-2.88 -0.48,-0.481 -0.48,-1.439 -0.48,-0.721 -0.239,-0.479 -0.481,-0.72 -0.479,-0.48 -0.241,-0.72 -0.48,-0.481 -0.96,-1.439 -1.2,-1.2 -0.48,-0.72 -0.719,-0.24 -0.721,-0.481 -0.48,-0.479 -1.44,-0.96 -0.48,-0.24 -0.719,-0.48 -0.481,-0.48 -1.44,-0.96 -0.48,-0.24 -1.44,-0.96 -0.96,-0.96 -0.96,-1.44 -0.48,-0.48 -0.24,-0.72 -0.48,-0.72 -0.48,-1.44 -0.48,-0.72 -0.239,-0.721 -0.241,-0.479 -0.24,-0.72 -0.479,-0.721 -0.481,-1.439 -0.479,-0.72 -0.481,-0.48 -0.479,-0.72 -0.481,-0.48 -0.24,-0.72 -0.48,-0.481 -1.44,-0.96 -0.479,-0.239 -1.441,-0.96 -0.479,-0.24 -1.441,-0.96 -0.479,-0.48 -0.721,-0.48 -0.96,-0.96 -0.72,-0.48 -0.48,-0.72 -0.239,-0.481 -0.481,-0.719 -0.24,-0.72 -0.48,-0.72 -0.24,-0.48 -0.479,-0.72 -0.241,-0.721 -0.24,-0.96 -0.24,-0.719 -1.92,-2.88 -3.6,-1.2 -2.16,0 -0.96,-0.241 -3.12,0 -0.72,0.241 -0.72,0 -0.96,0.24 -0.72,0 -1.439,0.479 -0.96,0 -1.441,0.481 -0.719,0.48 -1.441,0.48 -0.72,0.48 -0.719,0.239 -0.721,0.481 -1.44,0.479 -0.72,0.481 -0.72,0.24 -0.72,0.48 -1.44,0.48 -0.72,0.48 -1.439,0.48 -0.481,0.72 -0.48,0.48 -0.72,0.48 -0.479,0.719 -0.481,0.481 -0.72,0.479 -0.48,0.721 -0.48,0.48 -0.719,0.48 -0.481,0.72 -0.479,0.479 -0.721,0.481 -0.479,0.72 -0.481,0.48 -0.72,0.479 -0.48,0.721 -0.48,0.48 -0.719,0 -0.721,0.24 -1.68,0 -2.4002,-3.601 0.24,-0.719 0,-1.44 0.24,-0.721 0,-1.679 0.241,-0.72 0,-0.721 0.239,-0.96 0,-1.439 -0.48,-0.72 -0.24,-0.48 -0.96,-1.44 -0.479,-0.48 -0.481,-0.72 -0.72,0.48 -0.719,0.24 -0.721,0.48 -0.479,0.48 -0.721,0.48 -0.48,0.72 -2.16,1.439 -2.4,0 -0.72,-0.239 -0.72,-0.48 -0.85248,-0.413768 -0.37349,0.547232 -0.239,0.48 -0.481,1.44 0,0.96 -0.72,2.16 0,1.44 -0.24,0.72 0,0.72 -0.24,0.719 0,0.721 -0.96,1.439 -0.479,0.481 -0.481,0.72 -0.24,0.719 -0.48,0.96 0,0.721 -0.24,0.96 0,1.68 -0.24,0.719 0,1.681 -0.239,0.96 -0.241,0.72 -0.96,1.44 -0.24,0.72 -2.16,2.16 -0.479,0.72 -0.481,0.479 -0.72,0.481 0,0.72 -0.24,0.72 -0.24,0.48 -0.239,0.719 0.239,0.721 0,2.4 0.24,0.719 0,3.12 0.24,0.721 0,2.4 0.241,0.72 0,0.72 0.239,0.72 0,0.719 2.16,0.721 0.721,0.48 1.439,0.48 0.96,0.239 1.441,0.481 0.479,0.479 0.721,0.481 0.96,0.96 0.479,0.719 0.481,0.481 0.719,0.479 0.241,0.481 0.479,0.72 0.481,0.48 0.479,0.72 0.24,0.479 0.48,0.721 0.961,0.96 0.719,0.479 0.241,0.721 0.479,0.72 0.24,0.72 0.241,0.48 0.479,0.72 0.72,0.24 1.44,0 0.72,0.239 2.16,0 0.72,0.241 0.24,0.72 0,1.44 -0.24,0.719 0,0.721 -0.239,0.72 -0.481,0.72 -0.479,1.44 -0.481,0.479 -0.24,0.721 -0.96,0.48 -2.16,0.719 -0.72,0 -0.72,0.241 -0.96,0 -0.719,0.24 -1.681,0 -0.96,-0.24 -0.72,-0.241 -0.96,-0.96 -0.48,-1.439 -0.48,-0.24 -0.719,0 -0.481,0.24 -0.48,0.72 -0.48,1.44 0,1.44 0.241,0.719 0,5.281 -0.481,1.92 -0.479,0.72 -0.241,0.72 -1.679,1.68 0,0.719 0.96,0.481 0.239,0.72 0.24,0.48 0.481,0.72 0.239,0.719 0.48,0.481 0.48,1.439 0,0.721 0.24,0.96 -0.479,0.48 -0.481,0.719 -0.24,0.721 -0.48,0.72 -1.44,0.48 -0.48,0.239 -5.759,1.92 -0.721,0 -0.96,0.241 -1.68,0 -0.48,0.48 -1.44,0.48 -1.2,1.2 -0.72,0.48 -0.48,0.48 -0.72,0.48 -0.48,0.72 -0.72,0.479 -0.479,0.481 -0.96,0.479 -0.721,0.481 -0.72,0 -0.96,-0.24 -2.16,0 -0.96,-0.241 -1.439,0 -1.441,0.481 -0.479,0.24 -0.721,0 0.96,2.88 0,1.68 -0.72,0 -2.16,0.719 -0.720002,0 -0.48,1.441 -0.48,0.479 -0.48,1.441 -0.48,0.719 -0.24,0.481 -0.72,2.16 -0.72,0.48 -0.72,0.24 -0.479,0.479 -1.441,0.961 -0.479,0.72 -0.721,0.479 -0.239,0.721 -0.96,1.44 -0.241,0.719 -0.48,0.721 -0.72,2.16 -0.24,0.96 -0.479,1.44 0,0.719 -0.241,0.721 0,0.72 0.241,0.96 0,0.719 0.479,1.441 0,0.96 0.481,0.72 0.239,0.719 0.24,0.961 1.44,4.32 0.241,0.48 0.479,0.72 0.24,0.48 0.96,1.44 0.48,0.48 0.48,0.72 0.72,0.479 0.96,0.96 0.48,0.721 0.72,0.48 0.481,0.48 0.479,0.72 0.481,0.48 0.719,0.48 0.480002,0.48 0.48,0.72 0.48,0.479 0,2.401 -0.48,0.719 -0.48,0.481 -0.239002,0.72 -0.481,0.48 -0.479,0.72 0,0.72 -0.241,0.719 0,1.441 0.241,0.719 0,0.721 0.719,0.72 0.960002,0.479 0.72,0.241 0.24,0.719 0.241,0.96 0,0.721 0.239,0.72 0,3.12 0.24,0.72 0,2.879 0.24,0.721 0.481,1.199 0.479,0.481 0.72,0.479 0.48,0.481 0.48,0.72 0,0.719 -0.239,0.481 -0.721,0.48 -0.96,0.239 -1.439,0.481 -0.721,1.439 -0.239,0.721 0,0.72 0.239,0.72 0,1.44 0.48,1.439 0.48,0.96 0.48,0.481 0.72,0.479 1.44,1.441 0.48,0.72 0.48,0.48 0.241,0.72 -0.481,0.96 -0.479,0.48 -1.441,2.159 -0.24,0 -0.239,0.241 -0.481,0 -0.96,-0.48 -0.719,-0.24 -0.721,-0.481 -0.720002,-0.239 -0.72,-0.48 -0.48,-0.241 -0.72,-0.479 -0.479,0 -0.241,0.479 0.241,0.721 0.239,0.96 0.721,2.16 0,0.72 0.239,0.96 -0.72,2.16 -2.16,1.44 -0.24,0.959 0,0.721 -0.239,0.96 0.239,0.72 0,0.479 0.48,1.441 0,0.72 0.241,0.72 0.479,0.72 0.24,0.72 1.441,1.44 0,0.96 -0.481,0.96 -0.479,0.48 -0.241,0.959 -0.24,0.721 0,0.48 0.24,0.96 0,0.719 0.241,0.721 0,1.92 -0.241,0.72 -0.24,0.48 -0.719,0.96 -0.481,0.48 -2.88,0.96 -0.72,0 -0.719,0.24 -1.681,0 -0.96,-0.24 -0.72,-0.48 -0.48,-0.24 -0.48,-0.72 -0.48,-0.48 -0.96,-2.88 -0.239,-0.481 -0.241,-0.239 -0.24,-0.48 -0.96,-0.241 -0.719,-0.239 -0.721,0.239 -0.96,0.96 -0.239,0.721 -0.481,0.72 -0.24,0.96 -0.239,0.48 0,0.48 0.479,1.44 0.481,0.72 0.239,0.72 0.24,0.48 0.481,0.72 0.239,0.48 0.24,0.96 0.24,0.72 0.48,0.96 0.721,0.479 2.399,0 0.48,0.241 0.96,0.96 0,2.16 -0.24,0.48 0,0.72 -0.24,0.479 -0.239,0.721 0,1.199 -0.241,0.721 0.48,0.48 0.24,0.72 0.481,0.72 0.719,0.479 0.48,0.481 0.721,0.479 0.239,0.721 0,0.72 -0.239,0.96 -0.96,1.44 0,1.199 0.479,1.441 0,0.479 0.24,0.721 0.241,0.96 -0.241,0.72 -0.48,0.96 -0.72,0.48 -0.479,0.48 -1.441,0.48 -0.479,0.48 -1.441,0.48 -0.24,0.96 -0.24,0.72 0,1.44 0.24,0.96 0,2.159 -0.24,0.721 -0.239,0.96 -0.481,0.72 -0.72,0.48 -7.1999,2.4 -0.4795,0.719 -0.2402,0.721 0,3.6 0.2402,0.719 0.2393,0.481 0.4805,1.439 0,0.481 0.2402,0.96 -0.4805,1.44 -0.2402,0.96 -0.4795,0.72 -0.2402,0.479 -0.4795,0.721 -0.2403,0.72 -0.4804,0.479 -0.2393,0.721 -0.4804,0.479 -0.2403,0.721 -0.4795,0.72 -0.2402,0.72 0,0.48 0.7197,0.72 2.1602,0.72 0.9599,0.24 3.6009,1.2 0.479,0.24 0.72,0.48 1.44,0.48 0.48,0.48 0.721,0.24 0.96,0.24 0.719,0 1.441,-0.48 0.719,0 0.72,-0.241 0.72,0 0.96,0.96 0,0.721 -0.239,0.96 -0.241,0.48 -0.48,0.48 -0.72,0.48 -0.479,0.48 -0.721,0.479 -0.239,0.481 0,0.96 0.719,0.72 0.72,0.48 0.481,0.48 0.719,0.48 0.72,0.239 0.72,0.481 0.72,0.24 0.72,0.48 0.72,0.24 0.721,0 1.439,0.48 0.72,0 1.44,0.48 0.72,0 0.96,0.24 0.721,0.24 0.719,-0.24 0.960002,-0.96 0.48,-0.721 0.48,-1.439 0.241,-0.481 0.479,-0.719 0.48,-1.44 0.48,-0.721 0.24,-0.479 0.481,-0.48 0.719,-0.241 0.96,0.241 0.72,0.24 0.72,0.48 0.721,0.239 0.719,0.721 0,0.72 -0.719,2.16 -0.241,0.48 -0.48,0.719 -0.239,0.721 -0.481,0.479 -0.24,0.721 -0.48,0.72 -0.24,0.72 -2.64,2.639 -0.48,0.721 -0.479,0.479 -0.481,1.441 0,0.96 0.481,0.96 0.479,0.72 0.721,0.48 0.96,0.96 0.719,0.479 0.48,0.481 0.48,0.72 0,0.719 0.241,0.481 -0.241,0.96 -0.24,0.72 0,4.799 -0.24,0.721 0.24,0.96 0,2.16 -0.479,1.44 -0.241,0.96 -0.24,0.48 -0.479,0.72 -0.241,0.72 -1.919,0.959 -0.481,0.481 -0.479,0.72 -0.481,0.96 -0.479002,1.44 0,0.72 -0.481,1.44 -0.24,0.96 0,0.72 -0.96,2.88 0,0.72 -0.72,2.16 0,0.719 -0.24,0.721 -0.239,0.96 0,3.12 -0.241,0.72 0,1.68 0.241,0.719 0,1.441 0.239,0.96 0,0.719 0.48,0.96 0.96,0.96 0.48,0.721 0.48,0.48 0.480002,0.24 0.721,0.479 0.96,0.481 0.959,0.719 0.241,0.96 0,2.161 -0.241,0.719 -0.48,0.481 -0.479,0.72 -0.241,0.48 -0.48,0.479 -0.72,0.481 -0.479002,0.24 -0.96,0.96 -0.241,0.48 -0.24,0.719 -0.479,0.721 0,1.44 -0.241,0.959 0,3.361 -0.24,0.72 -0.24,0.96 -0.96,0.959 -0.72,0.481 -0.96,0.479 -0.48,0.721 -0.239,0.72 0.239,0.72 0,0.719 0.24,0.721 0,0.48 0.24,0.72 0,3.6 -0.24,0.72 0,0.719 -0.72,2.16 0,0.721 -1.44,4.319 -0.239,0.481 -1.681,5.04 -0.24,0.479 -1.68,5.041 z" id="path6583"/>
    <path style="stroke: transparent; stroke-width: 0.96; stroke-linecap: butt; stroke-linejoin: miter; stroke-opacity: 0; stroke-dasharray: none; display: inline; fill: #1f1f1f;" d="m 89.125819,445.93817 0.721,0.48 0.479,0.239 0.721,0.481 0.719,0.24 0.48,0.48 0.721,0.48 1.439,0.48 1.441,0 0.719,0.24 1.441,0 0.719,0.24 1.440001,0 0.721,0.239 1.439,0 0.96,0.241 0.721,0 0.719,0.24 1.44,0 0.721,0.24 0.719,-0.24 0.96,0 0.481,-0.481 0.239,-0.719 0.48,-0.96 0.241,-0.72 0.479,-0.481 0.24,-0.479 0.96,-0.48 0.72,-0.48 2.88,-0.96 0.96,-0.24 0.48,0 0.72,-0.24 1.2,0 0.72,0.24 0.72,0.479 1.2,1.201 0.48,0.24 0.72,0.48 1.441,0.48 0.719,0.48 1.44,0.48 0.961,0.719 0.719,0 0.72,0.241 0.72,0 1.44,0.48 0.72,0 0.72,0.239 0.72,0 0.96,0.241 0.72,0.24 0.72,0 1.44,0.479 0.72,0 0.72,0.241 0.72,0 1.44,0.48 0.721,0 0.719,0.239 0.72,0 1.441,0.481 0.719,0 1.441,0.48 0.719,0 0.72,0.239 0.72,0 1.44,0.481 0.72,0 1.44,0.479 0.72,0 0.72,0.241 0.721,0 0.96,0.24 0.719,0.24 0.72,0 1.44,0.48 0.72,0 0.72,0.24 0.721,0 1.439,0.479 0.72,0 1.44,0.481 0.72,0 0.721,0.24 0.719,0 1.44,0.48 0.721,0 2.879,0.96 0.48,0.24 0.721,0.48 1.439,0.48 0.481,0.48 1.439,0.48 0.48,0.24 0.72,0.479 1.441,0.481 0.479,0.479 2.16,0.721 0.72,0 0.96,-0.24 0.96,-0.96 0.48,-0.72 0.72,0 1.441,-0.48 0.959,-0.241 0.72,0 0.72,-0.239 4.32,0 0.481,-0.24 0.719,0 1.44,-0.481 0.721,-0.479 0.719,-0.24 -0.24,-0.96 -0.479,-0.481 -0.481,-0.239 -0.72,-0.48 -0.48,-0.48 -0.72,-0.24 -0.479,-0.481 -0.721,-0.239 -0.72,-0.48 -0.24,-0.48 0,-0.48 0.24,-0.48 0.48,-0.72 0.48,-0.241 0.72,-0.479 0.721,-0.24 0.719,-0.48 1.44,-0.48 0.721,-0.48 1.439,-0.48 0.721,-0.48 2.159,-0.721 0.96,-0.239 0.721,0 1.439,-0.48 1.2,0 0.96,0.48 0.481,0.48 0.239,0.719 0.48,0.481 0.48,0.72 0.48,0.48 0.241,0.48 0.96,0.96 0.719,0.48 0.96,0.96 0.72,0.479 0.48,0.481 0.72,0.479 0.481,0.241 0.479,0.48 0.72,0.48 1.44,0.48 0.481,0.239 0.719,0.481 1.44,0.479 0.48,0.241 0.72,0.48 1.441,0.479 0.479,0.481 2.16,0.72 0.72,0.48 0.96,0 0.721,-0.24 0.239,-0.72 -0.239,-0.721 0,-2.399 0.719,-0.721 0.72,-0.479 0.48,-0.24 0.72,-0.241 1.2,0 0.48,0.241 2.16,0.719 0.96,-0.239 0.48,-0.48 0,-1.68 -0.24,-0.96 0.24,-0.48 0.48,-0.72 1.44,-0.481 0.96,0 0.72,-0.239 0.72,-0.48 0.48,-0.241 0.48,-0.479 0.72,-0.24 0.48,-0.48 0.721,0 0.719,-0.24 0.72,0 2.16,-0.72 0.241,-0.48 0.479,-0.48 0.24,-0.72 0.481,-0.96 0.96,0 0.479,0.24 2.16,0.72 0.48,0.24 1.44,0.48 0.481,0.48 0.479,0.719 0,1.441 -0.24,0.72 0,1.44 -0.239,0.72 0,11.76 0.239,0.72 0,0.72 0.721,2.16 0.239,0.48 0.48,0.719 0.48,0.481 0.24,0.72 0.96,0.959 0.24,0.721 0.96,0.96 0.48,0.72 1.44,1.439 0.481,0.721 1.439,1.439 0.24,0.721 0.48,0.48 0.721,0.48 0.96,0.96 0.719,0.48 1.441,1.44 0.719,0.48 0.96,0.959 0.72,0.481 0.24,0.479 0.48,0.481 0.48,0.72 0.48,0.48 0.24,0.72 0.24,0.479 0.24,0.721 0,1.68 -0.24,0.719 -0.48,0.721 -0.239,0.72 -0.481,0.72 -0.24,0.96 -0.239,0.719 -0.241,0.961 0,2.159 0.241,0.721 0,2.88 0.239,0.72 0,0.719 0.48,1.441 0.48,0.96 0.72,0.479 0.48,0.481 0.721,0.479 0.719,-0.479 0.241,-0.72 0.479,-0.721 0.96,-0.479 0.72,-0.24 1.68,0 0.72,0.48 0.481,0.72 0.239,0.479 0,0.721 0.24,0.72 0,0.96 0.481,1.44 1.439,1.44 0.24,0.48 0.241,0.96 0.239,0.48 0,0.48 0.48,0.479 0.48,0.721 0.48001,0.48 0.72,0.48 0.721,0.239 0.479,0.481 1.441,0.96 0.479,0.479 0.72,0.481 0.721,0.72 0.239,0.48 0.24,0.72 0.24,0.48 0.24,0.72 0,2.399 -0.24,0.96 -0.24,0.721 -0.479,0.479 -0.241,0.481 -0.24,0.24 -0.72,0.48 -0.48,0.24 -0.72,0 -0.96,0.24 -1.439,0 -0.481,0.48 -0.48001,0.719 0,0.721 -0.239,0.72 0,0.72 -0.241,0.72 0.241,0.96 0,0.48 0.239,0.48 0.48001,0.72 0.72,0.96 0.48,0.96 0.241,0.72 -0.241,0.959 0,0.96 0.48,0.96 0.48,0.241 0.48,0 1.92,-1.92 1.44,-0.72 1.441,-0.48 0.479,-0.241 0.72,0 0.721,-0.239 1.679,0 0.72,0.239 0.721,0 0.719,0.241 0.72,0 0.72,0.24 0.721,0 0.96,0.24 0.719,0 0.72,0.24 0.721,0 0.719,0.239 0.72,0 0.72,0.241 0.721,0 0.96,0.24 6.239,0 0.721,-0.24 0.479,-0.48 0.48,-0.72 0.48,-0.48 0.24,-0.96 0.24,-0.721 0.72,-2.88 0.481,-0.719 0.719,-0.24 0.48,-0.241 0.721,0 0.96,0.721 0.479,0.24 0.96,0.96 0.721,0.48 0.96,0.24 0.719,0 0.72,-0.24 0.481,-0.241 0.719,-0.239 0.48,-0.48 0.72,-0.48 0.96,-0.961 0.72,-0.479 0.481,-0.24 0.479,-0.48 0.72,-0.24 0.96,0 0.721,-0.24 0.719,0 0.72,-0.241 1.44,0.481 0.72,0 1.441,0.479 0.719,0 1.441,0.481 0.719,0 1.44,0.479 0.721,0 1.439,0.481 0.72,0 2.16,0.719 0.721,-0.479 0.719,-0.24 0.48,-0.48 0.721,-0.24 0.719,-0.48 0.48,-0.241 0.72,-0.479 0.72,-0.24 1.2,-1.201 0.241,-0.479 1.199,-3.601 0.48,-0.719 0.241,-0.48 0.719,-0.721 0.48,0 1.44,1.441 0.481,0.72 0.479,0.24 0.72,0.48 0.48,0.48 1.44,0.96 0.721,0.24 0.719,0 0.72,-0.24 0.48,-0.48 0.241,-0.96 0,-1.44 -0.241,-0.481 0,-0.96 0.48,-1.439 0.48,-0.481 0.48,-0.719 0.48,-0.48 0.48,-0.72 0.48,-0.48 0.72,-0.24 0.96,-0.481 1.44,0.96 0.48,0.481 0.96,0.48 0.721,-0.48 0.479,-0.481 0.24,-0.96 0.48,-1.439 0.24,-0.481 0.481,-0.719 0.239,-0.72 0.48,-0.48 0.481,-0.72 0.719,-0.72 0.48,-0.24 0.48,-0.481 0.96,-0.479 0.96,0.24 0.96,0 0.72,0.239 0.96,0.241 0.721,0.24 0.719,0.479 0.72,0.241 1.441,0.96 0.479,0 0.481,0.24 2.399,0 0.721,-0.24 0.719,0 0.72,-0.24 0.72,0 1.44,-0.48 0.96,-0.481 0.481,-0.479 0.239,-0.72 0,-1.44 -0.48,-1.44 -0.24,-0.48 0,-0.96 0.481,-0.96 0.96,-1.441 0.719,-0.479 0.48,-0.24 2.16,0.719 0.721,0 0.719,0.241 0.48,0.24 0.96,-0.24 0.96,-0.96 0,-0.48 -0.239,-0.48 -0.481,-0.48 0,-0.96 0.24,-0.961 1.68,-1.679 0.72,-0.241 0.48,-0.239 0.96,-0.24 0.72,0.24 2.16,1.44 0.72,0.24 0.721,0.479 0.719,0.241 1.2,0.24 0.72,-0.24 0.481,-1.44 0.239,-0.96 0,-4.801 0.24,-0.719 0.481,-0.48 0.96,-0.24 1.679,0 0.72,0.479 0.721,0.241 0.719,0.48 0.48,0.48 0.721,0.24 0.479,0.479 0.72,0.241 0.721,0.48 0.479,0.48 0.721,0.24 0.479,0.48 0.72,0.48 0.721,0.24 0.479,0.479 0.72,0.481 0.721,0.24 0.479,0.48 0.72,0.24 0.48,0.24 0.72,-0.24 0,-0.481 -0.239,-0.719 -0.481,-0.72 -0.48,-0.481 -0.48,-1.439 0.48,-0.48 0.961,0 0.719,0.24 0.72,0 1.441,0.48 2.399,0 0.96,-0.24 1.44,0 0.72,-0.48 0.72,-0.241 0.721,-0.479 0.719,0 0.72,-0.24 1.92,0 3.601,1.2 0.719,0 0.72,0.24 4.08,0 1.44,-0.721 0.96,-0.96 0.48,-0.719 0.48,-1.92 0,-0.48 0.13408,-0.78673 -2.26792,0.65326 -0.48,0.239 -0.72,0 -0.719,-0.239 -1.681,0 -0.72,-0.24 -0.479,-0.24 -2.16,-0.72 -0.721,-0.48 -0.72,-0.241 -2.16,-1.439 -0.48,-0.481 -0.719,-0.479 -0.961,-0.96 -0.48,-0.72 -0.719,-0.48 -0.481,-0.72 -0.479,-0.48 -0.241,-0.72 0,-0.72 -0.24,-0.48 -0.24,-0.72 0,-0.72 -0.239,-0.721 0,-3.12 -0.481,-1.439 0,-0.72 -0.479,-1.44 0,-0.72 -0.481,-1.44 -0.24,-0.48 -0.48,-0.721 -0.24,-0.479 -0.24,-0.72 -0.479,-0.48 -0.481,-0.72 -1.439,-0.96 -0.481,-0.48 -4.32,-1.44 -0.96,0 -1.44,-0.48 -0.48,-0.241 -1.44,-0.479 -0.72,-0.481 -0.48,-0.239 -0.719,-0.24 -0.481,-0.72 -0.24,-0.48 -0.48,-0.72 -0.24,-0.721 -0.479,-0.719 -0.241,-0.72 -0.48,-0.481 -1.199,-3.599 0,-0.72 -0.721,-2.16 0,-0.96 -0.72,-2.16 0,-0.72 -0.719,-2.16 0,-0.72 -0.721,-2.16 0,-0.721 -0.72,-2.159 0,-0.721 -0.479,-1.439 -0.241,-0.96 -0.24,-0.721 0,-0.719 -0.72,-2.161 0,-0.719 -0.48,-1.44 0,-1.44 -0.239,-0.72 0,-0.721 1.199,-1.199 0.48,-0.721 0.48,-0.479 0.721,-0.48 0.719,-0.24 0.48,-0.24 0.721,-0.24 0.719,-0.481 1.441,-0.479 0.479,-0.24 0.72,-0.48 2.16,-0.721 0.481,-0.479 2.16,-0.72 -0.481,-0.721 -0.479,-0.479 -0.481,-0.72 -0.48,-0.48 -0.48,-0.72 -0.48,-0.48 -0.48,-0.72 0,-3.12 -0.24,-0.72 0,-1.681 0.24,-0.719 0,-1.44 0.241,-0.96 0,-2.16 -0.241,-0.96 -0.24,-0.721 0,-0.719 -0.479,-1.44 0,-0.96 -0.241,-0.72 -0.48,-0.72 -0.239,-0.72 -0.481,-0.721 -0.96,-0.96 -0.72,-0.479 -0.48,-0.24 -2.16,-1.44 -0.72,-0.24 -1.92,-1.92 0,-0.96 -0.24,-0.721 0,-1.439 0.24,-0.48 0,-2.88 -0.24,-0.72 0,-0.96 -0.239,-0.481 -0.241,-0.719 -0.48,-0.72 -0.24,-0.721 -0.48,-0.719 -0.48,-0.48 -0.96,-1.44 -0.48,-0.48 -0.48,-0.721 -0.96,-2.879 0,-4.56 0.24,-0.721 0,-2.399 -0.24,-0.96 -0.239,-0.72 -1.441,-2.16 -0.48,-0.24 -0.72,-0.481 -0.479,-0.239 -0.721,-0.24 -0.96,-0.24 -0.72,-0.241 -0.72,0 -0.48,-0.479 -0.48,-0.72 -0.48,-0.48 0,-0.72 -0.24,-0.72 0,-6.72 -0.48,-1.44 0,-0.96 0.72,0 1.44,-0.48 0.72,0 1.441,-0.48 0.96,0 1.439,-0.48 0.721,0 1.92,-1.92 0.479,-1.441 0.24,-0.96 0.48,-1.439 -0.239,-0.481 -0.241,-0.719 -0.48,-0.48 -0.239,-0.72 -0.721,-0.241 -0.48,-0.479 -0.719,-0.24 -0.481,-0.48 -2.88,-0.96 -2.4,0 -0.72,-0.24 -1.679,0 -0.721,0.24 -0.72,0 -1.439,0.48 -0.721,0 -1.439,0.48 -0.721,0 -2.159,0.72 -0.721,0 -0.72,0.24 -0.72,0 -0.72,-0.24 -2.4,0 -0.719,-0.24 -0.721,-0.48 -0.48,-0.48 -0.48,-0.72 -0.72,-0.481 -1.679,-1.679 -0.721,-2.16 -0.48,-0.72 -1.679,-5.04 0,-0.72 -0.241,-0.721 -0.24,-0.96 0,-0.719 -0.24,-0.72 0,-0.72 -0.239,-0.72 0,-0.72 -0.241,-0.72 0,-0.721 -0.24,-0.719 0,-0.96 -0.24,-0.72 0,-0.72 -0.24,-0.72 0,-0.72 -0.239,-0.72 0,-0.721 -0.241,-0.719 0,-0.96 -0.48,-1.44 0,-0.72 -0.239,-0.72 0,-0.72 -0.241,-0.721 -0.24,-0.96 -0.479,-1.439 -0.241,-0.96 -1.44,-1.44 -0.239,-0.72 -2.881,-0.96 -0.72,0 -0.72,0.24 -0.719,0 -0.721,0.239 -0.48,0.241 -0.719,0.24 -0.721,0.479 -1.439,0.481 -0.721,0 -0.48,0.24 -0.719,0 -0.721,-0.24 -0.72,-0.481 -0.479,-0.479 -0.721,-0.481 -1.439,-0.479 -0.481,-0.481 -0.72,-0.239 -0.719,0 -0.721,0.239 -0.72,0 -0.72,0.481 -0.48,0.24 -1.439,0.96 -0.481,0.239 -1.439,0.96 -0.481,0.241 -0.72,0.48 -0.719,0.24 -0.721,0.48 -2.16,0.719 -0.72,0.481 -1.439,0.479 -0.481,0.241 -0.72,0.48 -2.16,0.72 -0.719,0.479 -4.321,1.441 -0.719,0 -0.96,0.24 -0.721,0.24 -0.72,0 -1.439,0.48 -0.721,0 -2.16,0.719 -0.72,-0.239 -3.12,0 -0.96,-0.24 -3.12,0 -0.72,-0.24 -1.44,0 -0.96,-0.24 -0.72,-0.48 -0.96,-0.24 -1.92,-1.92 -0.24,-0.72 -0.239,-0.48 -0.481,-1.44 -0.48,-0.72 0,-0.72 -0.239,-0.481 0,-0.719 -0.241,-0.72 0,-0.72 -0.719,-2.16 -0.241,-0.96 -1.92,-1.92 -0.719,0 -0.721,-0.24 -0.72,0 -0.48,-0.24 -2.159,0 -0.96,0.24 -0.721,0 -0.72,0.24 -0.72,0 -0.72,0.239 -0.72,0 -0.72,0.241 -0.719,0 -0.721,0.24 -0.96,0.24 -0.72,0 -2.88,-0.96 -0.96,-0.48 -2.88,-0.96 -0.48,-0.241 -5.76,-1.919 -0.719,-0.48 -0.721,-0.24 -0.72,0 -0.72,-0.24 -0.719,0 -0.721,-0.241 -0.72,0 -0.72,-0.239 -0.72,0 -0.72,0.239 -0.72,0 -2.16,0.721 -0.72,0 -0.719,0.24 -0.961,0.96 -0.72,0.48 -0.479,0.48 -0.721,0.48 -0.96,0.96 -0.72,0.48 -0.479,0.48 -0.721,0.24 -0.48,0.479 -0.72,0.241 -0.48,0.24 -0.96,-0.24 -0.719,0 -0.96,-0.241 -2.161,-0.719 -0.72,-0.48 -1.44,-0.48 -0.719,-0.48 -2.161,-0.721 -0.719,-0.479 -2.16,-0.72 -0.721,-0.48 0.721,-0.48 0.719,-0.24 0.48,-0.48 0.72,-0.48 0.48,-0.48 0.721,-0.241 0.479,-0.479 1.441,-0.96 0.479,-0.481 0.72,-0.239 0.48,-0.48 0.72,-0.48 0.96,-0.96 0.48,-0.72 0.96,-0.96 0.48,-0.72 0.96,-0.96 0.721,-0.481 0.479,-0.719 0.481,-0.48 0.239,-0.72 0.24,-0.48 0.48,-0.721 0.48,-1.439 0.48,-0.72 0.241,-0.48 0.239,-0.72 0.48,-0.72 0.48,-1.44 0,-0.72 -0.239,-0.721 0,-0.719 -0.241,-0.72 0,-0.72 -0.24,-0.721 0,-0.719 -0.24,-0.96 0,-0.72 -0.239,-0.721 -0.721,0.481 -0.48,0.479 -0.72,0.241 -0.72,0.48 -2.16,0 -0.96,-0.24 -0.72,0 -1.44,-0.481 -0.96,-0.479 -0.72,-0.24 -1.439,-0.96 -0.481,-0.48 -0.72,-0.48 -0.96,-0.96 -0.72,-0.48 -0.48,-0.72 -0.48,-0.48 -0.48,-0.721 -0.48,-0.479 -0.48,-1.92 0.241,-0.72 0.479,-0.721 0.72,0 1.44,-0.479 0.96,0 0.96,-1.44 0.24,-0.72 0,-0.72 0.241,-0.721 -0.241,-0.719 0,-0.48 -0.24,-0.721 0,-0.719 -0.24,-0.72 -0.239,-0.48 0,-1.68 -0.241,-0.72 0.48,-1.44 0,-0.72 0.721,-2.16 0.239,-0.96 0.48,-1.441 0,-4.799 -0.24,-0.96 0,-0.72 -0.72,-2.16 -0.24,-0.96 -0.24,-0.72 -0.239,-0.48 -0.481,-0.72 -0.24,-0.72 -0.48,-0.48 -0.24,-0.72 -0.48,-0.48 -0.48,-0.72 -1.44,-1.441 -0.48,-0.719 -0.96,-0.96 -0.48,-0.72 -0.96,-0.96 -0.48,-0.72 -0.48,-0.48 -0.24,-0.72 -0.48,-0.48 0,-0.72 -0.48,-1.441 0,-0.719 -0.239,-0.72 0,-0.72 -0.241,-0.72 0,-0.72 -0.24,-0.96 -0.479,-1.441 -1.441,-0.96 -0.479,-0.479 -0.721,-0.24 -0.72,0 -3.599,-1.2 -0.241,-0.48 -0.48,-0.48 -0.239,-0.48 -0.481,-0.721 0.481,-1.439 0,-0.72 0.719,-2.16 0,-0.96 0.72,-0.24 0.72,-0.481 0.721,-0.239 0.719,-0.48 0.48,-0.48 0.72,-0.24 1.44,-0.96 0.721,0 2.159,-0.72 0.721,0 2.16,-0.72 0.96,0 2.159,-0.72 0.721,0 2.16,-0.72 0.719,0 1.44,-0.48 0.721,0 2.16,-0.72 0.96,0 2.159,-0.72 0.721,0 2.16,-0.721 9.599,0 0.72,-0.239 0.481,-0.24 0.719,-0.24 0.96,-0.96 0.481,-0.72 0.96,-0.96 0.479,-0.721 0.96,-0.96 0.481,-0.719 0.96,-0.96 0,-5.52 -0.241,-0.72 0,-3.121 -0.48,-1.439 -0.239,-0.481 -0.481,-0.719 -0.96,-2.88 -0.479,-0.72 -0.241,-0.48 -0.719,-2.16 -0.721,-0.48 -0.48,-0.48 -0.48,-0.72 -0.96,-0.96 -0.72,-0.481 -0.48,-0.719 -0.96,-0.96 -0.72,-0.48 -0.479,-0.48 -0.721,-0.48 -0.72,-0.72 -0.719,-0.48 -0.96,-0.96 -0.481,-0.721 -0.479,-0.479 -0.481,-0.72 -0.72,-0.48 -0.48,-0.72 -0.96,-0.96 -0.72,-0.48 -0.48,-0.48 -0.72,-0.48 -0.479,-0.241 -1.681,0 -1.44,0.481 -0.48,0.479 -0.72,0.241 -0.719,-0.241 -0.96,-0.239 0,-1.44 -0.241,-0.72 0,-0.72 -0.48,-1.92 -0.48,-0.48 -0.24,-0.481 -0.72,-0.239 -0.719,-0.48 -0.481,-0.48 -0.96,-0.721 -0.48,-0.719 -0.239,-0.48 -0.481,-0.721 -0.479,-0.479 -0.481,-0.72 -0.479,-0.48 -0.96,-1.441 -0.481,-0.479 -0.479,-0.72 -0.96,-0.96 -0.721,-0.48 -0.479,-0.241 -0.481,-0.479 -0.72,-0.48 -6.719,0 0,-1.92 0.719,-2.161 0,-0.479 0.241,-0.72 0,-1.44 -0.241,-0.96 0,-0.72 -0.48,-1.44 -0.96,-1.44 -0.239,-0.48 -1.441,-2.16 -0.24,-0.72 -0.239,-0.481 -0.481,-1.439 -0.24,-0.481 -0.479,-0.719 0,-0.72 -0.241,-0.721 0,-0.719 -0.24,-0.72 0,-0.72 -0.24,-0.721 0,-2.879 -0.239,-0.96 0,-3.6 -0.241,-0.72 0,-1.68 -0.24,-0.72 0,-1.920004 0.24,-0.72 0.48,-0.72 0.48,-1.44 0.48,-0.721 0.24,-0.719 0.48,-0.72 0,-2.64 -0.24,-0.72 0,-0.72 -0.96,-2.88 -0.48,-0.481 -0.48,-1.439 -0.48,-0.721 -0.239,-0.479 -0.481,-0.72 -0.479,-0.48 -0.241,-0.72 -0.48,-0.481 -0.96,-1.439 -1.2,-1.2 -0.48,-0.72 -0.719,-0.24 -0.721,-0.481 -0.48,-0.479 -1.44,-0.96 -0.48,-0.24 -0.719,-0.48 -0.481,-0.48 -1.44,-0.96 -0.48,-0.24 -1.44,-0.96 -0.96,-0.96 -0.96,-1.44 -0.48,-0.48 -0.24,-0.72 -0.48,-0.72 -0.48,-1.44 -0.48,-0.72 -0.239,-0.721 -0.241,-0.479 -0.24,-0.72 -0.479,-0.721 -0.481,-1.439 -0.479,-0.72 -0.481,-0.48 -0.479,-0.72 -0.481,-0.48 -0.24,-0.72 -0.48,-0.481 -1.44,-0.96 -0.479,-0.239 -1.441,-0.96 -0.479,-0.24 -1.441,-0.96 -0.479,-0.48 -0.721,-0.48 -0.96,-0.96 -0.72,-0.48 -0.48,-0.72 -0.239,-0.481 -0.481,-0.719 -0.24,-0.72 -0.48,-0.72 -0.24,-0.48 -0.479,-0.72 -0.241,-0.721 -0.24,-0.96 -0.24,-0.719 -1.92,-2.88 -3.6,-1.2 -2.16,0 -0.96,-0.241 -3.12,0 -0.72,0.241 -0.72,0 -0.96,0.24 -0.72,0 -1.439,0.479 -0.96,0 -1.441,0.481 -0.719,0.48 -1.441,0.48 -0.72,0.48 -0.719,0.239 -0.721,0.481 -1.44,0.479 -0.72,0.481 -0.72,0.24 -0.72,0.48 -1.44,0.48 -0.72,0.48 -1.439,0.48 -0.481,0.72 -0.48,0.48 -0.72,0.48 -0.479,0.719 -0.481,0.481 -0.72,0.479 -0.48,0.721 -0.48,0.48 -0.719,0.48 -0.481,0.72 -0.479,0.479 -0.721,0.481 -0.479,0.72 -0.481,0.48 -0.72,0.479 -0.48,0.721 -0.48,0.48 -0.719,0 -0.721,0.24 -1.68,0 -2.4002,-3.601 0.24,-0.719 0,-1.44 0.24,-0.721 0,-1.679 0.241,-0.72 0,-0.721 0.239,-0.96 0,-1.439 -0.48,-0.72 -0.24,-0.48 -0.96,-1.44 -0.479,-0.48 -0.481,-0.72 -0.72,0.48 -0.719,0.24 -0.721,0.48 -0.479,0.48 -0.721,0.48 -0.48,0.72 -2.16,1.439 -2.4,0 -0.72,-0.239 -0.72,-0.48 -0.85248,-0.413768 -0.37349,0.547232 -0.239,0.48 -0.481,1.44 0,0.96 -0.72,2.16 0,1.44 -0.24,0.72 0,0.72 -0.24,0.719 0,0.721 -0.96,1.439 -0.479,0.481 -0.481,0.72 -0.24,0.719 -0.48,0.96 0,0.721 -0.24,0.96 0,1.68 -0.24,0.719 0,1.681 -0.239,0.96 -0.241,0.72 -0.96,1.44 -0.24,0.72 -2.16,2.16 -0.479,0.72 -0.481,0.479 -0.72,0.481 0,0.72 -0.24,0.72 -0.24,0.48 -0.239,0.719 0.239,0.721 0,2.4 0.24,0.719 0,3.12 0.24,0.721 0,2.4 0.241,0.72 0,0.72 0.239,0.72 0,0.719 2.16,0.721 0.721,0.48 1.439,0.48 0.96,0.239 1.441,0.481 0.479,0.479 0.721,0.481 0.96,0.96 0.479,0.719 0.481,0.481 0.719,0.479 0.241,0.481 0.479,0.72 0.481,0.48 0.479,0.72 0.24,0.479 0.48,0.721 0.961,0.96 0.719,0.479 0.241,0.721 0.479,0.72 0.24,0.72 0.241,0.48 0.479,0.72 0.72,0.24 1.44,0 0.72,0.239 2.16,0 0.72,0.241 0.24,0.72 0,1.44 -0.24,0.719 0,0.721 -0.239,0.72 -0.481,0.72 -0.479,1.44 -0.481,0.479 -0.24,0.721 -0.96,0.48 -2.16,0.719 -0.72,0 -0.72,0.241 -0.96,0 -0.719,0.24 -1.681,0 -0.96,-0.24 -0.72,-0.241 -0.96,-0.96 -0.48,-1.439 -0.48,-0.24 -0.719,0 -0.481,0.24 -0.48,0.72 -0.48,1.44 0,1.44 0.241,0.719 0,5.281 -0.481,1.92 -0.479,0.72 -0.241,0.72 -1.679,1.68 0,0.719 0.96,0.481 0.239,0.72 0.24,0.48 0.481,0.72 0.239,0.719 0.48,0.481 0.48,1.439 0,0.721 0.24,0.96 -0.479,0.48 -0.481,0.719 -0.24,0.721 -0.48,0.72 -1.44,0.48 -0.48,0.239 -5.759,1.92 -0.721,0 -0.96,0.241 -1.68,0 -0.48,0.48 -1.44,0.48 -1.2,1.2 -0.72,0.48 -0.48,0.48 -0.72,0.48 -0.48,0.72 -0.72,0.479 -0.479,0.481 -0.96,0.479 -0.721,0.481 -0.72,0 -0.96,-0.24 -2.16,0 -0.96,-0.241 -1.439,0 -1.441,0.481 -0.479,0.24 -0.721,0 0.96,2.88 0,1.68 -0.72,0 -2.16,0.719 -0.720001,0 -0.48,1.441 -0.48,0.479 -0.48,1.441 -0.48,0.719 -0.24,0.481 -0.72,2.16 -0.72,0.48 -0.72,0.24 -0.479,0.479 -1.441,0.961 -0.479,0.72 -0.721,0.479 -0.239,0.721 -0.96,1.44 -0.241,0.719 -0.48,0.721 -0.72,2.16 -0.24,0.96 -0.479,1.44 0,0.719 -0.241,0.721 0,0.72 0.241,0.96 0,0.719 0.479,1.441 0,0.96 0.481,0.72 0.239,0.719 0.24,0.961 1.44,4.32001 0.241,0.48 0.479,0.72 0.24,0.48 0.96,1.44 0.48,0.48 0.48,0.72 0.72,0.479 0.96,0.96 0.48,0.721 0.72,0.48 0.481,0.48 0.479,0.72 0.481,0.48 0.719,0.48 0.480001,0.48 0.48,0.72 0.48,0.479 0,2.401 -0.48,0.719 -0.48,0.481 -0.239001,0.72 -0.481,0.48 -0.479,0.72 0,0.72 -0.241,0.719 0,1.441 0.241,0.719 0,0.721 0.719,0.72 0.960001,0.479 0.72,0.241 0.24,0.719 0.241,0.96 0,0.721 0.239,0.72 0,3.12 0.24,0.72 0,2.879 0.24,0.721 0.481,1.199 0.479,0.481 0.72,0.479 0.48,0.481 0.48,0.72 0,0.719 -0.239,0.481 -0.721,0.48 -0.96,0.239 -1.439,0.481 -0.721,1.439 -0.239,0.721 0,0.72 0.239,0.72 0,1.44 0.48,1.439 0.48,0.96 0.48,0.481 0.72,0.479 1.44,1.441 0.48,0.72 0.48,0.48 0.241,0.72 -0.481,0.96 -0.479,0.48 -1.441,2.159 -0.24,0 -0.239,0.241 -0.481,0 -0.96,-0.48 -0.719,-0.24 -0.721,-0.481 -0.720001,-0.239 -0.72,-0.48 -0.48,-0.241 -0.72,-0.479 -0.479,0 -0.241,0.479 0.241,0.721 0.239,0.96 0.721,2.16 0,0.72 0.239,0.96 -0.72,2.16 -2.16,1.44 -0.24,0.959 0,0.721 -0.239,0.96 0.239,0.72 0,0.479 0.48,1.441 0,0.72 0.241,0.72 0.479,0.72 0.24,0.72 1.441,1.44 0,0.96 -0.481,0.96 -0.479,0.48 -0.241,0.959 -0.24,0.721 0,0.48 0.24,0.96 0,0.719 0.241,0.721 0,1.92 -0.241,0.72 -0.24,0.48 -0.719,0.96 -0.481,0.48 -2.88,0.96 -0.72,0 -0.719,0.24 -1.681,0 -0.96,-0.24 -0.72,-0.48 -0.48,-0.24 -0.48,-0.72 -0.48,-0.48 -0.96,-2.88 -0.239,-0.481 -0.241,-0.239 -0.24,-0.48 -0.96,-0.241 -0.719,-0.239 -0.721,0.239 -0.96,0.96 -0.239001,0.721 -0.481,0.72 -0.24,0.96 -0.239,0.48 0,0.48 0.479,1.44 0.481,0.72 0.239001,0.72 0.24,0.48 0.481,0.72 0.239,0.48 0.24,0.96 0.24,0.72 0.48,0.96 0.721,0.479 2.399,0 0.48,0.241 0.96,0.96 0,2.16 -0.24,0.48 0,0.72 -0.24,0.479 -0.239,0.721 0,1.199 -0.241,0.721 0.48,0.48 0.24,0.72 0.481,0.72 0.719,0.479 0.48,0.481 0.721,0.479 0.239,0.721 0,0.72 -0.239,0.96 -0.96,1.44 0,1.199 0.479,1.441 0,0.479 0.24,0.721 0.241,0.96 -0.241,0.72 -0.48,0.96 -0.72,0.48 -0.479,0.48 -1.441,0.48 -0.479,0.48 -1.441,0.48 -0.24,0.96 -0.24,0.72 0,1.44 0.24,0.96 0,2.159 -0.24,0.721 -0.239,0.96 -0.481,0.72 -0.72,0.48 -7.199901,2.4 -0.4795,0.719 -0.2402,0.721 0,3.6 0.2402,0.719 0.2393,0.481 0.4805,1.439 0,0.481 0.2402,0.96 -0.4805,1.44 -0.2402,0.96 -0.4795,0.72 -0.2402,0.479 -0.4795,0.721 -0.2403,0.72 -0.4804,0.479 -0.2393,0.721 -0.4804,0.479 -0.2403,0.721 -0.4795,0.72 -0.2402,0.72 0,0.48 0.7197,0.72 2.1602,0.72 0.9599,0.24 3.6009,1.2 0.479,0.24 0.72,0.48 1.440001,0.48 0.48,0.48 0.721,0.24 0.96,0.24 0.719,0 1.441,-0.48 0.719,0 0.72,-0.241 0.72,0 0.96,0.96 0,0.721 -0.239,0.96 -0.241,0.48 -0.48,0.48 -0.72,0.48 -0.479,0.48 -0.721,0.479 -0.239,0.481 0,0.96 0.719,0.72 0.72,0.48 0.481,0.48 0.719,0.48 0.72,0.239 0.72,0.481 0.72,0.24 0.72,0.48 0.72,0.24 0.721,0 1.439,0.48 0.72,0 1.44,0.48 0.72,0 0.96,0.24 0.721,0.24 0.719,-0.24 0.960001,-0.96 0.48,-0.721 0.48,-1.439 0.241,-0.481 0.479,-0.719 0.48,-1.44 0.48,-0.721 0.24,-0.479 0.481,-0.48 0.719,-0.241 0.96,0.241 0.72,0.24 0.72,0.48 0.721,0.239 0.719,0.721 0,0.72 -0.719,2.16 -0.241,0.48 -0.48,0.719 -0.239,0.721 -0.481,0.479 -0.24,0.721 -0.48,0.72 -0.24,0.72 -2.64,2.639 -0.48,0.721 -0.479,0.479 -0.481,1.441 0,0.96 0.481,0.96 0.479,0.72 0.721,0.48 0.96,0.96 0.719,0.479 0.48,0.481 0.48,0.72 0,0.719 0.241,0.481 -0.241,0.96 -0.24,0.72 0,4.799 -0.24,0.721 0.24,0.96 0,2.16 -0.479,1.44 -0.241,0.96 -0.24,0.48 -0.479,0.72 -0.241,0.72 -1.919,0.959 -0.481,0.481 -0.479,0.72 -0.481,0.96 -0.479001,1.44 0,0.72 -0.481,1.44 -0.24,0.96 0,0.72 -0.96,2.88 0,0.72 -0.72,2.16 0,0.719 -0.24,0.721 -0.239,0.96 0,3.12 -0.241,0.72 0,1.68 0.241,0.719 0,1.441 0.239,0.96 0,0.719 0.48,0.96 0.96,0.96 0.48,0.721 0.48,0.48 0.480001,0.24 0.721,0.479 0.96,0.481 0.959,0.719 0.241,0.96 0,2.161 -0.241,0.719 -0.48,0.481 -0.479,0.72 -0.241,0.48 -0.48,0.479 -0.72,0.481 -0.479001,0.24 -0.96,0.96 -0.241,0.48 -0.24,0.719 -0.479,0.721 0,1.44 -0.241,0.959 0,3.361 -0.24,0.72 -0.24,0.96 -0.96,0.959 -0.72,0.481 -0.96,0.479 -0.48,0.721 -0.239,0.72 0.239,0.72 0,0.719 0.24,0.721 0,0.48 0.24,0.72 0,3.6 -0.24,0.72 0,0.719 -0.72,2.16 0,0.721 -1.44,4.319 -0.239,0.481 -1.681,5.04 -0.24,0.479 -1.68,5.041 z" id="path6583-9"/>
  </g>
  <g id="layer4" style="display:inline;opacity:0.40799997" transform="translate(-48.441334,-21.997645)">
    <path style="fill:none;stroke:white;stroke-width:0.95999998;stroke-linecap:butt;stroke-linejoin:bevel;stroke-dasharray:none;stroke-opacity:1" d="m 86.660749,260.45801 c 0.0525,0.89412 -0.103906,1.87474 0.07605,2.7161 0.500508,0.42971 0.917513,1.06092 1.470538,1.3639 0.750892,0.0999 1.364453,0.0624 1.092414,-0.86069 -0.285369,-0.94468 0.850726,-0.46789 1.398618,-0.57931 0.499222,0.37118 0.915459,0.89475 1.241382,1.44 0.666584,-0.069 1.49703,0.25756 1.896449,-0.45645 0.479988,-0.45904 0.900177,-1.03885 0.744551,-1.73665 0,-1.90897 0,-3.81793 0,-5.7269" id="path6841"/>
    <path style="fill:none;stroke:white;stroke-width:0.95999998;stroke-linecap:butt;stroke-linejoin:bevel;stroke-dasharray:none;stroke-opacity:1" d="m 331.21975,373.25801 c 0.48033,-0.48 0.96067,-0.96 1.441,-1.44 -0.13002,0.52929 0.38329,1.70191 -0.53793,1.44 -0.30102,0 -0.60205,0 -0.90307,0 z" id="path5523"/>
    <path style="stroke: white; stroke-width: 0.8px; stroke-linecap: butt; stroke-linejoin: miter; stroke-opacity: 1; fill: #1f1f1f;" d="m 99.926818,195.85816 1.537902,1.88379 2.1425,1.17041 -0.0364,-3.12618 1.70143,-0.60818 1.54759,1.44 v 4.60966 l 3.76489,-1.89362 0.43925,-1.51604 1.07586,0.90207 2.56396,-2.02596 2.60845,-0.0761 -1.09241,-2.641 1.77931,-1.199 3.51824,1.199 3.34245,-0.96 4.20159,-2.34213 0.59941,-1.73787 6.78085,-2.54635 2.33815,3.63976 1.8869,0.10759 5.32472,-1.69193 2.38827,-2.14808 -0.12047,3.90108 3.24388,2.34119 3.26707,1.61805 2.48952,4.13968 h 2.53241 l 2.34207,-2.64 5.53337,5.12685 3.62355,-0.43825 4.27047,0.82172 -2.46185,3.20316 -4.08,1.84652 7.92773,4.56515 2.63327,3.59485 -2.641,1.8859 1.2424,3.3941 2.59762,3.84 2.64,1.439 2.25976,4.90049 2.02714,0.38051 3.3931,1.2 1.38124,2.79054 4.63085,-0.0175 1.08582,-1.53904 1.92578,-0.94599 2.12771,1.98345 -0.5904,3.58791 -1.441,3.3931 1.3649,1.47154 1.19903,-1.28788 3.05638,-0.0761 3.49969,-1.2 v 3.84 h 2.10207 l 2.97477,-1.13204 2.18602,-2.08094 0.41714,-2.40733 -2.64002,-6.13971 h 2.95448 l 0.21625,-2.78551 2.82927,0.37724 0.75533,1.7236 2.39371,0.464 0.5751,-5.05933 1.52275,3.25796 1.23311,6.10204 3.73341,1.44 2.62901,-4.02324 1.56016,-2.94062 1.58119,-0.52425 1.29723,0.62742 -0.69488,4.59532 3.33388,3.22537 2.13959,-2.77157 3.14141,-1.06843 3.599,1.2" id="path4534"/>
    <path style="stroke: white; stroke-width: 0.8px; stroke-linecap: butt; stroke-linejoin: miter; stroke-opacity: 1; fill: #1f1f1f;" d="m 105.77974,356.4669 6.32001,-2.409 4.21244,-0.35618 3.05783,-1.06093 8.56973,0.45714 2.01675,3.56751 3.13084,-0.92751 4.6576,1.02787 3.22101,-1.02787 2.65084,-0.0761 0.28686,-3.40141 0.71419,-1.32119 3.00293,-2.88129 h 2.639 l 1.30202,1.16585 2.53798,-1.16585 3.02037,1.82037 0.81963,4.65963 h 5.04 l 2.20075,2.19975 4.27923,0.33274 0.60902,-1.70159 4.97066,-3.32034 6.76336,-3.77241 3.49696,0.0218 0.53793,1.44 h 7.38207 l 1.84552,-1.2 3.53167,0.0482 2.01527,1.00804 2.8696,0.14377 1.49794,-3.841 0.24,-5.039 1.84552,1.2 3.91448,-3.121 0.96,-7.199 1.30759,-1.2 7.81241,1.1e-4 1.441,-3.84 4.08,-1.2 2.22022,-3.38872 -0.78122,-1.65128 4.23204,-3.99226 3.11458,-1.70549 0.77195,-4.81403 -1.15857,-5.08922 2.88,-2.399 1.44,-2.64 0.24103,-7.51448 4.41121,-2.49881" id="path4538"/>
    <path style="stroke: white; stroke-width: 0.8px; stroke-linecap: butt; stroke-linejoin: miter; stroke-opacity: 1; fill: #1f1f1f;" d="m 221.05975,330.53799 -0.16382,6.40303 2.24106,1.51697 0.32276,1.6459 1.201,2.1941 5.279,1.2 -0.239,3.73241 -1.441,1.54759 v 4.93241 l -3.45298,0.88945 c 0.68235,0.60693 1.35349,1.22645 2.01298,1.85814 0.76931,0.73688 1.52275,1.49032 2.25963,2.25963 l 1.11692,2.78037 4.75501,0.54079 -0.69156,3.53921 3.086,3.73793 1.954,3.94207 h 4.07173 l 3.60827,5.28 -0.479,1.92 -1.201,3.12002 h -2.4 l -0.18702,2.4312 -2.16046,2.31628 -0.53252,1.73252 h -2.64 v 3.839 h 3.84 l 2.401,5.62031 -2.641,2.06069 v 3.19448 l -1.439,3.28552 h -4.85066 l -2.78248,4.12634 3.01962,1.82114 0.53252,1.73252 3.88485,2.51583 -0.18862,1.13171 1.21975,2.98804 -0.11598,1.73132 4.26124,5.22364 3.17976,2.00946 v 3.84 l -2.43687,1.13196 0.0276,1.50804 1.2171,0.0102 0.95117,3.29185 -1.29265,0.59978 -1.23537,1.24997 0.78549,1.45911 1.3296,0.30922" id="path4542"/>
    <path style="stroke: white; stroke-width: 0.8px; stroke-linecap: butt; stroke-linejoin: miter; stroke-opacity: 1; fill: #1f1f1f;" d="m 269.12582,484.09816 6.462,-2.40724 2.5919,-2.3529 6.24,-1.2 0.6869,-2.64 3.3941,-1.2 0.60253,-9.48383 1.20502,-0.83496 2.27245,2.63879 2.53134,-1.32644 -0.13234,-1.31456 h 2.641 l 13.70255,-12.26255 3.68864,-1.28806 3.24781,-5.81391 -1.2,-5.11448 4.4314,-0.5914 c 1.02474,-1.40187 2.04947,-2.80374 3.07421,-4.20561 1.01428,-1.38756 2.02855,-2.77512 3.04283,-4.16268 l 7.00735,-3.69252 1.93175,-4.29156 2.11346,-1.05623 1.199,-4.561 1.73105,-3.38872 3.9142,-3.81075 3.24061,-2.69924 -1.44575,-0.66076 c -0.63235,-0.59659 -1.24734,-1.21158 -1.84393,-1.84393 -0.64422,-0.68284 -1.26698,-1.38594 -1.86705,-2.10789 l -1.57008,-2.89027 1.09341,-2.75791 1.21133,2.20805 3.33902,1.09479 2.92203,-0.82636 0.0762,-2.60838 8.44654,3.63618 2.84901,0.0962 7.18451,2.28109 -1.3252,7.07891 -5.16764,-4.78822 -2.14722,2.14822 h -2.641 v 5.17241 l 2.95448,-1.33341 3.28552,2.641 h 9.86483 l 1.4152,-4.08 4.47054,1.86024 1.69435,1.90372 -0.83219,5.0637 -3.41271,8.46789 2.80393,6.14738 5.05639,-0.31341 4.96376,-4.5436 3.49692,5.17408 -0.24103,5.28 0.96,4.31173 3.96318,0.84509 2.4273,-2.45714 c 2.07054,-0.39725 4.14109,-0.7945 6.21163,-1.19176 1.67004,-0.32042 3.34009,-0.64083 5.01013,-0.96125" id="path4546"/>
  </g>
</svg>