<?xml version="1.0" encoding="utf-8"?>
<svg width="20000" height="28800" version="1.1" style="shape-rendering:geometricPrecision; text-rendering:geometricPrecision; image-rendering:optimizeQuality; fill-rule:evenodd; clip-rule:evenodd" viewBox="390.068 260.044 18764.785 28279.911" id="svg62" xmlns="http://www.w3.org/2000/svg">
  <defs id="defs4">
    <style type="text/css" id="style2">
   
    .str2 {stroke:#9A9A93;stroke-width:50}
    .str1 {stroke:#9A9A93;stroke-width:50;stroke-linecap:round;stroke-linejoin:round}
    .str3 {stroke:#666366;stroke-width:50;stroke-linecap:round;stroke-linejoin:round}
    .str0 {stroke:#9A9A93;stroke-width:30;stroke-linecap:round;stroke-linejoin:round}
    .fil2 {fill:none}
    .fil0 {fill:#F6E1B9}
    .fil1 {fill:#FEFEE9}
   
  </style>
  </defs>
  <g id="Копия_x0020_Слой_x0020_1">
    <path fill-rule="evenodd" clip-rule="evenodd" d="M16579.6 16415.9C16616.3 16444.4 16637.7 16461.7 16665.2 16500.4C16634.6 16542.2 16533.8 16623.6 16524.6 16644C16515.4 16667.4 16528.7 16795.8 16515.4 16812C16494.1 16836.5 16182.4 16833.4 16128.5 16837.5C16056.2 16842.6 16072.4 16822.2 16073.5 16914.9C16074.5 17008.6 16081.6 17102.3 16081.6 17195C16071.4 17199 16051.1 17201.1 16027.6 17210.2C16003.2 17219.4 15979.8 17229.6 15956.3 17239.8C15982.8 17401.7 15982.8 17348.7 15937 17509.6C15910.5 17602.3 15913.6 17578.9 15944.1 17672.6C15970.6 17754.1 15988.9 17785.6 15990 17874.2C15990 17890.5 15991 17997.5 15996.1 18005.6C16002.2 18014.8 16112.2 18057.5 16135.6 18075.9C16162.1 18096.2 16194.7 18126.8 16221.1 18149.2C16185.5 18183.8 16153.9 18215.4 16116.2 18247C16101 18231.7 16085.7 18217.4 16069.4 18202.2C16043.9 18216.4 16029.7 18224.6 16006.3 18242.9C16019.5 18312.1 16036.8 18360 16045 18433.3C16047 18450.6 16060.2 18576.9 16064.3 18584C16065.3 18586.1 16134.6 18653.3 16142.7 18661.4C16135.6 18667.6 16077.5 18723.6 16076.5 18726.6C16066.3 18755.1 16157 19142.1 16156 19205.3C16154.9 19242.9 16075.5 19574.9 16061.2 19641.1C16121.3 19638.1 16186.5 19633 16246.6 19635C16260.8 19659.5 16264.9 19666.6 16271 19694.1C16199.7 19745 16086.7 19802 16007.3 19846.9L15991 19965C16015.4 19998.6 16223.2 20278.7 16224.2 20288.8C16225.2 20291.9 16163.1 20455.9 16156 20476.2C16171.2 20491.5 16306.7 20617.8 16306.7 20618.8C16311.8 20630 16293.4 20811.3 16290.4 20836.7C16227.2 20860.2 16183.5 20874.4 16117.3 20886.6C16098.9 20859.1 16081.6 20832.7 16065.3 20805.2C16016.4 20834.7 15977.7 20864.2 15932.9 20897.8C15937 20917.2 15941.1 20935.5 15945.1 20953.8C15949.2 20972.2 15954.3 20989.5 15959.4 21008.8C15996.1 21014.9 16243.5 21051.6 16253.7 21057.7C16261.9 21063.8 16303.6 21145.3 16302.6 21155.5C16300.6 21169.7 16220.1 21254.3 16199.7 21262.4C16164.1 21276.7 16108.1 21267.5 16075.5 21253.3C16017.5 21226.8 16028.7 21217.6 15988.9 21272.6C15966.5 21303.2 15948.2 21337.8 15929.9 21370.4C16005.2 21419.3 16086.7 21457.9 16157 21504.8C16202.8 21535.3 16222.1 21580.2 16237.4 21632.1C16249.6 21673.8 16225.2 21723.7 16210.9 21762.4C16195.7 21805.2 16157 21887.7 16159 21930.5C16163.1 22015 16169.2 22100.6 16173.3 22185.1C16130.5 22193.2 16087.7 22200.4 16045 22207.5V22228.9L16077.5 22401C16086.7 22402 16183.5 22406.1 16184.5 22406.1C16185.5 22406.1 16357.6 22309.3 16384.1 22297.1C16419.7 22328.7 16442.1 22351.1 16470.6 22388.8C16416.7 22448.8 16338.2 22513 16277.1 22568C16307.7 22654.6 16342.3 22740.1 16371.9 22826.7C16344.4 22860.3 16315.8 22891.8 16287.3 22923.4C16292.4 22937.7 16335.2 23060.9 16335.2 23064C16334.2 23067 16267 23173.9 16265.9 23177C16265.9 23179 16276.1 23228.9 16278.2 23231C16281.2 23235 16395.3 23305.3 16405.5 23319.6C16423.8 23343 16459.4 23502.9 16480.8 23549.7C16497.1 23583.3 16611.2 23807.4 16630.5 23817.6C16643.8 23824.7 16834.2 23795.2 16863.7 23791.1L16891.2 23888.8C16851.5 23932.6 16812.8 23978.5 16772.1 24021.2C16723.2 23994.8 16623.4 23936.7 16575.5 23924.5C16552.1 24050.8 16626.5 24178.1 16646.8 24303.3C16623.4 24303.3 16546 24295.2 16529.7 24283C16527.7 24281.9 16451.3 24172 16434 24151.6C16402.4 24158.7 16395.3 24163.8 16368.8 24181.1C16375.9 24266.7 16415.6 24425.5 16440.1 24511.1C16460.5 24509 16616.3 24488.7 16620.3 24490.7C16625.4 24492.8 16676.4 24562 16677.4 24567.1C16678.4 24571.2 16625.4 24743.3 16619.3 24765.7C16665.2 24800.3 16712 24830.9 16757.8 24866.5C16740.5 25028.4 16747.6 24999.9 16633.6 24904.2C16613.2 24887.9 16593.9 24872.6 16573.5 24856.3C16560.3 24890.9 16552.1 24918.4 16542.9 24954.1C16609.1 25017.2 16690.6 25079.3 16749.7 25145.5C16699.8 25308.5 16703.8 25226 16716.1 25403.2C16721.2 25479.6 16719.1 25456.2 16675.3 25520.3C16648.9 25559 16651.9 25557 16652.9 25605.9C16653.9 25629.3 16663.1 25715.8 16672.3 25733.2C16676.4 25740.3 16729.3 25795.3 16731.3 25800.4C16734.4 25810.6 16719.1 25873.7 16712 25880.8C16706.9 25884.9 16583.7 25915.4 16567.4 25919.5C16569.4 25975.5 16579.6 26020.3 16589.8 26074.3C16652.9 26067.2 16721.2 26057 16783.3 26055C16795.5 26098.8 16799.6 26184.3 16813.8 26210.8C16824 26229.1 16842.3 26256.6 16853.6 26274.9C16898.4 26266.8 17052.1 26231.1 17086.8 26236.2C17116.3 26240.3 17160.1 26252.5 17188.6 26261.7C17156 26367.6 17108.2 26475.6 17070.5 26581.5C17100 26584.5 17266 26601.8 17283.3 26595.7C17292.5 26591.7 17414.7 26478.6 17420.8 26476.6C17426.9 26474.5 17517.5 26484.7 17530.8 26486.8C17524.7 26505.1 17483.9 26617.1 17476.8 26624.2C17476.8 26625.3 17326.1 26712.8 17301.6 26730.2C17313.9 26745.4 17366.8 26804.5 17381.1 26810.6C17393.3 26815.7 17636.7 26819.8 17671.3 26820.8C17665.2 26875.8 17660.1 26929.8 17648.9 26983.7C17553.2 26986.8 17459.5 26976.6 17367.8 26980.7C17465.6 27060.1 17594.9 27125.3 17685.6 27204.7C17707 27224.1 17703.9 27239.4 17709 27271.9C17729.4 27404.3 17710 27370.7 17815.9 27455.3C17880.1 27507.2 17856.7 27490.9 17888.2 27562.2C17899.4 27587.6 17891.3 27580.5 17931 27577.5C17944.2 27577.5 18034.9 27568.3 18041 27570.3C18055.3 27576.4 18076.6 27623.3 18081.7 27639.6C18046.1 27684.4 17977.9 27731.2 17932 27776L17844.4 27860.6C17844.4 27860.6 17864.8 27983.8 17866.9 27996C17887.2 27997 18097 28005.2 18098 28005.2L18178.5 28091.7L18118.4 28188.5L18098 28221.1L18124.5 28296.4C18183.6 28288.3 18243.7 28280.1 18300.7 28268.9C18298.6 28242.5 18271.2 28017.4 18271.2 28016.4C18273.2 28011.3 18326.1 27963.4 18334.3 27956.3C18393.4 28005.2 18669.3 28300.5 18704 28306.6C18729.4 28311.7 18908.7 28222.1 18944.3 28204.8L19015.6 28364.7L19023.7 28383L18436.1 28393.2L18244.7 28741.5L18061.4 28881L17753.8 28722.1L17516.5 28910.5L17393.3 28771L17264 28468.6L17144.8 28388.1L16450.3 28630.5L16309.7 28646.8L15949.2 28609.1L15771 28296.4L15743.5 27482.7L15466.5 27129.4L15283.2 27237.3L15196.6 27528.6L15304.6 27625.3V27776L15530.7 27949.2L15553.1 28283.2L15423.7 28422.7L15196.6 28455.3L15111.1 28240.4L14647.7 27744.5L14811.7 27486.8L14862.6 27366.7L14765.9 26752.6L14647.7 26698.6L14464.4 26795.3L14474.6 27183.3L14345.3 27312.7L13881.9 27173.2L13451.1 27679.3L13418.5 27700.7L13105.9 27754.7L12796.3 27562.2L12518.3 27556.1L12524.4 27366.7L12609.9 27237.3L11995.8 26493.9L11812.5 26343.2L11597.6 26385.9L11478.5 26559.1L11391.9 26989.8L11247.3 26977.6L10993.7 26526.5L10465.2 26536.7L10086.3 26372.7L9969.23 26321.8L10223.8 26072.3L10347.1 25922.6L10281.9 25760.6L9926.46 25717.9L9851.1 25534.6L10131.2 25297.3L10163.7 25136.4L9780.83 24925.6L9107.67 24244.3L8644.3 24254.4L8385.63 23985.6L8083.17 23748.3L8287.87 23511L8158.53 23295.1L7911.06 23177L7824.5 23295.1L7943.65 23586.4L7792.93 23661.7L7173.75 23413.3L6897.76 23435.7L6887.58 23737.1H6714.45L6650.29 23629.2L6305.06 23672.9V23414.3L6166.56 23283.9L5766.33 23317.5L5648.2 23607.8L5550.43 23694.3L5421.1 23597.6L5637 23155.6L5648.2 22562.9L5766.33 22422.4L5733.74 22206.5L5442.48 22389.8L5173.63 22293L5313.15 22519.1L4990.32 22777.8V23241.2L4839.6 23295.1L4591.11 23165.8L4580.92 22800.2L4473.99 22474.3L4484.18 22282.8L4720.44 22142.3L4731.65 22013L4376.23 21732.9L4268.28 21441.7L4397.61 21248.2L4311.05 21161.6L4106.35 21484.4L3772.32 21258.3L3341.54 20935.5L2802.81 21248.2V20978.3L2241.68 20331.6L2081.79 20358.1L2112.35 20040.3L2231.5 19986.4L2210.11 19781.7L2590.99 19848.9L2737.64 19997.6L3050.28 19976.2L2986.12 19771.5H2866.97L2856.79 19447.6L2932.15 19210.4L2598.12 19027L2048.19 19070.8L1657.12 18498.5L1586.86 18496.5L1567.51 18234.7L1854.69 17818.2L2112.35 17443.5L2382.22 17324.3L2315.01 17232.6L1357.72 16818.2L1358.74 16451.5L1208.01 16440.3V15880.2L1498.26 15416.9L1250.79 15190.8L1229.4 14802.8L966.656 14692.8L830.192 14866.9L679.47 14856.7L582.723 14080.7L45.0123 13229.4L119.355 12992.1L0.203125 12980.9V12383.1L103.061 12113.2L12.4238 11744.5L536.895 11665.1L747.702 11696.7L866.854 11454.3L1152 11362.6L1238.57 11573.4L1313.93 11524.6L1200.89 11233.3L1556.3 11249.6L1546.12 11136.6L1659.16 11077.5L1798.68 11217L1944.31 11233.3L1901.54 11039.8L2063.46 10980.7L2338.43 11115.2L2268.16 10926.8L2489.15 10969.5L2607.28 10532.7L2811.98 10630.4L2865.95 10506.2L2855.77 10263.8L2931.13 10101.9L2946.41 9504.08L3194.9 8965.35L3469.86 9083.48L3701.04 9358.45L3803.89 9191.43L4186.81 8798.33L3744.83 8394.03L3761.12 8274.88L3879.25 8232.11L3884.35 7973.44L3836.48 7849.19L3841.57 7413.32L4118.58 7628.2L4412.89 7623.11L4477.05 7547.75L4471.96 7402.12L4552.41 7390.92L4606.38 7289.08L4795.81 7364.44L4871.17 7251.4L5205.2 7385.82L5236.77 7444.89L5528.03 7439.8L5598.3 7310.46L5689.95 7245.29L5868.17 7397.03H6012.78L6089.16 7245.29L6023.98 7176.04L6120.73 7019.2L6104.44 6955.05L6487.35 6895.98L6557.62 6766.64L6940.54 6727.94L6891.65 6560.93L7026.08 6523.25L7063.76 6195.33L6924.24 5951.93L6999.6 5812.41L7042.38 5596.51L7241.98 5563.92L7322.43 5596.51L7468.06 5499.77L7209.39 5408.11V5187.12L7290.86 4993.62L7188.01 4756.34L6783.7 4643.3L6611.6 4497.67L6783.7 3747.11L6816.29 3735.91L7505.74 3671.75L7516.95 3359.11L7743.03 3251.16L7689.05 2971.1L8055.67 2884.54L8012.9 2625.87L7754.23 2637.07L7682.94 2536.25L7559.72 2119.73L7872.36 1817.26L8152.42 1807.08L8172.79 1917.07L8701.33 2027.05L8961.02 1558.59L9478.37 1969L10228.9 1517.86L10319.6 1634.97L10524.3 1602.38L10545.6 1365.1L10912.3 1515.82L10943.8 1494.43L11256.5 1407.87L11558.9 1461.85L11935.7 1322.33L12043.7 1117.63L12053.9 880.345L12593.6 351.8V158.305L12949 147.103L13111 351.8L13294.3 363.002L13563.1 653.243L14070.3 212.28L15093.8 492.338L15427.8 6.56526L15697.7 -3.61865L15750.6 79.8894L15681.4 163.397L15699.7 543.257L15599.9 575.846L15390.1 583.993L15368.7 751.009L15465.5 761.193L15341.2 1041.25L15347.4 1103.37L15719.1 1343.71L15681.4 1464.9L15778.1 1599.33L15758.8 1739.87H15748.6L15683.4 1787.73L15812.8 1974.1L15999.1 1960.86L15969.6 2175.74L16370.8 2445.61L16357.6 2647.25L15606 2709.37L15640.6 2976.19L15691.6 3095.34L15645.7 3218.57L15815.8 3337.72L15886.1 3547.51L15830.1 3554.64L15812.8 3717.58L15702.8 3719.62L15400.3 3911.08L15748.6 4061.8L15665.1 4441.66H15319.9L15336.1 4533.31L15144.7 4719.68L15088.7 4975.29L15308.7 5621.97L15061.2 5837.87L15018.4 6009.98L15020.4 6018.13L15282.2 6174.96L15344.3 6279.85L15727.2 6525.28L15532.7 6864.41L16012.4 7691.34L16047 7928.63L16166.1 7998.9L16244.6 8486.71L15963.5 8653.72L15742.5 9015.25V9117.09L15953.3 9165.97L16313.8 9493.89L16529.7 9747.47L16626.5 9979.67L16513.4 10033.6L16556.2 10217C16419.7 10374.8 16486.9 10343.2 16284.3 10318.8C16191.6 10307.6 16215 10295.4 16170.2 10374.8C16145.8 10417.6 15990 10717 15978.8 10727.2C15975.7 10731.2 15864.7 10781.1 15850.4 10787.2C15866.7 10814.7 16010.3 11063.2 16011.3 11068.3C16011.3 11075.5 15953.3 11227.2 15953.3 11235.3C15953.3 11262.8 16077.5 11589.7 16086.7 11673.2C16089.8 11699.7 16088.7 11692.6 16065.3 11718.1C16025.6 11760.8 15968.6 11799.5 15917.7 11829.1C15881 11770 15860.6 11710.9 15821.9 11653.9C15780.2 11675.3 15603 11811.8 15578.5 11846.4C15549 11889.1 15489.9 12131.5 15456.3 12198.7C15438 12232.3 15329 12371.9 15323.9 12388.2C15322.9 12391.2 15322.9 12456.4 15323.9 12458.4C15323.9 12460.5 15464.5 12637.7 15473.6 12646.8C15526.6 12698.8 15724.2 12821 15743.5 12877C15758.8 12921.8 15783.2 13066.4 15794.4 13122.4C15806.6 13180.5 15838.2 13363.8 15862.7 13405.5C15953.3 13558.3 15952.3 13489 15942.1 13681.5C15941.1 13702.9 15936 13818 15942.1 13830.2C15955.3 13857.7 16207.9 14022.7 16224.2 14051.2C16228.3 14058.3 16239.5 14160.2 16241.5 14163.2C16243.5 14167.3 16285.3 14206 16285.3 14206C16289.4 14213.1 16287.3 14538 16284.3 14543.1L16210.9 14593C16247.6 14613.3 16285.3 14632.7 16323 14653.1C16361.7 14672.4 16399.3 14691.8 16437 14711.1C16407.5 14774.2 16376.9 14836.4 16348.4 14899.5L16421.8 14981C16422.8 14984 16430.9 15070.6 16430.9 15080.8C16387.1 15082.8 16343.3 15082.8 16299.5 15084.9C16299.5 15121.5 16305.7 15473.9 16309.7 15481C16318.9 15503.4 16534.8 15683.7 16534.8 15703C16529.7 15921 16494.1 15834.4 16624.4 15998.4C16641.7 16019.7 16651.9 16032 16659 16058.4C16658 16074.7 16619.3 16110.4 16618.3 16145C16614.2 16269.2 16657 16249.9 16516.5 16280.4C16497.1 16284.5 16492 16290.6 16493 16316.1C16495.1 16359.9 16549.1 16390.4 16579.6 16415.9Z" fill="#1E1E1E"/>
 </g>
  <path style="fill:none;stroke:#747474;stroke-width:26.45833397px;stroke-linecap:butt;stroke-linejoin:miter;stroke-opacity:1" d="m 7646,5755.0001 70,328.9999 433,434 180,1005 339,180 413,593 c 159.6134,-139.9298 318.2849,-280.9341 476,-423 113.2718,-102.0325 226.0495,-204.6119 339,-307 175.914,-159.4639 352.248,-318.4647 529,-477 l 498.302,561.7588 803.503,64.9276 L 12245,7809 l -264,667 592,402 -53,159 c 123.701,59.9286 247.368,119.9287 371,180 137.71,66.9115 275.376,133.9115 413,201 l 275,-254 532.351,-11.8553 L 14457,9026 l 1101,95 63,-190 293,181.0002" id="path4597"/>
  <path style="fill:none;stroke:#717171;stroke-width:26.45833397px;stroke-linecap:butt;stroke-linejoin:miter;stroke-opacity:1" d="m 16374,14589 -284.915,-41.428 v 111.179 l -379.863,-87.873 -132.638,296.787 -826.4,193.225 -1267.953,-59.293 -646.705,-445.191 -431.006,161.178 -79.876,395.046 263.863,549.781 178.052,782.798 359.92,107.046 -160.793,248.697 -513.93,111.852 -302.608,291.456 -21.558,371.448 162.67,398.256 -137.514,219.143 -253.884,554.5 L 11634,18961 h -413 l 21,-434 -186.103,-413.821 -77.897,371.821 -241.545,-355.003 -220.631,117.859 -352.265,-42.496 -0.559,332.64 -32,243 -417.4414,-10.947 L 9298,18793 l -315,-213 -95,-275 137,-413 -582,-412 -444,42 -233,106 -85,275 -317,-233 -688,-169 -498,444 -121,-47 -720,254 -1344,84 -646,-158 -423,169 -345.6271,-324.627 L 2268,17750" id="path4601"/>
</svg>