<?xml version="1.0" encoding="utf-8"?>
<svg viewBox="48.571 34.767 385.475 394.678" xmlns="http://www.w3.org/2000/svg">
  <g id="layer1" transform="matrix(1, 0, 0, 1, -35.547573, -13.308515)">
    <path style="fill:none;stroke:transparent;stroke-width:0.80000001px;stroke-linecap:butt;stroke-linejoin:miter;stroke-opacity:1" d="M 91.4751,269.36498 254.21397,418.45155" id="path4514"/>
  </g>
  <g id="layer3" style="display:inline" transform="matrix(1, 0, 0, 1, -35.547573, -13.308515)">
    <g transform="translate(376.5941,21.92498)" style="fill:none;stroke:white;stroke-width:0.95999998;stroke-linecap:butt;stroke-linejoin:miter;stroke-dasharray:none" id="g6517"/>
    <g transform="translate(111.3951,21.92498)" style="fill:none;stroke:white;stroke-width:0.95999998;stroke-linecap:butt;stroke-linejoin:miter;stroke-dasharray:none" id="g6521"/>
    <g transform="translate(473.3151,175.28498)" style="fill:none;stroke:white;stroke-width:0.95999998;stroke-linecap:butt;stroke-linejoin:miter;stroke-dasharray:none" id="g6525"/>
    <g transform="translate(415.9541,179.84498)" style="fill:none;stroke:white;stroke-width:0.95999998;stroke-linecap:butt;stroke-linejoin:miter;stroke-dasharray:none" id="g6529"/>
    <g transform="translate(469.4751,357.44498)" style="fill:none;stroke:white;stroke-width:0.95999998;stroke-linecap:butt;stroke-linejoin:miter;stroke-dasharray:none" id="g6533"/>
    <g transform="translate(48.9943,320.24498)" style="fill:none;stroke:white;stroke-width:0.95999998;stroke-linecap:butt;stroke-linejoin:miter;stroke-dasharray:none" id="g6537"/>
    <g transform="translate(426.7541,406.88498)" style="fill:none;stroke:white;stroke-width:0.95999998;stroke-linecap:butt;stroke-linejoin:miter;stroke-dasharray:none" id="g6541"/>
    <g transform="translate(380.6741,100.40498)" style="fill:none;stroke:white;stroke-width:0.95999998;stroke-linecap:butt;stroke-linejoin:miter;stroke-dasharray:none" id="g6545"/>
    <g transform="translate(157.4751,50.24498)" style="fill:none;stroke:white;stroke-width:0.95999998;stroke-linecap:butt;stroke-linejoin:miter;stroke-dasharray:none" id="g6549"/>
    <g transform="translate(87.1541,76.64398)" style="fill:none;stroke:white;stroke-width:0.95999998;stroke-linecap:butt;stroke-linejoin:miter;stroke-dasharray:none" id="g6553"/>
    <g transform="translate(401.0741,192.32498)" style="fill:none;stroke:white;stroke-width:0.95999998;stroke-linecap:butt;stroke-linejoin:miter;stroke-dasharray:none" id="g6557"/>
    <g transform="translate(421.7141,357.44498)" style="fill:none;stroke:white;stroke-width:0.95999998;stroke-linecap:butt;stroke-linejoin:miter;stroke-dasharray:none" id="g6561"/>
    <g transform="translate(87.1541,320.24498)" style="fill:none;stroke:white;stroke-width:0.95999998;stroke-linecap:butt;stroke-linejoin:miter;stroke-dasharray:none" id="g6565"/>
    <path id="path8392" d="M 110.321 353.446 L 106.815 353.605 L 105.423 351.788 L 104.435 350.245 L 104.194 349.765 L 104.194 349.045 L 103.714 347.604 L 103.714 346.885 L 103.234 345.445 L 103.234 344.725 L 102.994 344.245 L 102.994 343.524 L 102.515 342.085 L 102.515 341.365 L 102.034 339.925 L 102.034 339.205 L 101.794 338.725 L 101.315 337.285 L 101.315 336.564 L 99.634 331.524 L 99.154 330.805 L 98.914 330.085 L 98.435 329.604 L 97.954 328.165 L 97.475 327.445 L 97.234 326.725 L 96.754 326.245 L 96.274 325.524 L 94.355 323.604 L 93.634 323.125 L 92.674 322.165 L 91.954 321.925 L 91.475 321.684 L 87.154 320.245 L 87.395 319.765 L 87.874 318.325 L 87.874 317.604 L 88.355 316.165 L 88.594 315.684 L 88.594 314.965 L 89.315 312.805 L 89.554 312.325 L 89.554 311.604 L 90.515 308.725 L 90.515 308.005 L 90.754 307.285 L 90.754 306.564 L 90.994 305.845 L 90.994 305.125 L 91.234 304.405 L 91.234 302.725 L 91.475 302.245 L 91.475 299.365 L 91.714 298.644 L 91.475 297.684 L 91.475 296.965 L 91.234 296.485 L 91.234 295.765 L 90.994 295.045 L 90.994 293.604 L 90.754 293.125 L 90.754 292.405 L 91.234 291.684 L 91.714 291.205 L 92.674 291.205 L 93.395 291.445 L 94.114 291.205 L 94.834 290.485 L 95.074 289.524 L 94.834 289.045 L 94.594 288.325 L 94.114 287.845 L 93.874 287.125 L 93.395 286.405 L 93.154 285.684 L 92.914 285.205 L 92.435 283.765 L 92.435 283.045 L 92.194 282.325 L 91.954 281.365 L 91.714 280.644 L 91.714 275.604 L 91.475 274.885 L 91.475 269.365 L 91.234 268.405 L 91.234 267.684 L 90.754 266.245 L 90.754 265.285 L 89.794 262.405 L 89.794 261.684 L 89.554 260.965 L 89.074 260.485 L 88.594 259.045 L 88.114 258.325 L 87.395 256.165 L 87.395 254.965 L 87.634 254.245 L 88.114 253.765 L 88.834 253.285 L 89.315 252.805 L 90.034 252.325 L 90.994 251.365 L 91.234 250.405 L 90.754 248.965 L 90.274 248.245 L 90.034 247.765 L 89.554 247.045 L 89.315 246.564 L 89.074 245.845 L 88.834 245.365 L 88.834 244.644 L 88.594 243.925 L 88.594 242.965 L 88.834 242.005 L 89.315 241.524 L 89.554 241.045 L 89.794 240.325 L 90.034 239.845 L 90.034 239.125 L 90.274 238.405 L 90.754 237.445 L 91.234 236.725 L 91.714 236.485 L 94.114 234.085 L 94.834 233.845 L 95.315 233.365 L 95.794 232.644 L 96.034 231.925 L 96.515 230.965 L 96.515 230.245 L 96.994 228.805 L 97.234 227.845 L 98.194 226.885 L 98.914 226.644 L 99.634 226.165 L 100.594 225.925 L 100.834 225.445 L 101.315 224.725 L 101.554 224.245 L 101.554 222.085 L 102.515 219.205 L 102.994 218.725 L 103.954 215.845 L 104.435 215.125 L 104.674 214.644 L 105.634 213.925 L 108.994 213.925 L 109.714 214.165 L 111.154 214.165 L 111.634 214.405 L 112.355 214.405 L 113.074 214.644 L 113.794 214.644 L 114.515 214.885 L 115.954 214.885 L 116.914 213.925 L 117.395 213.205 L 117.634 212.725 L 117.874 212.005 L 118.355 211.524 L 118.594 210.805 L 118.834 210.325 L 119.315 209.604 L 119.554 209.125 L 119.794 208.405 L 120.994 207.205 L 121.954 206.725 L 122.435 206.965 L 123.154 206.965 L 124.594 207.445 L 125.315 207.445 L 126.034 207.925 L 127.475 208.405 L 128.435 209.365 L 129.154 209.845 L 129.634 210.325 L 130.355 210.564 L 131.074 211.045 L 132.515 211.524 L 133.714 211.524 L 135.874 212.245 L 136.594 212.725 L 137.554 213.684 L 138.274 214.165 L 138.754 214.644 L 139.475 214.885 L 139.954 215.365 L 140.914 215.604 L 142.355 216.085 L 144.034 216.085 L 144.754 215.845 L 145.475 215.365 L 145.954 214.644 L 146.435 214.165 L 146.914 213.445 L 147.154 212.965 L 147.634 212.245 L 149.315 210.564 L 150.754 210.085 L 151.234 209.845 L 151.954 209.604 L 152.674 209.125 L 154.834 209.125 L 155.554 208.885 L 156.994 208.885 L 157.714 208.644 L 158.194 208.644 L 159.634 207.684 L 160.355 206.965 L 160.355 205.524 L 159.395 202.644 L 159.395 201.684 L 159.154 200.965 L 159.395 200.245 L 159.395 198.325 L 159.154 197.365 L 159.154 196.644 L 158.674 195.205 L 158.194 194.725 L 157.714 194.005 L 157.475 193.524 L 156.994 193.045 L 156.515 192.325 L 156.274 191.845 L 156.034 191.125 L 155.794 190.165 L 155.794 187.524 L 156.034 186.805 L 156.515 186.325 L 156.754 185.604 L 156.994 185.125 L 157.475 184.405 L 158.435 183.445 L 158.435 182.965 L 158.674 182.485 L 158.914 181.524 L 158.435 180.805 L 158.194 180.325 L 157.954 179.604 L 156.994 178.644 L 156.515 177.925 L 156.034 177.445 L 155.794 176.965 L 155.315 175.524 L 155.074 174.564 L 155.315 173.604 L 155.315 172.405 L 155.554 171.445 L 155.315 170.485 L 155.074 169.765 L 154.594 169.285 L 154.114 169.045 L 153.395 168.805 L 152.435 168.564 L 150.994 168.085 L 150.515 167.604 L 150.274 167.125 L 150.034 166.165 L 150.034 164.485 L 149.315 162.325 L 148.834 161.604 L 148.355 160.165 L 148.355 159.445 L 148.594 158.725 L 149.074 157.765 L 152.674 156.564 L 154.114 155.845 L 154.355 155.125 L 154.355 154.405 L 154.114 153.684 L 153.874 152.725 L 153.395 151.285 L 153.154 150.805 L 152.674 149.365 L 152.194 148.885 L 151.475 148.405 L 142.834 148.405 L 141.874 148.165 L 140.435 147.684 L 139.475 146.245 L 139.234 145.524 L 139.234 143.845 L 139.714 142.885 L 140.674 141.925 L 141.395 141.445 L 141.874 141.205 L 142.594 140.485 L 142.834 139.765 L 141.395 138.325 L 140.674 137.845 L 140.194 137.365 L 139.714 137.125 L 138.994 136.644 L 138.515 136.165 L 137.794 135.684 L 137.554 134.725 L 137.074 133.285 L 137.315 132.564 L 137.315 130.165 L 137.554 129.445 L 137.794 128.485 L 138.274 127.524 L 139.714 127.045 L 140.435 127.045 L 141.154 127.285 L 141.874 127.765 L 142.355 128.005 L 143.315 128.005 L 143.794 127.765 L 144.754 126.805 L 145.714 125.365 L 145.714 124.885 L 145.954 124.165 L 145.954 123.205 L 145.475 122.725 L 144.994 122.005 L 144.034 121.045 L 143.074 119.604 L 143.554 118.165 L 144.034 117.445 L 144.994 116.485 L 145.475 115.045 L 145.954 114.325 L 146.194 113.604 L 146.674 113.125 L 147.154 111.684 L 147.634 110.965 L 147.874 110.245 L 148.114 109.765 L 148.594 109.045 L 149.074 107.604 L 149.554 106.885 L 150.034 105.445 L 150.034 104.005 L 149.315 101.845 L 149.074 101.365 L 148.594 100.885 L 148.114 100.165 L 147.395 99.684 L 146.914 99.205 L 146.435 98.965 L 145.714 98.485 L 144.994 98.245 L 144.274 97.765 L 143.554 97.524 L 142.834 97.045 L 142.114 96.805 L 141.395 96.325 L 140.914 95.604 L 140.914 94.885 L 140.674 94.405 L 140.914 93.445 L 141.154 92.725 L 141.634 92.005 L 142.114 90.564 L 143.074 89.125 L 143.554 88.885 L 144.994 88.885 L 145.714 89.125 L 146.435 89.125 L 146.914 89.365 L 147.634 89.604 L 148.594 89.604 L 149.315 89.365 L 149.794 88.885 L 150.515 88.405 L 151.475 87.445 L 151.714 86.965 L 152.194 86.485 L 152.674 85.765 L 152.914 85.045 L 153.154 84.085 L 152.194 83.125 L 150.754 82.165 L 150.034 81.925 L 149.554 81.205 L 149.794 80.725 L 150.274 80.485 L 152.914 80.485 L 153.634 80.245 L 154.355 80.245 L 154.834 80.005 L 155.315 79.285 L 156.754 77.845 L 156.994 77.125 L 157.475 76.644 L 158.194 76.644 L 158.914 76.405 L 160.355 76.405 L 161.074 76.165 L 162.034 76.165 L 162.754 75.925 L 164.194 75.925 L 164.914 75.684 L 166.355 75.684 L 167.074 75.445 L 167.794 75.445 L 168.515 75.205 L 170.674 75.205 L 171.634 75.445 L 172.355 75.445 L 173.074 75.684 L 173.794 75.684 L 174.515 75.925 L 175.954 75.925 L 176.674 76.165 L 177.395 76.165 L 178.114 76.405 L 179.074 76.405 L 179.794 76.644 L 180.515 76.644 L 181.234 76.405 L 181.954 76.405 L 182.914 76.165 L 184.355 76.165 L 187.234 75.205 L 187.954 75.205 L 188.674 74.965 L 189.154 74.725 L 191.315 74.005 L 192.034 74.005 L 195.634 72.805 L 196.355 72.805 L 197.074 72.564 L 204.515 72.564 L 205.475 72.325 L 209.794 72.325 L 211.954 71.604 L 212.674 71.125 L 213.154 70.885 L 213.874 70.644 L 215.794 70.644 L 217.234 71.125 L 217.954 71.604 L 218.435 71.845 L 219.874 72.325 L 220.594 72.805 L 221.315 73.045 L 221.794 73.285 L 222.515 73.765 L 223.234 74.005 L 223.954 74.005 L 224.435 74.245 L 226.114 74.245 L 226.834 74.005 L 228.274 74.005 L 230.435 73.285 L 231.395 73.045 L 231.874 72.085 L 232.834 71.125 L 233.074 70.405 L 233.554 69.684 L 233.794 68.965 L 234.274 68.485 L 234.515 67.765 L 234.994 67.045 L 235.475 66.564 L 236.194 66.325 L 249.395 66.325 L 250.834 66.805 L 251.315 67.045 L 252.034 67.525 L 252.515 67.765 L 253.234 68.005 L 253.714 68.485 L 254.435 68.725 L 255.154 69.445 L 255.634 70.165 L 256.114 70.644 L 256.834 70.885 L 257.554 70.644 L 258.274 70.644 L 261.874 69.445 L 262.594 68.965 L 263.074 68.725 L 263.794 68.245 L 264.515 68.005 L 264.994 67.765 L 266.435 67.765 L 267.154 68.005 L 267.874 68.005 L 268.594 68.245 L 269.315 68.245 L 270.034 68.485 L 271.475 68.485 L 272.194 68.725 L 272.914 68.725 L 273.634 68.965 L 274.355 68.965 L 275.074 69.205 L 275.794 69.205 L 276.515 69.445 L 277.234 69.445 L 277.954 69.205 L 278.194 68.965 L 278.674 68.725 L 278.914 68.245 L 279.395 67.525 L 279.634 66.805 L 279.874 66.325 L 280.355 64.885 L 280.594 64.405 L 280.834 63.684 L 281.315 62.965 L 281.554 62.245 L 281.794 61.765 L 282.274 61.045 L 282.515 60.325 L 283.234 59.845 L 283.714 59.365 L 284.435 59.125 L 284.914 58.644 L 287.074 57.925 L 287.794 57.445 L 288.274 57.205 L 288.994 56.965 L 289.714 56.485 L 290.674 55.525 L 291.154 54.805 L 291.874 53.365 L 292.114 52.644 L 292.355 51.684 L 292.594 50.965 L 293.074 50.485 L 294.034 50.245 L 294.994 50.245 L 295.714 50.485 L 297.154 50.485 L 297.874 50.725 L 298.594 50.725 L 299.315 50.965 L 300.034 50.965 L 300.994 51.205 L 302.435 51.205 L 303.874 51.684 L 304.594 52.165 L 304.834 53.125 L 304.355 54.564 L 304.594 55.525 L 305.074 56.245 L 305.315 56.965 L 306.034 57.445 L 308.194 59.604 L 308.435 60.325 L 308.914 61.285 L 308.435 62.245 L 308.435 63.925 L 308.914 65.365 L 308.914 66.085 L 309.154 67.045 L 308.914 67.765 L 308.914 69.684 L 309.154 70.165 L 309.154 70.644 L 309.634 71.125 L 310.114 72.564 L 310.355 73.045 L 310.834 73.765 L 311.074 74.485 L 311.315 74.965 L 311.554 75.684 L 312.034 76.165 L 312.274 76.885 L 312.754 77.365 L 313.234 78.085 L 313.714 78.325 L 314.194 78.805 L 314.914 79.285 L 315.874 80.245 L 316.594 80.485 L 317.074 80.965 L 317.794 81.445 L 318.034 82.405 L 318.034 83.125 L 317.074 84.085 L 316.594 84.805 L 316.114 85.285 L 315.634 86.005 L 315.154 86.485 L 314.914 86.965 L 314.435 87.684 L 313.954 88.165 L 313.475 88.885 L 312.515 89.845 L 312.034 90.564 L 311.554 91.045 L 311.074 91.765 L 310.834 92.245 L 310.355 92.965 L 309.874 94.405 L 309.874 95.125 L 311.315 96.564 L 313.475 98.005 L 314.435 99.925 L 314.435 100.885 L 314.914 102.325 L 315.154 102.805 L 315.634 103.525 L 316.114 104.005 L 316.355 104.485 L 316.834 105.205 L 317.074 105.925 L 317.074 106.405 L 316.834 107.125 L 316.355 107.845 L 315.395 108.805 L 314.914 109.525 L 314.674 110.005 L 314.435 110.725 L 314.674 111.205 L 314.914 111.925 L 317.074 113.365 L 318.515 113.845 L 319.234 113.845 L 320.674 114.325 L 321.395 114.325 L 322.114 114.085 L 324.515 114.085 L 325.234 113.845 L 326.674 113.845 L 327.395 114.085 L 328.114 114.085 L 328.834 114.325 L 329.554 114.325 L 330.274 114.564 L 330.994 114.564 L 331.714 114.805 L 332.435 114.805 L 333.154 115.045 L 333.874 115.045 L 334.594 115.285 L 335.315 115.285 L 336.034 115.525 L 336.754 115.285 L 339.634 115.285 L 340.355 115.045 L 343.234 115.045 L 343.954 114.805 L 346.834 114.805 L 347.554 114.564 L 350.435 114.564 L 351.154 114.325 L 351.874 114.564 L 352.594 114.564 L 353.315 114.805 L 354.754 114.805 L 355.234 114.564 L 355.475 114.085 L 355.714 113.365 L 355.714 111.445 L 355.954 110.485 L 356.194 109.765 L 356.674 109.285 L 357.154 109.045 L 357.874 108.805 L 358.834 108.325 L 359.794 108.325 L 360.515 108.085 L 361.954 108.085 L 362.674 107.845 L 364.355 107.845 L 365.074 107.604 L 365.794 107.604 L 366.515 107.845 L 367.475 107.845 L 367.954 107.604 L 368.674 107.365 L 369.395 106.885 L 370.114 106.644 L 372.994 103.765 L 373.714 103.285 L 374.674 102.325 L 375.154 101.604 L 375.634 101.125 L 376.355 100.644 L 377.074 100.405 L 380.674 100.405 L 381.154 100.644 L 381.874 100.644 L 382.594 100.885 L 384.034 100.885 L 384.754 101.125 L 385.475 101.125 L 386.194 101.365 L 386.914 101.365 L 387.395 101.604 L 388.594 101.845 L 389.554 102.805 L 389.794 103.525 L 390.034 104.485 L 390.034 105.925 L 389.794 106.885 L 389.315 107.845 L 389.074 108.564 L 388.114 110.005 L 387.395 112.165 L 387.395 114.085 L 387.154 115.045 L 387.395 115.765 L 387.395 117.445 L 388.114 118.885 L 388.355 119.604 L 388.834 120.085 L 389.074 120.564 L 389.554 121.045 L 389.794 121.525 L 390.994 122.725 L 392.435 123.205 L 392.914 123.684 L 394.355 124.165 L 394.834 124.644 L 396.274 125.125 L 397.234 126.085 L 397.475 127.045 L 397.475 131.365 L 397.234 131.845 L 395.794 133.285 L 394.834 133.525 L 394.355 133.765 L 393.874 134.485 L 393.634 135.205 L 393.634 135.925 L 393.874 136.405 L 394.355 137.845 L 394.834 138.564 L 395.074 139.285 L 395.315 139.765 L 395.794 140.485 L 396.034 141.205 L 396.515 141.925 L 396.754 142.644 L 396.994 143.125 L 397.475 143.845 L 397.714 144.564 L 397.954 145.525 L 397.954 148.885 L 397.714 149.604 L 397.714 150.325 L 397.234 151.765 L 396.515 152.245 L 396.034 152.485 L 395.554 152.965 L 394.834 153.205 L 394.355 153.684 L 393.634 154.165 L 393.154 154.405 L 392.435 154.885 L 391.954 155.365 L 391.234 155.604 L 390.754 156.085 L 390.274 156.325 L 389.554 156.805 L 389.074 157.285 L 388.834 157.765 L 388.355 158.485 L 388.355 158.725 L 388.114 159.205 L 388.114 159.445 L 387.874 160.405 L 387.874 161.845 L 388.114 162.325 L 388.355 163.045 L 388.594 163.525 L 389.074 164.245 L 389.315 164.725 L 389.554 165.445 L 389.794 165.925 L 390.274 166.405 L 390.994 168.564 L 391.234 169.045 L 391.234 170.965 L 391.714 171.925 L 392.435 172.644 L 393.154 173.125 L 393.874 173.365 L 394.594 173.845 L 396.034 174.325 L 396.754 174.325 L 397.234 174.564 L 398.674 174.564 L 399.395 174.805 L 399.874 174.805 L 400.594 175.045 L 401.315 175.765 L 401.794 176.725 L 402.034 177.445 L 402.515 177.925 L 402.754 178.644 L 403.234 179.365 L 403.714 180.805 L 404.674 182.245 L 405.154 182.725 L 405.395 183.445 L 405.874 184.165 L 406.355 184.644 L 406.594 185.365 L 407.074 186.085 L 407.315 186.805 L 407.554 187.285 L 407.554 187.765 L 408.034 188.485 L 408.994 188.725 L 412.355 188.725 L 413.074 188.485 L 413.794 188.965 L 414.515 189.205 L 414.754 189.925 L 414.994 190.405 L 415.234 191.125 L 415.714 191.604 L 415.954 192.325 L 414.514 193.765 L 414.034 194.485 L 412.594 195.925 L 412.594 197.604 L 413.315 198.085 L 414.034 198.325 L 414.754 198.805 L 415.475 199.045 L 416.194 199.524 L 416.914 200.485 L 417.874 201.925 L 417.874 203.845 L 416.914 205.285 L 416.674 205.765 L 416.435 206.485 L 416.435 207.925 L 416.674 208.405 L 416.914 209.125 L 416.914 209.604 L 417.395 211.045 L 417.395 212.725 L 416.914 213.445 L 416.194 213.925 L 415.475 214.165 L 414.994 214.644 L 414.274 214.885 L 413.554 215.365 L 413.074 216.085 L 412.594 217.045 L 412.594 218.965 L 412.834 219.684 L 412.834 221.125 L 412.594 222.085 L 412.114 222.805 L 411.395 223.045 L 410.914 223.285 L 410.194 223.765 L 409.475 224.005 L 408.994 224.245 L 408.274 224.725 L 407.554 224.965 L 407.074 225.445 L 406.355 225.684 L 405.874 226.165 L 405.154 226.405 L 404.674 226.885 L 404.194 227.125 L 402.994 228.325 L 402.754 229.045 L 402.274 229.524 L 401.794 230.245 L 401.554 230.725 L 401.315 231.445 L 401.315 232.165 L 401.074 232.885 L 401.074 234.325 L 401.315 235.285 L 402.034 236.725 L 402.514 237.205 L 403.234 237.684 L 404.674 238.165 L 405.395 238.165 L 406.114 238.405 L 408.994 238.405 L 409.954 238.644 L 410.674 238.885 L 411.634 239.845 L 412.114 240.805 L 412.114 241.045 L 412.355 241.524 L 412.594 242.245 L 412.594 242.965 L 412.834 243.925 L 412.355 244.644 L 411.874 245.125 L 411.154 245.365 L 410.194 245.845 L 409.714 246.564 L 409.234 248.005 L 408.994 248.965 L 408.514 249.684 L 408.034 250.644 L 407.554 251.125 L 407.074 251.845 L 407.315 252.564 L 407.554 253.045 L 408.274 253.285 L 408.994 253.765 L 409.475 254.245 L 410.194 254.485 L 410.914 254.965 L 412.355 256.405 L 413.074 256.644 L 415.234 256.644 L 416.674 257.125 L 417.634 258.085 L 418.594 259.524 L 418.834 260.485 L 419.074 261.205 L 419.315 262.165 L 419.315 263.125 L 419.074 264.085 L 418.594 264.325 L 417.874 264.805 L 416.914 265.765 L 416.435 266.725 L 416.435 267.925 L 416.674 268.644 L 416.674 269.604 L 417.154 270.564 L 418.114 272.005 L 418.594 272.245 L 420.034 272.725 L 420.514 272.965 L 421.234 272.965 L 421.954 273.205 L 422.674 273.684 L 422.914 274.165 L 423.154 274.885 L 423.395 275.365 L 423.395 276.085 L 423.634 276.805 L 423.634 277.524 L 423.874 278.245 L 423.874 278.965 L 424.355 280.405 L 424.355 281.125 L 424.594 281.845 L 424.594 282.564 L 424.834 283.045 L 424.834 283.765 L 425.074 284.485 L 425.074 285.205 L 425.315 285.925 L 425.315 286.644 L 425.794 288.085 L 425.794 288.805 L 426.034 289.285 L 426.274 290.005 L 426.514 290.485 L 427.234 290.965 L 428.674 290.965 L 429.395 291.205 L 430.834 291.205 L 431.554 291.445 L 434.435 291.445 L 435.395 291.205 L 436.114 291.205 L 436.834 291.445 L 437.315 291.925 L 437.794 292.165 L 438.274 292.644 L 438.754 293.365 L 438.994 293.845 L 439.475 294.325 L 439.954 294.564 L 440.914 295.285 L 441.634 295.524 L 442.355 296.005 L 442.834 296.725 L 442.834 297.684 L 442.594 298.165 L 441.874 298.644 L 441.395 298.885 L 440.674 299.125 L 440.194 299.604 L 439.475 299.845 L 438.994 300.564 L 438.514 301.524 L 438.514 302.245 L 438.274 302.965 L 438.274 303.684 L 438.514 304.165 L 438.514 304.885 L 438.754 305.604 L 439.234 306.325 L 439.475 306.805 L 440.194 307.285 L 441.634 308.725 L 442.355 308.965 L 442.834 309.445 L 443.554 309.925 L 444.034 310.165 L 444.754 310.644 L 445.234 311.125 L 447.395 311.845 L 447.874 312.085 L 448.594 312.564 L 451.475 313.524 L 451.954 313.765 L 452.435 314.245 L 452.914 315.684 L 452.914 321.925 L 453.154 322.644 L 453.154 323.365 L 453.395 324.085 L 453.634 324.564 L 453.874 325.285 L 454.114 325.765 L 454.355 326.485 L 454.834 327.205 L 455.074 327.684 L 455.554 328.405 L 455.794 328.885 L 456.034 329.604 L 456.994 330.564 L 457.475 331.285 L 457.954 331.765 L 458.194 332.245 L 458.674 332.725 L 459.154 333.445 L 459.634 334.885 L 460.114 335.604 L 460.355 336.325 L 460.834 337.045 L 461.554 339.205 L 461.554 339.925 L 461.794 340.885 L 461.554 341.604 L 461.554 342.564 L 461.315 343.285 L 461.074 343.765 L 460.594 344.245 L 460.355 344.725 L 459.395 345.684 L 458.914 345.925 L 458.194 345.925 L 457.954 346.165 L 457.714 346.644 L 457.475 347.365 L 457.475 347.845 L 457.234 348.564 L 456.994 349.045 L 456.514 349.524 L 456.274 350.245 L 454.834 351.684 L 454.114 352.165 L 453.634 352.644 L 453.154 352.885 L 452.435 355.045 L 452.435 355.765 L 452.674 356.485 L 453.154 356.965 L 453.874 357.205 L 454.355 356.965 L 454.834 356.965 L 455.554 356.725 L 456.274 356.245 L 456.994 356.005 L 457.475 355.765 L 458.194 355.524 L 458.914 355.045 L 461.074 354.325 L 461.554 354.085 L 462.514 353.845 L 463.234 353.604 L 464.674 353.604 L 466.114 354.085 L 466.594 354.805 L 467.315 355.285 L 467.794 355.765 L 468.274 356.485 L 468.994 356.965 L 469.475 357.445 L 468.994 358.165 L 468.034 359.125 L 467.794 359.845 L 467.315 360.325 L 466.834 361.045 L 465.395 362.485 L 464.674 362.965 L 464.194 363.205 L 463.475 363.445 L 462.754 363.445 L 462.034 363.684 L 461.315 363.684 L 460.594 363.925 L 459.395 363.925 L 458.435 364.405 L 457.714 365.125 L 457.475 365.845 L 457.234 366.325 L 456.754 367.045 L 456.514 367.524 L 456.034 368.245 L 455.794 368.725 L 455.315 369.205 L 454.834 369.925 L 454.594 370.405 L 454.114 370.885 L 453.634 371.604 L 451.234 374.005 L 450.754 374.245 L 450.274 374.245 L 449.794 373.765 L 449.554 373.285 L 448.594 370.405 L 448.594 369.684 L 448.114 368.245 L 447.634 367.765 L 447.395 367.045 L 446.914 366.564 L 446.914 364.885 L 447.154 363.925 L 446.914 363.205 L 446.194 362.485 L 445.475 362.245 L 444.994 362.005 L 443.074 362.005 L 442.114 362.245 L 440.674 363.684 L 440.194 363.925 L 439.234 364.885 L 438.754 365.604 L 438.274 366.085 L 437.794 366.805 L 437.315 367.285 L 437.074 368.005 L 436.594 368.485 L 436.355 369.205 L 435.874 369.684 L 435.395 370.405 L 434.435 371.365 L 434.194 371.845 L 433.714 372.564 L 430.834 375.445 L 430.114 375.925 L 428.674 377.365 L 428.435 377.845 L 427.954 378.325 L 427.475 379.045 L 427.234 379.765 L 427.234 385.285 L 426.994 386.005 L 426.994 386.725 L 426.754 387.445 L 426.514 387.925 L 426.034 389.365 L 425.554 390.325 L 425.315 391.045 L 425.074 391.524 L 424.594 392.005 L 424.114 392.725 L 423.874 393.205 L 422.914 394.165 L 422.674 394.885 L 422.194 395.365 L 421.714 396.805 L 421.714 397.285 L 422.194 398.005 L 422.674 398.245 L 423.395 398.725 L 424.114 398.725 L 424.834 398.965 L 425.315 399.205 L 426.034 399.445 L 426.754 399.445 L 427.475 399.925 L 428.194 400.165 L 428.435 400.644 L 428.435 401.604 L 428.194 402.085 L 427.954 402.805 L 428.194 403.524 L 428.435 404.005 L 428.674 404.725 L 428.435 405.445 L 428.194 406.405 L 427.714 406.885 L 427.475 407.604 L 426.994 408.325 L 426.514 409.285 L 426.754 410.005 L 426.754 410.965 L 426.274 411.205 L 425.554 411.684 L 425.074 411.925 L 424.355 412.165 L 423.634 412.644 L 423.154 412.885 L 422.435 413.365 L 421.954 413.604 L 421.234 414.085 L 420.514 414.325 L 420.034 414.805 L 418.594 415.285 L 417.634 415.765 L 415.954 415.765 L 415.234 415.524 L 414.514 415.524 L 413.794 415.285 L 413.315 415.524 L 412.834 416.005 L 412.114 416.245 L 411.634 417.205 L 411.395 418.165 L 411.634 418.644 L 412.114 419.365 L 412.355 420.085 L 412.834 420.564 L 413.074 421.045 L 414.034 422.005 L 414.514 422.725 L 414.754 423.205 L 415.234 423.684 L 415.714 424.405 L 415.954 424.885 L 415.954 426.564 L 414.754 430.165 L 414.514 430.644 L 413.315 434.245 L 412.834 434.725 L 412.114 434.725 L 411.395 434.245 L 410.674 434.005 L 409.475 434.005 L 407.315 434.725 L 405.154 434.725 L 404.435 434.965 L 402.994 434.965 L 402.274 435.205 L 400.834 435.205 L 400.114 435.445 L 399.395 435.205 L 396.514 435.205 L 395.794 434.965 L 392.914 434.965 L 392.435 434.725 L 389.554 434.725 L 388.834 434.485 L 388.355 434.245 L 387.634 434.245 L 386.914 433.765 L 386.435 433.285 L 385.714 433.045 L 385.234 432.564 L 384.514 432.325 L 384.034 431.845 L 383.315 431.604 L 382.834 431.125 L 382.114 430.644 L 381.634 430.165 L 380.914 429.684 L 380.194 429.925 L 378.754 429.925 L 378.034 430.165 L 377.554 430.405 L 376.114 430.885 L 375.634 431.125 L 374.914 431.365 L 374.194 431.845 L 373.714 432.085 L 371.554 432.805 L 371.074 433.045 L 370.355 433.285 L 369.634 433.765 L 369.154 434.005 L 367.714 434.485 L 367.234 434.725 L 365.794 435.205 L 365.315 435.445 L 364.594 435.445 L 363.634 435.684 L 355.714 435.684 L 354.994 435.925 L 352.114 435.925 L 350.674 435.445 L 350.194 434.965 L 349.475 434.725 L 348.754 434.245 L 348.034 434.005 L 347.554 433.765 L 344.674 432.805 L 344.194 432.564 L 343.475 432.325 L 342.754 431.845 L 341.315 431.365 L 340.834 431.125 L 340.114 430.644 L 339.874 430.165 L 339.395 429.445 L 338.435 428.485 L 337.714 428.245 L 337.234 427.765 L 336.514 427.285 L 336.034 427.045 L 335.074 426.085 L 334.355 425.604 L 333.395 424.644 L 332.914 423.925 L 332.194 423.445 L 331.234 423.205 L 330.514 422.965 L 329.554 422.965 L 329.074 423.205 L 328.355 423.205 L 327.874 423.445 L 327.154 423.925 L 324.274 424.885 L 323.315 425.845 L 323.315 428.245 L 323.794 429.684 L 323.794 430.405 L 324.034 431.125 L 324.034 431.845 L 324.514 433.285 L 324.514 434.965 L 324.274 435.684 L 322.834 437.125 L 322.355 437.365 L 321.634 437.845 L 321.154 438.085 L 320.435 438.564 L 319.954 438.805 L 319.475 439.285 L 318.754 439.765 L 317.794 440.725 L 317.554 441.205 L 317.074 441.684 L 316.594 442.405 L 316.114 442.885 L 315.874 443.604 L 315.395 444.085 L 314.674 444.564 L 314.194 445.045 L 313.475 445.285 L 312.994 445.765 L 312.274 446.245 L 311.554 446.485 L 311.074 446.725 L 310.355 446.965 L 309.634 447.445 L 308.914 447.684 L 308.435 447.925 L 306.994 448.405 L 306.274 448.885 L 305.794 449.125 L 304.355 449.604 L 303.634 450.085 L 303.154 450.325 L 301.714 450.805 L 300.994 451.285 L 300.514 451.524 L 298.006 452.928 L 294.197 447.259 C 293.525 441.319 291.634 435.466 291.326 435.697 C 291.635 426.177 280.34 426.094 280.34 426.094 L 270.24 425.833 L 257.502 420.684 L 253.023 420.582 L 249.74 422.119 L 248.636 425.986 L 246.108 435.468 L 246.159 438.311 L 245.752 439.435 L 244.431 439.704 L 243.169 438.896 L 240.313 436.623 L 236.636 429.527 L 235.814 427.496 L 238.04 424.753 L 238.515 422.872 L 237.893 420.749 L 235.905 418.016 L 234.11 417.1 L 230.88 418.452 L 228.139 423.67 L 225.089 426.079 L 222.858 426.678 L 221.333 423.631 L 221.142 421.71 L 222.856 418.008 L 226.179 415.088 L 227.986 412.272 L 228.466 410.127 L 228.872 408.711 L 228.588 407.875 L 228.545 404.693 L 227.093 402.904 L 223.915 402.669 L 217.186 404.071 L 211.139 408.393 L 207.702 409.387 L 206.205 409.193 L 204.719 408.512 L 203.484 406.42 L 202.536 401.238 L 201.61 398.645 L 199.27 399.61 L 195.519 402.459 L 192.527 403.456 L 189.433 403.114 L 187.648 401.937 L 190.487 392.955 L 189.154 388.846 L 187.081 386.564 L 184.774 385.545 L 173.635 383.957 L 171.705 383.927 L 168.397 382.738 L 167.343 382.016 L 165.695 381.211 L 162.121 375.873 L 157.398 368.939 L 154.818 366.479 L 151.927 364.286 L 149.521 362.651 L 148.422 361.512 L 146.962 360.744 L 145.888 359.623 L 144.279 359.041 L 142.932 358.51 L 141.394 357.658 L 126.132 357.829 L 125.22 358.047 L 124.135 358.117 L 120.764 356.423 L 120.7 352.558 L 120.491 350.842 L 117.965 350.593 L 112.878 353.307" style="fill:transparent;fill-opacity:1;stroke:transparent;stroke-width:0.95999998;stroke-linecap:butt;stroke-linejoin:miter;stroke-miterlimit:4;stroke-dasharray:none;stroke-opacity:1"/>
    <path style="fill:none;stroke:white;stroke-width:0.80000001px;stroke-linecap:butt;stroke-linejoin:miter;stroke-opacity:0.5" d="m 91.4751,269.36498 6.018873,-0.19343 1.201,-4.08 3.598997,-0.24 8.16,3.36 2.64,5.04 3.36,-0.24 2.15998,7.44 5.28102,0.96 3.88742,4.12455 4.03258,-0.76555 6.47898,3.361 3.84,-1.92 0.96002,-5.76 2.88,1.68 2.4,5.519 3.84,-1.439 3.69552,4.83995 4.22448,2.36005 -3.84,3.359 0.481,6.96 3.839,2.401 -0.96,6.48 8.4,4.8 1.92,5.52 5.52,1.68 c 1.52392,-0.46747 3.04399,-0.94749 4.56,-1.44 1.44374,-0.46903 2.8838,-0.94938 4.32,-1.441 l 3.57696,4.65751 3.14304,2.54349 9.12,-0.241 11.76,4.561 5.52,6 1.44,7.439 5.52,4.321 -4.559,1.679 -0.481,4.08 3.70431,1.59429 5.17567,5.36571 0.72002,7.92 9.6,-4.079 2.64,0.72 -2.64,11.76 3.83998,2.16 -2.39998,3.84 6.721,4.8 0.47898,12.48 7.92002,4.56 -2e-5,6.96 3.12002,0.959 -3.69392,4.58046" id="path4558"/>
    <path style="fill:none;stroke:white;stroke-width:0.80000001px;stroke-linecap:butt;stroke-linejoin:miter;stroke-opacity:0.5" d="m 217.97397,343.57155 17.99643,-12.94531 -3.59643,-2.41469 16.08,-11.521 0.96,-10.319 -4.559,-6.721 4.559,-1.679 c -1.32927,-1.27387 -2.69105,-2.51381 -4.08357,-3.71822 -1.13711,-0.9835 -2.29471,-1.9433 -3.4718,-2.87857 -1.57083,-1.06757 -3.13245,-2.1487 -4.68463,-3.24321 -5.40346,-3.81023 -10.69247,-7.78278 -15.85749,-11.91047 l 3.90043,-2.5096 -4.71973,-6.34385 5.44889,-17.11874 -7.58831,0.003 c -0.32996,-2.1799 -0.69796,-4.35405 -1.10379,-6.52111 -0.4361,-2.32872 -0.91588,-4.64927 -1.439,-6.96 l 3.599,-4.08 -0.24,-5.04 -8.03304,-1.90141 6.11304,-1.93859 4.32,-4.08 -4.08,-1.439 -8.38768,0.18116 1.90768,-3.06116 -10.68392,-5.15893 0.36492,-9.00107 -8.401,-4.08 -7.439,-4.8 -9.841,-2.4 -10.08,7.44 -5.77987,3.55343" id="path4562"/>
    <path style="fill:none;stroke:white;stroke-width:0.80000001px;stroke-linecap:butt;stroke-linejoin:miter;stroke-opacity:0.5" d="m 241.8586,291.37476 11.63537,-9.48321 3.84,-0.241 4.561,0.961 6.96,-0.72 3.84,-2.64 -2.88,-5.04 4.319,-1.441 3.36143,-3.60328 3.11786,1.91972 3.48191,-9.8749 v 0 l 2.35608,3.4668 -3.91728,10.01166 9.49176,-4.3e-4 7.67513,-11.77536 4.70877,2.0946 -0.39655,7.95839 8.6877,0.005 4.51693,-9.66564 3.24321,-3.60356 c 2.05751,-0.28786 4.14095,-0.39019 6.21677,-0.30534 0.75532,0.0309 1.50963,0.0865 2.26131,0.16667 l 6.15495,-12.47365 v 0 l 9.12,5.28 c 4.13681,-3.6859 8.3015,-7.34052 12.49358,-10.96344 4.47916,-3.87103 8.9896,-7.70587 13.53073,-11.50402 l 5.08846,-1.06075 0.56825,-5.03279 8.399,-7.679 2.63998,4.8 2.64,-2.64 c 0.5841,1.91286 1.14416,3.83307 1.68002,5.76 0.86301,3.10339 1.66322,6.22424 2.39998,9.36 l 7.66115,-1.24657" id="path4566"/>
    <path style="fill:none;stroke:white;stroke-width:0.80000001px;stroke-linecap:butt;stroke-linejoin:miter;stroke-opacity:0.5" d="m 328.939,259.56488 -6.19329,15.27737 7.8432,0.73953 -1.659,5.36205 8.56406,1.18772 c -1.21845,2.39471 -2.43691,4.78943 -3.65536,7.18414 -1.10155,2.16495 -2.20309,4.32991 -3.30464,6.49486 l 5.52,4.081 7.65608,1.66524 1.46392,4.57476 3.36,2.4 -4.32,0.72 -3.12,7.68 -4.08,14.64 -4.08,-2.881 -7.68,1.681 4.08,3.6 -8.88004,2.4 -8.639,1.439 -7.681,0.721 -4.319,3.6 -0.481,4.32 10.8,2.4 1.92,-3.6 2.641,2.399 0.239,9.841 9.841,-0.48 6.719,1.679 -3.12,7.201 -4.55896,0.72 1.92,8.64 -2.161,5.28 1.44,4.8 6,-0.72 0.24,2.4 -3.6,2.88 5.76,4.32 -1.67902,3.84 -4.081,6.48 -1.68,4.32 3.58011,14.11343" id="path4570"/>
  </g>
  <g id="layer5" transform="matrix(1, 0, 0, 1, -35.547573, -13.308515)"/>
  <g id="layer2" style="display:inline" transform="matrix(1, 0, 0, 1, -35.547573, -13.308515)">
    <g id="g6290" transform="translate(-21.466153,-223.54299)" style="stroke:#646464;stroke-opacity:1">
      <g id="g6272" style="fill:none;stroke:#646464;stroke-width:0.95999998;stroke-linecap:butt;stroke-linejoin:miter;stroke-opacity:1;stroke-dasharray:none" transform="translate(70.8662,669.134)"/>
      <g id="g6276" style="fill:none;stroke:#646464;stroke-width:0.95999998;stroke-linecap:butt;stroke-linejoin:miter;stroke-opacity:1;stroke-dasharray:none" transform="translate(70.8662,674.174)"/>
      <g id="g6280" style="fill:none;stroke:#646464;stroke-width:0.95999998;stroke-linecap:butt;stroke-linejoin:miter;stroke-opacity:1;stroke-dasharray:none" transform="translate(70.8662,574.094)"/>
    </g>
  </g>
  <g id="layer4" style="display:inline;opacity:0.40799997" transform="matrix(1, 0, 0, 1, -35.547573, -13.308515)">
    <path style="fill:none;stroke:white;stroke-width:0.80000001px;stroke-linecap:butt;stroke-linejoin:miter;stroke-opacity:2" d="m 318.5151,113.84498 -4.30115,13.48657 2.64102,6.24 -3.60102,2.88 5.28002,6 -6.24,1.68 -2.88,4.08 -7.20002,0.24 -4.8,-2.16 1.92002,5.28 c -3.28429,0.45006 -6.56447,0.93009 -9.84,1.44 -3.84671,0.59883 -7.687,1.23888 -11.52,1.92 l -10.32002,-1.92 -4.56,2.16 3.60102,5.519 6.239,6.721 -1.44002,5.52 -7.20826,-1.69824 -2.39074,-2.62176 -14.40098,-4.32 -1.44,-3.84 h -4.80002 l -3.12,3.6 -1.92,5.28 -2.64,-1.681 -1.2,2.641 -3.36,-0.481 -3.36,-5.519 -8.64,-5.28 -1.67998,-4.8 0.71998,-4.56 -4.07998,-2.64 c -3.16208,0.0894 -6.32304,0.21829 -9.48189,0.38668 -4.84551,0.25829 -9.68608,0.60949 -14.51813,1.05332 l -0.71998,-2.4 -5.28002,0.24 -5.59448,-3.85767 -0.8855,3.13767 h -2.63902 l -2.16,-3.12 -3.60098,0.239 -2.16002,0.96 -8.4e-4,3.25302 3.67564,0.45306 2.9229,6.21397 -5.62228,0.12486 -1.94508,-2.17186 v 0 l -4.178,1.99637 -5.67219,0.16401" id="path4512"/>
  </g>
</svg>