<?xml version="1.0" encoding="utf-8"?>
<svg width="532.66656" height="507.10019" viewBox="48.077 12.821 349.21 366.76" id="svg2" version="1.1" xmlns="http://www.w3.org/2000/svg">
  <g id="layer1" style="display:inline" transform="translate(-48.4455,-21.729041)"/>
  <g id="layer2" transform="translate(-48.4455,-21.729041)"/>
  <g id="layer3" style="display:inline" transform="translate(-48.4455,-21.729041)">
    <g transform="translate(85.06515,35.48449)" style="fill:none;stroke:red;stroke-width:0.95999998;stroke-linecap:butt;stroke-linejoin:miter;stroke-dasharray:none" id="g5067"/>
  </g>
  <g id="layer4" style="display:inline" transform="translate(-48.4455,-21.729041)">
    <g transform="translate(301.6653,41.94919)" style="fill:transparent;fill-opacity:1;stroke:red;stroke-opacity:1" id="g5090"/>
    <g transform="translate(406.0653,408.42819)" style="fill:transparent;fill-opacity:1;stroke:white;stroke-opacity:1" id="g5094"/>
    <g transform="translate(168.4663,325.62919)" style="fill:transparent;fill-opacity:1;stroke:white;stroke-opacity:1" id="g5098"/>
    <g transform="translate(301.6653,401.94919)" style="fill:transparent;fill-opacity:1;stroke:white;stroke-opacity:1" id="g5102"/>
    <g transform="translate(48.9455,373.14919)" style="fill:none;stroke:red;stroke-opacity:1" id="g5106"/>
    <path id="path5073-3" style="fill:transparent;fill-opacity:1;stroke:transparent;stroke-width:0.95999992;stroke-linecap:butt;stroke-linejoin:miter;stroke-opacity:1;stroke-dasharray:none" d="m 168.9453,328.26919 0.24,-0.721 0.48,-0.479 1.44,-0.96 0.72,-0.24 0.96,-0.24 1.92,0 0.721,0.24 0.479,0.24 0.481,0.479 0.239,0.721 0.24,0.48 0,0.719 0.24,0.721 0,0.72 0.241,0.72 0.719,0.48 0.48,0.48 1.44,0.48 0.481,0.24 0.479,0.48 0.481,0.719 0.239,0.481 0.24,0.72 0.481,0.719 0.239,0.481 0.48,0.72 0.241,0.48 0.479,0.48 0.96,0.48 0.72,0.479 0.72,0.241 0.48,0 1.44,0.48 1.44,1.44 0,-1.68 0.721,-0.24 0.96,0 0.719,-0.241 0.72,-0.479 2.16,-0.72 0.72,0 0.721,-0.24 1.439,0 0.48,-0.24 0.72,-0.24 0.72,-0.48 0.48,-0.48 0.241,-0.72 0.479,-0.72 0.96,-0.96 0.481,-0.24 0.479,0 1.44,0.479 0.48,0.241 0.48,0.48 0.72,0.48 1.92,1.92 0.72,0.48 0.48,0.72 0.241,0.48 0.479,0.72 0,2.64 0.24,0.719 4.08,4.08 0.72,0.241 0.96,0.24 1.44,0 0.96,-0.24 0.72,-0.241 0.72,-0.479 0.96,0 1.44,0.479 1.441,0.721 0.479,0.72 0.96,0.96 0.481,0.72 1.679,1.68 0.48,0.72 0.24,0.479 0.48,0.721 0.241,0.72 0,2.4 -0.241,0.72 -0.48,0.72 -0.479,0.48 -0.481,0.72 -0.479,0.479 -0.721,0.241 -0.48,0.48 -0.719,0 -2.161,0.72 -0.72,0 -0.72,0.24 -0.479,0.24 -0.721,0 -2.159,0.72 -0.96,0.96 -0.241,0.72 0.241,0.719 0.239,0.481 0.48,0.72 0.48,0.48 0.721,0.48 0.479,0.48 0.72,0.48 0.48,0.48 0.72,0.479 0.481,0.481 0.719,0.479 0.481,0.241 0.479,0.48 0.72,0.96 0.48,1.44 -0.24,0.72 0,0.96 -0.24,0.72 0,0.96 0.24,0.72 0.481,0.48 0.96,0.48 1.92,0 0.959,-0.48 0.72,-0.48 0.481,-0.72 0.239,-0.72 0,-3.6 0.96,-0.96 0.721,0 0.719,0.24 0.96,0.96 0.48,0.96 0.24,0.72 0.48,0.72 0.72,0.48 0.96,0.48 1.441,0 0.719,0.239 2.16,0 0.96,0.241 0.72,0.24 0.481,0.96 0.239,0.96 0,1.68 0.96,0.959 0.721,0.481 0.719,0.24 0.48,0.48 0.72,0.48 0.72,0.239 0.481,0.481 0.719,0.24 0.72,0.48 2.401,2.4 0.239,0.72 0,2.639 0.24,0.481 0.48,0.479 0.72,0.481 1.441,0.48 1.439,0 0.96,0.24 1.44,0 0.72,0.24 1.441,0 0.96,0.24 0.719,-0.24 1.201,0 1.439,-0.48 0.48,-0.24 0.72,-0.48 0.72,-0.241 0.48,-0.479 2.161,-0.72 0.959,0 1.44,-0.48 0.96,0.24 0.721,0.24 0.719,0 0.72,0.239 0.72,0 0.72,0.241 0.72,0 0.72,0.24 0.721,0 0.719,0.24 0.72,0 0.72,0.239 0.96,-0.239 0.72,-0.24 0.96,-0.481 0,-0.96 -0.24,-0.719 0,-0.96 0.24,-0.72 0.241,-0.48 0.719,0 0.72,0.24 0.481,0.24 0.719,0.479 0.48,0.241 1.44,0.96 0.72,0.24 0.48,0.479 1.44,0.96 0.721,0.241 0.719,0.48 0.72,0.239 0.72,0.481 0.72,-0.24 0.72,0 0.72,-0.241 0.721,0 0.479,-0.239 0.72,-0.24 0.721,0 1.439,0.479 1.44,1.441 0.241,0.719 0.479,0.721 0,1.68 0.24,0.72 -0.24,0.719 0,4.801 0.481,0.239 0.479,-0.479 0.481,-0.72 0.719,-0.48 3.12,-3.12 0.72,-0.48 0.481,-0.48 0.479,-0.72 0.481,-0.481 0.719,-0.479 0.48,-0.481 0.48,-0.719 0.48,-0.48 0.48,-0.72 0.481,-0.48 0.479,-0.721 0.481,-0.479 0.239,-0.481 0.48,-0.719 1.44,-1.44 1.44,-0.48 0.48,-0.241 0.72,0 0.72,-0.479 0.481,-0.24 0.719,-0.24 0.48,-0.72 0.24,-0.481 0.24,-0.719 0.241,-0.48 0,-0.96 -0.241,-0.721 -0.48,-0.719 -1.44,-0.48 -0.96,0 -0.72,-0.24 -0.72,-0.48 -0.479,-0.48 -0.241,-0.48 -0.48,-0.72 -0.239,-0.481 -0.481,-0.719 -0.24,-0.72 -0.48,-0.481 -0.24,-0.719 -0.479,-0.48 -0.241,-0.72 -0.48,-0.48 -0.48,-0.721 -0.24,-0.479 -0.48,-0.72 -0.48,-0.48 -0.719,-0.48 -0.96,-0.96 -0.481,-0.24 -0.72,-0.481 -0.48,-0.479 -0.72,-0.48 -0.479,-0.48 -0.481,-0.721 -0.24,-0.96 0.24,-0.719 0.481,-0.241 1.679,0 0.72,0.241 1.92,0 0.481,-0.241 0.719,-0.239 0.481,-0.48 1.92,-2.88 0.239,-0.72 0.48,-0.48 0.241,-0.72 0.96,-1.441 0,-0.479 -0.481,-0.96 -0.96,-0.96 -0.72,-0.48 -0.48,-0.48 -0.72,-0.48 -0.479,-0.48 -0.721,-0.48 -0.96,-0.96 -0.72,-0.48 -0.24,-0.721 -0.24,-0.479 0,-0.72 0.48,-0.961 0.96,-1.439 0.241,-0.481 0.719,-0.719 0.96,-0.241 0.72,0 2.88,0.96 0.721,0 2.879,0.96 1.44,0 0.721,0.241 1.439,0 0.96,0.24 1.44,0 0.72,0.24 1.441,0 0.96,0.239 1.439,0 0.96,-0.239 0.721,-0.24 0.479,-0.24 0.481,-0.48 0.479,-0.24 0.481,-0.481 0.479,-0.719 0.72,-1.44 0,-2.881 -1.199,-3.599 -0.481,-0.72 -0.24,-0.48 -0.239,-0.72 -0.481,-0.72 -0.24,-0.96 0.24,-0.48 0,-0.72 0.481,-0.72 0.719,-0.48 0.72,0 0.72,0.24 0.72,0 0.96,0.24 0.72,0 0.72,0.239 0.721,0 0.719,0.241 0.96,0 0.72,0.24 1.44,0 0.72,0.24 0.96,0 0.72,-0.24 0.48,-0.24 0.241,-0.72 0,-0.72 -0.481,-0.48 -0.72,-0.481 -0.719,-0.239 -0.481,-0.48 -0.72,-0.48 -0.719,-0.24 -0.481,-0.72 0,-1.681 0.24,-0.719 0.96,-1.441 0.241,-0.719 0.239,-0.48 0,-0.721 -0.239,-0.96 -0.481,-1.439 0,-1.92 0.72,-0.24 0.48,0.24 0.96,0.96 0.48,0.72 0.48,0.48 0.72,0.239 0.96,0.96 0.96,0.241 3.601,1.2 0.479,0 1.44,0.479 0.72,0 0.481,-0.239 0.719,0 0.72,-0.24 0.481,-0.481 0.719,-0.239 0.48,-0.48 0.721,-0.241 0.479,-0.479 0.721,-0.24 0.479,-0.48 2.88,-0.96 0.481,-0.24 0.719,-0.48 1.441,-0.48 0.719,-0.48 0.48,-0.241 0.721,-0.479 0.719,-0.24 0.72,-0.48 0.72,-0.24 0.48,-0.481 0.72,-0.479 0.48,-0.24 0.72,-0.48 0.481,-0.48 1.439,-0.96 0.72,-0.24 0.721,-0.48 0.719,-0.24 8.16,0 0.96,0.24 0.72,0.239 0.481,0.721 1.92,1.92 0.479,0.72 1.44,1.44 0.48,0.72 0.24,0.479 0,2.16 0.24,0.481 0.72,0.479 0.72,0 0.721,0.241 0.96,0 1.439,0.48 0.721,0 0.96,0.239 1.439,0.481 0.481,0.479 0.719,0.481 0.48,0.479 0.48,0.721 2.88,2.88 1.92,0.479 1.44,0 0.72,-0.479 0.481,-0.72 0.239,-0.721 0,-0.719 0.48,-1.441 0,-0.719 0.241,-0.72 0,-0.72 0.239,-0.721 0,-0.719 0.24,-0.72 0.24,-0.96 1.44,-2.16 0.48,-0.481 0.241,-0.479 0.239,-0.72 0.48,-0.48 0.24,-0.72 0,-3.36 -0.24,-0.96 0,-1.44 -0.24,-0.72 0,-1.201 -0.24,-0.719 0,-1.68 0.24,-0.72 0,-4.801 0.24,-0.719 0,-2.16 0.24,-0.96 0.241,-0.72 0.479,-0.96 0.72,-0.72 1.44,-0.96 0.48,-0.24 0.48,-0.481 0.72,-0.479 0.481,-0.48 0.719,-0.48 0.96,-0.96 0.72,-0.48 0.96,-0.96 0.721,-0.48 0.96,-0.48 0.719,-0.241 2.401,0 0.719,0.241 0.48,0.24 2.16,0 0.72,-0.24 0.48,-0.72 0.481,-0.481 0.479,-1.439 -0.479,-0.96 -1.441,-0.96 -1.44,-0.48 -0.72,-0.48 -0.479,-0.24 -0.721,-0.481 0,-0.96 0.24,-0.719 0,-0.72 0.481,-0.48 1.439,-2.161 2.16,-2.159 0.72,-0.48 0.48,-0.72 0.72,-0.721 0.24,-0.96 0.241,-0.719 0,-1.92 -0.241,-0.72 -0.24,-0.48 -0.72,-0.72 -0.48,-0.96 -0.72,-0.481 -0.48,-0.479 -0.72,-0.481 -0.479,-0.479 -0.481,-0.24 -0.96,-1.44 0,-0.96 0.24,-0.72 0.241,-0.96 0.719,-0.72 0.72,-0.481 0.72,-0.239 0.72,0 0.72,-0.24 0.96,0 0.72,-0.24 0.721,0 0.719,-0.241 1.44,0 0.961,-0.239 0.719,0 0.72,-0.24 0.72,0 0.721,-0.24 0.96,-0.48 0.719,-0.24 0.48,-0.48 1.44,-0.96 0.24,-0.48 0.241,-0.721 0.239,-0.96 0,-0.719 -0.239,-0.72 0,-0.72 -0.241,-0.72 0,-1.44 -0.24,-0.721 -0.24,-0.479 -0.239,-0.72 -0.481,-0.48 -0.48,-0.72 -0.239,-0.72 0,-0.96 -0.96,-2.881 -0.481,-0.719 -0.24,-0.48 -0.48,-0.721 -0.24,-0.719 -0.96,-0.96 -0.479,-0.72 -2.401,-2.4 -0.719,-0.48 -0.721,-0.24 -1.44,0 -1.44,0.479 -0.48,0.241 -0.72,0.48 -0.72,0.72 -0.479,0.24 -0.721,0 -0.72,-0.24 -0.72,-0.481 -2.16,-0.719 -0.719,-0.48 -0.481,-0.721 0,-0.959 0.24,-0.72 0,-1.68 0.241,-0.721 0,-1.439 0.239,-0.96 0,-1.44 0.24,-0.48 0.721,-0.721 0.719,0 0.72,-0.239 0.72,0 1.44,-0.48 0.96,0 1.441,-0.48 0.719,0 1.44,-0.48 0.721,0 0.96,-0.241 0.479,-0.479 0.481,-0.24 1.679,-1.68 0.96,-1.44 0.481,-1.44 0.479,-0.96 0,-1.2 0.24,-0.72 0,-2.64 -0.48,-1.44 -0.48,-0.721 -2.64,-2.639 -0.72,-0.481 -0.479,-0.719 -3.121,-3.12 -0.719,-0.48 -0.721,-0.24 -0.72,-0.481 -0.719,-0.239 -0.481,-0.24 -0.72,-0.481 -1.44,-0.479 -0.48,-0.481 -0.719,-0.239 -0.721,-0.48 -1.439,-0.48 -0.481,-0.48 -1.439,-0.48 -0.481,-0.48 -0.479,-0.72 -0.241,-0.48 -0.48,-0.72 -0.48,-0.481 -0.48,-0.719 -0.479,-0.48 -0.241,-0.48 -0.48,-0.72 -0.48,-0.481 -0.719,-0.479 -0.96,-0.96 -0.721,-0.48 -0.48,-0.48 -0.719,-0.48 -1.441,-1.44 -0.48,-1.44 0,-1.92 -0.239,-0.72 -0.481,-0.96 -0.479,-0.24 -0.721,-0.24 -0.72,-0.48 -1.439,-0.48 -0.481,-0.48 -0.719,-0.48 -0.96,-0.96 -0.241,-0.72 -0.48,-0.721 0,-2.399 0.24,-0.72 0,-0.96 0.72,-2.16 0,-0.721 0.96,-2.88 0,-1.679 -0.239,-0.72 -0.481,0.239 -0.72,0.481 -1.44,1.44 -0.72,0.48 -1.439,0.48 -0.961,0 -0.96,-0.24 -0.72,0 -1.439,-0.72 -0.481,-0.72 -0.479,-1.44 -0.481,-0.721 -0.96,-0.479 -0.719,0.24 -0.96,1.44 -0.481,0.48 -0.479,1.439 -0.481,0.721 -1.439,1.44 -0.721,0.24 -1.68,0 -0.719,-0.24 -0.721,-0.48 -1.44,-0.48 -0.96,0 -0.96,-0.241 -1.68,0 -0.72,0.241 -0.96,0.24 -1.439,0.479 -0.481,0.481 -0.72,0.24 -0.959,0.96 -0.481,0.72 -0.24,0.72 -0.48,0.72 -0.24,0.96 -0.479,1.44 -0.481,0.48 -0.72,0.239 -0.719,0 -0.481,-0.239 -0.72,-0.24 -0.48,-0.72 -0.479,-0.48 -0.241,-0.72 -0.48,-0.481 -0.239,-0.719 0,-0.72 -0.241,-1.2 0.241,-0.72 0,-1.44 0.239,-0.72 0,-0.72 0.24,-0.72 0,-1.68 0.24,-0.72 0,-0.721 0.241,-0.719 0,-0.96 -0.241,-0.96 0,-2.64 -0.24,-0.96 0.24,-0.721 0,-2.159 0.241,-0.72 0,-0.72 0.239,-0.72 0,-0.721 0.24,-0.719 0,-3.84 -0.24,-0.72 -0.239,-0.96 0,-0.721 -0.721,-2.159 -0.239,-0.961 0,-0.719 -0.241,-0.72 -0.24,-0.96 0,-0.96 -0.24,-0.96 0,-0.72 0.24,-0.72 0,-2.64 0.24,-0.72 0.72,-1.44 0.481,-0.72 0.479,-0.48 0.48,-0.72 0.72,-0.481 0.481,-0.479 0.719,-0.481 0.48,-0.719 0.48,-0.48 0.241,-0.48 0.479,-0.72 0.481,-0.96 0.719,-2.16 0,-0.96 -0.24,-0.72 -0.479,-0.721 -0.481,-0.479 -0.72,-0.48 -0.719,-0.24 -0.96,-0.24 -0.721,-0.24 -0.72,-0.481 -0.48,-0.479 -0.239,-0.72 0,-0.96 -0.241,-0.721 -0.24,-0.479 -0.72,0 -1.44,0.479 -0.96,0 -0.96,-0.239 -0.72,0 -1.44,-0.96 -0.239,-0.48 -0.481,-0.72 0,-0.721 -0.24,-0.96 0,-4.319 -0.239,-0.721 0,-6 0.239,-0.719 0,-0.96 0.24,-0.72 0,-1.441 0.24,-0.719 0,-0.72 0.241,-0.721 0,-0.719 0.239,-0.72 0.24,-0.96 0.24,-0.72 0.96,-1.44 0.24,-0.48 0.48,-0.72 0.48,-0.48 0.48,-0.721 0.48,-0.479 0.241,-0.72 0.479,-0.721 0.481,-0.479 0.479,-0.72 0.481,-0.48 0.239,-0.72 0.48,-0.48 0.48,-0.72 0.48,-0.481 0.24,-0.719 0.48,-0.72 0.48,-0.481 0.72,-0.479 0.96,-0.96 0.72,-0.48 1.44,-1.44 0.72,-0.48 0.96,-0.96 0.96,-1.44 0.24,-0.721 0.481,-0.479 0.479,-0.72 0.24,-0.72 0.48,-0.72 0.24,-0.72 0.24,-0.48 0.241,-0.72 0.239,-0.96 0,-0.96 -0.239,-0.72 -0.241,-0.961 -0.24,-0.479 -0.96,-2.88 0,-0.72 -0.24,-0.96 0,-1.44 0.24,-1.2 0.481,-0.72 0.239,-0.72 0.721,-0.48 0.479,-0.48 0.72,-0.24 0.72,-0.48 0.96,-0.96 -0.24,-0.48 -0.72,0 -0.72,-0.24 -2.4,0 -0.96,-0.24 -2.4,0 -0.72,-0.241 -3.12,0 -0.72,-0.239 -1.68,0 -0.48,-0.48 -0.719,-0.241 -0.481,-0.479 -0.24,-0.72 0,-0.721 -0.239,-0.959 0,-0.72 -0.18723,-1.091854 -1.85932,-0.131853 -0.721,-0.24 -13.92,0 -0.72,-0.24 -10.08,0 -2.16,-0.72 -0.72,0 -2.16,-0.72 -0.96,-0.24 -0.719,-0.24 -0.721,0 -3.6,-1.201 -0.72,0 -3.6,-1.199 -0.72,0 -1.439,-0.48 -0.961,-0.24 -1.44,-0.48 -0.719,0 -2.88,-0.96 -1.681,0 -0.72,0.239 -3.84,0 -7.2,2.401 -0.48,0.48 -0.72,0.239 -0.72,0.481 -0.719,0.24 -0.721,0.48 -0.72,0.24 -0.72,0.479 -0.72,0.241 -0.72,0.48 -0.72,0.239 -0.48,0.481 -0.72,0.48 -0.72,0.24 -0.719,0.48 -0.721,0.24 -0.72,0.48 -1.44,0.48 -0.72,0 -0.72,0.239 -0.96,0 -0.719,0.241 -0.721,0 -0.72,0.24 -0.719,0 -0.96,0.24 -0.721,0 -0.72,0.239 -0.72,0 -0.719,0.241 -0.96,0 -0.721,0.24 -0.72,0 -0.719,0.24 -0.721,0 -0.96,0.239 -0.72,0 -1.439,0.481 -0.721,0 -0.96,0.24 -0.72,0 -0.719,0.239 -0.721,0 -0.72,0.241 -0.96,0 -0.72,0.24 -0.72,0 -0.72,0.24 -0.72,0 -0.96,0.24 -0.719,0 -0.721,0.24 -0.72,0 -0.72,0.24 -0.959,0 -0.721,0.24 -0.72,0 -0.72,0.24 -0.719,0 -0.96,0.24 -0.721,0 -1.439,0.48 -0.721,0 -0.96,0.24 -0.72,0 -0.72,0.239 -0.719,-0.239 -2.16,0 -0.721,-0.24 -0.96,0 -2.159,-0.72 -0.96,-0.24 -0.721,0 -2.16,-0.72 -0.96,-0.24 -0.72,0.24 -2.4,0 -0.72,0.24 -2.16,0 -0.96,0.24 -2.16,0 -0.96,0.24 -2.159,0 -0.721,0.24 -2.399,0 -0.721,0.24 -2.4,0 -0.719,0.24 -2.401,0 -0.719,0.24 -2.401,0 -0.72,0.24 -2.16,0 -0.96,0.239 -1.44,0 -0.72,0.241 -2.4,0 -0.72,0.24 -0.72,0 -0.719,0.24 -0.96,0.239 -1.441,0.481 -0.479,0.72 -2.401,2.4 -0.96,1.439 -0.48,0.481 -0.239,0.72 -0.481,0.719 -0.479,0.481 -0.481,0.72 -0.24,0.48 -0.96,1.44 -0.479,0.48 -0.241,0.72 -0.48,0.719 -0.239,0.721 -0.481,0.72 -0.24,0.72 -0.48,0.72 -0.719,2.159 0,0.721 -0.481,1.44 0,0.96 -0.72,2.16 0,0.719 -0.48,1.441 0,0.72 -0.48,1.44 0,0.72 -0.48,1.44 0,0.72 -0.24,0.72 -0.48,0.719 -0.48,0.481 -0.48,0.72 -0.24,0.72 -0.479,0.48 -0.481,0.72 -0.479,0.48 -0.481,0.72 -0.96,0.96 -0.72,0.48 -0.48,0.48 -0.72,0.48 -0.719,0.239 -0.481,0.481 -1.439,0.96 -0.481,0.48 -0.72,0.24 -0.719,0.48 -0.481,0.479 -0.719,0.481 -0.481,0.479 -0.72,0.481 -0.719,0.24 -0.481,0.48 -1.439,0.96 -0.481,0.48 -0.72,0.24 -0.72,0.48 -0.48,0.48 -0.719,0.48 -0.481,0.48 -0.72,0.48 -0.96,0.96 -0.719,0.48 -0.96,0.959867 -0.721,0.47998 -0.479,0.72 -0.721,0.48 -0.96,0.96 -0.72,0.48 -0.96,0.96 -0.72,0.48 -0.48,0.48 -0.48,0.72 -0.72,0.479 -0.96,0.961 -0.72,0.48 -0.96,0.96 -0.72,0.48 -0.48,0.48 -0.48,0.719 -0.719,0.481 -0.961,0.96 -0.72,0.479 -0.96,0.961 -0.72,0.48 -2.16,2.16 -0.96,0 -0.719,0.24 -0.721,0 -0.72,0.239 -0.96,0.241 -0.72,0 -0.719,0.24 -1.201,-1.2 -0.72,-0.48 -2.64,-2.64 -0.479,-0.72 -0.481,-0.481 -0.479,-0.719 -0.481,-0.48 -0.479,-0.721 -0.481,-0.479 -0.48,-0.72 -2.88,-0.96 -0.72,-0.48 -0.479,-0.24 -1.441,-0.48 -0.719,0 -0.721,-0.24 -2.159,0 -2.881,-0.96 -0.96,-0.24 -4.32,-1.44 -0.959,-0.24 -0.721,-0.24 -3.119,0 -0.96,0.24 -0.721,0.24 -0.72,0 -2.88,0.96 -0.719,0 -0.96,0.239 -2.881,0.96 -0.72,0 -0.72,0.241 -0.96,0.24 -1.44,0.479 -0.479,0.241 -0.721,0.24 -1.920382,1.92 -0.48,0.719 -0.24,0.721 -0.96,1.44 0,0.96 -0.24,0.96 0.48,0.48 0.241,0.72 0.239,0.48 3.120382,9.36 0.481,0.72 0.239,0.72 0,1.439 0.24,0.721 -0.24,0.72 0,0.72 -0.239,0.48 0,0.72 -0.241,0.72 -0.48,0.24 -0.720382,0.48 -0.479,-0.48 -0.721,-0.4805 0,0.7205 0.96,2.88 0.24,0.96 2.160382,1.439 0.72,0.241 0.48,0.24 1.44,0.48 0.48,0.48 0.72,0.48 0.72,0.239 -0.48,0.721 -0.24,0.72 -0.24,0.479 -0.239,0.721 -0.481,0.72 -0.24,0.479 -0.239,0.721 0,0.72 0.239,0.719 0.24,0.481 1.441,2.16 0.479,0.48 0.481,0.719 0.239,0.721 0.48,0.48 0.96,1.44 0.481,0.479 0.239,0.721 0.48,0.72 0.241,0.479 0.479,0.721 0.481,1.44 -0.721,0.24 -0.96,0.48 -0.96,1.44 0,1.679 -0.239,0.721 0.719,2.16 0.241,0.96 -0.721,0.239 -0.48,0.241 -1.44,0.48 -1.92,1.92 -0.479,0.72 -0.481,0.48 -0.24,0.72 -0.48,0.72 -0.24,0.719 -0.479,0.481 -0.241,0.72 0,0.719 -0.24,0.96 -0.24,0.721 0.24,0.72 0,0.719 0.24,0.721 0,0.96 0.48,1.44 0.721,0.48 0.719,0.239 0.72,0.481 2.64,0 0.72,0.48 0.48,0.24 0.721,0.48 0.479,0.479 0.24,0.721 0.48,0.48 0.721,2.16 0.479,0.72 0.24,0.48 0.241,0.72 0.479,0.719 0.72,2.161 0.48,0.48 0.481,1.44 0.479,0.72 0.24,0.72 0.241,0.479 0.239,0.721 0.48,0.72 0.48,1.439 0.48,0.721 0.241,0.48 0.239,0.72 0.48,0.48 0.48,0.719 0.96,0.96 0.48,0.721 0.24,0.48 0.48,0.48 1.44,0.96 0.48,0.239 1.44,0.961 0.48,0.24 1.44,0.959 0.481,0.241 1.439,0.96 0.481,0.48 0.479,0.72 0.72,0.479 0.48,0.481 0.48,0.72 0.721,0.48 0.479,0.48 0.48,0.72 0.72,0.48 0.481,0.48 0.479,0.72 0.481,0.479 0.96,1.441 0.239,0.479 0.48,0.721 -0.719,0.48 -0.96,0.48 -0.721,0.24 0,0.72 -0.48,1.439 0.48,0.721 0.48,1.44 0.48,0.72 0.24,0.72 0.481,0.72 0.239,0.719 0.48,0.481 0.48,0.72 0.24,0.48 0.96,1.44 0.48,0.48 0.241,0.72 0.479,0.719 0.481,1.441 0.479,0.72 0.481,1.44 0,0.72 0.239,0.96 0,0.719 0.24,0.721 0,0.72 0.24,0.72 0.241,0.96 0,0.719 0.239,0.721 0,0.72 0.24,0.96 0,1.2 -0.24,0.96 -0.48,0.72 0.72,0.48 0.481,0.48 0.479,0.24 0.72,0.24 0.48,0.24 0.481,0.48 0.719,0.24 0.48,0.479 0.48,0.721 0.241,0.48 0.479,0.48 0.481,0.72 0,0.96 0.239,0.72 0,0.72 0.24,0.72 0,0.72 0.24,0.719 0,0.721 0.48,1.44 0.48,0.719 0.241,0.721 0.479,0.48 0.96,1.44 0.48,0.479 0.48,0.721 0.721,0.48 0.96,0.96 0.719,0.48 3.12,3.12 0.72,0.48 0.96,0.96 0.72,0.48 0.48,0.72 0.72,0.24 0.481,0.239 0.719,0.481 0.72,0.24 0.48,0.48 0.72,0.24 0.72,0.48 0.48,0.239 0.72,0.481 0.72,0.24 0.48,0.48 0.72,0.24 0.721,0.479 0.719,0.241 0.48,0.48 0.721,0.239 0.719,0.481 0.48,0.24 1.9195,2.88 -0.238,0.479 -0.481,0.721 -0.24,0.72 -0.24,0.479 -0.4805,1.441 -0.72,0 -1.44,0.48 -0.72,0 -0.72,0.24 -4.56,0 -2.88,0.959 -0.72,0.481 -0.719,-0.481 -0.481,-0.239 -0.72,-0.48 -0.48,-0.24 -0.72,-0.24 -0.479,-0.48 -0.961,0.24 -1.44,0 -0.719,0.24 -0.721,0 -1.44,0.96 -0.48,0.48 -1.439,0.96 -0.481,1.44 -0.24,0.48 -0.48,0.719 -0.24,0.481 -0.24,0.72 0,1.44 0.24,0.72 0,2.16 0.96,0.96 0.24,0.72 1.441,1.44 2.159,0.72 0.48,0.48 1.68,0 0.72,0.239 0.72,0 0.96,0.241 0,1.2 -0.48,0.72 -0.239,0.72 -0.241,0.48 -0.24,0.719 -0.48,0.721 -0.239,0.48 0.479,0.719 0.24,0.721 0.96,1.44 0.24,0.48 1.44,0.96 0.48,0.24 0.72,0.48 0.481,0.48 2.879,0.96 0.96,0 0.72,0.239 -0.24,0.721 0,0.72 -0.239,0.72 0,0.72 -0.241,0.72 0,0.72 -0.24,0.719 0.481,1.441 0,0.96 1.439,4.32 0.481,0.72 0.719,2.16 0.48,0.72 0.72,2.16 0.42378,0.97193 z"/>
  </g>
  <g id="layer5" style="display:inline;opacity:0.40799997" transform="translate(-48.4455,-21.729041)">
    <path style="fill:none;stroke:white;stroke-width:0.80000001px;stroke-linecap:butt;stroke-linejoin:miter;stroke-opacity:1" d="m 225.66505,347.96499 3.6,-1.68 -0.96,-3.12 6.24,-0.72 6,-8.64 8.88,-1.201 1.92,6.961 13.44,-0.48 2.64,-7.441 3.12,-2.399 -0.24,-3.84 -2.64,0.239 3.84,-16.079 7.2,-1.44 0.72,-15.12 -6.48,-14.64 -6.48,-2.88 -1.439,-17.04 5.67384,-0.73362 1.52616,2.65362 3.119,-4.08 -6.96,-6.24 -1.92,-6.48 8.17827,-0.36297 c 8.82376,-1.56311 17.61984,-3.28248 26.38273,-5.15703 6.01624,-1.28699 12.01683,-2.64712 18,-4.08 l 4.559,-10.08 0.24,-5.52 8.88,-1.44 0.96,4.08 13.92,-4.321 5.94025,-4.81152 9.19268,2.52448 20.27901,-2.92014 16.45164,0.44627 -0.0169,-9.69821 12.31718,-6.42184 10.63741,-1.45384" id="path4500"/>
    <path style="fill:none;stroke:white;stroke-width:0.80000001px;stroke-linecap:butt;stroke-linejoin:miter;stroke-opacity:1" d="m 265.8953,268.89995 -13.37375,-2.63537 -9.5765,8.74041 c -3.09177,-2.35765 -6.21207,-4.67788 -9.36,-6.96 -3.48621,-2.52736 -7.0063,-5.00799 -10.559,-7.441 l -8.401,-1.439 -4.08,-2.88 0.24,-4.8 -4.559,-0.721 -3.601,-0.239 -4.32,-1.44 -1.56046,-3.67037 4.07128,-0.41741 2.53278,-9.45104 -2.44915,-6.78103 -8.83751,1.20271 -4.79694,-5.36385 -11.52,3.12 -6.24,6.481 -3.359,8.64 -11.281,-0.72 -8.16,1.2 -1.679,-3.601 -4.081,-2.879" id="path4504"/>
    <path style="fill:none;stroke:white;stroke-width:0.80000001px;stroke-linecap:butt;stroke-linejoin:miter;stroke-opacity:1" d="m 284.01875,45.044486 -1.2337,2.440504 -4.08,0.48 v 1.2 l 5.52,0.72 -1.199,5.04 1.199,1.92 -7.199,7.44 -2.641,0.24 -3.6,-5.52 -2.16,-0.48 -4.559,10.079 -11.521,4.08 -0.24,10.561 -4.32,-1.92 -1.44,-1.681 -0.96,4.08 2.88,3.121 2.16,9.839 -2.88,11.04 -5.9333,0.3314 -0.5467,1.5886 19.68,-0.479 1.201,16.559 -3.361,6.241 -1.44,13.679 9.12,0.481 1.92,6.479 15.6,8.881 v 6 l 19.92,-2.4 5.76,-3.6 10.32,0.48 -4.56,6.96 4.08,12.48 h 7.2 l 0.96,10.56 6.72,0.48 1.44,5.76 -7.679,1.92 8.16276,8.74634 11.27624,7.81266" id="path4522"/>
  </g>
</svg>