<?xml version="1.0" encoding="utf-8"?>
<svg width="533" height="418" viewBox="2.343 20.619 529.251 376.294" fill="none" xmlns="http://www.w3.org/2000/svg">
  <g clip-path="url(#clip0_125_1134)">
    <path d="M29.0745 248.485C29.0745 246.916 29.8415 243.797 30.779 241.553C31.7164 239.309 32.3501 237.36 32.1871 237.222C32.024 237.083 29.6469 235.838 26.9045 234.454C21.1317 231.542 12.4163 231.729 8.97955 234.839C7.85281 235.859 5.7964 236.693 4.40974 236.693C1.90685 236.693 1.89424 236.605 2.67274 224.583C3.10405 217.923 3.89832 211.62 4.43779 210.577C5.76483 208.01 5.67213 201.939 4.20118 195.08C2.37517 186.566 4.038 182.939 13.3099 175.216C18.4503 170.934 21.6902 167.241 22.8502 164.342C24.2979 160.724 25.6794 159.478 30.7079 157.254C39.1542 153.519 42.4681 147.793 43.6429 134.904C44.3726 126.898 44.9651 124.945 47.4909 122.221C51.1047 118.324 52.0806 113.751 51.3202 104.279C50.6551 95.9924 51.7683 93.1434 57.7095 87.9269C60.7124 85.2904 61.7479 83.4812 61.765 80.842C61.79 76.9721 68.2699 58.8877 70.666 56.0006C71.4856 55.013 73.1242 54.205 74.3074 54.205C75.4905 54.205 78.0939 53.5217 80.0927 52.6866C83.6461 51.2019 83.7588 50.9331 85.1684 40.577C86.7575 28.902 89.3466 22.3082 92.5769 21.7098C93.9529 21.4548 96.9982 23.6062 101.332 27.8952L107.978 34.4715L120.445 34.4915L132.912 34.5115L136.174 38.1627C137.969 40.1708 139.826 41.8139 140.301 41.8139C140.776 41.8139 143.661 43.588 146.711 45.7565C153.224 50.3869 154.368 50.5474 156.747 47.1646L158.53 44.63L160.852 47.4462C162.625 49.5955 162.981 51.0627 162.359 53.6418C161.91 55.5005 161.486 60.0168 161.416 63.678C161.302 69.6251 160.999 70.4418 158.577 71.3378C155.318 72.5435 154.153 74.1858 154.13 77.6074C154.117 79.5504 153.292 80.3343 150.719 80.8489C148.519 81.2889 147.112 82.3756 146.72 83.9373C145.885 87.2628 148.507 93.0051 152.178 95.8927C154.838 97.9857 155.239 99.103 155.239 104.43C155.239 107.801 155.659 111.439 156.172 112.515C156.686 113.591 158.381 117.089 159.941 120.288L162.776 126.105L160.038 127.57C156.957 129.219 154.113 134.011 154.113 137.553C154.113 138.848 152.996 141.418 151.632 143.263C150.03 145.43 149.195 148.106 149.273 150.821C149.502 158.734 150.276 165.2 151.165 166.639C152.326 168.518 149.924 171.358 147.173 171.358C145.985 171.358 140.091 169.114 134.074 166.372C124.495 162.006 122.434 161.457 117.502 161.964C113.048 162.423 111.24 163.258 108.858 165.96C106.314 168.846 106.034 169.788 107.053 172.024C108.073 174.264 107.844 175.02 105.558 176.944C104.073 178.195 100.07 180.51 96.6626 182.089C93.2551 183.669 89.7067 185.374 88.7774 185.878C85.9633 187.405 85.9921 195.931 88.8284 200.978C91.9147 206.469 90.7843 207.858 83.0195 208.117C78.888 208.255 76.6114 208.985 74.6905 210.79C73.2366 212.156 71.5558 212.97 70.9553 212.598C70.3548 212.227 69.548 212.746 69.1624 213.751C68.5541 215.336 67.0968 215.471 58.1595 214.772L47.8577 213.966L50.9935 217.726C52.7182 219.794 55.3352 222.136 56.8092 222.93C58.2832 223.724 59.4891 224.865 59.4891 225.464C59.4891 226.064 60.4428 226.555 61.6084 226.555C62.774 226.555 65.0809 228.329 66.7348 230.497L69.742 234.44H66.1613C62.6147 234.44 62.5875 234.483 63.3011 238.946C63.8691 242.498 63.6687 243.452 62.354 243.452C61.3344 243.452 60.9383 242.795 61.3347 241.762C62.3689 239.067 56.4459 239.592 54.9833 242.325C54.3201 243.564 52.7941 244.578 51.5921 244.578C49.6793 244.578 49.552 244.196 50.5717 241.514C51.5176 239.026 51.3752 238.185 49.8147 237.044C47.2589 235.175 45.9715 236.146 45.9715 239.943C45.9715 244.015 41.3966 248.445 38.2296 247.44C36.6049 246.924 35.5035 247.39 34.4834 249.023C32.3927 252.371 29.0745 252.041 29.0745 248.485Z" fill="1f1f1f" stroke="1f1f1f" stroke-width="3.54387"/>
    <path d="M154.97 377.002C150.934 373.295 150.824 373.002 152.323 369.967C154.631 365.294 156.365 359.17 156.365 355.692C156.365 349.233 148.033 337.994 140.253 333.96C138.516 333.06 136.108 331.336 134.902 330.13C132.166 327.393 130.431 327.384 124.481 330.072C121.469 331.433 116.407 332.355 110.525 332.613L101.295 333.017L99.0459 327.943C97.8091 325.152 95.9409 320.08 94.8944 316.672C93.6564 312.641 89.9925 306.424 84.4071 298.876C76.2119 287.802 75.6693 287.308 72.4432 287.988C68.0357 288.917 63.1929 288.891 58.6336 287.913C56.499 287.455 54.3614 287.624 53.5267 288.317C51.5601 289.949 50.6892 289.129 44.7165 280.025C38.4166 270.421 37.6265 268.297 37.3996 260.349C37.3023 256.941 37.0368 253.14 36.8095 251.9C36.4789 250.098 36.9225 249.721 39.0273 250.016C40.4745 250.219 42.6646 249.475 43.8943 248.362C45.3539 247.041 47.4815 246.455 50.0224 246.674C52.9775 246.928 54.4411 246.377 56.101 244.386C57.3035 242.943 58.3042 242.37 58.3248 243.112C58.375 244.917 63.3503 250.211 64.9969 250.211C65.7157 250.211 66.5965 251.674 66.9541 253.461C67.617 256.776 70.4246 258.869 74.997 259.457L77.5508 259.786L75.2301 264.096C70.9876 271.977 74.2675 275.005 83.7935 272.002C90.3314 269.941 92.3013 267.444 89.1862 265.166C87.4536 263.899 87.4368 263.728 89.0445 263.728C90.048 263.728 91.6656 262.932 92.6392 261.958C94.2484 260.349 94.4093 260.387 94.4093 262.381C94.4093 263.932 95.4318 264.778 97.9044 265.272C102.318 266.155 103.064 265.665 104.035 261.245C104.789 257.81 104.892 257.752 106.495 259.849C107.415 261.053 108.879 263.684 109.75 265.694C111.839 270.52 123.649 276.12 131.739 276.12C136.857 276.12 137.215 275.932 137.215 273.25C137.215 269.525 148.215 258.098 149.617 260.366C150.179 261.275 149.486 263.495 147.815 266.142C144.434 271.498 144.441 271.783 148.063 276.088L151.026 279.609L154.051 273.64C155.715 270.357 158.435 265.529 160.097 262.91C162.875 258.532 163.356 258.24 166.071 259.272C171.724 261.421 177.604 266.577 179.983 271.468C181.3 274.176 182.227 276.471 182.044 276.568C181.861 276.664 178.171 277.634 173.844 278.722C169.517 279.811 165.582 281.097 165.099 281.579C164.616 282.062 164.794 284.1 165.493 286.108C166.659 289.451 167.063 289.695 170.296 289.004C172.237 288.59 174.364 287.819 175.021 287.292C175.679 286.765 178.467 286.366 181.217 286.405C183.967 286.444 187.484 286.3 189.033 286.085C191.581 285.732 191.903 286.144 192.412 290.41C192.945 294.874 196.781 300.902 199.088 300.902C199.67 300.902 200.447 300.015 200.815 298.931C201.183 297.846 202.203 296.013 203.082 294.858C204.631 292.819 204.802 292.832 208.764 295.28C213.098 297.959 218.321 307.36 218.321 312.483C218.321 315.935 221.183 318.463 226.206 319.447C233.356 320.849 233.8 321.185 235.223 326.266C236.347 330.28 236.347 331.97 235.224 334.682C233.547 338.729 233.187 338.761 224.503 335.647C211.951 331.146 207.769 333.745 202.558 349.285C201.217 353.282 199.415 357.917 198.553 359.584C196.81 362.954 188.945 369.616 186.709 369.616C185.919 369.616 182.578 368.096 179.284 366.237C171.755 361.988 167.935 361.813 166.966 365.674C166.577 367.223 166.567 369.717 166.943 371.217C167.893 375 166.772 377.305 163.043 379.233C161.291 380.14 159.705 380.879 159.519 380.876C159.333 380.872 157.286 379.13 154.97 377.002Z" fill="white" stroke="white" stroke-width="3.54387"/>
    <path d="M29.0745 248.485C29.0745 246.916 29.8415 243.797 30.779 241.553C31.7164 239.309 32.3501 237.36 32.1871 237.222C32.024 237.083 29.6469 235.838 26.9045 234.454C21.1317 231.542 12.4163 231.729 8.97955 234.839C7.85281 235.859 5.7964 236.693 4.40974 236.693C1.90685 236.693 1.89424 236.605 2.67274 224.583C3.10405 217.923 3.89832 211.62 4.43779 210.577C5.76483 208.01 5.67213 201.939 4.20118 195.08C2.37517 186.566 4.038 182.939 13.3099 175.216C18.4503 170.934 21.6902 167.241 22.8502 164.342C24.2979 160.724 25.6794 159.478 30.7079 157.254C39.1542 153.519 42.4681 147.793 43.6429 134.904C44.3726 126.898 44.9651 124.945 47.4909 122.221C51.1047 118.324 52.0806 113.751 51.3202 104.279C50.6551 95.9924 51.7683 93.1434 57.7095 87.9269C60.7124 85.2904 61.7479 83.4812 61.765 80.842C61.79 76.9721 68.2699 58.8877 70.666 56.0006C71.4856 55.013 73.1242 54.205 74.3074 54.205C75.4905 54.205 78.0939 53.5217 80.0927 52.6866C83.6461 51.2019 83.7588 50.9331 85.1684 40.577C86.7575 28.902 89.3466 22.3082 92.5769 21.7098C93.9529 21.4548 96.9982 23.6062 101.332 27.8952L107.978 34.4715L120.445 34.4915L132.912 34.5115L136.174 38.1627C137.969 40.1708 139.826 41.8139 140.301 41.8139C140.776 41.8139 143.661 43.588 146.711 45.7565C153.224 50.3869 154.368 50.5474 156.747 47.1646L158.53 44.63L160.852 47.4462C162.625 49.5955 162.981 51.0627 162.359 53.6418C161.91 55.5005 161.486 60.0168 161.416 63.678C161.302 69.6251 160.999 70.4418 158.577 71.3378C155.318 72.5435 154.153 74.1858 154.13 77.6074C154.117 79.5504 153.292 80.3343 150.719 80.8489C148.519 81.2889 147.112 82.3756 146.72 83.9373C145.885 87.2628 148.507 93.0051 152.178 95.8927C154.838 97.9857 155.239 99.103 155.239 104.43C155.239 107.801 155.659 111.439 156.172 112.515C156.686 113.591 158.381 117.089 159.941 120.288L162.776 126.105L160.038 127.57C156.957 129.219 154.113 134.011 154.113 137.553C154.113 138.848 152.996 141.418 151.632 143.263C150.03 145.43 149.195 148.106 149.273 150.821C149.502 158.734 150.276 165.2 151.165 166.639C152.326 168.518 149.924 171.358 147.173 171.358C145.985 171.358 140.091 169.114 134.074 166.372C124.495 162.006 122.434 161.457 117.502 161.964C113.048 162.423 111.24 163.258 108.858 165.96C106.314 168.846 106.034 169.788 107.053 172.024C108.073 174.264 107.844 175.02 105.558 176.944C104.073 178.195 100.07 180.51 96.6626 182.089C93.2551 183.669 89.7067 185.374 88.7774 185.878C85.9633 187.405 85.9921 195.931 88.8284 200.978C91.9147 206.469 90.7843 207.858 83.0195 208.117C78.888 208.255 76.6114 208.985 74.6905 210.79C73.2366 212.156 71.5558 212.97 70.9553 212.598C70.3548 212.227 69.548 212.746 69.1624 213.751C68.5541 215.336 67.0968 215.471 58.1595 214.772L47.8577 213.966L50.9935 217.726C52.7182 219.794 55.3352 222.136 56.8092 222.93C58.2832 223.724 59.4891 224.865 59.4891 225.464C59.4891 226.064 60.4428 226.555 61.6084 226.555C62.774 226.555 65.0809 228.329 66.7348 230.497L69.742 234.44H66.1613C62.6147 234.44 62.5875 234.483 63.3011 238.946C63.8691 242.498 63.6687 243.452 62.354 243.452C61.3344 243.452 60.9383 242.795 61.3347 241.762C62.3689 239.067 56.4459 239.592 54.9833 242.325C54.3201 243.564 52.7941 244.578 51.5921 244.578C49.6793 244.578 49.552 244.196 50.5717 241.514C51.5176 239.026 51.3752 238.185 49.8147 237.044C47.2589 235.175 45.9715 236.146 45.9715 239.943C45.9715 244.015 41.3966 248.445 38.2296 247.44C36.6049 246.924 35.5035 247.39 34.4834 249.023C32.3927 252.371 29.0745 252.041 29.0745 248.485Z" fill="1f1f1f" stroke="1f1f1f" stroke-width="3.54387"/>
    <path d="M156.477 42.9726L156.821 43.6592L156.134 44.6925L155.445 46.7564L154.759 47.7869L154.413 48.8203L153.383 48.4763L152.007 48.1323L150.973 47.4444L149.941 47.1004L148.565 45.7245L147.535 45.0351L145.47 42.9726L144.438 42.2832L143.407 41.9407L142.374 41.2527L141.686 40.9088L140.31 40.5648L139.278 40.2208L137.902 38.1569L137.214 37.469L135.838 35.4051L133.086 32.6533H132.056L130.679 32.3093L129.991 32.6533L126.895 33.6837H122.767L121.737 33.3412H116.233L115.199 33.6837H112.792L111.761 33.3412H110.385L108.32 32.6533L107.633 31.9653L106.6 31.2773L105.912 30.5879L104.88 30.2454L103.504 28.8695L102.816 27.8361L102.128 27.1496L101.096 26.4602L100.41 25.4297L99.0339 24.0538L98.3445 23.0218L96.2806 20.9579L93.1863 19.926L91.8103 19.582L88.3691 23.0218L87.3386 23.7098V24.7417L86.6492 26.8056L86.3052 28.1815L85.6173 30.2454V31.2773L84.9293 33.3412V34.3731L84.2414 36.4356V38.5009L83.8974 39.5328V40.5648L83.5534 41.5967V42.6287L83.2108 44.0046L83.5534 45.0351V49.1643L82.5214 49.8522L81.1455 51.2281L80.1136 51.9161L79.0817 52.2586H78.0497L77.0178 52.6041H75.9873L74.9539 52.948H73.922L72.89 53.292H72.2021L71.1701 53.98L70.4822 54.3239L69.1062 55.6999L68.4183 56.0439L67.0424 60.1716L66.6984 60.8581L65.3225 64.9859L64.9785 65.6753L63.6026 69.803L63.26 70.491L62.5706 72.5549L61.8827 73.5854L61.5401 74.2748L60.8508 76.3386V81.1543L60.5068 82.1849V83.2182L59.8188 83.9062L58.4429 85.9701L57.7549 86.6566L56.723 87.346L56.0365 88.0325L55.0031 88.7219L54.3151 89.4084L53.2832 90.0978L51.2193 93.1936L50.8753 94.2256L50.5314 94.9135L49.8434 96.9774V100.417L50.1888 101.105V104.201L50.5314 105.231V114.176L49.8434 116.24L49.4994 116.928L48.8129 118.992L48.1235 119.679L47.437 120.712L46.7476 121.4L46.0611 122.43L45.0277 123.12L44.3412 123.806L43.9958 124.496L43.3078 125.182V126.216L42.9653 127.248V128.278L42.6198 129.311V132.406L42.9653 133.439V136.191L42.6198 137.223V138.253L42.2759 139.287V140.319L41.9319 141.005L41.5893 142.039V143.071L41.2439 144.103L40.556 145.135L39.524 148.229L38.8375 148.918L37.4616 150.981L36.7722 151.67L36.4282 152.702L35.7417 153.39L34.7083 154.077L34.0204 154.766L31.9565 155.452L31.2685 155.798L28.1727 156.828L27.4848 157.174L26.4528 157.518L25.7663 158.204L24.7329 158.894L24.3904 159.58L23.0144 160.958L21.9811 164.052L21.2931 165.085L20.9491 166.117L20.6052 166.804L20.2626 167.837L18.1973 169.901L17.1668 170.589L16.4774 170.933L15.4455 171.621L14.0696 172.997L13.039 173.685L11.6631 175.061L10.6298 175.749L9.25384 177.125L8.2219 177.813L7.53395 178.157L6.50201 178.844L5.81548 179.532L5.47007 180.564L4.7821 181.251L4.09415 182.284L3.75017 182.972L3.06364 184.003L2.71823 184.692V186.068L2.37425 187.1V192.26L2.71823 193.292V194.324L3.06364 195.356V196.387L3.40619 197.419V198.107L4.09415 200.171V201.202L4.43956 202.235V203.267L4.7821 204.299L4.43956 205.331V206.363L4.09415 207.049V209.115L3.40619 210.147L3.06364 210.835L2.71823 211.867L2.37425 212.554L2.03027 213.586L1.68629 214.273V225.97L1.34375 227V237.321H2.37425L3.40619 237.665H4.43956L5.47007 238.009H7.19139L9.94324 235.257L16.1334 233.193H18.1973L19.2292 233.537H21.2931L22.3251 233.881H23.357L24.045 234.569L26.1088 235.257L27.1422 235.945L27.8287 236.289L28.8621 236.633L29.8926 237.321L30.9245 237.665L29.8926 240.761L29.5486 241.447L28.5167 244.545L28.1727 245.233V246.264L27.8287 247.296V250.392L27.4848 251.423V252.456H28.5167L29.5486 252.112H33.3324L35.0523 252.456L35.3963 253.144L36.0842 254.175L36.4282 254.864V260.022L36.0842 260.712V266.215L36.4282 266.903L37.1162 268.967L37.4616 269.655L38.1481 271.719L38.4921 272.407L39.18 273.439L39.524 274.127L40.2134 275.159L40.556 275.845L41.2439 276.879L41.9319 277.567L42.2759 278.597L42.9653 279.286L43.3078 280.318L44.6837 281.694L45.0277 282.726L45.7157 283.414L46.0611 284.445L46.7476 285.134L47.0916 286.166L47.7795 286.854L48.4675 287.886L48.8129 288.573L50.1888 289.95L50.8753 290.294H52.5952L53.2832 289.95L54.3151 289.262L55.0031 288.573L56.0365 288.23H57.7549L59.8188 288.918L60.8508 289.606L62.9146 290.294H63.9466L65.3225 290.638H66.3544L67.3878 290.294H68.4183L69.4502 289.95L70.4822 289.262L71.5141 288.918L72.5461 288.23H74.2659L75.2979 288.918L75.9873 289.606L76.3298 290.294L77.0178 291.326L77.7057 292.014L78.3937 293.044L79.0817 293.734L79.4256 294.42L80.1136 295.454L80.8016 296.141L81.4895 297.172L82.8654 298.549L83.2108 299.581L83.8974 300.268L84.5868 301.301L85.9627 302.677L86.6492 303.709L86.9932 304.396L87.6811 305.429L88.3691 306.117L89.0585 307.149L90.4344 308.525L90.777 309.557L91.4649 310.243L92.4969 313.34L92.8408 314.028L94.2168 318.156L94.5622 318.843L95.9381 322.97V324.004L96.9686 327.1L97.658 327.788L98.3445 329.851L99.0339 330.539L99.7204 332.603L100.41 333.635L100.752 334.323L102.128 335.011L102.816 334.323L103.848 333.979L104.88 333.291H120.015L122.079 332.603L122.767 332.259L124.832 331.57L125.519 330.883L126.551 330.194L127.584 329.851L128.271 329.507L130.336 328.818H131.023L132.056 329.164L132.742 329.851L133.774 330.539L134.462 330.883L134.808 331.57L135.15 332.603L136.184 332.947L136.87 333.291L137.902 333.979L138.59 334.323L139.622 334.666L140.31 335.355L141.342 335.699L142.031 336.387L143.062 336.731L145.126 338.793L146.159 339.483L146.846 340.515L148.222 341.891L149.255 342.579L149.941 343.611L150.631 344.299L151.317 345.331L152.007 346.017L152.349 347.05L152.693 347.738L153.383 348.769L153.725 349.802L154.069 350.49L154.759 352.554V353.586L155.101 354.617L155.445 355.306L155.789 356.338L155.445 357.714L154.069 361.84L153.383 362.53V365.625L153.037 366.657V367.689L152.349 368.377L152.007 369.064L150.631 370.44L149.941 371.473L149.597 372.161L149.941 372.849L150.631 374.913L151.317 375.945L152.693 377.321L153.725 377.663L155.789 379.728L156.821 380.415L157.509 381.104L158.197 381.448L158.885 382.136L159.917 381.791L161.293 381.448L163.358 380.76L164.045 380.415L164.734 379.728L165.421 379.385L166.454 378.697L167.14 378.353L167.484 377.321L167.83 376.633L168.172 375.601L168.516 374.913L168.86 373.881L168.516 373.191V372.161L168.172 371.129L167.83 370.44L167.484 369.409V368.377L167.14 367.689L167.83 365.625L168.516 364.937L168.86 363.905H169.892L170.924 363.561H171.958L172.988 364.249L175.053 364.937L175.74 365.281L176.772 365.968L177.46 366.657L178.148 367.001L179.181 367.689L179.868 368.033L180.9 368.721L181.588 369.064L182.275 369.753L183.307 370.097H183.995L185.029 370.44L185.715 370.785L187.091 370.44H188.123L190.187 369.753L191.563 368.377L192.595 367.689L193.283 367.001L194.315 366.313L195.691 364.937L196.723 364.249L197.411 363.561L198.443 363.216L199.132 361.154L199.818 360.464L200.162 359.434L200.506 358.746L201.194 357.714L202.228 354.617V353.93L204.29 347.738L204.634 347.05L206.01 342.923L206.355 342.235L207.042 341.203L207.386 340.515L208.074 339.827L208.418 338.793L209.106 338.107L209.451 337.418L210.138 336.387L210.827 336.042L211.858 335.699L212.546 335.355L213.579 335.011L214.266 334.323L215.298 334.666H216.331L217.361 335.011H219.081L223.209 336.387L223.897 336.731L230.089 338.793L230.778 339.139L233.872 340.169L234.904 340.859L235.592 341.547L237.656 342.923L238.344 343.611L239.032 344.641L239.378 345.331L240.064 346.017L240.753 347.05L242.129 348.426L242.816 349.458L244.192 350.834L244.88 351.865L247.632 354.617L248.664 355.306L250.729 357.368L251.759 358.058L253.135 359.434L254.167 360.122L255.543 361.498L256.231 361.84L256.919 362.873L258.295 364.249L258.983 365.281L260.359 366.657L261.047 367.689L261.735 368.033H262.767L263.455 368.377H265.862L266.552 368.033L267.582 367.689L267.928 367.345H268.27L268.614 367.689L270.678 368.377L271.366 369.064L273.43 369.753L274.118 370.44L276.182 371.129L276.87 371.816L278.934 372.505L279.623 373.191L280.654 373.537L281.342 373.881L282.375 374.567L283.405 374.225H286.845L287.533 373.537L288.223 373.191L288.909 372.161L289.598 371.473L289.941 370.785L290.629 369.753L290.974 368.721L291.661 367.689L293.726 365.625L295.101 365.281L296.133 364.937H297.165L298.198 364.592H299.228L300.26 364.249H300.95L301.98 363.905H303.012L304.044 363.561L308.173 364.937H309.204L310.236 365.281H312.3L313.332 365.625H315.397L316.427 365.968H318.491L319.525 366.313H320.555L321.587 366.657H322.621L324.683 367.345L325.372 367.689L329.499 369.064L330.187 369.409H331.22L332.251 369.753H333.282L334.314 370.097H338.442L339.474 369.753H344.634L345.666 369.409H350.137L350.825 369.753L351.857 370.097L352.547 370.785L353.577 371.129L357.705 375.257L358.737 375.945L363.553 380.76L364.585 381.448V382.136L365.96 386.263H369.4L371.464 385.576L372.152 385.232L374.217 384.544L374.904 384.2L376.969 383.512L377.656 383.167L378.688 382.48L380.752 381.791L381.44 381.448L383.503 380.76L384.193 380.415L386.255 379.728L386.945 379.039L389.007 378.353L389.695 378.009L391.759 377.321H394.511L395.544 377.663H398.295L399.326 378.353L400.016 379.039L401.046 379.385L401.734 380.072L404.83 381.104H405.52L408.615 382.136H409.646L410.334 382.48L412.398 383.167L413.086 383.512L414.119 383.856L414.806 384.2L415.838 384.544L416.525 384.888L420.309 388.672L421.343 389.36L422.719 390.736L423.405 391.766L424.437 392.456H425.125L426.157 392.8H427.19L427.877 393.144L428.221 392.8L431.318 393.832L432.005 394.176L433.036 394.862L436.132 395.896L436.82 396.238L440.948 397.614H443.7L444.389 397.959H445.42L446.452 397.271L447.141 396.927L448.172 396.583L448.86 395.896L449.891 395.552L450.579 395.208L451.613 394.862L452.299 394.176L454.365 393.488L455.051 392.8L456.083 392.456L456.771 392.112L457.803 391.424L458.491 391.08L459.523 390.736H462.619L463.651 390.39H469.842L470.874 389.704L473.626 386.952L474.658 386.263L475.346 385.92L478.098 383.167L479.13 382.48L480.163 382.136L481.194 381.448L482.226 381.104L483.257 380.415H487.041L488.073 380.76H489.105L491.169 381.448H492.201L495.297 382.48H496.329L498.393 383.167H511.12L512.152 383.512H513.185L516.279 384.544L517.313 385.232" stroke="1f1f1f" stroke-width="1.37592"/>
    <path d="M517.84 384.295V383.262L518.182 382.231V380.51L518.87 378.447V377.415L519.214 376.383V375.351L519.558 374.32V373.286L519.902 372.6L520.246 371.568V370.534L520.936 368.472L521.278 367.784L521.622 366.752L521.966 366.063L522.654 365.032L523.342 364.344L523.688 363.311L524.374 362.624L525.064 361.592L525.406 360.904L526.094 359.872L526.782 359.184L527.126 358.153L527.814 357.463L528.158 356.433L528.846 355.745L529.535 354.711L529.878 354.025L530.566 352.993L531.254 352.305L531.598 351.273L532.287 350.585L532.63 349.553V347.488L531.942 346.801L531.254 345.769L530.911 345.081L530.222 344.393L529.535 343.36L528.846 342.673L528.502 341.642L527.814 340.954L527.126 339.922L526.782 339.234L526.094 338.546L525.406 337.512L510.959 323.065L509.583 321.003L509.24 320.313L508.551 318.251L508.207 317.562L507.175 314.466V312.747L507.519 311.371L508.551 308.276L509.24 307.244L509.583 306.212L510.271 305.18L510.959 303.804L511.991 300.708V299.332L511.647 298.3L510.959 297.267L510.615 296.58L509.927 295.548L509.583 294.86L508.895 293.828L508.207 293.139L507.865 292.108L507.175 291.077L506.831 290.389L506.489 289.357L506.143 288.667L505.455 287.637L505.113 286.949L504.767 285.915L504.079 285.229L503.737 284.197L503.391 283.509L502.703 282.477L501.672 281.101L499.608 279.037L498.576 278.349L495.824 275.597L494.792 274.909L492.042 272.158L491.008 271.468L490.32 270.782L489.632 269.75L488.256 268.374L487.224 268.03L486.538 267.341L485.504 266.654L484.816 265.965L483.785 265.278L481.721 263.214L481.033 262.182L480.345 261.493L480.001 260.806L479.314 260.117L478.625 259.774L477.593 259.43L476.905 259.086H471.745L470.715 258.741L470.369 258.055L470.025 257.023V256.335L469.681 254.959V253.927L469.339 252.893V251.863L468.993 250.831V250.142L468.305 249.111L467.961 248.079L467.618 247.391L467.274 247.047L466.243 246.359L463.491 243.607L462.458 242.918L461.77 242.575L460.739 242.918L460.394 243.607L459.706 244.639L459.362 246.015L459.018 247.047L458.33 248.079L457.986 248.766L457.298 249.799L455.234 251.863L454.202 252.551L453.516 252.893L452.482 253.583L451.45 253.927H450.419L449.387 254.269H448.355L447.668 254.615H441.131L440.099 254.269H439.069L438.035 253.927L436.659 253.583H435.627L434.595 253.239L433.22 252.551L432.532 251.863L431.5 251.175L430.812 250.831L430.469 250.142L429.093 248.766L427.717 246.703L427.372 246.015L426.684 245.327V243.951L426.341 242.918V241.887L425.996 240.856V239.824L425.652 238.792V237.76L425.308 236.728V235.694L424.966 234.318V231.567L424.62 230.536V228.816L424.966 227.784V226.064L425.308 225.032V224.001L425.652 222.967V221.937L425.996 220.905V220.217L426.684 217.465V213.681L425.996 211.617V210.585L425.652 209.209V205.082L425.996 204.05V201.296L426.341 200.61L425.996 199.578V198.202L425.308 197.169L424.276 196.482L423.246 196.138L421.18 196.826L420.148 197.514L419.46 197.858L418.428 198.545L417.742 199.234L416.709 199.578L416.021 200.266L414.989 200.954L414.301 201.296L413.27 201.986L412.581 202.672L411.549 203.018L410.861 203.706L409.829 204.05L408.797 204.738L405.701 205.768H404.671L403.637 206.114H402.605L401.573 206.458H400.543L399.51 206.802H398.478L396.414 207.49L395.726 208.177L393.662 209.553L392.974 209.896L392.286 210.929L390.222 212.993L389.534 214.025L388.848 214.713L387.814 215.057L387.126 215.744L385.062 216.433H381.968L380.935 216.089L379.559 215.401L378.527 214.368L377.839 212.993L377.496 211.961V209.553L377.839 208.177L378.183 207.144L378.527 205.768L378.872 204.738L379.215 204.05V203.018L379.559 202.33L379.215 201.296V200.266L378.872 199.234V198.202L378.183 196.826L377.839 195.794L377.151 195.106L376.807 194.073L376.463 193.386L375.775 192.697L375.431 192.01L374.055 190.635L373.023 189.945L372.335 189.603L370.959 189.259L370.273 188.915H369.239L368.551 188.569L367.521 188.227H366.488L365.8 187.539L364.769 187.195L363.736 186.507L361.673 184.443L360.64 183.755L358.576 181.691L357.546 181.003L356.856 180.659L356.17 179.97L355.136 179.283L352.384 176.531L351.698 175.498L351.008 174.122L350.665 173.092V169.308L351.008 168.274V164.836L350.665 163.804V163.116L349.633 161.74L348.601 161.052L347.57 160.708L346.193 160.364L345.505 160.02H341.033L340.001 160.364H338.625L335.529 161.396H333.123L332.09 161.052L331.402 160.364L330.371 159.675L328.994 158.299L328.306 157.957L327.618 156.923L326.242 155.547L325.554 154.517L323.49 152.453L322.802 151.421L322.114 150.733L321.772 150.045L321.082 149.013L319.018 146.948L318.33 145.917L316.955 144.541L316.267 143.509L314.891 142.133L314.203 141.789L313.172 141.1L312.139 140.758L311.452 140.414L310.419 140.07L309.731 139.382L307.667 138.694L306.979 138.348L302.853 136.972H302.163L298.036 135.598L297.004 135.254L296.316 134.91L295.284 134.566L294.253 133.877L293.22 133.534H291.844L290.812 133.19L289.78 133.534H288.06L287.028 133.877H285.996L284.964 134.222H282.902L281.869 134.566H280.837L279.805 134.91L278.774 134.566H275.678L273.613 133.877H272.581L271.551 133.534H270.517L269.485 133.19L268.109 132.846L267.079 132.158L266.39 131.814L265.358 131.47L264.67 130.782L263.982 128.718V125.622L263.638 124.247L262.951 122.871L260.886 120.807L259.51 120.119L258.479 120.463L257.79 121.149L257.104 122.183L256.414 122.871L255.728 123.901L255.382 124.934L254.694 125.622L253.662 126.31L252.63 126.654L251.942 126.998L250.567 127.342V126.998L250.223 126.654V126.31L249.88 125.622L249.535 124.59V122.183L249.191 121.149V119.087L248.847 118.055L248.504 117.367L247.815 117.023L247.128 117.367L246.095 118.055L244.719 119.431L244.031 119.773L242.999 120.119H237.839L236.807 119.773H234.399L233.368 119.431H231.305L230.272 119.087H229.24L228.208 118.743L227.177 118.055L226.488 117.367L225.457 116.678L224.082 115.302L223.392 114.271L223.048 113.583L222.36 112.55L222.016 111.519L221.33 110.831L220.984 109.799L220.296 108.767L219.954 107.736L219.264 107.048L218.232 103.95L217.888 103.264L216.858 100.168L216.513 99.4786L215.825 97.4161L215.137 96.3842L214.793 95.3508L214.449 94.6643L214.106 93.6323L213.417 92.9444L212.73 91.9124L209.978 89.1606L208.601 88.4727H206.537L205.507 88.8166H204.817L203.785 89.1606H202.755L199.659 90.1926H198.97L195.874 91.2245L195.186 91.5685L192.09 92.6004L191.06 93.2884L189.684 93.6323H184.522L183.835 93.2884L182.803 92.9444L181.771 92.2564L181.084 91.5685L180.395 90.5365L180.051 89.8486L179.363 88.8166L178.675 86.7513L178.332 86.0648L177.987 85.0329L177.299 84.3449L176.267 83.6569L174.891 82.2796L173.861 81.5931L170.763 78.4973L169.733 77.8093L168.357 76.4334L167.667 75.4014L165.604 73.3376L164.916 72.3042L164.228 71.6177L163.885 70.5857L163.196 69.8978L162.509 67.8339V67.1459L162.164 66.114V65.0806L161.82 64.3941V61.2983L162.164 60.2663V58.8904L163.196 55.7946L163.885 54.4187L164.228 53.3868L164.916 52.3534L164.572 51.6669V49.947L163.885 49.259L163.196 48.2271L162.509 47.5391L162.164 46.8511L161.476 45.8192L160.788 45.1298L159.757 44.4433L158.724 44.0993L157.692 43.4113L156.913 43.1913L156.134 44.6925L155.445 46.7564L154.759 47.7869L154.413 48.8203L153.383 48.4763L152.007 48.1323L150.973 47.4444L149.941 47.1004L148.566 45.7245L147.535 45.0351L145.47 42.9726L144.438 42.2832L143.407 41.9407L142.374 41.2527L141.686 40.9088L140.31 40.5648L139.278 40.2208L137.902 38.1569L137.214 37.469L135.838 35.4051L133.086 32.6533H132.056L130.679 32.3093L129.991 32.6533L126.895 33.6838H122.767L121.737 33.3412H116.233L115.2 33.6838H112.792L111.761 33.3412H110.385L108.32 32.6533L107.633 31.9653L106.6 31.2773L105.912 30.5879L104.88 30.2454L103.504 28.8695L102.816 27.8361L102.128 27.1496L101.096 26.4602L100.41 25.4297L99.0339 24.0538L98.3445 23.0218L96.2806 20.958L93.1863 19.926L91.8104 19.582L88.3691 23.0218L87.3386 23.7098V24.7417L86.6492 26.8056L86.3052 28.1815L85.6173 30.2454V31.2773L84.9293 33.3412V34.3731L84.2414 36.4356V38.5009L83.8974 39.5328V40.5648L83.5534 41.5967V42.6287L83.2109 44.0046L83.5534 45.0351V49.1643L82.5215 49.8522L81.1455 51.2281L80.1136 51.9161L79.0817 52.2586H78.0497L77.0178 52.6041H75.9873L74.9539 52.948H73.922L72.89 53.292H72.2021L71.1702 53.98L70.4822 54.3239L69.1063 55.6999L68.4183 56.0439L67.0424 60.1716L66.6984 60.8581L65.3225 64.9859L64.9785 65.6753L63.6026 69.803L63.2601 70.491L62.5707 72.5549L61.8827 73.5854L61.5402 74.2748L60.8508 76.3386V81.1543L60.5068 82.1849V83.2182L59.8188 83.9062L58.4429 85.9701L57.755 86.6566L56.723 87.346L56.0365 88.0325L55.0031 88.7219L54.3152 89.4084L53.2832 90.0978L51.2193 93.1936L50.8754 94.2256L50.5314 94.9135L49.8434 96.9774V100.417L50.1888 101.105V104.201L50.5314 105.231V114.176L49.8434 116.24L49.4994 116.928L48.8129 118.992L48.1235 119.679L47.437 120.712L46.7476 121.4L46.0611 122.43L45.0277 123.12L44.3412 123.806L43.9958 124.496L43.3078 125.182V126.216L42.9653 127.248V128.278L42.6199 129.311V132.406L42.9653 133.439V136.191L42.6199 137.223V138.254L42.2759 139.287V140.319L41.9319 141.005L41.5894 142.039V143.071L41.2439 144.103L40.556 145.135L39.524 148.229L38.8375 148.918L37.4616 150.981L36.7722 151.67L36.4282 152.702L35.7417 153.39L34.7083 154.077L34.0204 154.766L31.9565 155.452L31.2685 155.798L28.1727 156.828L27.4848 157.174L26.4528 157.518L25.7663 158.204L24.7329 158.894L24.3904 159.58L23.0145 160.958L21.9811 164.052L21.2931 165.085L20.9491 166.117L20.6052 166.804L20.2626 167.837L18.1973 169.901L17.1668 170.589L16.4774 170.933L15.4455 171.621L14.0696 172.997L13.0391 173.685L11.6631 175.061L10.6298 175.749L9.25385 177.125L8.22191 177.813L7.53395 178.157L6.50201 178.845L5.81549 179.532L5.47008 180.564L4.78211 181.251L4.09415 182.284L3.75017 182.972L3.06365 184.003L2.71823 184.692V186.068L2.37426 187.1V192.26L2.71823 193.292V194.324L3.06365 195.356V196.387L3.4062 197.419V198.107L4.09415 200.171V201.202L4.43957 202.235V203.267L4.78211 204.299L4.43957 205.331V206.363L4.09415 207.049V209.115L3.4062 210.147L3.06365 210.835L2.71823 211.867L2.37426 212.555L2.03028 213.586L1.68629 214.273V225.97L1.34375 227V237.321H2.37426L3.4062 237.665H4.43957L5.47008 238.009H7.1914L9.94324 235.257L16.1334 233.193H18.1973L19.2293 233.537H21.2931L22.3251 233.881H23.357L24.045 234.569L26.1088 235.257L27.1422 235.945L27.8287 236.289L28.8621 236.633L29.8926 237.321L30.9246 237.665L29.8926 240.761L29.5486 241.447L28.5167 244.545L28.1727 245.233V246.264L27.8287 247.296V250.392L27.4848 251.423V252.456H28.5167L29.5486 252.112H33.3324L35.0523 252.456L35.3963 253.144L36.0842 254.175L36.4282 254.864V260.022L36.0842 260.712V266.215L36.4282 266.903L37.1162 268.967L37.4616 269.655L38.1481 271.719L38.4921 272.407L39.1801 273.439L39.524 274.127L40.2134 275.159L40.556 275.845L41.2439 276.879L41.9319 277.567L42.2759 278.597L42.9653 279.287L43.3078 280.318L44.6837 281.694L45.0277 282.726L45.7157 283.414L46.0611 284.445L46.7476 285.134L47.0916 286.166L47.7796 286.854L48.4675 287.886L48.8129 288.573L50.1888 289.95L50.8754 290.294H52.5953L53.2832 289.95L54.3152 289.262L55.0031 288.573L56.0365 288.23H57.755L59.8188 288.918L60.8508 289.606L62.9146 290.294H63.9466L65.3225 290.638H66.3544L67.3878 290.294H68.4183L69.4503 289.95L70.4822 289.262L71.5141 288.918L72.5461 288.23H74.266L75.2979 288.918L75.9873 289.606L76.3298 290.294L77.0178 291.326L77.7058 292.014L78.3937 293.044L79.0817 293.734L79.4256 294.42L80.1136 295.454L80.8016 296.141L81.4895 297.172L82.8655 298.549L83.2109 299.581L83.8974 300.268L84.5868 301.301L85.9627 302.677L86.6492 303.709L86.9932 304.396L87.6811 305.429L88.3691 306.117L89.0585 307.149L90.4344 308.525L90.777 309.557L91.4649 310.243L92.4969 313.34L92.8408 314.028L94.2168 318.156L94.5622 318.843L95.9381 322.97V324.004L96.9686 327.1L97.658 327.788L98.3445 329.851L99.0339 330.539L99.7204 332.603L100.41 333.635L100.752 334.323L102.128 335.011L102.816 334.323L103.848 333.979L104.88 333.291H120.015L122.079 332.603L122.767 332.259L124.832 331.57L125.519 330.883L126.551 330.194L127.584 329.851L128.271 329.508L130.336 328.818H131.023L132.056 329.164L132.742 329.851L133.774 330.539L134.462 330.883L134.808 331.57L135.15 332.603L136.184 332.947L136.87 333.291L137.902 333.979L138.59 334.323L139.622 334.666L140.31 335.355L141.342 335.699L142.031 336.387L143.062 336.731L145.126 338.794L146.159 339.483L146.846 340.515L148.222 341.891L149.255 342.579L149.941 343.611L150.631 344.299L151.317 345.331L152.007 346.017L152.349 347.05L152.693 347.738L153.383 348.769L153.725 349.802L154.069 350.49L154.759 352.554V353.586L155.101 354.617L155.445 355.306L155.789 356.338L155.445 357.714L154.069 361.84L153.383 362.53V365.625L153.037 366.657V367.689L152.349 368.377L152.007 369.064L150.631 370.44L149.941 371.473L149.597 372.161L149.941 372.849L150.631 374.913L151.317 375.945L152.693 377.321L153.725 377.663L155.789 379.728L156.821 380.415L157.509 381.104L158.197 381.448L158.885 382.136L159.917 381.791L161.293 381.448L163.358 380.76L164.045 380.415L164.734 379.728L165.421 379.385L166.454 378.697L167.14 378.353L167.484 377.321L167.83 376.633L168.172 375.601L168.516 374.913L168.86 373.881L168.516 373.191V372.161L168.172 371.129L167.83 370.44L167.484 369.409V368.377L167.14 367.689L167.83 365.625L168.516 364.937L168.86 363.905H169.892L170.924 363.561H171.958L172.988 364.249L175.053 364.937L175.74 365.281L176.772 365.968L177.46 366.657L178.148 367.001L179.181 367.689L179.868 368.033L180.9 368.721L181.588 369.064L182.275 369.753L183.307 370.097H183.995L185.029 370.44L185.715 370.785L187.091 370.44H188.123L190.187 369.753L191.563 368.377L192.595 367.689L193.283 367.001L194.315 366.313L195.691 364.937L196.723 364.249L197.411 363.561L198.443 363.216L199.132 361.154L199.818 360.464L200.162 359.434L200.506 358.746L201.194 357.714L202.228 354.617V353.93L204.29 347.738L204.634 347.05L206.01 342.923L206.355 342.235L207.042 341.203L207.386 340.515L208.074 339.827L208.418 338.794L209.106 338.107L209.451 337.418L210.138 336.387L210.827 336.042L211.858 335.699L212.546 335.355L213.579 335.011L214.266 334.323L215.298 334.666H216.331L217.361 335.011H219.081L223.209 336.387L223.897 336.731L230.089 338.794L230.778 339.139L233.872 340.169L234.904 340.859L235.592 341.547L237.656 342.923L238.344 343.611L239.032 344.641L239.378 345.331L240.064 346.017L240.753 347.05L242.129 348.426L242.816 349.458L244.192 350.834L244.88 351.865L247.632 354.617L248.664 355.306L250.729 357.368L251.759 358.058L253.135 359.434L254.167 360.122L255.543 361.498L256.231 361.84L256.919 362.874L258.295 364.249L258.983 365.281L260.359 366.657L261.047 367.689L261.735 368.033H262.767L263.455 368.377H265.863L266.552 368.033L267.582 367.689L267.928 367.345H268.27L268.614 367.689L270.678 368.377L271.366 369.064L273.43 369.753L274.118 370.44L276.182 371.129L276.87 371.816L278.934 372.505L279.623 373.191L280.654 373.537L281.342 373.881L282.375 374.567L283.405 374.225H286.845L287.533 373.537L288.223 373.191L288.909 372.161L289.598 371.473L289.941 370.785L290.629 369.753L290.974 368.721L291.661 367.689L293.726 365.625L295.101 365.281L296.133 364.937H297.165L298.198 364.592H299.229L300.26 364.249H300.95L301.98 363.905H303.012L304.044 363.561L308.173 364.937H309.204L310.236 365.281H312.3L313.332 365.625H315.397L316.427 365.968H318.491L319.525 366.313H320.555L321.587 366.657H322.621L324.683 367.345L325.372 367.689L329.499 369.064L330.187 369.409H331.22L332.251 369.753H333.282L334.314 370.097H338.442L339.474 369.753H344.634L345.666 369.409H350.137L350.825 369.753L351.857 370.097L352.547 370.785L353.577 371.129L357.705 375.257L358.737 375.945L363.553 380.76L364.585 381.448V382.136L365.961 386.263H369.4L371.464 385.576L372.152 385.232L374.217 384.544L374.904 384.2L376.969 383.512L377.656 383.167L378.688 382.48L380.752 381.791L381.44 381.448L383.503 380.76L384.193 380.415L386.255 379.728L386.945 379.039L389.007 378.353L389.695 378.009L391.759 377.321H394.511L395.544 377.663H398.295L399.327 378.353L400.016 379.039L401.046 379.385L401.734 380.072L404.83 381.104H405.52L408.615 382.136H409.646L410.334 382.48L412.398 383.167L413.086 383.512L414.119 383.856L414.806 384.2L415.838 384.544L416.525 384.888L420.309 388.672L421.343 389.36L422.719 390.736L423.405 391.766L424.437 392.456H425.125L426.157 392.8H427.19L427.877 393.144L428.221 392.8L431.318 393.832L432.005 394.176L433.036 394.862L436.132 395.896L436.82 396.238L440.948 397.614H443.7L444.389 397.959H445.42L446.452 397.271L447.141 396.927L448.172 396.583L448.86 395.896L449.891 395.552L450.579 395.208L451.613 394.862L452.299 394.176L454.365 393.488L455.051 392.8L456.083 392.456L456.771 392.112L457.803 391.424L458.491 391.08L459.523 390.736H462.619L463.651 390.39H469.842L470.874 389.704L473.626 386.952L474.658 386.263L475.346 385.92L478.098 383.167L479.13 382.48L480.163 382.136L481.194 381.448L482.226 381.104L483.257 380.415H487.041L488.073 380.76H489.105L491.169 381.448H492.201L495.297 382.48H496.329L498.393 383.167H511.12L512.152 383.512H513.185L516.279 384.544L517.404 385.28L517.84 384.295Z" stroke="1f1f1f" stroke-width="1.37592"/>
    <path d="M7.375 238.105L8.06295 237.417L8.75092 236.385L9.43887 235.695" fill="#1E1E1E"/>
    <path d="M7.375 238.105L8.06295 237.417L8.75092 236.385L9.43887 235.695" stroke="white" stroke-width="1.37592"/>
    <path d="M517.84 384.295V383.262L518.183 382.231V380.51L518.87 378.447V377.415L519.214 376.383V375.352L519.558 374.32V373.286L519.902 372.6L520.246 371.568V370.534L520.936 368.472L521.278 367.784L521.622 366.752L521.966 366.063L522.654 365.032L523.342 364.344L523.688 363.311L524.374 362.624L525.064 361.592L525.406 360.904L526.094 359.872L526.782 359.184L527.126 358.153L527.814 357.463L528.158 356.433L528.846 355.745L529.535 354.711L529.878 354.025L530.566 352.993L531.254 352.305L531.598 351.273L532.287 350.585L532.63 349.553V347.488L531.942 346.801L531.254 345.769L530.911 345.081L530.222 344.393L529.535 343.36L528.846 342.673L528.502 341.642L527.814 340.954L527.126 339.922L526.782 339.234L526.094 338.546L525.406 337.512L510.959 323.065L509.583 321.003L509.24 320.313L508.551 318.251L508.207 317.562L507.175 314.466V312.747L507.519 311.371L508.551 308.276L509.24 307.244L509.583 306.212L510.271 305.18L510.959 303.804L511.991 300.708V299.332L511.647 298.3L510.959 297.267L510.615 296.58L509.927 295.548L509.583 294.86L508.895 293.828L508.207 293.139L507.865 292.108L507.175 291.077L506.831 290.389L506.489 289.357L506.143 288.667L505.455 287.637L505.113 286.949L504.767 285.915L504.079 285.229L503.737 284.197L503.391 283.509L502.703 282.477L501.672 281.101L499.608 279.037L498.576 278.349L495.824 275.597L494.792 274.909L492.042 272.158L491.008 271.468L490.32 270.782L489.632 269.75L488.256 268.374L487.224 268.03L486.538 267.341L485.504 266.654L484.817 265.965L483.785 265.278L481.721 263.214L481.033 262.182L480.345 261.493L480.001 260.806L479.314 260.117L478.625 259.774L477.593 259.43L476.905 259.086H471.745L470.715 258.741L470.369 258.055L470.025 257.023V256.335L469.681 254.959V253.927L469.339 252.893V251.863L468.993 250.831V250.142L468.305 249.111L467.962 248.079L467.618 247.391L467.274 247.047L466.243 246.359L463.491 243.607L462.458 242.918L461.77 242.575L460.739 242.918L460.394 243.607L459.706 244.639L459.362 246.015L459.018 247.047L458.33 248.079L457.986 248.766L457.298 249.799L455.234 251.863L454.202 252.551L453.516 252.893L452.482 253.583L451.451 253.927H450.419L449.387 254.269H448.355L447.668 254.615H441.131L440.099 254.269H439.069L438.035 253.927L436.659 253.583H435.627L434.596 253.239L433.22 252.551L432.532 251.863L431.5 251.175L430.812 250.831L430.469 250.142L429.093 248.766L427.717 246.703L427.372 246.015L426.684 245.327V243.951L426.341 242.918V241.887L425.996 240.856V239.824L425.652 238.792V237.76L425.308 236.728V235.694L424.966 234.318V231.567L424.62 230.536V228.816L424.966 227.784V226.064L425.308 225.032V224.001L425.652 222.967V221.937L425.996 220.905V220.217L426.684 217.465V213.681L425.996 211.617V210.585L425.652 209.209V205.082L425.996 204.05V201.296L426.341 200.61L425.996 199.578V198.202L425.308 197.169L424.276 196.482L423.246 196.138L421.18 196.826L420.148 197.514L419.46 197.858L418.428 198.545L417.742 199.234L416.709 199.578L416.021 200.266L414.989 200.954L414.301 201.296L413.27 201.986L412.581 202.672L411.549 203.018L410.861 203.706L409.829 204.05L408.797 204.738L405.701 205.768H404.671L403.637 206.114H402.605L401.573 206.458H400.543L399.51 206.802H398.478L396.414 207.49L395.726 208.177L393.662 209.553L392.974 209.896L392.286 210.929L390.222 212.993L389.534 214.025L388.848 214.713L387.814 215.057L387.126 215.744L385.062 216.433H381.968L380.935 216.089L379.559 215.401L378.527 214.368L377.839 212.993L377.496 211.961V209.553L377.839 208.177L378.183 207.144L378.527 205.768L378.872 204.738L379.215 204.05V203.018L379.559 202.33L379.215 201.296V200.266L378.872 199.234V198.202L378.183 196.826L377.839 195.794L377.151 195.106L376.807 194.073L376.463 193.386L375.775 192.697L375.431 192.01L374.055 190.635L373.023 189.945L372.335 189.603L370.959 189.259L370.273 188.915H369.239L368.551 188.569L367.521 188.227H366.488L365.8 187.539L364.769 187.195L363.736 186.507L361.673 184.443L360.64 183.755L358.576 181.691L357.546 181.003L356.856 180.659L356.17 179.97L355.136 179.283L352.384 176.531L351.698 175.498L351.009 174.122L350.665 173.092V169.308L351.009 168.274V164.836L350.665 163.804V163.116L349.633 161.74L348.601 161.052L347.57 160.708L346.193 160.364L345.505 160.02H341.033L340.001 160.364H338.625L335.529 161.396H333.123L332.09 161.052L331.402 160.364L330.371 159.675L328.994 158.299L328.306 157.956L327.618 156.923L326.242 155.547L325.554 154.517L323.49 152.453L322.802 151.421L322.114 150.733L321.772 150.045L321.082 149.013L319.018 146.948L318.33 145.917L316.955 144.541L316.267 143.509L314.891 142.133L314.203 141.789L313.172 141.1L312.139 140.758L311.452 140.414L310.419 140.07L309.731 139.382L307.667 138.694L306.979 138.348L302.853 136.972H302.163L298.036 135.598L297.004 135.254L296.316 134.91L295.284 134.566L294.253 133.877L293.22 133.534H291.844L290.812 133.19L289.78 133.534H288.06L287.028 133.877H285.996L284.964 134.222H282.902L281.869 134.566H280.837L279.805 134.91L278.774 134.566H275.678L273.613 133.877H272.581L271.551 133.534H270.517L269.485 133.19L268.109 132.846L267.079 132.158L266.39 131.814L265.358 131.47L264.67 130.782L263.982 128.718V125.622L263.638 124.247L262.951 122.871L260.886 120.807L259.51 120.119L258.479 120.463L257.79 121.149L257.104 122.183L256.414 122.871L255.728 123.901L255.382 124.934L254.694 125.622L253.662 126.31L252.63 126.654L251.942 126.998L250.567 127.342V126.998L250.223 126.654V126.31L249.88 125.622L249.535 124.59V122.183L249.191 121.149V119.087L248.847 118.055L248.504 117.367L247.815 117.023L247.128 117.367L246.095 118.055L244.719 119.431L244.031 119.773L242.999 120.119H237.839L236.807 119.773H234.4L233.368 119.431H231.305L230.272 119.087H229.24L228.208 118.743L227.177 118.055L226.488 117.367L225.457 116.678L224.082 115.302L223.392 114.271L223.048 113.583L222.36 112.55L222.016 111.519L221.33 110.831L220.984 109.799L220.296 108.767L219.954 107.736L219.264 107.048L218.232 103.95L217.888 103.264L216.858 100.168L216.513 99.4786L215.825 97.4161L215.137 96.3842L214.793 95.3508L214.449 94.6643L214.106 93.6323L213.417 92.9444L212.73 91.9125L209.978 89.1606L208.601 88.4727H206.537L205.507 88.8166H204.817L203.785 89.1606H202.755L199.659 90.1926H198.97L195.874 91.2245L195.186 91.5685L192.09 92.6004L191.06 93.2884L189.684 93.6323H184.522L183.835 93.2884L182.803 92.9444L181.771 92.2564L181.084 91.5685L180.395 90.5365L180.051 89.8486L179.363 88.8166L178.675 86.7513L178.332 86.0648L177.987 85.0329L177.299 84.3449L176.267 83.6569L174.891 82.2796L173.861 81.5931L170.763 78.4973L169.733 77.8093L168.357 76.4334L167.667 75.4014L165.604 73.3376L164.916 72.3042L164.228 71.6177L163.885 70.5857L163.196 69.8978L162.509 67.8339V67.1459L162.164 66.114V65.0806L161.82 64.3941V61.2983L162.164 60.2663V58.8904L163.196 55.7946L163.885 54.4187L164.228 53.3868L164.916 52.3534L164.572 51.6669V49.947L163.885 49.259L163.196 48.2271L162.509 47.5391L162.164 46.8511L161.476 45.8192L160.788 45.1298L159.757 44.4433L158.724 44.0993L157.692 43.4113L156.913 43.1913L156.135 44.6925L155.445 46.7564L154.759 47.7869L154.413 48.8203L153.383 48.4763L152.007 48.1323L150.973 47.4444L149.941 47.1004L148.566 45.7245L147.535 45.0351L145.47 42.9726L144.438 42.2832L143.407 41.9407L142.374 41.2527L141.686 40.9088L140.31 40.5648L139.278 40.2208L137.902 38.1569L137.214 37.469L135.838 35.4051L133.086 32.6533H132.056L130.679 32.3093L129.991 32.6533L126.895 33.6838H122.767L121.737 33.3412H116.233L115.2 33.6838H112.792L111.761 33.3412H110.385L108.32 32.6533L107.633 31.9653L106.6 31.2773L105.912 30.5879L104.88 30.2454L103.504 28.8695L102.816 27.8361L102.128 27.1496L101.096 26.4602L100.41 25.4297L99.0339 24.0538L98.3445 23.0218L96.2806 20.958L93.1863 19.926L91.8104 19.582L88.3691 23.0218L87.3386 23.7098V24.7417L86.6492 26.8056L86.3053 28.1815L85.6173 30.2454V31.2773L84.9293 33.3412V34.3731L84.2414 36.4356V38.5009L83.8974 39.5328V40.5648L83.5534 41.5967V42.6287L83.2109 44.0046L83.5534 45.0351V49.1643L82.5215 49.8522L81.1455 51.2281L80.1136 51.9161L79.0817 52.2586H78.0498L77.0178 52.6041H75.9873L74.9539 52.948H73.922L72.8901 53.292H72.2021L71.1702 53.98L70.4822 54.3239L69.1063 55.6999L68.4183 56.0439L67.0424 60.1716L66.6984 60.8581L65.3225 64.9859L64.9785 65.6753L63.6026 69.803L63.2601 70.491L62.5707 72.5549L61.8827 73.5854L61.5402 74.2748L60.8508 76.3386V81.1543L60.5068 82.1849V83.2182L59.8188 83.9062L58.4429 85.9701L57.755 86.6566L56.723 87.346L56.0365 88.0325L55.0031 88.7219L54.3152 89.4084L53.2832 90.0978L51.2193 93.1936L50.8754 94.2256L50.5314 94.9135L49.8434 96.9774V100.417L50.1888 101.105V104.201L50.5314 105.231V114.176L49.8434 116.24L49.4994 116.928L48.8129 118.992L48.1235 119.679L47.437 120.712L46.7476 121.4L46.0611 122.43L45.0277 123.12L44.3412 123.806L43.9958 124.496L43.3078 125.182V126.216L42.9653 127.248V128.278L42.6199 129.311V132.406L42.9653 133.439V136.191L42.6199 137.223V138.254L42.2759 139.287V140.319L41.9319 141.005L41.5894 142.039V143.071L41.2439 144.103L40.556 145.135L39.524 148.229L38.8375 148.918L37.4616 150.981L36.7722 151.67L36.4282 152.702L35.7417 153.39L34.7083 154.077L34.0204 154.766L31.9565 155.452L31.2685 155.798L28.1727 156.828L27.4848 157.174L26.4528 157.518L25.7663 158.204L24.7329 158.894L24.3904 159.58L23.0145 160.958L21.9811 164.052L21.2931 165.085L20.9491 166.117L20.6052 166.804L20.2626 167.837L18.1973 169.901L17.1668 170.589L16.4774 170.933L15.4455 171.621L14.0696 172.997L13.0391 173.685L11.6631 175.061L10.6298 175.749L9.25385 177.125L8.22191 177.813L7.53395 178.157L6.50201 178.844L5.81549 179.532L5.47008 180.564L4.78211 181.251L4.09415 182.284L3.75017 182.972L3.06365 184.003L2.71823 184.692V186.068L2.37426 187.1V192.26L2.71823 193.292V194.324L3.06365 195.356V196.387L3.4062 197.419V198.107L4.09415 200.171V201.202L4.43957 202.235V203.267L4.78211 204.299L4.43957 205.331V206.363L4.09415 207.049V209.115L3.4062 210.147L3.06365 210.835L2.71823 211.867L2.37426 212.555L2.03028 213.586L1.68629 214.273V225.97L1.34375 227V237.321H2.37426L3.4062 237.665H4.43957L5.47008 238.009H7.1914L9.94324 235.257L16.1334 233.193H18.1973L19.2293 233.537H21.2931L22.3251 233.881H23.357L24.045 234.569L26.1088 235.257L27.1422 235.945L27.8287 236.289L28.8621 236.633L29.8926 237.321L30.9246 237.665L29.8926 240.761L29.5486 241.447L28.5167 244.545L28.1727 245.233V246.264L27.8287 247.296V250.392L27.4848 251.423V252.456H28.5167L29.5486 252.112H33.3324L35.0523 252.456L35.3963 253.144L36.0842 254.175L36.4282 254.864V260.022L36.0842 260.712V266.215L36.4282 266.903L37.1162 268.967L37.4616 269.655L38.1481 271.719L38.4921 272.407L39.1801 273.439L39.524 274.127L40.2134 275.159L40.556 275.845L41.2439 276.879L41.9319 277.567L42.2759 278.597L42.9653 279.286L43.3078 280.318L44.6837 281.694L45.0277 282.726L45.7157 283.414L46.0611 284.445L46.7476 285.134L47.0916 286.166L47.7796 286.854L48.4675 287.886L48.8129 288.573L50.1888 289.95L50.8754 290.294H52.5953L53.2832 289.95L54.3152 289.262L55.0031 288.573L56.0365 288.23H57.755L59.8188 288.918L60.8508 289.606L62.9146 290.294H63.9466L65.3225 290.638H66.3544L67.3878 290.294H68.4183L69.4503 289.95L70.4822 289.262L71.5141 288.918L72.5461 288.23H74.266L75.2979 288.918L75.9873 289.606L76.3298 290.294L77.0178 291.326L77.7058 292.014L78.3937 293.044L79.0817 293.734L79.4257 294.42L80.1136 295.454L80.8016 296.141L81.4895 297.172L82.8655 298.549L83.2109 299.581L83.8974 300.268L84.5868 301.301L85.9627 302.677L86.6492 303.709L86.9932 304.396L87.6812 305.429L88.3691 306.117L89.0585 307.149L90.4344 308.525L90.777 309.557L91.465 310.243L92.4969 313.34L92.8409 314.028L94.2168 318.156L94.5622 318.843L95.9381 322.97V324.004L96.9686 327.1L97.658 327.788L98.3445 329.851L99.0339 330.539L99.7205 332.603L100.41 333.635L100.752 334.323L102.128 335.011L102.816 334.323L103.848 333.979L104.88 333.291H120.015L122.079 332.603L122.767 332.259L124.832 331.57L125.519 330.883L126.551 330.194L127.584 329.851L128.271 329.508L130.336 328.818H131.023L132.056 329.164L132.742 329.851L133.774 330.539L134.462 330.883L134.808 331.57L135.15 332.603L136.184 332.947L136.87 333.291L137.902 333.979L138.59 334.323L139.622 334.666L140.31 335.355L141.342 335.699L142.031 336.387L143.062 336.731L145.126 338.794L146.159 339.483L146.846 340.515L148.222 341.891L149.255 342.579L149.941 343.611L150.631 344.299L151.317 345.331L152.007 346.017L152.349 347.05L152.693 347.738L153.383 348.769L153.725 349.802L154.069 350.49L154.759 352.554V353.586L155.101 354.617L155.445 355.306L155.789 356.338L155.445 357.714L154.069 361.84L153.383 362.53V365.625L153.037 366.657V367.689L152.349 368.377L152.007 369.064L150.631 370.44L149.941 371.473L149.597 372.161L149.941 372.849L150.631 374.913L151.317 375.945L152.693 377.321L153.725 377.663L155.789 379.728L156.821 380.415L157.509 381.104L158.197 381.448L158.885 382.136L159.917 381.791L161.293 381.448L163.358 380.76L164.045 380.415L164.734 379.728L165.421 379.385L166.454 378.697L167.14 378.353L167.484 377.321L167.83 376.633L168.172 375.601L168.516 374.913L168.86 373.881L168.516 373.191V372.161L168.172 371.129L167.83 370.44L167.484 369.409V368.377L167.14 367.689L167.83 365.625L168.516 364.937L168.86 363.905H169.892L170.924 363.561H171.958L172.988 364.249L175.053 364.937L175.74 365.281L176.772 365.968L177.46 366.657L178.148 367.001L179.181 367.689L179.868 368.033L180.9 368.721L181.588 369.064L182.275 369.753L183.307 370.097H183.995L185.029 370.44L185.715 370.785L187.091 370.44H188.123L190.187 369.753L191.563 368.377L192.595 367.689L193.283 367.001L194.315 366.313L195.691 364.937L196.723 364.249L197.411 363.561L198.443 363.216L199.132 361.154L199.818 360.464L200.162 359.434L200.506 358.746L201.194 357.714L202.228 354.617V353.93L204.29 347.738L204.634 347.05L206.01 342.923L206.356 342.235L207.042 341.203L207.386 340.515L208.074 339.827L208.418 338.794L209.106 338.107L209.451 337.418L210.138 336.387L210.827 336.042L211.858 335.699L212.546 335.355L213.579 335.011L214.266 334.323L215.298 334.666H216.331L217.361 335.011H219.081L223.209 336.387L223.897 336.731L230.089 338.794L230.778 339.139L233.872 340.169L234.904 340.859L235.592 341.547L237.656 342.923L238.344 343.611L239.032 344.641L239.378 345.331L240.064 346.017L240.753 347.05L242.129 348.426L242.816 349.458L244.192 350.834L244.88 351.865L247.632 354.617L248.664 355.306L250.729 357.368L251.759 358.058L253.135 359.434L254.167 360.122L255.543 361.498L256.231 361.84L256.919 362.874L258.295 364.249L258.983 365.281L260.359 366.657L261.047 367.689L261.735 368.033H262.767L263.455 368.377H265.863L266.552 368.033L267.582 367.689L267.928 367.345H268.27L268.614 367.689L270.678 368.377L271.366 369.064L273.43 369.753L274.118 370.44L276.182 371.129L276.87 371.816L278.934 372.505L279.623 373.191L280.654 373.537L281.342 373.881L282.375 374.567L283.405 374.225H286.845L287.533 373.537L288.223 373.191L288.909 372.161L289.599 371.473L289.941 370.785L290.629 369.753L290.974 368.721L291.661 367.689L293.726 365.625L295.101 365.281L296.133 364.937H297.165L298.198 364.592H299.229L300.26 364.249H300.95L301.98 363.905H303.012L304.044 363.561L308.173 364.937H309.204L310.236 365.281H312.3L313.332 365.625H315.397L316.428 365.968H318.491L319.525 366.313H320.555L321.587 366.657H322.621L324.683 367.345L325.372 367.689L329.499 369.064L330.187 369.409H331.22L332.251 369.753H333.282L334.314 370.097H338.442L339.474 369.753H344.634L345.666 369.409H350.137L350.825 369.753L351.857 370.097L352.547 370.785L353.577 371.129L357.705 375.257L358.737 375.945L363.553 380.76L364.585 381.448V382.136L365.961 386.263H369.4L371.464 385.576L372.152 385.232L374.217 384.544L374.904 384.2L376.969 383.512L377.656 383.167L378.688 382.48L380.752 381.791L381.44 381.448L383.503 380.76L384.193 380.415L386.255 379.728L386.945 379.039L389.007 378.353L389.695 378.009L391.759 377.321H394.511L395.544 377.663H398.295L399.327 378.353L400.016 379.039L401.046 379.385L401.734 380.072L404.83 381.104H405.52L408.615 382.136H409.646L410.334 382.48L412.398 383.167L413.086 383.512L414.119 383.856L414.806 384.2L415.838 384.544L416.526 384.888L420.309 388.672L421.343 389.36L422.719 390.736L423.405 391.766L424.437 392.456H425.125L426.157 392.8H427.19L427.877 393.144L428.221 392.8L431.318 393.832L432.005 394.176L433.037 394.862L436.132 395.896L436.82 396.238L440.948 397.614H443.7L444.389 397.959H445.42L446.452 397.271L447.141 396.927L448.172 396.583L448.86 395.896L449.892 395.552L450.579 395.208L451.613 394.862L452.299 394.176L454.365 393.488L455.051 392.8L456.083 392.456L456.771 392.112L457.803 391.424L458.491 391.08L459.523 390.736H462.619L463.651 390.39H469.842L470.874 389.704L473.626 386.952L474.658 386.263L475.346 385.92L478.098 383.167L479.13 382.48L480.163 382.136L481.194 381.448L482.226 381.104L483.258 380.415H487.041L488.073 380.76H489.105L491.169 381.448H492.201L495.297 382.48H496.329L498.393 383.167H511.12L512.152 383.512H513.185L516.28 384.544L517.404 385.28L517.84 384.295Z" fill="#1E1E1E" stroke-width="1.37592" style="stroke: rgb(30, 30, 30);"/>
    <g opacity="0.408">
      <path d="M160.711 72.0156L161.399 72.7022" stroke="white" stroke-width="1.37592" stroke-linejoin="bevel"/>
      <path d="M163.889 70.5859L155.896 73.3906L154.864 81.3007L149.018 81.9901L147.297 84.0525L147.642 87.8377L150.049 92.9974L156.584 98.1571L156.242 110.54L158.304 113.292L158.648 116.732L164.152 126.363L157.96 130.146L154.864 136.339L155.208 140.121L150.394 146.314L149.361 152.848L151.77 159.385L150.394 163.169L152.801 167.641L151.081 171.769L144.201 172.113L123.22 162.481L111.179 163.857L107.051 169.705L109.459 175.208L99.8277 182.088L88.1324 186.904L87.4459 196.535L92.6042 205.479L90.8842 207.541L84.3501 209.95L77.813 208.917L72.6533 215.11L70.5895 213.39L68.1816 216.486H57.8622L55.7998 214.766L49.9521 215.454L53.0479 218.55L54.4239 220.958L58.5516 222.334L60.958 225.773L64.7418 225.429L66.8057 229.213L73.3413 236.091L63.7099 235.061L65.0858 244.691L59.2381 244.348L60.6141 241.253L56.8303 241.597L53.3905 246.067L48.2308 245.38L50.6387 238.501L47.5428 237.125L47.2003 242.972L41.3527 249.508L36.5355 248.132L33.3359 252.112" stroke="white" stroke-width="1.1466"/>
      <path d="M233.875 340.17L238.106 331.376L234.323 320.025L223.317 317.961L219.876 315.209L218.156 305.577L216.092 303.858L214.717 298.354L206.118 292.162L203.708 291.818L198.893 300.074L197.518 299.04L193.045 294.226L193.391 285.627L189.605 283.907L187.885 284.251L186.51 285.627L182.382 286.659L182.039 284.937L174.816 285.627L173.094 287.689L167.592 288.379L165.251 282.25L176.194 278.794L184.748 278.318L178.351 265.9L168.99 259.129L162.524 257.075L152.8 272.899L151.08 278.059L145.663 271.562L151.769 261.548L148.328 256.388L141.794 265.676L136.976 267.396L136.289 274.619L127.347 275.651L111.866 268.428L111.178 266.02C110.376 264.529 109.574 263.039 108.772 261.548C107.969 260.057 107.166 258.567 106.362 257.076L104.298 257.42L101.548 265.332H99.8267L99.4827 263.612L95.6989 263.956L95.011 258.452L93.2911 258.796L92.2592 261.891L86.4115 263.267V264.988L90.5393 266.708L88.8208 269.46L78.5 272.555L75.7496 272.211L73.6843 268.428L76.7801 264.3L78.8454 258.452L71.2764 257.764L68.1806 255.7L67.4926 250.197L63.3649 248.821L60.957 245.037" stroke="white" stroke-width="1.1466"/>
      <path d="M162.523 257.073L163.12 247.099L159.679 237.124L153.145 224.397L157.48 219.874L162.109 219.162L163.806 227.149L169.201 228.19L174.543 213.123L181.693 209.262C190.903 215.056 199.858 221.256 208.524 227.837C211.776 230.306 214.987 232.829 218.155 235.404L226.067 223.021L224.103 213.643L222.656 197.049L227.262 178.992L233.408 167.789L229.164 165.919L219.189 169.704L220.174 161.983L230.882 158.353L247.739 141.154L249.48 123.896" stroke="white" stroke-width="1.1466"/>
      <path d="M293.73 365.626L293.2 360.06L288.329 357.174L278.354 353.046L275.258 343.759L280.074 339.975V333.783L287.987 328.967L293.834 330.343L297.962 325.872L295.553 319.68L294.521 313.144L290.393 309.705L293.489 303.857L303.81 299.385L303.12 289.41L308.968 281.841L310.344 275.995L313.785 270.147L318.943 266.363L323.071 267.738L324.447 263.955L321.351 262.579L329.263 246.756L332.702 247.788L345.431 244.349L350.589 234.029L349.559 223.022L356.093 210.293L365.295 187.467" stroke="white" stroke-width="1.1466"/>
      <path d="M379.189 381.917C378.318 380.437 377.494 378.928 376.721 377.395C376.532 377.022 376.347 376.647 376.165 376.272L374.239 374.823L371.917 371.965C371.352 371.496 370.779 371.038 370.197 370.589C369.743 370.239 369.285 369.895 368.821 369.557L368.135 362.332L369.165 360.958V356.485L367.102 354.766L368.477 352.702L373.983 352.014L376.389 347.885L378.797 345.479L378.11 339.975L379.83 337.91L383.269 337.223L382.582 331.719L380.37 329.877L380.173 322.087L385.334 313.145L386.02 309.705L388.772 306.264L390.492 305.921L393.933 301.793L397.029 298.697L398.748 295.602L398.06 291.818L400.124 288.034L400.468 280.465L401.843 279.779L400.468 278.747L401.843 276.683L407.347 275.995L406.315 282.53L408.381 283.218L410.099 278.747L411.475 277.371L410.787 273.587L415.604 273.242L417.323 280.465L419.042 280.123L418.698 276.337H421.45L424.89 278.747L425.922 274.619L430.394 275.307L432.803 269.459L428.674 268.083L429.707 263.612H424.546L429.362 251.572" stroke="white" stroke-width="1.1466"/>
    </g>
  </g>
  <defs>
    <clipPath id="clip0_125_1134">
      <rect width="532.8" height="417.901" fill="white"/>
    </clipPath>
  </defs>
</svg>