<?xml version="1.0" encoding="utf-8"?>
<svg width="400" height="520" viewBox="0 4.664 400 511.255" fill="none" xmlns="http://www.w3.org/2000/svg">
  <g clip-path="url(#clip0_125_1190)">
    <path d="M0.611267 282.609L1.37761 282.857L2.13269 283.871L2.63983 284.378L2.88777 284.885L3.40618 285.651L3.90205 286.158L4.16125 286.665L4.91633 287.173L5.42347 287.68L5.93061 287.928L7.45204 289.449L7.71124 290.217L8.21838 290.972L8.72552 292.493L8.98473 293L9.4806 293.767L9.73981 294.274L11.2612 295.288L12.2755 295.794H13.0419L16.0734 296.808L16.8398 297.315L16.5806 298.071L16.3326 298.578L15.5663 299.344L14.8112 299.592L14.3041 300.099L13.5377 300.358L12.7827 300.864L12.0276 301.113L11.5092 301.619L10.7541 302.127L10.2469 302.634L9.73981 303.4L9.23266 303.909L8.21838 305.431L7.45204 307.707V308.474L6.18982 312.272V313.039L5.17554 316.081V316.836L4.91633 317.602L4.66839 318.616V319.631L5.17554 320.645L6.43775 321.906L7.2041 322.413H7.71124L9.23266 322.922H9.99901L10.4949 323.181H11.2612L12.0276 323.429H12.7827L14.3041 324.442L15.3184 325.964V326.731L15.8255 328.253V329.008L16.0734 329.514L16.5806 330.022L16.8398 330.529L17.8541 331.543L18.6091 332.049L19.6234 333.063L20.3898 333.322L21.1448 333.828L21.6633 334.078L23.1734 335.091L23.6918 335.35L24.4469 335.857L24.954 336.105L26.4755 337.118L26.9826 337.625L27.7377 338.132L28.2448 338.64L29.0112 339.147L29.5183 339.657L30.2734 340.164L30.7805 340.671L31.5469 340.931L32.3019 341.437L32.8091 341.944L33.0683 342.699L32.5612 343.713L31.5469 345.235V346.002L31.7948 346.508L32.3019 347.263L33.3275 347.522L34.0826 347.263L35.0969 347.015L35.8519 347.263L37.1254 348.538L37.3846 349.293L37.6326 349.799L38.1397 350.306L38.3989 351.074L39.154 351.321L39.9091 351.829L42.9519 352.842L44.4733 353.856L44.9805 354.622L45.2397 355.637V358.68L45.7468 359.693L46.7611 360.2L47.5162 360.448H48.2825L49.0489 360.707H50.559L51.3254 360.955H53.6019L54.3682 361.214L55.3825 360.955L56.3968 359.941L56.9039 359.186V358.419L57.1519 357.664L57.4111 357.157L57.659 356.391L58.1661 355.636L58.6846 355.128L59.6988 353.607L59.9468 352.843L60.4539 352.088L60.9611 351.581H62.9896L63.756 352.336L64.2518 353.35L64.511 354.116V359.437L64.2518 360.45V361.973L64.0039 362.739V363.753L64.511 365.014L65.0182 366.029L66.0325 367.55L66.5396 368.057L67.0467 368.825L68.5682 370.346L69.0753 371.101L69.5824 371.608L69.8304 372.375L70.8447 373.897V377.188L70.5967 377.954L69.8304 378.709L69.0753 379.216L68.5682 379.475L67.8018 379.982L67.5539 380.737V381.751L67.8018 382.517L69.0753 383.78L69.8304 384.287L70.3375 385.053L70.5967 385.808L70.3375 386.822L69.3232 388.344L68.8161 388.851L67.8018 390.372L67.5539 391.14L67.0467 391.895L66.7875 392.661L66.5396 393.676V394.938L66.7875 395.951L67.2947 396.718L68.309 397.732L69.0753 397.98L69.8304 398.487L71.3631 398.994L72.1182 399.501L72.6253 400.267L72.8732 400.774L73.1324 401.53V402.803L73.3916 403.558V404.326L73.1324 405.081V406.354L72.6253 408.383L72.1182 408.89L71.3631 409.138H70.3375L68.8161 409.645L68.061 410.152L67.5539 410.918L67.0467 411.426L66.5396 412.181L65.5253 413.194L64.511 413.453L63.756 413.701H62.7417L61.9753 413.453H61.209L60.4539 413.194H58.9325L58.1661 412.946H57.4111L56.6447 412.688H55.6304L54.8754 412.439L54.3682 412.688V413.454L54.8754 414.976L55.1233 415.483L55.6304 416.238L55.8896 417.005L56.3968 417.511L56.6447 418.266L57.1519 419.034L57.4111 419.541L57.659 420.296L58.1661 420.802L58.4253 421.569L58.9325 422.325L59.1804 422.832L59.4396 423.598L59.9468 424.612V425.367L60.1947 426.134L59.9468 426.885L59.4396 427.393L58.6846 427.651H56.6447L55.1233 428.158L54.6162 428.665L54.3682 429.679V430.434L54.109 431.201V433.477L53.8611 434.245V435L54.3682 436.013L55.3825 437.027L59.9468 438.549L60.4539 438.808L61.209 439.056L62.2233 439.823L62.7417 440.329L62.9896 441.084L63.2375 441.591V443.372L62.9896 444.387L62.7417 445.143V445.909L62.9896 446.923L63.4968 447.43L63.756 448.185L64.2518 448.952L65.2661 449.966L65.7733 450.721L66.2804 451.227L66.7875 451.995L67.2947 452.502L67.5539 453.257L68.061 453.763L68.5682 454.53L69.0753 455.037L69.3232 455.792L69.8304 456.559L70.3375 458.08L70.5967 459.095V459.85L70.8447 460.616L71.3631 461.371L71.611 461.878L72.1182 462.646L72.6253 463.152L75.6681 464.166H76.4345L80.2324 465.428L80.7395 465.686H81.4946L85.3038 466.948H86.0702L89.113 467.963L89.6089 468.221L90.3752 468.471H91.1303L94.9395 469.745H95.6946L97.9823 470.5L98.4895 470.758L100.011 471.265H100.777L104.575 472.527H105.33H106.852L107.618 472.279H109.139L109.895 472.02H110.661L111.427 471.772H112.937L113.704 471.513H115.225L116.239 471.265H116.995L117.761 471.007H120.037L120.804 471.265H122.325L123.091 471.513H123.847L124.602 471.772H125.368L126.134 472.02H126.889L127.644 472.279H128.411L129.166 472.527H131.454L132.209 472.279H133.73L134.497 472.02H135.004L137.28 471.265H138.046L141.844 469.991H142.611L143.366 469.743L143.873 469.484L146.161 468.729H146.916L148.449 468.222H152.506L153.261 467.964H161.127L161.882 467.716H163.651L165.939 466.948L166.446 466.441L167.968 465.935H169.996L171.011 466.193L171.518 466.441L172.273 466.948L173.039 467.208L173.546 467.456L175.068 467.963L175.575 468.47L177.096 468.976L177.603 469.235L178.359 469.742H180.646L181.401 469.99L182.416 469.742H183.182L183.937 469.483H184.703L185.47 469.235L185.966 468.976L186.732 468.728L187.746 468.221L187.994 467.715L188.513 467.208L188.761 466.44L189.268 465.934L189.527 465.179L190.023 464.412L190.282 463.904L190.789 463.149L191.037 462.643L191.544 461.876L192.051 461.369L192.818 461.121H207.525L209.047 461.628L209.555 461.876L210.31 462.383L211.076 462.642L211.583 463.148L212.338 463.397L213.104 463.903L213.872 464.671L214.367 465.426L214.885 465.933L215.64 466.191L216.396 465.933H217.41L219.697 465.178L220.71 464.919L221.467 464.412L221.973 464.164L222.739 463.657L223.505 463.398L224.262 462.891L224.769 462.643H225.782L226.549 462.891H227.304L228.06 463.149H228.826L229.581 463.398H230.347L231.362 463.657H232.117L232.883 463.904H234.406L235.161 464.164H235.927L236.683 464.412H239.23L240.491 463.149L240.998 461.628L241.256 461.121L242.013 458.833L242.52 458.078L242.768 457.572L243.275 456.805L243.533 456.049L244.547 454.528L245.56 453.514L247.083 452.501L250.126 451.486L250.892 450.979L251.387 450.721L252.154 450.214L252.661 449.707L253.417 449.2L253.934 448.445L254.183 447.678L254.69 446.664L254.938 445.909L255.197 444.896L255.445 444.128L256.211 443.373L257.226 443.115L257.981 443.373H258.747L259.503 443.621H261.025L261.791 443.88H262.557L263.313 444.128H264.835L265.601 444.387H266.357L267.113 444.635L268.126 444.895L268.892 445.401L269.14 446.415L268.892 447.17L268.634 448.184L268.892 449.197L269.399 449.965L269.648 450.72L270.415 450.978L272.443 453.007L272.691 453.762L273.198 454.269L273.706 455.283L272.951 457.571L273.198 458.326V459.339L273.706 460.862V464.673L273.964 465.428V465.935L274.471 466.702L274.72 467.209L275.237 468.73L275.733 469.485L275.991 469.992L276.25 470.759L276.745 471.514L277.004 472.281L277.511 472.788L278.019 473.544L279.54 475.065L280.295 475.572L280.802 476.079L281.569 476.585L282.076 476.844L282.831 477.352L283.338 477.859L283.845 478.872V479.627L283.338 480.394L282.325 481.408L281.816 482.163L281.31 482.67L280.803 483.436L280.555 483.943L280.048 484.45L279.541 485.206L278.527 486.22L278.021 486.986L277.007 488L276.747 488.756L276.253 489.262L275.238 490.784L274.721 492.306V493.073L274.979 493.579L275.734 494.086L276.747 495.1L277.515 495.608L278.022 495.856L279.035 496.869L279.293 497.376L279.79 498.649V499.404L280.296 500.927L280.803 501.693L281.061 502.448L281.569 502.955L282.076 503.722L282.325 504.477L282.583 504.984V505.752L282.325 506.507L281.816 507.273L281.31 507.78L280.803 508.535L280.296 509.042L279.79 510.564L280.048 511.071L280.296 511.837L281.063 512.344L282.077 513.099L282.584 513.359L284.105 513.865L285.12 514.114L285.875 514.372H288.929L289.684 514.114H291.971L292.727 513.865L293.482 514.114H294.248L295.004 514.372H295.51L296.277 514.62H297.032L297.799 514.879H298.554L299.321 515.127H300.077L300.843 515.386H302.365L303.12 515.634H306.929L307.685 515.386H310.727L311.493 515.127H313.771L314.537 514.879H317.58L318.335 514.62H321.378L322.144 514.879H322.901L323.667 515.127H324.68L325.187 514.62L325.694 513.607V511.33L326.201 509.301L326.707 509.043L327.463 508.536L327.982 508.288L328.737 508.029L329.243 507.781H330.766L331.521 507.522H333.043L333.81 507.274H335.331L336.086 507.015L336.853 507.274H338.633L340.143 506.767L341.676 505.754L342.689 504.739L343.445 504.232L345.474 502.204L346.229 501.697L346.736 501.19L347.243 500.423L347.749 499.916L348.517 499.409L349.53 498.903H350.296L351.052 499.161H353.34V498.395L353.588 497.64V496.366L353.836 495.611L354.355 494.843L355.866 493.83L356.632 493.581L357.387 493.075L358.154 492.308L358.403 491.553L358.661 491.046V490.54L358.909 489.772V486.481L358.661 485.468L358.146 484.959H355.859L355.103 485.207H354.348L353.829 485.466H351.801L351.046 485.714L350.29 485.466H349.523L349.017 485.207L348.758 484.7L349.017 484.192L350.03 482.671L350.537 482.164L351.045 481.409L351.303 480.642L351.799 479.887L352.317 478.365L352.565 477.859L352.813 477.091L353.072 476.078V475.323L353.579 473.801V469.991L353.072 469.236L352.813 468.47L352.565 467.963L352.317 467.208L352.058 466.701V465.934L351.8 465.179L352.058 464.165L352.565 463.398L353.072 462.891L353.827 462.384L354.346 462.136H356.363L357.129 462.384L358.652 461.629L358.9 461.122L359.407 460.615L359.665 460.109L360.172 459.341L360.928 458.834L361.695 458.586H362.201L362.967 458.834H363.723L364.478 458.586L365.245 458.079L365.752 457.573L366.507 457.066L367.025 456.559L367.78 456.052L368.287 455.545L369.042 455.039L369.55 454.779L371.072 453.765L371.839 453.517L372.345 453.259L373.1 452.752L374.622 452.245L375.388 451.738L375.896 451.49L376.403 450.983L377.158 450.475L377.676 449.709L378.431 449.202L378.938 448.695L381.216 447.94L381.982 447.434L382.738 447.174L383.504 446.16L384.011 445.654L385.024 444.132L385.531 443.624L386.038 442.869L386.546 441.348L387.053 440.582L387.301 439.827L388.574 438.552L389.081 438.304L389.836 437.797L390.603 437.539L391.37 437.032L392.125 436.784L392.88 436.277L393.398 436.017L395.416 433.989L395.922 433.234L397.445 431.712L397.703 430.945L398.21 430.19L398.717 428.668L397.951 426.381L397.443 425.873L396.936 425.118L396.688 424.352L396.181 423.845L395.922 423.09L395.416 422.323L394.909 421.816L394.661 421.061L394.154 420.295L393.896 419.788L392.881 418.265L392.632 417.759L391.619 416.237L391.371 415.73L390.852 414.974L390.604 414.208L390.097 413.701L389.591 412.946L389.342 412.179L388.824 411.424L388.575 410.41V408.889L389.082 407.874L389.59 407.367L390.096 406.601L390.355 405.846L390.603 405.339L390.355 404.572V403.816L389.588 401.528V400.773L389.081 399.252V398.484L388.325 396.208V394.934L388.067 394.179V393.165L388.325 392.399L388.574 391.384L388.823 390.629L389.836 390.122H390.603L392.125 389.615H392.88L395.167 388.849L397.445 386.572L397.703 385.805L398.21 385.298L398.458 384.792V383.531L397.952 382.516L397.703 381.75L397.197 380.995V376.937L396.937 376.17V375.663L396.69 374.908L395.922 374.401L395.416 374.143L393.138 372.62L392.631 372.114L392.125 371.359L391.618 369.837V365.779L391.866 364.765V362.985L391.618 362.477V360.201L391.866 359.435V356.899L392.125 356.144V354.621L392.383 353.855V349.797L392.125 349.042L391.866 348.536L391.618 347.768L390.851 347.52L389.838 347.013L389.082 346.755L388.575 346L388.068 345.493L387.81 344.986L387.303 344.219L387.055 343.464L386.796 342.957L386.29 342.19L385.275 339.148L384.768 338.393L384.52 337.625L384.013 337.118L383.246 336.612L381.218 336.105L380.462 336.363H379.449L378.174 335.09L377.926 334.334V333.568L377.679 332.813V332.046L377.419 331.29V330.524L376.664 328.248L376.147 327.48L375.898 326.725L375.649 326.218L375.391 325.452V324.697L375.133 323.93V323.175L374.884 322.408V321.653L374.626 320.886V320.131L374.378 319.364V318.609L374.118 318.103L373.87 317.335L373.363 316.828L373.104 316.073L372.598 315.307L372.091 314.799L371.584 314.044L371.336 313.537L370.829 312.771L370.322 312.264L369.555 311.757L369.048 311.251L368.293 310.743L367.279 310.495H363.988L363.222 310.743H360.686L358.399 311.51L357.643 312.017L355.365 312.772L354.599 313.279L353.078 313.786L352.063 313.537L351.05 312.771L350.792 312.264L350.295 311.757L350.037 311.001V309.988L350.295 309.221H351.051L351.806 308.973H353.08L353.835 308.715H354.601L355.368 307.96L355.865 307.192L356.371 306.179V305.424L355.616 304.917L355.108 304.658L354.601 304.151L353.835 303.903L352.573 302.629V301.874L352.821 301.108L353.34 300.601H354.353L354.849 300.859H355.616L356.371 301.108H357.892L358.66 300.859L359.167 300.353L359.673 299.585L359.922 298.572L361.195 294.774L361.443 293.76V293.253L361.702 292.747V291.979L361.443 291.731V291.224L361.195 290.717L360.688 289.951L359.674 289.443L358.908 288.936L358.152 288.181L357.645 287.168L357.387 286.401V285.145L357.893 284.638L358.908 284.379H359.922L360.688 283.872L361.195 283.366L363.224 277.28V276.525L363.473 276.018L363.731 275.251L363.473 274.237L363.224 273.482L361.702 272.469L361.189 271.96L359.666 270.945L359.16 269.932L358.653 269.425L358.395 268.657V267.644L359.161 265.368L359.409 264.861L359.916 264.094L360.174 263.339L360.422 262.832L360.93 262.066L361.189 261.311L361.696 260.544L361.944 260.037L362.451 259.282L362.968 258.775L363.465 258.009L363.723 257.254L364.23 256.746L365.243 255.225L365.491 254.718L366.011 253.951L366.259 253.196L366.507 252.689L367.025 251.923L367.273 251.168L367.522 250.661L368.039 249.894L368.536 249.387L369.303 248.88L369.809 248.373L370.564 248.125L371.331 247.618L372.086 247.359L372.594 246.852L373.36 246.604L374.115 245.589L374.622 245.082L374.88 244.575L375.129 243.809L375.647 243.054L375.896 242.287V241.531L376.145 240.765V239.75L375.648 238.229V237.474L374.623 234.431V233.665L373.868 231.388V230.374L373.61 229.608V228.593L373.361 227.838L373.102 226.824L372.596 225.303L372.089 224.536L371.076 223.522L370.319 223.015L369.306 222.767H368.799L368.043 222.508H366.511L365.756 222.767H364.742L363.987 223.015H363.22L362.206 223.274H361.44L360.685 223.015L359.918 222.508V219.724L360.177 218.958V218.203L360.424 217.436V216.681L360.684 215.667V214.901L360.933 214.145V213.379L361.191 212.624V211.858L361.698 210.336V209.322L361.946 208.567V207.801L362.204 207.045V206.279L362.453 205.524V204.758L362.711 204.003V201.467L362.453 200.193L361.439 199.179L360.933 198.424L360.424 197.917L359.918 197.151L359.163 196.643L358.656 195.888L358.149 195.381L357.642 194.615L357.384 194.108L356.37 192.586L356.122 192.079L354.599 189.803L354.351 189.296L353.338 187.774L352.818 187.267L352.571 186.501L352.063 185.746L351.557 185.238L351.308 184.472L350.294 182.951L349.777 182.443L349.528 181.688L349.022 181.181L348.255 180.674H347.241L345.472 178.893V177.879L344.705 175.603L344.963 174.588V173.822L345.72 173.067H350.542L351.556 173.315L352.323 173.574L353.585 174.836L354.351 175.344L354.847 175.603H355.613L355.862 174.836L356.368 174.081V171.286L356.117 170.531V169.01L355.859 167.996V162.665L356.117 161.91L356.365 160.896L356.872 160.129L357.13 159.374L357.637 158.608L357.885 158.101L358.394 157.346L358.9 156.839L359.159 156.072L359.665 155.317L359.914 154.551V152.274L359.407 150.753L358.9 149.986L358.394 149.479L357.885 148.724L355.609 147.203L354.843 146.944H354.087L351.8 146.189L351.045 145.681L350.537 145.174L350.288 144.408L350.03 143.394L349.772 142.639L349.523 141.624L349.265 141.117L348.252 139.596L347.238 138.581L346.731 137.815L345.975 137.308L345.468 136.801L344.702 136.294L342.933 134.524L342.166 134.017L341.411 133.758L340.904 133.251L340.137 132.744L339.123 132.496L338.368 131.989H337.612L336.846 132.237L336.34 132.744L335.833 133.51L335.575 134.017L335.066 134.772L334.818 135.539L334.311 136.046L334.053 136.801L333.546 137.567L333.298 138.074L332.791 138.581L332.284 138.829L332.026 138.322L331.519 137.815L330.763 135.539V134.772L330.256 133.251V132.744L330.007 131.729V130.208L329.749 129.453V128.687L329.491 127.931V126.917L329.242 126.151V124.629L328.994 123.874V122.86L328.736 122.094V120.572L327.981 118.296V117.529L327.461 116.008L327.213 114.994L326.706 113.472V112.717L325.689 109.674V107.894L326.444 107.387H328.472L330.004 106.879L330.76 106.372L331.515 106.124L332.281 105.617L333.038 105.358L333.544 104.851L334.31 104.344L334.817 103.837L335.573 103.589L336.079 103.082L336.846 102.574L337.86 101.56L338.626 101.053L339.889 99.7795L341.411 97.503L341.917 96.9959L342.166 96.2295L342.684 95.4744L342.933 94.9673L343.182 94.2009L343.44 93.6938L343.947 91.6652V90.1438L344.195 89.3887V86.3459L344.453 85.5795V81.0153L344.702 80.2602V78.4796L344.453 77.4653V76.7102L344.195 76.451L343.688 76.2031H343.182L342.685 76.7102L341.918 77.2174L341.152 77.4653L340.657 77.2174L339.89 76.7102L339.642 76.2031L339.383 75.4367L338.877 74.9296L338.628 74.1745L338.706 73.6223L338.02 74.0843L337.512 74.6028L336.745 75.1099L336.239 75.617L335.484 76.1242L334.717 76.3721L333.704 76.6313L332.949 76.8793L332.181 76.3721L331.426 76.1242L330.919 75.617L330.153 75.1099L329.398 74.8507L329.138 74.0843L328.644 73.3293L327.877 71.0415L327.369 70.2864L327.111 69.5313V68.765L326.356 66.4885V65.4742L325.343 62.4314L324.834 61.665L324.588 60.6507L324.328 59.8957L323.821 59.3773L323.314 58.6222L322.808 58.115L322.3 57.36L321.533 56.8528L321.027 56.0865L320.516 55.5793L319.761 55.0722L319.255 54.8243L318.488 54.3171L317.474 51.2743L317.733 50.5079V49.7529L318.239 48.2314L318.488 47.2171V46.4508L318.994 44.9294L318.746 43.9151V42.3937L318.488 41.6386V39.1029L317.733 36.8151L317.474 36.308L316.979 35.5529L316.46 34.0202L315.965 33.5243L315.706 32.758L315.2 32.2509L314.186 30.7294L313.937 30.2223L313.419 29.4672L312.923 28.9601L312.665 28.1937L312.157 27.4386L311.651 26.9315L311.144 26.1652L308.856 19.3244L308.35 18.558L307.842 17.0366L307.595 16.5295L307.087 15.7744L306.829 15.2673L306.322 14.5009L306.074 13.9938L305.306 13.4866L304.8 13.2387L304.045 12.7316L303.538 12.2244L302.77 11.9652L302.276 11.4581H301.509L300.495 11.2101L298.974 10.6917H298.207L295.93 9.93664H295.162L294.149 10.1947H292.626L289.596 11.209L286.554 14.2519L286.03 15.0081L285.524 16.5295L285.016 17.2958L284.769 18.0509L284.51 18.558L284.003 19.3244L283.496 20.8458L282.99 21.6009L282.741 22.356L280.205 24.9029L279.699 25.658L278.176 26.1652L277.163 26.4244L276.396 26.9315L275.641 27.1794H266.005L264.484 27.6866H263.716L262.961 27.9447H261.948L261.193 28.1926L260.673 28.6997L259.918 28.9589L259.152 29.4661L258.397 29.714L257.63 30.2212L257.122 30.4792L255.601 31.4935L255.095 32.0007L254.34 32.5078L253.831 32.7557L253.065 33.2629L252.57 33.77L251.804 34.2772L251.296 34.7843L250.79 35.5506L249.775 36.5649L249.269 37.32L248.255 38.3343L247.748 39.1006L247.49 39.6078L246.982 40.1149L246.475 40.87L246.226 41.8843L245.968 42.6506L245.461 43.4057L244.955 44.9271L244.447 45.6822L244.2 46.4485L243.692 47.2149V48.725L243.434 49.7506V56.0842L243.692 57.0985V60.9077L243.434 61.6628V62.4291L243.186 63.1842V63.9505L242.927 64.7056L242.421 65.2128L241.912 65.9791L241.157 66.4863L240.144 68.0077L239.637 67.2413L239.378 66.4863L238.883 65.9791L238.365 65.2128V64.4577L237.61 62.1699V61.4036L236.336 57.6056L235.581 57.3577H234.306L233.551 57.8649L232.785 58.1128L232.03 58.6199L231.264 58.8791L230.508 59.375L230.001 59.6342L228.479 59.1271L227.973 58.6199L227.218 58.3607L226.958 57.8649L226.452 57.0985L226.203 56.3434L225.685 55.8363L225.437 55.0699V54.3149L224.93 52.7934L224.672 52.2863V51.52L224.423 50.7649V49.7506L224.175 48.9843V48.2292L223.917 47.4628V46.6965L223.408 45.1863V44.42L223.162 43.6649V42.8986L222.902 42.1435V41.3794L222.643 40.3651V39.61L222.395 38.8437V38.0886L222.137 37.3223V34.7866L221.888 33.7723V33.0059L221.629 32.2509L221.382 31.7437L220.615 29.4672L219.602 29.208L218.079 28.7009L217.324 28.1937L216.556 27.9458L215.555 27.6877H214.787L213.265 27.1806H212.509L210.978 26.6734H210.223L208.701 26.1663H207.934L207.179 25.9183L206.166 25.6591H205.398L203.873 25.1509H203.118L202.352 24.9029H198.047L197.281 25.4101L195.759 25.9172L194.745 26.1652L193.99 26.4244L193.483 26.9315L192.716 27.1794L191.961 27.6866L191.454 28.1937L190.688 28.7009L190.192 28.9601L189.426 29.4672L188.918 29.9743L188.163 30.4815L187.397 30.7294L186.89 31.2366L186.135 31.7437L182.833 35.0345L182.066 35.5529L181.559 36.0488L180.804 36.308L180.038 36.8151L179.531 36.5672L178.776 36.308L178.009 35.8008L177.761 35.2937L177.513 34.5386L177.254 34.0202L176.995 33.0059L176.747 32.2509V31.4958L175.981 29.208V28.4529L175.485 26.9315L175.226 26.4244L174.718 24.9029L174.47 24.3958L173.952 23.8887L173.456 23.1223L172.442 22.108L171.924 21.8601L171.168 21.3417L170.661 20.8458L169.895 20.5866L169.388 20.0795L168.633 19.8315L166.852 18.0509L166.097 17.5438L165.59 16.0223L165.083 15.2673L164.835 14.5009V12.9795L164.576 12.2244V11.4581L164.835 10.9509V10.1959L164.576 9.42951L164.316 8.41522L164.068 7.64888L163.561 6.8938L162.288 5.63158L161.792 4.86523H158.738L157.216 5.37237L156.461 5.87952L155.695 6.13872L155.188 6.38666L154.433 6.8938L152.404 8.92236L151.638 9.42951L151.39 10.1959L150.883 10.9509L150.376 11.4581L150.128 12.2244L149.609 12.9795L149.113 13.4866L148.595 14.253L148.347 15.0081L147.84 15.5152L147.333 17.0366L146.826 17.803L146.566 18.3101L146.059 19.0652L145.811 19.8315L145.304 20.5866L145.045 21.3417L144.797 21.8601L144.29 22.6152L144.031 23.3702L143.524 24.1366L143.016 24.6437L142.261 25.1509L140.481 26.9315L139.726 27.4386L136.683 28.4529H121.469L120.702 28.1937H119.947L118.426 27.6866L117.919 27.4386L117.152 26.9315L116.397 26.6723L115.631 26.1652L113.861 24.3958L113.354 23.6295L111.078 21.3417L110.559 20.5866L108.283 18.3101L107.776 17.5438L105.995 15.7744L105.488 15.5152L104.733 15.0081L103.967 14.7601L103.459 14.253L102.704 13.9938L101.938 14.253H100.676L99.9095 14.5009H99.1544L98.6473 15.2673L97.8809 15.7744L96.8666 16.7887L96.1116 17.2958L95.6044 18.8172L95.0973 19.5723L94.8381 20.0795L94.5901 20.8458L94.083 21.6009V22.356L93.8238 23.3702L93.5758 24.1366V24.9029L93.3166 25.9172L93.0687 26.6723V27.4386L93.3166 28.1937V30.7294L93.5758 31.7437V33.5243L93.8238 34.5386V35.2937L93.5758 36.308L93.3166 37.0743V37.8294L93.0687 38.5957L92.5616 39.61L92.3024 40.3651L91.7952 40.8722L90.7809 42.3937L90.2738 42.9008L89.7667 43.6672L89.2595 44.1743L88.2452 45.6845L87.7494 46.2029L86.7351 47.713L86.4759 48.2314L85.9687 48.9865L85.4616 49.4936L84.9545 50.26L84.4473 50.7671L83.6922 51.2743L83.1738 51.7814L82.4188 52.0293H81.6524L80.6381 52.2886L80.131 51.7814L78.6096 51.2743L77.8545 50.7671L77.3473 50.26L76.581 49.7529L73.7974 46.9579L73.2789 45.414L72.1182 45.5154L71.3631 45.7746H70.5967L69.8304 46.0225H69.0753L67.5539 46.5297L66.7875 47.0368L66.0325 47.296L65.2661 47.8032L62.9896 48.5582L62.2233 49.0654L61.4682 49.3246L60.9611 49.8317L60.1947 52.1082V52.8746L59.9468 53.6297V54.396L59.6988 55.1511V56.1654L59.4396 56.9317V60.7296L59.6988 61.2368L59.9468 62.0031L60.4539 62.7582L61.209 63.2653L62.2233 64.2796L63.2375 65.801L63.756 67.3225V68.3368L63.4968 69.351L63.2375 70.1174L62.2233 70.3653L61.4682 70.1174L59.9468 69.1031L59.4396 68.596L58.6846 68.0888L58.1661 67.3225L57.4111 66.8153L56.9039 66.3082L56.1376 65.801L55.6304 65.2939L54.8754 64.7868L54.3682 64.0317L53.8611 63.5246L53.3539 62.7582L52.8468 61.2368L52.5876 60.2225L52.0804 59.7154L51.0774 58.1939L50.559 57.6868L49.0489 57.1796L48.2825 57.4389L47.7754 57.946L47.5162 58.7011V59.2082L47.2682 59.9746V60.7296L47.0203 61.496V62.2511L46.7611 63.0174V63.7725L46.5019 64.5388V65.5531L46.254 66.3082V67.8296L46.006 68.596V69.351L45.7468 70.1174V75.6959L46.006 76.2031L46.5019 76.9582L47.2682 77.4653L47.7754 77.9724L48.5305 78.4796L48.7897 79.2459L49.2968 80.001V81.0153L49.0489 81.7816V82.5367L48.5305 83.3031L48.0346 84.8245L47.5162 85.8388L46.5019 87.3602L45.4876 88.3745L43.9662 89.3887H43.2111L41.6897 89.8959H40.9233L39.9091 90.1438L38.3989 90.651H37.6326L36.1111 91.1581H35.0969L34.5897 91.9244L34.3418 92.6795L34.5897 93.6938L34.8377 94.4601L35.3561 94.9673L35.8519 96.4887L36.3703 97.2438L36.6183 98.0101L36.8662 98.5173L37.3846 99.2724L37.8805 100.794L38.3989 101.301L38.8948 102.822L39.4019 103.589L39.6611 104.344L39.9091 104.851V105.358L40.1683 106.124V108.66L39.9091 109.415L39.6611 110.429L39.154 111.951L38.8948 112.458L38.3989 113.224L38.1397 113.979L37.6326 114.487L37.3846 115.253L36.8662 115.501L35.8519 116.515L35.0969 116.774L33.5754 117.789L32.8091 118.037L32.3019 118.803L31.7948 119.31L31.2877 120.065L29.5183 125.396L29.2591 126.41L28.752 127.931L28.2448 128.439L27.9969 128.946L26.9826 129.96L26.4755 130.715L25.9683 131.222L25.4612 131.989L25.202 132.744L24.954 133.251V134.017L24.7061 134.772V135.787L24.4469 136.553V139.844L24.1877 140.61V141.365L23.9398 142.131V143.146L23.4326 143.901L22.9255 144.915L22.4183 145.681L22.1591 146.189L20.3898 147.958L19.8826 148.724L19.1163 149.231L18.8683 149.739L17.8541 152.781L17.3469 153.536L16.8398 155.058L16.3326 155.565L16.0734 156.331L15.0592 157.086L14.552 157.594L13.7969 157.853L13.0419 158.36L12.2755 158.608L11.5092 159.115H10.7541L8.46632 159.881H7.71124L6.18982 160.388H5.43474L4.66839 160.896L3.90205 161.144L3.40618 161.91L2.88777 162.924L2.3919 164.446L2.13269 164.953V165.708L1.37761 167.996H1.11841L0.859203 168.503L0.363331 169.01L0.104126 169.517V170.272L0.611267 171.794L1.11841 172.56L1.37761 173.315L2.3919 174.836L2.63983 175.603L2.88777 176.617L3.14697 177.372V178.138L3.40618 178.893V180.415L4.42046 182.443L5.17554 182.951L5.68268 183.458L5.93061 184.224L6.18982 185.238L5.68268 185.993L5.43474 186.76L4.66839 187.515L3.90205 187.774L3.14697 188.281L2.88777 189.036L3.14697 189.543L3.40618 190.31L4.91633 192.586L5.43474 193.093L5.93061 193.86L6.18982 194.615L6.69696 195.381V197.917L6.44902 198.672V199.686L6.18982 200.453V201.208L5.68268 202.729V203.743L5.43474 204.51V205.265L4.91633 206.786V207.553L4.66839 208.567V209.322L4.16125 210.843V212.365L3.90205 212.872V214.653L4.16125 215.667V216.422L4.42046 217.436V218.203L4.66839 218.958V219.465L4.91633 219.972L5.17554 220.738L5.68268 221.493L5.93061 222.26L6.44902 223.015L6.69696 223.781L7.2041 224.288L8.21838 225.81L8.46632 226.317L9.4806 227.838L9.99901 228.345L10.4949 229.867L11.0133 230.622L11.2612 231.636L11.5092 232.403V234.172L11.2612 234.938V235.952L9.73981 240.517L9.4806 241.024L9.23266 241.779L8.72552 242.545L7.2041 247.11L6.69696 247.617L6.18982 248.372L5.93061 249.138L5.43474 249.893L4.91633 250.4L4.42046 251.167L3.65411 251.674L3.14697 252.429L2.63983 252.936L2.3919 253.443L0.611267 258.774L0.363331 259.281L-0.15508 260.802L-0.650951 261.817L-0.910156 262.572V263.845L-0.650951 264.6L-0.403015 265.107L-0.15508 265.874L0.104126 266.381L1.37761 267.643L2.13269 268.15L2.88777 268.408L5.17554 269.931L5.68268 270.437L5.93061 271.451L4.66839 275.249L3.65411 276.262L3.14697 277.031L2.13269 278.045L1.62555 278.8L0.611267 279.815L0.104126 280.581L-0.910156 281.595L0.611267 282.609Z" stroke="#1f1f1f" stroke-width="1.01428" stroke-miterlimit="3"/>
    <path d="M0.611267 282.609L1.37761 282.857L2.13269 283.871L2.63983 284.379L2.88777 284.885L3.40618 285.651L3.90205 286.158L4.16125 286.665L4.91633 287.173L5.42347 287.68L5.93061 287.928L7.45204 289.45L7.71124 290.217L8.21838 290.972L8.72552 292.493L8.98473 293L9.4806 293.767L9.73981 294.274L11.2612 295.288L12.2755 295.794H13.0419L16.0734 296.808L16.8398 297.315L16.5806 298.071L16.3326 298.578L15.5663 299.344L14.8112 299.593L14.3041 300.099L13.5377 300.358L12.7827 300.864L12.0276 301.113L11.5092 301.619L10.7541 302.128L10.2469 302.636L9.73981 303.402L9.23266 303.909L8.21838 305.431L7.45204 307.707V308.474L6.18982 312.273V313.039L5.17554 316.081V316.836L4.91633 317.602L4.6684 318.616V319.631L5.17554 320.645L6.43775 321.907L7.2041 322.413H7.71124L9.23266 322.922H9.99901L10.4949 323.181H11.2612L12.0276 323.429H12.7827L14.3041 324.443L15.3184 325.964V326.731L15.8255 328.253V329.008L16.0734 329.516L16.5806 330.022L16.8398 330.529L17.8541 331.543L18.6091 332.05L19.6234 333.063L20.3898 333.322L21.1448 333.828L21.6633 334.078L23.1734 335.091L23.6918 335.35L24.4469 335.857L24.954 336.105L26.4755 337.119L26.9826 337.625L27.7377 338.132L28.2448 338.64L29.0112 339.147L29.5183 339.654L30.2734 340.16L30.7805 340.667L31.5469 340.926L32.3019 341.432L32.8091 341.939L33.0683 342.694L32.5612 343.709L31.5469 345.23V345.998L31.7948 346.504L32.3019 347.26L33.3275 347.518L34.0826 347.26L35.0969 347.011L35.8519 347.26L37.1254 348.533L37.3846 349.288L37.6326 349.796L38.1397 350.302L38.3989 351.069L39.154 351.317L39.9091 351.824L42.9519 352.837L44.4733 353.852L44.9805 354.618L45.2397 355.632V358.675L45.7468 359.688L46.7611 360.195L47.5162 360.443H48.2825L49.0489 360.702H50.559L51.3254 360.95H53.6019L54.3682 361.21L55.3825 360.95L56.3968 359.937L56.9039 359.181V358.415L57.1519 357.66L57.4111 357.152L57.659 356.386L58.1661 355.631L58.6846 355.124L59.6988 353.602L59.9468 352.843L60.4539 352.088L60.9611 351.581H62.9896L63.756 352.337L64.2518 353.35L64.511 354.116V359.437L64.2518 360.45V361.973L64.0039 362.739V363.753L64.511 365.015L65.0182 366.029L66.0325 367.551L66.5396 368.057L67.0467 368.825L68.5682 370.346L69.0753 371.101L69.5824 371.608L69.8304 372.375L70.8447 373.897V377.188L70.5967 377.954L69.8304 378.709L69.0753 379.216L68.5682 379.475L67.8018 379.982L67.5539 380.737V381.751L67.8018 382.517L69.0753 383.78L69.8304 384.287L70.3375 385.053L70.5967 385.808L70.3375 386.822L69.3232 388.344L68.8161 388.851L67.8018 390.374L67.5539 391.14L67.0467 391.895L66.7875 392.661L66.5396 393.676V394.938L66.7875 395.951L67.2947 396.718L68.309 397.732L69.0753 397.981L69.8304 398.487L71.3631 398.994L72.1182 399.501L72.6253 400.267L72.8732 400.774L73.1324 401.53V402.803L73.3916 403.558V404.326L73.1324 405.081V406.354L72.6253 408.383L72.1182 408.89L71.3631 409.138H70.3375L68.8161 409.645L68.061 410.152L67.5539 410.918L67.0467 411.426L66.5396 412.181L65.5253 413.195L64.511 413.453L63.756 413.701H62.7417L61.9753 413.453H61.209L60.4539 413.195H58.9325L58.1661 412.946H57.4111L56.6447 412.688H55.6304L54.8754 412.439L54.3682 412.688V413.454L54.8754 414.976L55.1233 415.483L55.6304 416.238L55.8896 417.005L56.3968 417.511L56.6447 418.267L57.1519 419.034L57.4111 419.541L57.659 420.296L58.1661 420.803L58.4253 421.569L58.9325 422.325L59.1804 422.832L59.4396 423.598L59.9468 424.612V425.367L60.1947 426.134L59.9468 426.885L59.4396 427.393L58.6846 427.651H56.6447L55.1233 428.158L54.6162 428.665L54.3682 429.679V430.434L54.109 431.201V433.478L53.8611 434.245V435L54.3682 436.014L55.3825 437.027L59.9468 438.55L60.4539 438.808L61.209 439.056L62.2233 439.823L62.7417 440.329L62.9896 441.085L63.2375 441.591V443.372L62.9896 444.387L62.7417 445.143V445.909L62.9896 446.923L63.4968 447.43L63.756 448.185L64.2518 448.952L65.2661 449.966L65.7733 450.721L66.2804 451.228L66.7875 451.995L67.2947 452.502L67.5539 453.257L68.061 453.764L68.5682 454.53L69.0753 455.037L69.3232 455.792L69.8304 456.559L70.3375 458.08L70.5967 459.095V459.85L70.8447 460.616L71.3631 461.372L71.611 461.878L72.1182 462.646L72.6253 463.152L75.6681 464.166H76.4345L80.2324 465.428L80.7395 465.686H81.4946L85.3038 466.948H86.0702L89.113 467.963L89.6089 468.221L90.3752 468.471H91.1303L94.9395 469.745H95.6946L97.9823 470.5L98.4895 470.758L100.011 471.265H100.777L104.575 472.527H105.33H106.852L107.618 472.279H109.139L109.895 472.02H110.661L111.427 471.772H112.937L113.704 471.514H115.225L116.239 471.265H116.994L117.761 471.007H120.037L120.804 471.265H122.325L123.091 471.514H123.847L124.602 471.772H125.368L126.134 472.02H126.889L127.644 472.279H128.411L129.166 472.527H131.454L132.209 472.279H133.73L134.497 472.02H135.004L137.28 471.265H138.046L141.844 469.991H142.611L143.366 469.743L143.873 469.484L146.161 468.729H146.916L148.449 468.222H152.506L153.261 467.964H161.127L161.882 467.716H163.651L165.939 466.948L166.446 466.442L167.968 465.935H169.996L171.011 466.193L171.518 466.442L172.273 466.948L173.039 467.208L173.546 467.456L175.068 467.963L175.575 468.47L177.096 468.977L177.603 469.235L178.359 469.742H180.646L181.401 469.99L182.416 469.742H183.182L183.937 469.483H184.703L185.47 469.235L185.966 468.977L186.732 468.728L187.746 468.221L187.994 467.715L188.513 467.208L188.761 466.441L189.268 465.934L189.527 465.179L190.023 464.412L190.282 463.906L190.789 463.149L191.037 462.643L191.544 461.876L192.051 461.37L192.818 461.121H207.525L209.047 461.628L209.555 461.876L210.31 462.383L211.076 462.642L211.583 463.148L212.338 463.397L213.104 463.904L213.872 464.671L214.367 465.426L214.885 465.933L215.64 466.191L216.396 465.933H217.41L219.697 465.178L220.71 464.919L221.467 464.412L221.973 464.164L222.739 463.657L223.505 463.398L224.262 462.891L224.769 462.643H225.782L226.549 462.891H227.304L228.06 463.149H228.826L229.581 463.398H230.347L231.362 463.657H232.117L232.883 463.906H234.406L235.161 464.164H235.927L236.683 464.412H239.23L240.491 463.149L240.998 461.628L241.256 461.121L242.013 458.834L242.52 458.078L242.768 457.572L243.275 456.805L243.533 456.049L244.547 454.528L245.56 453.514L247.083 452.501L250.126 451.486L250.892 450.979L251.387 450.721L252.154 450.214L252.661 449.707L253.417 449.2L253.934 448.445L254.183 447.678L254.69 446.664L254.938 445.909L255.197 444.896L255.445 444.128L256.211 443.373L257.226 443.115L257.981 443.373H258.747L259.503 443.622H261.025L261.791 443.88H262.557L263.313 444.128H264.835L265.601 444.387H266.357L267.113 444.635L268.126 444.895L268.892 445.401L269.14 446.415L268.892 447.17L268.634 448.184L268.892 449.197L269.399 449.965L269.648 450.72L270.415 450.978L272.443 453.007L272.691 453.763L273.198 454.269L273.706 455.283L272.951 457.571L273.198 458.326V459.339L273.706 460.862V464.673L273.964 465.428V465.935L274.471 466.702L274.72 467.209L275.237 468.73L275.733 469.485L275.991 469.992L276.25 470.759L276.745 471.515L277.004 472.281L277.511 472.788L278.019 473.544L279.54 475.065L280.295 475.572L280.802 476.079L281.569 476.586L282.076 476.844L282.831 477.352L283.338 477.859L283.845 478.872V479.627L283.338 480.395L282.325 481.408L281.816 482.163L281.31 482.67L280.803 483.436L280.555 483.943L280.048 484.451L279.541 485.206L278.527 486.22L278.021 486.986L277.007 488L276.747 488.756L276.253 489.263L275.238 490.784L274.721 492.306V493.073L274.979 493.579L275.734 494.086L276.747 495.1L277.515 495.608L278.022 495.856L279.035 496.87L279.293 497.376L279.79 498.649V499.405L280.296 500.927L280.803 501.693L281.061 502.448L281.569 502.955L282.076 503.722L282.325 504.478L282.583 504.984V505.752L282.325 506.507L281.816 507.273L281.31 507.78L280.803 508.535L280.296 509.042L279.79 510.564L280.048 511.071L280.296 511.837L281.062 512.344L282.077 513.099L282.584 513.359L284.105 513.865L285.12 514.114L285.875 514.372H288.929L289.684 514.114H291.971L292.726 513.865L293.482 514.114H294.248L295.004 514.372H295.51L296.277 514.621H297.032L297.798 514.879H298.554L299.321 515.127H300.077L300.843 515.386H302.365L303.12 515.634H306.929L307.685 515.386H310.727L311.493 515.127H313.771L314.537 514.879H317.58L318.335 514.621H321.378L322.144 514.879H322.901L323.667 515.127H324.68L325.187 514.621L325.693 513.607V511.33L326.201 509.301L326.707 509.043L327.463 508.536L327.982 508.288L328.737 508.029L329.243 507.781H330.765L331.521 507.522H333.043L333.81 507.274H335.331L336.086 507.016L336.853 507.274H338.633L340.143 506.767L341.676 505.754L342.689 504.74L343.444 504.232L345.474 502.204L346.229 501.697L346.736 501.19L347.243 500.423L347.749 499.916L348.516 499.41L349.53 498.903H350.296L351.051 499.161H353.34V498.395L353.587 497.64V496.366L353.836 495.611L354.355 494.843L355.866 493.83L356.632 493.581L357.387 493.075L358.154 492.308L358.403 491.553L358.661 491.046V490.54L358.91 489.772V486.481L358.661 485.468L358.146 484.959H355.859L355.103 485.207H354.348L353.829 485.466H351.801L351.045 485.714L350.29 485.466H349.523L349.017 485.207L348.758 484.7L349.017 484.194L350.03 482.671L350.537 482.164L351.043 481.409L351.303 480.642L351.799 479.887L352.317 478.365L352.565 477.859L352.813 477.091L353.072 476.078V475.323L353.578 473.801V469.991L353.072 469.236L352.813 468.47L352.565 467.963L352.317 467.208L352.058 466.701V465.934L351.8 465.179L352.058 464.165L352.565 463.398L353.072 462.891L353.827 462.384L354.346 462.136H356.363L357.129 462.384L358.651 461.629L358.9 461.122L359.407 460.615L359.665 460.109L360.172 459.341L360.928 458.835L361.695 458.586H362.201L362.967 458.835H363.722L364.478 458.586L365.245 458.079L365.752 457.573L366.507 457.066L367.025 456.559L367.78 456.052L368.287 455.545L369.042 455.039L369.55 454.779L371.072 453.766L371.839 453.517L372.345 453.259L373.1 452.752L374.622 452.245L375.388 451.738L375.896 451.49L376.402 450.983L377.158 450.475L377.676 449.709L378.431 449.202L378.937 448.696L381.215 447.94L381.981 447.434L382.736 447.174L383.503 446.161L384.009 445.654L385.023 444.132L385.53 443.626L386.037 442.869L386.543 441.348L387.052 440.582L387.3 439.827L388.573 438.553L389.079 438.304L389.835 437.797L390.602 437.539L391.369 437.032L392.124 436.784L392.879 436.277L393.397 436.019L395.415 433.989L395.921 433.234L397.443 431.712L397.702 430.946L398.209 430.19L398.716 428.668L397.95 426.381L397.442 425.875L396.935 425.118L396.686 424.352L396.18 423.845L395.921 423.09L395.415 422.323L394.908 421.816L394.66 421.061L394.152 420.295L393.893 419.788L392.879 418.266L392.63 417.759L391.616 416.237L391.369 415.731L390.85 414.974L390.602 414.208L390.094 413.701L389.588 412.946L389.339 412.179L388.822 411.424L388.573 410.41V408.889L389.079 407.874L389.587 407.367L390.093 406.601L390.353 405.846L390.6 405.339L390.353 404.572V403.816L389.586 401.528V400.773L389.078 399.252V398.484L388.323 396.208V394.934L388.065 394.179V393.165L388.323 392.399L388.572 391.384L388.821 390.629L389.834 390.122H390.6L392.123 389.615H392.878L395.165 388.849L397.442 386.572L397.7 385.805L398.208 385.299L398.456 384.792V383.531L397.95 382.516L397.7 381.75L397.194 380.995V376.937L396.935 376.17V375.663L396.686 374.908L395.92 374.401L395.414 374.143L393.136 372.621L392.629 372.114L392.123 371.359L391.615 369.837V365.779L391.864 364.765V362.985L391.615 362.479V360.202L391.864 359.436V356.9L392.123 356.145V354.622L392.381 353.856V349.799L392.123 349.043L391.864 348.537L391.615 347.769L390.848 347.521L389.835 347.014L389.079 346.756L388.573 346.001L388.066 345.494L387.808 344.987L387.301 344.22L387.053 343.465L386.794 342.958L386.288 342.192L385.273 339.149L384.766 338.394L384.518 337.626L384.01 337.12L383.244 336.613L381.216 336.106L380.46 336.364H379.447L378.172 335.091L377.924 334.336V333.569L377.676 332.814V332.048L377.417 331.292V330.525L376.662 328.249L376.145 327.481L375.896 326.726L375.647 326.219L375.388 325.453V324.698L375.13 323.931V323.176L374.881 322.409V321.654L374.623 320.887V320.132L374.375 319.366V318.616L374.116 318.11L373.867 317.344L373.361 316.836L373.102 316.081L372.596 315.314L372.089 314.808L371.582 314.052L371.332 313.545L370.826 312.779L370.319 312.273L369.553 311.764L369.046 311.258L368.291 310.751L367.276 310.503H363.986L363.219 310.751H360.684L358.397 311.518L357.641 312.025L355.363 312.78L354.597 313.287L353.075 313.794L352.061 313.545L351.047 312.779L350.789 312.273L350.292 311.764L350.034 311.009V309.996L350.292 309.229H351.047L351.803 308.981H353.077L353.832 308.723H354.598L355.364 307.968L355.861 307.201L356.367 306.187V305.432L355.612 304.925L355.105 304.667L354.598 304.158L353.832 303.911L352.569 302.637V301.882L352.817 301.116L353.337 300.608H354.35L354.846 300.867H355.612L356.367 301.116H357.889L358.655 300.867L359.163 300.361L359.669 299.594L359.918 298.58L361.191 294.782L361.44 293.768V293.261L361.699 292.755V291.988L361.44 291.739V291.232L361.191 290.725L360.685 289.959L359.671 289.452L358.904 288.944L358.149 288.189L357.642 287.176L357.384 286.409V285.145L357.89 284.638L358.904 284.38H359.918L360.685 283.872L361.191 283.366L363.22 277.28V276.525L363.47 276.018L363.728 275.251L363.47 274.238L363.22 273.482L361.699 272.469L361.191 271.962L359.669 270.947L359.163 269.934L358.655 269.427L358.397 268.66V267.647L359.163 265.37L359.411 264.863L359.918 264.097L360.177 263.341L360.424 262.834L360.933 262.068L361.191 261.313L361.699 260.547L361.947 260.039L362.454 259.284L362.971 258.777L363.468 258.011L363.727 257.256L364.235 256.749L365.248 255.227L365.496 254.72L366.015 253.954L366.262 253.199L366.511 252.692L367.03 251.925L367.278 251.17L367.527 250.663L368.044 249.897L368.541 249.389L369.307 248.882L369.813 248.375L370.568 248.127L371.335 247.62L372.091 247.361L372.598 246.854L373.364 246.606L374.12 245.592L374.627 245.084L374.885 244.577L375.134 243.811L375.651 243.056L375.9 242.29V241.531L376.149 240.765V239.75L375.652 238.229V237.474L374.628 234.431V233.665L373.872 231.388V230.374L373.613 229.608V228.593L373.364 227.838L373.105 226.824L372.599 225.303L372.092 224.536L371.079 223.522L370.323 223.015L369.31 222.767H368.801L368.046 222.508H366.515L365.76 222.767H364.745L363.99 223.015H363.224L362.21 223.274H361.443L360.688 223.015L359.922 222.508V219.724L360.18 218.958V218.203L360.428 217.436V216.681L360.687 215.667V214.9L360.936 214.145V213.379L361.194 212.624V211.858L361.702 210.336V209.322L361.95 208.567V207.801L362.208 207.045V206.279L362.458 205.524V204.758L362.716 204.003V201.467L362.458 200.193L361.443 199.179L360.937 198.424L360.429 197.917L359.923 197.151L359.168 196.643L358.66 195.888L358.154 195.381L357.646 194.615L357.388 194.108L356.374 192.586L356.125 192.079L354.604 189.803L354.356 189.296L353.343 187.774L352.823 187.267L352.575 186.501L352.068 185.746L351.562 185.238L351.313 184.472L350.299 182.951L349.781 182.443L349.532 181.688L349.026 181.181L348.26 180.674H347.246L345.476 178.893V177.879L344.71 175.603L344.968 174.588V173.822L345.724 173.067H350.546L351.561 173.315L352.327 173.574L353.588 174.836L354.356 175.344L354.852 175.603H355.618L355.867 174.836L356.373 174.081V171.286L356.124 170.531V169.01L355.866 167.996V162.665L356.124 161.91L356.373 160.896L356.88 160.129L357.138 159.374L357.645 158.608L357.893 158.101L358.402 157.346L358.908 156.839L359.167 156.072L359.673 155.317L359.922 154.551V152.274L359.415 150.753L358.908 149.986L358.402 149.479L357.893 148.724L355.617 147.203L354.85 146.944H354.095L351.808 146.189L351.051 145.681L350.545 145.174L350.296 144.408L350.038 143.394L349.78 142.639L349.531 141.624L349.273 141.117L348.26 139.596L347.246 138.581L346.738 137.815L345.982 137.308L345.476 136.801L344.71 136.294L342.94 134.524L342.174 134.017L341.419 133.758L340.911 133.251L340.144 132.744L339.131 132.496L338.375 131.989H337.62L336.854 132.237L336.348 132.744L335.839 133.51L335.581 134.017L335.073 134.772L334.825 135.539L334.318 136.046L334.06 136.801L333.553 137.567L333.304 138.074L332.798 138.581L332.29 138.829L332.032 138.322L331.525 137.815L330.769 135.539V134.772L330.263 133.251V132.744L330.014 131.729V130.208L329.756 129.453V128.687L329.498 127.931V126.917L329.249 126.151V124.629L329.001 123.874V122.86L328.743 122.094V120.572L327.988 118.296V117.529L327.468 116.008L327.22 114.994L326.713 113.472V112.717L325.699 109.674V107.894L326.455 107.387H328.484L330.015 106.879L330.77 106.372L331.526 106.124L332.293 105.617L333.049 105.358L333.555 104.851L334.321 104.344L334.828 103.837L335.585 103.589L336.091 103.082L336.857 102.574L337.871 101.56L338.638 101.053L339.9 99.7795L341.422 97.503L341.928 96.9959L342.178 96.2295L342.695 95.4744L342.944 94.9673L343.193 94.201L343.451 93.6938L343.959 91.6652V90.1438L344.207 89.3887V86.3459L344.465 85.5795V81.0153L344.714 80.2602V78.4796L344.465 77.4653V76.7102L344.207 76.451L343.7 76.2031H343.194L342.697 76.7102L341.931 77.2174L341.164 77.4653L340.67 77.2174L339.902 76.7102L339.654 76.2031L339.395 75.4367L338.889 74.9296L338.64 74.1745L338.719 73.6223L338.032 74.0844L337.524 74.6028L336.758 75.1099L336.252 75.617L335.497 76.1242L334.729 76.3721L333.716 76.6313L332.961 76.8793L332.194 76.3721L331.439 76.1242L330.931 75.617L330.165 75.1099L329.41 74.8507L329.151 74.0844L328.656 73.3293L327.89 71.0415L327.381 70.2864L327.123 69.5313V68.765L326.368 66.4885V65.4742L325.355 62.4314L324.847 61.665L324.6 60.6507L324.341 59.8957L323.834 59.3773L323.327 58.6222L322.82 58.115L322.312 57.36L321.546 56.8528L321.04 56.0865L320.516 55.5793L319.761 55.0722L319.255 54.8243L318.488 54.3171L317.474 51.2743L317.733 50.5079V49.7529L318.239 48.2314L318.488 47.2171V46.4508L318.994 44.9294L318.746 43.9151V42.3937L318.488 41.6386V39.1029L317.733 36.8151L317.474 36.308L316.979 35.5529L316.46 34.0202L315.965 33.5243L315.706 32.758L315.2 32.2509L314.186 30.7294L313.937 30.2223L313.419 29.4672L312.923 28.9601L312.665 28.1937L312.157 27.4386L311.651 26.9315L311.144 26.1652L308.856 19.3244L308.35 18.558L307.842 17.0366L307.595 16.5295L307.087 15.7744L306.829 15.2673L306.322 14.5009L306.074 13.9938L305.306 13.4866L304.8 13.2387L304.045 12.7316L303.538 12.2244L302.77 11.9652L302.276 11.4581H301.509L300.495 11.2101L298.974 10.6917H298.207L295.93 9.93664H295.162L294.149 10.1959H292.626L289.596 11.2101L286.554 14.253L286.03 15.0081L285.524 16.5295L285.016 17.2958L284.769 18.0509L284.51 18.558L284.003 19.3244L283.496 20.8458L282.99 21.6009L282.741 22.356L280.205 24.9029L279.699 25.658L278.176 26.1652L277.163 26.4244L276.396 26.9315L275.641 27.1794H266.005L264.483 27.6866H263.716L262.961 27.9458H261.948L261.193 28.1937L260.673 28.7009L259.918 28.9601L259.152 29.4672L258.397 29.7151L257.63 30.2223L257.122 30.4815L255.601 31.4958L255.095 32.0029L254.34 32.5101L253.831 32.758L253.065 33.2651L252.57 33.7723L251.804 34.2794L251.296 34.7866L250.79 35.5529L249.775 36.5672L249.269 37.3223L248.255 38.3365L247.748 39.1029L247.49 39.61L246.982 40.1172L246.475 40.8722L246.226 41.8865L245.968 42.6529L245.461 43.4079L244.955 44.9294L244.447 45.6845L244.2 46.4508L243.692 47.2171V48.7273L243.434 49.7529V56.0865L243.692 57.1008V60.91L243.434 61.665V62.4314L243.186 63.1865V63.9528L242.927 64.7079L242.421 65.215L241.912 65.9814L241.157 66.4885L240.144 68.0099L239.637 67.2436L239.378 66.4885L238.883 65.9814L238.365 65.215V64.4599L237.61 62.1722V61.4058L236.336 57.6079L235.581 57.36H234.306L233.551 57.8671L232.785 58.115L232.03 58.6222L231.264 58.8814L230.508 59.3773L230.001 59.6365L228.479 59.1293L227.973 58.6222L227.218 58.363L226.958 57.8671L226.452 57.1008L226.203 56.3457L225.685 55.8385L225.437 55.0722V54.3171L224.93 52.7957L224.672 52.2886V51.5222L224.423 50.7671V49.7529L224.175 48.9865V48.2314L223.917 47.4651V46.6987L223.408 45.1886V44.4222L223.162 43.6672V42.9008L222.902 42.1457V41.3794L222.643 40.3651V39.61L222.395 38.8437V38.0886L222.137 37.3223V34.7866L221.888 33.7723V33.0059L221.629 32.2509L221.382 31.7437L220.615 29.4672L219.602 29.208L218.079 28.7009L217.324 28.1937L216.556 27.9458L215.555 27.6866H214.787L213.265 27.1794H212.509L210.978 26.6723H210.223L208.701 26.1652H207.934L207.179 25.9172L206.166 25.658H205.398L203.873 25.1509H203.118L202.352 24.9029H198.047L197.281 25.4101L195.759 25.9172L194.745 26.1652L193.99 26.4244L193.483 26.9315L192.716 27.1794L191.961 27.6866L191.454 28.1937L190.688 28.7009L190.192 28.9601L189.426 29.4672L188.918 29.9743L188.163 30.4815L187.397 30.7294L186.89 31.2366L186.135 31.7437L182.833 35.0345L182.066 35.5529L181.559 36.0488L180.804 36.308L180.038 36.8151L179.531 36.5672L178.776 36.308L178.009 35.8008L177.761 35.2937L177.513 34.5386L177.254 34.0202L176.995 33.0059L176.747 32.2509V31.4958L175.981 29.208V28.4529L175.485 26.9315L175.226 26.4244L174.718 24.9029L174.47 24.3958L173.952 23.8887L173.456 23.1223L172.442 22.108L171.924 21.8601L171.168 21.3417L170.661 20.8458L169.895 20.5866L169.388 20.0795L168.633 19.8315L166.852 18.0509L166.097 17.5438L165.59 16.0223L165.083 15.2673L164.835 14.5009V12.9795L164.576 12.2244V11.4581L164.835 10.9509V10.1959L164.576 9.42951L164.316 8.41522L164.068 7.64888L163.561 6.8938L162.288 5.63158L161.792 4.86523H158.738L157.216 5.37237L156.461 5.87952L155.695 6.13872L155.188 6.38666L154.433 6.8938L152.404 8.92236L151.638 9.42951L151.39 10.1959L150.883 10.9509L150.376 11.4581L150.128 12.2244L149.609 12.9795L149.113 13.4866L148.595 14.253L148.347 15.0081L147.84 15.5152L147.333 17.0366L146.826 17.803L146.566 18.3101L146.059 19.0652L145.811 19.8315L145.304 20.5866L145.045 21.3417L144.797 21.8601L144.29 22.6152L144.031 23.3702L143.524 24.1366L143.016 24.6437L142.261 25.1509L140.481 26.9315L139.726 27.4386L136.683 28.4529H121.469L120.702 28.1937H119.947L118.426 27.6866L117.919 27.4386L117.152 26.9315L116.397 26.6723L115.631 26.1652L113.861 24.3958L113.354 23.6295L111.078 21.3417L110.559 20.5866L108.283 18.3101L107.776 17.5438L105.995 15.7744L105.488 15.5152L104.733 15.0081L103.967 14.7601L103.459 14.253L102.704 13.9938L101.938 14.253H100.676L99.9095 14.5009H99.1544L98.6473 15.2673L97.8809 15.7744L96.8666 16.7887L96.1116 17.2958L95.6044 18.8172L95.0973 19.5723L94.8381 20.0795L94.5901 20.8458L94.083 21.6009V22.356L93.8238 23.3702L93.5759 24.1366V24.9029L93.3167 25.9172L93.0687 26.6723V27.4386L93.3167 28.1937V30.7294L93.5759 31.7437V33.5243L93.8238 34.5386V35.2937L93.5759 36.308L93.3167 37.0743V37.8294L93.0687 38.5957L92.5616 39.61L92.3024 40.3651L91.7952 40.8722L90.7809 42.3937L90.2738 42.9008L89.7667 43.6672L89.2595 44.1743L88.2452 45.6845L87.7494 46.2029L86.7351 47.713L86.4759 48.2314L85.9687 48.9865L85.4616 49.4936L84.9545 50.26L84.4473 50.7671L83.6922 51.2743L83.1738 51.7814L82.4188 52.0294H81.6524L80.6381 52.2886L80.131 51.7814L78.6096 51.2743L77.8545 50.7671L77.3473 50.26L76.581 49.7529L73.7974 46.9579L73.2789 45.414L72.1182 45.5154L71.3631 45.7746H70.5967L69.8304 46.0225H69.0753L67.5539 46.5297L66.7875 47.0368L66.0325 47.296L65.2661 47.8032L62.9896 48.5582L62.2233 49.0654L61.4682 49.3246L60.9611 49.8317L60.1947 52.1082V52.8746L59.9468 53.6297V54.396L59.6988 55.1511V56.1654L59.4396 56.9317V60.7296L59.6988 61.2368L59.9468 62.0031L60.4539 62.7582L61.209 63.2653L62.2233 64.2796L63.2375 65.801L63.756 67.3225V68.3368L63.4968 69.351L63.2375 70.1174L62.2233 70.3653L61.4682 70.1174L59.9468 69.1031L59.4396 68.596L58.6846 68.0888L58.1661 67.3225L57.4111 66.8153L56.9039 66.3082L56.1376 65.801L55.6304 65.2939L54.8754 64.7868L54.3682 64.0317L53.8611 63.5246L53.3539 62.7582L52.8468 61.2368L52.5876 60.2225L52.0804 59.7154L51.0774 58.1939L50.559 57.6868L49.0489 57.1796L48.2825 57.4389L47.7754 57.946L47.5162 58.7011V59.2082L47.2682 59.9746V60.7296L47.0203 61.496V62.2511L46.7611 63.0174V63.7725L46.5019 64.5388V65.5531L46.254 66.3082V67.8296L46.006 68.596V69.351L45.7468 70.1174V75.6959L46.006 76.2031L46.5019 76.9582L47.2682 77.4653L47.7754 77.9724L48.5305 78.4796L48.7897 79.2459L49.2968 80.001V81.0153L49.0489 81.7816V82.5367L48.5305 83.3031L48.0346 84.8245L47.5162 85.8388L46.5019 87.3602L45.4876 88.3745L43.9662 89.3887H43.2111L41.6897 89.8959H40.9233L39.9091 90.1438L38.3989 90.651H37.6326L36.1111 91.1581H35.0969L34.5897 91.9244L34.3418 92.6795L34.5897 93.6938L34.8377 94.4602L35.3561 94.9673L35.8519 96.4887L36.3703 97.2438L36.6183 98.0101L36.8662 98.5173L37.3846 99.2724L37.8805 100.794L38.3989 101.301L38.8948 102.822L39.4019 103.589L39.6611 104.344L39.9091 104.851V105.358L40.1683 106.124V108.66L39.9091 109.415L39.6611 110.429L39.154 111.951L38.8948 112.458L38.3989 113.224L38.1397 113.979L37.6326 114.487L37.3846 115.253L36.8662 115.501L35.8519 116.515L35.0969 116.774L33.5754 117.789L32.8091 118.037L32.3019 118.803L31.7948 119.31L31.2877 120.065L29.5183 125.396L29.2591 126.41L28.752 127.931L28.2448 128.439L27.9969 128.946L26.9826 129.96L26.4755 130.715L25.9683 131.222L25.4612 131.989L25.202 132.744L24.954 133.251V134.017L24.7061 134.772V135.786L24.4469 136.553V139.844L24.1877 140.61V141.365L23.9398 142.131V143.146L23.4326 143.901L22.9255 144.915L22.4183 145.681L22.1591 146.189L20.3898 147.958L19.8826 148.724L19.1163 149.231L18.8683 149.739L17.8541 152.781L17.3469 153.536L16.8398 155.058L16.3326 155.565L16.0734 156.331L15.0592 157.086L14.552 157.594L13.7969 157.853L13.0419 158.36L12.2755 158.608L11.5092 159.115H10.7541L8.46632 159.881H7.71124L6.18982 160.388H5.43474L4.6684 160.896L3.90205 161.144L3.40618 161.91L2.88777 162.924L2.3919 164.446L2.13269 164.953V165.708L1.37761 167.996H1.11841L0.859203 168.503L0.363331 169.01L0.104126 169.517V170.272L0.611267 171.794L1.11841 172.56L1.37761 173.315L2.3919 174.836L2.63983 175.603L2.88777 176.617L3.14697 177.372V178.138L3.40618 178.893V180.415L4.42046 182.443L5.17554 182.951L5.68268 183.458L5.93061 184.224L6.18982 185.238L5.68268 185.993L5.43474 186.76L4.6684 187.515L3.90205 187.774L3.14697 188.281L2.88777 189.036L3.14697 189.543L3.40618 190.31L4.91633 192.586L5.43474 193.093L5.93061 193.86L6.18982 194.615L6.69696 195.381V197.917L6.44902 198.672V199.686L6.18982 200.453V201.208L5.68268 202.729V203.743L5.43474 204.51V205.265L4.91633 206.786V207.553L4.6684 208.567V209.322L4.16125 210.843V212.365L3.90205 212.872V214.653L4.16125 215.667V216.422L4.42046 217.436V218.203L4.6684 218.958V219.465L4.91633 219.972L5.17554 220.738L5.68268 221.493L5.93061 222.26L6.44902 223.015L6.69696 223.781L7.2041 224.288L8.21838 225.81L8.46632 226.317L9.4806 227.838L9.99901 228.345L10.4949 229.867L11.0133 230.622L11.2612 231.636L11.5092 232.402V234.172L11.2612 234.938V235.952L9.73981 240.517L9.4806 241.024L9.23266 241.779L8.72552 242.545L7.2041 247.11L6.69696 247.617L6.18982 248.372L5.93061 249.138L5.43474 249.893L4.91633 250.4L4.42046 251.167L3.65411 251.674L3.14697 252.429L2.63983 252.936L2.3919 253.443L0.611267 258.774L0.363331 259.281L-0.15508 260.802L-0.650951 261.817L-0.910156 262.572V263.845L-0.650951 264.6L-0.403015 265.107L-0.15508 265.874L0.104126 266.381L1.37761 267.643L2.13269 268.15L2.88777 268.408L5.17554 269.931L5.68268 270.437L5.93061 271.451L4.6684 275.249L3.65411 276.262L3.14697 277.031L2.13269 278.045L1.62555 278.8L0.611267 279.815L0.104126 280.581L-0.910156 281.595L0.611267 282.609Z" fill="#1E1E1E" stroke-width="1.01428" stroke-miterlimit="3" style="stroke: rgb(30, 30, 30);"/>
    <path d="M164.521 240.46L161.483 239.201L161.478 242.241L167.817 247.823L162.498 259.738L153.876 264.806L150.833 263.544L148.038 268.108L143.474 268.36L139.169 271.657L136.126 270.14L131.81 270.647L133.331 271.905L133.591 276.221L132.069 277.747L130.796 280.787L129.274 281.039L128.589 279.17L126.491 281.038V284.076L123.696 284.334L121.926 282.814L120.653 285.857L122.174 287.38L120.912 288.9L113.553 290.674L113.812 295.232L112.539 298.277L113.812 300.305L114.567 307.671L111.524 309.942L111.784 312.985L113.305 312.738L116.596 317.809L114.319 318.316L110.51 317.302V318.825L113.812 321.612L119.391 318.322L132.601 322.205L129.026 330.738L132.824 333.278L129.274 336.575L125.16 336.493L123.696 339.865L121.926 337.079L119.131 337.327L119.391 344.687H116.348L118.117 350.513L116.855 350.515L109.248 346.718L102.148 351.528L102.655 360.152L99.6121 361.933V358.888L98.0907 357.615L95.0479 359.139V357.876L90.7315 358.124L89.4693 355.588H83.1244V357.876L86.4265 359.903V362.687L82.1101 362.948L81.8622 360.15L74.503 360.411V357.614L70.198 359.394L68.6765 362.436L64.0039 363.754" stroke-width="1.12698" stroke="white" style="stroke-opacity: 0.5;"/>
    <path d="M352.059 464.165L343.943 462.65L340.755 453.719L336.699 449.911L332.639 450.176V457.271L328.583 450.931L319.715 449.163L320.726 434.704L316.416 425.826L325.296 423.031L325.537 411.373L328.082 409.338L326.82 404.266L320.97 400.722L323.51 394.128L317.681 390.072L318.949 384.242L311.597 380.187L305.253 380.942L304.049 395.53L296.798 397.017L283.358 396.515L276.162 392.921L277.111 378.669L272.549 377.389L271.782 372.069L266.711 371.812L262.654 378.405L261.392 383.735L257.075 387.53L261.64 392.357L254.54 395.649L246.177 398.69L244.903 406.049L236.282 402.241L230.457 402.504L224.879 408.589L220.312 405.79L214.736 409.093L205.852 405.032L199.011 405.54L189.378 407.308L185.32 424.553L186.037 441.668L171.035 435.802L149.968 451.007L139.279 447.12L134.748 431.047L120.914 431.147L115.636 443.592L104.426 451.692L105.333 472.526" stroke="white" stroke-width="1.12698" style="stroke-opacity: 0.5;"/>
    <g opacity="0.408">
      <path d="M374.624 233.665L371.733 238.011L373.013 240.475L370.477 245.984L365.604 244.519L364.082 241.735L360.532 239.707L359.518 235.899L362.313 234.376L360.79 232.855L357.997 234.376L354.705 232.101L355.969 235.898L356.733 238.942L354.448 237.926L353.46 234.532L350.897 234.637L350.142 237.172L346.592 236.157L346.839 240.722L344.304 241.737L338.731 245.11L333.405 246.808L328.072 245.533L324.277 254.415L319.453 258.472L315.656 254.663L312.515 246.339L305.253 247.821L299.149 252.922L292.326 254.663L289.529 252.633L295.11 249.592L287.761 248.328L284.718 240.97L274.024 238.983L269.416 239.051L267.183 237.848L265.07 238.6L260.88 248.455L252.378 245.076L246.565 255.726L242.859 256.168L240.268 247.436L233.822 248.87L236.727 236.557L241.646 234.947L236.672 228.731L228.934 228.292L226.139 232.856L220.312 234.637L213.793 231.661L208.389 231.594L204.585 224.998L199.011 232.856L196.795 228.959L190.633 228.796L189.377 231.842L184.899 229.335L172.635 229.055L170.353 236.665L164.527 240.463L162.746 236.913L160.977 229.058L152.355 222.465L148.546 217.901L146.518 209.02L141.705 203.442L149.82 183.663L144.996 179.606L146.271 175.042L140.691 171.492L143.983 161.856L132.071 160.842L130.29 156.537L124.203 154.756L113.553 154.508L114.061 149.944L108.234 154.756L101.207 154.869L93.775 152.728L83.3842 156.278L82.1107 159.32L86.9342 163.637L82.1042 171.041L78.3128 170.23L74.5036 165.406L67.4036 164.899L67.1557 161.856L69.9393 158.565L65.1271 154.508L64.8679 149.944L60.5629 150.192L57.7679 153.494L58.7822 148.93L53.4629 146.135L38.2486 154.756L39.5109 156.785L33.1772 166.928L30.1344 167.187L27.4006 169.064L24.2966 168.956L23.0344 171.999L19.9916 169.215L18.2109 164.899L22.7752 166.172V167.694C23.397 167.362 24.0223 167.036 24.6509 166.718C26.4521 165.804 28.281 164.946 30.1344 164.144L29.8752 162.622L26.8323 161.349L31.6558 156.537L30.6415 152.22L23.2823 152.728L24.5558 148.163L21.513 147.408" stroke="white" stroke-width="1.12698"/>
    </g>
  </g>
  <defs>
    <clipPath id="clip0_125_1190">
      <rect width="399.262" height="519.221" fill="white"/>
    </clipPath>
  </defs>
</svg>